G04 #@! TF.GenerationSoftware,KiCad,Pcbnew,5.0.1-33cea8e~68~ubuntu18.04.1*
G04 #@! TF.CreationDate,2018-11-12T15:12:41+00:00*
G04 #@! TF.ProjectId,ignition,69676E6974696F6E2E6B696361645F70,rev?*
G04 #@! TF.SameCoordinates,Original*
G04 #@! TF.FileFunction,Soldermask,Bot*
G04 #@! TF.FilePolarity,Negative*
%FSLAX46Y46*%
G04 Gerber Fmt 4.6, Leading zero omitted, Abs format (unit mm)*
G04 Created by KiCad (PCBNEW 5.0.1-33cea8e~68~ubuntu18.04.1) date Mon 12 Nov 2018 15:12:41 GMT*
%MOMM*%
%LPD*%
G01*
G04 APERTURE LIST*
%ADD10C,0.100000*%
G04 APERTURE END LIST*
D10*
G36*
X66248245Y-112995522D02*
X66444534Y-113034566D01*
X66684467Y-113133950D01*
X66721885Y-113149449D01*
X66971496Y-113316234D01*
X67183766Y-113528504D01*
X67183768Y-113528507D01*
X67350551Y-113778115D01*
X67465434Y-114055466D01*
X67524000Y-114349899D01*
X67524000Y-114650101D01*
X67465434Y-114944534D01*
X67350551Y-115221885D01*
X67183766Y-115471496D01*
X66971496Y-115683766D01*
X66971493Y-115683768D01*
X66721885Y-115850551D01*
X66444534Y-115965434D01*
X66248245Y-116004478D01*
X66150102Y-116024000D01*
X65849898Y-116024000D01*
X65751755Y-116004478D01*
X65555466Y-115965434D01*
X65278115Y-115850551D01*
X65028507Y-115683768D01*
X65028504Y-115683766D01*
X64816234Y-115471496D01*
X64649449Y-115221885D01*
X64534566Y-114944534D01*
X64476000Y-114650101D01*
X64476000Y-114349899D01*
X64534566Y-114055466D01*
X64649449Y-113778115D01*
X64816232Y-113528507D01*
X64816234Y-113528504D01*
X65028504Y-113316234D01*
X65278115Y-113149449D01*
X65315533Y-113133950D01*
X65555466Y-113034566D01*
X65751755Y-112995522D01*
X65849898Y-112976000D01*
X66150102Y-112976000D01*
X66248245Y-112995522D01*
X66248245Y-112995522D01*
G37*
G36*
X46248245Y-112995522D02*
X46444534Y-113034566D01*
X46684467Y-113133950D01*
X46721885Y-113149449D01*
X46971496Y-113316234D01*
X47183766Y-113528504D01*
X47183768Y-113528507D01*
X47350551Y-113778115D01*
X47465434Y-114055466D01*
X47524000Y-114349899D01*
X47524000Y-114650101D01*
X47465434Y-114944534D01*
X47350551Y-115221885D01*
X47183766Y-115471496D01*
X46971496Y-115683766D01*
X46971493Y-115683768D01*
X46721885Y-115850551D01*
X46444534Y-115965434D01*
X46248245Y-116004478D01*
X46150102Y-116024000D01*
X45849898Y-116024000D01*
X45751755Y-116004478D01*
X45555466Y-115965434D01*
X45278115Y-115850551D01*
X45028507Y-115683768D01*
X45028504Y-115683766D01*
X44816234Y-115471496D01*
X44649449Y-115221885D01*
X44534566Y-114944534D01*
X44476000Y-114650101D01*
X44476000Y-114349899D01*
X44534566Y-114055466D01*
X44649449Y-113778115D01*
X44816232Y-113528507D01*
X44816234Y-113528504D01*
X45028504Y-113316234D01*
X45278115Y-113149449D01*
X45315533Y-113133950D01*
X45555466Y-113034566D01*
X45751755Y-112995522D01*
X45849898Y-112976000D01*
X46150102Y-112976000D01*
X46248245Y-112995522D01*
X46248245Y-112995522D01*
G37*
G36*
X26248245Y-112995522D02*
X26444534Y-113034566D01*
X26684467Y-113133950D01*
X26721885Y-113149449D01*
X26971496Y-113316234D01*
X27183766Y-113528504D01*
X27183768Y-113528507D01*
X27350551Y-113778115D01*
X27465434Y-114055466D01*
X27524000Y-114349899D01*
X27524000Y-114650101D01*
X27465434Y-114944534D01*
X27350551Y-115221885D01*
X27183766Y-115471496D01*
X26971496Y-115683766D01*
X26971493Y-115683768D01*
X26721885Y-115850551D01*
X26444534Y-115965434D01*
X26248245Y-116004478D01*
X26150102Y-116024000D01*
X25849898Y-116024000D01*
X25751755Y-116004478D01*
X25555466Y-115965434D01*
X25278115Y-115850551D01*
X25028507Y-115683768D01*
X25028504Y-115683766D01*
X24816234Y-115471496D01*
X24649449Y-115221885D01*
X24534566Y-114944534D01*
X24476000Y-114650101D01*
X24476000Y-114349899D01*
X24534566Y-114055466D01*
X24649449Y-113778115D01*
X24816232Y-113528507D01*
X24816234Y-113528504D01*
X25028504Y-113316234D01*
X25278115Y-113149449D01*
X25315533Y-113133950D01*
X25555466Y-113034566D01*
X25751755Y-112995522D01*
X25849898Y-112976000D01*
X26150102Y-112976000D01*
X26248245Y-112995522D01*
X26248245Y-112995522D01*
G37*
G36*
X106248245Y-112995522D02*
X106444534Y-113034566D01*
X106684467Y-113133950D01*
X106721885Y-113149449D01*
X106971496Y-113316234D01*
X107183766Y-113528504D01*
X107183768Y-113528507D01*
X107350551Y-113778115D01*
X107465434Y-114055466D01*
X107524000Y-114349899D01*
X107524000Y-114650101D01*
X107465434Y-114944534D01*
X107350551Y-115221885D01*
X107183766Y-115471496D01*
X106971496Y-115683766D01*
X106971493Y-115683768D01*
X106721885Y-115850551D01*
X106444534Y-115965434D01*
X106248245Y-116004478D01*
X106150102Y-116024000D01*
X105849898Y-116024000D01*
X105751755Y-116004478D01*
X105555466Y-115965434D01*
X105278115Y-115850551D01*
X105028507Y-115683768D01*
X105028504Y-115683766D01*
X104816234Y-115471496D01*
X104649449Y-115221885D01*
X104534566Y-114944534D01*
X104476000Y-114650101D01*
X104476000Y-114349899D01*
X104534566Y-114055466D01*
X104649449Y-113778115D01*
X104816232Y-113528507D01*
X104816234Y-113528504D01*
X105028504Y-113316234D01*
X105278115Y-113149449D01*
X105315533Y-113133950D01*
X105555466Y-113034566D01*
X105751755Y-112995522D01*
X105849898Y-112976000D01*
X106150102Y-112976000D01*
X106248245Y-112995522D01*
X106248245Y-112995522D01*
G37*
G36*
X86248245Y-112995522D02*
X86444534Y-113034566D01*
X86684467Y-113133950D01*
X86721885Y-113149449D01*
X86971496Y-113316234D01*
X87183766Y-113528504D01*
X87183768Y-113528507D01*
X87350551Y-113778115D01*
X87465434Y-114055466D01*
X87524000Y-114349899D01*
X87524000Y-114650101D01*
X87465434Y-114944534D01*
X87350551Y-115221885D01*
X87183766Y-115471496D01*
X86971496Y-115683766D01*
X86971493Y-115683768D01*
X86721885Y-115850551D01*
X86444534Y-115965434D01*
X86248245Y-116004478D01*
X86150102Y-116024000D01*
X85849898Y-116024000D01*
X85751755Y-116004478D01*
X85555466Y-115965434D01*
X85278115Y-115850551D01*
X85028507Y-115683768D01*
X85028504Y-115683766D01*
X84816234Y-115471496D01*
X84649449Y-115221885D01*
X84534566Y-114944534D01*
X84476000Y-114650101D01*
X84476000Y-114349899D01*
X84534566Y-114055466D01*
X84649449Y-113778115D01*
X84816232Y-113528507D01*
X84816234Y-113528504D01*
X85028504Y-113316234D01*
X85278115Y-113149449D01*
X85315533Y-113133950D01*
X85555466Y-113034566D01*
X85751755Y-112995522D01*
X85849898Y-112976000D01*
X86150102Y-112976000D01*
X86248245Y-112995522D01*
X86248245Y-112995522D01*
G37*
G36*
X57675012Y-113023057D02*
X57784207Y-113068287D01*
X57882481Y-113133952D01*
X57966048Y-113217519D01*
X58031713Y-113315793D01*
X58076943Y-113424988D01*
X58100000Y-113540904D01*
X58100000Y-113659096D01*
X58076943Y-113775012D01*
X58031713Y-113884207D01*
X57966048Y-113982481D01*
X57882481Y-114066048D01*
X57784207Y-114131713D01*
X57675012Y-114176943D01*
X57559096Y-114200000D01*
X57440904Y-114200000D01*
X57324988Y-114176943D01*
X57215793Y-114131713D01*
X57117519Y-114066048D01*
X57033952Y-113982481D01*
X56968287Y-113884207D01*
X56923057Y-113775012D01*
X56900000Y-113659096D01*
X56900000Y-113540904D01*
X56923057Y-113424988D01*
X56968287Y-113315793D01*
X57033952Y-113217519D01*
X57117519Y-113133952D01*
X57215793Y-113068287D01*
X57324988Y-113023057D01*
X57440904Y-113000000D01*
X57559096Y-113000000D01*
X57675012Y-113023057D01*
X57675012Y-113023057D01*
G37*
G36*
X117675012Y-113023057D02*
X117784207Y-113068287D01*
X117882481Y-113133952D01*
X117966048Y-113217519D01*
X118031713Y-113315793D01*
X118076943Y-113424988D01*
X118100000Y-113540904D01*
X118100000Y-113659096D01*
X118076943Y-113775012D01*
X118031713Y-113884207D01*
X117966048Y-113982481D01*
X117882481Y-114066048D01*
X117784207Y-114131713D01*
X117675012Y-114176943D01*
X117559096Y-114200000D01*
X117440904Y-114200000D01*
X117324988Y-114176943D01*
X117215793Y-114131713D01*
X117117519Y-114066048D01*
X117033952Y-113982481D01*
X116968287Y-113884207D01*
X116923057Y-113775012D01*
X116900000Y-113659096D01*
X116900000Y-113540904D01*
X116923057Y-113424988D01*
X116968287Y-113315793D01*
X117033952Y-113217519D01*
X117117519Y-113133952D01*
X117215793Y-113068287D01*
X117324988Y-113023057D01*
X117440904Y-113000000D01*
X117559096Y-113000000D01*
X117675012Y-113023057D01*
X117675012Y-113023057D01*
G37*
G36*
X37675012Y-113023057D02*
X37784207Y-113068287D01*
X37882481Y-113133952D01*
X37966048Y-113217519D01*
X38031713Y-113315793D01*
X38076943Y-113424988D01*
X38100000Y-113540904D01*
X38100000Y-113659096D01*
X38076943Y-113775012D01*
X38031713Y-113884207D01*
X37966048Y-113982481D01*
X37882481Y-114066048D01*
X37784207Y-114131713D01*
X37675012Y-114176943D01*
X37559096Y-114200000D01*
X37440904Y-114200000D01*
X37324988Y-114176943D01*
X37215793Y-114131713D01*
X37117519Y-114066048D01*
X37033952Y-113982481D01*
X36968287Y-113884207D01*
X36923057Y-113775012D01*
X36900000Y-113659096D01*
X36900000Y-113540904D01*
X36923057Y-113424988D01*
X36968287Y-113315793D01*
X37033952Y-113217519D01*
X37117519Y-113133952D01*
X37215793Y-113068287D01*
X37324988Y-113023057D01*
X37440904Y-113000000D01*
X37559096Y-113000000D01*
X37675012Y-113023057D01*
X37675012Y-113023057D01*
G37*
G36*
X32675012Y-113023057D02*
X32784207Y-113068287D01*
X32882481Y-113133952D01*
X32966048Y-113217519D01*
X33031713Y-113315793D01*
X33076943Y-113424988D01*
X33100000Y-113540904D01*
X33100000Y-113659096D01*
X33076943Y-113775012D01*
X33031713Y-113884207D01*
X32966048Y-113982481D01*
X32882481Y-114066048D01*
X32784207Y-114131713D01*
X32675012Y-114176943D01*
X32559096Y-114200000D01*
X32440904Y-114200000D01*
X32324988Y-114176943D01*
X32215793Y-114131713D01*
X32117519Y-114066048D01*
X32033952Y-113982481D01*
X31968287Y-113884207D01*
X31923057Y-113775012D01*
X31900000Y-113659096D01*
X31900000Y-113540904D01*
X31923057Y-113424988D01*
X31968287Y-113315793D01*
X32033952Y-113217519D01*
X32117519Y-113133952D01*
X32215793Y-113068287D01*
X32324988Y-113023057D01*
X32440904Y-113000000D01*
X32559096Y-113000000D01*
X32675012Y-113023057D01*
X32675012Y-113023057D01*
G37*
G36*
X52675012Y-113023057D02*
X52784207Y-113068287D01*
X52882481Y-113133952D01*
X52966048Y-113217519D01*
X53031713Y-113315793D01*
X53076943Y-113424988D01*
X53100000Y-113540904D01*
X53100000Y-113659096D01*
X53076943Y-113775012D01*
X53031713Y-113884207D01*
X52966048Y-113982481D01*
X52882481Y-114066048D01*
X52784207Y-114131713D01*
X52675012Y-114176943D01*
X52559096Y-114200000D01*
X52440904Y-114200000D01*
X52324988Y-114176943D01*
X52215793Y-114131713D01*
X52117519Y-114066048D01*
X52033952Y-113982481D01*
X51968287Y-113884207D01*
X51923057Y-113775012D01*
X51900000Y-113659096D01*
X51900000Y-113540904D01*
X51923057Y-113424988D01*
X51968287Y-113315793D01*
X52033952Y-113217519D01*
X52117519Y-113133952D01*
X52215793Y-113068287D01*
X52324988Y-113023057D01*
X52440904Y-113000000D01*
X52559096Y-113000000D01*
X52675012Y-113023057D01*
X52675012Y-113023057D01*
G37*
G36*
X72675012Y-113023057D02*
X72784207Y-113068287D01*
X72882481Y-113133952D01*
X72966048Y-113217519D01*
X73031713Y-113315793D01*
X73076943Y-113424988D01*
X73100000Y-113540904D01*
X73100000Y-113659096D01*
X73076943Y-113775012D01*
X73031713Y-113884207D01*
X72966048Y-113982481D01*
X72882481Y-114066048D01*
X72784207Y-114131713D01*
X72675012Y-114176943D01*
X72559096Y-114200000D01*
X72440904Y-114200000D01*
X72324988Y-114176943D01*
X72215793Y-114131713D01*
X72117519Y-114066048D01*
X72033952Y-113982481D01*
X71968287Y-113884207D01*
X71923057Y-113775012D01*
X71900000Y-113659096D01*
X71900000Y-113540904D01*
X71923057Y-113424988D01*
X71968287Y-113315793D01*
X72033952Y-113217519D01*
X72117519Y-113133952D01*
X72215793Y-113068287D01*
X72324988Y-113023057D01*
X72440904Y-113000000D01*
X72559096Y-113000000D01*
X72675012Y-113023057D01*
X72675012Y-113023057D01*
G37*
G36*
X77675012Y-113023057D02*
X77784207Y-113068287D01*
X77882481Y-113133952D01*
X77966048Y-113217519D01*
X78031713Y-113315793D01*
X78076943Y-113424988D01*
X78100000Y-113540904D01*
X78100000Y-113659096D01*
X78076943Y-113775012D01*
X78031713Y-113884207D01*
X77966048Y-113982481D01*
X77882481Y-114066048D01*
X77784207Y-114131713D01*
X77675012Y-114176943D01*
X77559096Y-114200000D01*
X77440904Y-114200000D01*
X77324988Y-114176943D01*
X77215793Y-114131713D01*
X77117519Y-114066048D01*
X77033952Y-113982481D01*
X76968287Y-113884207D01*
X76923057Y-113775012D01*
X76900000Y-113659096D01*
X76900000Y-113540904D01*
X76923057Y-113424988D01*
X76968287Y-113315793D01*
X77033952Y-113217519D01*
X77117519Y-113133952D01*
X77215793Y-113068287D01*
X77324988Y-113023057D01*
X77440904Y-113000000D01*
X77559096Y-113000000D01*
X77675012Y-113023057D01*
X77675012Y-113023057D01*
G37*
G36*
X92675012Y-113023057D02*
X92784207Y-113068287D01*
X92882481Y-113133952D01*
X92966048Y-113217519D01*
X93031713Y-113315793D01*
X93076943Y-113424988D01*
X93100000Y-113540904D01*
X93100000Y-113659096D01*
X93076943Y-113775012D01*
X93031713Y-113884207D01*
X92966048Y-113982481D01*
X92882481Y-114066048D01*
X92784207Y-114131713D01*
X92675012Y-114176943D01*
X92559096Y-114200000D01*
X92440904Y-114200000D01*
X92324988Y-114176943D01*
X92215793Y-114131713D01*
X92117519Y-114066048D01*
X92033952Y-113982481D01*
X91968287Y-113884207D01*
X91923057Y-113775012D01*
X91900000Y-113659096D01*
X91900000Y-113540904D01*
X91923057Y-113424988D01*
X91968287Y-113315793D01*
X92033952Y-113217519D01*
X92117519Y-113133952D01*
X92215793Y-113068287D01*
X92324988Y-113023057D01*
X92440904Y-113000000D01*
X92559096Y-113000000D01*
X92675012Y-113023057D01*
X92675012Y-113023057D01*
G37*
G36*
X112675012Y-113023057D02*
X112784207Y-113068287D01*
X112882481Y-113133952D01*
X112966048Y-113217519D01*
X113031713Y-113315793D01*
X113076943Y-113424988D01*
X113100000Y-113540904D01*
X113100000Y-113659096D01*
X113076943Y-113775012D01*
X113031713Y-113884207D01*
X112966048Y-113982481D01*
X112882481Y-114066048D01*
X112784207Y-114131713D01*
X112675012Y-114176943D01*
X112559096Y-114200000D01*
X112440904Y-114200000D01*
X112324988Y-114176943D01*
X112215793Y-114131713D01*
X112117519Y-114066048D01*
X112033952Y-113982481D01*
X111968287Y-113884207D01*
X111923057Y-113775012D01*
X111900000Y-113659096D01*
X111900000Y-113540904D01*
X111923057Y-113424988D01*
X111968287Y-113315793D01*
X112033952Y-113217519D01*
X112117519Y-113133952D01*
X112215793Y-113068287D01*
X112324988Y-113023057D01*
X112440904Y-113000000D01*
X112559096Y-113000000D01*
X112675012Y-113023057D01*
X112675012Y-113023057D01*
G37*
G36*
X97675012Y-113023057D02*
X97784207Y-113068287D01*
X97882481Y-113133952D01*
X97966048Y-113217519D01*
X98031713Y-113315793D01*
X98076943Y-113424988D01*
X98100000Y-113540904D01*
X98100000Y-113659096D01*
X98076943Y-113775012D01*
X98031713Y-113884207D01*
X97966048Y-113982481D01*
X97882481Y-114066048D01*
X97784207Y-114131713D01*
X97675012Y-114176943D01*
X97559096Y-114200000D01*
X97440904Y-114200000D01*
X97324988Y-114176943D01*
X97215793Y-114131713D01*
X97117519Y-114066048D01*
X97033952Y-113982481D01*
X96968287Y-113884207D01*
X96923057Y-113775012D01*
X96900000Y-113659096D01*
X96900000Y-113540904D01*
X96923057Y-113424988D01*
X96968287Y-113315793D01*
X97033952Y-113217519D01*
X97117519Y-113133952D01*
X97215793Y-113068287D01*
X97324988Y-113023057D01*
X97440904Y-113000000D01*
X97559096Y-113000000D01*
X97675012Y-113023057D01*
X97675012Y-113023057D01*
G37*
G36*
X34233352Y-110730743D02*
X34378941Y-110791048D01*
X34509973Y-110878601D01*
X34621399Y-110990027D01*
X34708952Y-111121059D01*
X34769257Y-111266648D01*
X34800000Y-111421205D01*
X34800000Y-111578795D01*
X34769257Y-111733352D01*
X34708952Y-111878941D01*
X34621399Y-112009973D01*
X34509973Y-112121399D01*
X34378941Y-112208952D01*
X34233352Y-112269257D01*
X34078795Y-112300000D01*
X33921205Y-112300000D01*
X33766648Y-112269257D01*
X33621059Y-112208952D01*
X33490027Y-112121399D01*
X33378601Y-112009973D01*
X33291048Y-111878941D01*
X33230743Y-111733352D01*
X33200000Y-111578795D01*
X33200000Y-111421205D01*
X33230743Y-111266648D01*
X33291048Y-111121059D01*
X33378601Y-110990027D01*
X33490027Y-110878601D01*
X33621059Y-110791048D01*
X33766648Y-110730743D01*
X33921205Y-110700000D01*
X34078795Y-110700000D01*
X34233352Y-110730743D01*
X34233352Y-110730743D01*
G37*
G36*
X96233352Y-110730743D02*
X96378941Y-110791048D01*
X96509973Y-110878601D01*
X96621399Y-110990027D01*
X96708952Y-111121059D01*
X96769257Y-111266648D01*
X96800000Y-111421205D01*
X96800000Y-111578795D01*
X96769257Y-111733352D01*
X96708952Y-111878941D01*
X96621399Y-112009973D01*
X96509973Y-112121399D01*
X96378941Y-112208952D01*
X96233352Y-112269257D01*
X96078795Y-112300000D01*
X95921205Y-112300000D01*
X95766648Y-112269257D01*
X95621059Y-112208952D01*
X95490027Y-112121399D01*
X95378601Y-112009973D01*
X95291048Y-111878941D01*
X95230743Y-111733352D01*
X95200000Y-111578795D01*
X95200000Y-111421205D01*
X95230743Y-111266648D01*
X95291048Y-111121059D01*
X95378601Y-110990027D01*
X95490027Y-110878601D01*
X95621059Y-110791048D01*
X95766648Y-110730743D01*
X95921205Y-110700000D01*
X96078795Y-110700000D01*
X96233352Y-110730743D01*
X96233352Y-110730743D01*
G37*
G36*
X74233352Y-110730743D02*
X74378941Y-110791048D01*
X74509973Y-110878601D01*
X74621399Y-110990027D01*
X74708952Y-111121059D01*
X74769257Y-111266648D01*
X74800000Y-111421205D01*
X74800000Y-111578795D01*
X74769257Y-111733352D01*
X74708952Y-111878941D01*
X74621399Y-112009973D01*
X74509973Y-112121399D01*
X74378941Y-112208952D01*
X74233352Y-112269257D01*
X74078795Y-112300000D01*
X73921205Y-112300000D01*
X73766648Y-112269257D01*
X73621059Y-112208952D01*
X73490027Y-112121399D01*
X73378601Y-112009973D01*
X73291048Y-111878941D01*
X73230743Y-111733352D01*
X73200000Y-111578795D01*
X73200000Y-111421205D01*
X73230743Y-111266648D01*
X73291048Y-111121059D01*
X73378601Y-110990027D01*
X73490027Y-110878601D01*
X73621059Y-110791048D01*
X73766648Y-110730743D01*
X73921205Y-110700000D01*
X74078795Y-110700000D01*
X74233352Y-110730743D01*
X74233352Y-110730743D01*
G37*
G36*
X56233352Y-110730743D02*
X56378941Y-110791048D01*
X56509973Y-110878601D01*
X56621399Y-110990027D01*
X56708952Y-111121059D01*
X56769257Y-111266648D01*
X56800000Y-111421205D01*
X56800000Y-111578795D01*
X56769257Y-111733352D01*
X56708952Y-111878941D01*
X56621399Y-112009973D01*
X56509973Y-112121399D01*
X56378941Y-112208952D01*
X56233352Y-112269257D01*
X56078795Y-112300000D01*
X55921205Y-112300000D01*
X55766648Y-112269257D01*
X55621059Y-112208952D01*
X55490027Y-112121399D01*
X55378601Y-112009973D01*
X55291048Y-111878941D01*
X55230743Y-111733352D01*
X55200000Y-111578795D01*
X55200000Y-111421205D01*
X55230743Y-111266648D01*
X55291048Y-111121059D01*
X55378601Y-110990027D01*
X55490027Y-110878601D01*
X55621059Y-110791048D01*
X55766648Y-110730743D01*
X55921205Y-110700000D01*
X56078795Y-110700000D01*
X56233352Y-110730743D01*
X56233352Y-110730743D01*
G37*
G36*
X54233352Y-110730743D02*
X54378941Y-110791048D01*
X54509973Y-110878601D01*
X54621399Y-110990027D01*
X54708952Y-111121059D01*
X54769257Y-111266648D01*
X54800000Y-111421205D01*
X54800000Y-111578795D01*
X54769257Y-111733352D01*
X54708952Y-111878941D01*
X54621399Y-112009973D01*
X54509973Y-112121399D01*
X54378941Y-112208952D01*
X54233352Y-112269257D01*
X54078795Y-112300000D01*
X53921205Y-112300000D01*
X53766648Y-112269257D01*
X53621059Y-112208952D01*
X53490027Y-112121399D01*
X53378601Y-112009973D01*
X53291048Y-111878941D01*
X53230743Y-111733352D01*
X53200000Y-111578795D01*
X53200000Y-111421205D01*
X53230743Y-111266648D01*
X53291048Y-111121059D01*
X53378601Y-110990027D01*
X53490027Y-110878601D01*
X53621059Y-110791048D01*
X53766648Y-110730743D01*
X53921205Y-110700000D01*
X54078795Y-110700000D01*
X54233352Y-110730743D01*
X54233352Y-110730743D01*
G37*
G36*
X36233352Y-110730743D02*
X36378941Y-110791048D01*
X36509973Y-110878601D01*
X36621399Y-110990027D01*
X36708952Y-111121059D01*
X36769257Y-111266648D01*
X36800000Y-111421205D01*
X36800000Y-111578795D01*
X36769257Y-111733352D01*
X36708952Y-111878941D01*
X36621399Y-112009973D01*
X36509973Y-112121399D01*
X36378941Y-112208952D01*
X36233352Y-112269257D01*
X36078795Y-112300000D01*
X35921205Y-112300000D01*
X35766648Y-112269257D01*
X35621059Y-112208952D01*
X35490027Y-112121399D01*
X35378601Y-112009973D01*
X35291048Y-111878941D01*
X35230743Y-111733352D01*
X35200000Y-111578795D01*
X35200000Y-111421205D01*
X35230743Y-111266648D01*
X35291048Y-111121059D01*
X35378601Y-110990027D01*
X35490027Y-110878601D01*
X35621059Y-110791048D01*
X35766648Y-110730743D01*
X35921205Y-110700000D01*
X36078795Y-110700000D01*
X36233352Y-110730743D01*
X36233352Y-110730743D01*
G37*
G36*
X116233352Y-110730743D02*
X116378941Y-110791048D01*
X116509973Y-110878601D01*
X116621399Y-110990027D01*
X116708952Y-111121059D01*
X116769257Y-111266648D01*
X116800000Y-111421205D01*
X116800000Y-111578795D01*
X116769257Y-111733352D01*
X116708952Y-111878941D01*
X116621399Y-112009973D01*
X116509973Y-112121399D01*
X116378941Y-112208952D01*
X116233352Y-112269257D01*
X116078795Y-112300000D01*
X115921205Y-112300000D01*
X115766648Y-112269257D01*
X115621059Y-112208952D01*
X115490027Y-112121399D01*
X115378601Y-112009973D01*
X115291048Y-111878941D01*
X115230743Y-111733352D01*
X115200000Y-111578795D01*
X115200000Y-111421205D01*
X115230743Y-111266648D01*
X115291048Y-111121059D01*
X115378601Y-110990027D01*
X115490027Y-110878601D01*
X115621059Y-110791048D01*
X115766648Y-110730743D01*
X115921205Y-110700000D01*
X116078795Y-110700000D01*
X116233352Y-110730743D01*
X116233352Y-110730743D01*
G37*
G36*
X114233352Y-110730743D02*
X114378941Y-110791048D01*
X114509973Y-110878601D01*
X114621399Y-110990027D01*
X114708952Y-111121059D01*
X114769257Y-111266648D01*
X114800000Y-111421205D01*
X114800000Y-111578795D01*
X114769257Y-111733352D01*
X114708952Y-111878941D01*
X114621399Y-112009973D01*
X114509973Y-112121399D01*
X114378941Y-112208952D01*
X114233352Y-112269257D01*
X114078795Y-112300000D01*
X113921205Y-112300000D01*
X113766648Y-112269257D01*
X113621059Y-112208952D01*
X113490027Y-112121399D01*
X113378601Y-112009973D01*
X113291048Y-111878941D01*
X113230743Y-111733352D01*
X113200000Y-111578795D01*
X113200000Y-111421205D01*
X113230743Y-111266648D01*
X113291048Y-111121059D01*
X113378601Y-110990027D01*
X113490027Y-110878601D01*
X113621059Y-110791048D01*
X113766648Y-110730743D01*
X113921205Y-110700000D01*
X114078795Y-110700000D01*
X114233352Y-110730743D01*
X114233352Y-110730743D01*
G37*
G36*
X94233352Y-110730743D02*
X94378941Y-110791048D01*
X94509973Y-110878601D01*
X94621399Y-110990027D01*
X94708952Y-111121059D01*
X94769257Y-111266648D01*
X94800000Y-111421205D01*
X94800000Y-111578795D01*
X94769257Y-111733352D01*
X94708952Y-111878941D01*
X94621399Y-112009973D01*
X94509973Y-112121399D01*
X94378941Y-112208952D01*
X94233352Y-112269257D01*
X94078795Y-112300000D01*
X93921205Y-112300000D01*
X93766648Y-112269257D01*
X93621059Y-112208952D01*
X93490027Y-112121399D01*
X93378601Y-112009973D01*
X93291048Y-111878941D01*
X93230743Y-111733352D01*
X93200000Y-111578795D01*
X93200000Y-111421205D01*
X93230743Y-111266648D01*
X93291048Y-111121059D01*
X93378601Y-110990027D01*
X93490027Y-110878601D01*
X93621059Y-110791048D01*
X93766648Y-110730743D01*
X93921205Y-110700000D01*
X94078795Y-110700000D01*
X94233352Y-110730743D01*
X94233352Y-110730743D01*
G37*
G36*
X76233352Y-110730743D02*
X76378941Y-110791048D01*
X76509973Y-110878601D01*
X76621399Y-110990027D01*
X76708952Y-111121059D01*
X76769257Y-111266648D01*
X76800000Y-111421205D01*
X76800000Y-111578795D01*
X76769257Y-111733352D01*
X76708952Y-111878941D01*
X76621399Y-112009973D01*
X76509973Y-112121399D01*
X76378941Y-112208952D01*
X76233352Y-112269257D01*
X76078795Y-112300000D01*
X75921205Y-112300000D01*
X75766648Y-112269257D01*
X75621059Y-112208952D01*
X75490027Y-112121399D01*
X75378601Y-112009973D01*
X75291048Y-111878941D01*
X75230743Y-111733352D01*
X75200000Y-111578795D01*
X75200000Y-111421205D01*
X75230743Y-111266648D01*
X75291048Y-111121059D01*
X75378601Y-110990027D01*
X75490027Y-110878601D01*
X75621059Y-110791048D01*
X75766648Y-110730743D01*
X75921205Y-110700000D01*
X76078795Y-110700000D01*
X76233352Y-110730743D01*
X76233352Y-110730743D01*
G37*
G36*
X24614612Y-105388037D02*
X24842096Y-105482264D01*
X25046831Y-105619064D01*
X25220936Y-105793169D01*
X25357736Y-105997904D01*
X25451963Y-106225388D01*
X25500000Y-106466885D01*
X25500000Y-106713115D01*
X25451963Y-106954612D01*
X25357736Y-107182096D01*
X25220936Y-107386831D01*
X25046831Y-107560936D01*
X24842096Y-107697736D01*
X24614612Y-107791963D01*
X24373115Y-107840000D01*
X24126885Y-107840000D01*
X23885388Y-107791963D01*
X23657904Y-107697736D01*
X23453169Y-107560936D01*
X23279064Y-107386831D01*
X23142264Y-107182096D01*
X23048037Y-106954612D01*
X23000000Y-106713115D01*
X23000000Y-106466885D01*
X23048037Y-106225388D01*
X23142264Y-105997904D01*
X23279064Y-105793169D01*
X23453169Y-105619064D01*
X23657904Y-105482264D01*
X23885388Y-105388037D01*
X24126885Y-105340000D01*
X24373115Y-105340000D01*
X24614612Y-105388037D01*
X24614612Y-105388037D01*
G37*
G36*
X48114612Y-105388037D02*
X48342096Y-105482264D01*
X48546831Y-105619064D01*
X48720936Y-105793169D01*
X48857736Y-105997904D01*
X48951963Y-106225388D01*
X49000000Y-106466885D01*
X49000000Y-106713115D01*
X48951963Y-106954612D01*
X48857736Y-107182096D01*
X48720936Y-107386831D01*
X48546831Y-107560936D01*
X48342096Y-107697736D01*
X48114612Y-107791963D01*
X47873115Y-107840000D01*
X47626885Y-107840000D01*
X47385388Y-107791963D01*
X47157904Y-107697736D01*
X46953169Y-107560936D01*
X46779064Y-107386831D01*
X46642264Y-107182096D01*
X46548037Y-106954612D01*
X46500000Y-106713115D01*
X46500000Y-106466885D01*
X46548037Y-106225388D01*
X46642264Y-105997904D01*
X46779064Y-105793169D01*
X46953169Y-105619064D01*
X47157904Y-105482264D01*
X47385388Y-105388037D01*
X47626885Y-105340000D01*
X47873115Y-105340000D01*
X48114612Y-105388037D01*
X48114612Y-105388037D01*
G37*
G36*
X44614612Y-105388037D02*
X44842096Y-105482264D01*
X45046831Y-105619064D01*
X45220936Y-105793169D01*
X45357736Y-105997904D01*
X45451963Y-106225388D01*
X45500000Y-106466885D01*
X45500000Y-106713115D01*
X45451963Y-106954612D01*
X45357736Y-107182096D01*
X45220936Y-107386831D01*
X45046831Y-107560936D01*
X44842096Y-107697736D01*
X44614612Y-107791963D01*
X44373115Y-107840000D01*
X44126885Y-107840000D01*
X43885388Y-107791963D01*
X43657904Y-107697736D01*
X43453169Y-107560936D01*
X43279064Y-107386831D01*
X43142264Y-107182096D01*
X43048037Y-106954612D01*
X43000000Y-106713115D01*
X43000000Y-106466885D01*
X43048037Y-106225388D01*
X43142264Y-105997904D01*
X43279064Y-105793169D01*
X43453169Y-105619064D01*
X43657904Y-105482264D01*
X43885388Y-105388037D01*
X44126885Y-105340000D01*
X44373115Y-105340000D01*
X44614612Y-105388037D01*
X44614612Y-105388037D01*
G37*
G36*
X88114612Y-105388037D02*
X88342096Y-105482264D01*
X88546831Y-105619064D01*
X88720936Y-105793169D01*
X88857736Y-105997904D01*
X88951963Y-106225388D01*
X89000000Y-106466885D01*
X89000000Y-106713115D01*
X88951963Y-106954612D01*
X88857736Y-107182096D01*
X88720936Y-107386831D01*
X88546831Y-107560936D01*
X88342096Y-107697736D01*
X88114612Y-107791963D01*
X87873115Y-107840000D01*
X87626885Y-107840000D01*
X87385388Y-107791963D01*
X87157904Y-107697736D01*
X86953169Y-107560936D01*
X86779064Y-107386831D01*
X86642264Y-107182096D01*
X86548037Y-106954612D01*
X86500000Y-106713115D01*
X86500000Y-106466885D01*
X86548037Y-106225388D01*
X86642264Y-105997904D01*
X86779064Y-105793169D01*
X86953169Y-105619064D01*
X87157904Y-105482264D01*
X87385388Y-105388037D01*
X87626885Y-105340000D01*
X87873115Y-105340000D01*
X88114612Y-105388037D01*
X88114612Y-105388037D01*
G37*
G36*
X84614612Y-105388037D02*
X84842096Y-105482264D01*
X85046831Y-105619064D01*
X85220936Y-105793169D01*
X85357736Y-105997904D01*
X85451963Y-106225388D01*
X85500000Y-106466885D01*
X85500000Y-106713115D01*
X85451963Y-106954612D01*
X85357736Y-107182096D01*
X85220936Y-107386831D01*
X85046831Y-107560936D01*
X84842096Y-107697736D01*
X84614612Y-107791963D01*
X84373115Y-107840000D01*
X84126885Y-107840000D01*
X83885388Y-107791963D01*
X83657904Y-107697736D01*
X83453169Y-107560936D01*
X83279064Y-107386831D01*
X83142264Y-107182096D01*
X83048037Y-106954612D01*
X83000000Y-106713115D01*
X83000000Y-106466885D01*
X83048037Y-106225388D01*
X83142264Y-105997904D01*
X83279064Y-105793169D01*
X83453169Y-105619064D01*
X83657904Y-105482264D01*
X83885388Y-105388037D01*
X84126885Y-105340000D01*
X84373115Y-105340000D01*
X84614612Y-105388037D01*
X84614612Y-105388037D01*
G37*
G36*
X108114612Y-105388037D02*
X108342096Y-105482264D01*
X108546831Y-105619064D01*
X108720936Y-105793169D01*
X108857736Y-105997904D01*
X108951963Y-106225388D01*
X109000000Y-106466885D01*
X109000000Y-106713115D01*
X108951963Y-106954612D01*
X108857736Y-107182096D01*
X108720936Y-107386831D01*
X108546831Y-107560936D01*
X108342096Y-107697736D01*
X108114612Y-107791963D01*
X107873115Y-107840000D01*
X107626885Y-107840000D01*
X107385388Y-107791963D01*
X107157904Y-107697736D01*
X106953169Y-107560936D01*
X106779064Y-107386831D01*
X106642264Y-107182096D01*
X106548037Y-106954612D01*
X106500000Y-106713115D01*
X106500000Y-106466885D01*
X106548037Y-106225388D01*
X106642264Y-105997904D01*
X106779064Y-105793169D01*
X106953169Y-105619064D01*
X107157904Y-105482264D01*
X107385388Y-105388037D01*
X107626885Y-105340000D01*
X107873115Y-105340000D01*
X108114612Y-105388037D01*
X108114612Y-105388037D01*
G37*
G36*
X68114612Y-105388037D02*
X68342096Y-105482264D01*
X68546831Y-105619064D01*
X68720936Y-105793169D01*
X68857736Y-105997904D01*
X68951963Y-106225388D01*
X69000000Y-106466885D01*
X69000000Y-106713115D01*
X68951963Y-106954612D01*
X68857736Y-107182096D01*
X68720936Y-107386831D01*
X68546831Y-107560936D01*
X68342096Y-107697736D01*
X68114612Y-107791963D01*
X67873115Y-107840000D01*
X67626885Y-107840000D01*
X67385388Y-107791963D01*
X67157904Y-107697736D01*
X66953169Y-107560936D01*
X66779064Y-107386831D01*
X66642264Y-107182096D01*
X66548037Y-106954612D01*
X66500000Y-106713115D01*
X66500000Y-106466885D01*
X66548037Y-106225388D01*
X66642264Y-105997904D01*
X66779064Y-105793169D01*
X66953169Y-105619064D01*
X67157904Y-105482264D01*
X67385388Y-105388037D01*
X67626885Y-105340000D01*
X67873115Y-105340000D01*
X68114612Y-105388037D01*
X68114612Y-105388037D01*
G37*
G36*
X104614612Y-105388037D02*
X104842096Y-105482264D01*
X105046831Y-105619064D01*
X105220936Y-105793169D01*
X105357736Y-105997904D01*
X105451963Y-106225388D01*
X105500000Y-106466885D01*
X105500000Y-106713115D01*
X105451963Y-106954612D01*
X105357736Y-107182096D01*
X105220936Y-107386831D01*
X105046831Y-107560936D01*
X104842096Y-107697736D01*
X104614612Y-107791963D01*
X104373115Y-107840000D01*
X104126885Y-107840000D01*
X103885388Y-107791963D01*
X103657904Y-107697736D01*
X103453169Y-107560936D01*
X103279064Y-107386831D01*
X103142264Y-107182096D01*
X103048037Y-106954612D01*
X103000000Y-106713115D01*
X103000000Y-106466885D01*
X103048037Y-106225388D01*
X103142264Y-105997904D01*
X103279064Y-105793169D01*
X103453169Y-105619064D01*
X103657904Y-105482264D01*
X103885388Y-105388037D01*
X104126885Y-105340000D01*
X104373115Y-105340000D01*
X104614612Y-105388037D01*
X104614612Y-105388037D01*
G37*
G36*
X28114612Y-105388037D02*
X28342096Y-105482264D01*
X28546831Y-105619064D01*
X28720936Y-105793169D01*
X28857736Y-105997904D01*
X28951963Y-106225388D01*
X29000000Y-106466885D01*
X29000000Y-106713115D01*
X28951963Y-106954612D01*
X28857736Y-107182096D01*
X28720936Y-107386831D01*
X28546831Y-107560936D01*
X28342096Y-107697736D01*
X28114612Y-107791963D01*
X27873115Y-107840000D01*
X27626885Y-107840000D01*
X27385388Y-107791963D01*
X27157904Y-107697736D01*
X26953169Y-107560936D01*
X26779064Y-107386831D01*
X26642264Y-107182096D01*
X26548037Y-106954612D01*
X26500000Y-106713115D01*
X26500000Y-106466885D01*
X26548037Y-106225388D01*
X26642264Y-105997904D01*
X26779064Y-105793169D01*
X26953169Y-105619064D01*
X27157904Y-105482264D01*
X27385388Y-105388037D01*
X27626885Y-105340000D01*
X27873115Y-105340000D01*
X28114612Y-105388037D01*
X28114612Y-105388037D01*
G37*
G36*
X64614612Y-105388037D02*
X64842096Y-105482264D01*
X65046831Y-105619064D01*
X65220936Y-105793169D01*
X65357736Y-105997904D01*
X65451963Y-106225388D01*
X65500000Y-106466885D01*
X65500000Y-106713115D01*
X65451963Y-106954612D01*
X65357736Y-107182096D01*
X65220936Y-107386831D01*
X65046831Y-107560936D01*
X64842096Y-107697736D01*
X64614612Y-107791963D01*
X64373115Y-107840000D01*
X64126885Y-107840000D01*
X63885388Y-107791963D01*
X63657904Y-107697736D01*
X63453169Y-107560936D01*
X63279064Y-107386831D01*
X63142264Y-107182096D01*
X63048037Y-106954612D01*
X63000000Y-106713115D01*
X63000000Y-106466885D01*
X63048037Y-106225388D01*
X63142264Y-105997904D01*
X63279064Y-105793169D01*
X63453169Y-105619064D01*
X63657904Y-105482264D01*
X63885388Y-105388037D01*
X64126885Y-105340000D01*
X64373115Y-105340000D01*
X64614612Y-105388037D01*
X64614612Y-105388037D01*
G37*
G36*
X48114612Y-102388037D02*
X48342096Y-102482264D01*
X48546831Y-102619064D01*
X48720936Y-102793169D01*
X48857736Y-102997904D01*
X48951963Y-103225388D01*
X49000000Y-103466885D01*
X49000000Y-103713115D01*
X48951963Y-103954612D01*
X48857736Y-104182096D01*
X48720936Y-104386831D01*
X48546831Y-104560936D01*
X48342096Y-104697736D01*
X48114612Y-104791963D01*
X47873115Y-104840000D01*
X47626885Y-104840000D01*
X47385388Y-104791963D01*
X47157904Y-104697736D01*
X46953169Y-104560936D01*
X46779064Y-104386831D01*
X46642264Y-104182096D01*
X46548037Y-103954612D01*
X46500000Y-103713115D01*
X46500000Y-103466885D01*
X46548037Y-103225388D01*
X46642264Y-102997904D01*
X46779064Y-102793169D01*
X46953169Y-102619064D01*
X47157904Y-102482264D01*
X47385388Y-102388037D01*
X47626885Y-102340000D01*
X47873115Y-102340000D01*
X48114612Y-102388037D01*
X48114612Y-102388037D01*
G37*
G36*
X44614612Y-102388037D02*
X44842096Y-102482264D01*
X45046831Y-102619064D01*
X45220936Y-102793169D01*
X45357736Y-102997904D01*
X45451963Y-103225388D01*
X45500000Y-103466885D01*
X45500000Y-103713115D01*
X45451963Y-103954612D01*
X45357736Y-104182096D01*
X45220936Y-104386831D01*
X45046831Y-104560936D01*
X44842096Y-104697736D01*
X44614612Y-104791963D01*
X44373115Y-104840000D01*
X44126885Y-104840000D01*
X43885388Y-104791963D01*
X43657904Y-104697736D01*
X43453169Y-104560936D01*
X43279064Y-104386831D01*
X43142264Y-104182096D01*
X43048037Y-103954612D01*
X43000000Y-103713115D01*
X43000000Y-103466885D01*
X43048037Y-103225388D01*
X43142264Y-102997904D01*
X43279064Y-102793169D01*
X43453169Y-102619064D01*
X43657904Y-102482264D01*
X43885388Y-102388037D01*
X44126885Y-102340000D01*
X44373115Y-102340000D01*
X44614612Y-102388037D01*
X44614612Y-102388037D01*
G37*
G36*
X108114612Y-102388037D02*
X108342096Y-102482264D01*
X108546831Y-102619064D01*
X108720936Y-102793169D01*
X108857736Y-102997904D01*
X108951963Y-103225388D01*
X109000000Y-103466885D01*
X109000000Y-103713115D01*
X108951963Y-103954612D01*
X108857736Y-104182096D01*
X108720936Y-104386831D01*
X108546831Y-104560936D01*
X108342096Y-104697736D01*
X108114612Y-104791963D01*
X107873115Y-104840000D01*
X107626885Y-104840000D01*
X107385388Y-104791963D01*
X107157904Y-104697736D01*
X106953169Y-104560936D01*
X106779064Y-104386831D01*
X106642264Y-104182096D01*
X106548037Y-103954612D01*
X106500000Y-103713115D01*
X106500000Y-103466885D01*
X106548037Y-103225388D01*
X106642264Y-102997904D01*
X106779064Y-102793169D01*
X106953169Y-102619064D01*
X107157904Y-102482264D01*
X107385388Y-102388037D01*
X107626885Y-102340000D01*
X107873115Y-102340000D01*
X108114612Y-102388037D01*
X108114612Y-102388037D01*
G37*
G36*
X104614612Y-102388037D02*
X104842096Y-102482264D01*
X105046831Y-102619064D01*
X105220936Y-102793169D01*
X105357736Y-102997904D01*
X105451963Y-103225388D01*
X105500000Y-103466885D01*
X105500000Y-103713115D01*
X105451963Y-103954612D01*
X105357736Y-104182096D01*
X105220936Y-104386831D01*
X105046831Y-104560936D01*
X104842096Y-104697736D01*
X104614612Y-104791963D01*
X104373115Y-104840000D01*
X104126885Y-104840000D01*
X103885388Y-104791963D01*
X103657904Y-104697736D01*
X103453169Y-104560936D01*
X103279064Y-104386831D01*
X103142264Y-104182096D01*
X103048037Y-103954612D01*
X103000000Y-103713115D01*
X103000000Y-103466885D01*
X103048037Y-103225388D01*
X103142264Y-102997904D01*
X103279064Y-102793169D01*
X103453169Y-102619064D01*
X103657904Y-102482264D01*
X103885388Y-102388037D01*
X104126885Y-102340000D01*
X104373115Y-102340000D01*
X104614612Y-102388037D01*
X104614612Y-102388037D01*
G37*
G36*
X28114612Y-102388037D02*
X28342096Y-102482264D01*
X28546831Y-102619064D01*
X28720936Y-102793169D01*
X28857736Y-102997904D01*
X28951963Y-103225388D01*
X29000000Y-103466885D01*
X29000000Y-103713115D01*
X28951963Y-103954612D01*
X28857736Y-104182096D01*
X28720936Y-104386831D01*
X28546831Y-104560936D01*
X28342096Y-104697736D01*
X28114612Y-104791963D01*
X27873115Y-104840000D01*
X27626885Y-104840000D01*
X27385388Y-104791963D01*
X27157904Y-104697736D01*
X26953169Y-104560936D01*
X26779064Y-104386831D01*
X26642264Y-104182096D01*
X26548037Y-103954612D01*
X26500000Y-103713115D01*
X26500000Y-103466885D01*
X26548037Y-103225388D01*
X26642264Y-102997904D01*
X26779064Y-102793169D01*
X26953169Y-102619064D01*
X27157904Y-102482264D01*
X27385388Y-102388037D01*
X27626885Y-102340000D01*
X27873115Y-102340000D01*
X28114612Y-102388037D01*
X28114612Y-102388037D01*
G37*
G36*
X88114612Y-102388037D02*
X88342096Y-102482264D01*
X88546831Y-102619064D01*
X88720936Y-102793169D01*
X88857736Y-102997904D01*
X88951963Y-103225388D01*
X89000000Y-103466885D01*
X89000000Y-103713115D01*
X88951963Y-103954612D01*
X88857736Y-104182096D01*
X88720936Y-104386831D01*
X88546831Y-104560936D01*
X88342096Y-104697736D01*
X88114612Y-104791963D01*
X87873115Y-104840000D01*
X87626885Y-104840000D01*
X87385388Y-104791963D01*
X87157904Y-104697736D01*
X86953169Y-104560936D01*
X86779064Y-104386831D01*
X86642264Y-104182096D01*
X86548037Y-103954612D01*
X86500000Y-103713115D01*
X86500000Y-103466885D01*
X86548037Y-103225388D01*
X86642264Y-102997904D01*
X86779064Y-102793169D01*
X86953169Y-102619064D01*
X87157904Y-102482264D01*
X87385388Y-102388037D01*
X87626885Y-102340000D01*
X87873115Y-102340000D01*
X88114612Y-102388037D01*
X88114612Y-102388037D01*
G37*
G36*
X84614612Y-102388037D02*
X84842096Y-102482264D01*
X85046831Y-102619064D01*
X85220936Y-102793169D01*
X85357736Y-102997904D01*
X85451963Y-103225388D01*
X85500000Y-103466885D01*
X85500000Y-103713115D01*
X85451963Y-103954612D01*
X85357736Y-104182096D01*
X85220936Y-104386831D01*
X85046831Y-104560936D01*
X84842096Y-104697736D01*
X84614612Y-104791963D01*
X84373115Y-104840000D01*
X84126885Y-104840000D01*
X83885388Y-104791963D01*
X83657904Y-104697736D01*
X83453169Y-104560936D01*
X83279064Y-104386831D01*
X83142264Y-104182096D01*
X83048037Y-103954612D01*
X83000000Y-103713115D01*
X83000000Y-103466885D01*
X83048037Y-103225388D01*
X83142264Y-102997904D01*
X83279064Y-102793169D01*
X83453169Y-102619064D01*
X83657904Y-102482264D01*
X83885388Y-102388037D01*
X84126885Y-102340000D01*
X84373115Y-102340000D01*
X84614612Y-102388037D01*
X84614612Y-102388037D01*
G37*
G36*
X68114612Y-102388037D02*
X68342096Y-102482264D01*
X68546831Y-102619064D01*
X68720936Y-102793169D01*
X68857736Y-102997904D01*
X68951963Y-103225388D01*
X69000000Y-103466885D01*
X69000000Y-103713115D01*
X68951963Y-103954612D01*
X68857736Y-104182096D01*
X68720936Y-104386831D01*
X68546831Y-104560936D01*
X68342096Y-104697736D01*
X68114612Y-104791963D01*
X67873115Y-104840000D01*
X67626885Y-104840000D01*
X67385388Y-104791963D01*
X67157904Y-104697736D01*
X66953169Y-104560936D01*
X66779064Y-104386831D01*
X66642264Y-104182096D01*
X66548037Y-103954612D01*
X66500000Y-103713115D01*
X66500000Y-103466885D01*
X66548037Y-103225388D01*
X66642264Y-102997904D01*
X66779064Y-102793169D01*
X66953169Y-102619064D01*
X67157904Y-102482264D01*
X67385388Y-102388037D01*
X67626885Y-102340000D01*
X67873115Y-102340000D01*
X68114612Y-102388037D01*
X68114612Y-102388037D01*
G37*
G36*
X64614612Y-102388037D02*
X64842096Y-102482264D01*
X65046831Y-102619064D01*
X65220936Y-102793169D01*
X65357736Y-102997904D01*
X65451963Y-103225388D01*
X65500000Y-103466885D01*
X65500000Y-103713115D01*
X65451963Y-103954612D01*
X65357736Y-104182096D01*
X65220936Y-104386831D01*
X65046831Y-104560936D01*
X64842096Y-104697736D01*
X64614612Y-104791963D01*
X64373115Y-104840000D01*
X64126885Y-104840000D01*
X63885388Y-104791963D01*
X63657904Y-104697736D01*
X63453169Y-104560936D01*
X63279064Y-104386831D01*
X63142264Y-104182096D01*
X63048037Y-103954612D01*
X63000000Y-103713115D01*
X63000000Y-103466885D01*
X63048037Y-103225388D01*
X63142264Y-102997904D01*
X63279064Y-102793169D01*
X63453169Y-102619064D01*
X63657904Y-102482264D01*
X63885388Y-102388037D01*
X64126885Y-102340000D01*
X64373115Y-102340000D01*
X64614612Y-102388037D01*
X64614612Y-102388037D01*
G37*
G36*
X24614612Y-102388037D02*
X24842096Y-102482264D01*
X25046831Y-102619064D01*
X25220936Y-102793169D01*
X25357736Y-102997904D01*
X25451963Y-103225388D01*
X25500000Y-103466885D01*
X25500000Y-103713115D01*
X25451963Y-103954612D01*
X25357736Y-104182096D01*
X25220936Y-104386831D01*
X25046831Y-104560936D01*
X24842096Y-104697736D01*
X24614612Y-104791963D01*
X24373115Y-104840000D01*
X24126885Y-104840000D01*
X23885388Y-104791963D01*
X23657904Y-104697736D01*
X23453169Y-104560936D01*
X23279064Y-104386831D01*
X23142264Y-104182096D01*
X23048037Y-103954612D01*
X23000000Y-103713115D01*
X23000000Y-103466885D01*
X23048037Y-103225388D01*
X23142264Y-102997904D01*
X23279064Y-102793169D01*
X23453169Y-102619064D01*
X23657904Y-102482264D01*
X23885388Y-102388037D01*
X24126885Y-102340000D01*
X24373115Y-102340000D01*
X24614612Y-102388037D01*
X24614612Y-102388037D01*
G37*
G36*
X114840935Y-96578429D02*
X114937534Y-96597644D01*
X115210517Y-96710717D01*
X115396330Y-96834874D01*
X115456197Y-96874876D01*
X115665124Y-97083803D01*
X115665126Y-97083806D01*
X115802556Y-97289483D01*
X115829284Y-97329485D01*
X115942356Y-97602467D01*
X116000000Y-97892261D01*
X116000000Y-98187739D01*
X115942356Y-98477533D01*
X115829284Y-98750515D01*
X115665124Y-98996197D01*
X115456197Y-99205124D01*
X115456194Y-99205126D01*
X115210517Y-99369283D01*
X114937534Y-99482356D01*
X114848831Y-99500000D01*
X114647739Y-99540000D01*
X114352261Y-99540000D01*
X114151169Y-99500000D01*
X114062466Y-99482356D01*
X113789483Y-99369283D01*
X113543806Y-99205126D01*
X113543803Y-99205124D01*
X113334876Y-98996197D01*
X113170716Y-98750515D01*
X113057644Y-98477533D01*
X113000000Y-98187739D01*
X113000000Y-97892261D01*
X113057644Y-97602467D01*
X113170716Y-97329485D01*
X113197445Y-97289483D01*
X113334874Y-97083806D01*
X113334876Y-97083803D01*
X113543803Y-96874876D01*
X113603670Y-96834874D01*
X113789483Y-96710717D01*
X114062466Y-96597644D01*
X114159065Y-96578429D01*
X114352261Y-96540000D01*
X114647739Y-96540000D01*
X114840935Y-96578429D01*
X114840935Y-96578429D01*
G37*
G36*
X107340935Y-96578429D02*
X107437534Y-96597644D01*
X107710517Y-96710717D01*
X107896330Y-96834874D01*
X107956197Y-96874876D01*
X108165124Y-97083803D01*
X108165126Y-97083806D01*
X108302556Y-97289483D01*
X108329284Y-97329485D01*
X108442356Y-97602467D01*
X108500000Y-97892261D01*
X108500000Y-98187739D01*
X108442356Y-98477533D01*
X108329284Y-98750515D01*
X108165124Y-98996197D01*
X107956197Y-99205124D01*
X107956194Y-99205126D01*
X107710517Y-99369283D01*
X107437534Y-99482356D01*
X107348831Y-99500000D01*
X107147739Y-99540000D01*
X106852261Y-99540000D01*
X106651169Y-99500000D01*
X106562466Y-99482356D01*
X106289483Y-99369283D01*
X106043806Y-99205126D01*
X106043803Y-99205124D01*
X105834876Y-98996197D01*
X105670716Y-98750515D01*
X105557644Y-98477533D01*
X105500000Y-98187739D01*
X105500000Y-97892261D01*
X105557644Y-97602467D01*
X105670716Y-97329485D01*
X105697445Y-97289483D01*
X105834874Y-97083806D01*
X105834876Y-97083803D01*
X106043803Y-96874876D01*
X106103670Y-96834874D01*
X106289483Y-96710717D01*
X106562466Y-96597644D01*
X106659065Y-96578429D01*
X106852261Y-96540000D01*
X107147739Y-96540000D01*
X107340935Y-96578429D01*
X107340935Y-96578429D01*
G37*
G36*
X54840935Y-96538429D02*
X54937534Y-96557644D01*
X55210517Y-96670717D01*
X55270379Y-96710716D01*
X55456197Y-96834876D01*
X55665124Y-97043803D01*
X55665126Y-97043806D01*
X55829283Y-97289483D01*
X55942356Y-97562466D01*
X56000000Y-97852263D01*
X56000000Y-98147737D01*
X55942356Y-98437534D01*
X55829283Y-98710517D01*
X55667313Y-98952920D01*
X55665124Y-98956197D01*
X55456197Y-99165124D01*
X55456194Y-99165126D01*
X55210517Y-99329283D01*
X54937534Y-99442356D01*
X54840935Y-99461571D01*
X54647739Y-99500000D01*
X54352261Y-99500000D01*
X54159065Y-99461571D01*
X54062466Y-99442356D01*
X53789483Y-99329283D01*
X53543806Y-99165126D01*
X53543803Y-99165124D01*
X53334876Y-98956197D01*
X53332687Y-98952920D01*
X53170717Y-98710517D01*
X53057644Y-98437534D01*
X53000000Y-98147737D01*
X53000000Y-97852263D01*
X53057644Y-97562466D01*
X53170717Y-97289483D01*
X53334874Y-97043806D01*
X53334876Y-97043803D01*
X53543803Y-96834876D01*
X53729621Y-96710716D01*
X53789483Y-96670717D01*
X54062466Y-96557644D01*
X54159065Y-96538429D01*
X54352261Y-96500000D01*
X54647739Y-96500000D01*
X54840935Y-96538429D01*
X54840935Y-96538429D01*
G37*
G36*
X67340935Y-96538429D02*
X67437534Y-96557644D01*
X67710517Y-96670717D01*
X67770379Y-96710716D01*
X67956197Y-96834876D01*
X68165124Y-97043803D01*
X68165126Y-97043806D01*
X68329283Y-97289483D01*
X68442356Y-97562466D01*
X68500000Y-97852263D01*
X68500000Y-98147737D01*
X68442356Y-98437534D01*
X68329283Y-98710517D01*
X68167313Y-98952920D01*
X68165124Y-98956197D01*
X67956197Y-99165124D01*
X67956194Y-99165126D01*
X67710517Y-99329283D01*
X67437534Y-99442356D01*
X67340935Y-99461571D01*
X67147739Y-99500000D01*
X66852261Y-99500000D01*
X66659065Y-99461571D01*
X66562466Y-99442356D01*
X66289483Y-99329283D01*
X66043806Y-99165126D01*
X66043803Y-99165124D01*
X65834876Y-98956197D01*
X65832687Y-98952920D01*
X65670717Y-98710517D01*
X65557644Y-98437534D01*
X65500000Y-98147737D01*
X65500000Y-97852263D01*
X65557644Y-97562466D01*
X65670717Y-97289483D01*
X65834874Y-97043806D01*
X65834876Y-97043803D01*
X66043803Y-96834876D01*
X66229621Y-96710716D01*
X66289483Y-96670717D01*
X66562466Y-96557644D01*
X66659065Y-96538429D01*
X66852261Y-96500000D01*
X67147739Y-96500000D01*
X67340935Y-96538429D01*
X67340935Y-96538429D01*
G37*
G36*
X74840935Y-96538429D02*
X74937534Y-96557644D01*
X75210517Y-96670717D01*
X75270379Y-96710716D01*
X75456197Y-96834876D01*
X75665124Y-97043803D01*
X75665126Y-97043806D01*
X75829283Y-97289483D01*
X75942356Y-97562466D01*
X76000000Y-97852263D01*
X76000000Y-98147737D01*
X75942356Y-98437534D01*
X75829283Y-98710517D01*
X75667313Y-98952920D01*
X75665124Y-98956197D01*
X75456197Y-99165124D01*
X75456194Y-99165126D01*
X75210517Y-99329283D01*
X74937534Y-99442356D01*
X74840935Y-99461571D01*
X74647739Y-99500000D01*
X74352261Y-99500000D01*
X74159065Y-99461571D01*
X74062466Y-99442356D01*
X73789483Y-99329283D01*
X73543806Y-99165126D01*
X73543803Y-99165124D01*
X73334876Y-98956197D01*
X73332687Y-98952920D01*
X73170717Y-98710517D01*
X73057644Y-98437534D01*
X73000000Y-98147737D01*
X73000000Y-97852263D01*
X73057644Y-97562466D01*
X73170717Y-97289483D01*
X73334874Y-97043806D01*
X73334876Y-97043803D01*
X73543803Y-96834876D01*
X73729621Y-96710716D01*
X73789483Y-96670717D01*
X74062466Y-96557644D01*
X74159065Y-96538429D01*
X74352261Y-96500000D01*
X74647739Y-96500000D01*
X74840935Y-96538429D01*
X74840935Y-96538429D01*
G37*
G36*
X87340935Y-96538429D02*
X87437534Y-96557644D01*
X87710517Y-96670717D01*
X87770379Y-96710716D01*
X87956197Y-96834876D01*
X88165124Y-97043803D01*
X88165126Y-97043806D01*
X88329283Y-97289483D01*
X88442356Y-97562466D01*
X88500000Y-97852263D01*
X88500000Y-98147737D01*
X88442356Y-98437534D01*
X88329283Y-98710517D01*
X88167313Y-98952920D01*
X88165124Y-98956197D01*
X87956197Y-99165124D01*
X87956194Y-99165126D01*
X87710517Y-99329283D01*
X87437534Y-99442356D01*
X87340935Y-99461571D01*
X87147739Y-99500000D01*
X86852261Y-99500000D01*
X86659065Y-99461571D01*
X86562466Y-99442356D01*
X86289483Y-99329283D01*
X86043806Y-99165126D01*
X86043803Y-99165124D01*
X85834876Y-98956197D01*
X85832687Y-98952920D01*
X85670717Y-98710517D01*
X85557644Y-98437534D01*
X85500000Y-98147737D01*
X85500000Y-97852263D01*
X85557644Y-97562466D01*
X85670717Y-97289483D01*
X85834874Y-97043806D01*
X85834876Y-97043803D01*
X86043803Y-96834876D01*
X86229621Y-96710716D01*
X86289483Y-96670717D01*
X86562466Y-96557644D01*
X86659065Y-96538429D01*
X86852261Y-96500000D01*
X87147739Y-96500000D01*
X87340935Y-96538429D01*
X87340935Y-96538429D01*
G37*
G36*
X94840935Y-96538429D02*
X94937534Y-96557644D01*
X95210517Y-96670717D01*
X95270379Y-96710716D01*
X95456197Y-96834876D01*
X95665124Y-97043803D01*
X95665126Y-97043806D01*
X95829283Y-97289483D01*
X95942356Y-97562466D01*
X96000000Y-97852263D01*
X96000000Y-98147737D01*
X95942356Y-98437534D01*
X95829283Y-98710517D01*
X95667313Y-98952920D01*
X95665124Y-98956197D01*
X95456197Y-99165124D01*
X95456194Y-99165126D01*
X95210517Y-99329283D01*
X94937534Y-99442356D01*
X94840935Y-99461571D01*
X94647739Y-99500000D01*
X94352261Y-99500000D01*
X94159065Y-99461571D01*
X94062466Y-99442356D01*
X93789483Y-99329283D01*
X93543806Y-99165126D01*
X93543803Y-99165124D01*
X93334876Y-98956197D01*
X93332687Y-98952920D01*
X93170717Y-98710517D01*
X93057644Y-98437534D01*
X93000000Y-98147737D01*
X93000000Y-97852263D01*
X93057644Y-97562466D01*
X93170717Y-97289483D01*
X93334874Y-97043806D01*
X93334876Y-97043803D01*
X93543803Y-96834876D01*
X93729621Y-96710716D01*
X93789483Y-96670717D01*
X94062466Y-96557644D01*
X94159065Y-96538429D01*
X94352261Y-96500000D01*
X94647739Y-96500000D01*
X94840935Y-96538429D01*
X94840935Y-96538429D01*
G37*
G36*
X47340935Y-96538429D02*
X47437534Y-96557644D01*
X47710517Y-96670717D01*
X47770379Y-96710716D01*
X47956197Y-96834876D01*
X48165124Y-97043803D01*
X48165126Y-97043806D01*
X48329283Y-97289483D01*
X48442356Y-97562466D01*
X48500000Y-97852263D01*
X48500000Y-98147737D01*
X48442356Y-98437534D01*
X48329283Y-98710517D01*
X48167313Y-98952920D01*
X48165124Y-98956197D01*
X47956197Y-99165124D01*
X47956194Y-99165126D01*
X47710517Y-99329283D01*
X47437534Y-99442356D01*
X47340935Y-99461571D01*
X47147739Y-99500000D01*
X46852261Y-99500000D01*
X46659065Y-99461571D01*
X46562466Y-99442356D01*
X46289483Y-99329283D01*
X46043806Y-99165126D01*
X46043803Y-99165124D01*
X45834876Y-98956197D01*
X45832687Y-98952920D01*
X45670717Y-98710517D01*
X45557644Y-98437534D01*
X45500000Y-98147737D01*
X45500000Y-97852263D01*
X45557644Y-97562466D01*
X45670717Y-97289483D01*
X45834874Y-97043806D01*
X45834876Y-97043803D01*
X46043803Y-96834876D01*
X46229621Y-96710716D01*
X46289483Y-96670717D01*
X46562466Y-96557644D01*
X46659065Y-96538429D01*
X46852261Y-96500000D01*
X47147739Y-96500000D01*
X47340935Y-96538429D01*
X47340935Y-96538429D01*
G37*
G36*
X27340935Y-96538429D02*
X27437534Y-96557644D01*
X27710517Y-96670717D01*
X27770379Y-96710716D01*
X27956197Y-96834876D01*
X28165124Y-97043803D01*
X28165126Y-97043806D01*
X28329283Y-97289483D01*
X28442356Y-97562466D01*
X28500000Y-97852263D01*
X28500000Y-98147737D01*
X28442356Y-98437534D01*
X28329283Y-98710517D01*
X28167313Y-98952920D01*
X28165124Y-98956197D01*
X27956197Y-99165124D01*
X27956194Y-99165126D01*
X27710517Y-99329283D01*
X27437534Y-99442356D01*
X27340935Y-99461571D01*
X27147739Y-99500000D01*
X26852261Y-99500000D01*
X26659065Y-99461571D01*
X26562466Y-99442356D01*
X26289483Y-99329283D01*
X26043806Y-99165126D01*
X26043803Y-99165124D01*
X25834876Y-98956197D01*
X25832687Y-98952920D01*
X25670717Y-98710517D01*
X25557644Y-98437534D01*
X25500000Y-98147737D01*
X25500000Y-97852263D01*
X25557644Y-97562466D01*
X25670717Y-97289483D01*
X25834874Y-97043806D01*
X25834876Y-97043803D01*
X26043803Y-96834876D01*
X26229621Y-96710716D01*
X26289483Y-96670717D01*
X26562466Y-96557644D01*
X26659065Y-96538429D01*
X26852261Y-96500000D01*
X27147739Y-96500000D01*
X27340935Y-96538429D01*
X27340935Y-96538429D01*
G37*
G36*
X34840935Y-96538429D02*
X34937534Y-96557644D01*
X35210517Y-96670717D01*
X35270379Y-96710716D01*
X35456197Y-96834876D01*
X35665124Y-97043803D01*
X35665126Y-97043806D01*
X35829283Y-97289483D01*
X35942356Y-97562466D01*
X36000000Y-97852263D01*
X36000000Y-98147737D01*
X35942356Y-98437534D01*
X35829283Y-98710517D01*
X35667313Y-98952920D01*
X35665124Y-98956197D01*
X35456197Y-99165124D01*
X35456194Y-99165126D01*
X35210517Y-99329283D01*
X34937534Y-99442356D01*
X34840935Y-99461571D01*
X34647739Y-99500000D01*
X34352261Y-99500000D01*
X34159065Y-99461571D01*
X34062466Y-99442356D01*
X33789483Y-99329283D01*
X33543806Y-99165126D01*
X33543803Y-99165124D01*
X33334876Y-98956197D01*
X33332687Y-98952920D01*
X33170717Y-98710517D01*
X33057644Y-98437534D01*
X33000000Y-98147737D01*
X33000000Y-97852263D01*
X33057644Y-97562466D01*
X33170717Y-97289483D01*
X33334874Y-97043806D01*
X33334876Y-97043803D01*
X33543803Y-96834876D01*
X33729621Y-96710716D01*
X33789483Y-96670717D01*
X34062466Y-96557644D01*
X34159065Y-96538429D01*
X34352261Y-96500000D01*
X34647739Y-96500000D01*
X34840935Y-96538429D01*
X34840935Y-96538429D01*
G37*
G36*
X107250562Y-91520453D02*
X107437534Y-91557644D01*
X107710517Y-91670717D01*
X107878598Y-91783026D01*
X107956197Y-91834876D01*
X108165124Y-92043803D01*
X108165126Y-92043806D01*
X108329283Y-92289483D01*
X108428721Y-92529547D01*
X108442356Y-92562467D01*
X108500000Y-92852261D01*
X108500000Y-93147739D01*
X108442356Y-93437533D01*
X108329284Y-93710515D01*
X108165124Y-93956197D01*
X107956197Y-94165124D01*
X107956194Y-94165126D01*
X107710517Y-94329283D01*
X107437534Y-94442356D01*
X107348831Y-94460000D01*
X107147739Y-94500000D01*
X106852261Y-94500000D01*
X106651169Y-94460000D01*
X106562466Y-94442356D01*
X106289483Y-94329283D01*
X106043806Y-94165126D01*
X106043803Y-94165124D01*
X105834876Y-93956197D01*
X105670716Y-93710515D01*
X105557644Y-93437533D01*
X105500000Y-93147739D01*
X105500000Y-92852261D01*
X105557644Y-92562467D01*
X105571280Y-92529547D01*
X105670717Y-92289483D01*
X105834874Y-92043806D01*
X105834876Y-92043803D01*
X106043803Y-91834876D01*
X106121402Y-91783026D01*
X106289483Y-91670717D01*
X106562466Y-91557644D01*
X106749438Y-91520453D01*
X106852261Y-91500000D01*
X107147739Y-91500000D01*
X107250562Y-91520453D01*
X107250562Y-91520453D01*
G37*
G36*
X114750562Y-91520453D02*
X114937534Y-91557644D01*
X115210517Y-91670717D01*
X115378598Y-91783026D01*
X115456197Y-91834876D01*
X115665124Y-92043803D01*
X115665126Y-92043806D01*
X115829283Y-92289483D01*
X115928721Y-92529547D01*
X115942356Y-92562467D01*
X116000000Y-92852261D01*
X116000000Y-93147739D01*
X115942356Y-93437533D01*
X115829284Y-93710515D01*
X115665124Y-93956197D01*
X115456197Y-94165124D01*
X115456194Y-94165126D01*
X115210517Y-94329283D01*
X114937534Y-94442356D01*
X114848831Y-94460000D01*
X114647739Y-94500000D01*
X114352261Y-94500000D01*
X114151169Y-94460000D01*
X114062466Y-94442356D01*
X113789483Y-94329283D01*
X113543806Y-94165126D01*
X113543803Y-94165124D01*
X113334876Y-93956197D01*
X113170716Y-93710515D01*
X113057644Y-93437533D01*
X113000000Y-93147739D01*
X113000000Y-92852261D01*
X113057644Y-92562467D01*
X113071280Y-92529547D01*
X113170717Y-92289483D01*
X113334874Y-92043806D01*
X113334876Y-92043803D01*
X113543803Y-91834876D01*
X113621402Y-91783026D01*
X113789483Y-91670717D01*
X114062466Y-91557644D01*
X114249438Y-91520453D01*
X114352261Y-91500000D01*
X114647739Y-91500000D01*
X114750562Y-91520453D01*
X114750562Y-91520453D01*
G37*
G36*
X47309030Y-91492083D02*
X47437534Y-91517644D01*
X47556627Y-91566974D01*
X47657511Y-91608761D01*
X47710517Y-91630717D01*
X47770379Y-91670716D01*
X47956197Y-91794876D01*
X48165124Y-92003803D01*
X48165126Y-92003806D01*
X48329283Y-92249483D01*
X48420812Y-92470453D01*
X48442356Y-92522467D01*
X48500000Y-92812261D01*
X48500000Y-93107739D01*
X48461571Y-93300935D01*
X48442356Y-93397534D01*
X48329283Y-93670517D01*
X48167313Y-93912920D01*
X48165124Y-93916197D01*
X47956197Y-94125124D01*
X47956194Y-94125126D01*
X47710517Y-94289283D01*
X47437534Y-94402356D01*
X47340935Y-94421571D01*
X47147739Y-94460000D01*
X46852261Y-94460000D01*
X46659065Y-94421571D01*
X46562466Y-94402356D01*
X46289483Y-94289283D01*
X46043806Y-94125126D01*
X46043803Y-94125124D01*
X45834876Y-93916197D01*
X45832687Y-93912920D01*
X45670717Y-93670517D01*
X45557644Y-93397534D01*
X45538429Y-93300935D01*
X45500000Y-93107739D01*
X45500000Y-92812261D01*
X45557644Y-92522467D01*
X45579189Y-92470453D01*
X45670717Y-92249483D01*
X45834874Y-92003806D01*
X45834876Y-92003803D01*
X46043803Y-91794876D01*
X46229621Y-91670716D01*
X46289483Y-91630717D01*
X46342490Y-91608761D01*
X46443373Y-91566974D01*
X46562466Y-91517644D01*
X46690970Y-91492083D01*
X46852261Y-91460000D01*
X47147739Y-91460000D01*
X47309030Y-91492083D01*
X47309030Y-91492083D01*
G37*
G36*
X74809030Y-91492083D02*
X74937534Y-91517644D01*
X75056627Y-91566974D01*
X75157511Y-91608761D01*
X75210517Y-91630717D01*
X75270379Y-91670716D01*
X75456197Y-91794876D01*
X75665124Y-92003803D01*
X75665126Y-92003806D01*
X75829283Y-92249483D01*
X75920812Y-92470453D01*
X75942356Y-92522467D01*
X76000000Y-92812261D01*
X76000000Y-93107739D01*
X75961571Y-93300935D01*
X75942356Y-93397534D01*
X75829283Y-93670517D01*
X75667313Y-93912920D01*
X75665124Y-93916197D01*
X75456197Y-94125124D01*
X75456194Y-94125126D01*
X75210517Y-94289283D01*
X74937534Y-94402356D01*
X74840935Y-94421571D01*
X74647739Y-94460000D01*
X74352261Y-94460000D01*
X74159065Y-94421571D01*
X74062466Y-94402356D01*
X73789483Y-94289283D01*
X73543806Y-94125126D01*
X73543803Y-94125124D01*
X73334876Y-93916197D01*
X73332687Y-93912920D01*
X73170717Y-93670517D01*
X73057644Y-93397534D01*
X73038429Y-93300935D01*
X73000000Y-93107739D01*
X73000000Y-92812261D01*
X73057644Y-92522467D01*
X73079189Y-92470453D01*
X73170717Y-92249483D01*
X73334874Y-92003806D01*
X73334876Y-92003803D01*
X73543803Y-91794876D01*
X73729621Y-91670716D01*
X73789483Y-91630717D01*
X73842490Y-91608761D01*
X73943373Y-91566974D01*
X74062466Y-91517644D01*
X74190970Y-91492083D01*
X74352261Y-91460000D01*
X74647739Y-91460000D01*
X74809030Y-91492083D01*
X74809030Y-91492083D01*
G37*
G36*
X67309030Y-91492083D02*
X67437534Y-91517644D01*
X67556627Y-91566974D01*
X67657511Y-91608761D01*
X67710517Y-91630717D01*
X67770379Y-91670716D01*
X67956197Y-91794876D01*
X68165124Y-92003803D01*
X68165126Y-92003806D01*
X68329283Y-92249483D01*
X68420812Y-92470453D01*
X68442356Y-92522467D01*
X68500000Y-92812261D01*
X68500000Y-93107739D01*
X68461571Y-93300935D01*
X68442356Y-93397534D01*
X68329283Y-93670517D01*
X68167313Y-93912920D01*
X68165124Y-93916197D01*
X67956197Y-94125124D01*
X67956194Y-94125126D01*
X67710517Y-94289283D01*
X67437534Y-94402356D01*
X67340935Y-94421571D01*
X67147739Y-94460000D01*
X66852261Y-94460000D01*
X66659065Y-94421571D01*
X66562466Y-94402356D01*
X66289483Y-94289283D01*
X66043806Y-94125126D01*
X66043803Y-94125124D01*
X65834876Y-93916197D01*
X65832687Y-93912920D01*
X65670717Y-93670517D01*
X65557644Y-93397534D01*
X65538429Y-93300935D01*
X65500000Y-93107739D01*
X65500000Y-92812261D01*
X65557644Y-92522467D01*
X65579189Y-92470453D01*
X65670717Y-92249483D01*
X65834874Y-92003806D01*
X65834876Y-92003803D01*
X66043803Y-91794876D01*
X66229621Y-91670716D01*
X66289483Y-91630717D01*
X66342490Y-91608761D01*
X66443373Y-91566974D01*
X66562466Y-91517644D01*
X66690970Y-91492083D01*
X66852261Y-91460000D01*
X67147739Y-91460000D01*
X67309030Y-91492083D01*
X67309030Y-91492083D01*
G37*
G36*
X54809030Y-91492083D02*
X54937534Y-91517644D01*
X55056627Y-91566974D01*
X55157511Y-91608761D01*
X55210517Y-91630717D01*
X55270379Y-91670716D01*
X55456197Y-91794876D01*
X55665124Y-92003803D01*
X55665126Y-92003806D01*
X55829283Y-92249483D01*
X55920812Y-92470453D01*
X55942356Y-92522467D01*
X56000000Y-92812261D01*
X56000000Y-93107739D01*
X55961571Y-93300935D01*
X55942356Y-93397534D01*
X55829283Y-93670517D01*
X55667313Y-93912920D01*
X55665124Y-93916197D01*
X55456197Y-94125124D01*
X55456194Y-94125126D01*
X55210517Y-94289283D01*
X54937534Y-94402356D01*
X54840935Y-94421571D01*
X54647739Y-94460000D01*
X54352261Y-94460000D01*
X54159065Y-94421571D01*
X54062466Y-94402356D01*
X53789483Y-94289283D01*
X53543806Y-94125126D01*
X53543803Y-94125124D01*
X53334876Y-93916197D01*
X53332687Y-93912920D01*
X53170717Y-93670517D01*
X53057644Y-93397534D01*
X53038429Y-93300935D01*
X53000000Y-93107739D01*
X53000000Y-92812261D01*
X53057644Y-92522467D01*
X53079189Y-92470453D01*
X53170717Y-92249483D01*
X53334874Y-92003806D01*
X53334876Y-92003803D01*
X53543803Y-91794876D01*
X53729621Y-91670716D01*
X53789483Y-91630717D01*
X53842490Y-91608761D01*
X53943373Y-91566974D01*
X54062466Y-91517644D01*
X54190970Y-91492083D01*
X54352261Y-91460000D01*
X54647739Y-91460000D01*
X54809030Y-91492083D01*
X54809030Y-91492083D01*
G37*
G36*
X94809030Y-91492083D02*
X94937534Y-91517644D01*
X95056627Y-91566974D01*
X95157511Y-91608761D01*
X95210517Y-91630717D01*
X95270379Y-91670716D01*
X95456197Y-91794876D01*
X95665124Y-92003803D01*
X95665126Y-92003806D01*
X95829283Y-92249483D01*
X95920812Y-92470453D01*
X95942356Y-92522467D01*
X96000000Y-92812261D01*
X96000000Y-93107739D01*
X95961571Y-93300935D01*
X95942356Y-93397534D01*
X95829283Y-93670517D01*
X95667313Y-93912920D01*
X95665124Y-93916197D01*
X95456197Y-94125124D01*
X95456194Y-94125126D01*
X95210517Y-94289283D01*
X94937534Y-94402356D01*
X94840935Y-94421571D01*
X94647739Y-94460000D01*
X94352261Y-94460000D01*
X94159065Y-94421571D01*
X94062466Y-94402356D01*
X93789483Y-94289283D01*
X93543806Y-94125126D01*
X93543803Y-94125124D01*
X93334876Y-93916197D01*
X93332687Y-93912920D01*
X93170717Y-93670517D01*
X93057644Y-93397534D01*
X93038429Y-93300935D01*
X93000000Y-93107739D01*
X93000000Y-92812261D01*
X93057644Y-92522467D01*
X93079189Y-92470453D01*
X93170717Y-92249483D01*
X93334874Y-92003806D01*
X93334876Y-92003803D01*
X93543803Y-91794876D01*
X93729621Y-91670716D01*
X93789483Y-91630717D01*
X93842490Y-91608761D01*
X93943373Y-91566974D01*
X94062466Y-91517644D01*
X94190970Y-91492083D01*
X94352261Y-91460000D01*
X94647739Y-91460000D01*
X94809030Y-91492083D01*
X94809030Y-91492083D01*
G37*
G36*
X34809030Y-91492083D02*
X34937534Y-91517644D01*
X35056627Y-91566974D01*
X35157511Y-91608761D01*
X35210517Y-91630717D01*
X35270379Y-91670716D01*
X35456197Y-91794876D01*
X35665124Y-92003803D01*
X35665126Y-92003806D01*
X35829283Y-92249483D01*
X35920812Y-92470453D01*
X35942356Y-92522467D01*
X36000000Y-92812261D01*
X36000000Y-93107739D01*
X35961571Y-93300935D01*
X35942356Y-93397534D01*
X35829283Y-93670517D01*
X35667313Y-93912920D01*
X35665124Y-93916197D01*
X35456197Y-94125124D01*
X35456194Y-94125126D01*
X35210517Y-94289283D01*
X34937534Y-94402356D01*
X34840935Y-94421571D01*
X34647739Y-94460000D01*
X34352261Y-94460000D01*
X34159065Y-94421571D01*
X34062466Y-94402356D01*
X33789483Y-94289283D01*
X33543806Y-94125126D01*
X33543803Y-94125124D01*
X33334876Y-93916197D01*
X33332687Y-93912920D01*
X33170717Y-93670517D01*
X33057644Y-93397534D01*
X33038429Y-93300935D01*
X33000000Y-93107739D01*
X33000000Y-92812261D01*
X33057644Y-92522467D01*
X33079189Y-92470453D01*
X33170717Y-92249483D01*
X33334874Y-92003806D01*
X33334876Y-92003803D01*
X33543803Y-91794876D01*
X33729621Y-91670716D01*
X33789483Y-91630717D01*
X33842490Y-91608761D01*
X33943373Y-91566974D01*
X34062466Y-91517644D01*
X34190970Y-91492083D01*
X34352261Y-91460000D01*
X34647739Y-91460000D01*
X34809030Y-91492083D01*
X34809030Y-91492083D01*
G37*
G36*
X87309030Y-91492083D02*
X87437534Y-91517644D01*
X87556627Y-91566974D01*
X87657511Y-91608761D01*
X87710517Y-91630717D01*
X87770379Y-91670716D01*
X87956197Y-91794876D01*
X88165124Y-92003803D01*
X88165126Y-92003806D01*
X88329283Y-92249483D01*
X88420812Y-92470453D01*
X88442356Y-92522467D01*
X88500000Y-92812261D01*
X88500000Y-93107739D01*
X88461571Y-93300935D01*
X88442356Y-93397534D01*
X88329283Y-93670517D01*
X88167313Y-93912920D01*
X88165124Y-93916197D01*
X87956197Y-94125124D01*
X87956194Y-94125126D01*
X87710517Y-94289283D01*
X87437534Y-94402356D01*
X87340935Y-94421571D01*
X87147739Y-94460000D01*
X86852261Y-94460000D01*
X86659065Y-94421571D01*
X86562466Y-94402356D01*
X86289483Y-94289283D01*
X86043806Y-94125126D01*
X86043803Y-94125124D01*
X85834876Y-93916197D01*
X85832687Y-93912920D01*
X85670717Y-93670517D01*
X85557644Y-93397534D01*
X85538429Y-93300935D01*
X85500000Y-93107739D01*
X85500000Y-92812261D01*
X85557644Y-92522467D01*
X85579189Y-92470453D01*
X85670717Y-92249483D01*
X85834874Y-92003806D01*
X85834876Y-92003803D01*
X86043803Y-91794876D01*
X86229621Y-91670716D01*
X86289483Y-91630717D01*
X86342490Y-91608761D01*
X86443373Y-91566974D01*
X86562466Y-91517644D01*
X86690970Y-91492083D01*
X86852261Y-91460000D01*
X87147739Y-91460000D01*
X87309030Y-91492083D01*
X87309030Y-91492083D01*
G37*
G36*
X27309030Y-91492083D02*
X27437534Y-91517644D01*
X27556627Y-91566974D01*
X27657511Y-91608761D01*
X27710517Y-91630717D01*
X27770379Y-91670716D01*
X27956197Y-91794876D01*
X28165124Y-92003803D01*
X28165126Y-92003806D01*
X28329283Y-92249483D01*
X28420812Y-92470453D01*
X28442356Y-92522467D01*
X28500000Y-92812261D01*
X28500000Y-93107739D01*
X28461571Y-93300935D01*
X28442356Y-93397534D01*
X28329283Y-93670517D01*
X28167313Y-93912920D01*
X28165124Y-93916197D01*
X27956197Y-94125124D01*
X27956194Y-94125126D01*
X27710517Y-94289283D01*
X27437534Y-94402356D01*
X27340935Y-94421571D01*
X27147739Y-94460000D01*
X26852261Y-94460000D01*
X26659065Y-94421571D01*
X26562466Y-94402356D01*
X26289483Y-94289283D01*
X26043806Y-94125126D01*
X26043803Y-94125124D01*
X25834876Y-93916197D01*
X25832687Y-93912920D01*
X25670717Y-93670517D01*
X25557644Y-93397534D01*
X25538429Y-93300935D01*
X25500000Y-93107739D01*
X25500000Y-92812261D01*
X25557644Y-92522467D01*
X25579189Y-92470453D01*
X25670717Y-92249483D01*
X25834874Y-92003806D01*
X25834876Y-92003803D01*
X26043803Y-91794876D01*
X26229621Y-91670716D01*
X26289483Y-91630717D01*
X26342490Y-91608761D01*
X26443373Y-91566974D01*
X26562466Y-91517644D01*
X26690970Y-91492083D01*
X26852261Y-91460000D01*
X27147739Y-91460000D01*
X27309030Y-91492083D01*
X27309030Y-91492083D01*
G37*
G36*
X41146849Y-86867226D02*
X41668821Y-86971052D01*
X42242085Y-87208506D01*
X42758008Y-87553235D01*
X43196765Y-87991992D01*
X43541494Y-88507915D01*
X43778948Y-89081179D01*
X43900000Y-89689752D01*
X43900000Y-90310248D01*
X43778948Y-90918821D01*
X43541494Y-91492085D01*
X43196765Y-92008008D01*
X42758008Y-92446765D01*
X42242085Y-92791494D01*
X41668821Y-93028948D01*
X41146849Y-93132774D01*
X41060249Y-93150000D01*
X40439751Y-93150000D01*
X40353151Y-93132774D01*
X39831179Y-93028948D01*
X39257915Y-92791494D01*
X38741992Y-92446765D01*
X38303235Y-92008008D01*
X37958506Y-91492085D01*
X37721052Y-90918821D01*
X37600000Y-90310248D01*
X37600000Y-89689752D01*
X37721052Y-89081179D01*
X37958506Y-88507915D01*
X38303235Y-87991992D01*
X38741992Y-87553235D01*
X39257915Y-87208506D01*
X39831179Y-86971052D01*
X40353151Y-86867226D01*
X40439751Y-86850000D01*
X41060249Y-86850000D01*
X41146849Y-86867226D01*
X41146849Y-86867226D01*
G37*
G36*
X101146849Y-86617226D02*
X101668821Y-86721052D01*
X102242085Y-86958506D01*
X102758008Y-87303235D01*
X103196765Y-87741992D01*
X103541494Y-88257915D01*
X103778948Y-88831179D01*
X103900000Y-89439752D01*
X103900000Y-90060248D01*
X103778948Y-90668821D01*
X103541494Y-91242085D01*
X103196765Y-91758008D01*
X102758008Y-92196765D01*
X102242085Y-92541494D01*
X101668821Y-92778948D01*
X101146849Y-92882774D01*
X101060249Y-92900000D01*
X100439751Y-92900000D01*
X100353151Y-92882774D01*
X99831179Y-92778948D01*
X99257915Y-92541494D01*
X98741992Y-92196765D01*
X98303235Y-91758008D01*
X97958506Y-91242085D01*
X97721052Y-90668821D01*
X97600000Y-90060248D01*
X97600000Y-89439752D01*
X97721052Y-88831179D01*
X97958506Y-88257915D01*
X98303235Y-87741992D01*
X98741992Y-87303235D01*
X99257915Y-86958506D01*
X99831179Y-86721052D01*
X100353151Y-86617226D01*
X100439751Y-86600000D01*
X101060249Y-86600000D01*
X101146849Y-86617226D01*
X101146849Y-86617226D01*
G37*
G36*
X88700000Y-88875000D02*
X85300000Y-88875000D01*
X85300000Y-87625000D01*
X88700000Y-87625000D01*
X88700000Y-88875000D01*
X88700000Y-88875000D01*
G37*
G36*
X68950000Y-88875000D02*
X65550000Y-88875000D01*
X65550000Y-87625000D01*
X68950000Y-87625000D01*
X68950000Y-88875000D01*
X68950000Y-88875000D01*
G37*
G36*
X48600000Y-88875000D02*
X45200000Y-88875000D01*
X45200000Y-87625000D01*
X48600000Y-87625000D01*
X48600000Y-88875000D01*
X48600000Y-88875000D01*
G37*
G36*
X108700000Y-88875000D02*
X105300000Y-88875000D01*
X105300000Y-87625000D01*
X108700000Y-87625000D01*
X108700000Y-88875000D01*
X108700000Y-88875000D01*
G37*
G36*
X28700000Y-88875000D02*
X25300000Y-88875000D01*
X25300000Y-87625000D01*
X28700000Y-87625000D01*
X28700000Y-88875000D01*
X28700000Y-88875000D01*
G37*
G36*
X72400000Y-88125000D02*
X70100000Y-88125000D01*
X70100000Y-86675000D01*
X72400000Y-86675000D01*
X72400000Y-88125000D01*
X72400000Y-88125000D01*
G37*
G36*
X32050000Y-88125000D02*
X29750000Y-88125000D01*
X29750000Y-86675000D01*
X32050000Y-86675000D01*
X32050000Y-88125000D01*
X32050000Y-88125000D01*
G37*
G36*
X52150000Y-88125000D02*
X49850000Y-88125000D01*
X49850000Y-86675000D01*
X52150000Y-86675000D01*
X52150000Y-88125000D01*
X52150000Y-88125000D01*
G37*
G36*
X112150000Y-88125000D02*
X109850000Y-88125000D01*
X109850000Y-86675000D01*
X112150000Y-86675000D01*
X112150000Y-88125000D01*
X112150000Y-88125000D01*
G37*
G36*
X92150000Y-88125000D02*
X89850000Y-88125000D01*
X89850000Y-86675000D01*
X92150000Y-86675000D01*
X92150000Y-88125000D01*
X92150000Y-88125000D01*
G37*
G36*
X32050000Y-83725000D02*
X29750000Y-83725000D01*
X29750000Y-82275000D01*
X32050000Y-82275000D01*
X32050000Y-83725000D01*
X32050000Y-83725000D01*
G37*
G36*
X112150000Y-83725000D02*
X109850000Y-83725000D01*
X109850000Y-82275000D01*
X112150000Y-82275000D01*
X112150000Y-83725000D01*
X112150000Y-83725000D01*
G37*
G36*
X92150000Y-83725000D02*
X89850000Y-83725000D01*
X89850000Y-82275000D01*
X92150000Y-82275000D01*
X92150000Y-83725000D01*
X92150000Y-83725000D01*
G37*
G36*
X52150000Y-83725000D02*
X49850000Y-83725000D01*
X49850000Y-82275000D01*
X52150000Y-82275000D01*
X52150000Y-83725000D01*
X52150000Y-83725000D01*
G37*
G36*
X72400000Y-83725000D02*
X70100000Y-83725000D01*
X70100000Y-82275000D01*
X72400000Y-82275000D01*
X72400000Y-83725000D01*
X72400000Y-83725000D01*
G37*
G36*
X48600000Y-82775000D02*
X45200000Y-82775000D01*
X45200000Y-81525000D01*
X48600000Y-81525000D01*
X48600000Y-82775000D01*
X48600000Y-82775000D01*
G37*
G36*
X108700000Y-82775000D02*
X105300000Y-82775000D01*
X105300000Y-81525000D01*
X108700000Y-81525000D01*
X108700000Y-82775000D01*
X108700000Y-82775000D01*
G37*
G36*
X88700000Y-82775000D02*
X85300000Y-82775000D01*
X85300000Y-81525000D01*
X88700000Y-81525000D01*
X88700000Y-82775000D01*
X88700000Y-82775000D01*
G37*
G36*
X28700000Y-82775000D02*
X25300000Y-82775000D01*
X25300000Y-81525000D01*
X28700000Y-81525000D01*
X28700000Y-82775000D01*
X28700000Y-82775000D01*
G37*
G36*
X68950000Y-82775000D02*
X65550000Y-82775000D01*
X65550000Y-81525000D01*
X68950000Y-81525000D01*
X68950000Y-82775000D01*
X68950000Y-82775000D01*
G37*
G36*
X114840935Y-71238429D02*
X114937534Y-71257644D01*
X115210517Y-71370717D01*
X115396330Y-71494874D01*
X115456197Y-71534876D01*
X115665124Y-71743803D01*
X115665126Y-71743806D01*
X115802556Y-71949483D01*
X115829284Y-71989485D01*
X115942356Y-72262467D01*
X116000000Y-72552261D01*
X116000000Y-72847739D01*
X115942356Y-73137533D01*
X115829284Y-73410515D01*
X115665124Y-73656197D01*
X115456197Y-73865124D01*
X115456194Y-73865126D01*
X115210517Y-74029283D01*
X114937534Y-74142356D01*
X114848831Y-74160000D01*
X114647739Y-74200000D01*
X114352261Y-74200000D01*
X114151169Y-74160000D01*
X114062466Y-74142356D01*
X113789483Y-74029283D01*
X113543806Y-73865126D01*
X113543803Y-73865124D01*
X113334876Y-73656197D01*
X113170716Y-73410515D01*
X113057644Y-73137533D01*
X113000000Y-72847739D01*
X113000000Y-72552261D01*
X113057644Y-72262467D01*
X113170716Y-71989485D01*
X113197445Y-71949483D01*
X113334874Y-71743806D01*
X113334876Y-71743803D01*
X113543803Y-71534876D01*
X113603670Y-71494874D01*
X113789483Y-71370717D01*
X114062466Y-71257644D01*
X114159065Y-71238429D01*
X114352261Y-71200000D01*
X114647739Y-71200000D01*
X114840935Y-71238429D01*
X114840935Y-71238429D01*
G37*
G36*
X107340935Y-71238429D02*
X107437534Y-71257644D01*
X107710517Y-71370717D01*
X107896330Y-71494874D01*
X107956197Y-71534876D01*
X108165124Y-71743803D01*
X108165126Y-71743806D01*
X108302556Y-71949483D01*
X108329284Y-71989485D01*
X108442356Y-72262467D01*
X108500000Y-72552261D01*
X108500000Y-72847739D01*
X108442356Y-73137533D01*
X108329284Y-73410515D01*
X108165124Y-73656197D01*
X107956197Y-73865124D01*
X107956194Y-73865126D01*
X107710517Y-74029283D01*
X107437534Y-74142356D01*
X107348831Y-74160000D01*
X107147739Y-74200000D01*
X106852261Y-74200000D01*
X106651169Y-74160000D01*
X106562466Y-74142356D01*
X106289483Y-74029283D01*
X106043806Y-73865126D01*
X106043803Y-73865124D01*
X105834876Y-73656197D01*
X105670716Y-73410515D01*
X105557644Y-73137533D01*
X105500000Y-72847739D01*
X105500000Y-72552261D01*
X105557644Y-72262467D01*
X105670716Y-71989485D01*
X105697445Y-71949483D01*
X105834874Y-71743806D01*
X105834876Y-71743803D01*
X106043803Y-71534876D01*
X106103670Y-71494874D01*
X106289483Y-71370717D01*
X106562466Y-71257644D01*
X106659065Y-71238429D01*
X106852261Y-71200000D01*
X107147739Y-71200000D01*
X107340935Y-71238429D01*
X107340935Y-71238429D01*
G37*
G36*
X94840935Y-71198429D02*
X94937534Y-71217644D01*
X95210517Y-71330717D01*
X95270379Y-71370716D01*
X95456197Y-71494876D01*
X95665124Y-71703803D01*
X95665126Y-71703806D01*
X95829283Y-71949483D01*
X95942356Y-72222466D01*
X96000000Y-72512263D01*
X96000000Y-72807737D01*
X95942356Y-73097534D01*
X95829283Y-73370517D01*
X95667313Y-73612920D01*
X95665124Y-73616197D01*
X95456197Y-73825124D01*
X95456194Y-73825126D01*
X95210517Y-73989283D01*
X94937534Y-74102356D01*
X94840935Y-74121571D01*
X94647739Y-74160000D01*
X94352261Y-74160000D01*
X94159065Y-74121571D01*
X94062466Y-74102356D01*
X93789483Y-73989283D01*
X93543806Y-73825126D01*
X93543803Y-73825124D01*
X93334876Y-73616197D01*
X93332687Y-73612920D01*
X93170717Y-73370517D01*
X93057644Y-73097534D01*
X93000000Y-72807737D01*
X93000000Y-72512263D01*
X93057644Y-72222466D01*
X93170717Y-71949483D01*
X93334874Y-71703806D01*
X93334876Y-71703803D01*
X93543803Y-71494876D01*
X93729621Y-71370716D01*
X93789483Y-71330717D01*
X94062466Y-71217644D01*
X94159065Y-71198429D01*
X94352261Y-71160000D01*
X94647739Y-71160000D01*
X94840935Y-71198429D01*
X94840935Y-71198429D01*
G37*
G36*
X34840935Y-71198429D02*
X34937534Y-71217644D01*
X35210517Y-71330717D01*
X35270379Y-71370716D01*
X35456197Y-71494876D01*
X35665124Y-71703803D01*
X35665126Y-71703806D01*
X35829283Y-71949483D01*
X35942356Y-72222466D01*
X36000000Y-72512263D01*
X36000000Y-72807737D01*
X35942356Y-73097534D01*
X35829283Y-73370517D01*
X35667313Y-73612920D01*
X35665124Y-73616197D01*
X35456197Y-73825124D01*
X35456194Y-73825126D01*
X35210517Y-73989283D01*
X34937534Y-74102356D01*
X34840935Y-74121571D01*
X34647739Y-74160000D01*
X34352261Y-74160000D01*
X34159065Y-74121571D01*
X34062466Y-74102356D01*
X33789483Y-73989283D01*
X33543806Y-73825126D01*
X33543803Y-73825124D01*
X33334876Y-73616197D01*
X33332687Y-73612920D01*
X33170717Y-73370517D01*
X33057644Y-73097534D01*
X33000000Y-72807737D01*
X33000000Y-72512263D01*
X33057644Y-72222466D01*
X33170717Y-71949483D01*
X33334874Y-71703806D01*
X33334876Y-71703803D01*
X33543803Y-71494876D01*
X33729621Y-71370716D01*
X33789483Y-71330717D01*
X34062466Y-71217644D01*
X34159065Y-71198429D01*
X34352261Y-71160000D01*
X34647739Y-71160000D01*
X34840935Y-71198429D01*
X34840935Y-71198429D01*
G37*
G36*
X27340935Y-71198429D02*
X27437534Y-71217644D01*
X27710517Y-71330717D01*
X27770379Y-71370716D01*
X27956197Y-71494876D01*
X28165124Y-71703803D01*
X28165126Y-71703806D01*
X28329283Y-71949483D01*
X28442356Y-72222466D01*
X28500000Y-72512263D01*
X28500000Y-72807737D01*
X28442356Y-73097534D01*
X28329283Y-73370517D01*
X28167313Y-73612920D01*
X28165124Y-73616197D01*
X27956197Y-73825124D01*
X27956194Y-73825126D01*
X27710517Y-73989283D01*
X27437534Y-74102356D01*
X27340935Y-74121571D01*
X27147739Y-74160000D01*
X26852261Y-74160000D01*
X26659065Y-74121571D01*
X26562466Y-74102356D01*
X26289483Y-73989283D01*
X26043806Y-73825126D01*
X26043803Y-73825124D01*
X25834876Y-73616197D01*
X25832687Y-73612920D01*
X25670717Y-73370517D01*
X25557644Y-73097534D01*
X25500000Y-72807737D01*
X25500000Y-72512263D01*
X25557644Y-72222466D01*
X25670717Y-71949483D01*
X25834874Y-71703806D01*
X25834876Y-71703803D01*
X26043803Y-71494876D01*
X26229621Y-71370716D01*
X26289483Y-71330717D01*
X26562466Y-71217644D01*
X26659065Y-71198429D01*
X26852261Y-71160000D01*
X27147739Y-71160000D01*
X27340935Y-71198429D01*
X27340935Y-71198429D01*
G37*
G36*
X87340935Y-71198429D02*
X87437534Y-71217644D01*
X87710517Y-71330717D01*
X87770379Y-71370716D01*
X87956197Y-71494876D01*
X88165124Y-71703803D01*
X88165126Y-71703806D01*
X88329283Y-71949483D01*
X88442356Y-72222466D01*
X88500000Y-72512263D01*
X88500000Y-72807737D01*
X88442356Y-73097534D01*
X88329283Y-73370517D01*
X88167313Y-73612920D01*
X88165124Y-73616197D01*
X87956197Y-73825124D01*
X87956194Y-73825126D01*
X87710517Y-73989283D01*
X87437534Y-74102356D01*
X87340935Y-74121571D01*
X87147739Y-74160000D01*
X86852261Y-74160000D01*
X86659065Y-74121571D01*
X86562466Y-74102356D01*
X86289483Y-73989283D01*
X86043806Y-73825126D01*
X86043803Y-73825124D01*
X85834876Y-73616197D01*
X85832687Y-73612920D01*
X85670717Y-73370517D01*
X85557644Y-73097534D01*
X85500000Y-72807737D01*
X85500000Y-72512263D01*
X85557644Y-72222466D01*
X85670717Y-71949483D01*
X85834874Y-71703806D01*
X85834876Y-71703803D01*
X86043803Y-71494876D01*
X86229621Y-71370716D01*
X86289483Y-71330717D01*
X86562466Y-71217644D01*
X86659065Y-71198429D01*
X86852261Y-71160000D01*
X87147739Y-71160000D01*
X87340935Y-71198429D01*
X87340935Y-71198429D01*
G37*
G36*
X47340935Y-71198429D02*
X47437534Y-71217644D01*
X47710517Y-71330717D01*
X47770379Y-71370716D01*
X47956197Y-71494876D01*
X48165124Y-71703803D01*
X48165126Y-71703806D01*
X48329283Y-71949483D01*
X48442356Y-72222466D01*
X48500000Y-72512263D01*
X48500000Y-72807737D01*
X48442356Y-73097534D01*
X48329283Y-73370517D01*
X48167313Y-73612920D01*
X48165124Y-73616197D01*
X47956197Y-73825124D01*
X47956194Y-73825126D01*
X47710517Y-73989283D01*
X47437534Y-74102356D01*
X47340935Y-74121571D01*
X47147739Y-74160000D01*
X46852261Y-74160000D01*
X46659065Y-74121571D01*
X46562466Y-74102356D01*
X46289483Y-73989283D01*
X46043806Y-73825126D01*
X46043803Y-73825124D01*
X45834876Y-73616197D01*
X45832687Y-73612920D01*
X45670717Y-73370517D01*
X45557644Y-73097534D01*
X45500000Y-72807737D01*
X45500000Y-72512263D01*
X45557644Y-72222466D01*
X45670717Y-71949483D01*
X45834874Y-71703806D01*
X45834876Y-71703803D01*
X46043803Y-71494876D01*
X46229621Y-71370716D01*
X46289483Y-71330717D01*
X46562466Y-71217644D01*
X46659065Y-71198429D01*
X46852261Y-71160000D01*
X47147739Y-71160000D01*
X47340935Y-71198429D01*
X47340935Y-71198429D01*
G37*
G36*
X54840935Y-71198429D02*
X54937534Y-71217644D01*
X55210517Y-71330717D01*
X55270379Y-71370716D01*
X55456197Y-71494876D01*
X55665124Y-71703803D01*
X55665126Y-71703806D01*
X55829283Y-71949483D01*
X55942356Y-72222466D01*
X56000000Y-72512263D01*
X56000000Y-72807737D01*
X55942356Y-73097534D01*
X55829283Y-73370517D01*
X55667313Y-73612920D01*
X55665124Y-73616197D01*
X55456197Y-73825124D01*
X55456194Y-73825126D01*
X55210517Y-73989283D01*
X54937534Y-74102356D01*
X54840935Y-74121571D01*
X54647739Y-74160000D01*
X54352261Y-74160000D01*
X54159065Y-74121571D01*
X54062466Y-74102356D01*
X53789483Y-73989283D01*
X53543806Y-73825126D01*
X53543803Y-73825124D01*
X53334876Y-73616197D01*
X53332687Y-73612920D01*
X53170717Y-73370517D01*
X53057644Y-73097534D01*
X53000000Y-72807737D01*
X53000000Y-72512263D01*
X53057644Y-72222466D01*
X53170717Y-71949483D01*
X53334874Y-71703806D01*
X53334876Y-71703803D01*
X53543803Y-71494876D01*
X53729621Y-71370716D01*
X53789483Y-71330717D01*
X54062466Y-71217644D01*
X54159065Y-71198429D01*
X54352261Y-71160000D01*
X54647739Y-71160000D01*
X54840935Y-71198429D01*
X54840935Y-71198429D01*
G37*
G36*
X67340935Y-71198429D02*
X67437534Y-71217644D01*
X67710517Y-71330717D01*
X67770379Y-71370716D01*
X67956197Y-71494876D01*
X68165124Y-71703803D01*
X68165126Y-71703806D01*
X68329283Y-71949483D01*
X68442356Y-72222466D01*
X68500000Y-72512263D01*
X68500000Y-72807737D01*
X68442356Y-73097534D01*
X68329283Y-73370517D01*
X68167313Y-73612920D01*
X68165124Y-73616197D01*
X67956197Y-73825124D01*
X67956194Y-73825126D01*
X67710517Y-73989283D01*
X67437534Y-74102356D01*
X67340935Y-74121571D01*
X67147739Y-74160000D01*
X66852261Y-74160000D01*
X66659065Y-74121571D01*
X66562466Y-74102356D01*
X66289483Y-73989283D01*
X66043806Y-73825126D01*
X66043803Y-73825124D01*
X65834876Y-73616197D01*
X65832687Y-73612920D01*
X65670717Y-73370517D01*
X65557644Y-73097534D01*
X65500000Y-72807737D01*
X65500000Y-72512263D01*
X65557644Y-72222466D01*
X65670717Y-71949483D01*
X65834874Y-71703806D01*
X65834876Y-71703803D01*
X66043803Y-71494876D01*
X66229621Y-71370716D01*
X66289483Y-71330717D01*
X66562466Y-71217644D01*
X66659065Y-71198429D01*
X66852261Y-71160000D01*
X67147739Y-71160000D01*
X67340935Y-71198429D01*
X67340935Y-71198429D01*
G37*
G36*
X74840935Y-71198429D02*
X74937534Y-71217644D01*
X75210517Y-71330717D01*
X75270379Y-71370716D01*
X75456197Y-71494876D01*
X75665124Y-71703803D01*
X75665126Y-71703806D01*
X75829283Y-71949483D01*
X75942356Y-72222466D01*
X76000000Y-72512263D01*
X76000000Y-72807737D01*
X75942356Y-73097534D01*
X75829283Y-73370517D01*
X75667313Y-73612920D01*
X75665124Y-73616197D01*
X75456197Y-73825124D01*
X75456194Y-73825126D01*
X75210517Y-73989283D01*
X74937534Y-74102356D01*
X74840935Y-74121571D01*
X74647739Y-74160000D01*
X74352261Y-74160000D01*
X74159065Y-74121571D01*
X74062466Y-74102356D01*
X73789483Y-73989283D01*
X73543806Y-73825126D01*
X73543803Y-73825124D01*
X73334876Y-73616197D01*
X73332687Y-73612920D01*
X73170717Y-73370517D01*
X73057644Y-73097534D01*
X73000000Y-72807737D01*
X73000000Y-72512263D01*
X73057644Y-72222466D01*
X73170717Y-71949483D01*
X73334874Y-71703806D01*
X73334876Y-71703803D01*
X73543803Y-71494876D01*
X73729621Y-71370716D01*
X73789483Y-71330717D01*
X74062466Y-71217644D01*
X74159065Y-71198429D01*
X74352261Y-71160000D01*
X74647739Y-71160000D01*
X74840935Y-71198429D01*
X74840935Y-71198429D01*
G37*
G36*
X51440935Y-60788429D02*
X51537534Y-60807644D01*
X51810517Y-60920717D01*
X51972494Y-61028947D01*
X52056197Y-61084876D01*
X52265124Y-61293803D01*
X52429284Y-61539485D01*
X52542356Y-61812467D01*
X52600000Y-62102261D01*
X52600000Y-62397739D01*
X52542356Y-62687533D01*
X52429284Y-62960515D01*
X52265124Y-63206197D01*
X52056197Y-63415124D01*
X52056194Y-63415126D01*
X51810517Y-63579283D01*
X51537534Y-63692356D01*
X51440935Y-63711571D01*
X51247739Y-63750000D01*
X50952261Y-63750000D01*
X50759065Y-63711571D01*
X50662466Y-63692356D01*
X50389483Y-63579283D01*
X50143806Y-63415126D01*
X50143803Y-63415124D01*
X49934876Y-63206197D01*
X49770716Y-62960515D01*
X49657644Y-62687533D01*
X49600000Y-62397739D01*
X49600000Y-62102261D01*
X49657644Y-61812467D01*
X49770716Y-61539485D01*
X49934876Y-61293803D01*
X50143803Y-61084876D01*
X50227506Y-61028947D01*
X50389483Y-60920717D01*
X50662466Y-60807644D01*
X50759065Y-60788429D01*
X50952261Y-60750000D01*
X51247739Y-60750000D01*
X51440935Y-60788429D01*
X51440935Y-60788429D01*
G37*
G36*
X43940935Y-60788429D02*
X44037534Y-60807644D01*
X44310517Y-60920717D01*
X44472494Y-61028947D01*
X44556197Y-61084876D01*
X44765124Y-61293803D01*
X44929284Y-61539485D01*
X45042356Y-61812467D01*
X45100000Y-62102261D01*
X45100000Y-62397739D01*
X45042356Y-62687533D01*
X44929284Y-62960515D01*
X44765124Y-63206197D01*
X44556197Y-63415124D01*
X44556194Y-63415126D01*
X44310517Y-63579283D01*
X44037534Y-63692356D01*
X43940935Y-63711571D01*
X43747739Y-63750000D01*
X43452261Y-63750000D01*
X43259065Y-63711571D01*
X43162466Y-63692356D01*
X42889483Y-63579283D01*
X42643806Y-63415126D01*
X42643803Y-63415124D01*
X42434876Y-63206197D01*
X42270716Y-62960515D01*
X42157644Y-62687533D01*
X42100000Y-62397739D01*
X42100000Y-62102261D01*
X42157644Y-61812467D01*
X42270716Y-61539485D01*
X42434876Y-61293803D01*
X42643803Y-61084876D01*
X42727506Y-61028947D01*
X42889483Y-60920717D01*
X43162466Y-60807644D01*
X43259065Y-60788429D01*
X43452261Y-60750000D01*
X43747739Y-60750000D01*
X43940935Y-60788429D01*
X43940935Y-60788429D01*
G37*
G36*
X24396849Y-54867226D02*
X24918821Y-54971052D01*
X25492085Y-55208506D01*
X26008008Y-55553235D01*
X26446765Y-55991992D01*
X26791494Y-56507915D01*
X27028948Y-57081179D01*
X27150000Y-57689752D01*
X27150000Y-58310248D01*
X27028948Y-58918821D01*
X26791494Y-59492085D01*
X26446765Y-60008008D01*
X26008008Y-60446765D01*
X25492085Y-60791494D01*
X24918821Y-61028948D01*
X24396849Y-61132774D01*
X24310249Y-61150000D01*
X23689751Y-61150000D01*
X23603151Y-61132774D01*
X23081179Y-61028948D01*
X22507915Y-60791494D01*
X21991992Y-60446765D01*
X21553235Y-60008008D01*
X21208506Y-59492085D01*
X20971052Y-58918821D01*
X20850000Y-58310248D01*
X20850000Y-57689752D01*
X20971052Y-57081179D01*
X21208506Y-56507915D01*
X21553235Y-55991992D01*
X21991992Y-55553235D01*
X22507915Y-55208506D01*
X23081179Y-54971052D01*
X23603151Y-54867226D01*
X23689751Y-54850000D01*
X24310249Y-54850000D01*
X24396849Y-54867226D01*
X24396849Y-54867226D01*
G37*
G36*
X113275012Y-58923057D02*
X113384207Y-58968287D01*
X113482481Y-59033952D01*
X113566048Y-59117519D01*
X113631713Y-59215793D01*
X113676943Y-59324988D01*
X113700000Y-59440904D01*
X113700000Y-59559096D01*
X113676943Y-59675012D01*
X113631713Y-59784207D01*
X113566048Y-59882481D01*
X113482481Y-59966048D01*
X113384207Y-60031713D01*
X113275012Y-60076943D01*
X113159096Y-60100000D01*
X113040904Y-60100000D01*
X112924988Y-60076943D01*
X112815793Y-60031713D01*
X112717519Y-59966048D01*
X112633952Y-59882481D01*
X112568287Y-59784207D01*
X112523057Y-59675012D01*
X112500000Y-59559096D01*
X112500000Y-59440904D01*
X112523057Y-59324988D01*
X112568287Y-59215793D01*
X112633952Y-59117519D01*
X112717519Y-59033952D01*
X112815793Y-58968287D01*
X112924988Y-58923057D01*
X113040904Y-58900000D01*
X113159096Y-58900000D01*
X113275012Y-58923057D01*
X113275012Y-58923057D01*
G37*
G36*
X111233352Y-57230743D02*
X111378941Y-57291048D01*
X111509973Y-57378601D01*
X111621399Y-57490027D01*
X111708952Y-57621059D01*
X111769257Y-57766648D01*
X111800000Y-57921205D01*
X111800000Y-58078795D01*
X111769257Y-58233352D01*
X111708952Y-58378941D01*
X111621399Y-58509973D01*
X111509973Y-58621399D01*
X111378941Y-58708952D01*
X111233352Y-58769257D01*
X111078795Y-58800000D01*
X110921205Y-58800000D01*
X110766648Y-58769257D01*
X110621059Y-58708952D01*
X110490027Y-58621399D01*
X110378601Y-58509973D01*
X110291048Y-58378941D01*
X110230743Y-58233352D01*
X110200000Y-58078795D01*
X110200000Y-57921205D01*
X110230743Y-57766648D01*
X110291048Y-57621059D01*
X110378601Y-57490027D01*
X110490027Y-57378601D01*
X110621059Y-57291048D01*
X110766648Y-57230743D01*
X110921205Y-57200000D01*
X111078795Y-57200000D01*
X111233352Y-57230743D01*
X111233352Y-57230743D01*
G37*
G36*
X43940935Y-55748429D02*
X44037534Y-55767644D01*
X44310517Y-55880717D01*
X44371111Y-55921205D01*
X44556197Y-56044876D01*
X44765124Y-56253803D01*
X44765126Y-56253806D01*
X44921926Y-56488472D01*
X44929284Y-56499485D01*
X44933627Y-56509970D01*
X45041027Y-56769257D01*
X45042356Y-56772467D01*
X45100000Y-57062261D01*
X45100000Y-57357739D01*
X45061571Y-57550935D01*
X45042356Y-57647534D01*
X44929283Y-57920517D01*
X44856431Y-58029547D01*
X44765124Y-58166197D01*
X44556197Y-58375124D01*
X44556194Y-58375126D01*
X44310517Y-58539283D01*
X44037534Y-58652356D01*
X43940935Y-58671571D01*
X43747739Y-58710000D01*
X43452261Y-58710000D01*
X43259065Y-58671571D01*
X43162466Y-58652356D01*
X42889483Y-58539283D01*
X42643806Y-58375126D01*
X42643803Y-58375124D01*
X42434876Y-58166197D01*
X42343569Y-58029547D01*
X42270717Y-57920517D01*
X42157644Y-57647534D01*
X42138429Y-57550935D01*
X42100000Y-57357739D01*
X42100000Y-57062261D01*
X42157644Y-56772467D01*
X42158974Y-56769257D01*
X42266373Y-56509970D01*
X42270716Y-56499485D01*
X42278075Y-56488472D01*
X42434874Y-56253806D01*
X42434876Y-56253803D01*
X42643803Y-56044876D01*
X42828889Y-55921205D01*
X42889483Y-55880717D01*
X43162466Y-55767644D01*
X43259065Y-55748429D01*
X43452261Y-55710000D01*
X43747739Y-55710000D01*
X43940935Y-55748429D01*
X43940935Y-55748429D01*
G37*
G36*
X51440935Y-55748429D02*
X51537534Y-55767644D01*
X51810517Y-55880717D01*
X51871111Y-55921205D01*
X52056197Y-56044876D01*
X52265124Y-56253803D01*
X52265126Y-56253806D01*
X52421926Y-56488472D01*
X52429284Y-56499485D01*
X52433627Y-56509970D01*
X52541027Y-56769257D01*
X52542356Y-56772467D01*
X52600000Y-57062261D01*
X52600000Y-57357739D01*
X52561571Y-57550935D01*
X52542356Y-57647534D01*
X52429283Y-57920517D01*
X52356431Y-58029547D01*
X52265124Y-58166197D01*
X52056197Y-58375124D01*
X52056194Y-58375126D01*
X51810517Y-58539283D01*
X51537534Y-58652356D01*
X51440935Y-58671571D01*
X51247739Y-58710000D01*
X50952261Y-58710000D01*
X50759065Y-58671571D01*
X50662466Y-58652356D01*
X50389483Y-58539283D01*
X50143806Y-58375126D01*
X50143803Y-58375124D01*
X49934876Y-58166197D01*
X49843569Y-58029547D01*
X49770717Y-57920517D01*
X49657644Y-57647534D01*
X49638429Y-57550935D01*
X49600000Y-57357739D01*
X49600000Y-57062261D01*
X49657644Y-56772467D01*
X49658974Y-56769257D01*
X49766373Y-56509970D01*
X49770716Y-56499485D01*
X49778075Y-56488472D01*
X49934874Y-56253806D01*
X49934876Y-56253803D01*
X50143803Y-56044876D01*
X50328889Y-55921205D01*
X50389483Y-55880717D01*
X50662466Y-55767644D01*
X50759065Y-55748429D01*
X50952261Y-55710000D01*
X51247739Y-55710000D01*
X51440935Y-55748429D01*
X51440935Y-55748429D01*
G37*
G36*
X111233352Y-55230743D02*
X111378941Y-55291048D01*
X111509973Y-55378601D01*
X111621399Y-55490027D01*
X111708952Y-55621059D01*
X111769257Y-55766648D01*
X111800000Y-55921205D01*
X111800000Y-56078795D01*
X111769257Y-56233352D01*
X111708952Y-56378941D01*
X111621399Y-56509973D01*
X111509973Y-56621399D01*
X111378941Y-56708952D01*
X111233352Y-56769257D01*
X111078795Y-56800000D01*
X110921205Y-56800000D01*
X110766648Y-56769257D01*
X110621059Y-56708952D01*
X110490027Y-56621399D01*
X110378601Y-56509973D01*
X110291048Y-56378941D01*
X110230743Y-56233352D01*
X110200000Y-56078795D01*
X110200000Y-55921205D01*
X110230743Y-55766648D01*
X110291048Y-55621059D01*
X110378601Y-55490027D01*
X110490027Y-55378601D01*
X110621059Y-55291048D01*
X110766648Y-55230743D01*
X110921205Y-55200000D01*
X111078795Y-55200000D01*
X111233352Y-55230743D01*
X111233352Y-55230743D01*
G37*
G36*
X113275012Y-53923057D02*
X113384207Y-53968287D01*
X113482481Y-54033952D01*
X113566048Y-54117519D01*
X113631713Y-54215793D01*
X113676943Y-54324988D01*
X113700000Y-54440904D01*
X113700000Y-54559096D01*
X113676943Y-54675012D01*
X113631713Y-54784207D01*
X113566048Y-54882481D01*
X113482481Y-54966048D01*
X113384207Y-55031713D01*
X113275012Y-55076943D01*
X113159096Y-55100000D01*
X113040904Y-55100000D01*
X112924988Y-55076943D01*
X112815793Y-55031713D01*
X112717519Y-54966048D01*
X112633952Y-54882481D01*
X112568287Y-54784207D01*
X112523057Y-54675012D01*
X112500000Y-54559096D01*
X112500000Y-54440904D01*
X112523057Y-54324988D01*
X112568287Y-54215793D01*
X112633952Y-54117519D01*
X112717519Y-54033952D01*
X112815793Y-53968287D01*
X112924988Y-53923057D01*
X113040904Y-53900000D01*
X113159096Y-53900000D01*
X113275012Y-53923057D01*
X113275012Y-53923057D01*
G37*
G36*
X113275012Y-51923057D02*
X113384207Y-51968287D01*
X113482481Y-52033952D01*
X113566048Y-52117519D01*
X113631713Y-52215793D01*
X113676943Y-52324988D01*
X113700000Y-52440904D01*
X113700000Y-52559096D01*
X113676943Y-52675012D01*
X113631713Y-52784207D01*
X113566048Y-52882481D01*
X113482481Y-52966048D01*
X113384207Y-53031713D01*
X113275012Y-53076943D01*
X113159096Y-53100000D01*
X113040904Y-53100000D01*
X112924988Y-53076943D01*
X112815793Y-53031713D01*
X112717519Y-52966048D01*
X112633952Y-52882481D01*
X112568287Y-52784207D01*
X112523057Y-52675012D01*
X112500000Y-52559096D01*
X112500000Y-52440904D01*
X112523057Y-52324988D01*
X112568287Y-52215793D01*
X112633952Y-52117519D01*
X112717519Y-52033952D01*
X112815793Y-51968287D01*
X112924988Y-51923057D01*
X113040904Y-51900000D01*
X113159096Y-51900000D01*
X113275012Y-51923057D01*
X113275012Y-51923057D01*
G37*
G36*
X34274612Y-50548037D02*
X34502096Y-50642264D01*
X34706831Y-50779064D01*
X34880936Y-50953169D01*
X35017736Y-51157904D01*
X35111963Y-51385388D01*
X35160000Y-51626885D01*
X35160000Y-51873115D01*
X35111963Y-52114612D01*
X35017736Y-52342096D01*
X34880936Y-52546831D01*
X34706831Y-52720936D01*
X34502096Y-52857736D01*
X34274612Y-52951963D01*
X34033115Y-53000000D01*
X33786885Y-53000000D01*
X33545388Y-52951963D01*
X33317904Y-52857736D01*
X33113169Y-52720936D01*
X32939064Y-52546831D01*
X32802264Y-52342096D01*
X32708037Y-52114612D01*
X32660000Y-51873115D01*
X32660000Y-51626885D01*
X32708037Y-51385388D01*
X32802264Y-51157904D01*
X32939064Y-50953169D01*
X33113169Y-50779064D01*
X33317904Y-50642264D01*
X33545388Y-50548037D01*
X33786885Y-50500000D01*
X34033115Y-50500000D01*
X34274612Y-50548037D01*
X34274612Y-50548037D01*
G37*
G36*
X37274612Y-50548037D02*
X37502096Y-50642264D01*
X37706831Y-50779064D01*
X37880936Y-50953169D01*
X38017736Y-51157904D01*
X38111963Y-51385388D01*
X38160000Y-51626885D01*
X38160000Y-51873115D01*
X38111963Y-52114612D01*
X38017736Y-52342096D01*
X37880936Y-52546831D01*
X37706831Y-52720936D01*
X37502096Y-52857736D01*
X37274612Y-52951963D01*
X37033115Y-53000000D01*
X36786885Y-53000000D01*
X36545388Y-52951963D01*
X36317904Y-52857736D01*
X36113169Y-52720936D01*
X35939064Y-52546831D01*
X35802264Y-52342096D01*
X35708037Y-52114612D01*
X35660000Y-51873115D01*
X35660000Y-51626885D01*
X35708037Y-51385388D01*
X35802264Y-51157904D01*
X35939064Y-50953169D01*
X36113169Y-50779064D01*
X36317904Y-50642264D01*
X36545388Y-50548037D01*
X36786885Y-50500000D01*
X37033115Y-50500000D01*
X37274612Y-50548037D01*
X37274612Y-50548037D01*
G37*
G36*
X111233352Y-50230743D02*
X111378941Y-50291048D01*
X111509973Y-50378601D01*
X111621399Y-50490027D01*
X111708952Y-50621059D01*
X111769257Y-50766648D01*
X111800000Y-50921205D01*
X111800000Y-51078795D01*
X111769257Y-51233352D01*
X111708952Y-51378941D01*
X111621399Y-51509973D01*
X111509973Y-51621399D01*
X111378941Y-51708952D01*
X111233352Y-51769257D01*
X111078795Y-51800000D01*
X110921205Y-51800000D01*
X110766648Y-51769257D01*
X110621059Y-51708952D01*
X110490027Y-51621399D01*
X110378601Y-51509973D01*
X110291048Y-51378941D01*
X110230743Y-51233352D01*
X110200000Y-51078795D01*
X110200000Y-50921205D01*
X110230743Y-50766648D01*
X110291048Y-50621059D01*
X110378601Y-50490027D01*
X110490027Y-50378601D01*
X110621059Y-50291048D01*
X110766648Y-50230743D01*
X110921205Y-50200000D01*
X111078795Y-50200000D01*
X111233352Y-50230743D01*
X111233352Y-50230743D01*
G37*
G36*
X43325000Y-51700000D02*
X42075000Y-51700000D01*
X42075000Y-48300000D01*
X43325000Y-48300000D01*
X43325000Y-51700000D01*
X43325000Y-51700000D01*
G37*
G36*
X49425000Y-51700000D02*
X48175000Y-51700000D01*
X48175000Y-48300000D01*
X49425000Y-48300000D01*
X49425000Y-51700000D01*
X49425000Y-51700000D01*
G37*
G36*
X26220620Y-48490027D02*
X26444534Y-48534566D01*
X26721885Y-48649449D01*
X26971496Y-48816234D01*
X27183766Y-49028504D01*
X27183768Y-49028507D01*
X27350551Y-49278115D01*
X27465434Y-49555466D01*
X27524000Y-49849899D01*
X27524000Y-50150101D01*
X27465434Y-50444534D01*
X27383531Y-50642264D01*
X27350551Y-50721885D01*
X27183766Y-50971496D01*
X26971496Y-51183766D01*
X26971493Y-51183768D01*
X26721885Y-51350551D01*
X26444534Y-51465434D01*
X26248245Y-51504478D01*
X26150102Y-51524000D01*
X25849898Y-51524000D01*
X25751755Y-51504478D01*
X25555466Y-51465434D01*
X25278115Y-51350551D01*
X25028507Y-51183768D01*
X25028504Y-51183766D01*
X24816234Y-50971496D01*
X24649449Y-50721885D01*
X24616469Y-50642264D01*
X24534566Y-50444534D01*
X24476000Y-50150101D01*
X24476000Y-49849899D01*
X24534566Y-49555466D01*
X24649449Y-49278115D01*
X24816232Y-49028507D01*
X24816234Y-49028504D01*
X25028504Y-48816234D01*
X25278115Y-48649449D01*
X25555466Y-48534566D01*
X25779380Y-48490027D01*
X25849898Y-48476000D01*
X26150102Y-48476000D01*
X26220620Y-48490027D01*
X26220620Y-48490027D01*
G37*
G36*
X111233352Y-48230743D02*
X111378941Y-48291048D01*
X111509973Y-48378601D01*
X111621399Y-48490027D01*
X111708952Y-48621059D01*
X111769257Y-48766648D01*
X111800000Y-48921205D01*
X111800000Y-49078795D01*
X111769257Y-49233352D01*
X111708952Y-49378941D01*
X111621399Y-49509973D01*
X111509973Y-49621399D01*
X111378941Y-49708952D01*
X111233352Y-49769257D01*
X111078795Y-49800000D01*
X110921205Y-49800000D01*
X110766648Y-49769257D01*
X110621059Y-49708952D01*
X110490027Y-49621399D01*
X110378601Y-49509973D01*
X110291048Y-49378941D01*
X110230743Y-49233352D01*
X110200000Y-49078795D01*
X110200000Y-48921205D01*
X110230743Y-48766648D01*
X110291048Y-48621059D01*
X110378601Y-48490027D01*
X110490027Y-48378601D01*
X110621059Y-48291048D01*
X110766648Y-48230743D01*
X110921205Y-48200000D01*
X111078795Y-48200000D01*
X111233352Y-48230743D01*
X111233352Y-48230743D01*
G37*
G36*
X37274612Y-47048037D02*
X37502096Y-47142264D01*
X37706831Y-47279064D01*
X37880936Y-47453169D01*
X38017736Y-47657904D01*
X38111963Y-47885388D01*
X38160000Y-48126885D01*
X38160000Y-48373115D01*
X38111963Y-48614612D01*
X38017736Y-48842096D01*
X37880936Y-49046831D01*
X37706831Y-49220936D01*
X37502096Y-49357736D01*
X37274612Y-49451963D01*
X37033115Y-49500000D01*
X36786885Y-49500000D01*
X36545388Y-49451963D01*
X36317904Y-49357736D01*
X36113169Y-49220936D01*
X35939064Y-49046831D01*
X35802264Y-48842096D01*
X35708037Y-48614612D01*
X35660000Y-48373115D01*
X35660000Y-48126885D01*
X35708037Y-47885388D01*
X35802264Y-47657904D01*
X35939064Y-47453169D01*
X36113169Y-47279064D01*
X36317904Y-47142264D01*
X36545388Y-47048037D01*
X36786885Y-47000000D01*
X37033115Y-47000000D01*
X37274612Y-47048037D01*
X37274612Y-47048037D01*
G37*
G36*
X34274612Y-47048037D02*
X34502096Y-47142264D01*
X34706831Y-47279064D01*
X34880936Y-47453169D01*
X35017736Y-47657904D01*
X35111963Y-47885388D01*
X35160000Y-48126885D01*
X35160000Y-48373115D01*
X35111963Y-48614612D01*
X35017736Y-48842096D01*
X34880936Y-49046831D01*
X34706831Y-49220936D01*
X34502096Y-49357736D01*
X34274612Y-49451963D01*
X34033115Y-49500000D01*
X33786885Y-49500000D01*
X33545388Y-49451963D01*
X33317904Y-49357736D01*
X33113169Y-49220936D01*
X32939064Y-49046831D01*
X32802264Y-48842096D01*
X32708037Y-48614612D01*
X32660000Y-48373115D01*
X32660000Y-48126885D01*
X32708037Y-47885388D01*
X32802264Y-47657904D01*
X32939064Y-47453169D01*
X33113169Y-47279064D01*
X33317904Y-47142264D01*
X33545388Y-47048037D01*
X33786885Y-47000000D01*
X34033115Y-47000000D01*
X34274612Y-47048037D01*
X34274612Y-47048037D01*
G37*
G36*
X111233352Y-46230743D02*
X111378941Y-46291048D01*
X111509973Y-46378601D01*
X111621399Y-46490027D01*
X111708952Y-46621059D01*
X111769257Y-46766648D01*
X111800000Y-46921205D01*
X111800000Y-47078795D01*
X111769257Y-47233352D01*
X111708952Y-47378941D01*
X111621399Y-47509973D01*
X111509973Y-47621399D01*
X111378941Y-47708952D01*
X111233352Y-47769257D01*
X111078795Y-47800000D01*
X110921205Y-47800000D01*
X110766648Y-47769257D01*
X110621059Y-47708952D01*
X110490027Y-47621399D01*
X110378601Y-47509973D01*
X110291048Y-47378941D01*
X110230743Y-47233352D01*
X110200000Y-47078795D01*
X110200000Y-46921205D01*
X110230743Y-46766648D01*
X110291048Y-46621059D01*
X110378601Y-46490027D01*
X110490027Y-46378601D01*
X110621059Y-46291048D01*
X110766648Y-46230743D01*
X110921205Y-46200000D01*
X111078795Y-46200000D01*
X111233352Y-46230743D01*
X111233352Y-46230743D01*
G37*
G36*
X31700000Y-47375000D02*
X29900000Y-47375000D01*
X29900000Y-46225000D01*
X31700000Y-46225000D01*
X31700000Y-47375000D01*
X31700000Y-47375000D01*
G37*
G36*
X44275000Y-46250000D02*
X42825000Y-46250000D01*
X42825000Y-43950000D01*
X44275000Y-43950000D01*
X44275000Y-46250000D01*
X44275000Y-46250000D01*
G37*
G36*
X48675000Y-46250000D02*
X47225000Y-46250000D01*
X47225000Y-43950000D01*
X48675000Y-43950000D01*
X48675000Y-46250000D01*
X48675000Y-46250000D01*
G37*
G36*
X113275012Y-44923057D02*
X113384207Y-44968287D01*
X113482481Y-45033952D01*
X113566048Y-45117519D01*
X113631713Y-45215793D01*
X113676943Y-45324988D01*
X113700000Y-45440904D01*
X113700000Y-45559096D01*
X113676943Y-45675012D01*
X113631713Y-45784207D01*
X113566048Y-45882481D01*
X113482481Y-45966048D01*
X113384207Y-46031713D01*
X113275012Y-46076943D01*
X113159096Y-46100000D01*
X113040904Y-46100000D01*
X112924988Y-46076943D01*
X112815793Y-46031713D01*
X112717519Y-45966048D01*
X112633952Y-45882481D01*
X112568287Y-45784207D01*
X112523057Y-45675012D01*
X112500000Y-45559096D01*
X112500000Y-45440904D01*
X112523057Y-45324988D01*
X112568287Y-45215793D01*
X112633952Y-45117519D01*
X112717519Y-45033952D01*
X112815793Y-44968287D01*
X112924988Y-44923057D01*
X113040904Y-44900000D01*
X113159096Y-44900000D01*
X113275012Y-44923057D01*
X113275012Y-44923057D01*
G37*
G36*
X31700000Y-44375000D02*
X29900000Y-44375000D01*
X29900000Y-43225000D01*
X31700000Y-43225000D01*
X31700000Y-44375000D01*
X31700000Y-44375000D01*
G37*
G36*
X113275012Y-42923057D02*
X113384207Y-42968287D01*
X113482481Y-43033952D01*
X113566048Y-43117519D01*
X113631713Y-43215793D01*
X113676943Y-43324988D01*
X113700000Y-43440904D01*
X113700000Y-43559096D01*
X113676943Y-43675012D01*
X113631713Y-43784207D01*
X113566048Y-43882481D01*
X113482481Y-43966048D01*
X113384207Y-44031713D01*
X113275012Y-44076943D01*
X113159096Y-44100000D01*
X113040904Y-44100000D01*
X112924988Y-44076943D01*
X112815793Y-44031713D01*
X112717519Y-43966048D01*
X112633952Y-43882481D01*
X112568287Y-43784207D01*
X112523057Y-43675012D01*
X112500000Y-43559096D01*
X112500000Y-43440904D01*
X112523057Y-43324988D01*
X112568287Y-43215793D01*
X112633952Y-43117519D01*
X112717519Y-43033952D01*
X112815793Y-42968287D01*
X112924988Y-42923057D01*
X113040904Y-42900000D01*
X113159096Y-42900000D01*
X113275012Y-42923057D01*
X113275012Y-42923057D01*
G37*
G36*
X37274612Y-40548037D02*
X37502096Y-40642264D01*
X37706831Y-40779064D01*
X37880936Y-40953169D01*
X38017736Y-41157904D01*
X38111963Y-41385388D01*
X38160000Y-41626885D01*
X38160000Y-41873115D01*
X38111963Y-42114612D01*
X38017736Y-42342096D01*
X37880936Y-42546831D01*
X37706831Y-42720936D01*
X37502096Y-42857736D01*
X37274612Y-42951963D01*
X37033115Y-43000000D01*
X36786885Y-43000000D01*
X36545388Y-42951963D01*
X36317904Y-42857736D01*
X36113169Y-42720936D01*
X35939064Y-42546831D01*
X35802264Y-42342096D01*
X35708037Y-42114612D01*
X35660000Y-41873115D01*
X35660000Y-41626885D01*
X35708037Y-41385388D01*
X35802264Y-41157904D01*
X35939064Y-40953169D01*
X36113169Y-40779064D01*
X36317904Y-40642264D01*
X36545388Y-40548037D01*
X36786885Y-40500000D01*
X37033115Y-40500000D01*
X37274612Y-40548037D01*
X37274612Y-40548037D01*
G37*
G36*
X34274612Y-40548037D02*
X34502096Y-40642264D01*
X34706831Y-40779064D01*
X34880936Y-40953169D01*
X35017736Y-41157904D01*
X35111963Y-41385388D01*
X35160000Y-41626885D01*
X35160000Y-41873115D01*
X35111963Y-42114612D01*
X35017736Y-42342096D01*
X34880936Y-42546831D01*
X34706831Y-42720936D01*
X34502096Y-42857736D01*
X34274612Y-42951963D01*
X34033115Y-43000000D01*
X33786885Y-43000000D01*
X33545388Y-42951963D01*
X33317904Y-42857736D01*
X33113169Y-42720936D01*
X32939064Y-42546831D01*
X32802264Y-42342096D01*
X32708037Y-42114612D01*
X32660000Y-41873115D01*
X32660000Y-41626885D01*
X32708037Y-41385388D01*
X32802264Y-41157904D01*
X32939064Y-40953169D01*
X33113169Y-40779064D01*
X33317904Y-40642264D01*
X33545388Y-40548037D01*
X33786885Y-40500000D01*
X34033115Y-40500000D01*
X34274612Y-40548037D01*
X34274612Y-40548037D01*
G37*
G36*
X111233352Y-41230743D02*
X111378941Y-41291048D01*
X111509973Y-41378601D01*
X111621399Y-41490027D01*
X111708952Y-41621059D01*
X111769257Y-41766648D01*
X111800000Y-41921205D01*
X111800000Y-42078795D01*
X111769257Y-42233352D01*
X111708952Y-42378941D01*
X111621399Y-42509973D01*
X111509973Y-42621399D01*
X111378941Y-42708952D01*
X111233352Y-42769257D01*
X111078795Y-42800000D01*
X110921205Y-42800000D01*
X110766648Y-42769257D01*
X110621059Y-42708952D01*
X110490027Y-42621399D01*
X110378601Y-42509973D01*
X110291048Y-42378941D01*
X110230743Y-42233352D01*
X110200000Y-42078795D01*
X110200000Y-41921205D01*
X110230743Y-41766648D01*
X110291048Y-41621059D01*
X110378601Y-41490027D01*
X110490027Y-41378601D01*
X110621059Y-41291048D01*
X110766648Y-41230743D01*
X110921205Y-41200000D01*
X111078795Y-41200000D01*
X111233352Y-41230743D01*
X111233352Y-41230743D01*
G37*
G36*
X26248245Y-38495522D02*
X26444534Y-38534566D01*
X26654171Y-38621401D01*
X26721885Y-38649449D01*
X26971496Y-38816234D01*
X27183766Y-39028504D01*
X27183768Y-39028507D01*
X27350551Y-39278115D01*
X27465434Y-39555466D01*
X27524000Y-39849899D01*
X27524000Y-40150101D01*
X27465434Y-40444534D01*
X27438329Y-40509970D01*
X27350551Y-40721885D01*
X27183766Y-40971496D01*
X26971496Y-41183766D01*
X26971493Y-41183768D01*
X26721885Y-41350551D01*
X26444534Y-41465434D01*
X26248245Y-41504478D01*
X26150102Y-41524000D01*
X25849898Y-41524000D01*
X25751755Y-41504478D01*
X25555466Y-41465434D01*
X25278115Y-41350551D01*
X25028507Y-41183768D01*
X25028504Y-41183766D01*
X24816234Y-40971496D01*
X24649449Y-40721885D01*
X24561671Y-40509970D01*
X24534566Y-40444534D01*
X24476000Y-40150101D01*
X24476000Y-39849899D01*
X24534566Y-39555466D01*
X24649449Y-39278115D01*
X24816232Y-39028507D01*
X24816234Y-39028504D01*
X25028504Y-38816234D01*
X25278115Y-38649449D01*
X25345829Y-38621401D01*
X25555466Y-38534566D01*
X25751755Y-38495522D01*
X25849898Y-38476000D01*
X26150102Y-38476000D01*
X26248245Y-38495522D01*
X26248245Y-38495522D01*
G37*
G36*
X111233352Y-39230743D02*
X111378941Y-39291048D01*
X111509973Y-39378601D01*
X111621399Y-39490027D01*
X111708952Y-39621059D01*
X111769257Y-39766648D01*
X111800000Y-39921205D01*
X111800000Y-40078795D01*
X111769257Y-40233352D01*
X111708952Y-40378941D01*
X111621399Y-40509973D01*
X111509973Y-40621399D01*
X111378941Y-40708952D01*
X111233352Y-40769257D01*
X111078795Y-40800000D01*
X110921205Y-40800000D01*
X110766648Y-40769257D01*
X110621059Y-40708952D01*
X110490027Y-40621399D01*
X110378601Y-40509973D01*
X110291048Y-40378941D01*
X110230743Y-40233352D01*
X110200000Y-40078795D01*
X110200000Y-39921205D01*
X110230743Y-39766648D01*
X110291048Y-39621059D01*
X110378601Y-39490027D01*
X110490027Y-39378601D01*
X110621059Y-39291048D01*
X110766648Y-39230743D01*
X110921205Y-39200000D01*
X111078795Y-39200000D01*
X111233352Y-39230743D01*
X111233352Y-39230743D01*
G37*
G36*
X37274612Y-37048037D02*
X37502096Y-37142264D01*
X37706831Y-37279064D01*
X37880936Y-37453169D01*
X38017736Y-37657904D01*
X38111963Y-37885388D01*
X38160000Y-38126885D01*
X38160000Y-38373115D01*
X38111963Y-38614612D01*
X38017736Y-38842096D01*
X37880936Y-39046831D01*
X37706831Y-39220936D01*
X37502096Y-39357736D01*
X37274612Y-39451963D01*
X37033115Y-39500000D01*
X36786885Y-39500000D01*
X36545388Y-39451963D01*
X36317904Y-39357736D01*
X36113169Y-39220936D01*
X35939064Y-39046831D01*
X35802264Y-38842096D01*
X35708037Y-38614612D01*
X35660000Y-38373115D01*
X35660000Y-38126885D01*
X35708037Y-37885388D01*
X35802264Y-37657904D01*
X35939064Y-37453169D01*
X36113169Y-37279064D01*
X36317904Y-37142264D01*
X36545388Y-37048037D01*
X36786885Y-37000000D01*
X37033115Y-37000000D01*
X37274612Y-37048037D01*
X37274612Y-37048037D01*
G37*
G36*
X34274612Y-37048037D02*
X34502096Y-37142264D01*
X34706831Y-37279064D01*
X34880936Y-37453169D01*
X35017736Y-37657904D01*
X35111963Y-37885388D01*
X35160000Y-38126885D01*
X35160000Y-38373115D01*
X35111963Y-38614612D01*
X35017736Y-38842096D01*
X34880936Y-39046831D01*
X34706831Y-39220936D01*
X34502096Y-39357736D01*
X34274612Y-39451963D01*
X34033115Y-39500000D01*
X33786885Y-39500000D01*
X33545388Y-39451963D01*
X33317904Y-39357736D01*
X33113169Y-39220936D01*
X32939064Y-39046831D01*
X32802264Y-38842096D01*
X32708037Y-38614612D01*
X32660000Y-38373115D01*
X32660000Y-38126885D01*
X32708037Y-37885388D01*
X32802264Y-37657904D01*
X32939064Y-37453169D01*
X33113169Y-37279064D01*
X33317904Y-37142264D01*
X33545388Y-37048037D01*
X33786885Y-37000000D01*
X34033115Y-37000000D01*
X34274612Y-37048037D01*
X34274612Y-37048037D01*
G37*
G36*
X111233352Y-37230743D02*
X111378941Y-37291048D01*
X111509973Y-37378601D01*
X111621399Y-37490027D01*
X111708952Y-37621059D01*
X111769257Y-37766648D01*
X111800000Y-37921205D01*
X111800000Y-38078795D01*
X111769257Y-38233352D01*
X111708952Y-38378941D01*
X111621399Y-38509973D01*
X111509973Y-38621399D01*
X111378941Y-38708952D01*
X111233352Y-38769257D01*
X111078795Y-38800000D01*
X110921205Y-38800000D01*
X110766648Y-38769257D01*
X110621059Y-38708952D01*
X110490027Y-38621399D01*
X110378601Y-38509973D01*
X110291048Y-38378941D01*
X110230743Y-38233352D01*
X110200000Y-38078795D01*
X110200000Y-37921205D01*
X110230743Y-37766648D01*
X110291048Y-37621059D01*
X110378601Y-37490027D01*
X110490027Y-37378601D01*
X110621059Y-37291048D01*
X110766648Y-37230743D01*
X110921205Y-37200000D01*
X111078795Y-37200000D01*
X111233352Y-37230743D01*
X111233352Y-37230743D01*
G37*
G36*
X43940935Y-35448429D02*
X44037534Y-35467644D01*
X44310517Y-35580717D01*
X44552920Y-35742687D01*
X44556197Y-35744876D01*
X44765124Y-35953803D01*
X44765126Y-35953806D01*
X44929283Y-36199483D01*
X45042356Y-36472466D01*
X45059588Y-36559096D01*
X45100000Y-36762261D01*
X45100000Y-37057739D01*
X45071702Y-37200000D01*
X45042356Y-37347534D01*
X44929283Y-37620517D01*
X44831641Y-37766648D01*
X44765124Y-37866197D01*
X44556197Y-38075124D01*
X44556194Y-38075126D01*
X44310517Y-38239283D01*
X44037534Y-38352356D01*
X43940935Y-38371571D01*
X43747739Y-38410000D01*
X43452261Y-38410000D01*
X43259065Y-38371571D01*
X43162466Y-38352356D01*
X42889483Y-38239283D01*
X42643806Y-38075126D01*
X42643803Y-38075124D01*
X42434876Y-37866197D01*
X42368359Y-37766648D01*
X42270717Y-37620517D01*
X42157644Y-37347534D01*
X42128298Y-37200000D01*
X42100000Y-37057739D01*
X42100000Y-36762261D01*
X42140412Y-36559096D01*
X42157644Y-36472466D01*
X42270717Y-36199483D01*
X42434874Y-35953806D01*
X42434876Y-35953803D01*
X42643803Y-35744876D01*
X42647080Y-35742687D01*
X42889483Y-35580717D01*
X43162466Y-35467644D01*
X43259065Y-35448429D01*
X43452261Y-35410000D01*
X43747739Y-35410000D01*
X43940935Y-35448429D01*
X43940935Y-35448429D01*
G37*
G36*
X51440935Y-35448429D02*
X51537534Y-35467644D01*
X51810517Y-35580717D01*
X52052920Y-35742687D01*
X52056197Y-35744876D01*
X52265124Y-35953803D01*
X52265126Y-35953806D01*
X52429283Y-36199483D01*
X52542356Y-36472466D01*
X52559588Y-36559096D01*
X52600000Y-36762261D01*
X52600000Y-37057739D01*
X52571702Y-37200000D01*
X52542356Y-37347534D01*
X52429283Y-37620517D01*
X52331641Y-37766648D01*
X52265124Y-37866197D01*
X52056197Y-38075124D01*
X52056194Y-38075126D01*
X51810517Y-38239283D01*
X51537534Y-38352356D01*
X51440935Y-38371571D01*
X51247739Y-38410000D01*
X50952261Y-38410000D01*
X50759065Y-38371571D01*
X50662466Y-38352356D01*
X50389483Y-38239283D01*
X50143806Y-38075126D01*
X50143803Y-38075124D01*
X49934876Y-37866197D01*
X49868359Y-37766648D01*
X49770717Y-37620517D01*
X49657644Y-37347534D01*
X49628298Y-37200000D01*
X49600000Y-37057739D01*
X49600000Y-36762261D01*
X49640412Y-36559096D01*
X49657644Y-36472466D01*
X49770717Y-36199483D01*
X49934874Y-35953806D01*
X49934876Y-35953803D01*
X50143803Y-35744876D01*
X50147080Y-35742687D01*
X50389483Y-35580717D01*
X50662466Y-35467644D01*
X50759065Y-35448429D01*
X50952261Y-35410000D01*
X51247739Y-35410000D01*
X51440935Y-35448429D01*
X51440935Y-35448429D01*
G37*
G36*
X113275012Y-35923057D02*
X113384207Y-35968287D01*
X113482481Y-36033952D01*
X113566048Y-36117519D01*
X113631713Y-36215793D01*
X113676943Y-36324988D01*
X113700000Y-36440904D01*
X113700000Y-36559096D01*
X113676943Y-36675012D01*
X113631713Y-36784207D01*
X113566048Y-36882481D01*
X113482481Y-36966048D01*
X113384207Y-37031713D01*
X113275012Y-37076943D01*
X113159096Y-37100000D01*
X113040904Y-37100000D01*
X112924988Y-37076943D01*
X112815793Y-37031713D01*
X112717519Y-36966048D01*
X112633952Y-36882481D01*
X112568287Y-36784207D01*
X112523057Y-36675012D01*
X112500000Y-36559096D01*
X112500000Y-36440904D01*
X112523057Y-36324988D01*
X112568287Y-36215793D01*
X112633952Y-36117519D01*
X112717519Y-36033952D01*
X112815793Y-35968287D01*
X112924988Y-35923057D01*
X113040904Y-35900000D01*
X113159096Y-35900000D01*
X113275012Y-35923057D01*
X113275012Y-35923057D01*
G37*
G36*
X27075012Y-32923057D02*
X27184207Y-32968287D01*
X27282481Y-33033952D01*
X27366048Y-33117519D01*
X27431713Y-33215793D01*
X27476943Y-33324988D01*
X27500000Y-33440904D01*
X27500000Y-33559096D01*
X27476943Y-33675012D01*
X27431713Y-33784207D01*
X27366048Y-33882481D01*
X27282481Y-33966048D01*
X27184207Y-34031713D01*
X27075012Y-34076943D01*
X26959096Y-34100000D01*
X26840904Y-34100000D01*
X26724988Y-34076943D01*
X26615793Y-34031713D01*
X26517519Y-33966048D01*
X26433952Y-33882481D01*
X26368287Y-33784207D01*
X26323057Y-33675012D01*
X26300000Y-33559096D01*
X26300000Y-33440904D01*
X26323057Y-33324988D01*
X26368287Y-33215793D01*
X26433952Y-33117519D01*
X26517519Y-33033952D01*
X26615793Y-32968287D01*
X26724988Y-32923057D01*
X26840904Y-32900000D01*
X26959096Y-32900000D01*
X27075012Y-32923057D01*
X27075012Y-32923057D01*
G37*
G36*
X29233352Y-31230743D02*
X29378941Y-31291048D01*
X29509973Y-31378601D01*
X29621399Y-31490027D01*
X29708952Y-31621059D01*
X29769257Y-31766648D01*
X29800000Y-31921205D01*
X29800000Y-32078795D01*
X29769257Y-32233352D01*
X29708952Y-32378941D01*
X29621399Y-32509973D01*
X29509973Y-32621399D01*
X29378941Y-32708952D01*
X29233352Y-32769257D01*
X29078795Y-32800000D01*
X28921205Y-32800000D01*
X28766648Y-32769257D01*
X28621059Y-32708952D01*
X28490027Y-32621399D01*
X28378601Y-32509973D01*
X28291048Y-32378941D01*
X28230743Y-32233352D01*
X28200000Y-32078795D01*
X28200000Y-31921205D01*
X28230743Y-31766648D01*
X28291048Y-31621059D01*
X28378601Y-31490027D01*
X28490027Y-31378601D01*
X28621059Y-31291048D01*
X28766648Y-31230743D01*
X28921205Y-31200000D01*
X29078795Y-31200000D01*
X29233352Y-31230743D01*
X29233352Y-31230743D01*
G37*
G36*
X29233352Y-29230743D02*
X29378941Y-29291048D01*
X29509973Y-29378601D01*
X29621399Y-29490027D01*
X29708952Y-29621059D01*
X29769257Y-29766648D01*
X29800000Y-29921205D01*
X29800000Y-30078795D01*
X29769257Y-30233352D01*
X29708952Y-30378941D01*
X29621399Y-30509973D01*
X29509973Y-30621399D01*
X29378941Y-30708952D01*
X29233352Y-30769257D01*
X29078795Y-30800000D01*
X28921205Y-30800000D01*
X28766648Y-30769257D01*
X28621059Y-30708952D01*
X28490027Y-30621399D01*
X28378601Y-30509973D01*
X28291048Y-30378941D01*
X28230743Y-30233352D01*
X28200000Y-30078795D01*
X28200000Y-29921205D01*
X28230743Y-29766648D01*
X28291048Y-29621059D01*
X28378601Y-29490027D01*
X28490027Y-29378601D01*
X28621059Y-29291048D01*
X28766648Y-29230743D01*
X28921205Y-29200000D01*
X29078795Y-29200000D01*
X29233352Y-29230743D01*
X29233352Y-29230743D01*
G37*
G36*
X88605845Y-28130215D02*
X88696839Y-28167906D01*
X88768506Y-28215793D01*
X88778734Y-28222627D01*
X88848373Y-28292266D01*
X88903095Y-28374163D01*
X88940785Y-28465155D01*
X88960000Y-28561755D01*
X88960000Y-28660245D01*
X88940785Y-28756845D01*
X88903095Y-28847837D01*
X88848373Y-28929734D01*
X88778734Y-28999373D01*
X88778731Y-28999375D01*
X88696839Y-29054094D01*
X88605845Y-29091785D01*
X88509246Y-29111000D01*
X88410754Y-29111000D01*
X88314155Y-29091785D01*
X88223161Y-29054094D01*
X88141269Y-28999375D01*
X88141266Y-28999373D01*
X88071627Y-28929734D01*
X88016905Y-28847837D01*
X87979215Y-28756845D01*
X87960000Y-28660245D01*
X87960000Y-28561755D01*
X87979215Y-28465155D01*
X88016905Y-28374163D01*
X88071627Y-28292266D01*
X88141266Y-28222627D01*
X88151494Y-28215793D01*
X88223161Y-28167906D01*
X88314155Y-28130215D01*
X88410754Y-28111000D01*
X88509246Y-28111000D01*
X88605845Y-28130215D01*
X88605845Y-28130215D01*
G37*
G36*
X27075012Y-27923057D02*
X27184207Y-27968287D01*
X27282481Y-28033952D01*
X27366048Y-28117519D01*
X27431713Y-28215793D01*
X27476943Y-28324988D01*
X27500000Y-28440904D01*
X27500000Y-28559096D01*
X27476943Y-28675012D01*
X27431713Y-28784207D01*
X27366048Y-28882481D01*
X27282481Y-28966048D01*
X27184207Y-29031713D01*
X27075012Y-29076943D01*
X26959096Y-29100000D01*
X26840904Y-29100000D01*
X26724988Y-29076943D01*
X26615793Y-29031713D01*
X26517519Y-28966048D01*
X26433952Y-28882481D01*
X26368287Y-28784207D01*
X26323057Y-28675012D01*
X26300000Y-28559096D01*
X26300000Y-28440904D01*
X26323057Y-28324988D01*
X26368287Y-28215793D01*
X26433952Y-28117519D01*
X26517519Y-28033952D01*
X26615793Y-27968287D01*
X26724988Y-27923057D01*
X26840904Y-27900000D01*
X26959096Y-27900000D01*
X27075012Y-27923057D01*
X27075012Y-27923057D01*
G37*
G36*
X93685845Y-27114215D02*
X93776839Y-27151906D01*
X93857640Y-27205896D01*
X93858734Y-27206627D01*
X93928373Y-27276266D01*
X93983095Y-27358163D01*
X94020785Y-27449155D01*
X94040000Y-27545755D01*
X94040000Y-27644245D01*
X94020785Y-27740845D01*
X93983095Y-27831837D01*
X93928373Y-27913734D01*
X93858734Y-27983373D01*
X93858731Y-27983375D01*
X93776839Y-28038094D01*
X93685845Y-28075785D01*
X93589246Y-28095000D01*
X93490754Y-28095000D01*
X93394155Y-28075785D01*
X93303161Y-28038094D01*
X93221269Y-27983375D01*
X93221266Y-27983373D01*
X93151627Y-27913734D01*
X93096905Y-27831837D01*
X93059215Y-27740845D01*
X93040000Y-27644245D01*
X93040000Y-27545755D01*
X93059215Y-27449155D01*
X93096905Y-27358163D01*
X93151627Y-27276266D01*
X93221266Y-27206627D01*
X93222360Y-27205896D01*
X93303161Y-27151906D01*
X93394155Y-27114215D01*
X93490754Y-27095000D01*
X93589246Y-27095000D01*
X93685845Y-27114215D01*
X93685845Y-27114215D01*
G37*
G36*
X100396849Y-20867226D02*
X100918821Y-20971052D01*
X101492085Y-21208506D01*
X102008008Y-21553235D01*
X102446765Y-21991992D01*
X102791494Y-22507915D01*
X103028948Y-23081179D01*
X103150000Y-23689752D01*
X103150000Y-24310248D01*
X103028948Y-24918821D01*
X102791494Y-25492085D01*
X102446765Y-26008008D01*
X102008008Y-26446765D01*
X101492085Y-26791494D01*
X100918821Y-27028948D01*
X100396849Y-27132774D01*
X100310249Y-27150000D01*
X99689751Y-27150000D01*
X99603151Y-27132774D01*
X99081179Y-27028948D01*
X98507915Y-26791494D01*
X97991992Y-26446765D01*
X97553235Y-26008008D01*
X97208506Y-25492085D01*
X96971052Y-24918821D01*
X96850000Y-24310248D01*
X96850000Y-23689752D01*
X96971052Y-23081179D01*
X97208506Y-22507915D01*
X97553235Y-21991992D01*
X97991992Y-21553235D01*
X98507915Y-21208506D01*
X99081179Y-20971052D01*
X99603151Y-20867226D01*
X99689751Y-20850000D01*
X100310249Y-20850000D01*
X100396849Y-20867226D01*
X100396849Y-20867226D01*
G37*
G36*
X27075012Y-25923057D02*
X27184207Y-25968287D01*
X27282481Y-26033952D01*
X27366048Y-26117519D01*
X27431713Y-26215793D01*
X27476943Y-26324988D01*
X27500000Y-26440904D01*
X27500000Y-26559096D01*
X27476943Y-26675012D01*
X27431713Y-26784207D01*
X27366048Y-26882481D01*
X27282481Y-26966048D01*
X27184207Y-27031713D01*
X27075012Y-27076943D01*
X26959096Y-27100000D01*
X26840904Y-27100000D01*
X26724988Y-27076943D01*
X26615793Y-27031713D01*
X26517519Y-26966048D01*
X26433952Y-26882481D01*
X26368287Y-26784207D01*
X26323057Y-26675012D01*
X26300000Y-26559096D01*
X26300000Y-26440904D01*
X26323057Y-26324988D01*
X26368287Y-26215793D01*
X26433952Y-26117519D01*
X26517519Y-26033952D01*
X26615793Y-25968287D01*
X26724988Y-25923057D01*
X26840904Y-25900000D01*
X26959096Y-25900000D01*
X27075012Y-25923057D01*
X27075012Y-25923057D01*
G37*
G36*
X88605845Y-26098215D02*
X88696839Y-26135906D01*
X88777640Y-26189896D01*
X88778734Y-26190627D01*
X88848373Y-26260266D01*
X88848375Y-26260269D01*
X88903094Y-26342161D01*
X88940785Y-26433155D01*
X88960000Y-26529754D01*
X88960000Y-26628246D01*
X88950697Y-26675014D01*
X88940785Y-26724845D01*
X88903095Y-26815837D01*
X88848373Y-26897734D01*
X88778734Y-26967373D01*
X88778731Y-26967375D01*
X88696839Y-27022094D01*
X88696838Y-27022095D01*
X88696837Y-27022095D01*
X88680292Y-27028948D01*
X88605845Y-27059785D01*
X88509246Y-27079000D01*
X88410754Y-27079000D01*
X88314155Y-27059785D01*
X88239708Y-27028948D01*
X88223163Y-27022095D01*
X88223162Y-27022095D01*
X88223161Y-27022094D01*
X88141269Y-26967375D01*
X88141266Y-26967373D01*
X88071627Y-26897734D01*
X88016905Y-26815837D01*
X87979215Y-26724845D01*
X87969303Y-26675014D01*
X87960000Y-26628246D01*
X87960000Y-26529754D01*
X87979215Y-26433155D01*
X88016906Y-26342161D01*
X88071625Y-26260269D01*
X88071627Y-26260266D01*
X88141266Y-26190627D01*
X88142360Y-26189896D01*
X88223161Y-26135906D01*
X88314155Y-26098215D01*
X88410754Y-26079000D01*
X88509246Y-26079000D01*
X88605845Y-26098215D01*
X88605845Y-26098215D01*
G37*
G36*
X29233352Y-24230743D02*
X29378941Y-24291048D01*
X29509973Y-24378601D01*
X29621399Y-24490027D01*
X29708952Y-24621059D01*
X29769257Y-24766648D01*
X29800000Y-24921205D01*
X29800000Y-25078795D01*
X29769257Y-25233352D01*
X29708952Y-25378941D01*
X29621399Y-25509973D01*
X29509973Y-25621399D01*
X29378941Y-25708952D01*
X29233352Y-25769257D01*
X29078795Y-25800000D01*
X28921205Y-25800000D01*
X28766648Y-25769257D01*
X28621059Y-25708952D01*
X28490027Y-25621399D01*
X28378601Y-25509973D01*
X28291048Y-25378941D01*
X28230743Y-25233352D01*
X28200000Y-25078795D01*
X28200000Y-24921205D01*
X28230743Y-24766648D01*
X28291048Y-24621059D01*
X28378601Y-24490027D01*
X28490027Y-24378601D01*
X28621059Y-24291048D01*
X28766648Y-24230743D01*
X28921205Y-24200000D01*
X29078795Y-24200000D01*
X29233352Y-24230743D01*
X29233352Y-24230743D01*
G37*
G36*
X29233352Y-22230743D02*
X29378941Y-22291048D01*
X29509973Y-22378601D01*
X29621399Y-22490027D01*
X29708952Y-22621059D01*
X29769257Y-22766648D01*
X29800000Y-22921205D01*
X29800000Y-23078795D01*
X29769257Y-23233352D01*
X29708952Y-23378941D01*
X29621399Y-23509973D01*
X29509973Y-23621399D01*
X29378941Y-23708952D01*
X29233352Y-23769257D01*
X29078795Y-23800000D01*
X28921205Y-23800000D01*
X28766648Y-23769257D01*
X28621059Y-23708952D01*
X28490027Y-23621399D01*
X28378601Y-23509973D01*
X28291048Y-23378941D01*
X28230743Y-23233352D01*
X28200000Y-23078795D01*
X28200000Y-22921205D01*
X28230743Y-22766648D01*
X28291048Y-22621059D01*
X28378601Y-22490027D01*
X28490027Y-22378601D01*
X28621059Y-22291048D01*
X28766648Y-22230743D01*
X28921205Y-22200000D01*
X29078795Y-22200000D01*
X29233352Y-22230743D01*
X29233352Y-22230743D01*
G37*
G36*
X27075012Y-20923057D02*
X27184207Y-20968287D01*
X27282481Y-21033952D01*
X27366048Y-21117519D01*
X27431713Y-21215793D01*
X27476943Y-21324988D01*
X27500000Y-21440904D01*
X27500000Y-21559096D01*
X27476943Y-21675012D01*
X27431713Y-21784207D01*
X27366048Y-21882481D01*
X27282481Y-21966048D01*
X27184207Y-22031713D01*
X27075012Y-22076943D01*
X26959096Y-22100000D01*
X26840904Y-22100000D01*
X26724988Y-22076943D01*
X26615793Y-22031713D01*
X26517519Y-21966048D01*
X26433952Y-21882481D01*
X26368287Y-21784207D01*
X26323057Y-21675012D01*
X26300000Y-21559096D01*
X26300000Y-21440904D01*
X26323057Y-21324988D01*
X26368287Y-21215793D01*
X26433952Y-21117519D01*
X26517519Y-21033952D01*
X26615793Y-20968287D01*
X26724988Y-20923057D01*
X26840904Y-20900000D01*
X26959096Y-20900000D01*
X27075012Y-20923057D01*
X27075012Y-20923057D01*
G37*
M02*
