M48
;DRILL file {KiCad 5.0.1-33cea8e~68~ubuntu18.04.1} date Mon 12 Nov 2018 15:12:47 GMT
;FORMAT={-:-/ absolute / inch / decimal}
FMAT,2
INCH,TZ
T1C0.0157
T2C0.0315
T3C0.0402
T4C0.0531
T5C0.0236
T6C0.0394
T7C0.0472
T8C0.1200
T9C0.1299
%
G90
G05
M72
T1
X0.8583Y-3.7087
X0.8858Y-0.8858
X0.8858Y-1.0827
X0.8858Y-1.2795
X0.8858Y-1.4764
X0.8858Y-1.6732
X0.8858Y-4.626
X1.0827Y-4.626
X1.1811Y-1.0827
X1.1811Y-1.4764
X1.1831Y-2.6122
X1.2165Y-3.3543
X1.2224Y-2.561
X1.2795Y-0.8858
X1.2795Y-4.626
X1.3031Y-2.2598
X1.3091Y-3.435
X1.3189Y-3.3268
X1.3307Y-2.6772
X1.3386Y-0.8425
X1.3386Y-0.9291
X1.3425Y-3.3819
X1.3543Y-2.3071
X1.378Y-2.7205
X1.4173Y-3.435
X1.4272Y-0.876
X1.437Y-1.0433
X1.437Y-2.3228
X1.4764Y-4.626
X1.4843Y-1.0827
X1.4862Y-3.2579
X1.4921Y-2.2126
X1.5591Y-2.1299
X1.5591Y-2.2205
X1.6102Y-1.7677
X1.6457Y-3.7087
X1.6732Y-4.626
X1.6811Y-0.8622
X1.747Y-0.8593
X1.747Y-0.8967
X1.752Y-1.0354
X1.7913Y-1.0354
X1.8031Y-1.7756
X1.8071Y-0.9252
X1.8228Y-1.2047
X1.8307Y-1.0354
X1.8504Y-0.9685
X1.8661Y-1.1614
X1.8701Y-4.626
X1.9626Y-2.6122
X1.9783Y-1.2697
X2.0039Y-1.7126
X2.0039Y-1.7756
X2.0079Y-3.3543
X2.0217Y-1.3169
X2.0669Y-4.626
X2.1102Y-3.3268
X2.1181Y-2.6772
X2.1339Y-3.3819
X2.1654Y-2.7244
X2.2008Y-1.4528
X2.2047Y-3.4606
X2.2638Y-4.626
X2.2874Y-2.5157
X2.2874Y-2.6772
X2.2894Y-3.2677
X2.2894Y-4.0197
X2.3071Y-1.5394
X2.4331Y-3.7087
X2.4606Y-4.626
X2.502Y-1.5256
X2.5354Y-1.4843
X2.5827Y-1.3465
X2.5935Y-1.4695
X2.6299Y-1.3504
X2.6575Y-1.6693
X2.6575Y-1.7165
X2.6575Y-1.7638
X2.6575Y-4.626
X2.6614Y-1.3976
X2.6614Y-1.4567
X2.6988Y-1.3642
X2.7343Y-1.4272
X2.7343Y-1.8012
X2.7441Y-1.5453
X2.7539Y-2.6122
X2.7756Y-1.622
X2.7972Y-2.5689
X2.8051Y-3.3543
X2.8425Y-2.1575
X2.8524Y-1.128
X2.8543Y-4.626
X2.874Y-1.9213
X2.874Y-1.9646
X2.874Y-2.126
X2.8937Y-1.6732
X2.8976Y-1.4764
X2.9016Y-1.0512
X2.9055Y-1.5551
X2.9055Y-2.0551
X2.9055Y-2.6772
X2.9075Y-3.3268
X2.9232Y-1.2933
X2.9311Y-3.3819
X2.9409Y-1.5157
X2.9409Y-1.5748
X2.9409Y-2.0906
X2.9429Y-1.0925
X2.9449Y-1.1654
X2.9528Y-1.3504
X2.9528Y-2.7283
X2.9764Y-1.5945
X2.9764Y-2.0591
X2.9921Y-3.4449
X3.002Y-1.3524
X3.0118Y-1.6181
X3.0118Y-2.0906
X3.0217Y-1.1673
X3.0315Y-2.3583
X3.0512Y-1.3228
X3.0512Y-4.626
X3.0748Y-2.126
X3.0866Y-3.2736
X3.0866Y-4.0197
X3.1024Y-2.1575
X3.1063Y-2.2047
X3.2165Y-3.7087
X3.2205Y-2.4882
X3.2205Y-3.1417
X3.2205Y-3.3819
X3.2382Y-1.3169
X3.248Y-2.5197
X3.248Y-3.1811
X3.248Y-3.3268
X3.248Y-4.626
X3.2677Y-1.1457
X3.2874Y-1.0079
X3.2874Y-1.3189
X3.2953Y-1.6575
X3.2953Y-2.4134
X3.3228Y-2.4449
X3.3366Y-1.3209
X3.3386Y-1.6575
X3.3701Y-2.
X3.374Y-1.5157
X3.3819Y-1.3189
X3.4173Y-2.
X3.4449Y-4.626
X3.4508Y-1.935
X3.5197Y-1.689
X3.5236Y-1.3189
X3.5327Y-1.0051
X3.5374Y-2.6122
X3.5472Y-1.6575
X3.5492Y-1.2461
X3.5827Y-3.3543
X3.5846Y-1.3169
X3.5846Y-2.561
X3.6327Y-1.0169
X3.6417Y-4.626
X3.6713Y-3.4449
X3.6732Y-1.374
X3.6772Y-1.5079
X3.685Y-3.3268
X3.689Y-2.6772
X3.7087Y-3.3819
X3.7165Y-1.4646
X3.7205Y-1.2126
X3.7283Y-1.374
X3.7402Y-2.7283
X3.7559Y-1.6102
X3.7677Y-1.2047
X3.7677Y-1.2441
X3.7795Y-1.374
X3.7795Y-3.2579
X3.7795Y-3.4449
X3.8031Y-1.5669
X3.8346Y-1.2205
X3.8386Y-4.626
X3.9055Y-1.3937
X4.Y-3.7087
X4.0315Y-1.2323
X4.0315Y-1.3386
X4.0354Y-4.626
X4.0866Y-0.8465
X4.0882Y-1.3567
X4.2087Y-1.5748
X4.2087Y-1.6535
X4.2126Y-1.9291
X4.2126Y-2.0079
X4.2323Y-4.626
X4.2937Y-1.3567
X4.2953Y-0.8465
X4.3209Y-2.6122
X4.3701Y-3.3543
X4.372Y-2.561
X4.4291Y-4.626
X4.4646Y-3.3819
X4.4724Y-3.3268
X4.4724Y-3.4449
X4.4882Y-2.6772
X4.5205Y-1.3535
X4.5276Y-2.7244
X4.5394Y-3.2559
X4.5394Y-3.4449
X4.5559Y-0.8551
X4.5787Y-1.1378
X4.5787Y-1.2205
X4.5984Y-3.2559
X4.5984Y-3.4469
X4.6142Y-1.4016
X4.6161Y-2.313
X4.626Y-4.626
X4.6333Y-0.9128
X4.6654Y-2.313
T2
X4.3701Y-2.2047
X4.3701Y-2.2835
X4.4882Y-4.3898
X4.5669Y-4.3898
X2.9134Y-4.3898
X2.9921Y-4.3898
X2.126Y-4.3898
X2.2047Y-4.3898
X4.3701Y-1.8504
X4.3701Y-1.9291
X4.3701Y-2.0079
X1.1417Y-1.1811
X1.1417Y-1.2598
X1.1417Y-0.9055
X1.1417Y-0.9843
X4.3701Y-1.4961
X4.3701Y-1.5748
X4.3701Y-1.6535
X3.7008Y-4.3898
X3.7795Y-4.3898
X1.3386Y-4.3898
X1.4173Y-4.3898
T3
X3.3169Y-4.0783
X3.3169Y-4.1965
X3.4547Y-4.0783
X3.4547Y-4.1965
X1.335Y-1.8996
X1.335Y-2.0374
X1.4531Y-1.8996
X1.4531Y-2.0374
X4.1043Y-4.0783
X4.1043Y-4.1965
X4.2421Y-4.0783
X4.2421Y-4.1965
X0.9547Y-4.0783
X0.9547Y-4.1965
X1.0925Y-4.0783
X1.0925Y-4.1965
X1.7421Y-4.0783
X1.7421Y-4.1965
X1.8799Y-4.0783
X1.8799Y-4.1965
X1.335Y-1.5059
X1.335Y-1.6437
X1.4531Y-1.5059
X1.4531Y-1.6437
X2.5295Y-4.0783
X2.5295Y-4.1965
X2.6673Y-4.0783
X2.6673Y-4.1965
T4
X2.6378Y-2.8606
X2.6378Y-3.6598
X2.6378Y-3.8583
X2.9331Y-2.8606
X2.9331Y-3.6598
X2.9331Y-3.8583
X4.2126Y-2.8622
X4.2126Y-3.6614
X4.2126Y-3.8598
X4.5079Y-2.8622
X4.5079Y-3.6614
X4.5079Y-3.8598
X3.4252Y-2.8606
X3.4252Y-3.6598
X3.4252Y-3.8583
X3.7205Y-2.8606
X3.7205Y-3.6598
X3.7205Y-3.8583
X1.7165Y-1.4531
X1.7165Y-2.2524
X1.7165Y-2.4508
X2.0118Y-1.4531
X2.0118Y-2.2524
X2.0118Y-2.4508
X1.8504Y-2.8606
X1.8504Y-3.6598
X1.8504Y-3.8583
X2.1457Y-2.8606
X2.1457Y-3.6598
X2.1457Y-3.8583
X1.063Y-2.8606
X1.063Y-3.6598
X1.063Y-3.8583
X1.3583Y-2.8606
X1.3583Y-3.6598
X1.3583Y-3.8583
T5
X3.8386Y-0.9449
X3.8661Y-0.874
X3.8661Y-1.0157
X3.937Y-0.8465
X3.937Y-1.0433
X4.0079Y-0.874
X4.0079Y-1.0157
X4.0354Y-0.9449
X1.5059Y-3.5433
X1.5335Y-3.4724
X1.5335Y-3.6142
X1.6043Y-3.4449
X1.6043Y-3.6417
X1.6752Y-3.4724
X1.6752Y-3.6142
X1.7028Y-3.5433
X3.8681Y-3.5335
X3.8957Y-3.4626
X3.8957Y-3.6043
X3.9665Y-3.435
X3.9665Y-3.6319
X4.0374Y-3.4626
X4.0374Y-3.6043
X4.065Y-3.5335
X0.8465Y-2.2835
X0.874Y-2.2126
X0.874Y-2.3543
X0.9449Y-2.185
X0.9449Y-2.3819
X1.0157Y-2.2126
X1.0157Y-2.3543
X1.0433Y-2.2835
T6
X3.4827Y-1.0464
X3.4827Y-1.1264
X3.6827Y-1.0864
T7
X4.4528Y-1.7913
X4.4528Y-2.0669
X1.0591Y-1.122
X1.0591Y-1.3189
X1.0591Y-0.8465
X1.0591Y-1.0433
X4.4528Y-1.437
X4.4528Y-1.7126
X3.6417Y-4.4724
X3.8386Y-4.4724
X1.2795Y-4.4724
X1.4764Y-4.4724
X4.4528Y-2.1457
X4.4528Y-2.3425
X4.4291Y-4.4724
X4.626Y-4.4724
X2.8543Y-4.4724
X3.0512Y-4.4724
X2.0669Y-4.4724
X2.2638Y-4.4724
T8
X1.811Y-4.5079
X1.0236Y-1.5748
X2.5984Y-4.5079
X3.3858Y-4.5079
X1.0236Y-1.9685
X4.1732Y-4.5079
X1.0236Y-4.5079
T9
X3.937Y-0.9449
X1.6043Y-3.5433
X3.9665Y-3.5335
X0.9449Y-2.2835
T0
M30
