G04 #@! TF.GenerationSoftware,KiCad,Pcbnew,5.0.1-33cea8e~68~ubuntu18.04.1*
G04 #@! TF.CreationDate,2018-11-12T15:12:41+00:00*
G04 #@! TF.ProjectId,ignition,69676E6974696F6E2E6B696361645F70,rev?*
G04 #@! TF.SameCoordinates,Original*
G04 #@! TF.FileFunction,Copper,L1,Top,Signal*
G04 #@! TF.FilePolarity,Positive*
%FSLAX46Y46*%
G04 Gerber Fmt 4.6, Leading zero omitted, Abs format (unit mm)*
G04 Created by KiCad (PCBNEW 5.0.1-33cea8e~68~ubuntu18.04.1) date Mon 12 Nov 2018 15:12:41 GMT*
%MOMM*%
%LPD*%
G01*
G04 APERTURE LIST*
G04 #@! TA.AperFunction,ComponentPad*
%ADD10C,1.600000*%
G04 #@! TD*
G04 #@! TA.AperFunction,ComponentPad*
%ADD11C,2.500000*%
G04 #@! TD*
G04 #@! TA.AperFunction,SMDPad,CuDef*
%ADD12R,1.800000X1.150000*%
G04 #@! TD*
G04 #@! TA.AperFunction,SMDPad,CuDef*
%ADD13R,0.900000X0.750000*%
G04 #@! TD*
G04 #@! TA.AperFunction,SMDPad,CuDef*
%ADD14R,0.750000X0.900000*%
G04 #@! TD*
G04 #@! TA.AperFunction,SMDPad,CuDef*
%ADD15R,0.620000X0.620000*%
G04 #@! TD*
G04 #@! TA.AperFunction,SMDPad,CuDef*
%ADD16R,0.910000X1.220000*%
G04 #@! TD*
G04 #@! TA.AperFunction,SMDPad,CuDef*
%ADD17R,1.200000X1.200000*%
G04 #@! TD*
G04 #@! TA.AperFunction,SMDPad,CuDef*
%ADD18R,0.950000X1.000000*%
G04 #@! TD*
G04 #@! TA.AperFunction,SMDPad,CuDef*
%ADD19R,1.450000X0.450000*%
G04 #@! TD*
G04 #@! TA.AperFunction,SMDPad,CuDef*
%ADD20R,1.500000X0.300000*%
G04 #@! TD*
G04 #@! TA.AperFunction,SMDPad,CuDef*
%ADD21R,0.300000X1.500000*%
G04 #@! TD*
G04 #@! TA.AperFunction,ComponentPad*
%ADD22C,3.000000*%
G04 #@! TD*
G04 #@! TA.AperFunction,BGAPad,CuDef*
%ADD23C,0.787000*%
G04 #@! TD*
G04 #@! TA.AperFunction,SMDPad,CuDef*
%ADD24R,0.600000X1.000000*%
G04 #@! TD*
G04 #@! TA.AperFunction,SMDPad,CuDef*
%ADD25R,1.000000X0.950000*%
G04 #@! TD*
G04 #@! TA.AperFunction,SMDPad,CuDef*
%ADD26C,0.950000*%
G04 #@! TD*
G04 #@! TA.AperFunction,Conductor*
%ADD27C,0.100000*%
G04 #@! TD*
G04 #@! TA.AperFunction,BGAPad,CuDef*
%ADD28C,1.000000*%
G04 #@! TD*
G04 #@! TA.AperFunction,SMDPad,CuDef*
%ADD29R,1.100000X0.700000*%
G04 #@! TD*
G04 #@! TA.AperFunction,SMDPad,CuDef*
%ADD30R,1.830000X1.140000*%
G04 #@! TD*
G04 #@! TA.AperFunction,SMDPad,CuDef*
%ADD31R,2.800000X0.860000*%
G04 #@! TD*
G04 #@! TA.AperFunction,SMDPad,CuDef*
%ADD32R,3.330000X0.700000*%
G04 #@! TD*
G04 #@! TA.AperFunction,SMDPad,CuDef*
%ADD33R,0.930000X0.900000*%
G04 #@! TD*
G04 #@! TA.AperFunction,SMDPad,CuDef*
%ADD34R,0.780000X1.050000*%
G04 #@! TD*
G04 #@! TA.AperFunction,SMDPad,CuDef*
%ADD35R,0.950000X0.850000*%
G04 #@! TD*
G04 #@! TA.AperFunction,ViaPad*
%ADD36C,0.800000*%
G04 #@! TD*
G04 #@! TA.AperFunction,Conductor*
%ADD37C,0.350000*%
G04 #@! TD*
G04 #@! TA.AperFunction,Conductor*
%ADD38C,0.250000*%
G04 #@! TD*
G04 #@! TA.AperFunction,Conductor*
%ADD39C,0.200000*%
G04 #@! TD*
G04 #@! TA.AperFunction,Conductor*
%ADD40C,1.000000*%
G04 #@! TD*
G04 APERTURE END LIST*
D10*
G04 #@! TO.P,J9,1*
G04 #@! TO.N,Net-(J9-Pad1)*
X114000000Y-111500000D03*
G04 #@! TO.P,J9,2*
G04 #@! TO.N,/LED5*
X116000000Y-111500000D03*
G04 #@! TD*
D11*
G04 #@! TO.P,J17,3*
G04 #@! TO.N,GND*
X104250000Y-106590000D03*
G04 #@! TO.P,J17,2*
G04 #@! TO.N,/CH5*
X107750000Y-103590000D03*
G04 #@! TO.P,J17,1*
X104250000Y-103590000D03*
G04 #@! TO.P,J17,4*
G04 #@! TO.N,GND*
X107750000Y-106590000D03*
G04 #@! TD*
D12*
G04 #@! TO.P,C2,2*
G04 #@! TO.N,GND*
X34000000Y-22500000D03*
G04 #@! TO.P,C2,1*
G04 #@! TO.N,5v*
X34000000Y-25500000D03*
G04 #@! TD*
D13*
G04 #@! TO.P,C3,1*
G04 #@! TO.N,5v*
X36250000Y-24700000D03*
G04 #@! TO.P,C3,2*
G04 #@! TO.N,GND*
X36250000Y-23300000D03*
G04 #@! TD*
D14*
G04 #@! TO.P,C4,2*
G04 #@! TO.N,Net-(C4-Pad2)*
X39800000Y-21250000D03*
G04 #@! TO.P,C4,1*
G04 #@! TO.N,3v3*
X41200000Y-21250000D03*
G04 #@! TD*
G04 #@! TO.P,C5,2*
G04 #@! TO.N,GND*
X45900000Y-24600000D03*
G04 #@! TO.P,C5,1*
G04 #@! TO.N,3v3*
X44500000Y-24600000D03*
G04 #@! TD*
D15*
G04 #@! TO.P,C6,1*
G04 #@! TO.N,GND*
X68800000Y-39250000D03*
G04 #@! TO.P,C6,2*
G04 #@! TO.N,Net-(C6-Pad2)*
X68800000Y-38350000D03*
G04 #@! TD*
G04 #@! TO.P,C7,2*
G04 #@! TO.N,Net-(C7-Pad2)*
X64400000Y-39650000D03*
G04 #@! TO.P,C7,1*
G04 #@! TO.N,GND*
X64400000Y-38750000D03*
G04 #@! TD*
G04 #@! TO.P,C8,1*
G04 #@! TO.N,GND*
X68550000Y-35500000D03*
G04 #@! TO.P,C8,2*
G04 #@! TO.N,3v3*
X69450000Y-35500000D03*
G04 #@! TD*
G04 #@! TO.P,C9,1*
G04 #@! TO.N,GND*
X68550000Y-42400000D03*
G04 #@! TO.P,C9,2*
G04 #@! TO.N,3v3*
X69450000Y-42400000D03*
G04 #@! TD*
G04 #@! TO.P,C10,1*
G04 #@! TO.N,GND*
X86800000Y-50050000D03*
G04 #@! TO.P,C10,2*
G04 #@! TO.N,3v3*
X86800000Y-49150000D03*
G04 #@! TD*
G04 #@! TO.P,C11,1*
G04 #@! TO.N,GND*
X73700000Y-27750000D03*
G04 #@! TO.P,C11,2*
G04 #@! TO.N,3v3*
X73700000Y-28650000D03*
G04 #@! TD*
G04 #@! TO.P,C12,2*
G04 #@! TO.N,3v3*
X69450000Y-44800000D03*
G04 #@! TO.P,C12,1*
G04 #@! TO.N,GND*
X68550000Y-44800000D03*
G04 #@! TD*
G04 #@! TO.P,C13,1*
G04 #@! TO.N,GND*
X68550000Y-37000000D03*
G04 #@! TO.P,C13,2*
G04 #@! TO.N,3v3*
X69450000Y-37000000D03*
G04 #@! TD*
G04 #@! TO.P,C14,2*
G04 #@! TO.N,3v3*
X74950000Y-48800000D03*
G04 #@! TO.P,C14,1*
G04 #@! TO.N,GND*
X74050000Y-48800000D03*
G04 #@! TD*
G04 #@! TO.P,C15,2*
G04 #@! TO.N,3v3*
X90150000Y-32600000D03*
G04 #@! TO.P,C15,1*
G04 #@! TO.N,GND*
X91050000Y-32600000D03*
G04 #@! TD*
G04 #@! TO.P,C16,2*
G04 #@! TO.N,3v3*
X69450000Y-43600000D03*
G04 #@! TO.P,C16,1*
G04 #@! TO.N,GND*
X68550000Y-43600000D03*
G04 #@! TD*
G04 #@! TO.P,C17,1*
G04 #@! TO.N,Net-(C17-Pad1)*
X90150000Y-34400000D03*
G04 #@! TO.P,C17,2*
G04 #@! TO.N,GND*
X91050000Y-34400000D03*
G04 #@! TD*
G04 #@! TO.P,C18,2*
G04 #@! TO.N,GND*
X85600000Y-50050000D03*
G04 #@! TO.P,C18,1*
G04 #@! TO.N,Net-(C18-Pad1)*
X85600000Y-49150000D03*
G04 #@! TD*
G04 #@! TO.P,C19,2*
G04 #@! TO.N,GND*
X100250000Y-35400000D03*
G04 #@! TO.P,C19,1*
G04 #@! TO.N,3v3*
X101150000Y-35400000D03*
G04 #@! TD*
G04 #@! TO.P,C20,2*
G04 #@! TO.N,/~RST*
X69450000Y-41200000D03*
G04 #@! TO.P,C20,1*
G04 #@! TO.N,GND*
X68550000Y-41200000D03*
G04 #@! TD*
D16*
G04 #@! TO.P,D1,2*
G04 #@! TO.N,/LED2*
X49025000Y-68000000D03*
G04 #@! TO.P,D1,1*
G04 #@! TO.N,/FIRE_DIST*
X45755000Y-68000000D03*
G04 #@! TD*
G04 #@! TO.P,D2,1*
G04 #@! TO.N,/FIRE_DIST*
X85755000Y-68250000D03*
G04 #@! TO.P,D2,2*
G04 #@! TO.N,/LED4*
X89025000Y-68250000D03*
G04 #@! TD*
G04 #@! TO.P,D3,1*
G04 #@! TO.N,VCC*
X42355000Y-32250000D03*
G04 #@! TO.P,D3,2*
G04 #@! TO.N,Net-(D3-Pad2)*
X45625000Y-32250000D03*
G04 #@! TD*
D17*
G04 #@! TO.P,D4,2*
G04 #@! TO.N,/CH2_CONT*
X56250000Y-102100000D03*
G04 #@! TO.P,D4,1*
G04 #@! TO.N,3v3*
X56250000Y-104900000D03*
G04 #@! TD*
G04 #@! TO.P,D5,2*
G04 #@! TO.N,/CH4_CONT*
X96750000Y-101850000D03*
G04 #@! TO.P,D5,1*
G04 #@! TO.N,3v3*
X96750000Y-104650000D03*
G04 #@! TD*
D16*
G04 #@! TO.P,D6,1*
G04 #@! TO.N,/FIRE_DIST*
X25755000Y-68000000D03*
G04 #@! TO.P,D6,2*
G04 #@! TO.N,/LED1*
X29025000Y-68000000D03*
G04 #@! TD*
G04 #@! TO.P,D7,2*
G04 #@! TO.N,/LED3*
X69025000Y-68250000D03*
G04 #@! TO.P,D7,1*
G04 #@! TO.N,/FIRE_DIST*
X65755000Y-68250000D03*
G04 #@! TD*
G04 #@! TO.P,D8,2*
G04 #@! TO.N,/LED5*
X109025000Y-68250000D03*
G04 #@! TO.P,D8,1*
G04 #@! TO.N,/FIRE_DIST*
X105755000Y-68250000D03*
G04 #@! TD*
D18*
G04 #@! TO.P,D9,1*
G04 #@! TO.N,GND*
X37700000Y-26500000D03*
G04 #@! TO.P,D9,2*
G04 #@! TO.N,Net-(D9-Pad2)*
X39300000Y-26500000D03*
G04 #@! TD*
G04 #@! TO.P,D10,2*
G04 #@! TO.N,Net-(D10-Pad2)*
X93800000Y-39800000D03*
G04 #@! TO.P,D10,1*
G04 #@! TO.N,GND*
X95400000Y-39800000D03*
G04 #@! TD*
D17*
G04 #@! TO.P,D11,1*
G04 #@! TO.N,3v3*
X36000000Y-104900000D03*
G04 #@! TO.P,D11,2*
G04 #@! TO.N,/CH1_CONT*
X36000000Y-102100000D03*
G04 #@! TD*
G04 #@! TO.P,D12,1*
G04 #@! TO.N,3v3*
X76500000Y-104900000D03*
G04 #@! TO.P,D12,2*
G04 #@! TO.N,/CH3_CONT*
X76500000Y-102100000D03*
G04 #@! TD*
G04 #@! TO.P,D13,1*
G04 #@! TO.N,3v3*
X116750000Y-104900000D03*
G04 #@! TO.P,D13,2*
G04 #@! TO.N,/CH5_CONT*
X116750000Y-102100000D03*
G04 #@! TD*
D19*
G04 #@! TO.P,IC7,1*
G04 #@! TO.N,3v3*
X42700000Y-24725000D03*
G04 #@! TO.P,IC7,2*
X42700000Y-24075000D03*
G04 #@! TO.P,IC7,3*
X42700000Y-23425000D03*
G04 #@! TO.P,IC7,4*
G04 #@! TO.N,GND*
X42700000Y-22775000D03*
G04 #@! TO.P,IC7,5*
G04 #@! TO.N,Net-(C4-Pad2)*
X38300000Y-22775000D03*
G04 #@! TO.P,IC7,6*
G04 #@! TO.N,5v*
X38300000Y-23425000D03*
G04 #@! TO.P,IC7,7*
X38300000Y-24075000D03*
G04 #@! TO.P,IC7,8*
X38300000Y-24725000D03*
G04 #@! TD*
D20*
G04 #@! TO.P,IC8,1*
G04 #@! TO.N,/ARM_SUPPLY*
X72050000Y-33000000D03*
G04 #@! TO.P,IC8,2*
G04 #@! TO.N,Net-(IC8-Pad2)*
X72050000Y-33500000D03*
G04 #@! TO.P,IC8,3*
G04 #@! TO.N,Net-(IC8-Pad3)*
X72050000Y-34000000D03*
G04 #@! TO.P,IC8,4*
G04 #@! TO.N,Net-(IC8-Pad4)*
X72050000Y-34500000D03*
G04 #@! TO.P,IC8,5*
G04 #@! TO.N,Net-(IC8-Pad5)*
X72050000Y-35000000D03*
G04 #@! TO.P,IC8,6*
G04 #@! TO.N,3v3*
X72050000Y-35500000D03*
G04 #@! TO.P,IC8,7*
G04 #@! TO.N,Net-(IC8-Pad7)*
X72050000Y-36000000D03*
G04 #@! TO.P,IC8,8*
G04 #@! TO.N,Net-(IC8-Pad8)*
X72050000Y-36500000D03*
G04 #@! TO.P,IC8,9*
G04 #@! TO.N,Net-(IC8-Pad9)*
X72050000Y-37000000D03*
G04 #@! TO.P,IC8,10*
G04 #@! TO.N,GND*
X72050000Y-37500000D03*
G04 #@! TO.P,IC8,11*
G04 #@! TO.N,3v3*
X72050000Y-38000000D03*
G04 #@! TO.P,IC8,12*
G04 #@! TO.N,Net-(C6-Pad2)*
X72050000Y-38500000D03*
G04 #@! TO.P,IC8,13*
G04 #@! TO.N,Net-(IC8-Pad13)*
X72050000Y-39000000D03*
G04 #@! TO.P,IC8,14*
G04 #@! TO.N,/~RST*
X72050000Y-39500000D03*
G04 #@! TO.P,IC8,15*
G04 #@! TO.N,/CH1_CONT*
X72050000Y-40000000D03*
G04 #@! TO.P,IC8,16*
G04 #@! TO.N,/CH2_CONT*
X72050000Y-40500000D03*
G04 #@! TO.P,IC8,17*
G04 #@! TO.N,/CH3_CONT*
X72050000Y-41000000D03*
G04 #@! TO.P,IC8,18*
G04 #@! TO.N,/CH4_CONT*
X72050000Y-41500000D03*
G04 #@! TO.P,IC8,19*
G04 #@! TO.N,3v3*
X72050000Y-42000000D03*
G04 #@! TO.P,IC8,20*
G04 #@! TO.N,GND*
X72050000Y-42500000D03*
G04 #@! TO.P,IC8,21*
G04 #@! TO.N,3v3*
X72050000Y-43000000D03*
G04 #@! TO.P,IC8,22*
X72050000Y-43500000D03*
G04 #@! TO.P,IC8,23*
G04 #@! TO.N,Net-(IC8-Pad23)*
X72050000Y-44000000D03*
G04 #@! TO.P,IC8,24*
G04 #@! TO.N,/PSU_MON*
X72050000Y-44500000D03*
G04 #@! TO.P,IC8,25*
G04 #@! TO.N,/USART2_TX*
X72050000Y-45000000D03*
D21*
G04 #@! TO.P,IC8,26*
G04 #@! TO.N,/USART2_RX*
X73750000Y-46700000D03*
G04 #@! TO.P,IC8,27*
G04 #@! TO.N,GND*
X74250000Y-46700000D03*
G04 #@! TO.P,IC8,28*
G04 #@! TO.N,3v3*
X74750000Y-46700000D03*
G04 #@! TO.P,IC8,29*
G04 #@! TO.N,Net-(IC8-Pad29)*
X75250000Y-46700000D03*
G04 #@! TO.P,IC8,30*
G04 #@! TO.N,Net-(IC8-Pad30)*
X75750000Y-46700000D03*
G04 #@! TO.P,IC8,31*
G04 #@! TO.N,Net-(IC8-Pad31)*
X76250000Y-46700000D03*
G04 #@! TO.P,IC8,32*
G04 #@! TO.N,Net-(IC8-Pad32)*
X76750000Y-46700000D03*
G04 #@! TO.P,IC8,33*
G04 #@! TO.N,/CH5_CONT*
X77250000Y-46700000D03*
G04 #@! TO.P,IC8,34*
G04 #@! TO.N,Net-(IC8-Pad34)*
X77750000Y-46700000D03*
G04 #@! TO.P,IC8,35*
G04 #@! TO.N,Net-(IC8-Pad35)*
X78250000Y-46700000D03*
G04 #@! TO.P,IC8,36*
G04 #@! TO.N,/CH1_FIRE*
X78750000Y-46700000D03*
G04 #@! TO.P,IC8,37*
G04 #@! TO.N,/CH2_FIRE*
X79250000Y-46700000D03*
G04 #@! TO.P,IC8,38*
G04 #@! TO.N,/CH3_FIRE*
X79750000Y-46700000D03*
G04 #@! TO.P,IC8,39*
G04 #@! TO.N,/CH4_FIRE*
X80250000Y-46700000D03*
G04 #@! TO.P,IC8,40*
G04 #@! TO.N,/CH5_FIRE*
X80750000Y-46700000D03*
G04 #@! TO.P,IC8,41*
G04 #@! TO.N,Net-(IC8-Pad41)*
X81250000Y-46700000D03*
G04 #@! TO.P,IC8,42*
G04 #@! TO.N,Net-(IC8-Pad42)*
X81750000Y-46700000D03*
G04 #@! TO.P,IC8,43*
G04 #@! TO.N,Net-(IC8-Pad43)*
X82250000Y-46700000D03*
G04 #@! TO.P,IC8,44*
G04 #@! TO.N,Net-(IC8-Pad44)*
X82750000Y-46700000D03*
G04 #@! TO.P,IC8,45*
G04 #@! TO.N,Net-(IC8-Pad45)*
X83250000Y-46700000D03*
G04 #@! TO.P,IC8,46*
G04 #@! TO.N,Net-(IC8-Pad46)*
X83750000Y-46700000D03*
G04 #@! TO.P,IC8,47*
G04 #@! TO.N,/I2C2_SCL*
X84250000Y-46700000D03*
G04 #@! TO.P,IC8,48*
G04 #@! TO.N,/I2C2_SDA*
X84750000Y-46700000D03*
G04 #@! TO.P,IC8,49*
G04 #@! TO.N,Net-(C18-Pad1)*
X85250000Y-46700000D03*
G04 #@! TO.P,IC8,50*
G04 #@! TO.N,3v3*
X85750000Y-46700000D03*
D20*
G04 #@! TO.P,IC8,51*
G04 #@! TO.N,/ARM_GRN*
X87450000Y-45000000D03*
G04 #@! TO.P,IC8,52*
G04 #@! TO.N,/ARM_RED*
X87450000Y-44500000D03*
G04 #@! TO.P,IC8,53*
G04 #@! TO.N,Net-(IC8-Pad53)*
X87450000Y-44000000D03*
G04 #@! TO.P,IC8,54*
G04 #@! TO.N,Net-(IC8-Pad54)*
X87450000Y-43500000D03*
G04 #@! TO.P,IC8,55*
G04 #@! TO.N,Net-(IC8-Pad55)*
X87450000Y-43000000D03*
G04 #@! TO.P,IC8,56*
G04 #@! TO.N,Net-(IC8-Pad56)*
X87450000Y-42500000D03*
G04 #@! TO.P,IC8,57*
G04 #@! TO.N,Net-(IC8-Pad57)*
X87450000Y-42000000D03*
G04 #@! TO.P,IC8,58*
G04 #@! TO.N,Net-(IC8-Pad58)*
X87450000Y-41500000D03*
G04 #@! TO.P,IC8,59*
G04 #@! TO.N,Net-(IC8-Pad59)*
X87450000Y-41000000D03*
G04 #@! TO.P,IC8,60*
G04 #@! TO.N,Net-(IC8-Pad60)*
X87450000Y-40500000D03*
G04 #@! TO.P,IC8,61*
G04 #@! TO.N,Net-(IC8-Pad61)*
X87450000Y-40000000D03*
G04 #@! TO.P,IC8,62*
G04 #@! TO.N,Net-(IC8-Pad62)*
X87450000Y-39500000D03*
G04 #@! TO.P,IC8,63*
G04 #@! TO.N,Net-(IC8-Pad63)*
X87450000Y-39000000D03*
G04 #@! TO.P,IC8,64*
G04 #@! TO.N,/STATUS*
X87450000Y-38500000D03*
G04 #@! TO.P,IC8,65*
G04 #@! TO.N,/SDIO_D0*
X87450000Y-38000000D03*
G04 #@! TO.P,IC8,66*
G04 #@! TO.N,/SDIO_D1*
X87450000Y-37500000D03*
G04 #@! TO.P,IC8,67*
G04 #@! TO.N,Net-(IC8-Pad67)*
X87450000Y-37000000D03*
G04 #@! TO.P,IC8,68*
G04 #@! TO.N,/USART1_TX*
X87450000Y-36500000D03*
G04 #@! TO.P,IC8,69*
G04 #@! TO.N,/USART1_RX*
X87450000Y-36000000D03*
G04 #@! TO.P,IC8,70*
G04 #@! TO.N,Net-(IC8-Pad70)*
X87450000Y-35500000D03*
G04 #@! TO.P,IC8,71*
G04 #@! TO.N,Net-(IC8-Pad71)*
X87450000Y-35000000D03*
G04 #@! TO.P,IC8,72*
G04 #@! TO.N,/SWDIO*
X87450000Y-34500000D03*
G04 #@! TO.P,IC8,73*
G04 #@! TO.N,Net-(C17-Pad1)*
X87450000Y-34000000D03*
G04 #@! TO.P,IC8,74*
G04 #@! TO.N,GND*
X87450000Y-33500000D03*
G04 #@! TO.P,IC8,75*
G04 #@! TO.N,3v3*
X87450000Y-33000000D03*
D21*
G04 #@! TO.P,IC8,76*
G04 #@! TO.N,/SWDCLK*
X85750000Y-31300000D03*
G04 #@! TO.P,IC8,77*
G04 #@! TO.N,Net-(IC8-Pad77)*
X85250000Y-31300000D03*
G04 #@! TO.P,IC8,78*
G04 #@! TO.N,/SDIO_D2*
X84750000Y-31300000D03*
G04 #@! TO.P,IC8,79*
G04 #@! TO.N,/SDIO_D3*
X84250000Y-31300000D03*
G04 #@! TO.P,IC8,80*
G04 #@! TO.N,/SDIO_CK*
X83750000Y-31300000D03*
G04 #@! TO.P,IC8,81*
G04 #@! TO.N,Net-(IC8-Pad81)*
X83250000Y-31300000D03*
G04 #@! TO.P,IC8,82*
G04 #@! TO.N,Net-(IC8-Pad82)*
X82750000Y-31300000D03*
G04 #@! TO.P,IC8,83*
G04 #@! TO.N,/SDIO_CMD*
X82250000Y-31300000D03*
G04 #@! TO.P,IC8,84*
G04 #@! TO.N,Net-(IC8-Pad84)*
X81750000Y-31300000D03*
G04 #@! TO.P,IC8,85*
G04 #@! TO.N,Net-(IC8-Pad85)*
X81250000Y-31300000D03*
G04 #@! TO.P,IC8,86*
G04 #@! TO.N,Net-(IC8-Pad86)*
X80750000Y-31300000D03*
G04 #@! TO.P,IC8,87*
G04 #@! TO.N,Net-(IC8-Pad87)*
X80250000Y-31300000D03*
G04 #@! TO.P,IC8,88*
G04 #@! TO.N,Net-(IC8-Pad88)*
X79750000Y-31300000D03*
G04 #@! TO.P,IC8,89*
G04 #@! TO.N,Net-(IC8-Pad89)*
X79250000Y-31300000D03*
G04 #@! TO.P,IC8,90*
G04 #@! TO.N,Net-(IC8-Pad90)*
X78750000Y-31300000D03*
G04 #@! TO.P,IC8,91*
G04 #@! TO.N,Net-(IC8-Pad91)*
X78250000Y-31300000D03*
G04 #@! TO.P,IC8,92*
G04 #@! TO.N,Net-(IC8-Pad92)*
X77750000Y-31300000D03*
G04 #@! TO.P,IC8,93*
G04 #@! TO.N,Net-(IC8-Pad93)*
X77250000Y-31300000D03*
G04 #@! TO.P,IC8,94*
G04 #@! TO.N,GND*
X76750000Y-31300000D03*
G04 #@! TO.P,IC8,95*
G04 #@! TO.N,/I2C1_SCL*
X76250000Y-31300000D03*
G04 #@! TO.P,IC8,96*
G04 #@! TO.N,/I2C1_SDA*
X75750000Y-31300000D03*
G04 #@! TO.P,IC8,97*
G04 #@! TO.N,Net-(IC8-Pad97)*
X75250000Y-31300000D03*
G04 #@! TO.P,IC8,98*
G04 #@! TO.N,Net-(IC8-Pad98)*
X74750000Y-31300000D03*
G04 #@! TO.P,IC8,99*
G04 #@! TO.N,GND*
X74250000Y-31300000D03*
G04 #@! TO.P,IC8,100*
G04 #@! TO.N,3v3*
X73750000Y-31300000D03*
G04 #@! TD*
D11*
G04 #@! TO.P,J1,4*
G04 #@! TO.N,VCC*
X33910000Y-51750000D03*
G04 #@! TO.P,J1,1*
X36910000Y-48250000D03*
G04 #@! TO.P,J1,2*
X36910000Y-51750000D03*
G04 #@! TO.P,J1,3*
X33910000Y-48250000D03*
G04 #@! TD*
D10*
G04 #@! TO.P,J2,2*
G04 #@! TO.N,/LED1*
X36000000Y-111500000D03*
G04 #@! TO.P,J2,1*
G04 #@! TO.N,Net-(J2-Pad1)*
X34000000Y-111500000D03*
G04 #@! TD*
D11*
G04 #@! TO.P,J3,3*
G04 #@! TO.N,GND*
X33910000Y-38250000D03*
G04 #@! TO.P,J3,2*
X36910000Y-41750000D03*
G04 #@! TO.P,J3,1*
X36910000Y-38250000D03*
G04 #@! TO.P,J3,4*
X33910000Y-41750000D03*
G04 #@! TD*
D10*
G04 #@! TO.P,J4,1*
G04 #@! TO.N,Net-(J4-Pad1)*
X54000000Y-111500000D03*
G04 #@! TO.P,J4,2*
G04 #@! TO.N,/LED2*
X56000000Y-111500000D03*
G04 #@! TD*
G04 #@! TO.P,J5,2*
G04 #@! TO.N,GND*
X29000000Y-25000000D03*
G04 #@! TO.P,J5,1*
G04 #@! TO.N,5v*
X29000000Y-23000000D03*
G04 #@! TD*
G04 #@! TO.P,J6,2*
G04 #@! TO.N,GND*
X29000000Y-32000000D03*
G04 #@! TO.P,J6,1*
G04 #@! TO.N,5v*
X29000000Y-30000000D03*
G04 #@! TD*
G04 #@! TO.P,J7,1*
G04 #@! TO.N,Net-(J7-Pad1)*
X74000000Y-111500000D03*
G04 #@! TO.P,J7,2*
G04 #@! TO.N,/LED3*
X76000000Y-111500000D03*
G04 #@! TD*
G04 #@! TO.P,J8,1*
G04 #@! TO.N,Net-(J8-Pad1)*
X94000000Y-111500000D03*
G04 #@! TO.P,J8,2*
G04 #@! TO.N,/LED4*
X96000000Y-111500000D03*
G04 #@! TD*
D11*
G04 #@! TO.P,J10,4*
G04 #@! TO.N,GND*
X47750000Y-106590000D03*
G04 #@! TO.P,J10,1*
G04 #@! TO.N,/CH2*
X44250000Y-103590000D03*
G04 #@! TO.P,J10,2*
X47750000Y-103590000D03*
G04 #@! TO.P,J10,3*
G04 #@! TO.N,GND*
X44250000Y-106590000D03*
G04 #@! TD*
G04 #@! TO.P,J11,4*
G04 #@! TO.N,GND*
X87750000Y-106590000D03*
G04 #@! TO.P,J11,1*
G04 #@! TO.N,/CH4*
X84250000Y-103590000D03*
G04 #@! TO.P,J11,2*
X87750000Y-103590000D03*
G04 #@! TO.P,J11,3*
G04 #@! TO.N,GND*
X84250000Y-106590000D03*
G04 #@! TD*
D10*
G04 #@! TO.P,J12,2*
G04 #@! TO.N,/ARM_RED*
X111000000Y-56000000D03*
G04 #@! TO.P,J12,1*
G04 #@! TO.N,Net-(J12-Pad1)*
X111000000Y-58000000D03*
G04 #@! TD*
G04 #@! TO.P,J13,3*
G04 #@! TO.N,GND*
X111000000Y-38000000D03*
G04 #@! TO.P,J13,2*
G04 #@! TO.N,/USART1_RX*
X111000000Y-40000000D03*
G04 #@! TO.P,J13,1*
G04 #@! TO.N,/USART1_TX*
X111000000Y-42000000D03*
G04 #@! TD*
G04 #@! TO.P,J14,1*
G04 #@! TO.N,/USART2_TX*
X111000000Y-51000000D03*
G04 #@! TO.P,J14,2*
G04 #@! TO.N,/USART2_RX*
X111000000Y-49000000D03*
G04 #@! TO.P,J14,3*
G04 #@! TO.N,GND*
X111000000Y-47000000D03*
G04 #@! TD*
D11*
G04 #@! TO.P,J15,3*
G04 #@! TO.N,GND*
X24250000Y-106590000D03*
G04 #@! TO.P,J15,2*
G04 #@! TO.N,/CH1*
X27750000Y-103590000D03*
G04 #@! TO.P,J15,1*
X24250000Y-103590000D03*
G04 #@! TO.P,J15,4*
G04 #@! TO.N,GND*
X27750000Y-106590000D03*
G04 #@! TD*
G04 #@! TO.P,J16,3*
G04 #@! TO.N,GND*
X64250000Y-106590000D03*
G04 #@! TO.P,J16,2*
G04 #@! TO.N,/CH3*
X67750000Y-103590000D03*
G04 #@! TO.P,J16,1*
X64250000Y-103590000D03*
G04 #@! TO.P,J16,4*
G04 #@! TO.N,GND*
X67750000Y-106590000D03*
G04 #@! TD*
D22*
G04 #@! TO.P,K1,4*
G04 #@! TO.N,/CH2*
X54500000Y-98000000D03*
G04 #@! TO.P,K1,3*
G04 #@! TO.N,Net-(IC1-Pad10)*
X54500000Y-92960000D03*
G04 #@! TO.P,K1,4*
G04 #@! TO.N,/CH2*
X47000000Y-98000000D03*
G04 #@! TO.P,K1,3*
G04 #@! TO.N,Net-(IC1-Pad10)*
X47000000Y-92960000D03*
G04 #@! TO.P,K1,2*
G04 #@! TO.N,/FIRE_DIST*
X47000000Y-72660000D03*
G04 #@! TO.P,K1,1*
G04 #@! TO.N,/LED2*
X54500000Y-72660000D03*
G04 #@! TD*
G04 #@! TO.P,K2,4*
G04 #@! TO.N,/CH4*
X94500000Y-98000000D03*
G04 #@! TO.P,K2,3*
G04 #@! TO.N,Net-(IC2-Pad10)*
X94500000Y-92960000D03*
G04 #@! TO.P,K2,4*
G04 #@! TO.N,/CH4*
X87000000Y-98000000D03*
G04 #@! TO.P,K2,3*
G04 #@! TO.N,Net-(IC2-Pad10)*
X87000000Y-92960000D03*
G04 #@! TO.P,K2,2*
G04 #@! TO.N,/FIRE_DIST*
X87000000Y-72660000D03*
G04 #@! TO.P,K2,1*
G04 #@! TO.N,/LED4*
X94500000Y-72660000D03*
G04 #@! TD*
G04 #@! TO.P,K3,1*
G04 #@! TO.N,Net-(D3-Pad2)*
X51100000Y-36910000D03*
G04 #@! TO.P,K3,2*
G04 #@! TO.N,VCC*
X43600000Y-36910000D03*
G04 #@! TO.P,K3,3*
G04 #@! TO.N,Net-(IC3-Pad10)*
X43600000Y-57210000D03*
G04 #@! TO.P,K3,4*
G04 #@! TO.N,/FIRE_DIST*
X43600000Y-62250000D03*
G04 #@! TO.P,K3,3*
G04 #@! TO.N,Net-(IC3-Pad10)*
X51100000Y-57210000D03*
G04 #@! TO.P,K3,4*
G04 #@! TO.N,/FIRE_DIST*
X51100000Y-62250000D03*
G04 #@! TD*
G04 #@! TO.P,K4,1*
G04 #@! TO.N,/LED1*
X34500000Y-72660000D03*
G04 #@! TO.P,K4,2*
G04 #@! TO.N,/FIRE_DIST*
X27000000Y-72660000D03*
G04 #@! TO.P,K4,3*
G04 #@! TO.N,Net-(IC4-Pad10)*
X27000000Y-92960000D03*
G04 #@! TO.P,K4,4*
G04 #@! TO.N,/CH1*
X27000000Y-98000000D03*
G04 #@! TO.P,K4,3*
G04 #@! TO.N,Net-(IC4-Pad10)*
X34500000Y-92960000D03*
G04 #@! TO.P,K4,4*
G04 #@! TO.N,/CH1*
X34500000Y-98000000D03*
G04 #@! TD*
G04 #@! TO.P,K5,1*
G04 #@! TO.N,/LED3*
X74500000Y-72660000D03*
G04 #@! TO.P,K5,2*
G04 #@! TO.N,/FIRE_DIST*
X67000000Y-72660000D03*
G04 #@! TO.P,K5,3*
G04 #@! TO.N,Net-(IC5-Pad10)*
X67000000Y-92960000D03*
G04 #@! TO.P,K5,4*
G04 #@! TO.N,/CH3*
X67000000Y-98000000D03*
G04 #@! TO.P,K5,3*
G04 #@! TO.N,Net-(IC5-Pad10)*
X74500000Y-92960000D03*
G04 #@! TO.P,K5,4*
G04 #@! TO.N,/CH3*
X74500000Y-98000000D03*
G04 #@! TD*
G04 #@! TO.P,K6,4*
G04 #@! TO.N,/CH5*
X114500000Y-98040000D03*
G04 #@! TO.P,K6,3*
G04 #@! TO.N,Net-(IC6-Pad10)*
X114500000Y-93000000D03*
G04 #@! TO.P,K6,4*
G04 #@! TO.N,/CH5*
X107000000Y-98040000D03*
G04 #@! TO.P,K6,3*
G04 #@! TO.N,Net-(IC6-Pad10)*
X107000000Y-93000000D03*
G04 #@! TO.P,K6,2*
G04 #@! TO.N,/FIRE_DIST*
X107000000Y-72700000D03*
G04 #@! TO.P,K6,1*
G04 #@! TO.N,/LED5*
X114500000Y-72700000D03*
G04 #@! TD*
D23*
G04 #@! TO.P,P1,1*
G04 #@! TO.N,3v3*
X92270000Y-26960000D03*
G04 #@! TO.P,P1,2*
G04 #@! TO.N,/SWDIO*
X92270000Y-28230000D03*
G04 #@! TO.P,P1,3*
G04 #@! TO.N,/~RST*
X91000000Y-26960000D03*
G04 #@! TO.P,P1,4*
G04 #@! TO.N,/SWDCLK*
X91000000Y-28230000D03*
G04 #@! TO.P,P1,5*
G04 #@! TO.N,GND*
X89730000Y-26960000D03*
G04 #@! TO.P,P1,6*
G04 #@! TO.N,Net-(P1-Pad6)*
X89730000Y-28230000D03*
G04 #@! TD*
D24*
G04 #@! TO.P,Q1,1*
G04 #@! TO.N,Net-(Q1-Pad1)*
X52950000Y-66350000D03*
G04 #@! TO.P,Q1,2*
G04 #@! TO.N,GND*
X51050000Y-66350000D03*
G04 #@! TO.P,Q1,3*
G04 #@! TO.N,/LED2*
X52000000Y-68650000D03*
G04 #@! TD*
G04 #@! TO.P,Q2,3*
G04 #@! TO.N,/LED4*
X92000000Y-68650000D03*
G04 #@! TO.P,Q2,2*
G04 #@! TO.N,GND*
X91050000Y-66350000D03*
G04 #@! TO.P,Q2,1*
G04 #@! TO.N,Net-(Q2-Pad1)*
X92950000Y-66350000D03*
G04 #@! TD*
G04 #@! TO.P,Q3,3*
G04 #@! TO.N,Net-(D3-Pad2)*
X48350000Y-32900000D03*
G04 #@! TO.P,Q3,2*
G04 #@! TO.N,GND*
X47400000Y-30600000D03*
G04 #@! TO.P,Q3,1*
G04 #@! TO.N,Net-(Q3-Pad1)*
X49300000Y-30600000D03*
G04 #@! TD*
G04 #@! TO.P,Q4,1*
G04 #@! TO.N,Net-(Q4-Pad1)*
X32950000Y-66350000D03*
G04 #@! TO.P,Q4,2*
G04 #@! TO.N,GND*
X31050000Y-66350000D03*
G04 #@! TO.P,Q4,3*
G04 #@! TO.N,/LED1*
X32000000Y-68650000D03*
G04 #@! TD*
G04 #@! TO.P,Q5,3*
G04 #@! TO.N,/LED3*
X72000000Y-68650000D03*
G04 #@! TO.P,Q5,2*
G04 #@! TO.N,GND*
X71050000Y-66350000D03*
G04 #@! TO.P,Q5,1*
G04 #@! TO.N,Net-(Q5-Pad1)*
X72950000Y-66350000D03*
G04 #@! TD*
G04 #@! TO.P,Q6,1*
G04 #@! TO.N,Net-(Q6-Pad1)*
X112950000Y-66350000D03*
G04 #@! TO.P,Q6,2*
G04 #@! TO.N,GND*
X111050000Y-66350000D03*
G04 #@! TO.P,Q6,3*
G04 #@! TO.N,/LED5*
X112000000Y-68650000D03*
G04 #@! TD*
D25*
G04 #@! TO.P,R1,2*
G04 #@! TO.N,3v3*
X35000000Y-106700000D03*
G04 #@! TO.P,R1,1*
G04 #@! TO.N,Net-(J2-Pad1)*
X35000000Y-108300000D03*
G04 #@! TD*
D18*
G04 #@! TO.P,R2,1*
G04 #@! TO.N,/PSU_MON*
X36000000Y-57400000D03*
G04 #@! TO.P,R2,2*
G04 #@! TO.N,GND*
X34400000Y-57400000D03*
G04 #@! TD*
G04 #@! TO.P,R3,1*
G04 #@! TO.N,/PSU_MON*
X36000000Y-55800000D03*
G04 #@! TO.P,R3,2*
G04 #@! TO.N,VCC*
X34400000Y-55800000D03*
G04 #@! TD*
D25*
G04 #@! TO.P,R4,2*
G04 #@! TO.N,3v3*
X55000000Y-106700000D03*
G04 #@! TO.P,R4,1*
G04 #@! TO.N,Net-(J4-Pad1)*
X55000000Y-108300000D03*
G04 #@! TD*
G04 #@! TO.P,R5,2*
G04 #@! TO.N,Net-(IC1-Pad5)*
X43000000Y-95800000D03*
G04 #@! TO.P,R5,1*
G04 #@! TO.N,GND*
X43000000Y-94200000D03*
G04 #@! TD*
G04 #@! TO.P,R6,1*
G04 #@! TO.N,GND*
X83000000Y-94200000D03*
G04 #@! TO.P,R6,2*
G04 #@! TO.N,Net-(IC2-Pad5)*
X83000000Y-95800000D03*
G04 #@! TD*
G04 #@! TO.P,R9,1*
G04 #@! TO.N,/CH2*
X43000000Y-99800000D03*
G04 #@! TO.P,R9,2*
G04 #@! TO.N,Net-(IC1-Pad5)*
X43000000Y-98200000D03*
G04 #@! TD*
G04 #@! TO.P,R10,2*
G04 #@! TO.N,Net-(IC2-Pad5)*
X83000000Y-98200000D03*
G04 #@! TO.P,R10,1*
G04 #@! TO.N,/CH4*
X83000000Y-99800000D03*
G04 #@! TD*
G04 #@! TO.P,R11,1*
G04 #@! TO.N,GND*
X39600000Y-57450000D03*
G04 #@! TO.P,R11,2*
G04 #@! TO.N,Net-(IC3-Pad5)*
X39600000Y-59050000D03*
G04 #@! TD*
G04 #@! TO.P,R12,1*
G04 #@! TO.N,Net-(J7-Pad1)*
X75000000Y-108300000D03*
G04 #@! TO.P,R12,2*
G04 #@! TO.N,3v3*
X75000000Y-106700000D03*
G04 #@! TD*
G04 #@! TO.P,R14,1*
G04 #@! TO.N,/FIRE_DIST*
X37900000Y-57400000D03*
G04 #@! TO.P,R14,2*
G04 #@! TO.N,Net-(IC3-Pad5)*
X37900000Y-59000000D03*
G04 #@! TD*
G04 #@! TO.P,R15,1*
G04 #@! TO.N,GND*
X55000000Y-68000000D03*
G04 #@! TO.P,R15,2*
G04 #@! TO.N,Net-(Q1-Pad1)*
X55000000Y-66400000D03*
G04 #@! TD*
G04 #@! TO.P,R16,2*
G04 #@! TO.N,Net-(Q2-Pad1)*
X95000000Y-66400000D03*
G04 #@! TO.P,R16,1*
G04 #@! TO.N,GND*
X95000000Y-68000000D03*
G04 #@! TD*
G04 #@! TO.P,R17,1*
G04 #@! TO.N,Net-(J8-Pad1)*
X95000000Y-108300000D03*
G04 #@! TO.P,R17,2*
G04 #@! TO.N,3v3*
X95000000Y-106700000D03*
G04 #@! TD*
G04 #@! TO.P,R18,2*
G04 #@! TO.N,Net-(Q1-Pad1)*
X57000000Y-66400000D03*
G04 #@! TO.P,R18,1*
G04 #@! TO.N,/CH2_FIRE*
X57000000Y-68000000D03*
G04 #@! TD*
G04 #@! TO.P,R19,1*
G04 #@! TO.N,/CH4_FIRE*
X97000000Y-66450000D03*
G04 #@! TO.P,R19,2*
G04 #@! TO.N,Net-(Q2-Pad1)*
X97000000Y-68050000D03*
G04 #@! TD*
G04 #@! TO.P,R20,2*
G04 #@! TO.N,Net-(Q3-Pad1)*
X51350000Y-30650000D03*
G04 #@! TO.P,R20,1*
G04 #@! TO.N,GND*
X51350000Y-32250000D03*
G04 #@! TD*
G04 #@! TO.P,R21,2*
G04 #@! TO.N,Net-(Q3-Pad1)*
X53350000Y-30650000D03*
G04 #@! TO.P,R21,1*
G04 #@! TO.N,/ARM_SUPPLY*
X53350000Y-32250000D03*
G04 #@! TD*
D18*
G04 #@! TO.P,R22,2*
G04 #@! TO.N,3v3*
X53800000Y-104500000D03*
G04 #@! TO.P,R22,1*
G04 #@! TO.N,/CH2*
X52200000Y-104500000D03*
G04 #@! TD*
G04 #@! TO.P,R23,1*
G04 #@! TO.N,/CH4*
X92200000Y-104500000D03*
G04 #@! TO.P,R23,2*
G04 #@! TO.N,3v3*
X93800000Y-104500000D03*
G04 #@! TD*
D25*
G04 #@! TO.P,R24,1*
G04 #@! TO.N,Net-(J9-Pad1)*
X115000000Y-108300000D03*
G04 #@! TO.P,R24,2*
G04 #@! TO.N,3v3*
X115000000Y-106700000D03*
G04 #@! TD*
D18*
G04 #@! TO.P,R25,1*
G04 #@! TO.N,/CH2*
X52200000Y-102000000D03*
G04 #@! TO.P,R25,2*
G04 #@! TO.N,/CH2_CONT*
X53800000Y-102000000D03*
G04 #@! TD*
G04 #@! TO.P,R26,2*
G04 #@! TO.N,/CH4_CONT*
X93800000Y-102000000D03*
G04 #@! TO.P,R26,1*
G04 #@! TO.N,/CH4*
X92200000Y-102000000D03*
G04 #@! TD*
G04 #@! TO.P,R27,2*
G04 #@! TO.N,/ARM_GRN*
X91100000Y-45600000D03*
G04 #@! TO.P,R27,1*
G04 #@! TO.N,Net-(J12-Pad1)*
X92700000Y-45600000D03*
G04 #@! TD*
D25*
G04 #@! TO.P,R28,1*
G04 #@! TO.N,GND*
X23000000Y-94200000D03*
G04 #@! TO.P,R28,2*
G04 #@! TO.N,Net-(IC4-Pad5)*
X23000000Y-95800000D03*
G04 #@! TD*
G04 #@! TO.P,R29,1*
G04 #@! TO.N,GND*
X63000000Y-94200000D03*
G04 #@! TO.P,R29,2*
G04 #@! TO.N,Net-(IC5-Pad5)*
X63000000Y-95800000D03*
G04 #@! TD*
G04 #@! TO.P,R30,2*
G04 #@! TO.N,Net-(IC6-Pad5)*
X103000000Y-95800000D03*
G04 #@! TO.P,R30,1*
G04 #@! TO.N,GND*
X103000000Y-94200000D03*
G04 #@! TD*
G04 #@! TO.P,R34,1*
G04 #@! TO.N,/CH1*
X23000000Y-99800000D03*
G04 #@! TO.P,R34,2*
G04 #@! TO.N,Net-(IC4-Pad5)*
X23000000Y-98200000D03*
G04 #@! TD*
G04 #@! TO.P,R35,2*
G04 #@! TO.N,Net-(IC5-Pad5)*
X63000000Y-98200000D03*
G04 #@! TO.P,R35,1*
G04 #@! TO.N,/CH3*
X63000000Y-99800000D03*
G04 #@! TD*
G04 #@! TO.P,R36,1*
G04 #@! TO.N,/CH5*
X103000000Y-99800000D03*
G04 #@! TO.P,R36,2*
G04 #@! TO.N,Net-(IC6-Pad5)*
X103000000Y-98200000D03*
G04 #@! TD*
D18*
G04 #@! TO.P,R37,2*
G04 #@! TO.N,Net-(D9-Pad2)*
X41700000Y-26500000D03*
G04 #@! TO.P,R37,1*
G04 #@! TO.N,3v3*
X43300000Y-26500000D03*
G04 #@! TD*
D25*
G04 #@! TO.P,R38,2*
G04 #@! TO.N,Net-(Q4-Pad1)*
X35000000Y-66400000D03*
G04 #@! TO.P,R38,1*
G04 #@! TO.N,GND*
X35000000Y-68000000D03*
G04 #@! TD*
G04 #@! TO.P,R39,2*
G04 #@! TO.N,Net-(Q5-Pad1)*
X75000000Y-66400000D03*
G04 #@! TO.P,R39,1*
G04 #@! TO.N,GND*
X75000000Y-68000000D03*
G04 #@! TD*
G04 #@! TO.P,R40,1*
G04 #@! TO.N,GND*
X115000000Y-68000000D03*
G04 #@! TO.P,R40,2*
G04 #@! TO.N,Net-(Q6-Pad1)*
X115000000Y-66400000D03*
G04 #@! TD*
G04 #@! TO.P,R41,1*
G04 #@! TO.N,/I2C2_SCL*
X118500000Y-85950000D03*
G04 #@! TO.P,R41,2*
G04 #@! TO.N,3v3*
X118500000Y-87550000D03*
G04 #@! TD*
G04 #@! TO.P,R42,2*
G04 #@! TO.N,Net-(Q4-Pad1)*
X37000000Y-66400000D03*
G04 #@! TO.P,R42,1*
G04 #@! TO.N,/CH1_FIRE*
X37000000Y-68000000D03*
G04 #@! TD*
G04 #@! TO.P,R43,1*
G04 #@! TO.N,/CH3_FIRE*
X77000000Y-66400000D03*
G04 #@! TO.P,R43,2*
G04 #@! TO.N,Net-(Q5-Pad1)*
X77000000Y-68000000D03*
G04 #@! TD*
G04 #@! TO.P,R44,1*
G04 #@! TO.N,/CH5_FIRE*
X117000000Y-66350000D03*
G04 #@! TO.P,R44,2*
G04 #@! TO.N,Net-(Q6-Pad1)*
X117000000Y-67950000D03*
G04 #@! TD*
G04 #@! TO.P,R45,2*
G04 #@! TO.N,3v3*
X118500000Y-82700000D03*
G04 #@! TO.P,R45,1*
G04 #@! TO.N,/I2C2_SDA*
X118500000Y-84300000D03*
G04 #@! TD*
D18*
G04 #@! TO.P,R46,2*
G04 #@! TO.N,Net-(D10-Pad2)*
X91900000Y-39800000D03*
G04 #@! TO.P,R46,1*
G04 #@! TO.N,/STATUS*
X90300000Y-39800000D03*
G04 #@! TD*
D26*
G04 #@! TO.P,R47,1*
G04 #@! TO.N,/I2C1_SCL*
X57965685Y-34834315D03*
D27*
G04 #@! TD*
G04 #@! TO.N,/I2C1_SCL*
G04 #@! TO.C,R47*
G36*
X57948007Y-34144886D02*
X58655114Y-34851993D01*
X57983363Y-35523744D01*
X57276256Y-34816637D01*
X57948007Y-34144886D01*
X57948007Y-34144886D01*
G37*
D26*
G04 #@! TO.P,R47,2*
G04 #@! TO.N,3v3*
X56834315Y-35965685D03*
D27*
G04 #@! TD*
G04 #@! TO.N,3v3*
G04 #@! TO.C,R47*
G36*
X56816637Y-35276256D02*
X57523744Y-35983363D01*
X56851993Y-36655114D01*
X56144886Y-35948007D01*
X56816637Y-35276256D01*
X56816637Y-35276256D01*
G37*
D26*
G04 #@! TO.P,R48,2*
G04 #@! TO.N,3v3*
X59434315Y-38265685D03*
D27*
G04 #@! TD*
G04 #@! TO.N,3v3*
G04 #@! TO.C,R48*
G36*
X59416637Y-37576256D02*
X60123744Y-38283363D01*
X59451993Y-38955114D01*
X58744886Y-38248007D01*
X59416637Y-37576256D01*
X59416637Y-37576256D01*
G37*
D26*
G04 #@! TO.P,R48,1*
G04 #@! TO.N,/I2C1_SDA*
X60565685Y-37134315D03*
D27*
G04 #@! TD*
G04 #@! TO.N,/I2C1_SDA*
G04 #@! TO.C,R48*
G36*
X60548007Y-36444886D02*
X61255114Y-37151993D01*
X60583363Y-37823744D01*
X59876256Y-37116637D01*
X60548007Y-36444886D01*
X60548007Y-36444886D01*
G37*
D18*
G04 #@! TO.P,R49,2*
G04 #@! TO.N,3v3*
X33800000Y-104500000D03*
G04 #@! TO.P,R49,1*
G04 #@! TO.N,/CH1*
X32200000Y-104500000D03*
G04 #@! TD*
G04 #@! TO.P,R50,1*
G04 #@! TO.N,/CH3*
X72250000Y-104500000D03*
G04 #@! TO.P,R50,2*
G04 #@! TO.N,3v3*
X73850000Y-104500000D03*
G04 #@! TD*
G04 #@! TO.P,R51,2*
G04 #@! TO.N,3v3*
X113800000Y-104500000D03*
G04 #@! TO.P,R51,1*
G04 #@! TO.N,/CH5*
X112200000Y-104500000D03*
G04 #@! TD*
G04 #@! TO.P,R52,2*
G04 #@! TO.N,/CH1_CONT*
X33800000Y-102100000D03*
G04 #@! TO.P,R52,1*
G04 #@! TO.N,/CH1*
X32200000Y-102100000D03*
G04 #@! TD*
G04 #@! TO.P,R53,2*
G04 #@! TO.N,/CH3_CONT*
X73800000Y-102000000D03*
G04 #@! TO.P,R53,1*
G04 #@! TO.N,/CH3*
X72200000Y-102000000D03*
G04 #@! TD*
G04 #@! TO.P,R54,1*
G04 #@! TO.N,/CH5*
X112200000Y-102000000D03*
G04 #@! TO.P,R54,2*
G04 #@! TO.N,/CH5_CONT*
X113800000Y-102000000D03*
G04 #@! TD*
D14*
G04 #@! TO.P,R55,2*
G04 #@! TO.N,/SDIO_D0*
X100000000Y-31300000D03*
G04 #@! TO.P,R55,1*
G04 #@! TO.N,3v3*
X101400000Y-31300000D03*
G04 #@! TD*
G04 #@! TO.P,R56,1*
G04 #@! TO.N,3v3*
X101400000Y-34000000D03*
G04 #@! TO.P,R56,2*
G04 #@! TO.N,/SDIO_D1*
X100000000Y-34000000D03*
G04 #@! TD*
D13*
G04 #@! TO.P,R57,2*
G04 #@! TO.N,/SDIO_D2*
X85200000Y-27900000D03*
G04 #@! TO.P,R57,1*
G04 #@! TO.N,3v3*
X85200000Y-26500000D03*
G04 #@! TD*
G04 #@! TO.P,R58,1*
G04 #@! TO.N,3v3*
X83500000Y-26500000D03*
G04 #@! TO.P,R58,2*
G04 #@! TO.N,/SDIO_D3*
X83500000Y-27900000D03*
G04 #@! TD*
G04 #@! TO.P,R59,1*
G04 #@! TO.N,3v3*
X81700000Y-26600000D03*
G04 #@! TO.P,R59,2*
G04 #@! TO.N,/SDIO_CMD*
X81700000Y-28000000D03*
G04 #@! TD*
D15*
G04 #@! TO.P,R60,1*
G04 #@! TO.N,Net-(C7-Pad2)*
X66150000Y-41000000D03*
G04 #@! TO.P,R60,2*
G04 #@! TO.N,Net-(IC8-Pad13)*
X67050000Y-41000000D03*
G04 #@! TD*
D28*
G04 #@! TO.P,TP1,1*
G04 #@! TO.N,3v3*
X45500000Y-28100000D03*
G04 #@! TD*
G04 #@! TO.P,TP2,1*
G04 #@! TO.N,/I2C2_SCL*
X82800000Y-54100000D03*
G04 #@! TD*
G04 #@! TO.P,TP3,1*
G04 #@! TO.N,/I2C2_SDA*
X86200000Y-54100000D03*
G04 #@! TD*
G04 #@! TO.P,TP4,1*
G04 #@! TO.N,/I2C1_SCL*
X56000000Y-34000000D03*
G04 #@! TD*
G04 #@! TO.P,TP5,1*
G04 #@! TO.N,/I2C1_SDA*
X62400000Y-36200000D03*
G04 #@! TD*
D29*
G04 #@! TO.P,U1,1*
G04 #@! TO.N,/SDIO_D2*
X117700000Y-25600000D03*
G04 #@! TO.P,U1,2*
G04 #@! TO.N,/SDIO_D3*
X117700000Y-26700000D03*
G04 #@! TO.P,U1,3*
G04 #@! TO.N,/SDIO_CMD*
X117700000Y-27800000D03*
G04 #@! TO.P,U1,4*
G04 #@! TO.N,3v3*
X117700000Y-28900000D03*
G04 #@! TO.P,U1,5*
G04 #@! TO.N,/SDIO_CK*
X117700000Y-29900000D03*
G04 #@! TO.P,U1,6*
G04 #@! TO.N,GND*
X117700000Y-31000000D03*
G04 #@! TO.P,U1,7*
G04 #@! TO.N,/SDIO_D0*
X117700000Y-32100000D03*
G04 #@! TO.P,U1,8*
G04 #@! TO.N,/SDIO_D1*
X117700000Y-33200000D03*
D30*
G04 #@! TO.P,U1,9*
G04 #@! TO.N,GND*
X117685000Y-21720000D03*
D31*
X117200000Y-34380000D03*
D32*
X106435000Y-34460000D03*
X106435000Y-21500000D03*
D33*
G04 #@! TO.P,U1,10*
G04 #@! TO.N,Net-(U1-Pad10)*
X105235000Y-23810000D03*
D34*
G04 #@! TO.P,U1,11*
G04 #@! TO.N,Net-(U1-Pad11)*
X105160000Y-28075000D03*
G04 #@! TD*
D35*
G04 #@! TO.P,Y1,1*
G04 #@! TO.N,Net-(C6-Pad2)*
X67325000Y-38425000D03*
G04 #@! TO.P,Y1,2*
G04 #@! TO.N,GND*
X65875000Y-38425000D03*
G04 #@! TO.P,Y1,3*
G04 #@! TO.N,Net-(C7-Pad2)*
X65875000Y-39575000D03*
G04 #@! TO.P,Y1,4*
G04 #@! TO.N,GND*
X67325000Y-39575000D03*
G04 #@! TD*
D15*
G04 #@! TO.P,D14,1*
G04 #@! TO.N,/USART1_TX*
X108950000Y-42000000D03*
G04 #@! TO.P,D14,2*
G04 #@! TO.N,GND*
X108050000Y-42000000D03*
G04 #@! TD*
G04 #@! TO.P,D15,2*
G04 #@! TO.N,GND*
X108050000Y-40000000D03*
G04 #@! TO.P,D15,1*
G04 #@! TO.N,/USART1_RX*
X108950000Y-40000000D03*
G04 #@! TD*
G04 #@! TO.P,D16,1*
G04 #@! TO.N,/USART2_TX*
X108950000Y-51000000D03*
G04 #@! TO.P,D16,2*
G04 #@! TO.N,GND*
X108050000Y-51000000D03*
G04 #@! TD*
G04 #@! TO.P,D17,2*
G04 #@! TO.N,GND*
X108050000Y-49000000D03*
G04 #@! TO.P,D17,1*
G04 #@! TO.N,/USART2_RX*
X108950000Y-49000000D03*
G04 #@! TD*
D36*
G04 #@! TO.N,GND*
X65875000Y-37325000D03*
X63550000Y-38750000D03*
X69700000Y-39250000D03*
X89500000Y-33500000D03*
X91050000Y-33450000D03*
X85900000Y-33500000D03*
X21800000Y-94200000D03*
X41800000Y-94200000D03*
X61800000Y-94200000D03*
X81700000Y-94200000D03*
X101600000Y-94200000D03*
X30900000Y-85200000D03*
X51000000Y-85200000D03*
X91000000Y-85200000D03*
X111000000Y-85200000D03*
X71250000Y-85200000D03*
X35000000Y-69100000D03*
X31050000Y-65050000D03*
X30050000Y-66350000D03*
X33800000Y-68000000D03*
X39600000Y-56400000D03*
X33100000Y-57400000D03*
X34400000Y-58600000D03*
X45800000Y-45100000D03*
X55000000Y-69200000D03*
X53800000Y-68000000D03*
X49850000Y-66350000D03*
X75000000Y-69300000D03*
X73800000Y-68000000D03*
X69950000Y-66350000D03*
X36500000Y-26500000D03*
X37700000Y-27500000D03*
X34000000Y-21400000D03*
X32500000Y-22500000D03*
X36250000Y-22250000D03*
X34000000Y-23600000D03*
X42700000Y-21900000D03*
X44375000Y-22775000D03*
X44375000Y-21825000D03*
X47000000Y-24600000D03*
X45900000Y-23500000D03*
X73600000Y-37500000D03*
X89850000Y-66350000D03*
X71050000Y-65250000D03*
X91050000Y-65050000D03*
X95000000Y-69300000D03*
X109750000Y-66350000D03*
X111050000Y-65050000D03*
X115000000Y-69200000D03*
X93700000Y-68000000D03*
X114000000Y-68000000D03*
X73000000Y-48800000D03*
X67500000Y-42400000D03*
X67500000Y-43600000D03*
X67500000Y-44800000D03*
X73500000Y-42500000D03*
X67600000Y-35500000D03*
X67600000Y-37000000D03*
X64400000Y-37700000D03*
X47400000Y-29500000D03*
X46300000Y-30600000D03*
X51350000Y-33450000D03*
X50250000Y-32250000D03*
X85600000Y-50800000D03*
X86800000Y-50800000D03*
X89730000Y-25530000D03*
X74250000Y-32850000D03*
X76750000Y-29650000D03*
X68550000Y-34650000D03*
X77500000Y-33600000D03*
X73700000Y-26700000D03*
X74800000Y-29600000D03*
X74750000Y-27750000D03*
X96600000Y-39800000D03*
X95400000Y-40900000D03*
X103800000Y-21500000D03*
X109100000Y-21500000D03*
X116300000Y-31000000D03*
X109060000Y-34460000D03*
X115720000Y-21720000D03*
X117685000Y-23185000D03*
X114820000Y-34380000D03*
X103840000Y-34460000D03*
X117200000Y-35600000D03*
X99200000Y-35400000D03*
X22500000Y-117500000D03*
X27500000Y-117500000D03*
X32500000Y-117500000D03*
X42500000Y-117500000D03*
X47500000Y-117500000D03*
X37500000Y-117500000D03*
X62500000Y-117500000D03*
X52500000Y-117500000D03*
X57500000Y-117500000D03*
X77500000Y-117500000D03*
X67500000Y-117500000D03*
X72500000Y-117500000D03*
X82500000Y-117500000D03*
X87500000Y-117500000D03*
X92500000Y-117500000D03*
X97500000Y-117500000D03*
X102500000Y-117500000D03*
X107500000Y-117500000D03*
X117500000Y-117500000D03*
X112500000Y-117500000D03*
X22500000Y-22500000D03*
X22500000Y-27500000D03*
X22500000Y-32500000D03*
X22500000Y-37500000D03*
X22500000Y-42500000D03*
X30000000Y-37500000D03*
X30000000Y-27500000D03*
X106900000Y-42000000D03*
X106900000Y-40000000D03*
X107000000Y-49000000D03*
X107000000Y-51000000D03*
G04 #@! TO.N,Net-(IC1-Pad5)*
X56000000Y-87900000D03*
G04 #@! TO.N,/I2C1_SCL*
X50900000Y-43500000D03*
X76250000Y-34350000D03*
X65600000Y-34200000D03*
G04 #@! TO.N,/I2C1_SDA*
X50900000Y-45100000D03*
X75000000Y-34300000D03*
X66800000Y-34300000D03*
G04 #@! TO.N,Net-(IC2-Pad5)*
X93250000Y-87500000D03*
G04 #@! TO.N,/FIRE_DIST*
X37900000Y-56200000D03*
G04 #@! TO.N,Net-(IC3-Pad5)*
X40900000Y-44900000D03*
X36500000Y-59000000D03*
X39600000Y-54100000D03*
G04 #@! TO.N,3v3*
X90150000Y-31650000D03*
X116800000Y-82700000D03*
X116800000Y-87550000D03*
X118500000Y-58750000D03*
X117250000Y-58750000D03*
X44500000Y-26300000D03*
X45500000Y-26300000D03*
X46500000Y-26300000D03*
X73000000Y-49900000D03*
X69450000Y-45750000D03*
X87650000Y-49150000D03*
X92270000Y-25830000D03*
X69450000Y-36250000D03*
X55900000Y-36900000D03*
X58600000Y-39100000D03*
X72450000Y-28650000D03*
X116300000Y-28900000D03*
X102400000Y-34000000D03*
X102400000Y-31300000D03*
X83500000Y-25600000D03*
G04 #@! TO.N,/CH2_CONT*
X58150000Y-102100000D03*
X58150000Y-83000000D03*
X74700000Y-40000000D03*
X74700000Y-53100000D03*
G04 #@! TO.N,/CH4_CONT*
X76500000Y-41100000D03*
X76500000Y-53100000D03*
X96000000Y-82750000D03*
X96000000Y-87500000D03*
G04 #@! TO.N,/CH1_CONT*
X37750000Y-82750000D03*
X36000000Y-87250000D03*
X73800000Y-39500000D03*
X73800000Y-52200000D03*
G04 #@! TO.N,/CH3_CONT*
X78400000Y-102100000D03*
X78400000Y-83150000D03*
X75600000Y-40500000D03*
X75600000Y-52300000D03*
G04 #@! TO.N,/CH5_CONT*
X115300000Y-87500000D03*
X115300000Y-82700000D03*
G04 #@! TO.N,Net-(IC4-Pad5)*
X33250000Y-87250000D03*
G04 #@! TO.N,Net-(IC5-Pad5)*
X76000000Y-87500000D03*
G04 #@! TO.N,Net-(IC6-Pad5)*
X113600000Y-87500000D03*
G04 #@! TO.N,/CH2_FIRE*
X58100000Y-68000000D03*
X58100000Y-63900000D03*
X78800000Y-54800000D03*
X72200000Y-54800000D03*
G04 #@! TO.N,/CH1_FIRE*
X73000000Y-54000000D03*
X78100000Y-54000000D03*
G04 #@! TO.N,/CH3_FIRE*
X77000000Y-59900000D03*
X78900000Y-56000000D03*
G04 #@! TO.N,/~RST*
X70500000Y-41200000D03*
X74700000Y-38500000D03*
X85700000Y-38500000D03*
X93300000Y-34900000D03*
G04 #@! TO.N,/I2C2_SDA*
X33500000Y-84500000D03*
X53600000Y-84500000D03*
X73850000Y-84500000D03*
X93600000Y-84500000D03*
X113600000Y-84500000D03*
X84400000Y-62100000D03*
X82500000Y-64000000D03*
X82500000Y-80800000D03*
X82500000Y-84500000D03*
G04 #@! TO.N,/I2C2_SCL*
X34100000Y-85900000D03*
X54200000Y-85900000D03*
X74450000Y-85900000D03*
X94200000Y-85900000D03*
X113400000Y-85900000D03*
X83700000Y-61300000D03*
X81800000Y-63200000D03*
X81800000Y-79800000D03*
X81800000Y-85900000D03*
G04 #@! TO.N,/USART2_TX*
X83700000Y-42100000D03*
X89400000Y-42900000D03*
G04 #@! TO.N,/USART2_RX*
X84800000Y-42100000D03*
X90100000Y-42100000D03*
G04 #@! TO.N,/SDIO_D0*
X93400000Y-38300000D03*
X94700000Y-34900000D03*
G04 #@! TO.N,/SDIO_D1*
X94400000Y-37200000D03*
X96000000Y-34900000D03*
G04 #@! TO.N,/SDIO_D2*
X84750000Y-33550000D03*
X94500000Y-30800000D03*
G04 #@! TO.N,/SDIO_D3*
X83500000Y-33500000D03*
X95700000Y-30600000D03*
G04 #@! TO.N,/SDIO_CK*
X97400000Y-31000000D03*
X83000000Y-29100000D03*
G04 #@! TO.N,/SDIO_CMD*
X82250000Y-33450000D03*
X95700000Y-31600000D03*
G04 #@! TD*
D37*
G04 #@! TO.N,VCC*
X34400000Y-52240000D02*
X33910000Y-51750000D01*
X33910000Y-51750000D02*
X33910000Y-54310000D01*
X34400000Y-54800000D02*
X34400000Y-55800000D01*
X33910000Y-54310000D02*
X34400000Y-54800000D01*
X43600000Y-36910000D02*
X43600000Y-32700000D01*
X43150000Y-32250000D02*
X42355000Y-32250000D01*
X43600000Y-32700000D02*
X43150000Y-32250000D01*
X36910000Y-46400000D02*
X36910000Y-48250000D01*
X36910000Y-46090000D02*
X36910000Y-46400000D01*
X43600000Y-39400000D02*
X36910000Y-46090000D01*
X43600000Y-36910000D02*
X43600000Y-39400000D01*
D38*
G04 #@! TO.N,GND*
X68800000Y-39250000D02*
X68250000Y-39250000D01*
X67925000Y-39575000D02*
X67325000Y-39575000D01*
X64400000Y-38750000D02*
X64750000Y-38750000D01*
X65075000Y-38425000D02*
X65875000Y-38425000D01*
X64750000Y-38750000D02*
X65075000Y-38425000D01*
X65875000Y-38425000D02*
X65875000Y-37325000D01*
X64400000Y-38750000D02*
X63550000Y-38750000D01*
X68100000Y-39400000D02*
X67925000Y-39575000D01*
X68250000Y-39250000D02*
X68100000Y-39400000D01*
X68800000Y-39250000D02*
X69700000Y-39250000D01*
X87450000Y-33500000D02*
X89300000Y-33500000D01*
X89300000Y-33500000D02*
X89500000Y-33500000D01*
X91050000Y-32600000D02*
X91050000Y-33450000D01*
X91050000Y-33450000D02*
X91050000Y-34400000D01*
X87450000Y-33500000D02*
X85900000Y-33500000D01*
X23000000Y-94200000D02*
X21800000Y-94200000D01*
X43000000Y-94200000D02*
X42000000Y-94200000D01*
X42000000Y-94200000D02*
X41800000Y-94200000D01*
X63000000Y-94200000D02*
X61800000Y-94200000D01*
X83000000Y-94200000D02*
X81700000Y-94200000D01*
X103000000Y-94200000D02*
X101600000Y-94200000D01*
D39*
X35000000Y-68000000D02*
X35000000Y-69100000D01*
X35000000Y-68000000D02*
X33800000Y-68000000D01*
D37*
X34400000Y-57400000D02*
X33100000Y-57400000D01*
X34400000Y-57400000D02*
X34400000Y-58600000D01*
X55000000Y-68000000D02*
X55000000Y-69200000D01*
X55000000Y-68000000D02*
X53800000Y-68000000D01*
X51050000Y-66350000D02*
X49850000Y-66350000D01*
X75000000Y-68000000D02*
X75000000Y-69300000D01*
X75000000Y-68000000D02*
X73800000Y-68000000D01*
X71050000Y-66350000D02*
X69950000Y-66350000D01*
X37700000Y-26500000D02*
X36500000Y-26500000D01*
X37700000Y-26500000D02*
X37700000Y-27500000D01*
X34000000Y-22500000D02*
X34000000Y-21400000D01*
X34000000Y-22500000D02*
X32500000Y-22500000D01*
X36250000Y-23300000D02*
X36250000Y-22250000D01*
X34000000Y-22500000D02*
X34000000Y-23600000D01*
X42700000Y-22775000D02*
X43800000Y-22775000D01*
X42700000Y-22775000D02*
X42700000Y-21900000D01*
X43800000Y-22775000D02*
X44375000Y-22775000D01*
X44375000Y-22775000D02*
X44375000Y-21825000D01*
X45900000Y-24600000D02*
X47000000Y-24600000D01*
X45900000Y-24600000D02*
X45900000Y-23500000D01*
D38*
X72050000Y-37500000D02*
X73600000Y-37500000D01*
D37*
X39600000Y-56400000D02*
X39600000Y-57450000D01*
X31050000Y-66350000D02*
X31050000Y-65050000D01*
X31050000Y-66350000D02*
X30050000Y-66350000D01*
X91050000Y-66350000D02*
X89850000Y-66350000D01*
X71050000Y-66350000D02*
X71050000Y-65250000D01*
X91050000Y-66350000D02*
X91050000Y-65050000D01*
X95000000Y-68000000D02*
X95000000Y-69300000D01*
X111050000Y-66350000D02*
X109750000Y-66350000D01*
X111050000Y-66350000D02*
X111050000Y-65050000D01*
X115000000Y-68000000D02*
X115000000Y-69200000D01*
X95000000Y-68000000D02*
X93700000Y-68000000D01*
X115000000Y-68000000D02*
X114000000Y-68000000D01*
D38*
X74250000Y-46700000D02*
X74250000Y-47850000D01*
X74050000Y-48050000D02*
X74050000Y-48800000D01*
X74250000Y-47850000D02*
X74050000Y-48050000D01*
X68550000Y-41200000D02*
X68550000Y-42400000D01*
X68550000Y-42400000D02*
X68550000Y-43600000D01*
X68550000Y-43600000D02*
X68550000Y-44800000D01*
X68550000Y-42400000D02*
X67500000Y-42400000D01*
X68550000Y-43600000D02*
X67500000Y-43600000D01*
X68550000Y-44800000D02*
X67500000Y-44800000D01*
X72050000Y-42500000D02*
X73500000Y-42500000D01*
X68550000Y-35500000D02*
X67600000Y-35500000D01*
X68550000Y-37000000D02*
X67600000Y-37000000D01*
X64400000Y-38750000D02*
X64400000Y-37700000D01*
X73000000Y-48800000D02*
X74050000Y-48800000D01*
D37*
X47400000Y-30600000D02*
X47400000Y-29500000D01*
X47400000Y-30600000D02*
X46300000Y-30600000D01*
X51350000Y-32250000D02*
X51350000Y-33450000D01*
X51350000Y-32250000D02*
X50250000Y-32250000D01*
D38*
X85600000Y-50050000D02*
X85600000Y-50800000D01*
X86800000Y-50050000D02*
X86800000Y-50800000D01*
D37*
X89730000Y-26960000D02*
X89730000Y-25530000D01*
D38*
X74250000Y-31300000D02*
X74250000Y-32850000D01*
X76750000Y-31300000D02*
X76750000Y-32850000D01*
X76750000Y-31300000D02*
X76750000Y-29650000D01*
X68550000Y-35500000D02*
X68550000Y-37000000D01*
X68550000Y-35500000D02*
X68550000Y-34650000D01*
X76750000Y-32850000D02*
X77500000Y-33600000D01*
X73700000Y-27750000D02*
X73700000Y-26700000D01*
X74250000Y-31300000D02*
X74250000Y-30150000D01*
X74250000Y-30150000D02*
X74800000Y-29600000D01*
X73700000Y-27750000D02*
X74750000Y-27750000D01*
X95400000Y-39800000D02*
X96600000Y-39800000D01*
X95400000Y-39800000D02*
X95400000Y-40900000D01*
D39*
X117700000Y-31000000D02*
X116950000Y-31000000D01*
X116950000Y-31000000D02*
X116300000Y-31000000D01*
D37*
X109060000Y-34460000D02*
X106435000Y-34460000D01*
X109100000Y-21500000D02*
X106435000Y-21500000D01*
X103800000Y-21500000D02*
X106435000Y-21500000D01*
X117685000Y-21720000D02*
X115720000Y-21720000D01*
X117685000Y-21720000D02*
X117685000Y-23185000D01*
X117200000Y-34380000D02*
X114820000Y-34380000D01*
X106435000Y-34460000D02*
X103840000Y-34460000D01*
X117200000Y-34380000D02*
X117200000Y-35160000D01*
X117200000Y-35160000D02*
X117200000Y-35600000D01*
X106150000Y-34745000D02*
X106435000Y-34460000D01*
D39*
X100250000Y-35400000D02*
X99200000Y-35400000D01*
X108050000Y-42000000D02*
X106900000Y-42000000D01*
X108050000Y-40000000D02*
X106900000Y-40000000D01*
X108050000Y-49000000D02*
X107000000Y-49000000D01*
X108050000Y-51000000D02*
X107000000Y-51000000D01*
D37*
G04 #@! TO.N,Net-(IC1-Pad5)*
X43000000Y-95800000D02*
X48100000Y-95800000D01*
X48100000Y-95800000D02*
X51000000Y-92900000D01*
X43000000Y-98200000D02*
X43000000Y-95800000D01*
X51000000Y-92900000D02*
X56000000Y-87900000D01*
D39*
G04 #@! TO.N,/I2C1_SCL*
X76250000Y-31300000D02*
X76250000Y-34350000D01*
X60200000Y-34200000D02*
X65600000Y-34200000D01*
X57965685Y-34965685D02*
X58700000Y-35700000D01*
X57965685Y-34834315D02*
X57965685Y-34965685D01*
X50900000Y-43500000D02*
X58700000Y-35700000D01*
X58700000Y-35700000D02*
X60200000Y-34200000D01*
X57131370Y-34000000D02*
X57965685Y-34834315D01*
X56000000Y-34000000D02*
X57131370Y-34000000D01*
G04 #@! TO.N,/I2C1_SDA*
X75750000Y-33550000D02*
X75000000Y-34300000D01*
X75750000Y-31300000D02*
X75750000Y-33550000D01*
X65900000Y-35200000D02*
X66800000Y-34300000D01*
X60800000Y-35200000D02*
X65900000Y-35200000D01*
X60334315Y-37134315D02*
X59600000Y-36400000D01*
X60565685Y-37134315D02*
X60334315Y-37134315D01*
X50900000Y-45100000D02*
X59600000Y-36400000D01*
X59600000Y-36400000D02*
X60800000Y-35200000D01*
X61500000Y-36200000D02*
X60565685Y-37134315D01*
X62400000Y-36200000D02*
X61500000Y-36200000D01*
D37*
G04 #@! TO.N,Net-(IC2-Pad5)*
X83000000Y-95800000D02*
X83000000Y-98200000D01*
X83000000Y-95800000D02*
X87950000Y-95800000D01*
X87950000Y-95800000D02*
X93250000Y-90500000D01*
X93250000Y-90500000D02*
X93250000Y-87500000D01*
G04 #@! TO.N,/FIRE_DIST*
X27000000Y-72660000D02*
X27000000Y-68400000D01*
X26600000Y-68000000D02*
X25755000Y-68000000D01*
X27000000Y-68400000D02*
X26600000Y-68000000D01*
X43300000Y-62550000D02*
X43600000Y-62250000D01*
X47000000Y-72660000D02*
X47000000Y-68300000D01*
X46700000Y-68000000D02*
X45755000Y-68000000D01*
X47000000Y-68300000D02*
X46700000Y-68000000D01*
X67000000Y-72660000D02*
X67000000Y-68700000D01*
X66550000Y-68250000D02*
X65755000Y-68250000D01*
X67000000Y-68700000D02*
X66550000Y-68250000D01*
X37900000Y-57400000D02*
X37900000Y-56200000D01*
X87000000Y-72660000D02*
X87000000Y-68800000D01*
X86450000Y-68250000D02*
X85755000Y-68250000D01*
X87000000Y-68800000D02*
X86450000Y-68250000D01*
X107000000Y-72700000D02*
X107000000Y-68600000D01*
X106650000Y-68250000D02*
X105755000Y-68250000D01*
X107000000Y-68600000D02*
X106650000Y-68250000D01*
G04 #@! TO.N,Net-(IC3-Pad5)*
X39550000Y-59000000D02*
X39600000Y-59050000D01*
X37900000Y-59000000D02*
X39550000Y-59000000D01*
X37900000Y-59000000D02*
X36500000Y-59000000D01*
X40900000Y-52800000D02*
X39600000Y-54100000D01*
X40900000Y-44900000D02*
X40900000Y-52800000D01*
D39*
G04 #@! TO.N,Net-(Q1-Pad1)*
X54950000Y-66350000D02*
X55000000Y-66400000D01*
X52950000Y-66350000D02*
X54950000Y-66350000D01*
X55000000Y-66400000D02*
X57000000Y-66400000D01*
G04 #@! TO.N,Net-(Q2-Pad1)*
X94950000Y-66350000D02*
X95000000Y-66400000D01*
X92950000Y-66350000D02*
X94950000Y-66350000D01*
X95000000Y-66400000D02*
X95800000Y-66400000D01*
X95800000Y-66400000D02*
X96000000Y-66600000D01*
X96000000Y-66600000D02*
X96000000Y-67800000D01*
X96250000Y-68050000D02*
X97000000Y-68050000D01*
X96000000Y-67800000D02*
X96250000Y-68050000D01*
D37*
G04 #@! TO.N,Net-(D3-Pad2)*
X45625000Y-32250000D02*
X46450000Y-32250000D01*
X47100000Y-32900000D02*
X48350000Y-32900000D01*
X46450000Y-32250000D02*
X47100000Y-32900000D01*
X48350000Y-34160000D02*
X51100000Y-36910000D01*
X48350000Y-32900000D02*
X48350000Y-34160000D01*
G04 #@! TO.N,3v3*
X42700000Y-23425000D02*
X41625000Y-23425000D01*
X41200000Y-23000000D02*
X41200000Y-21250000D01*
X41625000Y-23425000D02*
X41200000Y-23000000D01*
X42700000Y-23425000D02*
X42700000Y-24075000D01*
X42700000Y-24075000D02*
X42700000Y-24725000D01*
D38*
X72050000Y-35500000D02*
X70700000Y-35500000D01*
X72050000Y-38000000D02*
X70900000Y-38000000D01*
X69900000Y-37000000D02*
X69450000Y-37000000D01*
X70900000Y-38000000D02*
X69900000Y-37000000D01*
X70700000Y-35500000D02*
X69450000Y-35500000D01*
X85750000Y-46700000D02*
X85750000Y-47650000D01*
X86800000Y-48700000D02*
X86800000Y-49150000D01*
X73750000Y-28700000D02*
X73700000Y-28650000D01*
X73750000Y-31300000D02*
X73750000Y-28700000D01*
X72050000Y-43000000D02*
X70800000Y-43000000D01*
X69450000Y-44800000D02*
X69450000Y-44200000D01*
X69450000Y-44200000D02*
X69450000Y-43600000D01*
X87450000Y-33000000D02*
X88700000Y-33000000D01*
X89100000Y-32600000D02*
X90150000Y-32600000D01*
X88700000Y-33000000D02*
X89100000Y-32600000D01*
X90150000Y-32600000D02*
X90150000Y-31650000D01*
D37*
X33800000Y-104500000D02*
X34500000Y-104500000D01*
X34900000Y-104900000D02*
X36000000Y-104900000D01*
X34500000Y-104500000D02*
X34900000Y-104900000D01*
X73800000Y-104550000D02*
X73850000Y-104500000D01*
X53800000Y-104500000D02*
X54600000Y-104500000D01*
X55000000Y-104900000D02*
X56250000Y-104900000D01*
X54600000Y-104500000D02*
X55000000Y-104900000D01*
X73850000Y-104500000D02*
X74700000Y-104500000D01*
X75100000Y-104900000D02*
X76500000Y-104900000D01*
X74700000Y-104500000D02*
X75100000Y-104900000D01*
X113800000Y-104500000D02*
X114800000Y-104500000D01*
X115200000Y-104900000D02*
X116750000Y-104900000D01*
X114800000Y-104500000D02*
X115200000Y-104900000D01*
D39*
X118500000Y-82700000D02*
X116800000Y-82700000D01*
X118500000Y-87550000D02*
X116800000Y-87550000D01*
D37*
X118500000Y-58500000D02*
X118500000Y-58750000D01*
X118500000Y-82700000D02*
X118500000Y-58750000D01*
X118500000Y-58750000D02*
X117250000Y-58750000D01*
X118500000Y-87550000D02*
X118500000Y-105000000D01*
X116850000Y-105000000D02*
X116750000Y-104900000D01*
X118500000Y-105000000D02*
X116850000Y-105000000D01*
X115000000Y-105100000D02*
X115000000Y-106700000D01*
X115200000Y-104900000D02*
X115000000Y-105100000D01*
X75000000Y-105000000D02*
X75000000Y-106700000D01*
X75100000Y-104900000D02*
X75000000Y-105000000D01*
X55000000Y-104900000D02*
X55000000Y-106700000D01*
X35000000Y-105000000D02*
X35000000Y-106700000D01*
X34900000Y-104900000D02*
X35000000Y-105000000D01*
X35000000Y-106700000D02*
X40200000Y-106700000D01*
X40200000Y-106700000D02*
X42750000Y-109250000D01*
X42750000Y-109250000D02*
X49250000Y-109250000D01*
X51800000Y-106700000D02*
X55000000Y-106700000D01*
X49250000Y-109250000D02*
X51800000Y-106700000D01*
X55000000Y-106700000D02*
X60200000Y-106700000D01*
X60200000Y-106700000D02*
X62500000Y-109000000D01*
X62500000Y-109000000D02*
X69500000Y-109000000D01*
X71800000Y-106700000D02*
X75000000Y-106700000D01*
X69500000Y-109000000D02*
X71800000Y-106700000D01*
X75000000Y-106700000D02*
X80700000Y-106700000D01*
X80700000Y-106700000D02*
X83000000Y-109000000D01*
X83000000Y-109000000D02*
X89250000Y-109000000D01*
X91550000Y-106700000D02*
X95000000Y-106700000D01*
X89250000Y-109000000D02*
X91550000Y-106700000D01*
X95000000Y-106700000D02*
X100700000Y-106700000D01*
X100700000Y-106700000D02*
X103000000Y-109000000D01*
X103000000Y-109000000D02*
X109000000Y-109000000D01*
X111300000Y-106700000D02*
X115000000Y-106700000D01*
X109000000Y-109000000D02*
X111300000Y-106700000D01*
X95000000Y-106700000D02*
X95000000Y-105000000D01*
X95350000Y-104650000D02*
X96750000Y-104650000D01*
X93800000Y-104500000D02*
X94900000Y-104500000D01*
X94900000Y-104500000D02*
X95200000Y-104800000D01*
X95000000Y-105000000D02*
X95200000Y-104800000D01*
X95200000Y-104800000D02*
X95350000Y-104650000D01*
X44375000Y-24725000D02*
X44500000Y-24600000D01*
X42700000Y-24725000D02*
X44375000Y-24725000D01*
X44500000Y-24600000D02*
X44500000Y-26300000D01*
X43500000Y-26300000D02*
X43300000Y-26500000D01*
X44500000Y-26300000D02*
X43500000Y-26300000D01*
X44500000Y-26300000D02*
X45500000Y-26300000D01*
X45500000Y-26300000D02*
X46500000Y-26300000D01*
D38*
X69450000Y-42400000D02*
X69450000Y-43000000D01*
X69450000Y-43000000D02*
X69450000Y-43600000D01*
X74750000Y-46700000D02*
X74750000Y-47850000D01*
X74950000Y-48050000D02*
X74950000Y-48800000D01*
X74750000Y-47850000D02*
X74950000Y-48050000D01*
X74950000Y-48800000D02*
X74950000Y-49550000D01*
X74950000Y-49550000D02*
X74600000Y-49900000D01*
X74600000Y-49900000D02*
X73000000Y-49900000D01*
X72050000Y-42000000D02*
X70800000Y-42000000D01*
X70800000Y-42000000D02*
X70700000Y-42100000D01*
X70800000Y-43500000D02*
X72050000Y-43500000D01*
X70700000Y-43400000D02*
X70700000Y-42100000D01*
X70700000Y-43400000D02*
X70800000Y-43500000D01*
X70700000Y-42100000D02*
X70700000Y-43100000D01*
X70700000Y-43100000D02*
X70700000Y-43400000D01*
X72050000Y-43000000D02*
X69450000Y-43000000D01*
X69450000Y-44800000D02*
X69450000Y-45750000D01*
X86200000Y-48100000D02*
X86800000Y-48700000D01*
X85750000Y-47650000D02*
X86200000Y-48100000D01*
X86800000Y-49150000D02*
X87650000Y-49150000D01*
D39*
X92270000Y-26960000D02*
X92270000Y-26070000D01*
D37*
X92270000Y-25830000D02*
X92270000Y-26960000D01*
D38*
X69450000Y-35500000D02*
X69450000Y-36250000D01*
X69450000Y-36250000D02*
X69450000Y-37000000D01*
D39*
X56834315Y-35965685D02*
X56100000Y-36700000D01*
X56100000Y-36700000D02*
X55900000Y-36900000D01*
X59434315Y-38265685D02*
X58600000Y-39100000D01*
D38*
X73700000Y-28650000D02*
X72450000Y-28650000D01*
D39*
X45500000Y-26300000D02*
X45500000Y-28100000D01*
X117700000Y-28900000D02*
X116950000Y-28900000D01*
X116950000Y-28900000D02*
X116300000Y-28900000D01*
X101400000Y-34000000D02*
X102400000Y-34000000D01*
X101400000Y-31300000D02*
X102400000Y-31300000D01*
X81700000Y-26600000D02*
X85200000Y-26600000D01*
X83500000Y-26600000D02*
X83500000Y-25600000D01*
X101150000Y-35400000D02*
X101150000Y-34950000D01*
X101150000Y-34950000D02*
X101400000Y-34700000D01*
X101400000Y-34700000D02*
X101400000Y-34000000D01*
D37*
G04 #@! TO.N,/CH2_CONT*
X56150000Y-102000000D02*
X56250000Y-102100000D01*
X53800000Y-102000000D02*
X56150000Y-102000000D01*
D39*
X56250000Y-102100000D02*
X58150000Y-102100000D01*
X58150000Y-83000000D02*
X58150000Y-72950000D01*
X72050000Y-40500000D02*
X74100000Y-40500000D01*
X74100000Y-40500000D02*
X74200000Y-40500000D01*
X74200000Y-40500000D02*
X74700000Y-40000000D01*
X74700000Y-53100000D02*
X74700000Y-56400000D01*
X74700000Y-56400000D02*
X74100000Y-57000000D01*
X58150000Y-72950000D02*
X74100000Y-57000000D01*
D37*
G04 #@! TO.N,/CH4_CONT*
X96600000Y-102000000D02*
X96750000Y-101850000D01*
X93800000Y-102000000D02*
X96600000Y-102000000D01*
D39*
X72050000Y-41500000D02*
X76100000Y-41500000D01*
X76100000Y-41500000D02*
X76500000Y-41100000D01*
X96750000Y-88250000D02*
X96000000Y-87500000D01*
X80450000Y-82750000D02*
X79000000Y-81300000D01*
X96000000Y-82750000D02*
X80450000Y-82750000D01*
X96750000Y-101850000D02*
X96750000Y-88250000D01*
X76500000Y-53100000D02*
X76500000Y-56400000D01*
X79000000Y-81300000D02*
X79000000Y-58900000D01*
X76500000Y-56400000D02*
X79000000Y-58900000D01*
D37*
G04 #@! TO.N,/CH1_CONT*
X33800000Y-102100000D02*
X36000000Y-102100000D01*
D39*
X36000000Y-102100000D02*
X36000000Y-100000000D01*
X36000000Y-100000000D02*
X36750000Y-99250000D01*
X36750000Y-99250000D02*
X36750000Y-88000000D01*
X36750000Y-88000000D02*
X36000000Y-87250000D01*
X37750000Y-82750000D02*
X37750000Y-69650000D01*
X37750000Y-69650000D02*
X38500000Y-68900000D01*
X38500000Y-68900000D02*
X42100000Y-65300000D01*
X42100000Y-65300000D02*
X64900000Y-65300000D01*
X72050000Y-40000000D02*
X73300000Y-40000000D01*
X73300000Y-40000000D02*
X73800000Y-39500000D01*
X73800000Y-52200000D02*
X73800000Y-56400000D01*
X73800000Y-56400000D02*
X73600000Y-56600000D01*
X64900000Y-65300000D02*
X73600000Y-56600000D01*
D37*
G04 #@! TO.N,/CH3_CONT*
X76400000Y-102000000D02*
X76500000Y-102100000D01*
X73800000Y-102000000D02*
X76400000Y-102000000D01*
D39*
X76500000Y-102100000D02*
X78400000Y-102100000D01*
X72050000Y-41000000D02*
X75100000Y-41000000D01*
X75100000Y-41000000D02*
X75600000Y-40500000D01*
X75600000Y-54400000D02*
X75600000Y-56400000D01*
X75600000Y-52300000D02*
X75600000Y-54400000D01*
X78400000Y-59200000D02*
X78400000Y-59700000D01*
X78400000Y-83150000D02*
X78400000Y-59700000D01*
X75600000Y-56400000D02*
X78400000Y-59200000D01*
D37*
G04 #@! TO.N,/CH5_CONT*
X116650000Y-102000000D02*
X116750000Y-102100000D01*
X113800000Y-102000000D02*
X116650000Y-102000000D01*
D39*
X116750000Y-102100000D02*
X116750000Y-88950000D01*
X116750000Y-88950000D02*
X115300000Y-87500000D01*
X79700000Y-80800000D02*
X80900000Y-82000000D01*
X114600000Y-82000000D02*
X115300000Y-82700000D01*
X79700000Y-58700000D02*
X79700000Y-80800000D01*
X80900000Y-82000000D02*
X114600000Y-82000000D01*
X77250000Y-56250000D02*
X79700000Y-58700000D01*
X77250000Y-46700000D02*
X77250000Y-56250000D01*
D37*
G04 #@! TO.N,Net-(IC4-Pad5)*
X23000000Y-95800000D02*
X23000000Y-98200000D01*
X23000000Y-95800000D02*
X27800000Y-95800000D01*
X33250000Y-90350000D02*
X33250000Y-87250000D01*
X27800000Y-95800000D02*
X33250000Y-90350000D01*
G04 #@! TO.N,Net-(IC5-Pad5)*
X63000000Y-95800000D02*
X63000000Y-98200000D01*
X63000000Y-95800000D02*
X67700000Y-95800000D01*
X67700000Y-95800000D02*
X76000000Y-87500000D01*
G04 #@! TO.N,Net-(IC6-Pad5)*
X103000000Y-95800000D02*
X103000000Y-98200000D01*
X103000000Y-95800000D02*
X107200000Y-95800000D01*
X107200000Y-95800000D02*
X113600000Y-89400000D01*
X113600000Y-89400000D02*
X113600000Y-87500000D01*
G04 #@! TO.N,/CH2*
X52190000Y-103590000D02*
X52200000Y-103600000D01*
X47750000Y-103590000D02*
X52190000Y-103590000D01*
X52200000Y-102000000D02*
X52200000Y-103600000D01*
X52200000Y-103600000D02*
X52200000Y-104500000D01*
X44250000Y-103590000D02*
X44250000Y-101850000D01*
X44250000Y-101850000D02*
X43000000Y-100600000D01*
X43000000Y-100600000D02*
X43000000Y-99800000D01*
G04 #@! TO.N,/CH4*
X92110000Y-103590000D02*
X92200000Y-103500000D01*
X87750000Y-103590000D02*
X92110000Y-103590000D01*
X92200000Y-102000000D02*
X92200000Y-103500000D01*
X92200000Y-103500000D02*
X92200000Y-104500000D01*
X83000000Y-100800000D02*
X84250000Y-102050000D01*
X83000000Y-99800000D02*
X83000000Y-100800000D01*
X84250000Y-102050000D02*
X84250000Y-103590000D01*
G04 #@! TO.N,/CH1*
X27750000Y-103590000D02*
X32110000Y-103590000D01*
X32110000Y-103590000D02*
X32200000Y-103500000D01*
X32200000Y-104500000D02*
X32200000Y-103500000D01*
X32200000Y-103500000D02*
X32200000Y-102100000D01*
X23000000Y-99800000D02*
X23000000Y-100700000D01*
X24250000Y-101950000D02*
X24250000Y-103590000D01*
X23000000Y-100700000D02*
X24250000Y-101950000D01*
G04 #@! TO.N,/CH3*
X72200000Y-104450000D02*
X72250000Y-104500000D01*
X72190000Y-103590000D02*
X72200000Y-103600000D01*
X67750000Y-103590000D02*
X72190000Y-103590000D01*
X72200000Y-102000000D02*
X72200000Y-103600000D01*
X72200000Y-103600000D02*
X72200000Y-104450000D01*
X64250000Y-103590000D02*
X64250000Y-101950000D01*
X64250000Y-101950000D02*
X63000000Y-100700000D01*
X63000000Y-100700000D02*
X63000000Y-99800000D01*
G04 #@! TO.N,/CH5*
X112190000Y-103590000D02*
X112200000Y-103600000D01*
X107750000Y-103590000D02*
X112190000Y-103590000D01*
X112200000Y-102000000D02*
X112200000Y-103600000D01*
X112200000Y-103600000D02*
X112200000Y-104500000D01*
X103000000Y-99800000D02*
X103000000Y-100900000D01*
X103000000Y-100900000D02*
X104250000Y-102150000D01*
X104250000Y-102150000D02*
X104250000Y-103590000D01*
D39*
G04 #@! TO.N,Net-(Q3-Pad1)*
X51300000Y-30600000D02*
X51350000Y-30650000D01*
X49300000Y-30600000D02*
X51300000Y-30600000D01*
X51350000Y-30650000D02*
X53350000Y-30650000D01*
G04 #@! TO.N,Net-(Q4-Pad1)*
X34650000Y-66050000D02*
X35000000Y-66400000D01*
X35000000Y-66400000D02*
X37000000Y-66400000D01*
X34950000Y-66350000D02*
X35000000Y-66400000D01*
X32950000Y-66350000D02*
X34950000Y-66350000D01*
G04 #@! TO.N,Net-(Q5-Pad1)*
X74950000Y-66350000D02*
X75000000Y-66400000D01*
X72950000Y-66350000D02*
X74950000Y-66350000D01*
X75000000Y-66400000D02*
X75100000Y-66400000D01*
X75000000Y-66400000D02*
X75700000Y-66400000D01*
X75700000Y-66400000D02*
X76000000Y-66700000D01*
X76000000Y-66700000D02*
X76000000Y-67800000D01*
X76200000Y-68000000D02*
X77000000Y-68000000D01*
X76000000Y-67800000D02*
X76200000Y-68000000D01*
G04 #@! TO.N,Net-(Q6-Pad1)*
X114950000Y-66350000D02*
X115000000Y-66400000D01*
X112950000Y-66350000D02*
X114950000Y-66350000D01*
X115000000Y-66400000D02*
X115800000Y-66400000D01*
X115800000Y-66400000D02*
X116000000Y-66600000D01*
X116000000Y-66600000D02*
X116000000Y-67800000D01*
X116150000Y-67950000D02*
X117000000Y-67950000D01*
X116000000Y-67800000D02*
X116150000Y-67950000D01*
G04 #@! TO.N,/ARM_SUPPLY*
X54100000Y-33000000D02*
X53350000Y-32250000D01*
X72050000Y-33000000D02*
X54100000Y-33000000D01*
G04 #@! TO.N,/CH2_FIRE*
X57000000Y-68000000D02*
X58100000Y-68000000D01*
X58100000Y-63900000D02*
X64200000Y-63900000D01*
X64200000Y-63900000D02*
X72200000Y-55900000D01*
X79250000Y-46700000D02*
X79250000Y-54050000D01*
X79250000Y-54050000D02*
X79250000Y-54350000D01*
X79250000Y-54350000D02*
X78800000Y-54800000D01*
X72200000Y-55900000D02*
X72200000Y-54800000D01*
G04 #@! TO.N,/CH4_FIRE*
X80250000Y-46700000D02*
X80250000Y-60350000D01*
X80250000Y-60350000D02*
X83900000Y-64000000D01*
X83900000Y-64000000D02*
X95900000Y-64000000D01*
X97000000Y-65100000D02*
X97000000Y-66450000D01*
X95900000Y-64000000D02*
X97000000Y-65100000D01*
G04 #@! TO.N,/CH1_FIRE*
X38500000Y-68000000D02*
X37000000Y-68000000D01*
X41800000Y-64700000D02*
X38500000Y-68000000D01*
X73000000Y-56300000D02*
X64600000Y-64700000D01*
X64600000Y-64700000D02*
X41800000Y-64700000D01*
X78750000Y-53350000D02*
X78100000Y-54000000D01*
X78750000Y-46700000D02*
X78750000Y-53350000D01*
X73000000Y-56300000D02*
X73000000Y-54000000D01*
G04 #@! TO.N,/CH3_FIRE*
X77000000Y-66400000D02*
X77000000Y-59900000D01*
X79750000Y-46700000D02*
X79750000Y-55150000D01*
X79750000Y-55150000D02*
X78900000Y-56000000D01*
G04 #@! TO.N,/CH5_FIRE*
X117000000Y-64300000D02*
X117000000Y-66350000D01*
X116200000Y-63500000D02*
X117000000Y-64300000D01*
X84100000Y-63500000D02*
X116200000Y-63500000D01*
X80750000Y-46700000D02*
X80750000Y-60150000D01*
X80750000Y-60150000D02*
X84100000Y-63500000D01*
D37*
G04 #@! TO.N,5v*
X35450000Y-25500000D02*
X36250000Y-24700000D01*
X34000000Y-25500000D02*
X35450000Y-25500000D01*
X36275000Y-24725000D02*
X36250000Y-24700000D01*
X38300000Y-24725000D02*
X36275000Y-24725000D01*
X38300000Y-24075000D02*
X38300000Y-24725000D01*
X38300000Y-23425000D02*
X38300000Y-24075000D01*
D40*
X29000000Y-23000000D02*
X30250000Y-23000000D01*
X30250000Y-23000000D02*
X31600000Y-24350000D01*
X30400000Y-30000000D02*
X31600000Y-28800000D01*
X29000000Y-30000000D02*
X30400000Y-30000000D01*
X31700000Y-25500000D02*
X31600000Y-25400000D01*
X31600000Y-24350000D02*
X31600000Y-25400000D01*
X34000000Y-25500000D02*
X31700000Y-25500000D01*
X31600000Y-25400000D02*
X31600000Y-28800000D01*
D37*
G04 #@! TO.N,Net-(C4-Pad2)*
X38300000Y-22775000D02*
X39425000Y-22775000D01*
X39800000Y-22400000D02*
X39800000Y-21250000D01*
X39425000Y-22775000D02*
X39800000Y-22400000D01*
D38*
G04 #@! TO.N,Net-(C6-Pad2)*
X68950000Y-38500000D02*
X68800000Y-38350000D01*
X72050000Y-38500000D02*
X68950000Y-38500000D01*
X67400000Y-38350000D02*
X67325000Y-38425000D01*
X68800000Y-38350000D02*
X67400000Y-38350000D01*
G04 #@! TO.N,Net-(C7-Pad2)*
X65800000Y-39650000D02*
X65875000Y-39575000D01*
X64400000Y-39650000D02*
X65800000Y-39650000D01*
X66150000Y-39850000D02*
X65875000Y-39575000D01*
X66150000Y-41000000D02*
X66150000Y-39850000D01*
G04 #@! TO.N,Net-(C17-Pad1)*
X87450000Y-34000000D02*
X88700000Y-34000000D01*
X89100000Y-34400000D02*
X90150000Y-34400000D01*
X88700000Y-34000000D02*
X89100000Y-34400000D01*
G04 #@! TO.N,Net-(C18-Pad1)*
X85250000Y-46700000D02*
X85250000Y-47850000D01*
X85600000Y-48200000D02*
X85600000Y-49150000D01*
X85250000Y-47850000D02*
X85600000Y-48200000D01*
G04 #@! TO.N,/~RST*
X69450000Y-41200000D02*
X69450000Y-41186410D01*
D39*
X72050000Y-39500000D02*
X71200000Y-39500000D01*
X71200000Y-39500000D02*
X70500000Y-40200000D01*
X70500000Y-40200000D02*
X70500000Y-41200000D01*
X70500000Y-41200000D02*
X69450000Y-41200000D01*
X74700000Y-38500000D02*
X85700000Y-38500000D01*
X91000000Y-26960000D02*
X91000000Y-25500000D01*
X91000000Y-25500000D02*
X91500000Y-25000000D01*
X91500000Y-25000000D02*
X92900000Y-25000000D01*
X92900000Y-25000000D02*
X94300000Y-25000000D01*
X94300000Y-25000000D02*
X94900000Y-25600000D01*
X93300000Y-30600000D02*
X94900000Y-29000000D01*
X93300000Y-34900000D02*
X93300000Y-30600000D01*
X94900000Y-25600000D02*
X94900000Y-29000000D01*
D37*
G04 #@! TO.N,/LED2*
X49025000Y-68000000D02*
X49900000Y-68000000D01*
X50550000Y-68650000D02*
X52000000Y-68650000D01*
X49900000Y-68000000D02*
X50550000Y-68650000D01*
X52000000Y-70160000D02*
X54500000Y-72660000D01*
X52000000Y-68650000D02*
X52000000Y-70160000D01*
G04 #@! TO.N,/LED4*
X89025000Y-68250000D02*
X90050000Y-68250000D01*
X90450000Y-68650000D02*
X92000000Y-68650000D01*
X90050000Y-68250000D02*
X90450000Y-68650000D01*
X92000000Y-70160000D02*
X94500000Y-72660000D01*
X92000000Y-68650000D02*
X92000000Y-70160000D01*
G04 #@! TO.N,/LED1*
X29025000Y-68000000D02*
X30000000Y-68000000D01*
X30650000Y-68650000D02*
X32000000Y-68650000D01*
X30000000Y-68000000D02*
X30650000Y-68650000D01*
X32000000Y-70160000D02*
X34500000Y-72660000D01*
X32000000Y-68650000D02*
X32000000Y-70160000D01*
G04 #@! TO.N,/LED3*
X69025000Y-68250000D02*
X70050000Y-68250000D01*
X70450000Y-68650000D02*
X72000000Y-68650000D01*
X70050000Y-68250000D02*
X70450000Y-68650000D01*
X72000000Y-70160000D02*
X74500000Y-72660000D01*
X72000000Y-68650000D02*
X72000000Y-70160000D01*
G04 #@! TO.N,/LED5*
X109025000Y-68250000D02*
X110150000Y-68250000D01*
X110550000Y-68650000D02*
X112000000Y-68650000D01*
X110150000Y-68250000D02*
X110550000Y-68650000D01*
X112000000Y-70200000D02*
X112000000Y-68650000D01*
X114500000Y-72700000D02*
X112000000Y-70200000D01*
G04 #@! TO.N,Net-(D9-Pad2)*
X41700000Y-26500000D02*
X39300000Y-26500000D01*
D38*
G04 #@! TO.N,Net-(D10-Pad2)*
X91900000Y-39800000D02*
X93800000Y-39800000D01*
D39*
G04 #@! TO.N,/I2C2_SDA*
X113600000Y-84500000D02*
X93600000Y-84500000D01*
X93600000Y-84500000D02*
X73850000Y-84500000D01*
X73850000Y-84500000D02*
X53600000Y-84500000D01*
X53600000Y-84500000D02*
X33500000Y-84500000D01*
X118300000Y-84500000D02*
X118500000Y-84300000D01*
X113600000Y-84500000D02*
X118300000Y-84500000D01*
X84750000Y-61750000D02*
X84400000Y-62100000D01*
X82500000Y-64000000D02*
X82500000Y-80800000D01*
X85492894Y-54100000D02*
X84750000Y-54100000D01*
X86200000Y-54100000D02*
X85492894Y-54100000D01*
X84750000Y-46700000D02*
X84750000Y-54100000D01*
X84750000Y-54100000D02*
X84750000Y-61750000D01*
G04 #@! TO.N,/I2C2_SCL*
X34100000Y-85900000D02*
X54200000Y-85900000D01*
X54200000Y-85900000D02*
X74450000Y-85900000D01*
X74450000Y-85900000D02*
X94200000Y-85900000D01*
X118450000Y-85900000D02*
X118500000Y-85950000D01*
X113450000Y-85950000D02*
X113400000Y-85900000D01*
X118500000Y-85950000D02*
X113450000Y-85950000D01*
X113400000Y-85900000D02*
X94200000Y-85900000D01*
X84250000Y-60750000D02*
X83700000Y-61300000D01*
X81800000Y-63200000D02*
X81800000Y-79800000D01*
X84250000Y-54100000D02*
X82800000Y-54100000D01*
X84250000Y-54100000D02*
X84250000Y-60750000D01*
X84250000Y-46700000D02*
X84250000Y-54100000D01*
D38*
G04 #@! TO.N,Net-(IC8-Pad13)*
X68100000Y-40500000D02*
X67600000Y-41000000D01*
X69500000Y-40500000D02*
X68100000Y-40500000D01*
X67600000Y-41000000D02*
X67050000Y-41000000D01*
X71000000Y-39000000D02*
X69500000Y-40500000D01*
X72050000Y-39000000D02*
X71000000Y-39000000D01*
D39*
G04 #@! TO.N,/USART2_TX*
X72050000Y-45000000D02*
X73400000Y-45000000D01*
X73400000Y-45000000D02*
X75700000Y-42700000D01*
X75700000Y-42700000D02*
X78100000Y-42700000D01*
X78100000Y-42700000D02*
X82800000Y-42700000D01*
X82800000Y-42700000D02*
X83200000Y-42700000D01*
X83200000Y-42700000D02*
X83700000Y-42200000D01*
X83700000Y-42200000D02*
X83700000Y-42100000D01*
X96800000Y-42900000D02*
X89400000Y-42900000D01*
X104100000Y-50200000D02*
X96800000Y-42900000D01*
X111000000Y-51000000D02*
X110200000Y-50200000D01*
X108950000Y-50250000D02*
X108900000Y-50200000D01*
X108950000Y-51000000D02*
X108950000Y-50250000D01*
X110200000Y-50200000D02*
X108900000Y-50200000D01*
X108900000Y-50200000D02*
X104100000Y-50200000D01*
G04 #@! TO.N,/USART2_RX*
X73750000Y-45250000D02*
X73750000Y-46700000D01*
X75900000Y-43100000D02*
X73750000Y-45250000D01*
X84800000Y-42100000D02*
X83800000Y-43100000D01*
X83800000Y-43100000D02*
X75900000Y-43100000D01*
X90500000Y-42500000D02*
X90100000Y-42100000D01*
X104300000Y-49800000D02*
X97000000Y-42500000D01*
X97000000Y-42500000D02*
X90500000Y-42500000D01*
X111000000Y-49000000D02*
X110200000Y-49800000D01*
X108950000Y-49750000D02*
X109000000Y-49800000D01*
X108950000Y-49000000D02*
X108950000Y-49750000D01*
X110200000Y-49800000D02*
X109000000Y-49800000D01*
X109000000Y-49800000D02*
X104300000Y-49800000D01*
D37*
G04 #@! TO.N,/PSU_MON*
X36000000Y-55800000D02*
X36000000Y-57400000D01*
D39*
X70800000Y-44500000D02*
X72050000Y-44500000D01*
X70400000Y-46400000D02*
X70400000Y-44900000D01*
X70400000Y-44900000D02*
X70800000Y-44500000D01*
X61700000Y-55100000D02*
X70400000Y-46400000D01*
X36000000Y-55800000D02*
X36700000Y-55100000D01*
X36700000Y-55100000D02*
X61700000Y-55100000D01*
G04 #@! TO.N,/ARM_GRN*
X91100000Y-45600000D02*
X90000000Y-45600000D01*
X89400000Y-45000000D02*
X87450000Y-45000000D01*
X90000000Y-45600000D02*
X89400000Y-45000000D01*
G04 #@! TO.N,/ARM_RED*
X87450000Y-44500000D02*
X95800000Y-44500000D01*
X95800000Y-44500000D02*
X106400000Y-55100000D01*
X106400000Y-55100000D02*
X106500000Y-55200000D01*
X110200000Y-56800000D02*
X111000000Y-56000000D01*
X106400000Y-55100000D02*
X108100000Y-56800000D01*
X108100000Y-56800000D02*
X110200000Y-56800000D01*
D38*
G04 #@! TO.N,/STATUS*
X87450000Y-38500000D02*
X89800000Y-38500000D01*
X90300000Y-39000000D02*
X90300000Y-39800000D01*
X89800000Y-38500000D02*
X90300000Y-39000000D01*
D39*
G04 #@! TO.N,/SDIO_D0*
X87450000Y-38000000D02*
X92900000Y-38000000D01*
X92900000Y-38000000D02*
X93100000Y-38000000D01*
X93100000Y-38000000D02*
X93400000Y-38300000D01*
X97500000Y-32100000D02*
X94700000Y-34900000D01*
X100000000Y-31300000D02*
X100000000Y-32100000D01*
X117700000Y-32100000D02*
X100000000Y-32100000D01*
X100000000Y-32100000D02*
X97500000Y-32100000D01*
G04 #@! TO.N,/SDIO_D1*
X117700000Y-33200000D02*
X103100000Y-33200000D01*
X87450000Y-37500000D02*
X91900000Y-37500000D01*
X91900000Y-37500000D02*
X94100000Y-37500000D01*
X94100000Y-37500000D02*
X94400000Y-37200000D01*
X96000000Y-34900000D02*
X97700000Y-33200000D01*
X100000000Y-34000000D02*
X100000000Y-33200000D01*
X97700000Y-33200000D02*
X100000000Y-33200000D01*
X100000000Y-33200000D02*
X103100000Y-33200000D01*
G04 #@! TO.N,/USART1_TX*
X110300000Y-41300000D02*
X111000000Y-42000000D01*
X87450000Y-36500000D02*
X96100000Y-36500000D01*
X96100000Y-36500000D02*
X100900000Y-41300000D01*
X108950000Y-41350000D02*
X109000000Y-41300000D01*
X108950000Y-42000000D02*
X108950000Y-41350000D01*
X100900000Y-41300000D02*
X109000000Y-41300000D01*
X109000000Y-41300000D02*
X110300000Y-41300000D01*
G04 #@! TO.N,/USART1_RX*
X110500000Y-40000000D02*
X111000000Y-40000000D01*
X111000000Y-40300000D02*
X111000000Y-40000000D01*
X87450000Y-36000000D02*
X96300000Y-36000000D01*
X110400000Y-40900000D02*
X111000000Y-40300000D01*
X96300000Y-36000000D02*
X101200000Y-40900000D01*
X108950000Y-40850000D02*
X109000000Y-40900000D01*
X101200000Y-40900000D02*
X109000000Y-40900000D01*
X108950000Y-40000000D02*
X108950000Y-40850000D01*
X109000000Y-40900000D02*
X110400000Y-40900000D01*
G04 #@! TO.N,/SWDIO*
X87450000Y-34500000D02*
X88500000Y-34500000D01*
X88500000Y-34500000D02*
X89300000Y-35300000D01*
X89300000Y-35300000D02*
X91900000Y-35300000D01*
X92270000Y-34930000D02*
X92270000Y-28230000D01*
X91900000Y-35300000D02*
X92270000Y-34930000D01*
G04 #@! TO.N,/SWDCLK*
X85750000Y-30350000D02*
X86250010Y-29849990D01*
X85750000Y-31300000D02*
X85750000Y-30350000D01*
X90650010Y-29849990D02*
X91000000Y-29500000D01*
X86250010Y-29849990D02*
X90650010Y-29849990D01*
X91000000Y-29500000D02*
X91000000Y-28230000D01*
G04 #@! TO.N,/SDIO_D2*
X117700000Y-25600000D02*
X112800000Y-25600000D01*
X112800000Y-25600000D02*
X109400000Y-29000000D01*
X109400000Y-29000000D02*
X104900000Y-29000000D01*
X84750000Y-31300000D02*
X84750000Y-33550000D01*
X104900000Y-29000000D02*
X96300000Y-29000000D01*
X96300000Y-29000000D02*
X94500000Y-30800000D01*
X84750000Y-29250000D02*
X85200000Y-28800000D01*
X84750000Y-31300000D02*
X84750000Y-29250000D01*
X85200000Y-28800000D02*
X85200000Y-27900000D01*
G04 #@! TO.N,/SDIO_D3*
X112265698Y-26700000D02*
X109565689Y-29400010D01*
X117700000Y-26700000D02*
X112265698Y-26700000D01*
X109565689Y-29400010D02*
X104900000Y-29400010D01*
X84250000Y-31300000D02*
X84250000Y-32750000D01*
X84250000Y-32750000D02*
X83500000Y-33500000D01*
X104900000Y-29400010D02*
X96899990Y-29400010D01*
X96899990Y-29400010D02*
X95700000Y-30600000D01*
X83500000Y-28450000D02*
X84250000Y-29200000D01*
X83500000Y-27900000D02*
X83500000Y-28450000D01*
X84250000Y-31300000D02*
X84250000Y-29200000D01*
G04 #@! TO.N,/SDIO_CK*
X110197096Y-29900000D02*
X109897067Y-30200030D01*
X98199970Y-30200030D02*
X97400000Y-31000000D01*
X109897067Y-30200030D02*
X98199970Y-30200030D01*
X117700000Y-29900000D02*
X110197096Y-29900000D01*
X83000000Y-29600000D02*
X83000000Y-29100000D01*
X83750000Y-31300000D02*
X83750000Y-30350000D01*
X83750000Y-30350000D02*
X83000000Y-29600000D01*
G04 #@! TO.N,/SDIO_CMD*
X111731397Y-27800000D02*
X109731378Y-29800020D01*
X117700000Y-27800000D02*
X111731397Y-27800000D01*
X109731378Y-29800020D02*
X104900000Y-29800020D01*
X82250000Y-31300000D02*
X82250000Y-33450000D01*
X104900000Y-29800020D02*
X97499980Y-29800020D01*
X97499980Y-29800020D02*
X95700000Y-31600000D01*
X82250000Y-31300000D02*
X82250000Y-29650000D01*
X81700000Y-29100000D02*
X81700000Y-28000000D01*
X82250000Y-29650000D02*
X81700000Y-29100000D01*
D37*
G04 #@! TO.N,Net-(J2-Pad1)*
X34000000Y-109300000D02*
X35000000Y-108300000D01*
X34000000Y-111500000D02*
X34000000Y-109300000D01*
G04 #@! TO.N,Net-(J4-Pad1)*
X54000000Y-109300000D02*
X55000000Y-108300000D01*
X54000000Y-111500000D02*
X54000000Y-109300000D01*
G04 #@! TO.N,Net-(J7-Pad1)*
X74000000Y-109300000D02*
X75000000Y-108300000D01*
X74000000Y-111500000D02*
X74000000Y-109300000D01*
G04 #@! TO.N,Net-(J8-Pad1)*
X94000000Y-109300000D02*
X95000000Y-108300000D01*
X94000000Y-111500000D02*
X94000000Y-109300000D01*
G04 #@! TO.N,Net-(J9-Pad1)*
X114000000Y-109300000D02*
X115000000Y-108300000D01*
X114000000Y-111500000D02*
X114000000Y-109300000D01*
D39*
G04 #@! TO.N,Net-(J12-Pad1)*
X111000000Y-58000000D02*
X110200010Y-57200010D01*
X110200010Y-57200010D02*
X107900010Y-57200010D01*
X96300000Y-45600000D02*
X92700000Y-45600000D01*
X107900010Y-57200010D02*
X96300000Y-45600000D01*
G04 #@! TD*
M02*
