G04 #@! TF.GenerationSoftware,KiCad,Pcbnew,5.0.1-33cea8e~68~ubuntu18.04.1*
G04 #@! TF.CreationDate,2018-11-11T22:39:29+00:00*
G04 #@! TF.ProjectId,ignition,69676E6974696F6E2E6B696361645F70,rev?*
G04 #@! TF.SameCoordinates,Original*
G04 #@! TF.FileFunction,Legend,Bot*
G04 #@! TF.FilePolarity,Positive*
%FSLAX46Y46*%
G04 Gerber Fmt 4.6, Leading zero omitted, Abs format (unit mm)*
G04 Created by KiCad (PCBNEW 5.0.1-33cea8e~68~ubuntu18.04.1) date Sun 11 Nov 2018 22:39:29 GMT*
%MOMM*%
%LPD*%
G01*
G04 APERTURE LIST*
%ADD10C,0.400000*%
%ADD11C,0.150000*%
%ADD12C,1.200000*%
%ADD13C,1.600000*%
%ADD14C,2.500000*%
%ADD15C,3.048000*%
%ADD16R,1.800000X1.150000*%
%ADD17C,3.000000*%
%ADD18C,1.000000*%
%ADD19R,3.400000X1.250000*%
%ADD20R,1.250000X3.400000*%
%ADD21C,6.300000*%
%ADD22C,0.600000*%
%ADD23R,0.300000X1.450000*%
%ADD24R,1.450000X0.300000*%
G04 APERTURE END LIST*
D10*
X23695238Y-24285714D02*
X23695238Y-25238095D01*
X22742857Y-25333333D01*
X22838095Y-25238095D01*
X22933333Y-25047619D01*
X22933333Y-24571428D01*
X22838095Y-24380952D01*
X22742857Y-24285714D01*
X22552380Y-24190476D01*
X22076190Y-24190476D01*
X21885714Y-24285714D01*
X21790476Y-24380952D01*
X21695238Y-24571428D01*
X21695238Y-25047619D01*
X21790476Y-25238095D01*
X21885714Y-25333333D01*
X23028571Y-23523809D02*
X21695238Y-23047619D01*
X23028571Y-22571428D01*
X112380952Y-77714285D02*
X112476190Y-77809523D01*
X112761904Y-77904761D01*
X112952380Y-77904761D01*
X113238095Y-77809523D01*
X113428571Y-77619047D01*
X113523809Y-77428571D01*
X113619047Y-77047619D01*
X113619047Y-76761904D01*
X113523809Y-76380952D01*
X113428571Y-76190476D01*
X113238095Y-76000000D01*
X112952380Y-75904761D01*
X112761904Y-75904761D01*
X112476190Y-76000000D01*
X112380952Y-76095238D01*
X111523809Y-77904761D02*
X111523809Y-75904761D01*
X111523809Y-76857142D02*
X110380952Y-76857142D01*
X110380952Y-77904761D02*
X110380952Y-75904761D01*
X108476190Y-75904761D02*
X109428571Y-75904761D01*
X109523809Y-76857142D01*
X109428571Y-76761904D01*
X109238095Y-76666666D01*
X108761904Y-76666666D01*
X108571428Y-76761904D01*
X108476190Y-76857142D01*
X108380952Y-77047619D01*
X108380952Y-77523809D01*
X108476190Y-77714285D01*
X108571428Y-77809523D01*
X108761904Y-77904761D01*
X109238095Y-77904761D01*
X109428571Y-77809523D01*
X109523809Y-77714285D01*
X92380952Y-77714285D02*
X92476190Y-77809523D01*
X92761904Y-77904761D01*
X92952380Y-77904761D01*
X93238095Y-77809523D01*
X93428571Y-77619047D01*
X93523809Y-77428571D01*
X93619047Y-77047619D01*
X93619047Y-76761904D01*
X93523809Y-76380952D01*
X93428571Y-76190476D01*
X93238095Y-76000000D01*
X92952380Y-75904761D01*
X92761904Y-75904761D01*
X92476190Y-76000000D01*
X92380952Y-76095238D01*
X91523809Y-77904761D02*
X91523809Y-75904761D01*
X91523809Y-76857142D02*
X90380952Y-76857142D01*
X90380952Y-77904761D02*
X90380952Y-75904761D01*
X88571428Y-76571428D02*
X88571428Y-77904761D01*
X89047619Y-75809523D02*
X89523809Y-77238095D01*
X88285714Y-77238095D01*
X71880952Y-77714285D02*
X71976190Y-77809523D01*
X72261904Y-77904761D01*
X72452380Y-77904761D01*
X72738095Y-77809523D01*
X72928571Y-77619047D01*
X73023809Y-77428571D01*
X73119047Y-77047619D01*
X73119047Y-76761904D01*
X73023809Y-76380952D01*
X72928571Y-76190476D01*
X72738095Y-76000000D01*
X72452380Y-75904761D01*
X72261904Y-75904761D01*
X71976190Y-76000000D01*
X71880952Y-76095238D01*
X71023809Y-77904761D02*
X71023809Y-75904761D01*
X71023809Y-76857142D02*
X69880952Y-76857142D01*
X69880952Y-77904761D02*
X69880952Y-75904761D01*
X69119047Y-75904761D02*
X67880952Y-75904761D01*
X68547619Y-76666666D01*
X68261904Y-76666666D01*
X68071428Y-76761904D01*
X67976190Y-76857142D01*
X67880952Y-77047619D01*
X67880952Y-77523809D01*
X67976190Y-77714285D01*
X68071428Y-77809523D01*
X68261904Y-77904761D01*
X68833333Y-77904761D01*
X69023809Y-77809523D01*
X69119047Y-77714285D01*
X52380952Y-77714285D02*
X52476190Y-77809523D01*
X52761904Y-77904761D01*
X52952380Y-77904761D01*
X53238095Y-77809523D01*
X53428571Y-77619047D01*
X53523809Y-77428571D01*
X53619047Y-77047619D01*
X53619047Y-76761904D01*
X53523809Y-76380952D01*
X53428571Y-76190476D01*
X53238095Y-76000000D01*
X52952380Y-75904761D01*
X52761904Y-75904761D01*
X52476190Y-76000000D01*
X52380952Y-76095238D01*
X51523809Y-77904761D02*
X51523809Y-75904761D01*
X51523809Y-76857142D02*
X50380952Y-76857142D01*
X50380952Y-77904761D02*
X50380952Y-75904761D01*
X49523809Y-76095238D02*
X49428571Y-76000000D01*
X49238095Y-75904761D01*
X48761904Y-75904761D01*
X48571428Y-76000000D01*
X48476190Y-76095238D01*
X48380952Y-76285714D01*
X48380952Y-76476190D01*
X48476190Y-76761904D01*
X49619047Y-77904761D01*
X48380952Y-77904761D01*
X31880952Y-77714285D02*
X31976190Y-77809523D01*
X32261904Y-77904761D01*
X32452380Y-77904761D01*
X32738095Y-77809523D01*
X32928571Y-77619047D01*
X33023809Y-77428571D01*
X33119047Y-77047619D01*
X33119047Y-76761904D01*
X33023809Y-76380952D01*
X32928571Y-76190476D01*
X32738095Y-76000000D01*
X32452380Y-75904761D01*
X32261904Y-75904761D01*
X31976190Y-76000000D01*
X31880952Y-76095238D01*
X31023809Y-77904761D02*
X31023809Y-75904761D01*
X31023809Y-76857142D02*
X29880952Y-76857142D01*
X29880952Y-77904761D02*
X29880952Y-75904761D01*
X27880952Y-77904761D02*
X29023809Y-77904761D01*
X28452380Y-77904761D02*
X28452380Y-75904761D01*
X28642857Y-76190476D01*
X28833333Y-76380952D01*
X29023809Y-76476190D01*
X23304761Y-52285714D02*
X23400000Y-52190476D01*
X23495238Y-52000000D01*
X23495238Y-51523809D01*
X23400000Y-51333333D01*
X23304761Y-51238095D01*
X23114285Y-51142857D01*
X22923809Y-51142857D01*
X22638095Y-51238095D01*
X21495238Y-52380952D01*
X21495238Y-51142857D01*
X22828571Y-49428571D02*
X21495238Y-49428571D01*
X23590476Y-49904761D02*
X22161904Y-50380952D01*
X22161904Y-49142857D01*
X22828571Y-48571428D02*
X21495238Y-48095238D01*
X22828571Y-47619047D01*
X23400000Y-41523809D02*
X23495238Y-41714285D01*
X23495238Y-42000000D01*
X23400000Y-42285714D01*
X23209523Y-42476190D01*
X23019047Y-42571428D01*
X22638095Y-42666666D01*
X22352380Y-42666666D01*
X21971428Y-42571428D01*
X21780952Y-42476190D01*
X21590476Y-42285714D01*
X21495238Y-42000000D01*
X21495238Y-41809523D01*
X21590476Y-41523809D01*
X21685714Y-41428571D01*
X22352380Y-41428571D01*
X22352380Y-41809523D01*
X21495238Y-40571428D02*
X23495238Y-40571428D01*
X21495238Y-39428571D01*
X23495238Y-39428571D01*
X21495238Y-38476190D02*
X23495238Y-38476190D01*
X23495238Y-38000000D01*
X23400000Y-37714285D01*
X23209523Y-37523809D01*
X23019047Y-37428571D01*
X22638095Y-37333333D01*
X22352380Y-37333333D01*
X21971428Y-37428571D01*
X21780952Y-37523809D01*
X21590476Y-37714285D01*
X21495238Y-38000000D01*
X21495238Y-38476190D01*
X23695238Y-31285714D02*
X23695238Y-32238095D01*
X22742857Y-32333333D01*
X22838095Y-32238095D01*
X22933333Y-32047619D01*
X22933333Y-31571428D01*
X22838095Y-31380952D01*
X22742857Y-31285714D01*
X22552380Y-31190476D01*
X22076190Y-31190476D01*
X21885714Y-31285714D01*
X21790476Y-31380952D01*
X21695238Y-31571428D01*
X21695238Y-32047619D01*
X21790476Y-32238095D01*
X21885714Y-32333333D01*
X23028571Y-30523809D02*
X21695238Y-30047619D01*
X23028571Y-29571428D01*
D11*
G04 #@! TO.C,C1*
X31525000Y-46025000D02*
X31525000Y-44575000D01*
X31525000Y-44575000D02*
X30075000Y-44575000D01*
X30075000Y-44575000D02*
X30075000Y-46025000D01*
X30075000Y-46025000D02*
X31525000Y-46025000D01*
G04 #@! TO.C,R7*
X48525000Y-87425000D02*
X48525000Y-82975000D01*
X48525000Y-82975000D02*
X45275000Y-82975000D01*
X45275000Y-82975000D02*
X45275000Y-87425000D01*
X45275000Y-87425000D02*
X48525000Y-87425000D01*
G04 #@! TO.C,R8*
X88625000Y-87425000D02*
X88625000Y-82975000D01*
X88625000Y-82975000D02*
X85375000Y-82975000D01*
X85375000Y-82975000D02*
X85375000Y-87425000D01*
X85375000Y-87425000D02*
X88625000Y-87425000D01*
G04 #@! TO.C,R13*
X47975000Y-51625000D02*
X47975000Y-48375000D01*
X43525000Y-51625000D02*
X47975000Y-51625000D01*
X43525000Y-48375000D02*
X43525000Y-51625000D01*
X47975000Y-48375000D02*
X43525000Y-48375000D01*
G04 #@! TO.C,R31*
X28625000Y-87425000D02*
X28625000Y-82975000D01*
X28625000Y-82975000D02*
X25375000Y-82975000D01*
X25375000Y-82975000D02*
X25375000Y-87425000D01*
X25375000Y-87425000D02*
X28625000Y-87425000D01*
G04 #@! TO.C,R32*
X65625000Y-87425000D02*
X68875000Y-87425000D01*
X65625000Y-82975000D02*
X65625000Y-87425000D01*
X68875000Y-82975000D02*
X65625000Y-82975000D01*
X68875000Y-87425000D02*
X68875000Y-82975000D01*
G04 #@! TO.C,R33*
X105375000Y-87425000D02*
X108625000Y-87425000D01*
X105375000Y-82975000D02*
X105375000Y-87425000D01*
X108625000Y-82975000D02*
X105375000Y-82975000D01*
X108625000Y-87425000D02*
X108625000Y-82975000D01*
G04 #@! TO.C,IC1*
X50600000Y-84225000D02*
X50000000Y-84825000D01*
X52000000Y-84225000D02*
X50600000Y-84225000D01*
X52000000Y-86175000D02*
X52000000Y-84225000D01*
X50000000Y-86175000D02*
X52000000Y-86175000D01*
X50000000Y-84825000D02*
X50000000Y-86175000D01*
G04 #@! TO.C,IC2*
X90600000Y-84225000D02*
X90000000Y-84825000D01*
X92000000Y-84225000D02*
X90600000Y-84225000D01*
X92000000Y-86175000D02*
X92000000Y-84225000D01*
X90000000Y-86175000D02*
X92000000Y-86175000D01*
X90000000Y-84825000D02*
X90000000Y-86175000D01*
G04 #@! TO.C,IC3*
X45375000Y-46100000D02*
X46725000Y-46100000D01*
X46725000Y-46100000D02*
X46725000Y-44100000D01*
X46725000Y-44100000D02*
X44775000Y-44100000D01*
X44775000Y-44100000D02*
X44775000Y-45500000D01*
X44775000Y-45500000D02*
X45375000Y-46100000D01*
G04 #@! TO.C,IC4*
X29900000Y-84825000D02*
X29900000Y-86175000D01*
X29900000Y-86175000D02*
X31900000Y-86175000D01*
X31900000Y-86175000D02*
X31900000Y-84225000D01*
X31900000Y-84225000D02*
X30500000Y-84225000D01*
X30500000Y-84225000D02*
X29900000Y-84825000D01*
G04 #@! TO.C,IC5*
X70850000Y-84225000D02*
X70250000Y-84825000D01*
X72250000Y-84225000D02*
X70850000Y-84225000D01*
X72250000Y-86175000D02*
X72250000Y-84225000D01*
X70250000Y-86175000D02*
X72250000Y-86175000D01*
X70250000Y-84825000D02*
X70250000Y-86175000D01*
G04 #@! TO.C,IC6*
X110000000Y-84825000D02*
X110000000Y-86175000D01*
X110000000Y-86175000D02*
X112000000Y-86175000D01*
X112000000Y-86175000D02*
X112000000Y-84225000D01*
X112000000Y-84225000D02*
X110600000Y-84225000D01*
X110600000Y-84225000D02*
X110000000Y-84825000D01*
G04 #@! TD*
%LPC*%
D12*
G04 #@! TO.C,J9*
X112500000Y-113600000D03*
X117500000Y-113600000D03*
D13*
X114000000Y-111500000D03*
X116000000Y-111500000D03*
G04 #@! TD*
D14*
G04 #@! TO.C,J17*
X104250000Y-106590000D03*
X107750000Y-103590000D03*
X104250000Y-103590000D03*
X107750000Y-106590000D03*
D15*
X106000000Y-114500000D03*
G04 #@! TD*
D16*
G04 #@! TO.C,C1*
X30800000Y-46800000D03*
X30800000Y-43800000D03*
G04 #@! TD*
D15*
G04 #@! TO.C,J1*
X26000000Y-50000000D03*
D14*
X33910000Y-51750000D03*
X36910000Y-48250000D03*
X36910000Y-51750000D03*
X33910000Y-48250000D03*
G04 #@! TD*
D13*
G04 #@! TO.C,J2*
X36000000Y-111500000D03*
X34000000Y-111500000D03*
D12*
X37500000Y-113600000D03*
X32500000Y-113600000D03*
G04 #@! TD*
D14*
G04 #@! TO.C,J3*
X33910000Y-38250000D03*
X36910000Y-41750000D03*
X36910000Y-38250000D03*
X33910000Y-41750000D03*
D15*
X26000000Y-40000000D03*
G04 #@! TD*
D12*
G04 #@! TO.C,J4*
X52500000Y-113600000D03*
X57500000Y-113600000D03*
D13*
X54000000Y-111500000D03*
X56000000Y-111500000D03*
G04 #@! TD*
G04 #@! TO.C,J5*
X29000000Y-25000000D03*
X29000000Y-23000000D03*
D12*
X26900000Y-26500000D03*
X26900000Y-21500000D03*
G04 #@! TD*
D13*
G04 #@! TO.C,J6*
X29000000Y-32000000D03*
X29000000Y-30000000D03*
D12*
X26900000Y-33500000D03*
X26900000Y-28500000D03*
G04 #@! TD*
G04 #@! TO.C,J7*
X72500000Y-113600000D03*
X77500000Y-113600000D03*
D13*
X74000000Y-111500000D03*
X76000000Y-111500000D03*
G04 #@! TD*
D12*
G04 #@! TO.C,J8*
X92500000Y-113600000D03*
X97500000Y-113600000D03*
D13*
X94000000Y-111500000D03*
X96000000Y-111500000D03*
G04 #@! TD*
D15*
G04 #@! TO.C,J10*
X46000000Y-114500000D03*
D14*
X47750000Y-106590000D03*
X44250000Y-103590000D03*
X47750000Y-103590000D03*
X44250000Y-106590000D03*
G04 #@! TD*
D15*
G04 #@! TO.C,J11*
X86000000Y-114500000D03*
D14*
X87750000Y-106590000D03*
X84250000Y-103590000D03*
X87750000Y-103590000D03*
X84250000Y-106590000D03*
G04 #@! TD*
D13*
G04 #@! TO.C,J12*
X111000000Y-56000000D03*
X111000000Y-58000000D03*
D12*
X113100000Y-54500000D03*
X113100000Y-59500000D03*
G04 #@! TD*
D13*
G04 #@! TO.C,J13*
X111000000Y-38000000D03*
X111000000Y-40000000D03*
X111000000Y-42000000D03*
D12*
X113100000Y-36500000D03*
X113100000Y-43500000D03*
G04 #@! TD*
G04 #@! TO.C,J14*
X113100000Y-52500000D03*
X113100000Y-45500000D03*
D13*
X111000000Y-51000000D03*
X111000000Y-49000000D03*
X111000000Y-47000000D03*
G04 #@! TD*
D14*
G04 #@! TO.C,J15*
X24250000Y-106590000D03*
X27750000Y-103590000D03*
X24250000Y-103590000D03*
X27750000Y-106590000D03*
D15*
X26000000Y-114500000D03*
G04 #@! TD*
D14*
G04 #@! TO.C,J16*
X64250000Y-106590000D03*
X67750000Y-103590000D03*
X64250000Y-103590000D03*
X67750000Y-106590000D03*
D15*
X66000000Y-114500000D03*
G04 #@! TD*
D17*
G04 #@! TO.C,K1*
X54500000Y-98000000D03*
X54500000Y-92960000D03*
X47000000Y-98000000D03*
X47000000Y-92960000D03*
X47000000Y-72660000D03*
X54500000Y-72660000D03*
G04 #@! TD*
G04 #@! TO.C,K2*
X94500000Y-98000000D03*
X94500000Y-92960000D03*
X87000000Y-98000000D03*
X87000000Y-92960000D03*
X87000000Y-72660000D03*
X94500000Y-72660000D03*
G04 #@! TD*
G04 #@! TO.C,K3*
X51100000Y-36910000D03*
X43600000Y-36910000D03*
X43600000Y-57210000D03*
X43600000Y-62250000D03*
X51100000Y-57210000D03*
X51100000Y-62250000D03*
G04 #@! TD*
G04 #@! TO.C,K4*
X34500000Y-72660000D03*
X27000000Y-72660000D03*
X27000000Y-92960000D03*
X27000000Y-98000000D03*
X34500000Y-92960000D03*
X34500000Y-98000000D03*
G04 #@! TD*
G04 #@! TO.C,K5*
X74500000Y-72660000D03*
X67000000Y-72660000D03*
X67000000Y-92960000D03*
X67000000Y-98000000D03*
X74500000Y-92960000D03*
X74500000Y-98000000D03*
G04 #@! TD*
G04 #@! TO.C,K6*
X114500000Y-98040000D03*
X114500000Y-93000000D03*
X107000000Y-98040000D03*
X107000000Y-93000000D03*
X107000000Y-72700000D03*
X114500000Y-72700000D03*
G04 #@! TD*
D18*
G04 #@! TO.C,P1*
X93540000Y-27595000D03*
X88460000Y-26579000D03*
X88460000Y-28611000D03*
G04 #@! TD*
D19*
G04 #@! TO.C,R7*
X46900000Y-88250000D03*
X46900000Y-82150000D03*
G04 #@! TD*
G04 #@! TO.C,R8*
X87000000Y-88250000D03*
X87000000Y-82150000D03*
G04 #@! TD*
D20*
G04 #@! TO.C,R13*
X42700000Y-50000000D03*
X48800000Y-50000000D03*
G04 #@! TD*
D19*
G04 #@! TO.C,R31*
X27000000Y-88250000D03*
X27000000Y-82150000D03*
G04 #@! TD*
G04 #@! TO.C,R32*
X67250000Y-82150000D03*
X67250000Y-88250000D03*
G04 #@! TD*
G04 #@! TO.C,R33*
X107000000Y-82150000D03*
X107000000Y-88250000D03*
G04 #@! TD*
D21*
G04 #@! TO.C,X33*
X40750000Y-90000000D03*
D22*
X40750000Y-87500000D03*
X43250000Y-90000000D03*
X40750000Y-92500000D03*
X38250000Y-90000000D03*
X38950000Y-88200000D03*
X42550000Y-88200000D03*
X38950000Y-91800000D03*
X42550000Y-91800000D03*
G04 #@! TD*
G04 #@! TO.C,X34*
X101800000Y-25800000D03*
X98200000Y-25800000D03*
X101800000Y-22200000D03*
X98200000Y-22200000D03*
X97500000Y-24000000D03*
X100000000Y-26500000D03*
X102500000Y-24000000D03*
X100000000Y-21500000D03*
D21*
X100000000Y-24000000D03*
G04 #@! TD*
G04 #@! TO.C,X35*
X100750000Y-89750000D03*
D22*
X100750000Y-87250000D03*
X103250000Y-89750000D03*
X100750000Y-92250000D03*
X98250000Y-89750000D03*
X98950000Y-87950000D03*
X102550000Y-87950000D03*
X98950000Y-91550000D03*
X102550000Y-91550000D03*
G04 #@! TD*
G04 #@! TO.C,X36*
X25800000Y-59800000D03*
X22200000Y-59800000D03*
X25800000Y-56200000D03*
X22200000Y-56200000D03*
X21500000Y-58000000D03*
X24000000Y-60500000D03*
X26500000Y-58000000D03*
X24000000Y-55500000D03*
D21*
X24000000Y-58000000D03*
G04 #@! TD*
D23*
G04 #@! TO.C,IC1*
X50000000Y-87400000D03*
X50500000Y-87400000D03*
X51000000Y-87400000D03*
X51500000Y-87400000D03*
X52000000Y-87400000D03*
X52000000Y-83000000D03*
X51500000Y-83000000D03*
X51000000Y-83000000D03*
X50500000Y-83000000D03*
X50000000Y-83000000D03*
G04 #@! TD*
G04 #@! TO.C,IC2*
X90000000Y-87400000D03*
X90500000Y-87400000D03*
X91000000Y-87400000D03*
X91500000Y-87400000D03*
X92000000Y-87400000D03*
X92000000Y-83000000D03*
X91500000Y-83000000D03*
X91000000Y-83000000D03*
X90500000Y-83000000D03*
X90000000Y-83000000D03*
G04 #@! TD*
D24*
G04 #@! TO.C,IC3*
X43550000Y-46100000D03*
X43550000Y-45600000D03*
X43550000Y-45100000D03*
X43550000Y-44600000D03*
X43550000Y-44100000D03*
X47950000Y-44100000D03*
X47950000Y-44600000D03*
X47950000Y-45100000D03*
X47950000Y-45600000D03*
X47950000Y-46100000D03*
G04 #@! TD*
D23*
G04 #@! TO.C,IC4*
X29900000Y-83000000D03*
X30400000Y-83000000D03*
X30900000Y-83000000D03*
X31400000Y-83000000D03*
X31900000Y-83000000D03*
X31900000Y-87400000D03*
X31400000Y-87400000D03*
X30900000Y-87400000D03*
X30400000Y-87400000D03*
X29900000Y-87400000D03*
G04 #@! TD*
G04 #@! TO.C,IC5*
X70250000Y-87400000D03*
X70750000Y-87400000D03*
X71250000Y-87400000D03*
X71750000Y-87400000D03*
X72250000Y-87400000D03*
X72250000Y-83000000D03*
X71750000Y-83000000D03*
X71250000Y-83000000D03*
X70750000Y-83000000D03*
X70250000Y-83000000D03*
G04 #@! TD*
G04 #@! TO.C,IC6*
X110000000Y-83000000D03*
X110500000Y-83000000D03*
X111000000Y-83000000D03*
X111500000Y-83000000D03*
X112000000Y-83000000D03*
X112000000Y-87400000D03*
X111500000Y-87400000D03*
X111000000Y-87400000D03*
X110500000Y-87400000D03*
X110000000Y-87400000D03*
G04 #@! TD*
M02*
