G04 #@! TF.GenerationSoftware,KiCad,Pcbnew,5.0.1-33cea8e~68~ubuntu18.04.1*
G04 #@! TF.CreationDate,2018-11-12T15:32:08+00:00*
G04 #@! TF.ProjectId,ignition,69676E6974696F6E2E6B696361645F70,rev?*
G04 #@! TF.SameCoordinates,Original*
G04 #@! TF.FileFunction,Soldermask,Top*
G04 #@! TF.FilePolarity,Negative*
%FSLAX46Y46*%
G04 Gerber Fmt 4.6, Leading zero omitted, Abs format (unit mm)*
G04 Created by KiCad (PCBNEW 5.0.1-33cea8e~68~ubuntu18.04.1) date Mon 12 Nov 2018 15:32:08 GMT*
%MOMM*%
%LPD*%
G01*
G04 APERTURE LIST*
%ADD10C,0.100000*%
G04 APERTURE END LIST*
D10*
G36*
X106444534Y-113034566D02*
X106721888Y-113149450D01*
X106971493Y-113316230D01*
X107183770Y-113528507D01*
X107350550Y-113778112D01*
X107465434Y-114055466D01*
X107524000Y-114349899D01*
X107524000Y-114650101D01*
X107465434Y-114944534D01*
X107350550Y-115221888D01*
X107183770Y-115471493D01*
X106971493Y-115683770D01*
X106721888Y-115850550D01*
X106444534Y-115965434D01*
X106150101Y-116024000D01*
X105849899Y-116024000D01*
X105555466Y-115965434D01*
X105278112Y-115850550D01*
X105028507Y-115683770D01*
X104816230Y-115471493D01*
X104649450Y-115221888D01*
X104534566Y-114944534D01*
X104476000Y-114650101D01*
X104476000Y-114349899D01*
X104534566Y-114055466D01*
X104649450Y-113778112D01*
X104816230Y-113528507D01*
X105028507Y-113316230D01*
X105278112Y-113149450D01*
X105555466Y-113034566D01*
X105849899Y-112976000D01*
X106150101Y-112976000D01*
X106444534Y-113034566D01*
X106444534Y-113034566D01*
G37*
G36*
X46444534Y-113034566D02*
X46721888Y-113149450D01*
X46971493Y-113316230D01*
X47183770Y-113528507D01*
X47350550Y-113778112D01*
X47465434Y-114055466D01*
X47524000Y-114349899D01*
X47524000Y-114650101D01*
X47465434Y-114944534D01*
X47350550Y-115221888D01*
X47183770Y-115471493D01*
X46971493Y-115683770D01*
X46721888Y-115850550D01*
X46444534Y-115965434D01*
X46150101Y-116024000D01*
X45849899Y-116024000D01*
X45555466Y-115965434D01*
X45278112Y-115850550D01*
X45028507Y-115683770D01*
X44816230Y-115471493D01*
X44649450Y-115221888D01*
X44534566Y-114944534D01*
X44476000Y-114650101D01*
X44476000Y-114349899D01*
X44534566Y-114055466D01*
X44649450Y-113778112D01*
X44816230Y-113528507D01*
X45028507Y-113316230D01*
X45278112Y-113149450D01*
X45555466Y-113034566D01*
X45849899Y-112976000D01*
X46150101Y-112976000D01*
X46444534Y-113034566D01*
X46444534Y-113034566D01*
G37*
G36*
X26444534Y-113034566D02*
X26721888Y-113149450D01*
X26971493Y-113316230D01*
X27183770Y-113528507D01*
X27350550Y-113778112D01*
X27465434Y-114055466D01*
X27524000Y-114349899D01*
X27524000Y-114650101D01*
X27465434Y-114944534D01*
X27350550Y-115221888D01*
X27183770Y-115471493D01*
X26971493Y-115683770D01*
X26721888Y-115850550D01*
X26444534Y-115965434D01*
X26150101Y-116024000D01*
X25849899Y-116024000D01*
X25555466Y-115965434D01*
X25278112Y-115850550D01*
X25028507Y-115683770D01*
X24816230Y-115471493D01*
X24649450Y-115221888D01*
X24534566Y-114944534D01*
X24476000Y-114650101D01*
X24476000Y-114349899D01*
X24534566Y-114055466D01*
X24649450Y-113778112D01*
X24816230Y-113528507D01*
X25028507Y-113316230D01*
X25278112Y-113149450D01*
X25555466Y-113034566D01*
X25849899Y-112976000D01*
X26150101Y-112976000D01*
X26444534Y-113034566D01*
X26444534Y-113034566D01*
G37*
G36*
X66444534Y-113034566D02*
X66721888Y-113149450D01*
X66971493Y-113316230D01*
X67183770Y-113528507D01*
X67350550Y-113778112D01*
X67465434Y-114055466D01*
X67524000Y-114349899D01*
X67524000Y-114650101D01*
X67465434Y-114944534D01*
X67350550Y-115221888D01*
X67183770Y-115471493D01*
X66971493Y-115683770D01*
X66721888Y-115850550D01*
X66444534Y-115965434D01*
X66150101Y-116024000D01*
X65849899Y-116024000D01*
X65555466Y-115965434D01*
X65278112Y-115850550D01*
X65028507Y-115683770D01*
X64816230Y-115471493D01*
X64649450Y-115221888D01*
X64534566Y-114944534D01*
X64476000Y-114650101D01*
X64476000Y-114349899D01*
X64534566Y-114055466D01*
X64649450Y-113778112D01*
X64816230Y-113528507D01*
X65028507Y-113316230D01*
X65278112Y-113149450D01*
X65555466Y-113034566D01*
X65849899Y-112976000D01*
X66150101Y-112976000D01*
X66444534Y-113034566D01*
X66444534Y-113034566D01*
G37*
G36*
X86444534Y-113034566D02*
X86721888Y-113149450D01*
X86971493Y-113316230D01*
X87183770Y-113528507D01*
X87350550Y-113778112D01*
X87465434Y-114055466D01*
X87524000Y-114349899D01*
X87524000Y-114650101D01*
X87465434Y-114944534D01*
X87350550Y-115221888D01*
X87183770Y-115471493D01*
X86971493Y-115683770D01*
X86721888Y-115850550D01*
X86444534Y-115965434D01*
X86150101Y-116024000D01*
X85849899Y-116024000D01*
X85555466Y-115965434D01*
X85278112Y-115850550D01*
X85028507Y-115683770D01*
X84816230Y-115471493D01*
X84649450Y-115221888D01*
X84534566Y-114944534D01*
X84476000Y-114650101D01*
X84476000Y-114349899D01*
X84534566Y-114055466D01*
X84649450Y-113778112D01*
X84816230Y-113528507D01*
X85028507Y-113316230D01*
X85278112Y-113149450D01*
X85555466Y-113034566D01*
X85849899Y-112976000D01*
X86150101Y-112976000D01*
X86444534Y-113034566D01*
X86444534Y-113034566D01*
G37*
G36*
X52675012Y-113023057D02*
X52675015Y-113023058D01*
X52675014Y-113023058D01*
X52784207Y-113068287D01*
X52882148Y-113133729D01*
X52882481Y-113133952D01*
X52966048Y-113217519D01*
X52966050Y-113217522D01*
X53031713Y-113315793D01*
X53069183Y-113406253D01*
X53076943Y-113424988D01*
X53100000Y-113540904D01*
X53100000Y-113659096D01*
X53076943Y-113775012D01*
X53076942Y-113775014D01*
X53031713Y-113884207D01*
X52966271Y-113982148D01*
X52966048Y-113982481D01*
X52882481Y-114066048D01*
X52882478Y-114066050D01*
X52784207Y-114131713D01*
X52693747Y-114169183D01*
X52675012Y-114176943D01*
X52559096Y-114200000D01*
X52440904Y-114200000D01*
X52324988Y-114176943D01*
X52306253Y-114169183D01*
X52215793Y-114131713D01*
X52117522Y-114066050D01*
X52117519Y-114066048D01*
X52033952Y-113982481D01*
X52033729Y-113982148D01*
X51968287Y-113884207D01*
X51923058Y-113775014D01*
X51923057Y-113775012D01*
X51900000Y-113659096D01*
X51900000Y-113540904D01*
X51923057Y-113424988D01*
X51930817Y-113406253D01*
X51968287Y-113315793D01*
X52033950Y-113217522D01*
X52033952Y-113217519D01*
X52117519Y-113133952D01*
X52117852Y-113133729D01*
X52215793Y-113068287D01*
X52324986Y-113023058D01*
X52324985Y-113023058D01*
X52324988Y-113023057D01*
X52440904Y-113000000D01*
X52559096Y-113000000D01*
X52675012Y-113023057D01*
X52675012Y-113023057D01*
G37*
G36*
X117675012Y-113023057D02*
X117675015Y-113023058D01*
X117675014Y-113023058D01*
X117784207Y-113068287D01*
X117882148Y-113133729D01*
X117882481Y-113133952D01*
X117966048Y-113217519D01*
X117966050Y-113217522D01*
X118031713Y-113315793D01*
X118069183Y-113406253D01*
X118076943Y-113424988D01*
X118100000Y-113540904D01*
X118100000Y-113659096D01*
X118076943Y-113775012D01*
X118076942Y-113775014D01*
X118031713Y-113884207D01*
X117966271Y-113982148D01*
X117966048Y-113982481D01*
X117882481Y-114066048D01*
X117882478Y-114066050D01*
X117784207Y-114131713D01*
X117693747Y-114169183D01*
X117675012Y-114176943D01*
X117559096Y-114200000D01*
X117440904Y-114200000D01*
X117324988Y-114176943D01*
X117306253Y-114169183D01*
X117215793Y-114131713D01*
X117117522Y-114066050D01*
X117117519Y-114066048D01*
X117033952Y-113982481D01*
X117033729Y-113982148D01*
X116968287Y-113884207D01*
X116923058Y-113775014D01*
X116923057Y-113775012D01*
X116900000Y-113659096D01*
X116900000Y-113540904D01*
X116923057Y-113424988D01*
X116930817Y-113406253D01*
X116968287Y-113315793D01*
X117033950Y-113217522D01*
X117033952Y-113217519D01*
X117117519Y-113133952D01*
X117117852Y-113133729D01*
X117215793Y-113068287D01*
X117324986Y-113023058D01*
X117324985Y-113023058D01*
X117324988Y-113023057D01*
X117440904Y-113000000D01*
X117559096Y-113000000D01*
X117675012Y-113023057D01*
X117675012Y-113023057D01*
G37*
G36*
X112675012Y-113023057D02*
X112675015Y-113023058D01*
X112675014Y-113023058D01*
X112784207Y-113068287D01*
X112882148Y-113133729D01*
X112882481Y-113133952D01*
X112966048Y-113217519D01*
X112966050Y-113217522D01*
X113031713Y-113315793D01*
X113069183Y-113406253D01*
X113076943Y-113424988D01*
X113100000Y-113540904D01*
X113100000Y-113659096D01*
X113076943Y-113775012D01*
X113076942Y-113775014D01*
X113031713Y-113884207D01*
X112966271Y-113982148D01*
X112966048Y-113982481D01*
X112882481Y-114066048D01*
X112882478Y-114066050D01*
X112784207Y-114131713D01*
X112693747Y-114169183D01*
X112675012Y-114176943D01*
X112559096Y-114200000D01*
X112440904Y-114200000D01*
X112324988Y-114176943D01*
X112306253Y-114169183D01*
X112215793Y-114131713D01*
X112117522Y-114066050D01*
X112117519Y-114066048D01*
X112033952Y-113982481D01*
X112033729Y-113982148D01*
X111968287Y-113884207D01*
X111923058Y-113775014D01*
X111923057Y-113775012D01*
X111900000Y-113659096D01*
X111900000Y-113540904D01*
X111923057Y-113424988D01*
X111930817Y-113406253D01*
X111968287Y-113315793D01*
X112033950Y-113217522D01*
X112033952Y-113217519D01*
X112117519Y-113133952D01*
X112117852Y-113133729D01*
X112215793Y-113068287D01*
X112324986Y-113023058D01*
X112324985Y-113023058D01*
X112324988Y-113023057D01*
X112440904Y-113000000D01*
X112559096Y-113000000D01*
X112675012Y-113023057D01*
X112675012Y-113023057D01*
G37*
G36*
X37675012Y-113023057D02*
X37675015Y-113023058D01*
X37675014Y-113023058D01*
X37784207Y-113068287D01*
X37882148Y-113133729D01*
X37882481Y-113133952D01*
X37966048Y-113217519D01*
X37966050Y-113217522D01*
X38031713Y-113315793D01*
X38069183Y-113406253D01*
X38076943Y-113424988D01*
X38100000Y-113540904D01*
X38100000Y-113659096D01*
X38076943Y-113775012D01*
X38076942Y-113775014D01*
X38031713Y-113884207D01*
X37966271Y-113982148D01*
X37966048Y-113982481D01*
X37882481Y-114066048D01*
X37882478Y-114066050D01*
X37784207Y-114131713D01*
X37693747Y-114169183D01*
X37675012Y-114176943D01*
X37559096Y-114200000D01*
X37440904Y-114200000D01*
X37324988Y-114176943D01*
X37306253Y-114169183D01*
X37215793Y-114131713D01*
X37117522Y-114066050D01*
X37117519Y-114066048D01*
X37033952Y-113982481D01*
X37033729Y-113982148D01*
X36968287Y-113884207D01*
X36923058Y-113775014D01*
X36923057Y-113775012D01*
X36900000Y-113659096D01*
X36900000Y-113540904D01*
X36923057Y-113424988D01*
X36930817Y-113406253D01*
X36968287Y-113315793D01*
X37033950Y-113217522D01*
X37033952Y-113217519D01*
X37117519Y-113133952D01*
X37117852Y-113133729D01*
X37215793Y-113068287D01*
X37324986Y-113023058D01*
X37324985Y-113023058D01*
X37324988Y-113023057D01*
X37440904Y-113000000D01*
X37559096Y-113000000D01*
X37675012Y-113023057D01*
X37675012Y-113023057D01*
G37*
G36*
X32675012Y-113023057D02*
X32675015Y-113023058D01*
X32675014Y-113023058D01*
X32784207Y-113068287D01*
X32882148Y-113133729D01*
X32882481Y-113133952D01*
X32966048Y-113217519D01*
X32966050Y-113217522D01*
X33031713Y-113315793D01*
X33069183Y-113406253D01*
X33076943Y-113424988D01*
X33100000Y-113540904D01*
X33100000Y-113659096D01*
X33076943Y-113775012D01*
X33076942Y-113775014D01*
X33031713Y-113884207D01*
X32966271Y-113982148D01*
X32966048Y-113982481D01*
X32882481Y-114066048D01*
X32882478Y-114066050D01*
X32784207Y-114131713D01*
X32693747Y-114169183D01*
X32675012Y-114176943D01*
X32559096Y-114200000D01*
X32440904Y-114200000D01*
X32324988Y-114176943D01*
X32306253Y-114169183D01*
X32215793Y-114131713D01*
X32117522Y-114066050D01*
X32117519Y-114066048D01*
X32033952Y-113982481D01*
X32033729Y-113982148D01*
X31968287Y-113884207D01*
X31923058Y-113775014D01*
X31923057Y-113775012D01*
X31900000Y-113659096D01*
X31900000Y-113540904D01*
X31923057Y-113424988D01*
X31930817Y-113406253D01*
X31968287Y-113315793D01*
X32033950Y-113217522D01*
X32033952Y-113217519D01*
X32117519Y-113133952D01*
X32117852Y-113133729D01*
X32215793Y-113068287D01*
X32324986Y-113023058D01*
X32324985Y-113023058D01*
X32324988Y-113023057D01*
X32440904Y-113000000D01*
X32559096Y-113000000D01*
X32675012Y-113023057D01*
X32675012Y-113023057D01*
G37*
G36*
X57675012Y-113023057D02*
X57675015Y-113023058D01*
X57675014Y-113023058D01*
X57784207Y-113068287D01*
X57882148Y-113133729D01*
X57882481Y-113133952D01*
X57966048Y-113217519D01*
X57966050Y-113217522D01*
X58031713Y-113315793D01*
X58069183Y-113406253D01*
X58076943Y-113424988D01*
X58100000Y-113540904D01*
X58100000Y-113659096D01*
X58076943Y-113775012D01*
X58076942Y-113775014D01*
X58031713Y-113884207D01*
X57966271Y-113982148D01*
X57966048Y-113982481D01*
X57882481Y-114066048D01*
X57882478Y-114066050D01*
X57784207Y-114131713D01*
X57693747Y-114169183D01*
X57675012Y-114176943D01*
X57559096Y-114200000D01*
X57440904Y-114200000D01*
X57324988Y-114176943D01*
X57306253Y-114169183D01*
X57215793Y-114131713D01*
X57117522Y-114066050D01*
X57117519Y-114066048D01*
X57033952Y-113982481D01*
X57033729Y-113982148D01*
X56968287Y-113884207D01*
X56923058Y-113775014D01*
X56923057Y-113775012D01*
X56900000Y-113659096D01*
X56900000Y-113540904D01*
X56923057Y-113424988D01*
X56930817Y-113406253D01*
X56968287Y-113315793D01*
X57033950Y-113217522D01*
X57033952Y-113217519D01*
X57117519Y-113133952D01*
X57117852Y-113133729D01*
X57215793Y-113068287D01*
X57324986Y-113023058D01*
X57324985Y-113023058D01*
X57324988Y-113023057D01*
X57440904Y-113000000D01*
X57559096Y-113000000D01*
X57675012Y-113023057D01*
X57675012Y-113023057D01*
G37*
G36*
X72675012Y-113023057D02*
X72675015Y-113023058D01*
X72675014Y-113023058D01*
X72784207Y-113068287D01*
X72882148Y-113133729D01*
X72882481Y-113133952D01*
X72966048Y-113217519D01*
X72966050Y-113217522D01*
X73031713Y-113315793D01*
X73069183Y-113406253D01*
X73076943Y-113424988D01*
X73100000Y-113540904D01*
X73100000Y-113659096D01*
X73076943Y-113775012D01*
X73076942Y-113775014D01*
X73031713Y-113884207D01*
X72966271Y-113982148D01*
X72966048Y-113982481D01*
X72882481Y-114066048D01*
X72882478Y-114066050D01*
X72784207Y-114131713D01*
X72693747Y-114169183D01*
X72675012Y-114176943D01*
X72559096Y-114200000D01*
X72440904Y-114200000D01*
X72324988Y-114176943D01*
X72306253Y-114169183D01*
X72215793Y-114131713D01*
X72117522Y-114066050D01*
X72117519Y-114066048D01*
X72033952Y-113982481D01*
X72033729Y-113982148D01*
X71968287Y-113884207D01*
X71923058Y-113775014D01*
X71923057Y-113775012D01*
X71900000Y-113659096D01*
X71900000Y-113540904D01*
X71923057Y-113424988D01*
X71930817Y-113406253D01*
X71968287Y-113315793D01*
X72033950Y-113217522D01*
X72033952Y-113217519D01*
X72117519Y-113133952D01*
X72117852Y-113133729D01*
X72215793Y-113068287D01*
X72324986Y-113023058D01*
X72324985Y-113023058D01*
X72324988Y-113023057D01*
X72440904Y-113000000D01*
X72559096Y-113000000D01*
X72675012Y-113023057D01*
X72675012Y-113023057D01*
G37*
G36*
X77675012Y-113023057D02*
X77675015Y-113023058D01*
X77675014Y-113023058D01*
X77784207Y-113068287D01*
X77882148Y-113133729D01*
X77882481Y-113133952D01*
X77966048Y-113217519D01*
X77966050Y-113217522D01*
X78031713Y-113315793D01*
X78069183Y-113406253D01*
X78076943Y-113424988D01*
X78100000Y-113540904D01*
X78100000Y-113659096D01*
X78076943Y-113775012D01*
X78076942Y-113775014D01*
X78031713Y-113884207D01*
X77966271Y-113982148D01*
X77966048Y-113982481D01*
X77882481Y-114066048D01*
X77882478Y-114066050D01*
X77784207Y-114131713D01*
X77693747Y-114169183D01*
X77675012Y-114176943D01*
X77559096Y-114200000D01*
X77440904Y-114200000D01*
X77324988Y-114176943D01*
X77306253Y-114169183D01*
X77215793Y-114131713D01*
X77117522Y-114066050D01*
X77117519Y-114066048D01*
X77033952Y-113982481D01*
X77033729Y-113982148D01*
X76968287Y-113884207D01*
X76923058Y-113775014D01*
X76923057Y-113775012D01*
X76900000Y-113659096D01*
X76900000Y-113540904D01*
X76923057Y-113424988D01*
X76930817Y-113406253D01*
X76968287Y-113315793D01*
X77033950Y-113217522D01*
X77033952Y-113217519D01*
X77117519Y-113133952D01*
X77117852Y-113133729D01*
X77215793Y-113068287D01*
X77324986Y-113023058D01*
X77324985Y-113023058D01*
X77324988Y-113023057D01*
X77440904Y-113000000D01*
X77559096Y-113000000D01*
X77675012Y-113023057D01*
X77675012Y-113023057D01*
G37*
G36*
X97675012Y-113023057D02*
X97675015Y-113023058D01*
X97675014Y-113023058D01*
X97784207Y-113068287D01*
X97882148Y-113133729D01*
X97882481Y-113133952D01*
X97966048Y-113217519D01*
X97966050Y-113217522D01*
X98031713Y-113315793D01*
X98069183Y-113406253D01*
X98076943Y-113424988D01*
X98100000Y-113540904D01*
X98100000Y-113659096D01*
X98076943Y-113775012D01*
X98076942Y-113775014D01*
X98031713Y-113884207D01*
X97966271Y-113982148D01*
X97966048Y-113982481D01*
X97882481Y-114066048D01*
X97882478Y-114066050D01*
X97784207Y-114131713D01*
X97693747Y-114169183D01*
X97675012Y-114176943D01*
X97559096Y-114200000D01*
X97440904Y-114200000D01*
X97324988Y-114176943D01*
X97306253Y-114169183D01*
X97215793Y-114131713D01*
X97117522Y-114066050D01*
X97117519Y-114066048D01*
X97033952Y-113982481D01*
X97033729Y-113982148D01*
X96968287Y-113884207D01*
X96923058Y-113775014D01*
X96923057Y-113775012D01*
X96900000Y-113659096D01*
X96900000Y-113540904D01*
X96923057Y-113424988D01*
X96930817Y-113406253D01*
X96968287Y-113315793D01*
X97033950Y-113217522D01*
X97033952Y-113217519D01*
X97117519Y-113133952D01*
X97117852Y-113133729D01*
X97215793Y-113068287D01*
X97324986Y-113023058D01*
X97324985Y-113023058D01*
X97324988Y-113023057D01*
X97440904Y-113000000D01*
X97559096Y-113000000D01*
X97675012Y-113023057D01*
X97675012Y-113023057D01*
G37*
G36*
X92675012Y-113023057D02*
X92675015Y-113023058D01*
X92675014Y-113023058D01*
X92784207Y-113068287D01*
X92882148Y-113133729D01*
X92882481Y-113133952D01*
X92966048Y-113217519D01*
X92966050Y-113217522D01*
X93031713Y-113315793D01*
X93069183Y-113406253D01*
X93076943Y-113424988D01*
X93100000Y-113540904D01*
X93100000Y-113659096D01*
X93076943Y-113775012D01*
X93076942Y-113775014D01*
X93031713Y-113884207D01*
X92966271Y-113982148D01*
X92966048Y-113982481D01*
X92882481Y-114066048D01*
X92882478Y-114066050D01*
X92784207Y-114131713D01*
X92693747Y-114169183D01*
X92675012Y-114176943D01*
X92559096Y-114200000D01*
X92440904Y-114200000D01*
X92324988Y-114176943D01*
X92306253Y-114169183D01*
X92215793Y-114131713D01*
X92117522Y-114066050D01*
X92117519Y-114066048D01*
X92033952Y-113982481D01*
X92033729Y-113982148D01*
X91968287Y-113884207D01*
X91923058Y-113775014D01*
X91923057Y-113775012D01*
X91900000Y-113659096D01*
X91900000Y-113540904D01*
X91923057Y-113424988D01*
X91930817Y-113406253D01*
X91968287Y-113315793D01*
X92033950Y-113217522D01*
X92033952Y-113217519D01*
X92117519Y-113133952D01*
X92117852Y-113133729D01*
X92215793Y-113068287D01*
X92324986Y-113023058D01*
X92324985Y-113023058D01*
X92324988Y-113023057D01*
X92440904Y-113000000D01*
X92559096Y-113000000D01*
X92675012Y-113023057D01*
X92675012Y-113023057D01*
G37*
G36*
X94233351Y-110730743D02*
X94378942Y-110791049D01*
X94509090Y-110878011D01*
X94509973Y-110878601D01*
X94621399Y-110990027D01*
X94621401Y-110990030D01*
X94708951Y-111121058D01*
X94769257Y-111266649D01*
X94800000Y-111421207D01*
X94800000Y-111578793D01*
X94769257Y-111733351D01*
X94708951Y-111878942D01*
X94621989Y-112009090D01*
X94621399Y-112009973D01*
X94509973Y-112121399D01*
X94509970Y-112121401D01*
X94378942Y-112208951D01*
X94233351Y-112269257D01*
X94078794Y-112300000D01*
X93921206Y-112300000D01*
X93766649Y-112269257D01*
X93621058Y-112208951D01*
X93490030Y-112121401D01*
X93490027Y-112121399D01*
X93378601Y-112009973D01*
X93378011Y-112009090D01*
X93291049Y-111878942D01*
X93230743Y-111733351D01*
X93200000Y-111578793D01*
X93200000Y-111421207D01*
X93230743Y-111266649D01*
X93291049Y-111121058D01*
X93378599Y-110990030D01*
X93378601Y-110990027D01*
X93490027Y-110878601D01*
X93490910Y-110878011D01*
X93621058Y-110791049D01*
X93766649Y-110730743D01*
X93921206Y-110700000D01*
X94078794Y-110700000D01*
X94233351Y-110730743D01*
X94233351Y-110730743D01*
G37*
G36*
X116233351Y-110730743D02*
X116378942Y-110791049D01*
X116509090Y-110878011D01*
X116509973Y-110878601D01*
X116621399Y-110990027D01*
X116621401Y-110990030D01*
X116708951Y-111121058D01*
X116769257Y-111266649D01*
X116800000Y-111421207D01*
X116800000Y-111578793D01*
X116769257Y-111733351D01*
X116708951Y-111878942D01*
X116621989Y-112009090D01*
X116621399Y-112009973D01*
X116509973Y-112121399D01*
X116509970Y-112121401D01*
X116378942Y-112208951D01*
X116233351Y-112269257D01*
X116078794Y-112300000D01*
X115921206Y-112300000D01*
X115766649Y-112269257D01*
X115621058Y-112208951D01*
X115490030Y-112121401D01*
X115490027Y-112121399D01*
X115378601Y-112009973D01*
X115378011Y-112009090D01*
X115291049Y-111878942D01*
X115230743Y-111733351D01*
X115200000Y-111578793D01*
X115200000Y-111421207D01*
X115230743Y-111266649D01*
X115291049Y-111121058D01*
X115378599Y-110990030D01*
X115378601Y-110990027D01*
X115490027Y-110878601D01*
X115490910Y-110878011D01*
X115621058Y-110791049D01*
X115766649Y-110730743D01*
X115921206Y-110700000D01*
X116078794Y-110700000D01*
X116233351Y-110730743D01*
X116233351Y-110730743D01*
G37*
G36*
X36233351Y-110730743D02*
X36378942Y-110791049D01*
X36509090Y-110878011D01*
X36509973Y-110878601D01*
X36621399Y-110990027D01*
X36621401Y-110990030D01*
X36708951Y-111121058D01*
X36769257Y-111266649D01*
X36800000Y-111421207D01*
X36800000Y-111578793D01*
X36769257Y-111733351D01*
X36708951Y-111878942D01*
X36621989Y-112009090D01*
X36621399Y-112009973D01*
X36509973Y-112121399D01*
X36509970Y-112121401D01*
X36378942Y-112208951D01*
X36233351Y-112269257D01*
X36078794Y-112300000D01*
X35921206Y-112300000D01*
X35766649Y-112269257D01*
X35621058Y-112208951D01*
X35490030Y-112121401D01*
X35490027Y-112121399D01*
X35378601Y-112009973D01*
X35378011Y-112009090D01*
X35291049Y-111878942D01*
X35230743Y-111733351D01*
X35200000Y-111578793D01*
X35200000Y-111421207D01*
X35230743Y-111266649D01*
X35291049Y-111121058D01*
X35378599Y-110990030D01*
X35378601Y-110990027D01*
X35490027Y-110878601D01*
X35490910Y-110878011D01*
X35621058Y-110791049D01*
X35766649Y-110730743D01*
X35921206Y-110700000D01*
X36078794Y-110700000D01*
X36233351Y-110730743D01*
X36233351Y-110730743D01*
G37*
G36*
X34233351Y-110730743D02*
X34378942Y-110791049D01*
X34509090Y-110878011D01*
X34509973Y-110878601D01*
X34621399Y-110990027D01*
X34621401Y-110990030D01*
X34708951Y-111121058D01*
X34769257Y-111266649D01*
X34800000Y-111421207D01*
X34800000Y-111578793D01*
X34769257Y-111733351D01*
X34708951Y-111878942D01*
X34621989Y-112009090D01*
X34621399Y-112009973D01*
X34509973Y-112121399D01*
X34509970Y-112121401D01*
X34378942Y-112208951D01*
X34233351Y-112269257D01*
X34078794Y-112300000D01*
X33921206Y-112300000D01*
X33766649Y-112269257D01*
X33621058Y-112208951D01*
X33490030Y-112121401D01*
X33490027Y-112121399D01*
X33378601Y-112009973D01*
X33378011Y-112009090D01*
X33291049Y-111878942D01*
X33230743Y-111733351D01*
X33200000Y-111578793D01*
X33200000Y-111421207D01*
X33230743Y-111266649D01*
X33291049Y-111121058D01*
X33378599Y-110990030D01*
X33378601Y-110990027D01*
X33490027Y-110878601D01*
X33490910Y-110878011D01*
X33621058Y-110791049D01*
X33766649Y-110730743D01*
X33921206Y-110700000D01*
X34078794Y-110700000D01*
X34233351Y-110730743D01*
X34233351Y-110730743D01*
G37*
G36*
X54233351Y-110730743D02*
X54378942Y-110791049D01*
X54509090Y-110878011D01*
X54509973Y-110878601D01*
X54621399Y-110990027D01*
X54621401Y-110990030D01*
X54708951Y-111121058D01*
X54769257Y-111266649D01*
X54800000Y-111421207D01*
X54800000Y-111578793D01*
X54769257Y-111733351D01*
X54708951Y-111878942D01*
X54621989Y-112009090D01*
X54621399Y-112009973D01*
X54509973Y-112121399D01*
X54509970Y-112121401D01*
X54378942Y-112208951D01*
X54233351Y-112269257D01*
X54078794Y-112300000D01*
X53921206Y-112300000D01*
X53766649Y-112269257D01*
X53621058Y-112208951D01*
X53490030Y-112121401D01*
X53490027Y-112121399D01*
X53378601Y-112009973D01*
X53378011Y-112009090D01*
X53291049Y-111878942D01*
X53230743Y-111733351D01*
X53200000Y-111578793D01*
X53200000Y-111421207D01*
X53230743Y-111266649D01*
X53291049Y-111121058D01*
X53378599Y-110990030D01*
X53378601Y-110990027D01*
X53490027Y-110878601D01*
X53490910Y-110878011D01*
X53621058Y-110791049D01*
X53766649Y-110730743D01*
X53921206Y-110700000D01*
X54078794Y-110700000D01*
X54233351Y-110730743D01*
X54233351Y-110730743D01*
G37*
G36*
X114233351Y-110730743D02*
X114378942Y-110791049D01*
X114509090Y-110878011D01*
X114509973Y-110878601D01*
X114621399Y-110990027D01*
X114621401Y-110990030D01*
X114708951Y-111121058D01*
X114769257Y-111266649D01*
X114800000Y-111421207D01*
X114800000Y-111578793D01*
X114769257Y-111733351D01*
X114708951Y-111878942D01*
X114621989Y-112009090D01*
X114621399Y-112009973D01*
X114509973Y-112121399D01*
X114509970Y-112121401D01*
X114378942Y-112208951D01*
X114233351Y-112269257D01*
X114078794Y-112300000D01*
X113921206Y-112300000D01*
X113766649Y-112269257D01*
X113621058Y-112208951D01*
X113490030Y-112121401D01*
X113490027Y-112121399D01*
X113378601Y-112009973D01*
X113378011Y-112009090D01*
X113291049Y-111878942D01*
X113230743Y-111733351D01*
X113200000Y-111578793D01*
X113200000Y-111421207D01*
X113230743Y-111266649D01*
X113291049Y-111121058D01*
X113378599Y-110990030D01*
X113378601Y-110990027D01*
X113490027Y-110878601D01*
X113490910Y-110878011D01*
X113621058Y-110791049D01*
X113766649Y-110730743D01*
X113921206Y-110700000D01*
X114078794Y-110700000D01*
X114233351Y-110730743D01*
X114233351Y-110730743D01*
G37*
G36*
X74233351Y-110730743D02*
X74378942Y-110791049D01*
X74509090Y-110878011D01*
X74509973Y-110878601D01*
X74621399Y-110990027D01*
X74621401Y-110990030D01*
X74708951Y-111121058D01*
X74769257Y-111266649D01*
X74800000Y-111421207D01*
X74800000Y-111578793D01*
X74769257Y-111733351D01*
X74708951Y-111878942D01*
X74621989Y-112009090D01*
X74621399Y-112009973D01*
X74509973Y-112121399D01*
X74509970Y-112121401D01*
X74378942Y-112208951D01*
X74233351Y-112269257D01*
X74078794Y-112300000D01*
X73921206Y-112300000D01*
X73766649Y-112269257D01*
X73621058Y-112208951D01*
X73490030Y-112121401D01*
X73490027Y-112121399D01*
X73378601Y-112009973D01*
X73378011Y-112009090D01*
X73291049Y-111878942D01*
X73230743Y-111733351D01*
X73200000Y-111578793D01*
X73200000Y-111421207D01*
X73230743Y-111266649D01*
X73291049Y-111121058D01*
X73378599Y-110990030D01*
X73378601Y-110990027D01*
X73490027Y-110878601D01*
X73490910Y-110878011D01*
X73621058Y-110791049D01*
X73766649Y-110730743D01*
X73921206Y-110700000D01*
X74078794Y-110700000D01*
X74233351Y-110730743D01*
X74233351Y-110730743D01*
G37*
G36*
X76233351Y-110730743D02*
X76378942Y-110791049D01*
X76509090Y-110878011D01*
X76509973Y-110878601D01*
X76621399Y-110990027D01*
X76621401Y-110990030D01*
X76708951Y-111121058D01*
X76769257Y-111266649D01*
X76800000Y-111421207D01*
X76800000Y-111578793D01*
X76769257Y-111733351D01*
X76708951Y-111878942D01*
X76621989Y-112009090D01*
X76621399Y-112009973D01*
X76509973Y-112121399D01*
X76509970Y-112121401D01*
X76378942Y-112208951D01*
X76233351Y-112269257D01*
X76078794Y-112300000D01*
X75921206Y-112300000D01*
X75766649Y-112269257D01*
X75621058Y-112208951D01*
X75490030Y-112121401D01*
X75490027Y-112121399D01*
X75378601Y-112009973D01*
X75378011Y-112009090D01*
X75291049Y-111878942D01*
X75230743Y-111733351D01*
X75200000Y-111578793D01*
X75200000Y-111421207D01*
X75230743Y-111266649D01*
X75291049Y-111121058D01*
X75378599Y-110990030D01*
X75378601Y-110990027D01*
X75490027Y-110878601D01*
X75490910Y-110878011D01*
X75621058Y-110791049D01*
X75766649Y-110730743D01*
X75921206Y-110700000D01*
X76078794Y-110700000D01*
X76233351Y-110730743D01*
X76233351Y-110730743D01*
G37*
G36*
X96233351Y-110730743D02*
X96378942Y-110791049D01*
X96509090Y-110878011D01*
X96509973Y-110878601D01*
X96621399Y-110990027D01*
X96621401Y-110990030D01*
X96708951Y-111121058D01*
X96769257Y-111266649D01*
X96800000Y-111421207D01*
X96800000Y-111578793D01*
X96769257Y-111733351D01*
X96708951Y-111878942D01*
X96621989Y-112009090D01*
X96621399Y-112009973D01*
X96509973Y-112121399D01*
X96509970Y-112121401D01*
X96378942Y-112208951D01*
X96233351Y-112269257D01*
X96078794Y-112300000D01*
X95921206Y-112300000D01*
X95766649Y-112269257D01*
X95621058Y-112208951D01*
X95490030Y-112121401D01*
X95490027Y-112121399D01*
X95378601Y-112009973D01*
X95378011Y-112009090D01*
X95291049Y-111878942D01*
X95230743Y-111733351D01*
X95200000Y-111578793D01*
X95200000Y-111421207D01*
X95230743Y-111266649D01*
X95291049Y-111121058D01*
X95378599Y-110990030D01*
X95378601Y-110990027D01*
X95490027Y-110878601D01*
X95490910Y-110878011D01*
X95621058Y-110791049D01*
X95766649Y-110730743D01*
X95921206Y-110700000D01*
X96078794Y-110700000D01*
X96233351Y-110730743D01*
X96233351Y-110730743D01*
G37*
G36*
X56233351Y-110730743D02*
X56378942Y-110791049D01*
X56509090Y-110878011D01*
X56509973Y-110878601D01*
X56621399Y-110990027D01*
X56621401Y-110990030D01*
X56708951Y-111121058D01*
X56769257Y-111266649D01*
X56800000Y-111421207D01*
X56800000Y-111578793D01*
X56769257Y-111733351D01*
X56708951Y-111878942D01*
X56621989Y-112009090D01*
X56621399Y-112009973D01*
X56509973Y-112121399D01*
X56509970Y-112121401D01*
X56378942Y-112208951D01*
X56233351Y-112269257D01*
X56078794Y-112300000D01*
X55921206Y-112300000D01*
X55766649Y-112269257D01*
X55621058Y-112208951D01*
X55490030Y-112121401D01*
X55490027Y-112121399D01*
X55378601Y-112009973D01*
X55378011Y-112009090D01*
X55291049Y-111878942D01*
X55230743Y-111733351D01*
X55200000Y-111578793D01*
X55200000Y-111421207D01*
X55230743Y-111266649D01*
X55291049Y-111121058D01*
X55378599Y-110990030D01*
X55378601Y-110990027D01*
X55490027Y-110878601D01*
X55490910Y-110878011D01*
X55621058Y-110791049D01*
X55766649Y-110730743D01*
X55921206Y-110700000D01*
X56078794Y-110700000D01*
X56233351Y-110730743D01*
X56233351Y-110730743D01*
G37*
G36*
X35500000Y-108775000D02*
X34500000Y-108775000D01*
X34500000Y-107825000D01*
X35500000Y-107825000D01*
X35500000Y-108775000D01*
X35500000Y-108775000D01*
G37*
G36*
X55500000Y-108775000D02*
X54500000Y-108775000D01*
X54500000Y-107825000D01*
X55500000Y-107825000D01*
X55500000Y-108775000D01*
X55500000Y-108775000D01*
G37*
G36*
X75500000Y-108775000D02*
X74500000Y-108775000D01*
X74500000Y-107825000D01*
X75500000Y-107825000D01*
X75500000Y-108775000D01*
X75500000Y-108775000D01*
G37*
G36*
X95500000Y-108775000D02*
X94500000Y-108775000D01*
X94500000Y-107825000D01*
X95500000Y-107825000D01*
X95500000Y-108775000D01*
X95500000Y-108775000D01*
G37*
G36*
X115500000Y-108775000D02*
X114500000Y-108775000D01*
X114500000Y-107825000D01*
X115500000Y-107825000D01*
X115500000Y-108775000D01*
X115500000Y-108775000D01*
G37*
G36*
X28114610Y-105388036D02*
X28342096Y-105482264D01*
X28546831Y-105619063D01*
X28720937Y-105793169D01*
X28857736Y-105997904D01*
X28951964Y-106225390D01*
X29000000Y-106466884D01*
X29000000Y-106713116D01*
X28951964Y-106954610D01*
X28857736Y-107182096D01*
X28720937Y-107386831D01*
X28546831Y-107560937D01*
X28342096Y-107697736D01*
X28114610Y-107791964D01*
X27873116Y-107840000D01*
X27626884Y-107840000D01*
X27385390Y-107791964D01*
X27157904Y-107697736D01*
X26953169Y-107560937D01*
X26779063Y-107386831D01*
X26642264Y-107182096D01*
X26548036Y-106954610D01*
X26500000Y-106713116D01*
X26500000Y-106466884D01*
X26548036Y-106225390D01*
X26642264Y-105997904D01*
X26779063Y-105793169D01*
X26953169Y-105619063D01*
X27157904Y-105482264D01*
X27385390Y-105388036D01*
X27626884Y-105340000D01*
X27873116Y-105340000D01*
X28114610Y-105388036D01*
X28114610Y-105388036D01*
G37*
G36*
X48114610Y-105388036D02*
X48342096Y-105482264D01*
X48546831Y-105619063D01*
X48720937Y-105793169D01*
X48857736Y-105997904D01*
X48951964Y-106225390D01*
X49000000Y-106466884D01*
X49000000Y-106713116D01*
X48951964Y-106954610D01*
X48857736Y-107182096D01*
X48720937Y-107386831D01*
X48546831Y-107560937D01*
X48342096Y-107697736D01*
X48114610Y-107791964D01*
X47873116Y-107840000D01*
X47626884Y-107840000D01*
X47385390Y-107791964D01*
X47157904Y-107697736D01*
X46953169Y-107560937D01*
X46779063Y-107386831D01*
X46642264Y-107182096D01*
X46548036Y-106954610D01*
X46500000Y-106713116D01*
X46500000Y-106466884D01*
X46548036Y-106225390D01*
X46642264Y-105997904D01*
X46779063Y-105793169D01*
X46953169Y-105619063D01*
X47157904Y-105482264D01*
X47385390Y-105388036D01*
X47626884Y-105340000D01*
X47873116Y-105340000D01*
X48114610Y-105388036D01*
X48114610Y-105388036D01*
G37*
G36*
X44614610Y-105388036D02*
X44842096Y-105482264D01*
X45046831Y-105619063D01*
X45220937Y-105793169D01*
X45357736Y-105997904D01*
X45451964Y-106225390D01*
X45500000Y-106466884D01*
X45500000Y-106713116D01*
X45451964Y-106954610D01*
X45357736Y-107182096D01*
X45220937Y-107386831D01*
X45046831Y-107560937D01*
X44842096Y-107697736D01*
X44614610Y-107791964D01*
X44373116Y-107840000D01*
X44126884Y-107840000D01*
X43885390Y-107791964D01*
X43657904Y-107697736D01*
X43453169Y-107560937D01*
X43279063Y-107386831D01*
X43142264Y-107182096D01*
X43048036Y-106954610D01*
X43000000Y-106713116D01*
X43000000Y-106466884D01*
X43048036Y-106225390D01*
X43142264Y-105997904D01*
X43279063Y-105793169D01*
X43453169Y-105619063D01*
X43657904Y-105482264D01*
X43885390Y-105388036D01*
X44126884Y-105340000D01*
X44373116Y-105340000D01*
X44614610Y-105388036D01*
X44614610Y-105388036D01*
G37*
G36*
X88114610Y-105388036D02*
X88342096Y-105482264D01*
X88546831Y-105619063D01*
X88720937Y-105793169D01*
X88857736Y-105997904D01*
X88951964Y-106225390D01*
X89000000Y-106466884D01*
X89000000Y-106713116D01*
X88951964Y-106954610D01*
X88857736Y-107182096D01*
X88720937Y-107386831D01*
X88546831Y-107560937D01*
X88342096Y-107697736D01*
X88114610Y-107791964D01*
X87873116Y-107840000D01*
X87626884Y-107840000D01*
X87385390Y-107791964D01*
X87157904Y-107697736D01*
X86953169Y-107560937D01*
X86779063Y-107386831D01*
X86642264Y-107182096D01*
X86548036Y-106954610D01*
X86500000Y-106713116D01*
X86500000Y-106466884D01*
X86548036Y-106225390D01*
X86642264Y-105997904D01*
X86779063Y-105793169D01*
X86953169Y-105619063D01*
X87157904Y-105482264D01*
X87385390Y-105388036D01*
X87626884Y-105340000D01*
X87873116Y-105340000D01*
X88114610Y-105388036D01*
X88114610Y-105388036D01*
G37*
G36*
X104614610Y-105388036D02*
X104842096Y-105482264D01*
X105046831Y-105619063D01*
X105220937Y-105793169D01*
X105357736Y-105997904D01*
X105451964Y-106225390D01*
X105500000Y-106466884D01*
X105500000Y-106713116D01*
X105451964Y-106954610D01*
X105357736Y-107182096D01*
X105220937Y-107386831D01*
X105046831Y-107560937D01*
X104842096Y-107697736D01*
X104614610Y-107791964D01*
X104373116Y-107840000D01*
X104126884Y-107840000D01*
X103885390Y-107791964D01*
X103657904Y-107697736D01*
X103453169Y-107560937D01*
X103279063Y-107386831D01*
X103142264Y-107182096D01*
X103048036Y-106954610D01*
X103000000Y-106713116D01*
X103000000Y-106466884D01*
X103048036Y-106225390D01*
X103142264Y-105997904D01*
X103279063Y-105793169D01*
X103453169Y-105619063D01*
X103657904Y-105482264D01*
X103885390Y-105388036D01*
X104126884Y-105340000D01*
X104373116Y-105340000D01*
X104614610Y-105388036D01*
X104614610Y-105388036D01*
G37*
G36*
X84614610Y-105388036D02*
X84842096Y-105482264D01*
X85046831Y-105619063D01*
X85220937Y-105793169D01*
X85357736Y-105997904D01*
X85451964Y-106225390D01*
X85500000Y-106466884D01*
X85500000Y-106713116D01*
X85451964Y-106954610D01*
X85357736Y-107182096D01*
X85220937Y-107386831D01*
X85046831Y-107560937D01*
X84842096Y-107697736D01*
X84614610Y-107791964D01*
X84373116Y-107840000D01*
X84126884Y-107840000D01*
X83885390Y-107791964D01*
X83657904Y-107697736D01*
X83453169Y-107560937D01*
X83279063Y-107386831D01*
X83142264Y-107182096D01*
X83048036Y-106954610D01*
X83000000Y-106713116D01*
X83000000Y-106466884D01*
X83048036Y-106225390D01*
X83142264Y-105997904D01*
X83279063Y-105793169D01*
X83453169Y-105619063D01*
X83657904Y-105482264D01*
X83885390Y-105388036D01*
X84126884Y-105340000D01*
X84373116Y-105340000D01*
X84614610Y-105388036D01*
X84614610Y-105388036D01*
G37*
G36*
X24614610Y-105388036D02*
X24842096Y-105482264D01*
X25046831Y-105619063D01*
X25220937Y-105793169D01*
X25357736Y-105997904D01*
X25451964Y-106225390D01*
X25500000Y-106466884D01*
X25500000Y-106713116D01*
X25451964Y-106954610D01*
X25357736Y-107182096D01*
X25220937Y-107386831D01*
X25046831Y-107560937D01*
X24842096Y-107697736D01*
X24614610Y-107791964D01*
X24373116Y-107840000D01*
X24126884Y-107840000D01*
X23885390Y-107791964D01*
X23657904Y-107697736D01*
X23453169Y-107560937D01*
X23279063Y-107386831D01*
X23142264Y-107182096D01*
X23048036Y-106954610D01*
X23000000Y-106713116D01*
X23000000Y-106466884D01*
X23048036Y-106225390D01*
X23142264Y-105997904D01*
X23279063Y-105793169D01*
X23453169Y-105619063D01*
X23657904Y-105482264D01*
X23885390Y-105388036D01*
X24126884Y-105340000D01*
X24373116Y-105340000D01*
X24614610Y-105388036D01*
X24614610Y-105388036D01*
G37*
G36*
X68114610Y-105388036D02*
X68342096Y-105482264D01*
X68546831Y-105619063D01*
X68720937Y-105793169D01*
X68857736Y-105997904D01*
X68951964Y-106225390D01*
X69000000Y-106466884D01*
X69000000Y-106713116D01*
X68951964Y-106954610D01*
X68857736Y-107182096D01*
X68720937Y-107386831D01*
X68546831Y-107560937D01*
X68342096Y-107697736D01*
X68114610Y-107791964D01*
X67873116Y-107840000D01*
X67626884Y-107840000D01*
X67385390Y-107791964D01*
X67157904Y-107697736D01*
X66953169Y-107560937D01*
X66779063Y-107386831D01*
X66642264Y-107182096D01*
X66548036Y-106954610D01*
X66500000Y-106713116D01*
X66500000Y-106466884D01*
X66548036Y-106225390D01*
X66642264Y-105997904D01*
X66779063Y-105793169D01*
X66953169Y-105619063D01*
X67157904Y-105482264D01*
X67385390Y-105388036D01*
X67626884Y-105340000D01*
X67873116Y-105340000D01*
X68114610Y-105388036D01*
X68114610Y-105388036D01*
G37*
G36*
X64614610Y-105388036D02*
X64842096Y-105482264D01*
X65046831Y-105619063D01*
X65220937Y-105793169D01*
X65357736Y-105997904D01*
X65451964Y-106225390D01*
X65500000Y-106466884D01*
X65500000Y-106713116D01*
X65451964Y-106954610D01*
X65357736Y-107182096D01*
X65220937Y-107386831D01*
X65046831Y-107560937D01*
X64842096Y-107697736D01*
X64614610Y-107791964D01*
X64373116Y-107840000D01*
X64126884Y-107840000D01*
X63885390Y-107791964D01*
X63657904Y-107697736D01*
X63453169Y-107560937D01*
X63279063Y-107386831D01*
X63142264Y-107182096D01*
X63048036Y-106954610D01*
X63000000Y-106713116D01*
X63000000Y-106466884D01*
X63048036Y-106225390D01*
X63142264Y-105997904D01*
X63279063Y-105793169D01*
X63453169Y-105619063D01*
X63657904Y-105482264D01*
X63885390Y-105388036D01*
X64126884Y-105340000D01*
X64373116Y-105340000D01*
X64614610Y-105388036D01*
X64614610Y-105388036D01*
G37*
G36*
X108114610Y-105388036D02*
X108342096Y-105482264D01*
X108546831Y-105619063D01*
X108720937Y-105793169D01*
X108857736Y-105997904D01*
X108951964Y-106225390D01*
X109000000Y-106466884D01*
X109000000Y-106713116D01*
X108951964Y-106954610D01*
X108857736Y-107182096D01*
X108720937Y-107386831D01*
X108546831Y-107560937D01*
X108342096Y-107697736D01*
X108114610Y-107791964D01*
X107873116Y-107840000D01*
X107626884Y-107840000D01*
X107385390Y-107791964D01*
X107157904Y-107697736D01*
X106953169Y-107560937D01*
X106779063Y-107386831D01*
X106642264Y-107182096D01*
X106548036Y-106954610D01*
X106500000Y-106713116D01*
X106500000Y-106466884D01*
X106548036Y-106225390D01*
X106642264Y-105997904D01*
X106779063Y-105793169D01*
X106953169Y-105619063D01*
X107157904Y-105482264D01*
X107385390Y-105388036D01*
X107626884Y-105340000D01*
X107873116Y-105340000D01*
X108114610Y-105388036D01*
X108114610Y-105388036D01*
G37*
G36*
X75500000Y-107175000D02*
X74500000Y-107175000D01*
X74500000Y-106225000D01*
X75500000Y-106225000D01*
X75500000Y-107175000D01*
X75500000Y-107175000D01*
G37*
G36*
X95500000Y-107175000D02*
X94500000Y-107175000D01*
X94500000Y-106225000D01*
X95500000Y-106225000D01*
X95500000Y-107175000D01*
X95500000Y-107175000D01*
G37*
G36*
X35500000Y-107175000D02*
X34500000Y-107175000D01*
X34500000Y-106225000D01*
X35500000Y-106225000D01*
X35500000Y-107175000D01*
X35500000Y-107175000D01*
G37*
G36*
X55500000Y-107175000D02*
X54500000Y-107175000D01*
X54500000Y-106225000D01*
X55500000Y-106225000D01*
X55500000Y-107175000D01*
X55500000Y-107175000D01*
G37*
G36*
X115500000Y-107175000D02*
X114500000Y-107175000D01*
X114500000Y-106225000D01*
X115500000Y-106225000D01*
X115500000Y-107175000D01*
X115500000Y-107175000D01*
G37*
G36*
X77100000Y-105500000D02*
X75900000Y-105500000D01*
X75900000Y-104300000D01*
X77100000Y-104300000D01*
X77100000Y-105500000D01*
X77100000Y-105500000D01*
G37*
G36*
X117350000Y-105500000D02*
X116150000Y-105500000D01*
X116150000Y-104300000D01*
X117350000Y-104300000D01*
X117350000Y-105500000D01*
X117350000Y-105500000D01*
G37*
G36*
X36600000Y-105500000D02*
X35400000Y-105500000D01*
X35400000Y-104300000D01*
X36600000Y-104300000D01*
X36600000Y-105500000D01*
X36600000Y-105500000D01*
G37*
G36*
X56850000Y-105500000D02*
X55650000Y-105500000D01*
X55650000Y-104300000D01*
X56850000Y-104300000D01*
X56850000Y-105500000D01*
X56850000Y-105500000D01*
G37*
G36*
X97350000Y-105250000D02*
X96150000Y-105250000D01*
X96150000Y-104050000D01*
X97350000Y-104050000D01*
X97350000Y-105250000D01*
X97350000Y-105250000D01*
G37*
G36*
X114275000Y-105000000D02*
X113325000Y-105000000D01*
X113325000Y-104000000D01*
X114275000Y-104000000D01*
X114275000Y-105000000D01*
X114275000Y-105000000D01*
G37*
G36*
X112675000Y-105000000D02*
X111725000Y-105000000D01*
X111725000Y-104000000D01*
X112675000Y-104000000D01*
X112675000Y-105000000D01*
X112675000Y-105000000D01*
G37*
G36*
X74325000Y-105000000D02*
X73375000Y-105000000D01*
X73375000Y-104000000D01*
X74325000Y-104000000D01*
X74325000Y-105000000D01*
X74325000Y-105000000D01*
G37*
G36*
X94275000Y-105000000D02*
X93325000Y-105000000D01*
X93325000Y-104000000D01*
X94275000Y-104000000D01*
X94275000Y-105000000D01*
X94275000Y-105000000D01*
G37*
G36*
X72725000Y-105000000D02*
X71775000Y-105000000D01*
X71775000Y-104000000D01*
X72725000Y-104000000D01*
X72725000Y-105000000D01*
X72725000Y-105000000D01*
G37*
G36*
X32675000Y-105000000D02*
X31725000Y-105000000D01*
X31725000Y-104000000D01*
X32675000Y-104000000D01*
X32675000Y-105000000D01*
X32675000Y-105000000D01*
G37*
G36*
X34275000Y-105000000D02*
X33325000Y-105000000D01*
X33325000Y-104000000D01*
X34275000Y-104000000D01*
X34275000Y-105000000D01*
X34275000Y-105000000D01*
G37*
G36*
X92675000Y-105000000D02*
X91725000Y-105000000D01*
X91725000Y-104000000D01*
X92675000Y-104000000D01*
X92675000Y-105000000D01*
X92675000Y-105000000D01*
G37*
G36*
X52675000Y-105000000D02*
X51725000Y-105000000D01*
X51725000Y-104000000D01*
X52675000Y-104000000D01*
X52675000Y-105000000D01*
X52675000Y-105000000D01*
G37*
G36*
X54275000Y-105000000D02*
X53325000Y-105000000D01*
X53325000Y-104000000D01*
X54275000Y-104000000D01*
X54275000Y-105000000D01*
X54275000Y-105000000D01*
G37*
G36*
X104614610Y-102388036D02*
X104842096Y-102482264D01*
X105046831Y-102619063D01*
X105220937Y-102793169D01*
X105357736Y-102997904D01*
X105451964Y-103225390D01*
X105500000Y-103466884D01*
X105500000Y-103713116D01*
X105451964Y-103954610D01*
X105357736Y-104182096D01*
X105220937Y-104386831D01*
X105046831Y-104560937D01*
X104842096Y-104697736D01*
X104614610Y-104791964D01*
X104373116Y-104840000D01*
X104126884Y-104840000D01*
X103885390Y-104791964D01*
X103657904Y-104697736D01*
X103453169Y-104560937D01*
X103279063Y-104386831D01*
X103142264Y-104182096D01*
X103048036Y-103954610D01*
X103000000Y-103713116D01*
X103000000Y-103466884D01*
X103048036Y-103225390D01*
X103142264Y-102997904D01*
X103279063Y-102793169D01*
X103453169Y-102619063D01*
X103657904Y-102482264D01*
X103885390Y-102388036D01*
X104126884Y-102340000D01*
X104373116Y-102340000D01*
X104614610Y-102388036D01*
X104614610Y-102388036D01*
G37*
G36*
X108114610Y-102388036D02*
X108342096Y-102482264D01*
X108546831Y-102619063D01*
X108720937Y-102793169D01*
X108857736Y-102997904D01*
X108951964Y-103225390D01*
X109000000Y-103466884D01*
X109000000Y-103713116D01*
X108951964Y-103954610D01*
X108857736Y-104182096D01*
X108720937Y-104386831D01*
X108546831Y-104560937D01*
X108342096Y-104697736D01*
X108114610Y-104791964D01*
X107873116Y-104840000D01*
X107626884Y-104840000D01*
X107385390Y-104791964D01*
X107157904Y-104697736D01*
X106953169Y-104560937D01*
X106779063Y-104386831D01*
X106642264Y-104182096D01*
X106548036Y-103954610D01*
X106500000Y-103713116D01*
X106500000Y-103466884D01*
X106548036Y-103225390D01*
X106642264Y-102997904D01*
X106779063Y-102793169D01*
X106953169Y-102619063D01*
X107157904Y-102482264D01*
X107385390Y-102388036D01*
X107626884Y-102340000D01*
X107873116Y-102340000D01*
X108114610Y-102388036D01*
X108114610Y-102388036D01*
G37*
G36*
X28114610Y-102388036D02*
X28342096Y-102482264D01*
X28546831Y-102619063D01*
X28720937Y-102793169D01*
X28857736Y-102997904D01*
X28951964Y-103225390D01*
X29000000Y-103466884D01*
X29000000Y-103713116D01*
X28951964Y-103954610D01*
X28857736Y-104182096D01*
X28720937Y-104386831D01*
X28546831Y-104560937D01*
X28342096Y-104697736D01*
X28114610Y-104791964D01*
X27873116Y-104840000D01*
X27626884Y-104840000D01*
X27385390Y-104791964D01*
X27157904Y-104697736D01*
X26953169Y-104560937D01*
X26779063Y-104386831D01*
X26642264Y-104182096D01*
X26548036Y-103954610D01*
X26500000Y-103713116D01*
X26500000Y-103466884D01*
X26548036Y-103225390D01*
X26642264Y-102997904D01*
X26779063Y-102793169D01*
X26953169Y-102619063D01*
X27157904Y-102482264D01*
X27385390Y-102388036D01*
X27626884Y-102340000D01*
X27873116Y-102340000D01*
X28114610Y-102388036D01*
X28114610Y-102388036D01*
G37*
G36*
X24614610Y-102388036D02*
X24842096Y-102482264D01*
X25046831Y-102619063D01*
X25220937Y-102793169D01*
X25357736Y-102997904D01*
X25451964Y-103225390D01*
X25500000Y-103466884D01*
X25500000Y-103713116D01*
X25451964Y-103954610D01*
X25357736Y-104182096D01*
X25220937Y-104386831D01*
X25046831Y-104560937D01*
X24842096Y-104697736D01*
X24614610Y-104791964D01*
X24373116Y-104840000D01*
X24126884Y-104840000D01*
X23885390Y-104791964D01*
X23657904Y-104697736D01*
X23453169Y-104560937D01*
X23279063Y-104386831D01*
X23142264Y-104182096D01*
X23048036Y-103954610D01*
X23000000Y-103713116D01*
X23000000Y-103466884D01*
X23048036Y-103225390D01*
X23142264Y-102997904D01*
X23279063Y-102793169D01*
X23453169Y-102619063D01*
X23657904Y-102482264D01*
X23885390Y-102388036D01*
X24126884Y-102340000D01*
X24373116Y-102340000D01*
X24614610Y-102388036D01*
X24614610Y-102388036D01*
G37*
G36*
X48114610Y-102388036D02*
X48342096Y-102482264D01*
X48546831Y-102619063D01*
X48720937Y-102793169D01*
X48857736Y-102997904D01*
X48951964Y-103225390D01*
X49000000Y-103466884D01*
X49000000Y-103713116D01*
X48951964Y-103954610D01*
X48857736Y-104182096D01*
X48720937Y-104386831D01*
X48546831Y-104560937D01*
X48342096Y-104697736D01*
X48114610Y-104791964D01*
X47873116Y-104840000D01*
X47626884Y-104840000D01*
X47385390Y-104791964D01*
X47157904Y-104697736D01*
X46953169Y-104560937D01*
X46779063Y-104386831D01*
X46642264Y-104182096D01*
X46548036Y-103954610D01*
X46500000Y-103713116D01*
X46500000Y-103466884D01*
X46548036Y-103225390D01*
X46642264Y-102997904D01*
X46779063Y-102793169D01*
X46953169Y-102619063D01*
X47157904Y-102482264D01*
X47385390Y-102388036D01*
X47626884Y-102340000D01*
X47873116Y-102340000D01*
X48114610Y-102388036D01*
X48114610Y-102388036D01*
G37*
G36*
X68114610Y-102388036D02*
X68342096Y-102482264D01*
X68546831Y-102619063D01*
X68720937Y-102793169D01*
X68857736Y-102997904D01*
X68951964Y-103225390D01*
X69000000Y-103466884D01*
X69000000Y-103713116D01*
X68951964Y-103954610D01*
X68857736Y-104182096D01*
X68720937Y-104386831D01*
X68546831Y-104560937D01*
X68342096Y-104697736D01*
X68114610Y-104791964D01*
X67873116Y-104840000D01*
X67626884Y-104840000D01*
X67385390Y-104791964D01*
X67157904Y-104697736D01*
X66953169Y-104560937D01*
X66779063Y-104386831D01*
X66642264Y-104182096D01*
X66548036Y-103954610D01*
X66500000Y-103713116D01*
X66500000Y-103466884D01*
X66548036Y-103225390D01*
X66642264Y-102997904D01*
X66779063Y-102793169D01*
X66953169Y-102619063D01*
X67157904Y-102482264D01*
X67385390Y-102388036D01*
X67626884Y-102340000D01*
X67873116Y-102340000D01*
X68114610Y-102388036D01*
X68114610Y-102388036D01*
G37*
G36*
X44614610Y-102388036D02*
X44842096Y-102482264D01*
X45046831Y-102619063D01*
X45220937Y-102793169D01*
X45357736Y-102997904D01*
X45451964Y-103225390D01*
X45500000Y-103466884D01*
X45500000Y-103713116D01*
X45451964Y-103954610D01*
X45357736Y-104182096D01*
X45220937Y-104386831D01*
X45046831Y-104560937D01*
X44842096Y-104697736D01*
X44614610Y-104791964D01*
X44373116Y-104840000D01*
X44126884Y-104840000D01*
X43885390Y-104791964D01*
X43657904Y-104697736D01*
X43453169Y-104560937D01*
X43279063Y-104386831D01*
X43142264Y-104182096D01*
X43048036Y-103954610D01*
X43000000Y-103713116D01*
X43000000Y-103466884D01*
X43048036Y-103225390D01*
X43142264Y-102997904D01*
X43279063Y-102793169D01*
X43453169Y-102619063D01*
X43657904Y-102482264D01*
X43885390Y-102388036D01*
X44126884Y-102340000D01*
X44373116Y-102340000D01*
X44614610Y-102388036D01*
X44614610Y-102388036D01*
G37*
G36*
X88114610Y-102388036D02*
X88342096Y-102482264D01*
X88546831Y-102619063D01*
X88720937Y-102793169D01*
X88857736Y-102997904D01*
X88951964Y-103225390D01*
X89000000Y-103466884D01*
X89000000Y-103713116D01*
X88951964Y-103954610D01*
X88857736Y-104182096D01*
X88720937Y-104386831D01*
X88546831Y-104560937D01*
X88342096Y-104697736D01*
X88114610Y-104791964D01*
X87873116Y-104840000D01*
X87626884Y-104840000D01*
X87385390Y-104791964D01*
X87157904Y-104697736D01*
X86953169Y-104560937D01*
X86779063Y-104386831D01*
X86642264Y-104182096D01*
X86548036Y-103954610D01*
X86500000Y-103713116D01*
X86500000Y-103466884D01*
X86548036Y-103225390D01*
X86642264Y-102997904D01*
X86779063Y-102793169D01*
X86953169Y-102619063D01*
X87157904Y-102482264D01*
X87385390Y-102388036D01*
X87626884Y-102340000D01*
X87873116Y-102340000D01*
X88114610Y-102388036D01*
X88114610Y-102388036D01*
G37*
G36*
X84614610Y-102388036D02*
X84842096Y-102482264D01*
X85046831Y-102619063D01*
X85220937Y-102793169D01*
X85357736Y-102997904D01*
X85451964Y-103225390D01*
X85500000Y-103466884D01*
X85500000Y-103713116D01*
X85451964Y-103954610D01*
X85357736Y-104182096D01*
X85220937Y-104386831D01*
X85046831Y-104560937D01*
X84842096Y-104697736D01*
X84614610Y-104791964D01*
X84373116Y-104840000D01*
X84126884Y-104840000D01*
X83885390Y-104791964D01*
X83657904Y-104697736D01*
X83453169Y-104560937D01*
X83279063Y-104386831D01*
X83142264Y-104182096D01*
X83048036Y-103954610D01*
X83000000Y-103713116D01*
X83000000Y-103466884D01*
X83048036Y-103225390D01*
X83142264Y-102997904D01*
X83279063Y-102793169D01*
X83453169Y-102619063D01*
X83657904Y-102482264D01*
X83885390Y-102388036D01*
X84126884Y-102340000D01*
X84373116Y-102340000D01*
X84614610Y-102388036D01*
X84614610Y-102388036D01*
G37*
G36*
X64614610Y-102388036D02*
X64842096Y-102482264D01*
X65046831Y-102619063D01*
X65220937Y-102793169D01*
X65357736Y-102997904D01*
X65451964Y-103225390D01*
X65500000Y-103466884D01*
X65500000Y-103713116D01*
X65451964Y-103954610D01*
X65357736Y-104182096D01*
X65220937Y-104386831D01*
X65046831Y-104560937D01*
X64842096Y-104697736D01*
X64614610Y-104791964D01*
X64373116Y-104840000D01*
X64126884Y-104840000D01*
X63885390Y-104791964D01*
X63657904Y-104697736D01*
X63453169Y-104560937D01*
X63279063Y-104386831D01*
X63142264Y-104182096D01*
X63048036Y-103954610D01*
X63000000Y-103713116D01*
X63000000Y-103466884D01*
X63048036Y-103225390D01*
X63142264Y-102997904D01*
X63279063Y-102793169D01*
X63453169Y-102619063D01*
X63657904Y-102482264D01*
X63885390Y-102388036D01*
X64126884Y-102340000D01*
X64373116Y-102340000D01*
X64614610Y-102388036D01*
X64614610Y-102388036D01*
G37*
G36*
X36600000Y-102700000D02*
X35400000Y-102700000D01*
X35400000Y-101500000D01*
X36600000Y-101500000D01*
X36600000Y-102700000D01*
X36600000Y-102700000D01*
G37*
G36*
X117350000Y-102700000D02*
X116150000Y-102700000D01*
X116150000Y-101500000D01*
X117350000Y-101500000D01*
X117350000Y-102700000D01*
X117350000Y-102700000D01*
G37*
G36*
X77100000Y-102700000D02*
X75900000Y-102700000D01*
X75900000Y-101500000D01*
X77100000Y-101500000D01*
X77100000Y-102700000D01*
X77100000Y-102700000D01*
G37*
G36*
X56850000Y-102700000D02*
X55650000Y-102700000D01*
X55650000Y-101500000D01*
X56850000Y-101500000D01*
X56850000Y-102700000D01*
X56850000Y-102700000D01*
G37*
G36*
X32675000Y-102600000D02*
X31725000Y-102600000D01*
X31725000Y-101600000D01*
X32675000Y-101600000D01*
X32675000Y-102600000D01*
X32675000Y-102600000D01*
G37*
G36*
X34275000Y-102600000D02*
X33325000Y-102600000D01*
X33325000Y-101600000D01*
X34275000Y-101600000D01*
X34275000Y-102600000D01*
X34275000Y-102600000D01*
G37*
G36*
X114275000Y-102500000D02*
X113325000Y-102500000D01*
X113325000Y-101500000D01*
X114275000Y-101500000D01*
X114275000Y-102500000D01*
X114275000Y-102500000D01*
G37*
G36*
X74275000Y-102500000D02*
X73325000Y-102500000D01*
X73325000Y-101500000D01*
X74275000Y-101500000D01*
X74275000Y-102500000D01*
X74275000Y-102500000D01*
G37*
G36*
X72675000Y-102500000D02*
X71725000Y-102500000D01*
X71725000Y-101500000D01*
X72675000Y-101500000D01*
X72675000Y-102500000D01*
X72675000Y-102500000D01*
G37*
G36*
X112675000Y-102500000D02*
X111725000Y-102500000D01*
X111725000Y-101500000D01*
X112675000Y-101500000D01*
X112675000Y-102500000D01*
X112675000Y-102500000D01*
G37*
G36*
X92675000Y-102500000D02*
X91725000Y-102500000D01*
X91725000Y-101500000D01*
X92675000Y-101500000D01*
X92675000Y-102500000D01*
X92675000Y-102500000D01*
G37*
G36*
X94275000Y-102500000D02*
X93325000Y-102500000D01*
X93325000Y-101500000D01*
X94275000Y-101500000D01*
X94275000Y-102500000D01*
X94275000Y-102500000D01*
G37*
G36*
X54275000Y-102500000D02*
X53325000Y-102500000D01*
X53325000Y-101500000D01*
X54275000Y-101500000D01*
X54275000Y-102500000D01*
X54275000Y-102500000D01*
G37*
G36*
X52675000Y-102500000D02*
X51725000Y-102500000D01*
X51725000Y-101500000D01*
X52675000Y-101500000D01*
X52675000Y-102500000D01*
X52675000Y-102500000D01*
G37*
G36*
X97350000Y-102450000D02*
X96150000Y-102450000D01*
X96150000Y-101250000D01*
X97350000Y-101250000D01*
X97350000Y-102450000D01*
X97350000Y-102450000D01*
G37*
G36*
X43500000Y-100275000D02*
X42500000Y-100275000D01*
X42500000Y-99325000D01*
X43500000Y-99325000D01*
X43500000Y-100275000D01*
X43500000Y-100275000D01*
G37*
G36*
X23500000Y-100275000D02*
X22500000Y-100275000D01*
X22500000Y-99325000D01*
X23500000Y-99325000D01*
X23500000Y-100275000D01*
X23500000Y-100275000D01*
G37*
G36*
X83500000Y-100275000D02*
X82500000Y-100275000D01*
X82500000Y-99325000D01*
X83500000Y-99325000D01*
X83500000Y-100275000D01*
X83500000Y-100275000D01*
G37*
G36*
X63500000Y-100275000D02*
X62500000Y-100275000D01*
X62500000Y-99325000D01*
X63500000Y-99325000D01*
X63500000Y-100275000D01*
X63500000Y-100275000D01*
G37*
G36*
X103500000Y-100275000D02*
X102500000Y-100275000D01*
X102500000Y-99325000D01*
X103500000Y-99325000D01*
X103500000Y-100275000D01*
X103500000Y-100275000D01*
G37*
G36*
X114937532Y-96597643D02*
X114937535Y-96597644D01*
X114937534Y-96597644D01*
X115210517Y-96710717D01*
X115350768Y-96804430D01*
X115456197Y-96874875D01*
X115665125Y-97083803D01*
X115735570Y-97189232D01*
X115829283Y-97329483D01*
X115922956Y-97555631D01*
X115942357Y-97602468D01*
X116000000Y-97892261D01*
X116000000Y-98187739D01*
X115942357Y-98477532D01*
X115942356Y-98477534D01*
X115829283Y-98750517D01*
X115735570Y-98890768D01*
X115665125Y-98996197D01*
X115456197Y-99205125D01*
X115350768Y-99275570D01*
X115210517Y-99369283D01*
X115034100Y-99442357D01*
X114937532Y-99482357D01*
X114647739Y-99540000D01*
X114352261Y-99540000D01*
X114062468Y-99482357D01*
X113965900Y-99442357D01*
X113789483Y-99369283D01*
X113649232Y-99275570D01*
X113543803Y-99205125D01*
X113334875Y-98996197D01*
X113264430Y-98890768D01*
X113170717Y-98750517D01*
X113057644Y-98477534D01*
X113057643Y-98477532D01*
X113000000Y-98187739D01*
X113000000Y-97892261D01*
X113057643Y-97602468D01*
X113077044Y-97555631D01*
X113170717Y-97329483D01*
X113264430Y-97189232D01*
X113334875Y-97083803D01*
X113543803Y-96874875D01*
X113649232Y-96804430D01*
X113789483Y-96710717D01*
X114062466Y-96597644D01*
X114062465Y-96597644D01*
X114062468Y-96597643D01*
X114352261Y-96540000D01*
X114647739Y-96540000D01*
X114937532Y-96597643D01*
X114937532Y-96597643D01*
G37*
G36*
X107437532Y-96597643D02*
X107437535Y-96597644D01*
X107437534Y-96597644D01*
X107710517Y-96710717D01*
X107850768Y-96804430D01*
X107956197Y-96874875D01*
X108165125Y-97083803D01*
X108235570Y-97189232D01*
X108329283Y-97329483D01*
X108422956Y-97555631D01*
X108442357Y-97602468D01*
X108500000Y-97892261D01*
X108500000Y-98187739D01*
X108442357Y-98477532D01*
X108442356Y-98477534D01*
X108329283Y-98750517D01*
X108235570Y-98890768D01*
X108165125Y-98996197D01*
X107956197Y-99205125D01*
X107850768Y-99275570D01*
X107710517Y-99369283D01*
X107534100Y-99442357D01*
X107437532Y-99482357D01*
X107147739Y-99540000D01*
X106852261Y-99540000D01*
X106562468Y-99482357D01*
X106465900Y-99442357D01*
X106289483Y-99369283D01*
X106149232Y-99275570D01*
X106043803Y-99205125D01*
X105834875Y-98996197D01*
X105764430Y-98890768D01*
X105670717Y-98750517D01*
X105557644Y-98477534D01*
X105557643Y-98477532D01*
X105500000Y-98187739D01*
X105500000Y-97892261D01*
X105557643Y-97602468D01*
X105577044Y-97555631D01*
X105670717Y-97329483D01*
X105764430Y-97189232D01*
X105834875Y-97083803D01*
X106043803Y-96874875D01*
X106149232Y-96804430D01*
X106289483Y-96710717D01*
X106562466Y-96597644D01*
X106562465Y-96597644D01*
X106562468Y-96597643D01*
X106852261Y-96540000D01*
X107147739Y-96540000D01*
X107437532Y-96597643D01*
X107437532Y-96597643D01*
G37*
G36*
X34937532Y-96557643D02*
X34937535Y-96557644D01*
X34937534Y-96557644D01*
X35210517Y-96670717D01*
X35350768Y-96764430D01*
X35456197Y-96834875D01*
X35665125Y-97043803D01*
X35735570Y-97149232D01*
X35829283Y-97289483D01*
X35845852Y-97329485D01*
X35942357Y-97562468D01*
X36000000Y-97852261D01*
X36000000Y-98147739D01*
X35942357Y-98437532D01*
X35922956Y-98484369D01*
X35829283Y-98710517D01*
X35735570Y-98850768D01*
X35665125Y-98956197D01*
X35456197Y-99165125D01*
X35350768Y-99235570D01*
X35210517Y-99329283D01*
X34984369Y-99422956D01*
X34937532Y-99442357D01*
X34647739Y-99500000D01*
X34352261Y-99500000D01*
X34062468Y-99442357D01*
X34015631Y-99422956D01*
X33789483Y-99329283D01*
X33649232Y-99235570D01*
X33543803Y-99165125D01*
X33334875Y-98956197D01*
X33264430Y-98850768D01*
X33170717Y-98710517D01*
X33077044Y-98484369D01*
X33057643Y-98437532D01*
X33000000Y-98147739D01*
X33000000Y-97852261D01*
X33057643Y-97562468D01*
X33154148Y-97329485D01*
X33170717Y-97289483D01*
X33264430Y-97149232D01*
X33334875Y-97043803D01*
X33543803Y-96834875D01*
X33649232Y-96764430D01*
X33789483Y-96670717D01*
X34062466Y-96557644D01*
X34062465Y-96557644D01*
X34062468Y-96557643D01*
X34352261Y-96500000D01*
X34647739Y-96500000D01*
X34937532Y-96557643D01*
X34937532Y-96557643D01*
G37*
G36*
X87437532Y-96557643D02*
X87437535Y-96557644D01*
X87437534Y-96557644D01*
X87710517Y-96670717D01*
X87850768Y-96764430D01*
X87956197Y-96834875D01*
X88165125Y-97043803D01*
X88235570Y-97149232D01*
X88329283Y-97289483D01*
X88345852Y-97329485D01*
X88442357Y-97562468D01*
X88500000Y-97852261D01*
X88500000Y-98147739D01*
X88442357Y-98437532D01*
X88422956Y-98484369D01*
X88329283Y-98710517D01*
X88235570Y-98850768D01*
X88165125Y-98956197D01*
X87956197Y-99165125D01*
X87850768Y-99235570D01*
X87710517Y-99329283D01*
X87484369Y-99422956D01*
X87437532Y-99442357D01*
X87147739Y-99500000D01*
X86852261Y-99500000D01*
X86562468Y-99442357D01*
X86515631Y-99422956D01*
X86289483Y-99329283D01*
X86149232Y-99235570D01*
X86043803Y-99165125D01*
X85834875Y-98956197D01*
X85764430Y-98850768D01*
X85670717Y-98710517D01*
X85577044Y-98484369D01*
X85557643Y-98437532D01*
X85500000Y-98147739D01*
X85500000Y-97852261D01*
X85557643Y-97562468D01*
X85654148Y-97329485D01*
X85670717Y-97289483D01*
X85764430Y-97149232D01*
X85834875Y-97043803D01*
X86043803Y-96834875D01*
X86149232Y-96764430D01*
X86289483Y-96670717D01*
X86562466Y-96557644D01*
X86562465Y-96557644D01*
X86562468Y-96557643D01*
X86852261Y-96500000D01*
X87147739Y-96500000D01*
X87437532Y-96557643D01*
X87437532Y-96557643D01*
G37*
G36*
X27437532Y-96557643D02*
X27437535Y-96557644D01*
X27437534Y-96557644D01*
X27710517Y-96670717D01*
X27850768Y-96764430D01*
X27956197Y-96834875D01*
X28165125Y-97043803D01*
X28235570Y-97149232D01*
X28329283Y-97289483D01*
X28345852Y-97329485D01*
X28442357Y-97562468D01*
X28500000Y-97852261D01*
X28500000Y-98147739D01*
X28442357Y-98437532D01*
X28422956Y-98484369D01*
X28329283Y-98710517D01*
X28235570Y-98850768D01*
X28165125Y-98956197D01*
X27956197Y-99165125D01*
X27850768Y-99235570D01*
X27710517Y-99329283D01*
X27484369Y-99422956D01*
X27437532Y-99442357D01*
X27147739Y-99500000D01*
X26852261Y-99500000D01*
X26562468Y-99442357D01*
X26515631Y-99422956D01*
X26289483Y-99329283D01*
X26149232Y-99235570D01*
X26043803Y-99165125D01*
X25834875Y-98956197D01*
X25764430Y-98850768D01*
X25670717Y-98710517D01*
X25577044Y-98484369D01*
X25557643Y-98437532D01*
X25500000Y-98147739D01*
X25500000Y-97852261D01*
X25557643Y-97562468D01*
X25654148Y-97329485D01*
X25670717Y-97289483D01*
X25764430Y-97149232D01*
X25834875Y-97043803D01*
X26043803Y-96834875D01*
X26149232Y-96764430D01*
X26289483Y-96670717D01*
X26562466Y-96557644D01*
X26562465Y-96557644D01*
X26562468Y-96557643D01*
X26852261Y-96500000D01*
X27147739Y-96500000D01*
X27437532Y-96557643D01*
X27437532Y-96557643D01*
G37*
G36*
X47437532Y-96557643D02*
X47437535Y-96557644D01*
X47437534Y-96557644D01*
X47710517Y-96670717D01*
X47850768Y-96764430D01*
X47956197Y-96834875D01*
X48165125Y-97043803D01*
X48235570Y-97149232D01*
X48329283Y-97289483D01*
X48345852Y-97329485D01*
X48442357Y-97562468D01*
X48500000Y-97852261D01*
X48500000Y-98147739D01*
X48442357Y-98437532D01*
X48422956Y-98484369D01*
X48329283Y-98710517D01*
X48235570Y-98850768D01*
X48165125Y-98956197D01*
X47956197Y-99165125D01*
X47850768Y-99235570D01*
X47710517Y-99329283D01*
X47484369Y-99422956D01*
X47437532Y-99442357D01*
X47147739Y-99500000D01*
X46852261Y-99500000D01*
X46562468Y-99442357D01*
X46515631Y-99422956D01*
X46289483Y-99329283D01*
X46149232Y-99235570D01*
X46043803Y-99165125D01*
X45834875Y-98956197D01*
X45764430Y-98850768D01*
X45670717Y-98710517D01*
X45577044Y-98484369D01*
X45557643Y-98437532D01*
X45500000Y-98147739D01*
X45500000Y-97852261D01*
X45557643Y-97562468D01*
X45654148Y-97329485D01*
X45670717Y-97289483D01*
X45764430Y-97149232D01*
X45834875Y-97043803D01*
X46043803Y-96834875D01*
X46149232Y-96764430D01*
X46289483Y-96670717D01*
X46562466Y-96557644D01*
X46562465Y-96557644D01*
X46562468Y-96557643D01*
X46852261Y-96500000D01*
X47147739Y-96500000D01*
X47437532Y-96557643D01*
X47437532Y-96557643D01*
G37*
G36*
X54937532Y-96557643D02*
X54937535Y-96557644D01*
X54937534Y-96557644D01*
X55210517Y-96670717D01*
X55350768Y-96764430D01*
X55456197Y-96834875D01*
X55665125Y-97043803D01*
X55735570Y-97149232D01*
X55829283Y-97289483D01*
X55845852Y-97329485D01*
X55942357Y-97562468D01*
X56000000Y-97852261D01*
X56000000Y-98147739D01*
X55942357Y-98437532D01*
X55922956Y-98484369D01*
X55829283Y-98710517D01*
X55735570Y-98850768D01*
X55665125Y-98956197D01*
X55456197Y-99165125D01*
X55350768Y-99235570D01*
X55210517Y-99329283D01*
X54984369Y-99422956D01*
X54937532Y-99442357D01*
X54647739Y-99500000D01*
X54352261Y-99500000D01*
X54062468Y-99442357D01*
X54015631Y-99422956D01*
X53789483Y-99329283D01*
X53649232Y-99235570D01*
X53543803Y-99165125D01*
X53334875Y-98956197D01*
X53264430Y-98850768D01*
X53170717Y-98710517D01*
X53077044Y-98484369D01*
X53057643Y-98437532D01*
X53000000Y-98147739D01*
X53000000Y-97852261D01*
X53057643Y-97562468D01*
X53154148Y-97329485D01*
X53170717Y-97289483D01*
X53264430Y-97149232D01*
X53334875Y-97043803D01*
X53543803Y-96834875D01*
X53649232Y-96764430D01*
X53789483Y-96670717D01*
X54062466Y-96557644D01*
X54062465Y-96557644D01*
X54062468Y-96557643D01*
X54352261Y-96500000D01*
X54647739Y-96500000D01*
X54937532Y-96557643D01*
X54937532Y-96557643D01*
G37*
G36*
X94937532Y-96557643D02*
X94937535Y-96557644D01*
X94937534Y-96557644D01*
X95210517Y-96670717D01*
X95350768Y-96764430D01*
X95456197Y-96834875D01*
X95665125Y-97043803D01*
X95735570Y-97149232D01*
X95829283Y-97289483D01*
X95845852Y-97329485D01*
X95942357Y-97562468D01*
X96000000Y-97852261D01*
X96000000Y-98147739D01*
X95942357Y-98437532D01*
X95922956Y-98484369D01*
X95829283Y-98710517D01*
X95735570Y-98850768D01*
X95665125Y-98956197D01*
X95456197Y-99165125D01*
X95350768Y-99235570D01*
X95210517Y-99329283D01*
X94984369Y-99422956D01*
X94937532Y-99442357D01*
X94647739Y-99500000D01*
X94352261Y-99500000D01*
X94062468Y-99442357D01*
X94015631Y-99422956D01*
X93789483Y-99329283D01*
X93649232Y-99235570D01*
X93543803Y-99165125D01*
X93334875Y-98956197D01*
X93264430Y-98850768D01*
X93170717Y-98710517D01*
X93077044Y-98484369D01*
X93057643Y-98437532D01*
X93000000Y-98147739D01*
X93000000Y-97852261D01*
X93057643Y-97562468D01*
X93154148Y-97329485D01*
X93170717Y-97289483D01*
X93264430Y-97149232D01*
X93334875Y-97043803D01*
X93543803Y-96834875D01*
X93649232Y-96764430D01*
X93789483Y-96670717D01*
X94062466Y-96557644D01*
X94062465Y-96557644D01*
X94062468Y-96557643D01*
X94352261Y-96500000D01*
X94647739Y-96500000D01*
X94937532Y-96557643D01*
X94937532Y-96557643D01*
G37*
G36*
X67437532Y-96557643D02*
X67437535Y-96557644D01*
X67437534Y-96557644D01*
X67710517Y-96670717D01*
X67850768Y-96764430D01*
X67956197Y-96834875D01*
X68165125Y-97043803D01*
X68235570Y-97149232D01*
X68329283Y-97289483D01*
X68345852Y-97329485D01*
X68442357Y-97562468D01*
X68500000Y-97852261D01*
X68500000Y-98147739D01*
X68442357Y-98437532D01*
X68422956Y-98484369D01*
X68329283Y-98710517D01*
X68235570Y-98850768D01*
X68165125Y-98956197D01*
X67956197Y-99165125D01*
X67850768Y-99235570D01*
X67710517Y-99329283D01*
X67484369Y-99422956D01*
X67437532Y-99442357D01*
X67147739Y-99500000D01*
X66852261Y-99500000D01*
X66562468Y-99442357D01*
X66515631Y-99422956D01*
X66289483Y-99329283D01*
X66149232Y-99235570D01*
X66043803Y-99165125D01*
X65834875Y-98956197D01*
X65764430Y-98850768D01*
X65670717Y-98710517D01*
X65577044Y-98484369D01*
X65557643Y-98437532D01*
X65500000Y-98147739D01*
X65500000Y-97852261D01*
X65557643Y-97562468D01*
X65654148Y-97329485D01*
X65670717Y-97289483D01*
X65764430Y-97149232D01*
X65834875Y-97043803D01*
X66043803Y-96834875D01*
X66149232Y-96764430D01*
X66289483Y-96670717D01*
X66562466Y-96557644D01*
X66562465Y-96557644D01*
X66562468Y-96557643D01*
X66852261Y-96500000D01*
X67147739Y-96500000D01*
X67437532Y-96557643D01*
X67437532Y-96557643D01*
G37*
G36*
X74937532Y-96557643D02*
X74937535Y-96557644D01*
X74937534Y-96557644D01*
X75210517Y-96670717D01*
X75350768Y-96764430D01*
X75456197Y-96834875D01*
X75665125Y-97043803D01*
X75735570Y-97149232D01*
X75829283Y-97289483D01*
X75845852Y-97329485D01*
X75942357Y-97562468D01*
X76000000Y-97852261D01*
X76000000Y-98147739D01*
X75942357Y-98437532D01*
X75922956Y-98484369D01*
X75829283Y-98710517D01*
X75735570Y-98850768D01*
X75665125Y-98956197D01*
X75456197Y-99165125D01*
X75350768Y-99235570D01*
X75210517Y-99329283D01*
X74984369Y-99422956D01*
X74937532Y-99442357D01*
X74647739Y-99500000D01*
X74352261Y-99500000D01*
X74062468Y-99442357D01*
X74015631Y-99422956D01*
X73789483Y-99329283D01*
X73649232Y-99235570D01*
X73543803Y-99165125D01*
X73334875Y-98956197D01*
X73264430Y-98850768D01*
X73170717Y-98710517D01*
X73077044Y-98484369D01*
X73057643Y-98437532D01*
X73000000Y-98147739D01*
X73000000Y-97852261D01*
X73057643Y-97562468D01*
X73154148Y-97329485D01*
X73170717Y-97289483D01*
X73264430Y-97149232D01*
X73334875Y-97043803D01*
X73543803Y-96834875D01*
X73649232Y-96764430D01*
X73789483Y-96670717D01*
X74062466Y-96557644D01*
X74062465Y-96557644D01*
X74062468Y-96557643D01*
X74352261Y-96500000D01*
X74647739Y-96500000D01*
X74937532Y-96557643D01*
X74937532Y-96557643D01*
G37*
G36*
X63500000Y-98675000D02*
X62500000Y-98675000D01*
X62500000Y-97725000D01*
X63500000Y-97725000D01*
X63500000Y-98675000D01*
X63500000Y-98675000D01*
G37*
G36*
X103500000Y-98675000D02*
X102500000Y-98675000D01*
X102500000Y-97725000D01*
X103500000Y-97725000D01*
X103500000Y-98675000D01*
X103500000Y-98675000D01*
G37*
G36*
X43500000Y-98675000D02*
X42500000Y-98675000D01*
X42500000Y-97725000D01*
X43500000Y-97725000D01*
X43500000Y-98675000D01*
X43500000Y-98675000D01*
G37*
G36*
X83500000Y-98675000D02*
X82500000Y-98675000D01*
X82500000Y-97725000D01*
X83500000Y-97725000D01*
X83500000Y-98675000D01*
X83500000Y-98675000D01*
G37*
G36*
X23500000Y-98675000D02*
X22500000Y-98675000D01*
X22500000Y-97725000D01*
X23500000Y-97725000D01*
X23500000Y-98675000D01*
X23500000Y-98675000D01*
G37*
G36*
X83500000Y-96275000D02*
X82500000Y-96275000D01*
X82500000Y-95325000D01*
X83500000Y-95325000D01*
X83500000Y-96275000D01*
X83500000Y-96275000D01*
G37*
G36*
X43500000Y-96275000D02*
X42500000Y-96275000D01*
X42500000Y-95325000D01*
X43500000Y-95325000D01*
X43500000Y-96275000D01*
X43500000Y-96275000D01*
G37*
G36*
X103500000Y-96275000D02*
X102500000Y-96275000D01*
X102500000Y-95325000D01*
X103500000Y-95325000D01*
X103500000Y-96275000D01*
X103500000Y-96275000D01*
G37*
G36*
X63500000Y-96275000D02*
X62500000Y-96275000D01*
X62500000Y-95325000D01*
X63500000Y-95325000D01*
X63500000Y-96275000D01*
X63500000Y-96275000D01*
G37*
G36*
X23500000Y-96275000D02*
X22500000Y-96275000D01*
X22500000Y-95325000D01*
X23500000Y-95325000D01*
X23500000Y-96275000D01*
X23500000Y-96275000D01*
G37*
G36*
X103500000Y-94675000D02*
X102500000Y-94675000D01*
X102500000Y-93725000D01*
X103500000Y-93725000D01*
X103500000Y-94675000D01*
X103500000Y-94675000D01*
G37*
G36*
X83500000Y-94675000D02*
X82500000Y-94675000D01*
X82500000Y-93725000D01*
X83500000Y-93725000D01*
X83500000Y-94675000D01*
X83500000Y-94675000D01*
G37*
G36*
X43500000Y-94675000D02*
X42500000Y-94675000D01*
X42500000Y-93725000D01*
X43500000Y-93725000D01*
X43500000Y-94675000D01*
X43500000Y-94675000D01*
G37*
G36*
X63500000Y-94675000D02*
X62500000Y-94675000D01*
X62500000Y-93725000D01*
X63500000Y-93725000D01*
X63500000Y-94675000D01*
X63500000Y-94675000D01*
G37*
G36*
X23500000Y-94675000D02*
X22500000Y-94675000D01*
X22500000Y-93725000D01*
X23500000Y-93725000D01*
X23500000Y-94675000D01*
X23500000Y-94675000D01*
G37*
G36*
X114937532Y-91557643D02*
X114937535Y-91557644D01*
X114937534Y-91557644D01*
X115210517Y-91670717D01*
X115341158Y-91758009D01*
X115456197Y-91834875D01*
X115665125Y-92043803D01*
X115735570Y-92149232D01*
X115829283Y-92289483D01*
X115871789Y-92392103D01*
X115942357Y-92562468D01*
X116000000Y-92852261D01*
X116000000Y-93147739D01*
X115942357Y-93437532D01*
X115942356Y-93437534D01*
X115829283Y-93710517D01*
X115735570Y-93850768D01*
X115665125Y-93956197D01*
X115456197Y-94165125D01*
X115350768Y-94235570D01*
X115210517Y-94329283D01*
X115034100Y-94402357D01*
X114937532Y-94442357D01*
X114647739Y-94500000D01*
X114352261Y-94500000D01*
X114062468Y-94442357D01*
X113965900Y-94402357D01*
X113789483Y-94329283D01*
X113649232Y-94235570D01*
X113543803Y-94165125D01*
X113334875Y-93956197D01*
X113264430Y-93850768D01*
X113170717Y-93710517D01*
X113057644Y-93437534D01*
X113057643Y-93437532D01*
X113000000Y-93147739D01*
X113000000Y-92852261D01*
X113057643Y-92562468D01*
X113128211Y-92392103D01*
X113170717Y-92289483D01*
X113264430Y-92149232D01*
X113334875Y-92043803D01*
X113543803Y-91834875D01*
X113658842Y-91758009D01*
X113789483Y-91670717D01*
X114062466Y-91557644D01*
X114062465Y-91557644D01*
X114062468Y-91557643D01*
X114352261Y-91500000D01*
X114647739Y-91500000D01*
X114937532Y-91557643D01*
X114937532Y-91557643D01*
G37*
G36*
X107437532Y-91557643D02*
X107437535Y-91557644D01*
X107437534Y-91557644D01*
X107710517Y-91670717D01*
X107841158Y-91758009D01*
X107956197Y-91834875D01*
X108165125Y-92043803D01*
X108235570Y-92149232D01*
X108329283Y-92289483D01*
X108371789Y-92392103D01*
X108442357Y-92562468D01*
X108500000Y-92852261D01*
X108500000Y-93147739D01*
X108442357Y-93437532D01*
X108442356Y-93437534D01*
X108329283Y-93710517D01*
X108235570Y-93850768D01*
X108165125Y-93956197D01*
X107956197Y-94165125D01*
X107850768Y-94235570D01*
X107710517Y-94329283D01*
X107534100Y-94402357D01*
X107437532Y-94442357D01*
X107147739Y-94500000D01*
X106852261Y-94500000D01*
X106562468Y-94442357D01*
X106465900Y-94402357D01*
X106289483Y-94329283D01*
X106149232Y-94235570D01*
X106043803Y-94165125D01*
X105834875Y-93956197D01*
X105764430Y-93850768D01*
X105670717Y-93710517D01*
X105557644Y-93437534D01*
X105557643Y-93437532D01*
X105500000Y-93147739D01*
X105500000Y-92852261D01*
X105557643Y-92562468D01*
X105628211Y-92392103D01*
X105670717Y-92289483D01*
X105764430Y-92149232D01*
X105834875Y-92043803D01*
X106043803Y-91834875D01*
X106158842Y-91758009D01*
X106289483Y-91670717D01*
X106562466Y-91557644D01*
X106562465Y-91557644D01*
X106562468Y-91557643D01*
X106852261Y-91500000D01*
X107147739Y-91500000D01*
X107437532Y-91557643D01*
X107437532Y-91557643D01*
G37*
G36*
X27437532Y-91517643D02*
X27437535Y-91517644D01*
X27437534Y-91517644D01*
X27710517Y-91630717D01*
X27832903Y-91712493D01*
X27956197Y-91794875D01*
X28165125Y-92003803D01*
X28229401Y-92100000D01*
X28329283Y-92249483D01*
X28374189Y-92357897D01*
X28442357Y-92522468D01*
X28500000Y-92812261D01*
X28500000Y-93107739D01*
X28442357Y-93397532D01*
X28422956Y-93444369D01*
X28329283Y-93670517D01*
X28292878Y-93725000D01*
X28165125Y-93916197D01*
X27956197Y-94125125D01*
X27850768Y-94195570D01*
X27710517Y-94289283D01*
X27484369Y-94382956D01*
X27437532Y-94402357D01*
X27147739Y-94460000D01*
X26852261Y-94460000D01*
X26562468Y-94402357D01*
X26515631Y-94382956D01*
X26289483Y-94289283D01*
X26149232Y-94195570D01*
X26043803Y-94125125D01*
X25834875Y-93916197D01*
X25707122Y-93725000D01*
X25670717Y-93670517D01*
X25577044Y-93444369D01*
X25557643Y-93397532D01*
X25500000Y-93107739D01*
X25500000Y-92812261D01*
X25557643Y-92522468D01*
X25625811Y-92357897D01*
X25670717Y-92249483D01*
X25770599Y-92100000D01*
X25834875Y-92003803D01*
X26043803Y-91794875D01*
X26167097Y-91712493D01*
X26289483Y-91630717D01*
X26562466Y-91517644D01*
X26562465Y-91517644D01*
X26562468Y-91517643D01*
X26852261Y-91460000D01*
X27147739Y-91460000D01*
X27437532Y-91517643D01*
X27437532Y-91517643D01*
G37*
G36*
X74937532Y-91517643D02*
X74937535Y-91517644D01*
X74937534Y-91517644D01*
X75210517Y-91630717D01*
X75332903Y-91712493D01*
X75456197Y-91794875D01*
X75665125Y-92003803D01*
X75729401Y-92100000D01*
X75829283Y-92249483D01*
X75874189Y-92357897D01*
X75942357Y-92522468D01*
X76000000Y-92812261D01*
X76000000Y-93107739D01*
X75942357Y-93397532D01*
X75922956Y-93444369D01*
X75829283Y-93670517D01*
X75792878Y-93725000D01*
X75665125Y-93916197D01*
X75456197Y-94125125D01*
X75350768Y-94195570D01*
X75210517Y-94289283D01*
X74984369Y-94382956D01*
X74937532Y-94402357D01*
X74647739Y-94460000D01*
X74352261Y-94460000D01*
X74062468Y-94402357D01*
X74015631Y-94382956D01*
X73789483Y-94289283D01*
X73649232Y-94195570D01*
X73543803Y-94125125D01*
X73334875Y-93916197D01*
X73207122Y-93725000D01*
X73170717Y-93670517D01*
X73077044Y-93444369D01*
X73057643Y-93397532D01*
X73000000Y-93107739D01*
X73000000Y-92812261D01*
X73057643Y-92522468D01*
X73125811Y-92357897D01*
X73170717Y-92249483D01*
X73270599Y-92100000D01*
X73334875Y-92003803D01*
X73543803Y-91794875D01*
X73667097Y-91712493D01*
X73789483Y-91630717D01*
X74062466Y-91517644D01*
X74062465Y-91517644D01*
X74062468Y-91517643D01*
X74352261Y-91460000D01*
X74647739Y-91460000D01*
X74937532Y-91517643D01*
X74937532Y-91517643D01*
G37*
G36*
X54937532Y-91517643D02*
X54937535Y-91517644D01*
X54937534Y-91517644D01*
X55210517Y-91630717D01*
X55332903Y-91712493D01*
X55456197Y-91794875D01*
X55665125Y-92003803D01*
X55729401Y-92100000D01*
X55829283Y-92249483D01*
X55874189Y-92357897D01*
X55942357Y-92522468D01*
X56000000Y-92812261D01*
X56000000Y-93107739D01*
X55942357Y-93397532D01*
X55922956Y-93444369D01*
X55829283Y-93670517D01*
X55792878Y-93725000D01*
X55665125Y-93916197D01*
X55456197Y-94125125D01*
X55350768Y-94195570D01*
X55210517Y-94289283D01*
X54984369Y-94382956D01*
X54937532Y-94402357D01*
X54647739Y-94460000D01*
X54352261Y-94460000D01*
X54062468Y-94402357D01*
X54015631Y-94382956D01*
X53789483Y-94289283D01*
X53649232Y-94195570D01*
X53543803Y-94125125D01*
X53334875Y-93916197D01*
X53207122Y-93725000D01*
X53170717Y-93670517D01*
X53077044Y-93444369D01*
X53057643Y-93397532D01*
X53000000Y-93107739D01*
X53000000Y-92812261D01*
X53057643Y-92522468D01*
X53125811Y-92357897D01*
X53170717Y-92249483D01*
X53270599Y-92100000D01*
X53334875Y-92003803D01*
X53543803Y-91794875D01*
X53667097Y-91712493D01*
X53789483Y-91630717D01*
X54062466Y-91517644D01*
X54062465Y-91517644D01*
X54062468Y-91517643D01*
X54352261Y-91460000D01*
X54647739Y-91460000D01*
X54937532Y-91517643D01*
X54937532Y-91517643D01*
G37*
G36*
X47437532Y-91517643D02*
X47437535Y-91517644D01*
X47437534Y-91517644D01*
X47710517Y-91630717D01*
X47832903Y-91712493D01*
X47956197Y-91794875D01*
X48165125Y-92003803D01*
X48229401Y-92100000D01*
X48329283Y-92249483D01*
X48374189Y-92357897D01*
X48442357Y-92522468D01*
X48500000Y-92812261D01*
X48500000Y-93107739D01*
X48442357Y-93397532D01*
X48422956Y-93444369D01*
X48329283Y-93670517D01*
X48292878Y-93725000D01*
X48165125Y-93916197D01*
X47956197Y-94125125D01*
X47850768Y-94195570D01*
X47710517Y-94289283D01*
X47484369Y-94382956D01*
X47437532Y-94402357D01*
X47147739Y-94460000D01*
X46852261Y-94460000D01*
X46562468Y-94402357D01*
X46515631Y-94382956D01*
X46289483Y-94289283D01*
X46149232Y-94195570D01*
X46043803Y-94125125D01*
X45834875Y-93916197D01*
X45707122Y-93725000D01*
X45670717Y-93670517D01*
X45577044Y-93444369D01*
X45557643Y-93397532D01*
X45500000Y-93107739D01*
X45500000Y-92812261D01*
X45557643Y-92522468D01*
X45625811Y-92357897D01*
X45670717Y-92249483D01*
X45770599Y-92100000D01*
X45834875Y-92003803D01*
X46043803Y-91794875D01*
X46167097Y-91712493D01*
X46289483Y-91630717D01*
X46562466Y-91517644D01*
X46562465Y-91517644D01*
X46562468Y-91517643D01*
X46852261Y-91460000D01*
X47147739Y-91460000D01*
X47437532Y-91517643D01*
X47437532Y-91517643D01*
G37*
G36*
X67437532Y-91517643D02*
X67437535Y-91517644D01*
X67437534Y-91517644D01*
X67710517Y-91630717D01*
X67832903Y-91712493D01*
X67956197Y-91794875D01*
X68165125Y-92003803D01*
X68229401Y-92100000D01*
X68329283Y-92249483D01*
X68374189Y-92357897D01*
X68442357Y-92522468D01*
X68500000Y-92812261D01*
X68500000Y-93107739D01*
X68442357Y-93397532D01*
X68422956Y-93444369D01*
X68329283Y-93670517D01*
X68292878Y-93725000D01*
X68165125Y-93916197D01*
X67956197Y-94125125D01*
X67850768Y-94195570D01*
X67710517Y-94289283D01*
X67484369Y-94382956D01*
X67437532Y-94402357D01*
X67147739Y-94460000D01*
X66852261Y-94460000D01*
X66562468Y-94402357D01*
X66515631Y-94382956D01*
X66289483Y-94289283D01*
X66149232Y-94195570D01*
X66043803Y-94125125D01*
X65834875Y-93916197D01*
X65707122Y-93725000D01*
X65670717Y-93670517D01*
X65577044Y-93444369D01*
X65557643Y-93397532D01*
X65500000Y-93107739D01*
X65500000Y-92812261D01*
X65557643Y-92522468D01*
X65625811Y-92357897D01*
X65670717Y-92249483D01*
X65770599Y-92100000D01*
X65834875Y-92003803D01*
X66043803Y-91794875D01*
X66167097Y-91712493D01*
X66289483Y-91630717D01*
X66562466Y-91517644D01*
X66562465Y-91517644D01*
X66562468Y-91517643D01*
X66852261Y-91460000D01*
X67147739Y-91460000D01*
X67437532Y-91517643D01*
X67437532Y-91517643D01*
G37*
G36*
X94937532Y-91517643D02*
X94937535Y-91517644D01*
X94937534Y-91517644D01*
X95210517Y-91630717D01*
X95332903Y-91712493D01*
X95456197Y-91794875D01*
X95665125Y-92003803D01*
X95729401Y-92100000D01*
X95829283Y-92249483D01*
X95874189Y-92357897D01*
X95942357Y-92522468D01*
X96000000Y-92812261D01*
X96000000Y-93107739D01*
X95942357Y-93397532D01*
X95922956Y-93444369D01*
X95829283Y-93670517D01*
X95792878Y-93725000D01*
X95665125Y-93916197D01*
X95456197Y-94125125D01*
X95350768Y-94195570D01*
X95210517Y-94289283D01*
X94984369Y-94382956D01*
X94937532Y-94402357D01*
X94647739Y-94460000D01*
X94352261Y-94460000D01*
X94062468Y-94402357D01*
X94015631Y-94382956D01*
X93789483Y-94289283D01*
X93649232Y-94195570D01*
X93543803Y-94125125D01*
X93334875Y-93916197D01*
X93207122Y-93725000D01*
X93170717Y-93670517D01*
X93077044Y-93444369D01*
X93057643Y-93397532D01*
X93000000Y-93107739D01*
X93000000Y-92812261D01*
X93057643Y-92522468D01*
X93125811Y-92357897D01*
X93170717Y-92249483D01*
X93270599Y-92100000D01*
X93334875Y-92003803D01*
X93543803Y-91794875D01*
X93667097Y-91712493D01*
X93789483Y-91630717D01*
X94062466Y-91517644D01*
X94062465Y-91517644D01*
X94062468Y-91517643D01*
X94352261Y-91460000D01*
X94647739Y-91460000D01*
X94937532Y-91517643D01*
X94937532Y-91517643D01*
G37*
G36*
X87437532Y-91517643D02*
X87437535Y-91517644D01*
X87437534Y-91517644D01*
X87710517Y-91630717D01*
X87832903Y-91712493D01*
X87956197Y-91794875D01*
X88165125Y-92003803D01*
X88229401Y-92100000D01*
X88329283Y-92249483D01*
X88374189Y-92357897D01*
X88442357Y-92522468D01*
X88500000Y-92812261D01*
X88500000Y-93107739D01*
X88442357Y-93397532D01*
X88422956Y-93444369D01*
X88329283Y-93670517D01*
X88292878Y-93725000D01*
X88165125Y-93916197D01*
X87956197Y-94125125D01*
X87850768Y-94195570D01*
X87710517Y-94289283D01*
X87484369Y-94382956D01*
X87437532Y-94402357D01*
X87147739Y-94460000D01*
X86852261Y-94460000D01*
X86562468Y-94402357D01*
X86515631Y-94382956D01*
X86289483Y-94289283D01*
X86149232Y-94195570D01*
X86043803Y-94125125D01*
X85834875Y-93916197D01*
X85707122Y-93725000D01*
X85670717Y-93670517D01*
X85577044Y-93444369D01*
X85557643Y-93397532D01*
X85500000Y-93107739D01*
X85500000Y-92812261D01*
X85557643Y-92522468D01*
X85625811Y-92357897D01*
X85670717Y-92249483D01*
X85770599Y-92100000D01*
X85834875Y-92003803D01*
X86043803Y-91794875D01*
X86167097Y-91712493D01*
X86289483Y-91630717D01*
X86562466Y-91517644D01*
X86562465Y-91517644D01*
X86562468Y-91517643D01*
X86852261Y-91460000D01*
X87147739Y-91460000D01*
X87437532Y-91517643D01*
X87437532Y-91517643D01*
G37*
G36*
X34937532Y-91517643D02*
X34937535Y-91517644D01*
X34937534Y-91517644D01*
X35210517Y-91630717D01*
X35332903Y-91712493D01*
X35456197Y-91794875D01*
X35665125Y-92003803D01*
X35729401Y-92100000D01*
X35829283Y-92249483D01*
X35874189Y-92357897D01*
X35942357Y-92522468D01*
X36000000Y-92812261D01*
X36000000Y-93107739D01*
X35942357Y-93397532D01*
X35922956Y-93444369D01*
X35829283Y-93670517D01*
X35792878Y-93725000D01*
X35665125Y-93916197D01*
X35456197Y-94125125D01*
X35350768Y-94195570D01*
X35210517Y-94289283D01*
X34984369Y-94382956D01*
X34937532Y-94402357D01*
X34647739Y-94460000D01*
X34352261Y-94460000D01*
X34062468Y-94402357D01*
X34015631Y-94382956D01*
X33789483Y-94289283D01*
X33649232Y-94195570D01*
X33543803Y-94125125D01*
X33334875Y-93916197D01*
X33207122Y-93725000D01*
X33170717Y-93670517D01*
X33077044Y-93444369D01*
X33057643Y-93397532D01*
X33000000Y-93107739D01*
X33000000Y-92812261D01*
X33057643Y-92522468D01*
X33125811Y-92357897D01*
X33170717Y-92249483D01*
X33270599Y-92100000D01*
X33334875Y-92003803D01*
X33543803Y-91794875D01*
X33667097Y-91712493D01*
X33789483Y-91630717D01*
X34062466Y-91517644D01*
X34062465Y-91517644D01*
X34062468Y-91517643D01*
X34352261Y-91460000D01*
X34647739Y-91460000D01*
X34937532Y-91517643D01*
X34937532Y-91517643D01*
G37*
G36*
X41668821Y-86971052D02*
X42242085Y-87208506D01*
X42758008Y-87553235D01*
X43196765Y-87991992D01*
X43541494Y-88507915D01*
X43778948Y-89081179D01*
X43900000Y-89689752D01*
X43900000Y-90310248D01*
X43778948Y-90918821D01*
X43541494Y-91492085D01*
X43196765Y-92008008D01*
X42758008Y-92446765D01*
X42242085Y-92791494D01*
X41668821Y-93028948D01*
X41060248Y-93150000D01*
X40439752Y-93150000D01*
X39831179Y-93028948D01*
X39257915Y-92791494D01*
X38741992Y-92446765D01*
X38303235Y-92008008D01*
X37958506Y-91492085D01*
X37721052Y-90918821D01*
X37600000Y-90310248D01*
X37600000Y-89689752D01*
X37721052Y-89081179D01*
X37958506Y-88507915D01*
X38303235Y-87991992D01*
X38741992Y-87553235D01*
X39257915Y-87208506D01*
X39831179Y-86971052D01*
X40439752Y-86850000D01*
X41060248Y-86850000D01*
X41668821Y-86971052D01*
X41668821Y-86971052D01*
G37*
G36*
X101668821Y-86721052D02*
X102242085Y-86958506D01*
X102758008Y-87303235D01*
X103196765Y-87741992D01*
X103541494Y-88257915D01*
X103778948Y-88831179D01*
X103900000Y-89439752D01*
X103900000Y-90060248D01*
X103778948Y-90668821D01*
X103541494Y-91242085D01*
X103196765Y-91758008D01*
X102758008Y-92196765D01*
X102242085Y-92541494D01*
X101668821Y-92778948D01*
X101060248Y-92900000D01*
X100439752Y-92900000D01*
X99831179Y-92778948D01*
X99257915Y-92541494D01*
X98741992Y-92196765D01*
X98303235Y-91758008D01*
X97958506Y-91242085D01*
X97721052Y-90668821D01*
X97600000Y-90060248D01*
X97600000Y-89439752D01*
X97721052Y-88831179D01*
X97958506Y-88257915D01*
X98303235Y-87741992D01*
X98741992Y-87303235D01*
X99257915Y-86958506D01*
X99831179Y-86721052D01*
X100439752Y-86600000D01*
X101060248Y-86600000D01*
X101668821Y-86721052D01*
X101668821Y-86721052D01*
G37*
G36*
X119000000Y-88025000D02*
X118000000Y-88025000D01*
X118000000Y-87075000D01*
X119000000Y-87075000D01*
X119000000Y-88025000D01*
X119000000Y-88025000D01*
G37*
G36*
X119000000Y-86425000D02*
X118000000Y-86425000D01*
X118000000Y-85475000D01*
X119000000Y-85475000D01*
X119000000Y-86425000D01*
X119000000Y-86425000D01*
G37*
G36*
X119000000Y-84775000D02*
X118000000Y-84775000D01*
X118000000Y-83825000D01*
X119000000Y-83825000D01*
X119000000Y-84775000D01*
X119000000Y-84775000D01*
G37*
G36*
X119000000Y-83175000D02*
X118000000Y-83175000D01*
X118000000Y-82225000D01*
X119000000Y-82225000D01*
X119000000Y-83175000D01*
X119000000Y-83175000D01*
G37*
G36*
X107437532Y-71257643D02*
X107437535Y-71257644D01*
X107437534Y-71257644D01*
X107710517Y-71370717D01*
X107850768Y-71464430D01*
X107956197Y-71534875D01*
X108165125Y-71743803D01*
X108235570Y-71849232D01*
X108329283Y-71989483D01*
X108422956Y-72215631D01*
X108442357Y-72262468D01*
X108500000Y-72552261D01*
X108500000Y-72847739D01*
X108442357Y-73137532D01*
X108442356Y-73137534D01*
X108329283Y-73410517D01*
X108235570Y-73550768D01*
X108165125Y-73656197D01*
X107956197Y-73865125D01*
X107850768Y-73935570D01*
X107710517Y-74029283D01*
X107534100Y-74102357D01*
X107437532Y-74142357D01*
X107147739Y-74200000D01*
X106852261Y-74200000D01*
X106562468Y-74142357D01*
X106465900Y-74102357D01*
X106289483Y-74029283D01*
X106149232Y-73935570D01*
X106043803Y-73865125D01*
X105834875Y-73656197D01*
X105764430Y-73550768D01*
X105670717Y-73410517D01*
X105557644Y-73137534D01*
X105557643Y-73137532D01*
X105500000Y-72847739D01*
X105500000Y-72552261D01*
X105557643Y-72262468D01*
X105577044Y-72215631D01*
X105670717Y-71989483D01*
X105764430Y-71849232D01*
X105834875Y-71743803D01*
X106043803Y-71534875D01*
X106149232Y-71464430D01*
X106289483Y-71370717D01*
X106562466Y-71257644D01*
X106562465Y-71257644D01*
X106562468Y-71257643D01*
X106852261Y-71200000D01*
X107147739Y-71200000D01*
X107437532Y-71257643D01*
X107437532Y-71257643D01*
G37*
G36*
X114937532Y-71257643D02*
X114937535Y-71257644D01*
X114937534Y-71257644D01*
X115210517Y-71370717D01*
X115350768Y-71464430D01*
X115456197Y-71534875D01*
X115665125Y-71743803D01*
X115735570Y-71849232D01*
X115829283Y-71989483D01*
X115922956Y-72215631D01*
X115942357Y-72262468D01*
X116000000Y-72552261D01*
X116000000Y-72847739D01*
X115942357Y-73137532D01*
X115942356Y-73137534D01*
X115829283Y-73410517D01*
X115735570Y-73550768D01*
X115665125Y-73656197D01*
X115456197Y-73865125D01*
X115350768Y-73935570D01*
X115210517Y-74029283D01*
X115034100Y-74102357D01*
X114937532Y-74142357D01*
X114647739Y-74200000D01*
X114352261Y-74200000D01*
X114062468Y-74142357D01*
X113965900Y-74102357D01*
X113789483Y-74029283D01*
X113649232Y-73935570D01*
X113543803Y-73865125D01*
X113334875Y-73656197D01*
X113264430Y-73550768D01*
X113170717Y-73410517D01*
X113057644Y-73137534D01*
X113057643Y-73137532D01*
X113000000Y-72847739D01*
X113000000Y-72552261D01*
X113057643Y-72262468D01*
X113077044Y-72215631D01*
X113170717Y-71989483D01*
X113264430Y-71849232D01*
X113334875Y-71743803D01*
X113543803Y-71534875D01*
X113649232Y-71464430D01*
X113789483Y-71370717D01*
X114062466Y-71257644D01*
X114062465Y-71257644D01*
X114062468Y-71257643D01*
X114352261Y-71200000D01*
X114647739Y-71200000D01*
X114937532Y-71257643D01*
X114937532Y-71257643D01*
G37*
G36*
X54937532Y-71217643D02*
X54937535Y-71217644D01*
X54937534Y-71217644D01*
X55210517Y-71330717D01*
X55350768Y-71424430D01*
X55456197Y-71494875D01*
X55665125Y-71703803D01*
X55735570Y-71809232D01*
X55829283Y-71949483D01*
X55845852Y-71989485D01*
X55942357Y-72222468D01*
X56000000Y-72512261D01*
X56000000Y-72807739D01*
X55942357Y-73097532D01*
X55922956Y-73144369D01*
X55829283Y-73370517D01*
X55735570Y-73510768D01*
X55665125Y-73616197D01*
X55456197Y-73825125D01*
X55350768Y-73895570D01*
X55210517Y-73989283D01*
X54984369Y-74082956D01*
X54937532Y-74102357D01*
X54647739Y-74160000D01*
X54352261Y-74160000D01*
X54062468Y-74102357D01*
X54015631Y-74082956D01*
X53789483Y-73989283D01*
X53649232Y-73895570D01*
X53543803Y-73825125D01*
X53334875Y-73616197D01*
X53264430Y-73510768D01*
X53170717Y-73370517D01*
X53077044Y-73144369D01*
X53057643Y-73097532D01*
X53000000Y-72807739D01*
X53000000Y-72512261D01*
X53057643Y-72222468D01*
X53154148Y-71989485D01*
X53170717Y-71949483D01*
X53264430Y-71809232D01*
X53334875Y-71703803D01*
X53543803Y-71494875D01*
X53649232Y-71424430D01*
X53789483Y-71330717D01*
X54062466Y-71217644D01*
X54062465Y-71217644D01*
X54062468Y-71217643D01*
X54352261Y-71160000D01*
X54647739Y-71160000D01*
X54937532Y-71217643D01*
X54937532Y-71217643D01*
G37*
G36*
X47437532Y-71217643D02*
X47437535Y-71217644D01*
X47437534Y-71217644D01*
X47710517Y-71330717D01*
X47850768Y-71424430D01*
X47956197Y-71494875D01*
X48165125Y-71703803D01*
X48235570Y-71809232D01*
X48329283Y-71949483D01*
X48345852Y-71989485D01*
X48442357Y-72222468D01*
X48500000Y-72512261D01*
X48500000Y-72807739D01*
X48442357Y-73097532D01*
X48422956Y-73144369D01*
X48329283Y-73370517D01*
X48235570Y-73510768D01*
X48165125Y-73616197D01*
X47956197Y-73825125D01*
X47850768Y-73895570D01*
X47710517Y-73989283D01*
X47484369Y-74082956D01*
X47437532Y-74102357D01*
X47147739Y-74160000D01*
X46852261Y-74160000D01*
X46562468Y-74102357D01*
X46515631Y-74082956D01*
X46289483Y-73989283D01*
X46149232Y-73895570D01*
X46043803Y-73825125D01*
X45834875Y-73616197D01*
X45764430Y-73510768D01*
X45670717Y-73370517D01*
X45577044Y-73144369D01*
X45557643Y-73097532D01*
X45500000Y-72807739D01*
X45500000Y-72512261D01*
X45557643Y-72222468D01*
X45654148Y-71989485D01*
X45670717Y-71949483D01*
X45764430Y-71809232D01*
X45834875Y-71703803D01*
X46043803Y-71494875D01*
X46149232Y-71424430D01*
X46289483Y-71330717D01*
X46562466Y-71217644D01*
X46562465Y-71217644D01*
X46562468Y-71217643D01*
X46852261Y-71160000D01*
X47147739Y-71160000D01*
X47437532Y-71217643D01*
X47437532Y-71217643D01*
G37*
G36*
X94937532Y-71217643D02*
X94937535Y-71217644D01*
X94937534Y-71217644D01*
X95210517Y-71330717D01*
X95350768Y-71424430D01*
X95456197Y-71494875D01*
X95665125Y-71703803D01*
X95735570Y-71809232D01*
X95829283Y-71949483D01*
X95845852Y-71989485D01*
X95942357Y-72222468D01*
X96000000Y-72512261D01*
X96000000Y-72807739D01*
X95942357Y-73097532D01*
X95922956Y-73144369D01*
X95829283Y-73370517D01*
X95735570Y-73510768D01*
X95665125Y-73616197D01*
X95456197Y-73825125D01*
X95350768Y-73895570D01*
X95210517Y-73989283D01*
X94984369Y-74082956D01*
X94937532Y-74102357D01*
X94647739Y-74160000D01*
X94352261Y-74160000D01*
X94062468Y-74102357D01*
X94015631Y-74082956D01*
X93789483Y-73989283D01*
X93649232Y-73895570D01*
X93543803Y-73825125D01*
X93334875Y-73616197D01*
X93264430Y-73510768D01*
X93170717Y-73370517D01*
X93077044Y-73144369D01*
X93057643Y-73097532D01*
X93000000Y-72807739D01*
X93000000Y-72512261D01*
X93057643Y-72222468D01*
X93154148Y-71989485D01*
X93170717Y-71949483D01*
X93264430Y-71809232D01*
X93334875Y-71703803D01*
X93543803Y-71494875D01*
X93649232Y-71424430D01*
X93789483Y-71330717D01*
X94062466Y-71217644D01*
X94062465Y-71217644D01*
X94062468Y-71217643D01*
X94352261Y-71160000D01*
X94647739Y-71160000D01*
X94937532Y-71217643D01*
X94937532Y-71217643D01*
G37*
G36*
X87437532Y-71217643D02*
X87437535Y-71217644D01*
X87437534Y-71217644D01*
X87710517Y-71330717D01*
X87850768Y-71424430D01*
X87956197Y-71494875D01*
X88165125Y-71703803D01*
X88235570Y-71809232D01*
X88329283Y-71949483D01*
X88345852Y-71989485D01*
X88442357Y-72222468D01*
X88500000Y-72512261D01*
X88500000Y-72807739D01*
X88442357Y-73097532D01*
X88422956Y-73144369D01*
X88329283Y-73370517D01*
X88235570Y-73510768D01*
X88165125Y-73616197D01*
X87956197Y-73825125D01*
X87850768Y-73895570D01*
X87710517Y-73989283D01*
X87484369Y-74082956D01*
X87437532Y-74102357D01*
X87147739Y-74160000D01*
X86852261Y-74160000D01*
X86562468Y-74102357D01*
X86515631Y-74082956D01*
X86289483Y-73989283D01*
X86149232Y-73895570D01*
X86043803Y-73825125D01*
X85834875Y-73616197D01*
X85764430Y-73510768D01*
X85670717Y-73370517D01*
X85577044Y-73144369D01*
X85557643Y-73097532D01*
X85500000Y-72807739D01*
X85500000Y-72512261D01*
X85557643Y-72222468D01*
X85654148Y-71989485D01*
X85670717Y-71949483D01*
X85764430Y-71809232D01*
X85834875Y-71703803D01*
X86043803Y-71494875D01*
X86149232Y-71424430D01*
X86289483Y-71330717D01*
X86562466Y-71217644D01*
X86562465Y-71217644D01*
X86562468Y-71217643D01*
X86852261Y-71160000D01*
X87147739Y-71160000D01*
X87437532Y-71217643D01*
X87437532Y-71217643D01*
G37*
G36*
X74937532Y-71217643D02*
X74937535Y-71217644D01*
X74937534Y-71217644D01*
X75210517Y-71330717D01*
X75350768Y-71424430D01*
X75456197Y-71494875D01*
X75665125Y-71703803D01*
X75735570Y-71809232D01*
X75829283Y-71949483D01*
X75845852Y-71989485D01*
X75942357Y-72222468D01*
X76000000Y-72512261D01*
X76000000Y-72807739D01*
X75942357Y-73097532D01*
X75922956Y-73144369D01*
X75829283Y-73370517D01*
X75735570Y-73510768D01*
X75665125Y-73616197D01*
X75456197Y-73825125D01*
X75350768Y-73895570D01*
X75210517Y-73989283D01*
X74984369Y-74082956D01*
X74937532Y-74102357D01*
X74647739Y-74160000D01*
X74352261Y-74160000D01*
X74062468Y-74102357D01*
X74015631Y-74082956D01*
X73789483Y-73989283D01*
X73649232Y-73895570D01*
X73543803Y-73825125D01*
X73334875Y-73616197D01*
X73264430Y-73510768D01*
X73170717Y-73370517D01*
X73077044Y-73144369D01*
X73057643Y-73097532D01*
X73000000Y-72807739D01*
X73000000Y-72512261D01*
X73057643Y-72222468D01*
X73154148Y-71989485D01*
X73170717Y-71949483D01*
X73264430Y-71809232D01*
X73334875Y-71703803D01*
X73543803Y-71494875D01*
X73649232Y-71424430D01*
X73789483Y-71330717D01*
X74062466Y-71217644D01*
X74062465Y-71217644D01*
X74062468Y-71217643D01*
X74352261Y-71160000D01*
X74647739Y-71160000D01*
X74937532Y-71217643D01*
X74937532Y-71217643D01*
G37*
G36*
X34937532Y-71217643D02*
X34937535Y-71217644D01*
X34937534Y-71217644D01*
X35210517Y-71330717D01*
X35350768Y-71424430D01*
X35456197Y-71494875D01*
X35665125Y-71703803D01*
X35735570Y-71809232D01*
X35829283Y-71949483D01*
X35845852Y-71989485D01*
X35942357Y-72222468D01*
X36000000Y-72512261D01*
X36000000Y-72807739D01*
X35942357Y-73097532D01*
X35922956Y-73144369D01*
X35829283Y-73370517D01*
X35735570Y-73510768D01*
X35665125Y-73616197D01*
X35456197Y-73825125D01*
X35350768Y-73895570D01*
X35210517Y-73989283D01*
X34984369Y-74082956D01*
X34937532Y-74102357D01*
X34647739Y-74160000D01*
X34352261Y-74160000D01*
X34062468Y-74102357D01*
X34015631Y-74082956D01*
X33789483Y-73989283D01*
X33649232Y-73895570D01*
X33543803Y-73825125D01*
X33334875Y-73616197D01*
X33264430Y-73510768D01*
X33170717Y-73370517D01*
X33077044Y-73144369D01*
X33057643Y-73097532D01*
X33000000Y-72807739D01*
X33000000Y-72512261D01*
X33057643Y-72222468D01*
X33154148Y-71989485D01*
X33170717Y-71949483D01*
X33264430Y-71809232D01*
X33334875Y-71703803D01*
X33543803Y-71494875D01*
X33649232Y-71424430D01*
X33789483Y-71330717D01*
X34062466Y-71217644D01*
X34062465Y-71217644D01*
X34062468Y-71217643D01*
X34352261Y-71160000D01*
X34647739Y-71160000D01*
X34937532Y-71217643D01*
X34937532Y-71217643D01*
G37*
G36*
X67437532Y-71217643D02*
X67437535Y-71217644D01*
X67437534Y-71217644D01*
X67710517Y-71330717D01*
X67850768Y-71424430D01*
X67956197Y-71494875D01*
X68165125Y-71703803D01*
X68235570Y-71809232D01*
X68329283Y-71949483D01*
X68345852Y-71989485D01*
X68442357Y-72222468D01*
X68500000Y-72512261D01*
X68500000Y-72807739D01*
X68442357Y-73097532D01*
X68422956Y-73144369D01*
X68329283Y-73370517D01*
X68235570Y-73510768D01*
X68165125Y-73616197D01*
X67956197Y-73825125D01*
X67850768Y-73895570D01*
X67710517Y-73989283D01*
X67484369Y-74082956D01*
X67437532Y-74102357D01*
X67147739Y-74160000D01*
X66852261Y-74160000D01*
X66562468Y-74102357D01*
X66515631Y-74082956D01*
X66289483Y-73989283D01*
X66149232Y-73895570D01*
X66043803Y-73825125D01*
X65834875Y-73616197D01*
X65764430Y-73510768D01*
X65670717Y-73370517D01*
X65577044Y-73144369D01*
X65557643Y-73097532D01*
X65500000Y-72807739D01*
X65500000Y-72512261D01*
X65557643Y-72222468D01*
X65654148Y-71989485D01*
X65670717Y-71949483D01*
X65764430Y-71809232D01*
X65834875Y-71703803D01*
X66043803Y-71494875D01*
X66149232Y-71424430D01*
X66289483Y-71330717D01*
X66562466Y-71217644D01*
X66562465Y-71217644D01*
X66562468Y-71217643D01*
X66852261Y-71160000D01*
X67147739Y-71160000D01*
X67437532Y-71217643D01*
X67437532Y-71217643D01*
G37*
G36*
X27437532Y-71217643D02*
X27437535Y-71217644D01*
X27437534Y-71217644D01*
X27710517Y-71330717D01*
X27850768Y-71424430D01*
X27956197Y-71494875D01*
X28165125Y-71703803D01*
X28235570Y-71809232D01*
X28329283Y-71949483D01*
X28345852Y-71989485D01*
X28442357Y-72222468D01*
X28500000Y-72512261D01*
X28500000Y-72807739D01*
X28442357Y-73097532D01*
X28422956Y-73144369D01*
X28329283Y-73370517D01*
X28235570Y-73510768D01*
X28165125Y-73616197D01*
X27956197Y-73825125D01*
X27850768Y-73895570D01*
X27710517Y-73989283D01*
X27484369Y-74082956D01*
X27437532Y-74102357D01*
X27147739Y-74160000D01*
X26852261Y-74160000D01*
X26562468Y-74102357D01*
X26515631Y-74082956D01*
X26289483Y-73989283D01*
X26149232Y-73895570D01*
X26043803Y-73825125D01*
X25834875Y-73616197D01*
X25764430Y-73510768D01*
X25670717Y-73370517D01*
X25577044Y-73144369D01*
X25557643Y-73097532D01*
X25500000Y-72807739D01*
X25500000Y-72512261D01*
X25557643Y-72222468D01*
X25654148Y-71989485D01*
X25670717Y-71949483D01*
X25764430Y-71809232D01*
X25834875Y-71703803D01*
X26043803Y-71494875D01*
X26149232Y-71424430D01*
X26289483Y-71330717D01*
X26562466Y-71217644D01*
X26562465Y-71217644D01*
X26562468Y-71217643D01*
X26852261Y-71160000D01*
X27147739Y-71160000D01*
X27437532Y-71217643D01*
X27437532Y-71217643D01*
G37*
G36*
X32300000Y-69150000D02*
X31700000Y-69150000D01*
X31700000Y-68150000D01*
X32300000Y-68150000D01*
X32300000Y-69150000D01*
X32300000Y-69150000D01*
G37*
G36*
X92300000Y-69150000D02*
X91700000Y-69150000D01*
X91700000Y-68150000D01*
X92300000Y-68150000D01*
X92300000Y-69150000D01*
X92300000Y-69150000D01*
G37*
G36*
X52300000Y-69150000D02*
X51700000Y-69150000D01*
X51700000Y-68150000D01*
X52300000Y-68150000D01*
X52300000Y-69150000D01*
X52300000Y-69150000D01*
G37*
G36*
X112300000Y-69150000D02*
X111700000Y-69150000D01*
X111700000Y-68150000D01*
X112300000Y-68150000D01*
X112300000Y-69150000D01*
X112300000Y-69150000D01*
G37*
G36*
X72300000Y-69150000D02*
X71700000Y-69150000D01*
X71700000Y-68150000D01*
X72300000Y-68150000D01*
X72300000Y-69150000D01*
X72300000Y-69150000D01*
G37*
G36*
X109480000Y-68860000D02*
X108570000Y-68860000D01*
X108570000Y-67640000D01*
X109480000Y-67640000D01*
X109480000Y-68860000D01*
X109480000Y-68860000D01*
G37*
G36*
X66210000Y-68860000D02*
X65300000Y-68860000D01*
X65300000Y-67640000D01*
X66210000Y-67640000D01*
X66210000Y-68860000D01*
X66210000Y-68860000D01*
G37*
G36*
X106210000Y-68860000D02*
X105300000Y-68860000D01*
X105300000Y-67640000D01*
X106210000Y-67640000D01*
X106210000Y-68860000D01*
X106210000Y-68860000D01*
G37*
G36*
X69480000Y-68860000D02*
X68570000Y-68860000D01*
X68570000Y-67640000D01*
X69480000Y-67640000D01*
X69480000Y-68860000D01*
X69480000Y-68860000D01*
G37*
G36*
X89480000Y-68860000D02*
X88570000Y-68860000D01*
X88570000Y-67640000D01*
X89480000Y-67640000D01*
X89480000Y-68860000D01*
X89480000Y-68860000D01*
G37*
G36*
X86210000Y-68860000D02*
X85300000Y-68860000D01*
X85300000Y-67640000D01*
X86210000Y-67640000D01*
X86210000Y-68860000D01*
X86210000Y-68860000D01*
G37*
G36*
X26210000Y-68610000D02*
X25300000Y-68610000D01*
X25300000Y-67390000D01*
X26210000Y-67390000D01*
X26210000Y-68610000D01*
X26210000Y-68610000D01*
G37*
G36*
X29480000Y-68610000D02*
X28570000Y-68610000D01*
X28570000Y-67390000D01*
X29480000Y-67390000D01*
X29480000Y-68610000D01*
X29480000Y-68610000D01*
G37*
G36*
X49480000Y-68610000D02*
X48570000Y-68610000D01*
X48570000Y-67390000D01*
X49480000Y-67390000D01*
X49480000Y-68610000D01*
X49480000Y-68610000D01*
G37*
G36*
X46210000Y-68610000D02*
X45300000Y-68610000D01*
X45300000Y-67390000D01*
X46210000Y-67390000D01*
X46210000Y-68610000D01*
X46210000Y-68610000D01*
G37*
G36*
X97500000Y-68525000D02*
X96500000Y-68525000D01*
X96500000Y-67575000D01*
X97500000Y-67575000D01*
X97500000Y-68525000D01*
X97500000Y-68525000D01*
G37*
G36*
X75500000Y-68475000D02*
X74500000Y-68475000D01*
X74500000Y-67525000D01*
X75500000Y-67525000D01*
X75500000Y-68475000D01*
X75500000Y-68475000D01*
G37*
G36*
X115500000Y-68475000D02*
X114500000Y-68475000D01*
X114500000Y-67525000D01*
X115500000Y-67525000D01*
X115500000Y-68475000D01*
X115500000Y-68475000D01*
G37*
G36*
X95500000Y-68475000D02*
X94500000Y-68475000D01*
X94500000Y-67525000D01*
X95500000Y-67525000D01*
X95500000Y-68475000D01*
X95500000Y-68475000D01*
G37*
G36*
X57500000Y-68475000D02*
X56500000Y-68475000D01*
X56500000Y-67525000D01*
X57500000Y-67525000D01*
X57500000Y-68475000D01*
X57500000Y-68475000D01*
G37*
G36*
X55500000Y-68475000D02*
X54500000Y-68475000D01*
X54500000Y-67525000D01*
X55500000Y-67525000D01*
X55500000Y-68475000D01*
X55500000Y-68475000D01*
G37*
G36*
X37500000Y-68475000D02*
X36500000Y-68475000D01*
X36500000Y-67525000D01*
X37500000Y-67525000D01*
X37500000Y-68475000D01*
X37500000Y-68475000D01*
G37*
G36*
X35500000Y-68475000D02*
X34500000Y-68475000D01*
X34500000Y-67525000D01*
X35500000Y-67525000D01*
X35500000Y-68475000D01*
X35500000Y-68475000D01*
G37*
G36*
X77500000Y-68475000D02*
X76500000Y-68475000D01*
X76500000Y-67525000D01*
X77500000Y-67525000D01*
X77500000Y-68475000D01*
X77500000Y-68475000D01*
G37*
G36*
X117500000Y-68425000D02*
X116500000Y-68425000D01*
X116500000Y-67475000D01*
X117500000Y-67475000D01*
X117500000Y-68425000D01*
X117500000Y-68425000D01*
G37*
G36*
X97500000Y-66925000D02*
X96500000Y-66925000D01*
X96500000Y-65975000D01*
X97500000Y-65975000D01*
X97500000Y-66925000D01*
X97500000Y-66925000D01*
G37*
G36*
X75500000Y-66875000D02*
X74500000Y-66875000D01*
X74500000Y-65925000D01*
X75500000Y-65925000D01*
X75500000Y-66875000D01*
X75500000Y-66875000D01*
G37*
G36*
X35500000Y-66875000D02*
X34500000Y-66875000D01*
X34500000Y-65925000D01*
X35500000Y-65925000D01*
X35500000Y-66875000D01*
X35500000Y-66875000D01*
G37*
G36*
X37500000Y-66875000D02*
X36500000Y-66875000D01*
X36500000Y-65925000D01*
X37500000Y-65925000D01*
X37500000Y-66875000D01*
X37500000Y-66875000D01*
G37*
G36*
X115500000Y-66875000D02*
X114500000Y-66875000D01*
X114500000Y-65925000D01*
X115500000Y-65925000D01*
X115500000Y-66875000D01*
X115500000Y-66875000D01*
G37*
G36*
X95500000Y-66875000D02*
X94500000Y-66875000D01*
X94500000Y-65925000D01*
X95500000Y-65925000D01*
X95500000Y-66875000D01*
X95500000Y-66875000D01*
G37*
G36*
X55500000Y-66875000D02*
X54500000Y-66875000D01*
X54500000Y-65925000D01*
X55500000Y-65925000D01*
X55500000Y-66875000D01*
X55500000Y-66875000D01*
G37*
G36*
X77500000Y-66875000D02*
X76500000Y-66875000D01*
X76500000Y-65925000D01*
X77500000Y-65925000D01*
X77500000Y-66875000D01*
X77500000Y-66875000D01*
G37*
G36*
X57500000Y-66875000D02*
X56500000Y-66875000D01*
X56500000Y-65925000D01*
X57500000Y-65925000D01*
X57500000Y-66875000D01*
X57500000Y-66875000D01*
G37*
G36*
X113250000Y-66850000D02*
X112650000Y-66850000D01*
X112650000Y-65850000D01*
X113250000Y-65850000D01*
X113250000Y-66850000D01*
X113250000Y-66850000D01*
G37*
G36*
X111350000Y-66850000D02*
X110750000Y-66850000D01*
X110750000Y-65850000D01*
X111350000Y-65850000D01*
X111350000Y-66850000D01*
X111350000Y-66850000D01*
G37*
G36*
X93250000Y-66850000D02*
X92650000Y-66850000D01*
X92650000Y-65850000D01*
X93250000Y-65850000D01*
X93250000Y-66850000D01*
X93250000Y-66850000D01*
G37*
G36*
X91350000Y-66850000D02*
X90750000Y-66850000D01*
X90750000Y-65850000D01*
X91350000Y-65850000D01*
X91350000Y-66850000D01*
X91350000Y-66850000D01*
G37*
G36*
X71350000Y-66850000D02*
X70750000Y-66850000D01*
X70750000Y-65850000D01*
X71350000Y-65850000D01*
X71350000Y-66850000D01*
X71350000Y-66850000D01*
G37*
G36*
X53250000Y-66850000D02*
X52650000Y-66850000D01*
X52650000Y-65850000D01*
X53250000Y-65850000D01*
X53250000Y-66850000D01*
X53250000Y-66850000D01*
G37*
G36*
X73250000Y-66850000D02*
X72650000Y-66850000D01*
X72650000Y-65850000D01*
X73250000Y-65850000D01*
X73250000Y-66850000D01*
X73250000Y-66850000D01*
G37*
G36*
X31350000Y-66850000D02*
X30750000Y-66850000D01*
X30750000Y-65850000D01*
X31350000Y-65850000D01*
X31350000Y-66850000D01*
X31350000Y-66850000D01*
G37*
G36*
X51350000Y-66850000D02*
X50750000Y-66850000D01*
X50750000Y-65850000D01*
X51350000Y-65850000D01*
X51350000Y-66850000D01*
X51350000Y-66850000D01*
G37*
G36*
X33250000Y-66850000D02*
X32650000Y-66850000D01*
X32650000Y-65850000D01*
X33250000Y-65850000D01*
X33250000Y-66850000D01*
X33250000Y-66850000D01*
G37*
G36*
X117500000Y-66825000D02*
X116500000Y-66825000D01*
X116500000Y-65875000D01*
X117500000Y-65875000D01*
X117500000Y-66825000D01*
X117500000Y-66825000D01*
G37*
G36*
X51537532Y-60807643D02*
X51537535Y-60807644D01*
X51537534Y-60807644D01*
X51810517Y-60920717D01*
X51950768Y-61014430D01*
X52056197Y-61084875D01*
X52265125Y-61293803D01*
X52335570Y-61399232D01*
X52429283Y-61539483D01*
X52522956Y-61765631D01*
X52542357Y-61812468D01*
X52600000Y-62102261D01*
X52600000Y-62397739D01*
X52542357Y-62687532D01*
X52542356Y-62687534D01*
X52429283Y-62960517D01*
X52335570Y-63100768D01*
X52265125Y-63206197D01*
X52056197Y-63415125D01*
X51950768Y-63485570D01*
X51810517Y-63579283D01*
X51584369Y-63672956D01*
X51537532Y-63692357D01*
X51247739Y-63750000D01*
X50952261Y-63750000D01*
X50662468Y-63692357D01*
X50615631Y-63672956D01*
X50389483Y-63579283D01*
X50249232Y-63485570D01*
X50143803Y-63415125D01*
X49934875Y-63206197D01*
X49864430Y-63100768D01*
X49770717Y-62960517D01*
X49657644Y-62687534D01*
X49657643Y-62687532D01*
X49600000Y-62397739D01*
X49600000Y-62102261D01*
X49657643Y-61812468D01*
X49677044Y-61765631D01*
X49770717Y-61539483D01*
X49864430Y-61399232D01*
X49934875Y-61293803D01*
X50143803Y-61084875D01*
X50249232Y-61014430D01*
X50389483Y-60920717D01*
X50662466Y-60807644D01*
X50662465Y-60807644D01*
X50662468Y-60807643D01*
X50952261Y-60750000D01*
X51247739Y-60750000D01*
X51537532Y-60807643D01*
X51537532Y-60807643D01*
G37*
G36*
X44037532Y-60807643D02*
X44037535Y-60807644D01*
X44037534Y-60807644D01*
X44310517Y-60920717D01*
X44450768Y-61014430D01*
X44556197Y-61084875D01*
X44765125Y-61293803D01*
X44835570Y-61399232D01*
X44929283Y-61539483D01*
X45022956Y-61765631D01*
X45042357Y-61812468D01*
X45100000Y-62102261D01*
X45100000Y-62397739D01*
X45042357Y-62687532D01*
X45042356Y-62687534D01*
X44929283Y-62960517D01*
X44835570Y-63100768D01*
X44765125Y-63206197D01*
X44556197Y-63415125D01*
X44450768Y-63485570D01*
X44310517Y-63579283D01*
X44084369Y-63672956D01*
X44037532Y-63692357D01*
X43747739Y-63750000D01*
X43452261Y-63750000D01*
X43162468Y-63692357D01*
X43115631Y-63672956D01*
X42889483Y-63579283D01*
X42749232Y-63485570D01*
X42643803Y-63415125D01*
X42434875Y-63206197D01*
X42364430Y-63100768D01*
X42270717Y-62960517D01*
X42157644Y-62687534D01*
X42157643Y-62687532D01*
X42100000Y-62397739D01*
X42100000Y-62102261D01*
X42157643Y-61812468D01*
X42177044Y-61765631D01*
X42270717Y-61539483D01*
X42364430Y-61399232D01*
X42434875Y-61293803D01*
X42643803Y-61084875D01*
X42749232Y-61014430D01*
X42889483Y-60920717D01*
X43162466Y-60807644D01*
X43162465Y-60807644D01*
X43162468Y-60807643D01*
X43452261Y-60750000D01*
X43747739Y-60750000D01*
X44037532Y-60807643D01*
X44037532Y-60807643D01*
G37*
G36*
X24918821Y-54971052D02*
X25492085Y-55208506D01*
X26008008Y-55553235D01*
X26446765Y-55991992D01*
X26791494Y-56507915D01*
X27028948Y-57081179D01*
X27150000Y-57689752D01*
X27150000Y-58310248D01*
X27028948Y-58918821D01*
X26791494Y-59492085D01*
X26446765Y-60008008D01*
X26008008Y-60446765D01*
X25492085Y-60791494D01*
X24918821Y-61028948D01*
X24310248Y-61150000D01*
X23689752Y-61150000D01*
X23081179Y-61028948D01*
X22507915Y-60791494D01*
X21991992Y-60446765D01*
X21553235Y-60008008D01*
X21208506Y-59492085D01*
X20971052Y-58918821D01*
X20850000Y-58310248D01*
X20850000Y-57689752D01*
X20971052Y-57081179D01*
X21208506Y-56507915D01*
X21553235Y-55991992D01*
X21991992Y-55553235D01*
X22507915Y-55208506D01*
X23081179Y-54971052D01*
X23689752Y-54850000D01*
X24310248Y-54850000D01*
X24918821Y-54971052D01*
X24918821Y-54971052D01*
G37*
G36*
X113275012Y-58923057D02*
X113275015Y-58923058D01*
X113275014Y-58923058D01*
X113384207Y-58968287D01*
X113482148Y-59033729D01*
X113482481Y-59033952D01*
X113566048Y-59117519D01*
X113566050Y-59117522D01*
X113631713Y-59215793D01*
X113669183Y-59306253D01*
X113676943Y-59324988D01*
X113700000Y-59440904D01*
X113700000Y-59559096D01*
X113676943Y-59675012D01*
X113676942Y-59675014D01*
X113631713Y-59784207D01*
X113566271Y-59882148D01*
X113566048Y-59882481D01*
X113482481Y-59966048D01*
X113482478Y-59966050D01*
X113384207Y-60031713D01*
X113301776Y-60065857D01*
X113275012Y-60076943D01*
X113159096Y-60100000D01*
X113040904Y-60100000D01*
X112924988Y-60076943D01*
X112898224Y-60065857D01*
X112815793Y-60031713D01*
X112717522Y-59966050D01*
X112717519Y-59966048D01*
X112633952Y-59882481D01*
X112633729Y-59882148D01*
X112568287Y-59784207D01*
X112523058Y-59675014D01*
X112523057Y-59675012D01*
X112500000Y-59559096D01*
X112500000Y-59440904D01*
X112523057Y-59324988D01*
X112530817Y-59306253D01*
X112568287Y-59215793D01*
X112633950Y-59117522D01*
X112633952Y-59117519D01*
X112717519Y-59033952D01*
X112717852Y-59033729D01*
X112815793Y-58968287D01*
X112924986Y-58923058D01*
X112924985Y-58923058D01*
X112924988Y-58923057D01*
X113040904Y-58900000D01*
X113159096Y-58900000D01*
X113275012Y-58923057D01*
X113275012Y-58923057D01*
G37*
G36*
X40100000Y-59525000D02*
X39100000Y-59525000D01*
X39100000Y-58575000D01*
X40100000Y-58575000D01*
X40100000Y-59525000D01*
X40100000Y-59525000D01*
G37*
G36*
X38400000Y-59475000D02*
X37400000Y-59475000D01*
X37400000Y-58525000D01*
X38400000Y-58525000D01*
X38400000Y-59475000D01*
X38400000Y-59475000D01*
G37*
G36*
X111233351Y-57230743D02*
X111378942Y-57291049D01*
X111478748Y-57357737D01*
X111509973Y-57378601D01*
X111621399Y-57490027D01*
X111621401Y-57490030D01*
X111708951Y-57621058D01*
X111769257Y-57766649D01*
X111800000Y-57921206D01*
X111800000Y-58078794D01*
X111769322Y-58233026D01*
X111769257Y-58233351D01*
X111708951Y-58378942D01*
X111621989Y-58509090D01*
X111621399Y-58509973D01*
X111509973Y-58621399D01*
X111509970Y-58621401D01*
X111378942Y-58708951D01*
X111376409Y-58710000D01*
X111233351Y-58769257D01*
X111078794Y-58800000D01*
X110921206Y-58800000D01*
X110766649Y-58769257D01*
X110623591Y-58710000D01*
X110621058Y-58708951D01*
X110490030Y-58621401D01*
X110490027Y-58621399D01*
X110378601Y-58509973D01*
X110378011Y-58509090D01*
X110291049Y-58378942D01*
X110230743Y-58233351D01*
X110230678Y-58233026D01*
X110200000Y-58078794D01*
X110200000Y-57921206D01*
X110230743Y-57766649D01*
X110291049Y-57621058D01*
X110378599Y-57490030D01*
X110378601Y-57490027D01*
X110490027Y-57378601D01*
X110521252Y-57357737D01*
X110621058Y-57291049D01*
X110766649Y-57230743D01*
X110921206Y-57200000D01*
X111078794Y-57200000D01*
X111233351Y-57230743D01*
X111233351Y-57230743D01*
G37*
G36*
X51537532Y-55767643D02*
X51537535Y-55767644D01*
X51537534Y-55767644D01*
X51810517Y-55880717D01*
X51939609Y-55966974D01*
X52056197Y-56044875D01*
X52265125Y-56253803D01*
X52335570Y-56359232D01*
X52429283Y-56499483D01*
X52479782Y-56621399D01*
X52542357Y-56772468D01*
X52600000Y-57062261D01*
X52600000Y-57357739D01*
X52542357Y-57647532D01*
X52542356Y-57647534D01*
X52429283Y-57920517D01*
X52356431Y-58029547D01*
X52265125Y-58166197D01*
X52056197Y-58375125D01*
X51950768Y-58445570D01*
X51810517Y-58539283D01*
X51612271Y-58621399D01*
X51537532Y-58652357D01*
X51247739Y-58710000D01*
X50952261Y-58710000D01*
X50662468Y-58652357D01*
X50587729Y-58621399D01*
X50389483Y-58539283D01*
X50249232Y-58445570D01*
X50143803Y-58375125D01*
X49934875Y-58166197D01*
X49843569Y-58029547D01*
X49770717Y-57920517D01*
X49657644Y-57647534D01*
X49657643Y-57647532D01*
X49600000Y-57357739D01*
X49600000Y-57062261D01*
X49657643Y-56772468D01*
X49720218Y-56621399D01*
X49770717Y-56499483D01*
X49864430Y-56359232D01*
X49934875Y-56253803D01*
X50143803Y-56044875D01*
X50260391Y-55966974D01*
X50389483Y-55880717D01*
X50662466Y-55767644D01*
X50662465Y-55767644D01*
X50662468Y-55767643D01*
X50952261Y-55710000D01*
X51247739Y-55710000D01*
X51537532Y-55767643D01*
X51537532Y-55767643D01*
G37*
G36*
X44037532Y-55767643D02*
X44037535Y-55767644D01*
X44037534Y-55767644D01*
X44310517Y-55880717D01*
X44439609Y-55966974D01*
X44556197Y-56044875D01*
X44765125Y-56253803D01*
X44835570Y-56359232D01*
X44929283Y-56499483D01*
X44979782Y-56621399D01*
X45042357Y-56772468D01*
X45100000Y-57062261D01*
X45100000Y-57357739D01*
X45042357Y-57647532D01*
X45042356Y-57647534D01*
X44929283Y-57920517D01*
X44856431Y-58029547D01*
X44765125Y-58166197D01*
X44556197Y-58375125D01*
X44450768Y-58445570D01*
X44310517Y-58539283D01*
X44112271Y-58621399D01*
X44037532Y-58652357D01*
X43747739Y-58710000D01*
X43452261Y-58710000D01*
X43162468Y-58652357D01*
X43087729Y-58621399D01*
X42889483Y-58539283D01*
X42749232Y-58445570D01*
X42643803Y-58375125D01*
X42434875Y-58166197D01*
X42343569Y-58029547D01*
X42270717Y-57920517D01*
X42157644Y-57647534D01*
X42157643Y-57647532D01*
X42100000Y-57357739D01*
X42100000Y-57062261D01*
X42157643Y-56772468D01*
X42220218Y-56621399D01*
X42270717Y-56499483D01*
X42364430Y-56359232D01*
X42434875Y-56253803D01*
X42643803Y-56044875D01*
X42760391Y-55966974D01*
X42889483Y-55880717D01*
X43162466Y-55767644D01*
X43162465Y-55767644D01*
X43162468Y-55767643D01*
X43452261Y-55710000D01*
X43747739Y-55710000D01*
X44037532Y-55767643D01*
X44037532Y-55767643D01*
G37*
G36*
X40100000Y-57925000D02*
X39100000Y-57925000D01*
X39100000Y-56975000D01*
X40100000Y-56975000D01*
X40100000Y-57925000D01*
X40100000Y-57925000D01*
G37*
G36*
X34875000Y-57900000D02*
X33925000Y-57900000D01*
X33925000Y-56900000D01*
X34875000Y-56900000D01*
X34875000Y-57900000D01*
X34875000Y-57900000D01*
G37*
G36*
X36475000Y-57900000D02*
X35525000Y-57900000D01*
X35525000Y-56900000D01*
X36475000Y-56900000D01*
X36475000Y-57900000D01*
X36475000Y-57900000D01*
G37*
G36*
X38400000Y-57875000D02*
X37400000Y-57875000D01*
X37400000Y-56925000D01*
X38400000Y-56925000D01*
X38400000Y-57875000D01*
X38400000Y-57875000D01*
G37*
G36*
X111233351Y-55230743D02*
X111378942Y-55291049D01*
X111478987Y-55357897D01*
X111509973Y-55378601D01*
X111621399Y-55490027D01*
X111621401Y-55490030D01*
X111708951Y-55621058D01*
X111769257Y-55766649D01*
X111800000Y-55921207D01*
X111800000Y-56078793D01*
X111769257Y-56233351D01*
X111708951Y-56378942D01*
X111700734Y-56391239D01*
X111621399Y-56509973D01*
X111509973Y-56621399D01*
X111509970Y-56621401D01*
X111378942Y-56708951D01*
X111233351Y-56769257D01*
X111078794Y-56800000D01*
X110921206Y-56800000D01*
X110766649Y-56769257D01*
X110621058Y-56708951D01*
X110490030Y-56621401D01*
X110490027Y-56621399D01*
X110378601Y-56509973D01*
X110299266Y-56391239D01*
X110291049Y-56378942D01*
X110230743Y-56233351D01*
X110200000Y-56078793D01*
X110200000Y-55921207D01*
X110230743Y-55766649D01*
X110291049Y-55621058D01*
X110378599Y-55490030D01*
X110378601Y-55490027D01*
X110490027Y-55378601D01*
X110521013Y-55357897D01*
X110621058Y-55291049D01*
X110766649Y-55230743D01*
X110921206Y-55200000D01*
X111078794Y-55200000D01*
X111233351Y-55230743D01*
X111233351Y-55230743D01*
G37*
G36*
X34875000Y-56300000D02*
X33925000Y-56300000D01*
X33925000Y-55300000D01*
X34875000Y-55300000D01*
X34875000Y-56300000D01*
X34875000Y-56300000D01*
G37*
G36*
X36475000Y-56300000D02*
X35525000Y-56300000D01*
X35525000Y-55300000D01*
X36475000Y-55300000D01*
X36475000Y-56300000D01*
X36475000Y-56300000D01*
G37*
G36*
X113275012Y-53923057D02*
X113275015Y-53923058D01*
X113275014Y-53923058D01*
X113384207Y-53968287D01*
X113482148Y-54033729D01*
X113482481Y-54033952D01*
X113566048Y-54117519D01*
X113566050Y-54117522D01*
X113631713Y-54215793D01*
X113669183Y-54306253D01*
X113676943Y-54324988D01*
X113700000Y-54440904D01*
X113700000Y-54559096D01*
X113676943Y-54675012D01*
X113676942Y-54675014D01*
X113631713Y-54784207D01*
X113587751Y-54850000D01*
X113566048Y-54882481D01*
X113482481Y-54966048D01*
X113482478Y-54966050D01*
X113384207Y-55031713D01*
X113293747Y-55069183D01*
X113275012Y-55076943D01*
X113159096Y-55100000D01*
X113040904Y-55100000D01*
X112924988Y-55076943D01*
X112906253Y-55069183D01*
X112815793Y-55031713D01*
X112717522Y-54966050D01*
X112717519Y-54966048D01*
X112633952Y-54882481D01*
X112612249Y-54850000D01*
X112568287Y-54784207D01*
X112523058Y-54675014D01*
X112523057Y-54675012D01*
X112500000Y-54559096D01*
X112500000Y-54440904D01*
X112523057Y-54324988D01*
X112530817Y-54306253D01*
X112568287Y-54215793D01*
X112633950Y-54117522D01*
X112633952Y-54117519D01*
X112717519Y-54033952D01*
X112717852Y-54033729D01*
X112815793Y-53968287D01*
X112924986Y-53923058D01*
X112924985Y-53923058D01*
X112924988Y-53923057D01*
X113040904Y-53900000D01*
X113159096Y-53900000D01*
X113275012Y-53923057D01*
X113275012Y-53923057D01*
G37*
G36*
X82945843Y-53619214D02*
X82945846Y-53619215D01*
X82945845Y-53619215D01*
X83036839Y-53656906D01*
X83091311Y-53693303D01*
X83118733Y-53711626D01*
X83188374Y-53781267D01*
X83188375Y-53781269D01*
X83243094Y-53863161D01*
X83243094Y-53863162D01*
X83280786Y-53954157D01*
X83300000Y-54050753D01*
X83300000Y-54149247D01*
X83280786Y-54245843D01*
X83280785Y-54245845D01*
X83243094Y-54336839D01*
X83206697Y-54391311D01*
X83188374Y-54418733D01*
X83118733Y-54488374D01*
X83091311Y-54506697D01*
X83036839Y-54543094D01*
X82972495Y-54569746D01*
X82945843Y-54580786D01*
X82849247Y-54600000D01*
X82750753Y-54600000D01*
X82654157Y-54580786D01*
X82627505Y-54569746D01*
X82563161Y-54543094D01*
X82508689Y-54506697D01*
X82481267Y-54488374D01*
X82411626Y-54418733D01*
X82393303Y-54391311D01*
X82356906Y-54336839D01*
X82319215Y-54245845D01*
X82319214Y-54245843D01*
X82300000Y-54149247D01*
X82300000Y-54050753D01*
X82319214Y-53954157D01*
X82356906Y-53863162D01*
X82356906Y-53863161D01*
X82411625Y-53781269D01*
X82411626Y-53781267D01*
X82481267Y-53711626D01*
X82508689Y-53693303D01*
X82563161Y-53656906D01*
X82654155Y-53619215D01*
X82654154Y-53619215D01*
X82654157Y-53619214D01*
X82750753Y-53600000D01*
X82849247Y-53600000D01*
X82945843Y-53619214D01*
X82945843Y-53619214D01*
G37*
G36*
X86345843Y-53619214D02*
X86345846Y-53619215D01*
X86345845Y-53619215D01*
X86436839Y-53656906D01*
X86491311Y-53693303D01*
X86518733Y-53711626D01*
X86588374Y-53781267D01*
X86588375Y-53781269D01*
X86643094Y-53863161D01*
X86643094Y-53863162D01*
X86680786Y-53954157D01*
X86700000Y-54050753D01*
X86700000Y-54149247D01*
X86680786Y-54245843D01*
X86680785Y-54245845D01*
X86643094Y-54336839D01*
X86606697Y-54391311D01*
X86588374Y-54418733D01*
X86518733Y-54488374D01*
X86491311Y-54506697D01*
X86436839Y-54543094D01*
X86372495Y-54569746D01*
X86345843Y-54580786D01*
X86249247Y-54600000D01*
X86150753Y-54600000D01*
X86054157Y-54580786D01*
X86027505Y-54569746D01*
X85963161Y-54543094D01*
X85908689Y-54506697D01*
X85881267Y-54488374D01*
X85811626Y-54418733D01*
X85793303Y-54391311D01*
X85756906Y-54336839D01*
X85719215Y-54245845D01*
X85719214Y-54245843D01*
X85700000Y-54149247D01*
X85700000Y-54050753D01*
X85719214Y-53954157D01*
X85756906Y-53863162D01*
X85756906Y-53863161D01*
X85811625Y-53781269D01*
X85811626Y-53781267D01*
X85881267Y-53711626D01*
X85908689Y-53693303D01*
X85963161Y-53656906D01*
X86054155Y-53619215D01*
X86054154Y-53619215D01*
X86054157Y-53619214D01*
X86150753Y-53600000D01*
X86249247Y-53600000D01*
X86345843Y-53619214D01*
X86345843Y-53619214D01*
G37*
G36*
X113275012Y-51923057D02*
X113275015Y-51923058D01*
X113275014Y-51923058D01*
X113384207Y-51968287D01*
X113482148Y-52033729D01*
X113482481Y-52033952D01*
X113566048Y-52117519D01*
X113566050Y-52117522D01*
X113631713Y-52215793D01*
X113669183Y-52306253D01*
X113676943Y-52324988D01*
X113700000Y-52440904D01*
X113700000Y-52559096D01*
X113676943Y-52675012D01*
X113676942Y-52675014D01*
X113631713Y-52784207D01*
X113582583Y-52857735D01*
X113566048Y-52882481D01*
X113482481Y-52966048D01*
X113482478Y-52966050D01*
X113384207Y-53031713D01*
X113293747Y-53069183D01*
X113275012Y-53076943D01*
X113159096Y-53100000D01*
X113040904Y-53100000D01*
X112924988Y-53076943D01*
X112906253Y-53069183D01*
X112815793Y-53031713D01*
X112717522Y-52966050D01*
X112717519Y-52966048D01*
X112633952Y-52882481D01*
X112617417Y-52857735D01*
X112568287Y-52784207D01*
X112523058Y-52675014D01*
X112523057Y-52675012D01*
X112500000Y-52559096D01*
X112500000Y-52440904D01*
X112523057Y-52324988D01*
X112530817Y-52306253D01*
X112568287Y-52215793D01*
X112633950Y-52117522D01*
X112633952Y-52117519D01*
X112717519Y-52033952D01*
X112717852Y-52033729D01*
X112815793Y-51968287D01*
X112924986Y-51923058D01*
X112924985Y-51923058D01*
X112924988Y-51923057D01*
X113040904Y-51900000D01*
X113159096Y-51900000D01*
X113275012Y-51923057D01*
X113275012Y-51923057D01*
G37*
G36*
X37274610Y-50548036D02*
X37502096Y-50642264D01*
X37706831Y-50779063D01*
X37880937Y-50953169D01*
X38017736Y-51157904D01*
X38111964Y-51385390D01*
X38160000Y-51626884D01*
X38160000Y-51873116D01*
X38111964Y-52114610D01*
X38017736Y-52342096D01*
X37880937Y-52546831D01*
X37706831Y-52720937D01*
X37502096Y-52857736D01*
X37274610Y-52951964D01*
X37033116Y-53000000D01*
X36786884Y-53000000D01*
X36545390Y-52951964D01*
X36317904Y-52857736D01*
X36113169Y-52720937D01*
X35939063Y-52546831D01*
X35802264Y-52342096D01*
X35708036Y-52114610D01*
X35660000Y-51873116D01*
X35660000Y-51626884D01*
X35708036Y-51385390D01*
X35802264Y-51157904D01*
X35939063Y-50953169D01*
X36113169Y-50779063D01*
X36317904Y-50642264D01*
X36545390Y-50548036D01*
X36786884Y-50500000D01*
X37033116Y-50500000D01*
X37274610Y-50548036D01*
X37274610Y-50548036D01*
G37*
G36*
X34274610Y-50548036D02*
X34502096Y-50642264D01*
X34706831Y-50779063D01*
X34880937Y-50953169D01*
X35017736Y-51157904D01*
X35111964Y-51385390D01*
X35160000Y-51626884D01*
X35160000Y-51873116D01*
X35111964Y-52114610D01*
X35017736Y-52342096D01*
X34880937Y-52546831D01*
X34706831Y-52720937D01*
X34502096Y-52857736D01*
X34274610Y-52951964D01*
X34033116Y-53000000D01*
X33786884Y-53000000D01*
X33545390Y-52951964D01*
X33317904Y-52857736D01*
X33113169Y-52720937D01*
X32939063Y-52546831D01*
X32802264Y-52342096D01*
X32708036Y-52114610D01*
X32660000Y-51873116D01*
X32660000Y-51626884D01*
X32708036Y-51385390D01*
X32802264Y-51157904D01*
X32939063Y-50953169D01*
X33113169Y-50779063D01*
X33317904Y-50642264D01*
X33545390Y-50548036D01*
X33786884Y-50500000D01*
X34033116Y-50500000D01*
X34274610Y-50548036D01*
X34274610Y-50548036D01*
G37*
G36*
X111233351Y-50230743D02*
X111378942Y-50291049D01*
X111509090Y-50378011D01*
X111509973Y-50378601D01*
X111621399Y-50490027D01*
X111621401Y-50490030D01*
X111708951Y-50621058D01*
X111769257Y-50766649D01*
X111800000Y-50921207D01*
X111800000Y-51078793D01*
X111769257Y-51233351D01*
X111708951Y-51378942D01*
X111651159Y-51465434D01*
X111621399Y-51509973D01*
X111509973Y-51621399D01*
X111509970Y-51621401D01*
X111378942Y-51708951D01*
X111233351Y-51769257D01*
X111078794Y-51800000D01*
X110921206Y-51800000D01*
X110766649Y-51769257D01*
X110621058Y-51708951D01*
X110490030Y-51621401D01*
X110490027Y-51621399D01*
X110378601Y-51509973D01*
X110348841Y-51465434D01*
X110291049Y-51378942D01*
X110230743Y-51233351D01*
X110200000Y-51078793D01*
X110200000Y-50921207D01*
X110230743Y-50766649D01*
X110291049Y-50621058D01*
X110378599Y-50490030D01*
X110378601Y-50490027D01*
X110490027Y-50378601D01*
X110490910Y-50378011D01*
X110621058Y-50291049D01*
X110766649Y-50230743D01*
X110921206Y-50200000D01*
X111078794Y-50200000D01*
X111233351Y-50230743D01*
X111233351Y-50230743D01*
G37*
G36*
X26444534Y-48534566D02*
X26721888Y-48649450D01*
X26971493Y-48816230D01*
X27183770Y-49028507D01*
X27350550Y-49278112D01*
X27465434Y-49555466D01*
X27524000Y-49849899D01*
X27524000Y-50150101D01*
X27465434Y-50444534D01*
X27350550Y-50721888D01*
X27183770Y-50971493D01*
X26971493Y-51183770D01*
X26721888Y-51350550D01*
X26637779Y-51385389D01*
X26444534Y-51465434D01*
X26150101Y-51524000D01*
X25849899Y-51524000D01*
X25555466Y-51465434D01*
X25362221Y-51385389D01*
X25278112Y-51350550D01*
X25028507Y-51183770D01*
X24816230Y-50971493D01*
X24649450Y-50721888D01*
X24534566Y-50444534D01*
X24476000Y-50150101D01*
X24476000Y-49849899D01*
X24534566Y-49555466D01*
X24649450Y-49278112D01*
X24816230Y-49028507D01*
X25028507Y-48816230D01*
X25278112Y-48649450D01*
X25555466Y-48534566D01*
X25849899Y-48476000D01*
X26150101Y-48476000D01*
X26444534Y-48534566D01*
X26444534Y-48534566D01*
G37*
G36*
X108360000Y-51310000D02*
X107740000Y-51310000D01*
X107740000Y-50690000D01*
X108360000Y-50690000D01*
X108360000Y-51310000D01*
X108360000Y-51310000D01*
G37*
G36*
X109260000Y-51310000D02*
X108640000Y-51310000D01*
X108640000Y-50690000D01*
X109260000Y-50690000D01*
X109260000Y-51310000D01*
X109260000Y-51310000D01*
G37*
G36*
X85910000Y-50360000D02*
X85290000Y-50360000D01*
X85290000Y-49740000D01*
X85910000Y-49740000D01*
X85910000Y-50360000D01*
X85910000Y-50360000D01*
G37*
G36*
X87110000Y-50360000D02*
X86490000Y-50360000D01*
X86490000Y-49740000D01*
X87110000Y-49740000D01*
X87110000Y-50360000D01*
X87110000Y-50360000D01*
G37*
G36*
X111233351Y-48230743D02*
X111378942Y-48291049D01*
X111501761Y-48373114D01*
X111509973Y-48378601D01*
X111621399Y-48490027D01*
X111621401Y-48490030D01*
X111708951Y-48621058D01*
X111769257Y-48766649D01*
X111800000Y-48921207D01*
X111800000Y-49078793D01*
X111769257Y-49233351D01*
X111708951Y-49378942D01*
X111660160Y-49451963D01*
X111621399Y-49509973D01*
X111509973Y-49621399D01*
X111509970Y-49621401D01*
X111378942Y-49708951D01*
X111303983Y-49740000D01*
X111233351Y-49769257D01*
X111078794Y-49800000D01*
X110921206Y-49800000D01*
X110766649Y-49769257D01*
X110696017Y-49740000D01*
X110621058Y-49708951D01*
X110490030Y-49621401D01*
X110490027Y-49621399D01*
X110378601Y-49509973D01*
X110339840Y-49451963D01*
X110291049Y-49378942D01*
X110230743Y-49233351D01*
X110200000Y-49078793D01*
X110200000Y-48921207D01*
X110230743Y-48766649D01*
X110291049Y-48621058D01*
X110378599Y-48490030D01*
X110378601Y-48490027D01*
X110490027Y-48378601D01*
X110498239Y-48373114D01*
X110621058Y-48291049D01*
X110766649Y-48230743D01*
X110921206Y-48200000D01*
X111078794Y-48200000D01*
X111233351Y-48230743D01*
X111233351Y-48230743D01*
G37*
G36*
X37274610Y-47048036D02*
X37502096Y-47142264D01*
X37706831Y-47279063D01*
X37880937Y-47453169D01*
X38017736Y-47657904D01*
X38111964Y-47885390D01*
X38160000Y-48126884D01*
X38160000Y-48373116D01*
X38111964Y-48614610D01*
X38017736Y-48842096D01*
X37880937Y-49046831D01*
X37706831Y-49220937D01*
X37502096Y-49357736D01*
X37274610Y-49451964D01*
X37033116Y-49500000D01*
X36786884Y-49500000D01*
X36545390Y-49451964D01*
X36317904Y-49357736D01*
X36113169Y-49220937D01*
X35939063Y-49046831D01*
X35802264Y-48842096D01*
X35708036Y-48614610D01*
X35660000Y-48373116D01*
X35660000Y-48126884D01*
X35708036Y-47885390D01*
X35802264Y-47657904D01*
X35939063Y-47453169D01*
X36113169Y-47279063D01*
X36317904Y-47142264D01*
X36545390Y-47048036D01*
X36786884Y-47000000D01*
X37033116Y-47000000D01*
X37274610Y-47048036D01*
X37274610Y-47048036D01*
G37*
G36*
X34274610Y-47048036D02*
X34502096Y-47142264D01*
X34706831Y-47279063D01*
X34880937Y-47453169D01*
X35017736Y-47657904D01*
X35111964Y-47885390D01*
X35160000Y-48126884D01*
X35160000Y-48373116D01*
X35111964Y-48614610D01*
X35017736Y-48842096D01*
X34880937Y-49046831D01*
X34706831Y-49220937D01*
X34502096Y-49357736D01*
X34274610Y-49451964D01*
X34033116Y-49500000D01*
X33786884Y-49500000D01*
X33545390Y-49451964D01*
X33317904Y-49357736D01*
X33113169Y-49220937D01*
X32939063Y-49046831D01*
X32802264Y-48842096D01*
X32708036Y-48614610D01*
X32660000Y-48373116D01*
X32660000Y-48126884D01*
X32708036Y-47885390D01*
X32802264Y-47657904D01*
X32939063Y-47453169D01*
X33113169Y-47279063D01*
X33317904Y-47142264D01*
X33545390Y-47048036D01*
X33786884Y-47000000D01*
X34033116Y-47000000D01*
X34274610Y-47048036D01*
X34274610Y-47048036D01*
G37*
G36*
X85910000Y-49460000D02*
X85290000Y-49460000D01*
X85290000Y-48840000D01*
X85910000Y-48840000D01*
X85910000Y-49460000D01*
X85910000Y-49460000D01*
G37*
G36*
X87110000Y-49460000D02*
X86490000Y-49460000D01*
X86490000Y-48840000D01*
X87110000Y-48840000D01*
X87110000Y-49460000D01*
X87110000Y-49460000D01*
G37*
G36*
X108360000Y-49310000D02*
X107740000Y-49310000D01*
X107740000Y-48690000D01*
X108360000Y-48690000D01*
X108360000Y-49310000D01*
X108360000Y-49310000D01*
G37*
G36*
X109260000Y-49310000D02*
X108640000Y-49310000D01*
X108640000Y-48690000D01*
X109260000Y-48690000D01*
X109260000Y-49310000D01*
X109260000Y-49310000D01*
G37*
G36*
X75260000Y-49110000D02*
X74640000Y-49110000D01*
X74640000Y-48490000D01*
X75260000Y-48490000D01*
X75260000Y-49110000D01*
X75260000Y-49110000D01*
G37*
G36*
X74360000Y-49110000D02*
X73740000Y-49110000D01*
X73740000Y-48490000D01*
X74360000Y-48490000D01*
X74360000Y-49110000D01*
X74360000Y-49110000D01*
G37*
G36*
X111233351Y-46230743D02*
X111378942Y-46291049D01*
X111509090Y-46378011D01*
X111509973Y-46378601D01*
X111621399Y-46490027D01*
X111621401Y-46490030D01*
X111708951Y-46621058D01*
X111769257Y-46766649D01*
X111800000Y-46921207D01*
X111800000Y-47078793D01*
X111769257Y-47233351D01*
X111708951Y-47378942D01*
X111659354Y-47453169D01*
X111621399Y-47509973D01*
X111509973Y-47621399D01*
X111509970Y-47621401D01*
X111378942Y-47708951D01*
X111233351Y-47769257D01*
X111078794Y-47800000D01*
X110921206Y-47800000D01*
X110766649Y-47769257D01*
X110621058Y-47708951D01*
X110490030Y-47621401D01*
X110490027Y-47621399D01*
X110378601Y-47509973D01*
X110340646Y-47453169D01*
X110291049Y-47378942D01*
X110230743Y-47233351D01*
X110200000Y-47078793D01*
X110200000Y-46921207D01*
X110230743Y-46766649D01*
X110291049Y-46621058D01*
X110378599Y-46490030D01*
X110378601Y-46490027D01*
X110490027Y-46378601D01*
X110490910Y-46378011D01*
X110621058Y-46291049D01*
X110766649Y-46230743D01*
X110921206Y-46200000D01*
X111078794Y-46200000D01*
X111233351Y-46230743D01*
X111233351Y-46230743D01*
G37*
G36*
X75900000Y-47450000D02*
X75600000Y-47450000D01*
X75600000Y-45950000D01*
X75900000Y-45950000D01*
X75900000Y-47450000D01*
X75900000Y-47450000D01*
G37*
G36*
X76400000Y-47450000D02*
X76100000Y-47450000D01*
X76100000Y-45950000D01*
X76400000Y-45950000D01*
X76400000Y-47450000D01*
X76400000Y-47450000D01*
G37*
G36*
X76900000Y-47450000D02*
X76600000Y-47450000D01*
X76600000Y-45950000D01*
X76900000Y-45950000D01*
X76900000Y-47450000D01*
X76900000Y-47450000D01*
G37*
G36*
X83400000Y-47450000D02*
X83100000Y-47450000D01*
X83100000Y-45950000D01*
X83400000Y-45950000D01*
X83400000Y-47450000D01*
X83400000Y-47450000D01*
G37*
G36*
X77400000Y-47450000D02*
X77100000Y-47450000D01*
X77100000Y-45950000D01*
X77400000Y-45950000D01*
X77400000Y-47450000D01*
X77400000Y-47450000D01*
G37*
G36*
X77900000Y-47450000D02*
X77600000Y-47450000D01*
X77600000Y-45950000D01*
X77900000Y-45950000D01*
X77900000Y-47450000D01*
X77900000Y-47450000D01*
G37*
G36*
X74900000Y-47450000D02*
X74600000Y-47450000D01*
X74600000Y-45950000D01*
X74900000Y-45950000D01*
X74900000Y-47450000D01*
X74900000Y-47450000D01*
G37*
G36*
X78400000Y-47450000D02*
X78100000Y-47450000D01*
X78100000Y-45950000D01*
X78400000Y-45950000D01*
X78400000Y-47450000D01*
X78400000Y-47450000D01*
G37*
G36*
X78900000Y-47450000D02*
X78600000Y-47450000D01*
X78600000Y-45950000D01*
X78900000Y-45950000D01*
X78900000Y-47450000D01*
X78900000Y-47450000D01*
G37*
G36*
X79400000Y-47450000D02*
X79100000Y-47450000D01*
X79100000Y-45950000D01*
X79400000Y-45950000D01*
X79400000Y-47450000D01*
X79400000Y-47450000D01*
G37*
G36*
X79900000Y-47450000D02*
X79600000Y-47450000D01*
X79600000Y-45950000D01*
X79900000Y-45950000D01*
X79900000Y-47450000D01*
X79900000Y-47450000D01*
G37*
G36*
X80400000Y-47450000D02*
X80100000Y-47450000D01*
X80100000Y-45950000D01*
X80400000Y-45950000D01*
X80400000Y-47450000D01*
X80400000Y-47450000D01*
G37*
G36*
X80900000Y-47450000D02*
X80600000Y-47450000D01*
X80600000Y-45950000D01*
X80900000Y-45950000D01*
X80900000Y-47450000D01*
X80900000Y-47450000D01*
G37*
G36*
X81900000Y-47450000D02*
X81600000Y-47450000D01*
X81600000Y-45950000D01*
X81900000Y-45950000D01*
X81900000Y-47450000D01*
X81900000Y-47450000D01*
G37*
G36*
X81400000Y-47450000D02*
X81100000Y-47450000D01*
X81100000Y-45950000D01*
X81400000Y-45950000D01*
X81400000Y-47450000D01*
X81400000Y-47450000D01*
G37*
G36*
X82400000Y-47450000D02*
X82100000Y-47450000D01*
X82100000Y-45950000D01*
X82400000Y-45950000D01*
X82400000Y-47450000D01*
X82400000Y-47450000D01*
G37*
G36*
X74400000Y-47450000D02*
X74100000Y-47450000D01*
X74100000Y-45950000D01*
X74400000Y-45950000D01*
X74400000Y-47450000D01*
X74400000Y-47450000D01*
G37*
G36*
X82900000Y-47450000D02*
X82600000Y-47450000D01*
X82600000Y-45950000D01*
X82900000Y-45950000D01*
X82900000Y-47450000D01*
X82900000Y-47450000D01*
G37*
G36*
X83900000Y-47450000D02*
X83600000Y-47450000D01*
X83600000Y-45950000D01*
X83900000Y-45950000D01*
X83900000Y-47450000D01*
X83900000Y-47450000D01*
G37*
G36*
X73900000Y-47450000D02*
X73600000Y-47450000D01*
X73600000Y-45950000D01*
X73900000Y-45950000D01*
X73900000Y-47450000D01*
X73900000Y-47450000D01*
G37*
G36*
X84900000Y-47450000D02*
X84600000Y-47450000D01*
X84600000Y-45950000D01*
X84900000Y-45950000D01*
X84900000Y-47450000D01*
X84900000Y-47450000D01*
G37*
G36*
X84400000Y-47450000D02*
X84100000Y-47450000D01*
X84100000Y-45950000D01*
X84400000Y-45950000D01*
X84400000Y-47450000D01*
X84400000Y-47450000D01*
G37*
G36*
X75400000Y-47450000D02*
X75100000Y-47450000D01*
X75100000Y-45950000D01*
X75400000Y-45950000D01*
X75400000Y-47450000D01*
X75400000Y-47450000D01*
G37*
G36*
X85400000Y-47450000D02*
X85100000Y-47450000D01*
X85100000Y-45950000D01*
X85400000Y-45950000D01*
X85400000Y-47450000D01*
X85400000Y-47450000D01*
G37*
G36*
X85900000Y-47450000D02*
X85600000Y-47450000D01*
X85600000Y-45950000D01*
X85900000Y-45950000D01*
X85900000Y-47450000D01*
X85900000Y-47450000D01*
G37*
G36*
X113275012Y-44923057D02*
X113275015Y-44923058D01*
X113275014Y-44923058D01*
X113384207Y-44968287D01*
X113482148Y-45033729D01*
X113482481Y-45033952D01*
X113566048Y-45117519D01*
X113566050Y-45117522D01*
X113631713Y-45215793D01*
X113669183Y-45306253D01*
X113676943Y-45324988D01*
X113700000Y-45440904D01*
X113700000Y-45559096D01*
X113676943Y-45675012D01*
X113676942Y-45675014D01*
X113631713Y-45784207D01*
X113566271Y-45882148D01*
X113566048Y-45882481D01*
X113482481Y-45966048D01*
X113482478Y-45966050D01*
X113384207Y-46031713D01*
X113293747Y-46069183D01*
X113275012Y-46076943D01*
X113159096Y-46100000D01*
X113040904Y-46100000D01*
X112924988Y-46076943D01*
X112906253Y-46069183D01*
X112815793Y-46031713D01*
X112717522Y-45966050D01*
X112717519Y-45966048D01*
X112633952Y-45882481D01*
X112633729Y-45882148D01*
X112568287Y-45784207D01*
X112523058Y-45675014D01*
X112523057Y-45675012D01*
X112500000Y-45559096D01*
X112500000Y-45440904D01*
X112523057Y-45324988D01*
X112530817Y-45306253D01*
X112568287Y-45215793D01*
X112633950Y-45117522D01*
X112633952Y-45117519D01*
X112717519Y-45033952D01*
X112717852Y-45033729D01*
X112815793Y-44968287D01*
X112924986Y-44923058D01*
X112924985Y-44923058D01*
X112924988Y-44923057D01*
X113040904Y-44900000D01*
X113159096Y-44900000D01*
X113275012Y-44923057D01*
X113275012Y-44923057D01*
G37*
G36*
X91575000Y-46100000D02*
X90625000Y-46100000D01*
X90625000Y-45100000D01*
X91575000Y-45100000D01*
X91575000Y-46100000D01*
X91575000Y-46100000D01*
G37*
G36*
X93175000Y-46100000D02*
X92225000Y-46100000D01*
X92225000Y-45100000D01*
X93175000Y-45100000D01*
X93175000Y-46100000D01*
X93175000Y-46100000D01*
G37*
G36*
X72800000Y-45150000D02*
X71300000Y-45150000D01*
X71300000Y-44850000D01*
X72800000Y-44850000D01*
X72800000Y-45150000D01*
X72800000Y-45150000D01*
G37*
G36*
X88200000Y-45150000D02*
X86700000Y-45150000D01*
X86700000Y-44850000D01*
X88200000Y-44850000D01*
X88200000Y-45150000D01*
X88200000Y-45150000D01*
G37*
G36*
X68860000Y-45110000D02*
X68240000Y-45110000D01*
X68240000Y-44490000D01*
X68860000Y-44490000D01*
X68860000Y-45110000D01*
X68860000Y-45110000D01*
G37*
G36*
X69760000Y-45110000D02*
X69140000Y-45110000D01*
X69140000Y-44490000D01*
X69760000Y-44490000D01*
X69760000Y-45110000D01*
X69760000Y-45110000D01*
G37*
G36*
X72800000Y-44650000D02*
X71300000Y-44650000D01*
X71300000Y-44350000D01*
X72800000Y-44350000D01*
X72800000Y-44650000D01*
X72800000Y-44650000D01*
G37*
G36*
X88200000Y-44650000D02*
X86700000Y-44650000D01*
X86700000Y-44350000D01*
X88200000Y-44350000D01*
X88200000Y-44650000D01*
X88200000Y-44650000D01*
G37*
G36*
X72800000Y-44150000D02*
X71300000Y-44150000D01*
X71300000Y-43850000D01*
X72800000Y-43850000D01*
X72800000Y-44150000D01*
X72800000Y-44150000D01*
G37*
G36*
X88200000Y-44150000D02*
X86700000Y-44150000D01*
X86700000Y-43850000D01*
X88200000Y-43850000D01*
X88200000Y-44150000D01*
X88200000Y-44150000D01*
G37*
G36*
X113275012Y-42923057D02*
X113275015Y-42923058D01*
X113275014Y-42923058D01*
X113384207Y-42968287D01*
X113482148Y-43033729D01*
X113482481Y-43033952D01*
X113566048Y-43117519D01*
X113566050Y-43117522D01*
X113631713Y-43215793D01*
X113662450Y-43290000D01*
X113676943Y-43324988D01*
X113700000Y-43440904D01*
X113700000Y-43559096D01*
X113676943Y-43675012D01*
X113676942Y-43675014D01*
X113631713Y-43784207D01*
X113587751Y-43850000D01*
X113566048Y-43882481D01*
X113482481Y-43966048D01*
X113482478Y-43966050D01*
X113384207Y-44031713D01*
X113293747Y-44069183D01*
X113275012Y-44076943D01*
X113159096Y-44100000D01*
X113040904Y-44100000D01*
X112924988Y-44076943D01*
X112906253Y-44069183D01*
X112815793Y-44031713D01*
X112717522Y-43966050D01*
X112717519Y-43966048D01*
X112633952Y-43882481D01*
X112612249Y-43850000D01*
X112568287Y-43784207D01*
X112523058Y-43675014D01*
X112523057Y-43675012D01*
X112500000Y-43559096D01*
X112500000Y-43440904D01*
X112523057Y-43324988D01*
X112537550Y-43290000D01*
X112568287Y-43215793D01*
X112633950Y-43117522D01*
X112633952Y-43117519D01*
X112717519Y-43033952D01*
X112717852Y-43033729D01*
X112815793Y-42968287D01*
X112924986Y-42923058D01*
X112924985Y-42923058D01*
X112924988Y-42923057D01*
X113040904Y-42900000D01*
X113159096Y-42900000D01*
X113275012Y-42923057D01*
X113275012Y-42923057D01*
G37*
G36*
X69760000Y-43910000D02*
X69140000Y-43910000D01*
X69140000Y-43290000D01*
X69760000Y-43290000D01*
X69760000Y-43910000D01*
X69760000Y-43910000D01*
G37*
G36*
X68860000Y-43910000D02*
X68240000Y-43910000D01*
X68240000Y-43290000D01*
X68860000Y-43290000D01*
X68860000Y-43910000D01*
X68860000Y-43910000D01*
G37*
G36*
X88200000Y-43650000D02*
X86700000Y-43650000D01*
X86700000Y-43350000D01*
X88200000Y-43350000D01*
X88200000Y-43650000D01*
X88200000Y-43650000D01*
G37*
G36*
X72800000Y-43650000D02*
X71300000Y-43650000D01*
X71300000Y-43350000D01*
X72800000Y-43350000D01*
X72800000Y-43650000D01*
X72800000Y-43650000D01*
G37*
G36*
X88200000Y-43150000D02*
X86700000Y-43150000D01*
X86700000Y-42850000D01*
X88200000Y-42850000D01*
X88200000Y-43150000D01*
X88200000Y-43150000D01*
G37*
G36*
X72800000Y-43150000D02*
X71300000Y-43150000D01*
X71300000Y-42850000D01*
X72800000Y-42850000D01*
X72800000Y-43150000D01*
X72800000Y-43150000D01*
G37*
G36*
X34274610Y-40548036D02*
X34502096Y-40642264D01*
X34706831Y-40779063D01*
X34880937Y-40953169D01*
X35017736Y-41157904D01*
X35111964Y-41385390D01*
X35160000Y-41626884D01*
X35160000Y-41873116D01*
X35111964Y-42114610D01*
X35017736Y-42342096D01*
X34880937Y-42546831D01*
X34706831Y-42720937D01*
X34502096Y-42857736D01*
X34274610Y-42951964D01*
X34033116Y-43000000D01*
X33786884Y-43000000D01*
X33545390Y-42951964D01*
X33317904Y-42857736D01*
X33113169Y-42720937D01*
X32939063Y-42546831D01*
X32802264Y-42342096D01*
X32708036Y-42114610D01*
X32660000Y-41873116D01*
X32660000Y-41626884D01*
X32708036Y-41385390D01*
X32802264Y-41157904D01*
X32939063Y-40953169D01*
X33113169Y-40779063D01*
X33317904Y-40642264D01*
X33545390Y-40548036D01*
X33786884Y-40500000D01*
X34033116Y-40500000D01*
X34274610Y-40548036D01*
X34274610Y-40548036D01*
G37*
G36*
X37274610Y-40548036D02*
X37502096Y-40642264D01*
X37706831Y-40779063D01*
X37880937Y-40953169D01*
X38017736Y-41157904D01*
X38111964Y-41385390D01*
X38160000Y-41626884D01*
X38160000Y-41873116D01*
X38111964Y-42114610D01*
X38017736Y-42342096D01*
X37880937Y-42546831D01*
X37706831Y-42720937D01*
X37502096Y-42857736D01*
X37274610Y-42951964D01*
X37033116Y-43000000D01*
X36786884Y-43000000D01*
X36545390Y-42951964D01*
X36317904Y-42857736D01*
X36113169Y-42720937D01*
X35939063Y-42546831D01*
X35802264Y-42342096D01*
X35708036Y-42114610D01*
X35660000Y-41873116D01*
X35660000Y-41626884D01*
X35708036Y-41385390D01*
X35802264Y-41157904D01*
X35939063Y-40953169D01*
X36113169Y-40779063D01*
X36317904Y-40642264D01*
X36545390Y-40548036D01*
X36786884Y-40500000D01*
X37033116Y-40500000D01*
X37274610Y-40548036D01*
X37274610Y-40548036D01*
G37*
G36*
X111233351Y-41230743D02*
X111378942Y-41291049D01*
X111467993Y-41350551D01*
X111509973Y-41378601D01*
X111621399Y-41490027D01*
X111621401Y-41490030D01*
X111708951Y-41621058D01*
X111708951Y-41621059D01*
X111769257Y-41766649D01*
X111800000Y-41921206D01*
X111800000Y-42078794D01*
X111785836Y-42150000D01*
X111769257Y-42233351D01*
X111708951Y-42378942D01*
X111621989Y-42509090D01*
X111621399Y-42509973D01*
X111509973Y-42621399D01*
X111509970Y-42621401D01*
X111378942Y-42708951D01*
X111233351Y-42769257D01*
X111078794Y-42800000D01*
X110921206Y-42800000D01*
X110766649Y-42769257D01*
X110621058Y-42708951D01*
X110490030Y-42621401D01*
X110490027Y-42621399D01*
X110378601Y-42509973D01*
X110378011Y-42509090D01*
X110291049Y-42378942D01*
X110230743Y-42233351D01*
X110214164Y-42150000D01*
X110200000Y-42078794D01*
X110200000Y-41921206D01*
X110230743Y-41766649D01*
X110291049Y-41621059D01*
X110291049Y-41621058D01*
X110378599Y-41490030D01*
X110378601Y-41490027D01*
X110490027Y-41378601D01*
X110532007Y-41350551D01*
X110621058Y-41291049D01*
X110766649Y-41230743D01*
X110921206Y-41200000D01*
X111078794Y-41200000D01*
X111233351Y-41230743D01*
X111233351Y-41230743D01*
G37*
G36*
X68860000Y-42710000D02*
X68240000Y-42710000D01*
X68240000Y-42090000D01*
X68860000Y-42090000D01*
X68860000Y-42710000D01*
X68860000Y-42710000D01*
G37*
G36*
X69760000Y-42710000D02*
X69140000Y-42710000D01*
X69140000Y-42090000D01*
X69760000Y-42090000D01*
X69760000Y-42710000D01*
X69760000Y-42710000D01*
G37*
G36*
X72800000Y-42650000D02*
X71300000Y-42650000D01*
X71300000Y-42350000D01*
X72800000Y-42350000D01*
X72800000Y-42650000D01*
X72800000Y-42650000D01*
G37*
G36*
X88200000Y-42650000D02*
X86700000Y-42650000D01*
X86700000Y-42350000D01*
X88200000Y-42350000D01*
X88200000Y-42650000D01*
X88200000Y-42650000D01*
G37*
G36*
X109260000Y-42310000D02*
X108640000Y-42310000D01*
X108640000Y-41690000D01*
X109260000Y-41690000D01*
X109260000Y-42310000D01*
X109260000Y-42310000D01*
G37*
G36*
X108360000Y-42310000D02*
X107740000Y-42310000D01*
X107740000Y-41690000D01*
X108360000Y-41690000D01*
X108360000Y-42310000D01*
X108360000Y-42310000D01*
G37*
G36*
X72800000Y-42150000D02*
X71300000Y-42150000D01*
X71300000Y-41850000D01*
X72800000Y-41850000D01*
X72800000Y-42150000D01*
X72800000Y-42150000D01*
G37*
G36*
X88200000Y-42150000D02*
X86700000Y-42150000D01*
X86700000Y-41850000D01*
X88200000Y-41850000D01*
X88200000Y-42150000D01*
X88200000Y-42150000D01*
G37*
G36*
X72800000Y-41650000D02*
X71300000Y-41650000D01*
X71300000Y-41350000D01*
X72800000Y-41350000D01*
X72800000Y-41650000D01*
X72800000Y-41650000D01*
G37*
G36*
X88200000Y-41650000D02*
X86700000Y-41650000D01*
X86700000Y-41350000D01*
X88200000Y-41350000D01*
X88200000Y-41650000D01*
X88200000Y-41650000D01*
G37*
G36*
X26444534Y-38534566D02*
X26721888Y-38649450D01*
X26971493Y-38816230D01*
X27183770Y-39028507D01*
X27350550Y-39278112D01*
X27465434Y-39555466D01*
X27524000Y-39849899D01*
X27524000Y-40150101D01*
X27465434Y-40444534D01*
X27350550Y-40721888D01*
X27183770Y-40971493D01*
X26971493Y-41183770D01*
X26721888Y-41350550D01*
X26444534Y-41465434D01*
X26150101Y-41524000D01*
X25849899Y-41524000D01*
X25555466Y-41465434D01*
X25278112Y-41350550D01*
X25028507Y-41183770D01*
X24816230Y-40971493D01*
X24649450Y-40721888D01*
X24534566Y-40444534D01*
X24476000Y-40150101D01*
X24476000Y-39849899D01*
X24534566Y-39555466D01*
X24649450Y-39278112D01*
X24816230Y-39028507D01*
X25028507Y-38816230D01*
X25278112Y-38649450D01*
X25555466Y-38534566D01*
X25849899Y-38476000D01*
X26150101Y-38476000D01*
X26444534Y-38534566D01*
X26444534Y-38534566D01*
G37*
G36*
X68860000Y-41510000D02*
X68240000Y-41510000D01*
X68240000Y-40890000D01*
X68860000Y-40890000D01*
X68860000Y-41510000D01*
X68860000Y-41510000D01*
G37*
G36*
X69760000Y-41510000D02*
X69140000Y-41510000D01*
X69140000Y-40890000D01*
X69760000Y-40890000D01*
X69760000Y-41510000D01*
X69760000Y-41510000D01*
G37*
G36*
X67360000Y-41310000D02*
X66740000Y-41310000D01*
X66740000Y-40690000D01*
X67360000Y-40690000D01*
X67360000Y-41310000D01*
X67360000Y-41310000D01*
G37*
G36*
X66460000Y-41310000D02*
X65840000Y-41310000D01*
X65840000Y-40690000D01*
X66460000Y-40690000D01*
X66460000Y-41310000D01*
X66460000Y-41310000D01*
G37*
G36*
X72800000Y-41150000D02*
X71300000Y-41150000D01*
X71300000Y-40850000D01*
X72800000Y-40850000D01*
X72800000Y-41150000D01*
X72800000Y-41150000D01*
G37*
G36*
X88200000Y-41150000D02*
X86700000Y-41150000D01*
X86700000Y-40850000D01*
X88200000Y-40850000D01*
X88200000Y-41150000D01*
X88200000Y-41150000D01*
G37*
G36*
X111184052Y-39220937D02*
X111233351Y-39230743D01*
X111378942Y-39291049D01*
X111478745Y-39357735D01*
X111509973Y-39378601D01*
X111621399Y-39490027D01*
X111621401Y-39490030D01*
X111708951Y-39621058D01*
X111769257Y-39766649D01*
X111800000Y-39921207D01*
X111800000Y-40078793D01*
X111769257Y-40233351D01*
X111708951Y-40378942D01*
X111665124Y-40444534D01*
X111621399Y-40509973D01*
X111509973Y-40621399D01*
X111509970Y-40621401D01*
X111378942Y-40708951D01*
X111347709Y-40721888D01*
X111233351Y-40769257D01*
X111078794Y-40800000D01*
X110921206Y-40800000D01*
X110766649Y-40769257D01*
X110652291Y-40721888D01*
X110621058Y-40708951D01*
X110490030Y-40621401D01*
X110490027Y-40621399D01*
X110378601Y-40509973D01*
X110334876Y-40444534D01*
X110291049Y-40378942D01*
X110230743Y-40233351D01*
X110200000Y-40078793D01*
X110200000Y-39921207D01*
X110230743Y-39766649D01*
X110291049Y-39621058D01*
X110378599Y-39490030D01*
X110378601Y-39490027D01*
X110490027Y-39378601D01*
X110521255Y-39357735D01*
X110621058Y-39291049D01*
X110766649Y-39230743D01*
X110815948Y-39220937D01*
X110921206Y-39200000D01*
X111078794Y-39200000D01*
X111184052Y-39220937D01*
X111184052Y-39220937D01*
G37*
G36*
X88200000Y-40650000D02*
X86700000Y-40650000D01*
X86700000Y-40350000D01*
X88200000Y-40350000D01*
X88200000Y-40650000D01*
X88200000Y-40650000D01*
G37*
G36*
X72800000Y-40650000D02*
X71300000Y-40650000D01*
X71300000Y-40350000D01*
X72800000Y-40350000D01*
X72800000Y-40650000D01*
X72800000Y-40650000D01*
G37*
G36*
X109260000Y-40310000D02*
X108640000Y-40310000D01*
X108640000Y-39690000D01*
X109260000Y-39690000D01*
X109260000Y-40310000D01*
X109260000Y-40310000D01*
G37*
G36*
X108360000Y-40310000D02*
X107740000Y-40310000D01*
X107740000Y-39690000D01*
X108360000Y-39690000D01*
X108360000Y-40310000D01*
X108360000Y-40310000D01*
G37*
G36*
X94275000Y-40300000D02*
X93325000Y-40300000D01*
X93325000Y-39300000D01*
X94275000Y-39300000D01*
X94275000Y-40300000D01*
X94275000Y-40300000D01*
G37*
G36*
X90775000Y-40300000D02*
X89825000Y-40300000D01*
X89825000Y-39300000D01*
X90775000Y-39300000D01*
X90775000Y-40300000D01*
X90775000Y-40300000D01*
G37*
G36*
X92375000Y-40300000D02*
X91425000Y-40300000D01*
X91425000Y-39300000D01*
X92375000Y-39300000D01*
X92375000Y-40300000D01*
X92375000Y-40300000D01*
G37*
G36*
X95875000Y-40300000D02*
X94925000Y-40300000D01*
X94925000Y-39300000D01*
X95875000Y-39300000D01*
X95875000Y-40300000D01*
X95875000Y-40300000D01*
G37*
G36*
X88200000Y-40150000D02*
X86700000Y-40150000D01*
X86700000Y-39850000D01*
X88200000Y-39850000D01*
X88200000Y-40150000D01*
X88200000Y-40150000D01*
G37*
G36*
X72800000Y-40150000D02*
X71300000Y-40150000D01*
X71300000Y-39850000D01*
X72800000Y-39850000D01*
X72800000Y-40150000D01*
X72800000Y-40150000D01*
G37*
G36*
X66350000Y-40000000D02*
X65400000Y-40000000D01*
X65400000Y-39150000D01*
X66350000Y-39150000D01*
X66350000Y-40000000D01*
X66350000Y-40000000D01*
G37*
G36*
X67800000Y-40000000D02*
X66850000Y-40000000D01*
X66850000Y-39150000D01*
X67800000Y-39150000D01*
X67800000Y-40000000D01*
X67800000Y-40000000D01*
G37*
G36*
X64710000Y-39960000D02*
X64090000Y-39960000D01*
X64090000Y-39340000D01*
X64710000Y-39340000D01*
X64710000Y-39960000D01*
X64710000Y-39960000D01*
G37*
G36*
X72800000Y-39650000D02*
X71300000Y-39650000D01*
X71300000Y-39350000D01*
X72800000Y-39350000D01*
X72800000Y-39650000D01*
X72800000Y-39650000D01*
G37*
G36*
X88200000Y-39650000D02*
X86700000Y-39650000D01*
X86700000Y-39350000D01*
X88200000Y-39350000D01*
X88200000Y-39650000D01*
X88200000Y-39650000D01*
G37*
G36*
X69110000Y-39560000D02*
X68490000Y-39560000D01*
X68490000Y-38940000D01*
X69110000Y-38940000D01*
X69110000Y-39560000D01*
X69110000Y-39560000D01*
G37*
G36*
X37274610Y-37048036D02*
X37502096Y-37142264D01*
X37706831Y-37279063D01*
X37880937Y-37453169D01*
X38017736Y-37657904D01*
X38111964Y-37885390D01*
X38160000Y-38126884D01*
X38160000Y-38373116D01*
X38111964Y-38614610D01*
X38017736Y-38842096D01*
X37880937Y-39046831D01*
X37706831Y-39220937D01*
X37502096Y-39357736D01*
X37274610Y-39451964D01*
X37033116Y-39500000D01*
X36786884Y-39500000D01*
X36545390Y-39451964D01*
X36317904Y-39357736D01*
X36113169Y-39220937D01*
X35939063Y-39046831D01*
X35802264Y-38842096D01*
X35708036Y-38614610D01*
X35660000Y-38373116D01*
X35660000Y-38126884D01*
X35708036Y-37885390D01*
X35802264Y-37657904D01*
X35939063Y-37453169D01*
X36113169Y-37279063D01*
X36317904Y-37142264D01*
X36545390Y-37048036D01*
X36786884Y-37000000D01*
X37033116Y-37000000D01*
X37274610Y-37048036D01*
X37274610Y-37048036D01*
G37*
G36*
X34274610Y-37048036D02*
X34502096Y-37142264D01*
X34706831Y-37279063D01*
X34880937Y-37453169D01*
X35017736Y-37657904D01*
X35111964Y-37885390D01*
X35160000Y-38126884D01*
X35160000Y-38373116D01*
X35111964Y-38614610D01*
X35017736Y-38842096D01*
X34880937Y-39046831D01*
X34706831Y-39220937D01*
X34502096Y-39357736D01*
X34274610Y-39451964D01*
X34033116Y-39500000D01*
X33786884Y-39500000D01*
X33545390Y-39451964D01*
X33317904Y-39357736D01*
X33113169Y-39220937D01*
X32939063Y-39046831D01*
X32802264Y-38842096D01*
X32708036Y-38614610D01*
X32660000Y-38373116D01*
X32660000Y-38126884D01*
X32708036Y-37885390D01*
X32802264Y-37657904D01*
X32939063Y-37453169D01*
X33113169Y-37279063D01*
X33317904Y-37142264D01*
X33545390Y-37048036D01*
X33786884Y-37000000D01*
X34033116Y-37000000D01*
X34274610Y-37048036D01*
X34274610Y-37048036D01*
G37*
G36*
X88200000Y-39150000D02*
X86700000Y-39150000D01*
X86700000Y-38850000D01*
X88200000Y-38850000D01*
X88200000Y-39150000D01*
X88200000Y-39150000D01*
G37*
G36*
X72800000Y-39150000D02*
X71300000Y-39150000D01*
X71300000Y-38850000D01*
X72800000Y-38850000D01*
X72800000Y-39150000D01*
X72800000Y-39150000D01*
G37*
G36*
X64710000Y-39060000D02*
X64090000Y-39060000D01*
X64090000Y-38440000D01*
X64710000Y-38440000D01*
X64710000Y-39060000D01*
X64710000Y-39060000D01*
G37*
G36*
X60123745Y-38283363D02*
X59451993Y-38955115D01*
X58744885Y-38248007D01*
X59416637Y-37576255D01*
X60123745Y-38283363D01*
X60123745Y-38283363D01*
G37*
G36*
X66350000Y-38850000D02*
X65400000Y-38850000D01*
X65400000Y-38000000D01*
X66350000Y-38000000D01*
X66350000Y-38850000D01*
X66350000Y-38850000D01*
G37*
G36*
X67800000Y-38850000D02*
X66850000Y-38850000D01*
X66850000Y-38000000D01*
X67800000Y-38000000D01*
X67800000Y-38850000D01*
X67800000Y-38850000D01*
G37*
G36*
X111233351Y-37230743D02*
X111378942Y-37291049D01*
X111509090Y-37378011D01*
X111509973Y-37378601D01*
X111621399Y-37490027D01*
X111621401Y-37490030D01*
X111708951Y-37621058D01*
X111724213Y-37657904D01*
X111769257Y-37766649D01*
X111792876Y-37885389D01*
X111800000Y-37921207D01*
X111800000Y-38078793D01*
X111769257Y-38233351D01*
X111708951Y-38378942D01*
X111668153Y-38440000D01*
X111621399Y-38509973D01*
X111509973Y-38621399D01*
X111509970Y-38621401D01*
X111378942Y-38708951D01*
X111233351Y-38769257D01*
X111078794Y-38800000D01*
X110921206Y-38800000D01*
X110766649Y-38769257D01*
X110621058Y-38708951D01*
X110490030Y-38621401D01*
X110490027Y-38621399D01*
X110378601Y-38509973D01*
X110331847Y-38440000D01*
X110291049Y-38378942D01*
X110230743Y-38233351D01*
X110200000Y-38078793D01*
X110200000Y-37921207D01*
X110207125Y-37885389D01*
X110230743Y-37766649D01*
X110275787Y-37657904D01*
X110291049Y-37621058D01*
X110378599Y-37490030D01*
X110378601Y-37490027D01*
X110490027Y-37378601D01*
X110490910Y-37378011D01*
X110621058Y-37291049D01*
X110766649Y-37230743D01*
X110921206Y-37200000D01*
X111078794Y-37200000D01*
X111233351Y-37230743D01*
X111233351Y-37230743D01*
G37*
G36*
X69110000Y-38660000D02*
X68490000Y-38660000D01*
X68490000Y-38040000D01*
X69110000Y-38040000D01*
X69110000Y-38660000D01*
X69110000Y-38660000D01*
G37*
G36*
X88200000Y-38650000D02*
X86700000Y-38650000D01*
X86700000Y-38350000D01*
X88200000Y-38350000D01*
X88200000Y-38650000D01*
X88200000Y-38650000D01*
G37*
G36*
X72800000Y-38650000D02*
X71300000Y-38650000D01*
X71300000Y-38350000D01*
X72800000Y-38350000D01*
X72800000Y-38650000D01*
X72800000Y-38650000D01*
G37*
G36*
X51537532Y-35467643D02*
X51537535Y-35467644D01*
X51537534Y-35467644D01*
X51810517Y-35580717D01*
X51950768Y-35674430D01*
X52056197Y-35744875D01*
X52265125Y-35953803D01*
X52318677Y-36033950D01*
X52429283Y-36199483D01*
X52489907Y-36345843D01*
X52542357Y-36472468D01*
X52600000Y-36762261D01*
X52600000Y-37057739D01*
X52542357Y-37347532D01*
X52529488Y-37378601D01*
X52429283Y-37620517D01*
X52335570Y-37760768D01*
X52265125Y-37866197D01*
X52056197Y-38075125D01*
X51978733Y-38126884D01*
X51810517Y-38239283D01*
X51584369Y-38332956D01*
X51537532Y-38352357D01*
X51247739Y-38410000D01*
X50952261Y-38410000D01*
X50662468Y-38352357D01*
X50615631Y-38332956D01*
X50389483Y-38239283D01*
X50221267Y-38126884D01*
X50143803Y-38075125D01*
X49934875Y-37866197D01*
X49864430Y-37760768D01*
X49770717Y-37620517D01*
X49670512Y-37378601D01*
X49657643Y-37347532D01*
X49600000Y-37057739D01*
X49600000Y-36762261D01*
X49657643Y-36472468D01*
X49710093Y-36345843D01*
X49770717Y-36199483D01*
X49881323Y-36033950D01*
X49934875Y-35953803D01*
X50143803Y-35744875D01*
X50249232Y-35674430D01*
X50389483Y-35580717D01*
X50662466Y-35467644D01*
X50662465Y-35467644D01*
X50662468Y-35467643D01*
X50952261Y-35410000D01*
X51247739Y-35410000D01*
X51537532Y-35467643D01*
X51537532Y-35467643D01*
G37*
G36*
X44037532Y-35467643D02*
X44037535Y-35467644D01*
X44037534Y-35467644D01*
X44310517Y-35580717D01*
X44450768Y-35674430D01*
X44556197Y-35744875D01*
X44765125Y-35953803D01*
X44818677Y-36033950D01*
X44929283Y-36199483D01*
X44989907Y-36345843D01*
X45042357Y-36472468D01*
X45100000Y-36762261D01*
X45100000Y-37057739D01*
X45042357Y-37347532D01*
X45029488Y-37378601D01*
X44929283Y-37620517D01*
X44835570Y-37760768D01*
X44765125Y-37866197D01*
X44556197Y-38075125D01*
X44478733Y-38126884D01*
X44310517Y-38239283D01*
X44084369Y-38332956D01*
X44037532Y-38352357D01*
X43747739Y-38410000D01*
X43452261Y-38410000D01*
X43162468Y-38352357D01*
X43115631Y-38332956D01*
X42889483Y-38239283D01*
X42721267Y-38126884D01*
X42643803Y-38075125D01*
X42434875Y-37866197D01*
X42364430Y-37760768D01*
X42270717Y-37620517D01*
X42170512Y-37378601D01*
X42157643Y-37347532D01*
X42100000Y-37057739D01*
X42100000Y-36762261D01*
X42157643Y-36472468D01*
X42210093Y-36345843D01*
X42270717Y-36199483D01*
X42381323Y-36033950D01*
X42434875Y-35953803D01*
X42643803Y-35744875D01*
X42749232Y-35674430D01*
X42889483Y-35580717D01*
X43162466Y-35467644D01*
X43162465Y-35467644D01*
X43162468Y-35467643D01*
X43452261Y-35410000D01*
X43747739Y-35410000D01*
X44037532Y-35467643D01*
X44037532Y-35467643D01*
G37*
G36*
X88200000Y-38150000D02*
X86700000Y-38150000D01*
X86700000Y-37850000D01*
X88200000Y-37850000D01*
X88200000Y-38150000D01*
X88200000Y-38150000D01*
G37*
G36*
X72800000Y-38150000D02*
X71300000Y-38150000D01*
X71300000Y-37850000D01*
X72800000Y-37850000D01*
X72800000Y-38150000D01*
X72800000Y-38150000D01*
G37*
G36*
X61255115Y-37151993D02*
X60583363Y-37823745D01*
X59876255Y-37116637D01*
X60548007Y-36444885D01*
X61255115Y-37151993D01*
X61255115Y-37151993D01*
G37*
G36*
X72800000Y-37650000D02*
X71300000Y-37650000D01*
X71300000Y-37350000D01*
X72800000Y-37350000D01*
X72800000Y-37650000D01*
X72800000Y-37650000D01*
G37*
G36*
X88200000Y-37650000D02*
X86700000Y-37650000D01*
X86700000Y-37350000D01*
X88200000Y-37350000D01*
X88200000Y-37650000D01*
X88200000Y-37650000D01*
G37*
G36*
X69760000Y-37310000D02*
X69140000Y-37310000D01*
X69140000Y-36690000D01*
X69760000Y-36690000D01*
X69760000Y-37310000D01*
X69760000Y-37310000D01*
G37*
G36*
X68860000Y-37310000D02*
X68240000Y-37310000D01*
X68240000Y-36690000D01*
X68860000Y-36690000D01*
X68860000Y-37310000D01*
X68860000Y-37310000D01*
G37*
G36*
X88200000Y-37150000D02*
X86700000Y-37150000D01*
X86700000Y-36850000D01*
X88200000Y-36850000D01*
X88200000Y-37150000D01*
X88200000Y-37150000D01*
G37*
G36*
X72800000Y-37150000D02*
X71300000Y-37150000D01*
X71300000Y-36850000D01*
X72800000Y-36850000D01*
X72800000Y-37150000D01*
X72800000Y-37150000D01*
G37*
G36*
X113275012Y-35923057D02*
X113275015Y-35923058D01*
X113275014Y-35923058D01*
X113384207Y-35968287D01*
X113482148Y-36033729D01*
X113482481Y-36033952D01*
X113566048Y-36117519D01*
X113566050Y-36117522D01*
X113631713Y-36215793D01*
X113645570Y-36249247D01*
X113676943Y-36324988D01*
X113700000Y-36440904D01*
X113700000Y-36559096D01*
X113676943Y-36675012D01*
X113676942Y-36675014D01*
X113631713Y-36784207D01*
X113587751Y-36850000D01*
X113566048Y-36882481D01*
X113482481Y-36966048D01*
X113482478Y-36966050D01*
X113384207Y-37031713D01*
X113321379Y-37057737D01*
X113275012Y-37076943D01*
X113159096Y-37100000D01*
X113040904Y-37100000D01*
X112924988Y-37076943D01*
X112878621Y-37057737D01*
X112815793Y-37031713D01*
X112717522Y-36966050D01*
X112717519Y-36966048D01*
X112633952Y-36882481D01*
X112612249Y-36850000D01*
X112568287Y-36784207D01*
X112523058Y-36675014D01*
X112523057Y-36675012D01*
X112500000Y-36559096D01*
X112500000Y-36440904D01*
X112523057Y-36324988D01*
X112554430Y-36249247D01*
X112568287Y-36215793D01*
X112633950Y-36117522D01*
X112633952Y-36117519D01*
X112717519Y-36033952D01*
X112717852Y-36033729D01*
X112815793Y-35968287D01*
X112924986Y-35923058D01*
X112924985Y-35923058D01*
X112924988Y-35923057D01*
X113040904Y-35900000D01*
X113159096Y-35900000D01*
X113275012Y-35923057D01*
X113275012Y-35923057D01*
G37*
G36*
X62545843Y-35719214D02*
X62545846Y-35719215D01*
X62545845Y-35719215D01*
X62636839Y-35756906D01*
X62691311Y-35793303D01*
X62718733Y-35811626D01*
X62788374Y-35881267D01*
X62788375Y-35881269D01*
X62843094Y-35963161D01*
X62843094Y-35963162D01*
X62880786Y-36054157D01*
X62900000Y-36150753D01*
X62900000Y-36249247D01*
X62880786Y-36345843D01*
X62880785Y-36345845D01*
X62843094Y-36436839D01*
X62819287Y-36472468D01*
X62788374Y-36518733D01*
X62718733Y-36588374D01*
X62691311Y-36606697D01*
X62636839Y-36643094D01*
X62572495Y-36669746D01*
X62545843Y-36680786D01*
X62449247Y-36700000D01*
X62350753Y-36700000D01*
X62254157Y-36680786D01*
X62227505Y-36669746D01*
X62163161Y-36643094D01*
X62108689Y-36606697D01*
X62081267Y-36588374D01*
X62011626Y-36518733D01*
X61980713Y-36472468D01*
X61956906Y-36436839D01*
X61919215Y-36345845D01*
X61919214Y-36345843D01*
X61900000Y-36249247D01*
X61900000Y-36150753D01*
X61919214Y-36054157D01*
X61956906Y-35963162D01*
X61956906Y-35963161D01*
X62011625Y-35881269D01*
X62011626Y-35881267D01*
X62081267Y-35811626D01*
X62108689Y-35793303D01*
X62163161Y-35756906D01*
X62254155Y-35719215D01*
X62254154Y-35719215D01*
X62254157Y-35719214D01*
X62350753Y-35700000D01*
X62449247Y-35700000D01*
X62545843Y-35719214D01*
X62545843Y-35719214D01*
G37*
G36*
X57523745Y-35983363D02*
X56851993Y-36655115D01*
X56144885Y-35948007D01*
X56816637Y-35276255D01*
X57523745Y-35983363D01*
X57523745Y-35983363D01*
G37*
G36*
X72800000Y-36650000D02*
X71300000Y-36650000D01*
X71300000Y-36350000D01*
X72800000Y-36350000D01*
X72800000Y-36650000D01*
X72800000Y-36650000D01*
G37*
G36*
X88200000Y-36650000D02*
X86700000Y-36650000D01*
X86700000Y-36350000D01*
X88200000Y-36350000D01*
X88200000Y-36650000D01*
X88200000Y-36650000D01*
G37*
G36*
X88200000Y-36150000D02*
X86700000Y-36150000D01*
X86700000Y-35850000D01*
X88200000Y-35850000D01*
X88200000Y-36150000D01*
X88200000Y-36150000D01*
G37*
G36*
X72800000Y-36150000D02*
X71300000Y-36150000D01*
X71300000Y-35850000D01*
X72800000Y-35850000D01*
X72800000Y-36150000D01*
X72800000Y-36150000D01*
G37*
G36*
X69760000Y-35810000D02*
X69140000Y-35810000D01*
X69140000Y-35190000D01*
X69760000Y-35190000D01*
X69760000Y-35810000D01*
X69760000Y-35810000D01*
G37*
G36*
X68860000Y-35810000D02*
X68240000Y-35810000D01*
X68240000Y-35190000D01*
X68860000Y-35190000D01*
X68860000Y-35810000D01*
X68860000Y-35810000D01*
G37*
G36*
X100560000Y-35710000D02*
X99940000Y-35710000D01*
X99940000Y-35090000D01*
X100560000Y-35090000D01*
X100560000Y-35710000D01*
X100560000Y-35710000D01*
G37*
G36*
X101460000Y-35710000D02*
X100840000Y-35710000D01*
X100840000Y-35090000D01*
X101460000Y-35090000D01*
X101460000Y-35710000D01*
X101460000Y-35710000D01*
G37*
G36*
X72800000Y-35650000D02*
X71300000Y-35650000D01*
X71300000Y-35350000D01*
X72800000Y-35350000D01*
X72800000Y-35650000D01*
X72800000Y-35650000D01*
G37*
G36*
X88200000Y-35650000D02*
X86700000Y-35650000D01*
X86700000Y-35350000D01*
X88200000Y-35350000D01*
X88200000Y-35650000D01*
X88200000Y-35650000D01*
G37*
G36*
X58655115Y-34851993D02*
X57983363Y-35523745D01*
X57276255Y-34816637D01*
X57948007Y-34144885D01*
X58655115Y-34851993D01*
X58655115Y-34851993D01*
G37*
G36*
X72800000Y-35150000D02*
X71300000Y-35150000D01*
X71300000Y-34850000D01*
X72800000Y-34850000D01*
X72800000Y-35150000D01*
X72800000Y-35150000D01*
G37*
G36*
X88200000Y-35150000D02*
X86700000Y-35150000D01*
X86700000Y-34850000D01*
X88200000Y-34850000D01*
X88200000Y-35150000D01*
X88200000Y-35150000D01*
G37*
G36*
X118600000Y-34810000D02*
X115800000Y-34810000D01*
X115800000Y-33950000D01*
X118600000Y-33950000D01*
X118600000Y-34810000D01*
X118600000Y-34810000D01*
G37*
G36*
X108100000Y-34810000D02*
X104770000Y-34810000D01*
X104770000Y-34110000D01*
X108100000Y-34110000D01*
X108100000Y-34810000D01*
X108100000Y-34810000D01*
G37*
G36*
X91360000Y-34710000D02*
X90740000Y-34710000D01*
X90740000Y-34090000D01*
X91360000Y-34090000D01*
X91360000Y-34710000D01*
X91360000Y-34710000D01*
G37*
G36*
X90460000Y-34710000D02*
X89840000Y-34710000D01*
X89840000Y-34090000D01*
X90460000Y-34090000D01*
X90460000Y-34710000D01*
X90460000Y-34710000D01*
G37*
G36*
X72800000Y-34650000D02*
X71300000Y-34650000D01*
X71300000Y-34350000D01*
X72800000Y-34350000D01*
X72800000Y-34650000D01*
X72800000Y-34650000D01*
G37*
G36*
X88200000Y-34650000D02*
X86700000Y-34650000D01*
X86700000Y-34350000D01*
X88200000Y-34350000D01*
X88200000Y-34650000D01*
X88200000Y-34650000D01*
G37*
G36*
X56145843Y-33519214D02*
X56145846Y-33519215D01*
X56145845Y-33519215D01*
X56236839Y-33556906D01*
X56291311Y-33593303D01*
X56318733Y-33611626D01*
X56388374Y-33681267D01*
X56388375Y-33681269D01*
X56443094Y-33763161D01*
X56469746Y-33827505D01*
X56480786Y-33854157D01*
X56500000Y-33950753D01*
X56500000Y-34049247D01*
X56480786Y-34145843D01*
X56480785Y-34145845D01*
X56443094Y-34236839D01*
X56406697Y-34291311D01*
X56388374Y-34318733D01*
X56318733Y-34388374D01*
X56291311Y-34406697D01*
X56236839Y-34443094D01*
X56220166Y-34450000D01*
X56145843Y-34480786D01*
X56049247Y-34500000D01*
X55950753Y-34500000D01*
X55854157Y-34480786D01*
X55779834Y-34450000D01*
X55763161Y-34443094D01*
X55708689Y-34406697D01*
X55681267Y-34388374D01*
X55611626Y-34318733D01*
X55593303Y-34291311D01*
X55556906Y-34236839D01*
X55519215Y-34145845D01*
X55519214Y-34145843D01*
X55500000Y-34049247D01*
X55500000Y-33950753D01*
X55519214Y-33854157D01*
X55530254Y-33827505D01*
X55556906Y-33763161D01*
X55611625Y-33681269D01*
X55611626Y-33681267D01*
X55681267Y-33611626D01*
X55708689Y-33593303D01*
X55763161Y-33556906D01*
X55854155Y-33519215D01*
X55854154Y-33519215D01*
X55854157Y-33519214D01*
X55950753Y-33500000D01*
X56049247Y-33500000D01*
X56145843Y-33519214D01*
X56145843Y-33519214D01*
G37*
G36*
X101775000Y-34450000D02*
X101025000Y-34450000D01*
X101025000Y-33550000D01*
X101775000Y-33550000D01*
X101775000Y-34450000D01*
X101775000Y-34450000D01*
G37*
G36*
X100375000Y-34450000D02*
X99625000Y-34450000D01*
X99625000Y-33550000D01*
X100375000Y-33550000D01*
X100375000Y-34450000D01*
X100375000Y-34450000D01*
G37*
G36*
X72800000Y-34150000D02*
X71300000Y-34150000D01*
X71300000Y-33850000D01*
X72800000Y-33850000D01*
X72800000Y-34150000D01*
X72800000Y-34150000D01*
G37*
G36*
X88200000Y-34150000D02*
X86700000Y-34150000D01*
X86700000Y-33850000D01*
X88200000Y-33850000D01*
X88200000Y-34150000D01*
X88200000Y-34150000D01*
G37*
G36*
X27075012Y-32923057D02*
X27075015Y-32923058D01*
X27075014Y-32923058D01*
X27184207Y-32968287D01*
X27282148Y-33033729D01*
X27282481Y-33033952D01*
X27366048Y-33117519D01*
X27366050Y-33117522D01*
X27431713Y-33215793D01*
X27469183Y-33306253D01*
X27476943Y-33324988D01*
X27500000Y-33440904D01*
X27500000Y-33559096D01*
X27476943Y-33675012D01*
X27476942Y-33675014D01*
X27431713Y-33784207D01*
X27366271Y-33882148D01*
X27366048Y-33882481D01*
X27282481Y-33966048D01*
X27282478Y-33966050D01*
X27184207Y-34031713D01*
X27093747Y-34069183D01*
X27075012Y-34076943D01*
X26959096Y-34100000D01*
X26840904Y-34100000D01*
X26724988Y-34076943D01*
X26706253Y-34069183D01*
X26615793Y-34031713D01*
X26517522Y-33966050D01*
X26517519Y-33966048D01*
X26433952Y-33882481D01*
X26433729Y-33882148D01*
X26368287Y-33784207D01*
X26323058Y-33675014D01*
X26323057Y-33675012D01*
X26300000Y-33559096D01*
X26300000Y-33440904D01*
X26323057Y-33324988D01*
X26330817Y-33306253D01*
X26368287Y-33215793D01*
X26433950Y-33117522D01*
X26433952Y-33117519D01*
X26517519Y-33033952D01*
X26517852Y-33033729D01*
X26615793Y-32968287D01*
X26724986Y-32923058D01*
X26724985Y-32923058D01*
X26724988Y-32923057D01*
X26840904Y-32900000D01*
X26959096Y-32900000D01*
X27075012Y-32923057D01*
X27075012Y-32923057D01*
G37*
G36*
X72800000Y-33650000D02*
X71300000Y-33650000D01*
X71300000Y-33350000D01*
X72800000Y-33350000D01*
X72800000Y-33650000D01*
X72800000Y-33650000D01*
G37*
G36*
X88200000Y-33650000D02*
X86700000Y-33650000D01*
X86700000Y-33350000D01*
X88200000Y-33350000D01*
X88200000Y-33650000D01*
X88200000Y-33650000D01*
G37*
G36*
X118250000Y-33550000D02*
X117150000Y-33550000D01*
X117150000Y-32850000D01*
X118250000Y-32850000D01*
X118250000Y-33550000D01*
X118250000Y-33550000D01*
G37*
G36*
X48650000Y-33400000D02*
X48050000Y-33400000D01*
X48050000Y-32400000D01*
X48650000Y-32400000D01*
X48650000Y-33400000D01*
X48650000Y-33400000D01*
G37*
G36*
X72800000Y-33150000D02*
X71300000Y-33150000D01*
X71300000Y-32850000D01*
X72800000Y-32850000D01*
X72800000Y-33150000D01*
X72800000Y-33150000D01*
G37*
G36*
X88200000Y-33150000D02*
X86700000Y-33150000D01*
X86700000Y-32850000D01*
X88200000Y-32850000D01*
X88200000Y-33150000D01*
X88200000Y-33150000D01*
G37*
G36*
X91360000Y-32910000D02*
X90740000Y-32910000D01*
X90740000Y-32290000D01*
X91360000Y-32290000D01*
X91360000Y-32910000D01*
X91360000Y-32910000D01*
G37*
G36*
X90460000Y-32910000D02*
X89840000Y-32910000D01*
X89840000Y-32290000D01*
X90460000Y-32290000D01*
X90460000Y-32910000D01*
X90460000Y-32910000D01*
G37*
G36*
X46080000Y-32860000D02*
X45170000Y-32860000D01*
X45170000Y-31640000D01*
X46080000Y-31640000D01*
X46080000Y-32860000D01*
X46080000Y-32860000D01*
G37*
G36*
X42810000Y-32860000D02*
X41900000Y-32860000D01*
X41900000Y-31640000D01*
X42810000Y-31640000D01*
X42810000Y-32860000D01*
X42810000Y-32860000D01*
G37*
G36*
X29233351Y-31230743D02*
X29378942Y-31291049D01*
X29509090Y-31378011D01*
X29509973Y-31378601D01*
X29621399Y-31490027D01*
X29621401Y-31490030D01*
X29708951Y-31621058D01*
X29769257Y-31766649D01*
X29800000Y-31921207D01*
X29800000Y-32078793D01*
X29769257Y-32233351D01*
X29708951Y-32378942D01*
X29621989Y-32509090D01*
X29621399Y-32509973D01*
X29509973Y-32621399D01*
X29509970Y-32621401D01*
X29378942Y-32708951D01*
X29340196Y-32725000D01*
X29233351Y-32769257D01*
X29078794Y-32800000D01*
X28921206Y-32800000D01*
X28766649Y-32769257D01*
X28659804Y-32725000D01*
X28621058Y-32708951D01*
X28490030Y-32621401D01*
X28490027Y-32621399D01*
X28378601Y-32509973D01*
X28378011Y-32509090D01*
X28291049Y-32378942D01*
X28230743Y-32233351D01*
X28200000Y-32078793D01*
X28200000Y-31921207D01*
X28230743Y-31766649D01*
X28291049Y-31621058D01*
X28378599Y-31490030D01*
X28378601Y-31490027D01*
X28490027Y-31378601D01*
X28490910Y-31378011D01*
X28621058Y-31291049D01*
X28766649Y-31230743D01*
X28921206Y-31200000D01*
X29078794Y-31200000D01*
X29233351Y-31230743D01*
X29233351Y-31230743D01*
G37*
G36*
X51850000Y-32725000D02*
X50850000Y-32725000D01*
X50850000Y-31775000D01*
X51850000Y-31775000D01*
X51850000Y-32725000D01*
X51850000Y-32725000D01*
G37*
G36*
X53850000Y-32725000D02*
X52850000Y-32725000D01*
X52850000Y-31775000D01*
X53850000Y-31775000D01*
X53850000Y-32725000D01*
X53850000Y-32725000D01*
G37*
G36*
X118250000Y-32450000D02*
X117150000Y-32450000D01*
X117150000Y-31750000D01*
X118250000Y-31750000D01*
X118250000Y-32450000D01*
X118250000Y-32450000D01*
G37*
G36*
X82400000Y-32050000D02*
X82100000Y-32050000D01*
X82100000Y-30550000D01*
X82400000Y-30550000D01*
X82400000Y-32050000D01*
X82400000Y-32050000D01*
G37*
G36*
X82900000Y-32050000D02*
X82600000Y-32050000D01*
X82600000Y-30550000D01*
X82900000Y-30550000D01*
X82900000Y-32050000D01*
X82900000Y-32050000D01*
G37*
G36*
X83400000Y-32050000D02*
X83100000Y-32050000D01*
X83100000Y-30550000D01*
X83400000Y-30550000D01*
X83400000Y-32050000D01*
X83400000Y-32050000D01*
G37*
G36*
X83900000Y-32050000D02*
X83600000Y-32050000D01*
X83600000Y-30550000D01*
X83900000Y-30550000D01*
X83900000Y-32050000D01*
X83900000Y-32050000D01*
G37*
G36*
X84900000Y-32050000D02*
X84600000Y-32050000D01*
X84600000Y-30550000D01*
X84900000Y-30550000D01*
X84900000Y-32050000D01*
X84900000Y-32050000D01*
G37*
G36*
X75900000Y-32050000D02*
X75600000Y-32050000D01*
X75600000Y-30550000D01*
X75900000Y-30550000D01*
X75900000Y-32050000D01*
X75900000Y-32050000D01*
G37*
G36*
X85400000Y-32050000D02*
X85100000Y-32050000D01*
X85100000Y-30550000D01*
X85400000Y-30550000D01*
X85400000Y-32050000D01*
X85400000Y-32050000D01*
G37*
G36*
X85900000Y-32050000D02*
X85600000Y-32050000D01*
X85600000Y-30550000D01*
X85900000Y-30550000D01*
X85900000Y-32050000D01*
X85900000Y-32050000D01*
G37*
G36*
X84400000Y-32050000D02*
X84100000Y-32050000D01*
X84100000Y-30550000D01*
X84400000Y-30550000D01*
X84400000Y-32050000D01*
X84400000Y-32050000D01*
G37*
G36*
X78400000Y-32050000D02*
X78100000Y-32050000D01*
X78100000Y-30550000D01*
X78400000Y-30550000D01*
X78400000Y-32050000D01*
X78400000Y-32050000D01*
G37*
G36*
X79400000Y-32050000D02*
X79100000Y-32050000D01*
X79100000Y-30550000D01*
X79400000Y-30550000D01*
X79400000Y-32050000D01*
X79400000Y-32050000D01*
G37*
G36*
X76400000Y-32050000D02*
X76100000Y-32050000D01*
X76100000Y-30550000D01*
X76400000Y-30550000D01*
X76400000Y-32050000D01*
X76400000Y-32050000D01*
G37*
G36*
X80400000Y-32050000D02*
X80100000Y-32050000D01*
X80100000Y-30550000D01*
X80400000Y-30550000D01*
X80400000Y-32050000D01*
X80400000Y-32050000D01*
G37*
G36*
X81400000Y-32050000D02*
X81100000Y-32050000D01*
X81100000Y-30550000D01*
X81400000Y-30550000D01*
X81400000Y-32050000D01*
X81400000Y-32050000D01*
G37*
G36*
X78900000Y-32050000D02*
X78600000Y-32050000D01*
X78600000Y-30550000D01*
X78900000Y-30550000D01*
X78900000Y-32050000D01*
X78900000Y-32050000D01*
G37*
G36*
X79900000Y-32050000D02*
X79600000Y-32050000D01*
X79600000Y-30550000D01*
X79900000Y-30550000D01*
X79900000Y-32050000D01*
X79900000Y-32050000D01*
G37*
G36*
X77900000Y-32050000D02*
X77600000Y-32050000D01*
X77600000Y-30550000D01*
X77900000Y-30550000D01*
X77900000Y-32050000D01*
X77900000Y-32050000D01*
G37*
G36*
X77400000Y-32050000D02*
X77100000Y-32050000D01*
X77100000Y-30550000D01*
X77400000Y-30550000D01*
X77400000Y-32050000D01*
X77400000Y-32050000D01*
G37*
G36*
X76900000Y-32050000D02*
X76600000Y-32050000D01*
X76600000Y-30550000D01*
X76900000Y-30550000D01*
X76900000Y-32050000D01*
X76900000Y-32050000D01*
G37*
G36*
X75400000Y-32050000D02*
X75100000Y-32050000D01*
X75100000Y-30550000D01*
X75400000Y-30550000D01*
X75400000Y-32050000D01*
X75400000Y-32050000D01*
G37*
G36*
X74900000Y-32050000D02*
X74600000Y-32050000D01*
X74600000Y-30550000D01*
X74900000Y-30550000D01*
X74900000Y-32050000D01*
X74900000Y-32050000D01*
G37*
G36*
X74400000Y-32050000D02*
X74100000Y-32050000D01*
X74100000Y-30550000D01*
X74400000Y-30550000D01*
X74400000Y-32050000D01*
X74400000Y-32050000D01*
G37*
G36*
X73900000Y-32050000D02*
X73600000Y-32050000D01*
X73600000Y-30550000D01*
X73900000Y-30550000D01*
X73900000Y-32050000D01*
X73900000Y-32050000D01*
G37*
G36*
X81900000Y-32050000D02*
X81600000Y-32050000D01*
X81600000Y-30550000D01*
X81900000Y-30550000D01*
X81900000Y-32050000D01*
X81900000Y-32050000D01*
G37*
G36*
X80900000Y-32050000D02*
X80600000Y-32050000D01*
X80600000Y-30550000D01*
X80900000Y-30550000D01*
X80900000Y-32050000D01*
X80900000Y-32050000D01*
G37*
G36*
X100375000Y-31750000D02*
X99625000Y-31750000D01*
X99625000Y-30850000D01*
X100375000Y-30850000D01*
X100375000Y-31750000D01*
X100375000Y-31750000D01*
G37*
G36*
X101775000Y-31750000D02*
X101025000Y-31750000D01*
X101025000Y-30850000D01*
X101775000Y-30850000D01*
X101775000Y-31750000D01*
X101775000Y-31750000D01*
G37*
G36*
X118250000Y-31350000D02*
X117150000Y-31350000D01*
X117150000Y-30650000D01*
X118250000Y-30650000D01*
X118250000Y-31350000D01*
X118250000Y-31350000D01*
G37*
G36*
X51850000Y-31125000D02*
X50850000Y-31125000D01*
X50850000Y-30175000D01*
X51850000Y-30175000D01*
X51850000Y-31125000D01*
X51850000Y-31125000D01*
G37*
G36*
X53850000Y-31125000D02*
X52850000Y-31125000D01*
X52850000Y-30175000D01*
X53850000Y-30175000D01*
X53850000Y-31125000D01*
X53850000Y-31125000D01*
G37*
G36*
X49600000Y-31100000D02*
X49000000Y-31100000D01*
X49000000Y-30100000D01*
X49600000Y-30100000D01*
X49600000Y-31100000D01*
X49600000Y-31100000D01*
G37*
G36*
X47700000Y-31100000D02*
X47100000Y-31100000D01*
X47100000Y-30100000D01*
X47700000Y-30100000D01*
X47700000Y-31100000D01*
X47700000Y-31100000D01*
G37*
G36*
X29233351Y-29230743D02*
X29378942Y-29291049D01*
X29509090Y-29378011D01*
X29509973Y-29378601D01*
X29621399Y-29490027D01*
X29621401Y-29490030D01*
X29708951Y-29621058D01*
X29769257Y-29766649D01*
X29800000Y-29921207D01*
X29800000Y-30078793D01*
X29769257Y-30233351D01*
X29708951Y-30378942D01*
X29621989Y-30509090D01*
X29621399Y-30509973D01*
X29509973Y-30621399D01*
X29509970Y-30621401D01*
X29378942Y-30708951D01*
X29233351Y-30769257D01*
X29078794Y-30800000D01*
X28921206Y-30800000D01*
X28766649Y-30769257D01*
X28621058Y-30708951D01*
X28490030Y-30621401D01*
X28490027Y-30621399D01*
X28378601Y-30509973D01*
X28378011Y-30509090D01*
X28291049Y-30378942D01*
X28230743Y-30233351D01*
X28200000Y-30078793D01*
X28200000Y-29921207D01*
X28230743Y-29766649D01*
X28291049Y-29621058D01*
X28378599Y-29490030D01*
X28378601Y-29490027D01*
X28490027Y-29378601D01*
X28490910Y-29378011D01*
X28621058Y-29291049D01*
X28766649Y-29230743D01*
X28921206Y-29200000D01*
X29078794Y-29200000D01*
X29233351Y-29230743D01*
X29233351Y-29230743D01*
G37*
G36*
X118250000Y-30250000D02*
X117150000Y-30250000D01*
X117150000Y-29550000D01*
X118250000Y-29550000D01*
X118250000Y-30250000D01*
X118250000Y-30250000D01*
G37*
G36*
X118250000Y-29250000D02*
X117150000Y-29250000D01*
X117150000Y-28550000D01*
X118250000Y-28550000D01*
X118250000Y-29250000D01*
X118250000Y-29250000D01*
G37*
G36*
X88605843Y-28130214D02*
X88605846Y-28130215D01*
X88605845Y-28130215D01*
X88696839Y-28167906D01*
X88731763Y-28191242D01*
X88778733Y-28222626D01*
X88848374Y-28292267D01*
X88848375Y-28292269D01*
X88903094Y-28374161D01*
X88921556Y-28418733D01*
X88940786Y-28465157D01*
X88960000Y-28561753D01*
X88960000Y-28660247D01*
X88940786Y-28756843D01*
X88940785Y-28756845D01*
X88903094Y-28847839D01*
X88866697Y-28902311D01*
X88848374Y-28929733D01*
X88778733Y-28999374D01*
X88751311Y-29017697D01*
X88696839Y-29054094D01*
X88641679Y-29076942D01*
X88605843Y-29091786D01*
X88509247Y-29111000D01*
X88410753Y-29111000D01*
X88314157Y-29091786D01*
X88278321Y-29076942D01*
X88223161Y-29054094D01*
X88168689Y-29017697D01*
X88141267Y-28999374D01*
X88071626Y-28929733D01*
X88053303Y-28902311D01*
X88016906Y-28847839D01*
X87979215Y-28756845D01*
X87979214Y-28756843D01*
X87960000Y-28660247D01*
X87960000Y-28561753D01*
X87979214Y-28465157D01*
X87998444Y-28418733D01*
X88016906Y-28374161D01*
X88071625Y-28292269D01*
X88071626Y-28292267D01*
X88141267Y-28222626D01*
X88188237Y-28191242D01*
X88223161Y-28167906D01*
X88314155Y-28130215D01*
X88314154Y-28130215D01*
X88314157Y-28130214D01*
X88410753Y-28111000D01*
X88509247Y-28111000D01*
X88605843Y-28130214D01*
X88605843Y-28130214D01*
G37*
G36*
X27075012Y-27923057D02*
X27075015Y-27923058D01*
X27075014Y-27923058D01*
X27184207Y-27968287D01*
X27282148Y-28033729D01*
X27282481Y-28033952D01*
X27366048Y-28117519D01*
X27366050Y-28117522D01*
X27431713Y-28215793D01*
X27456237Y-28275000D01*
X27476943Y-28324988D01*
X27500000Y-28440904D01*
X27500000Y-28559096D01*
X27476943Y-28675012D01*
X27476942Y-28675014D01*
X27431713Y-28784207D01*
X27389195Y-28847839D01*
X27366048Y-28882481D01*
X27282481Y-28966048D01*
X27282478Y-28966050D01*
X27184207Y-29031713D01*
X27093747Y-29069183D01*
X27075012Y-29076943D01*
X26959096Y-29100000D01*
X26840904Y-29100000D01*
X26724988Y-29076943D01*
X26706253Y-29069183D01*
X26615793Y-29031713D01*
X26517522Y-28966050D01*
X26517519Y-28966048D01*
X26433952Y-28882481D01*
X26410805Y-28847839D01*
X26368287Y-28784207D01*
X26323058Y-28675014D01*
X26323057Y-28675012D01*
X26300000Y-28559096D01*
X26300000Y-28440904D01*
X26323057Y-28324988D01*
X26343763Y-28275000D01*
X26368287Y-28215793D01*
X26433950Y-28117522D01*
X26433952Y-28117519D01*
X26517519Y-28033952D01*
X26517852Y-28033729D01*
X26615793Y-27968287D01*
X26724986Y-27923058D01*
X26724985Y-27923058D01*
X26724988Y-27923057D01*
X26840904Y-27900000D01*
X26959096Y-27900000D01*
X27075012Y-27923057D01*
X27075012Y-27923057D01*
G37*
G36*
X74010000Y-28960000D02*
X73390000Y-28960000D01*
X73390000Y-28340000D01*
X74010000Y-28340000D01*
X74010000Y-28960000D01*
X74010000Y-28960000D01*
G37*
G36*
X89844778Y-27851621D02*
X89916393Y-27881285D01*
X89980843Y-27924349D01*
X90035651Y-27979157D01*
X90078715Y-28043607D01*
X90108379Y-28115222D01*
X90123500Y-28191242D01*
X90123500Y-28268758D01*
X90108379Y-28344778D01*
X90078715Y-28416393D01*
X90035651Y-28480843D01*
X89980843Y-28535651D01*
X89916393Y-28578715D01*
X89844778Y-28608379D01*
X89768758Y-28623500D01*
X89691242Y-28623500D01*
X89615222Y-28608379D01*
X89543607Y-28578715D01*
X89479157Y-28535651D01*
X89424349Y-28480843D01*
X89381285Y-28416393D01*
X89351621Y-28344778D01*
X89336500Y-28268758D01*
X89336500Y-28191242D01*
X89351621Y-28115222D01*
X89381285Y-28043607D01*
X89424349Y-27979157D01*
X89479157Y-27924349D01*
X89543607Y-27881285D01*
X89615222Y-27851621D01*
X89691242Y-27836500D01*
X89768758Y-27836500D01*
X89844778Y-27851621D01*
X89844778Y-27851621D01*
G37*
G36*
X91114778Y-27851621D02*
X91186393Y-27881285D01*
X91250843Y-27924349D01*
X91305651Y-27979157D01*
X91348715Y-28043607D01*
X91378379Y-28115222D01*
X91393500Y-28191242D01*
X91393500Y-28268758D01*
X91378379Y-28344778D01*
X91348715Y-28416393D01*
X91305651Y-28480843D01*
X91250843Y-28535651D01*
X91186393Y-28578715D01*
X91114778Y-28608379D01*
X91038758Y-28623500D01*
X90961242Y-28623500D01*
X90885222Y-28608379D01*
X90813607Y-28578715D01*
X90749157Y-28535651D01*
X90694349Y-28480843D01*
X90651285Y-28416393D01*
X90621621Y-28344778D01*
X90606500Y-28268758D01*
X90606500Y-28191242D01*
X90621621Y-28115222D01*
X90651285Y-28043607D01*
X90694349Y-27979157D01*
X90749157Y-27924349D01*
X90813607Y-27881285D01*
X90885222Y-27851621D01*
X90961242Y-27836500D01*
X91038758Y-27836500D01*
X91114778Y-27851621D01*
X91114778Y-27851621D01*
G37*
G36*
X92384778Y-27851621D02*
X92456393Y-27881285D01*
X92520843Y-27924349D01*
X92575651Y-27979157D01*
X92618715Y-28043607D01*
X92648379Y-28115222D01*
X92663500Y-28191242D01*
X92663500Y-28268758D01*
X92648379Y-28344778D01*
X92618715Y-28416393D01*
X92575651Y-28480843D01*
X92520843Y-28535651D01*
X92456393Y-28578715D01*
X92384778Y-28608379D01*
X92308758Y-28623500D01*
X92231242Y-28623500D01*
X92155222Y-28608379D01*
X92083607Y-28578715D01*
X92019157Y-28535651D01*
X91964349Y-28480843D01*
X91921285Y-28416393D01*
X91891621Y-28344778D01*
X91876500Y-28268758D01*
X91876500Y-28191242D01*
X91891621Y-28115222D01*
X91921285Y-28043607D01*
X91964349Y-27979157D01*
X92019157Y-27924349D01*
X92083607Y-27881285D01*
X92155222Y-27851621D01*
X92231242Y-27836500D01*
X92308758Y-27836500D01*
X92384778Y-27851621D01*
X92384778Y-27851621D01*
G37*
G36*
X105550000Y-28600000D02*
X104770000Y-28600000D01*
X104770000Y-27550000D01*
X105550000Y-27550000D01*
X105550000Y-28600000D01*
X105550000Y-28600000D01*
G37*
G36*
X45645843Y-27619214D02*
X45645846Y-27619215D01*
X45645845Y-27619215D01*
X45736839Y-27656906D01*
X45791311Y-27693303D01*
X45818733Y-27711626D01*
X45888374Y-27781267D01*
X45888375Y-27781269D01*
X45943094Y-27863161D01*
X45943094Y-27863162D01*
X45980786Y-27954157D01*
X46000000Y-28050753D01*
X46000000Y-28149247D01*
X45980786Y-28245843D01*
X45980785Y-28245845D01*
X45943094Y-28336839D01*
X45918156Y-28374161D01*
X45888374Y-28418733D01*
X45818733Y-28488374D01*
X45791311Y-28506697D01*
X45736839Y-28543094D01*
X45691792Y-28561753D01*
X45645843Y-28580786D01*
X45549247Y-28600000D01*
X45450753Y-28600000D01*
X45354157Y-28580786D01*
X45308208Y-28561753D01*
X45263161Y-28543094D01*
X45208689Y-28506697D01*
X45181267Y-28488374D01*
X45111626Y-28418733D01*
X45081844Y-28374161D01*
X45056906Y-28336839D01*
X45019215Y-28245845D01*
X45019214Y-28245843D01*
X45000000Y-28149247D01*
X45000000Y-28050753D01*
X45019214Y-27954157D01*
X45056906Y-27863162D01*
X45056906Y-27863161D01*
X45111625Y-27781269D01*
X45111626Y-27781267D01*
X45181267Y-27711626D01*
X45208689Y-27693303D01*
X45263161Y-27656906D01*
X45354155Y-27619215D01*
X45354154Y-27619215D01*
X45354157Y-27619214D01*
X45450753Y-27600000D01*
X45549247Y-27600000D01*
X45645843Y-27619214D01*
X45645843Y-27619214D01*
G37*
G36*
X82150000Y-28375000D02*
X81250000Y-28375000D01*
X81250000Y-27625000D01*
X82150000Y-27625000D01*
X82150000Y-28375000D01*
X82150000Y-28375000D01*
G37*
G36*
X83950000Y-28275000D02*
X83050000Y-28275000D01*
X83050000Y-27525000D01*
X83950000Y-27525000D01*
X83950000Y-28275000D01*
X83950000Y-28275000D01*
G37*
G36*
X85650000Y-28275000D02*
X84750000Y-28275000D01*
X84750000Y-27525000D01*
X85650000Y-27525000D01*
X85650000Y-28275000D01*
X85650000Y-28275000D01*
G37*
G36*
X118250000Y-28150000D02*
X117150000Y-28150000D01*
X117150000Y-27450000D01*
X118250000Y-27450000D01*
X118250000Y-28150000D01*
X118250000Y-28150000D01*
G37*
G36*
X93685843Y-27114214D02*
X93685846Y-27114215D01*
X93685845Y-27114215D01*
X93776839Y-27151906D01*
X93831311Y-27188303D01*
X93858733Y-27206626D01*
X93928374Y-27276267D01*
X93928375Y-27276269D01*
X93983094Y-27358161D01*
X93983094Y-27358162D01*
X94020786Y-27449157D01*
X94040000Y-27545753D01*
X94040000Y-27644247D01*
X94020786Y-27740843D01*
X94020785Y-27740845D01*
X93983094Y-27831839D01*
X93969876Y-27851621D01*
X93928374Y-27913733D01*
X93858733Y-27983374D01*
X93831311Y-28001697D01*
X93776839Y-28038094D01*
X93746275Y-28050754D01*
X93685843Y-28075786D01*
X93589247Y-28095000D01*
X93490753Y-28095000D01*
X93394157Y-28075786D01*
X93333725Y-28050754D01*
X93303161Y-28038094D01*
X93248689Y-28001697D01*
X93221267Y-27983374D01*
X93151626Y-27913733D01*
X93110124Y-27851621D01*
X93096906Y-27831839D01*
X93059215Y-27740845D01*
X93059214Y-27740843D01*
X93040000Y-27644247D01*
X93040000Y-27545753D01*
X93059214Y-27449157D01*
X93096906Y-27358162D01*
X93096906Y-27358161D01*
X93151625Y-27276269D01*
X93151626Y-27276267D01*
X93221267Y-27206626D01*
X93248689Y-27188303D01*
X93303161Y-27151906D01*
X93394155Y-27114215D01*
X93394154Y-27114215D01*
X93394157Y-27114214D01*
X93490753Y-27095000D01*
X93589247Y-27095000D01*
X93685843Y-27114214D01*
X93685843Y-27114214D01*
G37*
G36*
X74010000Y-28060000D02*
X73390000Y-28060000D01*
X73390000Y-27440000D01*
X74010000Y-27440000D01*
X74010000Y-28060000D01*
X74010000Y-28060000D01*
G37*
G36*
X92384778Y-26581621D02*
X92456393Y-26611285D01*
X92520843Y-26654349D01*
X92575651Y-26709157D01*
X92618715Y-26773607D01*
X92648379Y-26845222D01*
X92663500Y-26921242D01*
X92663500Y-26998758D01*
X92648379Y-27074778D01*
X92618715Y-27146393D01*
X92575651Y-27210843D01*
X92520843Y-27265651D01*
X92456393Y-27308715D01*
X92384778Y-27338379D01*
X92308758Y-27353500D01*
X92231242Y-27353500D01*
X92155222Y-27338379D01*
X92083607Y-27308715D01*
X92019157Y-27265651D01*
X91964349Y-27210843D01*
X91921285Y-27146393D01*
X91891621Y-27074778D01*
X91876500Y-26998758D01*
X91876500Y-26921242D01*
X91891621Y-26845222D01*
X91921285Y-26773607D01*
X91964349Y-26709157D01*
X92019157Y-26654349D01*
X92083607Y-26611285D01*
X92155222Y-26581621D01*
X92231242Y-26566500D01*
X92308758Y-26566500D01*
X92384778Y-26581621D01*
X92384778Y-26581621D01*
G37*
G36*
X91114778Y-26581621D02*
X91186393Y-26611285D01*
X91250843Y-26654349D01*
X91305651Y-26709157D01*
X91348715Y-26773607D01*
X91378379Y-26845222D01*
X91393500Y-26921242D01*
X91393500Y-26998758D01*
X91378379Y-27074778D01*
X91348715Y-27146393D01*
X91305651Y-27210843D01*
X91250843Y-27265651D01*
X91186393Y-27308715D01*
X91114778Y-27338379D01*
X91038758Y-27353500D01*
X90961242Y-27353500D01*
X90885222Y-27338379D01*
X90813607Y-27308715D01*
X90749157Y-27265651D01*
X90694349Y-27210843D01*
X90651285Y-27146393D01*
X90621621Y-27074778D01*
X90606500Y-26998758D01*
X90606500Y-26921242D01*
X90621621Y-26845222D01*
X90651285Y-26773607D01*
X90694349Y-26709157D01*
X90749157Y-26654349D01*
X90813607Y-26611285D01*
X90885222Y-26581621D01*
X90961242Y-26566500D01*
X91038758Y-26566500D01*
X91114778Y-26581621D01*
X91114778Y-26581621D01*
G37*
G36*
X89844778Y-26581621D02*
X89916393Y-26611285D01*
X89980843Y-26654349D01*
X90035651Y-26709157D01*
X90078715Y-26773607D01*
X90108379Y-26845222D01*
X90123500Y-26921242D01*
X90123500Y-26998758D01*
X90108379Y-27074778D01*
X90078715Y-27146393D01*
X90035651Y-27210843D01*
X89980843Y-27265651D01*
X89916393Y-27308715D01*
X89844778Y-27338379D01*
X89768758Y-27353500D01*
X89691242Y-27353500D01*
X89615222Y-27338379D01*
X89543607Y-27308715D01*
X89479157Y-27265651D01*
X89424349Y-27210843D01*
X89381285Y-27146393D01*
X89351621Y-27074778D01*
X89336500Y-26998758D01*
X89336500Y-26921242D01*
X89351621Y-26845222D01*
X89381285Y-26773607D01*
X89424349Y-26709157D01*
X89479157Y-26654349D01*
X89543607Y-26611285D01*
X89615222Y-26581621D01*
X89691242Y-26566500D01*
X89768758Y-26566500D01*
X89844778Y-26581621D01*
X89844778Y-26581621D01*
G37*
G36*
X100918821Y-20971052D02*
X101492085Y-21208506D01*
X102008008Y-21553235D01*
X102446765Y-21991992D01*
X102791494Y-22507915D01*
X103028948Y-23081179D01*
X103150000Y-23689752D01*
X103150000Y-24310248D01*
X103028948Y-24918821D01*
X102791494Y-25492085D01*
X102446765Y-26008008D01*
X102008008Y-26446765D01*
X101492085Y-26791494D01*
X100918821Y-27028948D01*
X100310248Y-27150000D01*
X99689752Y-27150000D01*
X99081179Y-27028948D01*
X98507915Y-26791494D01*
X97991992Y-26446765D01*
X97553235Y-26008008D01*
X97208506Y-25492085D01*
X96971052Y-24918821D01*
X96850000Y-24310248D01*
X96850000Y-23689752D01*
X96971052Y-23081179D01*
X97208506Y-22507915D01*
X97553235Y-21991992D01*
X97991992Y-21553235D01*
X98507915Y-21208506D01*
X99081179Y-20971052D01*
X99689752Y-20850000D01*
X100310248Y-20850000D01*
X100918821Y-20971052D01*
X100918821Y-20971052D01*
G37*
G36*
X27075012Y-25923057D02*
X27075015Y-25923058D01*
X27075014Y-25923058D01*
X27184207Y-25968287D01*
X27281095Y-26033026D01*
X27282481Y-26033952D01*
X27366048Y-26117519D01*
X27366050Y-26117522D01*
X27431713Y-26215793D01*
X27469183Y-26306253D01*
X27476943Y-26324988D01*
X27500000Y-26440904D01*
X27500000Y-26559096D01*
X27476943Y-26675012D01*
X27476942Y-26675014D01*
X27431713Y-26784207D01*
X27371047Y-26875000D01*
X27366048Y-26882481D01*
X27282481Y-26966048D01*
X27282478Y-26966050D01*
X27184207Y-27031713D01*
X27116432Y-27059786D01*
X27075012Y-27076943D01*
X26959096Y-27100000D01*
X26840904Y-27100000D01*
X26724988Y-27076943D01*
X26683568Y-27059786D01*
X26615793Y-27031713D01*
X26517522Y-26966050D01*
X26517519Y-26966048D01*
X26433952Y-26882481D01*
X26428953Y-26875000D01*
X26368287Y-26784207D01*
X26323058Y-26675014D01*
X26323057Y-26675012D01*
X26300000Y-26559096D01*
X26300000Y-26440904D01*
X26323057Y-26324988D01*
X26330817Y-26306253D01*
X26368287Y-26215793D01*
X26433950Y-26117522D01*
X26433952Y-26117519D01*
X26517519Y-26033952D01*
X26518905Y-26033026D01*
X26615793Y-25968287D01*
X26724986Y-25923058D01*
X26724985Y-25923058D01*
X26724988Y-25923057D01*
X26840904Y-25900000D01*
X26959096Y-25900000D01*
X27075012Y-25923057D01*
X27075012Y-25923057D01*
G37*
G36*
X88605843Y-26098214D02*
X88632495Y-26109254D01*
X88696839Y-26135906D01*
X88751311Y-26172303D01*
X88778733Y-26190626D01*
X88848374Y-26260267D01*
X88848375Y-26260269D01*
X88903094Y-26342161D01*
X88903094Y-26342162D01*
X88940786Y-26433157D01*
X88960000Y-26529753D01*
X88960000Y-26628247D01*
X88940786Y-26724843D01*
X88940785Y-26724845D01*
X88903094Y-26815839D01*
X88866697Y-26870311D01*
X88848374Y-26897733D01*
X88778733Y-26967374D01*
X88751311Y-26985697D01*
X88696839Y-27022094D01*
X88632495Y-27048746D01*
X88605843Y-27059786D01*
X88509247Y-27079000D01*
X88410753Y-27079000D01*
X88314157Y-27059786D01*
X88287505Y-27048746D01*
X88223161Y-27022094D01*
X88168689Y-26985697D01*
X88141267Y-26967374D01*
X88071626Y-26897733D01*
X88053303Y-26870311D01*
X88016906Y-26815839D01*
X87979215Y-26724845D01*
X87979214Y-26724843D01*
X87960000Y-26628247D01*
X87960000Y-26529753D01*
X87979214Y-26433157D01*
X88016906Y-26342162D01*
X88016906Y-26342161D01*
X88071625Y-26260269D01*
X88071626Y-26260267D01*
X88141267Y-26190626D01*
X88168689Y-26172303D01*
X88223161Y-26135906D01*
X88287505Y-26109254D01*
X88314157Y-26098214D01*
X88410753Y-26079000D01*
X88509247Y-26079000D01*
X88605843Y-26098214D01*
X88605843Y-26098214D01*
G37*
G36*
X118250000Y-27050000D02*
X117150000Y-27050000D01*
X117150000Y-26350000D01*
X118250000Y-26350000D01*
X118250000Y-27050000D01*
X118250000Y-27050000D01*
G37*
G36*
X39775000Y-27000000D02*
X38825000Y-27000000D01*
X38825000Y-26000000D01*
X39775000Y-26000000D01*
X39775000Y-27000000D01*
X39775000Y-27000000D01*
G37*
G36*
X42175000Y-27000000D02*
X41225000Y-27000000D01*
X41225000Y-26000000D01*
X42175000Y-26000000D01*
X42175000Y-27000000D01*
X42175000Y-27000000D01*
G37*
G36*
X38175000Y-27000000D02*
X37225000Y-27000000D01*
X37225000Y-26000000D01*
X38175000Y-26000000D01*
X38175000Y-27000000D01*
X38175000Y-27000000D01*
G37*
G36*
X43775000Y-27000000D02*
X42825000Y-27000000D01*
X42825000Y-26000000D01*
X43775000Y-26000000D01*
X43775000Y-27000000D01*
X43775000Y-27000000D01*
G37*
G36*
X82150000Y-26975000D02*
X81250000Y-26975000D01*
X81250000Y-26225000D01*
X82150000Y-26225000D01*
X82150000Y-26975000D01*
X82150000Y-26975000D01*
G37*
G36*
X83950000Y-26875000D02*
X83050000Y-26875000D01*
X83050000Y-26125000D01*
X83950000Y-26125000D01*
X83950000Y-26875000D01*
X83950000Y-26875000D01*
G37*
G36*
X85650000Y-26875000D02*
X84750000Y-26875000D01*
X84750000Y-26125000D01*
X85650000Y-26125000D01*
X85650000Y-26875000D01*
X85650000Y-26875000D01*
G37*
G36*
X34900000Y-26075000D02*
X33100000Y-26075000D01*
X33100000Y-24925000D01*
X34900000Y-24925000D01*
X34900000Y-26075000D01*
X34900000Y-26075000D01*
G37*
G36*
X118250000Y-25950000D02*
X117150000Y-25950000D01*
X117150000Y-25250000D01*
X118250000Y-25250000D01*
X118250000Y-25950000D01*
X118250000Y-25950000D01*
G37*
G36*
X29233351Y-24230743D02*
X29378942Y-24291049D01*
X29407675Y-24310248D01*
X29509973Y-24378601D01*
X29621399Y-24490027D01*
X29621401Y-24490030D01*
X29708951Y-24621058D01*
X29708951Y-24621059D01*
X29769257Y-24766649D01*
X29799526Y-24918821D01*
X29800000Y-24921207D01*
X29800000Y-25078793D01*
X29769257Y-25233351D01*
X29708951Y-25378942D01*
X29633351Y-25492085D01*
X29621399Y-25509973D01*
X29509973Y-25621399D01*
X29509970Y-25621401D01*
X29378942Y-25708951D01*
X29233351Y-25769257D01*
X29078794Y-25800000D01*
X28921206Y-25800000D01*
X28766649Y-25769257D01*
X28621058Y-25708951D01*
X28490030Y-25621401D01*
X28490027Y-25621399D01*
X28378601Y-25509973D01*
X28366649Y-25492085D01*
X28291049Y-25378942D01*
X28230743Y-25233351D01*
X28200000Y-25078793D01*
X28200000Y-24921207D01*
X28200475Y-24918821D01*
X28230743Y-24766649D01*
X28291049Y-24621059D01*
X28291049Y-24621058D01*
X28378599Y-24490030D01*
X28378601Y-24490027D01*
X28490027Y-24378601D01*
X28592325Y-24310248D01*
X28621058Y-24291049D01*
X28766649Y-24230743D01*
X28921206Y-24200000D01*
X29078794Y-24200000D01*
X29233351Y-24230743D01*
X29233351Y-24230743D01*
G37*
G36*
X36700000Y-25075000D02*
X35800000Y-25075000D01*
X35800000Y-24325000D01*
X36700000Y-24325000D01*
X36700000Y-25075000D01*
X36700000Y-25075000D01*
G37*
G36*
X46275000Y-25050000D02*
X45525000Y-25050000D01*
X45525000Y-24150000D01*
X46275000Y-24150000D01*
X46275000Y-25050000D01*
X46275000Y-25050000D01*
G37*
G36*
X44875000Y-25050000D02*
X44125000Y-25050000D01*
X44125000Y-24150000D01*
X44875000Y-24150000D01*
X44875000Y-25050000D01*
X44875000Y-25050000D01*
G37*
G36*
X43425000Y-24950000D02*
X41975000Y-24950000D01*
X41975000Y-24500000D01*
X43425000Y-24500000D01*
X43425000Y-24950000D01*
X43425000Y-24950000D01*
G37*
G36*
X39025000Y-24950000D02*
X37575000Y-24950000D01*
X37575000Y-24500000D01*
X39025000Y-24500000D01*
X39025000Y-24950000D01*
X39025000Y-24950000D01*
G37*
G36*
X39025000Y-24300000D02*
X37575000Y-24300000D01*
X37575000Y-23850000D01*
X39025000Y-23850000D01*
X39025000Y-24300000D01*
X39025000Y-24300000D01*
G37*
G36*
X43425000Y-24300000D02*
X41975000Y-24300000D01*
X41975000Y-23850000D01*
X43425000Y-23850000D01*
X43425000Y-24300000D01*
X43425000Y-24300000D01*
G37*
G36*
X105700000Y-24260000D02*
X104770000Y-24260000D01*
X104770000Y-23360000D01*
X105700000Y-23360000D01*
X105700000Y-24260000D01*
X105700000Y-24260000D01*
G37*
G36*
X29227338Y-22229547D02*
X29233351Y-22230743D01*
X29378942Y-22291049D01*
X29509090Y-22378011D01*
X29509973Y-22378601D01*
X29621399Y-22490027D01*
X29621401Y-22490030D01*
X29708951Y-22621058D01*
X29708951Y-22621059D01*
X29769257Y-22766649D01*
X29800000Y-22921206D01*
X29800000Y-23078794D01*
X29799525Y-23081180D01*
X29769257Y-23233351D01*
X29708951Y-23378942D01*
X29621989Y-23509090D01*
X29621399Y-23509973D01*
X29509973Y-23621399D01*
X29509970Y-23621401D01*
X29378942Y-23708951D01*
X29318123Y-23734143D01*
X29233351Y-23769257D01*
X29078794Y-23800000D01*
X28921206Y-23800000D01*
X28766649Y-23769257D01*
X28681877Y-23734143D01*
X28621058Y-23708951D01*
X28490030Y-23621401D01*
X28490027Y-23621399D01*
X28378601Y-23509973D01*
X28378011Y-23509090D01*
X28291049Y-23378942D01*
X28230743Y-23233351D01*
X28200475Y-23081180D01*
X28200000Y-23078794D01*
X28200000Y-22921206D01*
X28230743Y-22766649D01*
X28291049Y-22621059D01*
X28291049Y-22621058D01*
X28378599Y-22490030D01*
X28378601Y-22490027D01*
X28490027Y-22378601D01*
X28490910Y-22378011D01*
X28621058Y-22291049D01*
X28766649Y-22230743D01*
X28772662Y-22229547D01*
X28921206Y-22200000D01*
X29078794Y-22200000D01*
X29227338Y-22229547D01*
X29227338Y-22229547D01*
G37*
G36*
X36700000Y-23675000D02*
X35800000Y-23675000D01*
X35800000Y-22925000D01*
X36700000Y-22925000D01*
X36700000Y-23675000D01*
X36700000Y-23675000D01*
G37*
G36*
X39025000Y-23650000D02*
X37575000Y-23650000D01*
X37575000Y-23200000D01*
X39025000Y-23200000D01*
X39025000Y-23650000D01*
X39025000Y-23650000D01*
G37*
G36*
X43425000Y-23650000D02*
X41975000Y-23650000D01*
X41975000Y-23200000D01*
X43425000Y-23200000D01*
X43425000Y-23650000D01*
X43425000Y-23650000D01*
G37*
G36*
X34900000Y-23075000D02*
X33100000Y-23075000D01*
X33100000Y-21925000D01*
X34900000Y-21925000D01*
X34900000Y-23075000D01*
X34900000Y-23075000D01*
G37*
G36*
X43425000Y-23000000D02*
X41975000Y-23000000D01*
X41975000Y-22550000D01*
X43425000Y-22550000D01*
X43425000Y-23000000D01*
X43425000Y-23000000D01*
G37*
G36*
X39025000Y-23000000D02*
X37575000Y-23000000D01*
X37575000Y-22550000D01*
X39025000Y-22550000D01*
X39025000Y-23000000D01*
X39025000Y-23000000D01*
G37*
G36*
X118600000Y-22290000D02*
X116770000Y-22290000D01*
X116770000Y-21150000D01*
X118600000Y-21150000D01*
X118600000Y-22290000D01*
X118600000Y-22290000D01*
G37*
G36*
X27075012Y-20923057D02*
X27075015Y-20923058D01*
X27075014Y-20923058D01*
X27184207Y-20968287D01*
X27282148Y-21033729D01*
X27282481Y-21033952D01*
X27366048Y-21117519D01*
X27366050Y-21117522D01*
X27431713Y-21215793D01*
X27469183Y-21306253D01*
X27476943Y-21324988D01*
X27500000Y-21440904D01*
X27500000Y-21559096D01*
X27476943Y-21675012D01*
X27476942Y-21675014D01*
X27431713Y-21784207D01*
X27387751Y-21850000D01*
X27366048Y-21882481D01*
X27282481Y-21966048D01*
X27282478Y-21966050D01*
X27184207Y-22031713D01*
X27093747Y-22069183D01*
X27075012Y-22076943D01*
X26959096Y-22100000D01*
X26840904Y-22100000D01*
X26724988Y-22076943D01*
X26706253Y-22069183D01*
X26615793Y-22031713D01*
X26517522Y-21966050D01*
X26517519Y-21966048D01*
X26433952Y-21882481D01*
X26412249Y-21850000D01*
X26368287Y-21784207D01*
X26323058Y-21675014D01*
X26323057Y-21675012D01*
X26300000Y-21559096D01*
X26300000Y-21440904D01*
X26323057Y-21324988D01*
X26330817Y-21306253D01*
X26368287Y-21215793D01*
X26433950Y-21117522D01*
X26433952Y-21117519D01*
X26517519Y-21033952D01*
X26517852Y-21033729D01*
X26615793Y-20968287D01*
X26724986Y-20923058D01*
X26724985Y-20923058D01*
X26724988Y-20923057D01*
X26840904Y-20900000D01*
X26959096Y-20900000D01*
X27075012Y-20923057D01*
X27075012Y-20923057D01*
G37*
G36*
X108100000Y-21850000D02*
X104770000Y-21850000D01*
X104770000Y-21150000D01*
X108100000Y-21150000D01*
X108100000Y-21850000D01*
X108100000Y-21850000D01*
G37*
G36*
X40175000Y-21700000D02*
X39425000Y-21700000D01*
X39425000Y-20800000D01*
X40175000Y-20800000D01*
X40175000Y-21700000D01*
X40175000Y-21700000D01*
G37*
G36*
X41575000Y-21700000D02*
X40825000Y-21700000D01*
X40825000Y-20800000D01*
X41575000Y-20800000D01*
X41575000Y-21700000D01*
X41575000Y-21700000D01*
G37*
M02*
