G04 #@! TF.GenerationSoftware,KiCad,Pcbnew,5.0.1-33cea8e~68~ubuntu18.04.1*
G04 #@! TF.CreationDate,2018-11-11T23:32:46+00:00*
G04 #@! TF.ProjectId,comms,636F6D6D732E6B696361645F70636200,rev?*
G04 #@! TF.SameCoordinates,Original*
G04 #@! TF.FileFunction,Soldermask,Bot*
G04 #@! TF.FilePolarity,Negative*
%FSLAX46Y46*%
G04 Gerber Fmt 4.6, Leading zero omitted, Abs format (unit mm)*
G04 Created by KiCad (PCBNEW 5.0.1-33cea8e~68~ubuntu18.04.1) date Sun 11 Nov 2018 23:32:46 GMT*
%MOMM*%
%LPD*%
G01*
G04 APERTURE LIST*
%ADD10C,0.100000*%
G04 APERTURE END LIST*
D10*
G36*
X100155151Y-115583626D02*
X100677123Y-115687452D01*
X101250387Y-115924906D01*
X101766310Y-116269635D01*
X102205067Y-116708392D01*
X102549796Y-117224315D01*
X102787250Y-117797579D01*
X102908302Y-118406152D01*
X102908302Y-119026648D01*
X102787250Y-119635221D01*
X102549796Y-120208485D01*
X102205067Y-120724408D01*
X101766310Y-121163165D01*
X101250387Y-121507894D01*
X100677123Y-121745348D01*
X100155151Y-121849174D01*
X100068551Y-121866400D01*
X99448053Y-121866400D01*
X99361453Y-121849174D01*
X98839481Y-121745348D01*
X98266217Y-121507894D01*
X97750294Y-121163165D01*
X97311537Y-120724408D01*
X96966808Y-120208485D01*
X96729354Y-119635221D01*
X96608302Y-119026648D01*
X96608302Y-118406152D01*
X96729354Y-117797579D01*
X96966808Y-117224315D01*
X97311537Y-116708392D01*
X97750294Y-116269635D01*
X98266217Y-115924906D01*
X98839481Y-115687452D01*
X99361453Y-115583626D01*
X99448053Y-115566400D01*
X100068551Y-115566400D01*
X100155151Y-115583626D01*
X100155151Y-115583626D01*
G37*
G36*
X27155151Y-115583626D02*
X27677123Y-115687452D01*
X28250387Y-115924906D01*
X28766310Y-116269635D01*
X29205067Y-116708392D01*
X29549796Y-117224315D01*
X29787250Y-117797579D01*
X29908302Y-118406152D01*
X29908302Y-119026648D01*
X29787250Y-119635221D01*
X29549796Y-120208485D01*
X29205067Y-120724408D01*
X28766310Y-121163165D01*
X28250387Y-121507894D01*
X27677123Y-121745348D01*
X27155151Y-121849174D01*
X27068551Y-121866400D01*
X26448053Y-121866400D01*
X26361453Y-121849174D01*
X25839481Y-121745348D01*
X25266217Y-121507894D01*
X24750294Y-121163165D01*
X24311537Y-120724408D01*
X23966808Y-120208485D01*
X23729354Y-119635221D01*
X23608302Y-119026648D01*
X23608302Y-118406152D01*
X23729354Y-117797579D01*
X23966808Y-117224315D01*
X24311537Y-116708392D01*
X24750294Y-116269635D01*
X25266217Y-115924906D01*
X25839481Y-115687452D01*
X26361453Y-115583626D01*
X26448053Y-115566400D01*
X27068551Y-115566400D01*
X27155151Y-115583626D01*
X27155151Y-115583626D01*
G37*
G36*
X61183314Y-115239457D02*
X61292509Y-115284687D01*
X61390783Y-115350352D01*
X61474350Y-115433919D01*
X61540015Y-115532193D01*
X61585245Y-115641388D01*
X61608302Y-115757304D01*
X61608302Y-115875496D01*
X61585245Y-115991412D01*
X61540015Y-116100607D01*
X61474350Y-116198881D01*
X61390783Y-116282448D01*
X61292509Y-116348113D01*
X61183314Y-116393343D01*
X61067398Y-116416400D01*
X60949206Y-116416400D01*
X60833290Y-116393343D01*
X60724095Y-116348113D01*
X60625821Y-116282448D01*
X60542254Y-116198881D01*
X60476589Y-116100607D01*
X60431359Y-115991412D01*
X60408302Y-115875496D01*
X60408302Y-115757304D01*
X60431359Y-115641388D01*
X60476589Y-115532193D01*
X60542254Y-115433919D01*
X60625821Y-115350352D01*
X60724095Y-115284687D01*
X60833290Y-115239457D01*
X60949206Y-115216400D01*
X61067398Y-115216400D01*
X61183314Y-115239457D01*
X61183314Y-115239457D01*
G37*
G36*
X71683314Y-115239457D02*
X71792509Y-115284687D01*
X71890783Y-115350352D01*
X71974350Y-115433919D01*
X72040015Y-115532193D01*
X72085245Y-115641388D01*
X72108302Y-115757304D01*
X72108302Y-115875496D01*
X72085245Y-115991412D01*
X72040015Y-116100607D01*
X71974350Y-116198881D01*
X71890783Y-116282448D01*
X71792509Y-116348113D01*
X71683314Y-116393343D01*
X71567398Y-116416400D01*
X71449206Y-116416400D01*
X71333290Y-116393343D01*
X71224095Y-116348113D01*
X71125821Y-116282448D01*
X71042254Y-116198881D01*
X70976589Y-116100607D01*
X70931359Y-115991412D01*
X70908302Y-115875496D01*
X70908302Y-115757304D01*
X70931359Y-115641388D01*
X70976589Y-115532193D01*
X71042254Y-115433919D01*
X71125821Y-115350352D01*
X71224095Y-115284687D01*
X71333290Y-115239457D01*
X71449206Y-115216400D01*
X71567398Y-115216400D01*
X71683314Y-115239457D01*
X71683314Y-115239457D01*
G37*
G36*
X64683314Y-115239457D02*
X64792509Y-115284687D01*
X64890783Y-115350352D01*
X64974350Y-115433919D01*
X65040015Y-115532193D01*
X65085245Y-115641388D01*
X65108302Y-115757304D01*
X65108302Y-115875496D01*
X65085245Y-115991412D01*
X65040015Y-116100607D01*
X64974350Y-116198881D01*
X64890783Y-116282448D01*
X64792509Y-116348113D01*
X64683314Y-116393343D01*
X64567398Y-116416400D01*
X64449206Y-116416400D01*
X64333290Y-116393343D01*
X64224095Y-116348113D01*
X64125821Y-116282448D01*
X64042254Y-116198881D01*
X63976589Y-116100607D01*
X63931359Y-115991412D01*
X63908302Y-115875496D01*
X63908302Y-115757304D01*
X63931359Y-115641388D01*
X63976589Y-115532193D01*
X64042254Y-115433919D01*
X64125821Y-115350352D01*
X64224095Y-115284687D01*
X64333290Y-115239457D01*
X64449206Y-115216400D01*
X64567398Y-115216400D01*
X64683314Y-115239457D01*
X64683314Y-115239457D01*
G37*
G36*
X54183314Y-115239457D02*
X54292509Y-115284687D01*
X54390783Y-115350352D01*
X54474350Y-115433919D01*
X54540015Y-115532193D01*
X54585245Y-115641388D01*
X54608302Y-115757304D01*
X54608302Y-115875496D01*
X54585245Y-115991412D01*
X54540015Y-116100607D01*
X54474350Y-116198881D01*
X54390783Y-116282448D01*
X54292509Y-116348113D01*
X54183314Y-116393343D01*
X54067398Y-116416400D01*
X53949206Y-116416400D01*
X53833290Y-116393343D01*
X53724095Y-116348113D01*
X53625821Y-116282448D01*
X53542254Y-116198881D01*
X53476589Y-116100607D01*
X53431359Y-115991412D01*
X53408302Y-115875496D01*
X53408302Y-115757304D01*
X53431359Y-115641388D01*
X53476589Y-115532193D01*
X53542254Y-115433919D01*
X53625821Y-115350352D01*
X53724095Y-115284687D01*
X53833290Y-115239457D01*
X53949206Y-115216400D01*
X54067398Y-115216400D01*
X54183314Y-115239457D01*
X54183314Y-115239457D01*
G37*
G36*
X55741654Y-112947143D02*
X55887243Y-113007448D01*
X56018275Y-113095001D01*
X56129701Y-113206427D01*
X56217254Y-113337459D01*
X56277559Y-113483048D01*
X56308302Y-113637605D01*
X56308302Y-113795195D01*
X56277559Y-113949752D01*
X56217254Y-114095341D01*
X56129701Y-114226373D01*
X56018275Y-114337799D01*
X55887243Y-114425352D01*
X55741654Y-114485657D01*
X55587097Y-114516400D01*
X55429507Y-114516400D01*
X55274950Y-114485657D01*
X55129361Y-114425352D01*
X54998329Y-114337799D01*
X54886903Y-114226373D01*
X54799350Y-114095341D01*
X54739045Y-113949752D01*
X54708302Y-113795195D01*
X54708302Y-113637605D01*
X54739045Y-113483048D01*
X54799350Y-113337459D01*
X54886903Y-113206427D01*
X54998329Y-113095001D01*
X55129361Y-113007448D01*
X55274950Y-112947143D01*
X55429507Y-112916400D01*
X55587097Y-112916400D01*
X55741654Y-112947143D01*
X55741654Y-112947143D01*
G37*
G36*
X57741654Y-112947143D02*
X57887243Y-113007448D01*
X58018275Y-113095001D01*
X58129701Y-113206427D01*
X58217254Y-113337459D01*
X58277559Y-113483048D01*
X58308302Y-113637605D01*
X58308302Y-113795195D01*
X58277559Y-113949752D01*
X58217254Y-114095341D01*
X58129701Y-114226373D01*
X58018275Y-114337799D01*
X57887243Y-114425352D01*
X57741654Y-114485657D01*
X57587097Y-114516400D01*
X57429507Y-114516400D01*
X57274950Y-114485657D01*
X57129361Y-114425352D01*
X56998329Y-114337799D01*
X56886903Y-114226373D01*
X56799350Y-114095341D01*
X56739045Y-113949752D01*
X56708302Y-113795195D01*
X56708302Y-113637605D01*
X56739045Y-113483048D01*
X56799350Y-113337459D01*
X56886903Y-113206427D01*
X56998329Y-113095001D01*
X57129361Y-113007448D01*
X57274950Y-112947143D01*
X57429507Y-112916400D01*
X57587097Y-112916400D01*
X57741654Y-112947143D01*
X57741654Y-112947143D01*
G37*
G36*
X59741654Y-112947143D02*
X59887243Y-113007448D01*
X60018275Y-113095001D01*
X60129701Y-113206427D01*
X60217254Y-113337459D01*
X60277559Y-113483048D01*
X60308302Y-113637605D01*
X60308302Y-113795195D01*
X60277559Y-113949752D01*
X60217254Y-114095341D01*
X60129701Y-114226373D01*
X60018275Y-114337799D01*
X59887243Y-114425352D01*
X59741654Y-114485657D01*
X59587097Y-114516400D01*
X59429507Y-114516400D01*
X59274950Y-114485657D01*
X59129361Y-114425352D01*
X58998329Y-114337799D01*
X58886903Y-114226373D01*
X58799350Y-114095341D01*
X58739045Y-113949752D01*
X58708302Y-113795195D01*
X58708302Y-113637605D01*
X58739045Y-113483048D01*
X58799350Y-113337459D01*
X58886903Y-113206427D01*
X58998329Y-113095001D01*
X59129361Y-113007448D01*
X59274950Y-112947143D01*
X59429507Y-112916400D01*
X59587097Y-112916400D01*
X59741654Y-112947143D01*
X59741654Y-112947143D01*
G37*
G36*
X70241654Y-112947143D02*
X70387243Y-113007448D01*
X70518275Y-113095001D01*
X70629701Y-113206427D01*
X70717254Y-113337459D01*
X70777559Y-113483048D01*
X70808302Y-113637605D01*
X70808302Y-113795195D01*
X70777559Y-113949752D01*
X70717254Y-114095341D01*
X70629701Y-114226373D01*
X70518275Y-114337799D01*
X70387243Y-114425352D01*
X70241654Y-114485657D01*
X70087097Y-114516400D01*
X69929507Y-114516400D01*
X69774950Y-114485657D01*
X69629361Y-114425352D01*
X69498329Y-114337799D01*
X69386903Y-114226373D01*
X69299350Y-114095341D01*
X69239045Y-113949752D01*
X69208302Y-113795195D01*
X69208302Y-113637605D01*
X69239045Y-113483048D01*
X69299350Y-113337459D01*
X69386903Y-113206427D01*
X69498329Y-113095001D01*
X69629361Y-113007448D01*
X69774950Y-112947143D01*
X69929507Y-112916400D01*
X70087097Y-112916400D01*
X70241654Y-112947143D01*
X70241654Y-112947143D01*
G37*
G36*
X68241654Y-112947143D02*
X68387243Y-113007448D01*
X68518275Y-113095001D01*
X68629701Y-113206427D01*
X68717254Y-113337459D01*
X68777559Y-113483048D01*
X68808302Y-113637605D01*
X68808302Y-113795195D01*
X68777559Y-113949752D01*
X68717254Y-114095341D01*
X68629701Y-114226373D01*
X68518275Y-114337799D01*
X68387243Y-114425352D01*
X68241654Y-114485657D01*
X68087097Y-114516400D01*
X67929507Y-114516400D01*
X67774950Y-114485657D01*
X67629361Y-114425352D01*
X67498329Y-114337799D01*
X67386903Y-114226373D01*
X67299350Y-114095341D01*
X67239045Y-113949752D01*
X67208302Y-113795195D01*
X67208302Y-113637605D01*
X67239045Y-113483048D01*
X67299350Y-113337459D01*
X67386903Y-113206427D01*
X67498329Y-113095001D01*
X67629361Y-113007448D01*
X67774950Y-112947143D01*
X67929507Y-112916400D01*
X68087097Y-112916400D01*
X68241654Y-112947143D01*
X68241654Y-112947143D01*
G37*
G36*
X66241654Y-112947143D02*
X66387243Y-113007448D01*
X66518275Y-113095001D01*
X66629701Y-113206427D01*
X66717254Y-113337459D01*
X66777559Y-113483048D01*
X66808302Y-113637605D01*
X66808302Y-113795195D01*
X66777559Y-113949752D01*
X66717254Y-114095341D01*
X66629701Y-114226373D01*
X66518275Y-114337799D01*
X66387243Y-114425352D01*
X66241654Y-114485657D01*
X66087097Y-114516400D01*
X65929507Y-114516400D01*
X65774950Y-114485657D01*
X65629361Y-114425352D01*
X65498329Y-114337799D01*
X65386903Y-114226373D01*
X65299350Y-114095341D01*
X65239045Y-113949752D01*
X65208302Y-113795195D01*
X65208302Y-113637605D01*
X65239045Y-113483048D01*
X65299350Y-113337459D01*
X65386903Y-113206427D01*
X65498329Y-113095001D01*
X65629361Y-113007448D01*
X65774950Y-112947143D01*
X65929507Y-112916400D01*
X66087097Y-112916400D01*
X66241654Y-112947143D01*
X66241654Y-112947143D01*
G37*
G36*
X97033314Y-112139457D02*
X97142509Y-112184687D01*
X97240783Y-112250352D01*
X97324350Y-112333919D01*
X97390015Y-112432193D01*
X97435245Y-112541388D01*
X97458302Y-112657304D01*
X97458302Y-112775496D01*
X97435245Y-112891412D01*
X97390015Y-113000607D01*
X97324350Y-113098881D01*
X97240783Y-113182448D01*
X97142509Y-113248113D01*
X97033314Y-113293343D01*
X96917398Y-113316400D01*
X96799206Y-113316400D01*
X96683290Y-113293343D01*
X96574095Y-113248113D01*
X96475821Y-113182448D01*
X96392254Y-113098881D01*
X96326589Y-113000607D01*
X96281359Y-112891412D01*
X96258302Y-112775496D01*
X96258302Y-112657304D01*
X96281359Y-112541388D01*
X96326589Y-112432193D01*
X96392254Y-112333919D01*
X96475821Y-112250352D01*
X96574095Y-112184687D01*
X96683290Y-112139457D01*
X96799206Y-112116400D01*
X96917398Y-112116400D01*
X97033314Y-112139457D01*
X97033314Y-112139457D01*
G37*
G36*
X94991654Y-110447143D02*
X95137243Y-110507448D01*
X95268275Y-110595001D01*
X95379701Y-110706427D01*
X95467254Y-110837459D01*
X95527559Y-110983048D01*
X95558302Y-111137605D01*
X95558302Y-111295195D01*
X95527559Y-111449752D01*
X95467254Y-111595341D01*
X95379701Y-111726373D01*
X95268275Y-111837799D01*
X95137243Y-111925352D01*
X94991654Y-111985657D01*
X94837097Y-112016400D01*
X94679507Y-112016400D01*
X94524950Y-111985657D01*
X94379361Y-111925352D01*
X94248329Y-111837799D01*
X94136903Y-111726373D01*
X94049350Y-111595341D01*
X93989045Y-111449752D01*
X93958302Y-111295195D01*
X93958302Y-111137605D01*
X93989045Y-110983048D01*
X94049350Y-110837459D01*
X94136903Y-110706427D01*
X94248329Y-110595001D01*
X94379361Y-110507448D01*
X94524950Y-110447143D01*
X94679507Y-110416400D01*
X94837097Y-110416400D01*
X94991654Y-110447143D01*
X94991654Y-110447143D01*
G37*
G36*
X94991654Y-108447143D02*
X95137243Y-108507448D01*
X95268275Y-108595001D01*
X95379701Y-108706427D01*
X95467254Y-108837459D01*
X95527559Y-108983048D01*
X95558302Y-109137605D01*
X95558302Y-109295195D01*
X95527559Y-109449752D01*
X95467254Y-109595341D01*
X95379701Y-109726373D01*
X95268275Y-109837799D01*
X95137243Y-109925352D01*
X94991654Y-109985657D01*
X94837097Y-110016400D01*
X94679507Y-110016400D01*
X94524950Y-109985657D01*
X94379361Y-109925352D01*
X94248329Y-109837799D01*
X94136903Y-109726373D01*
X94049350Y-109595341D01*
X93989045Y-109449752D01*
X93958302Y-109295195D01*
X93958302Y-109137605D01*
X93989045Y-108983048D01*
X94049350Y-108837459D01*
X94136903Y-108706427D01*
X94248329Y-108595001D01*
X94379361Y-108507448D01*
X94524950Y-108447143D01*
X94679507Y-108416400D01*
X94837097Y-108416400D01*
X94991654Y-108447143D01*
X94991654Y-108447143D01*
G37*
G36*
X97033314Y-107139457D02*
X97142509Y-107184687D01*
X97240783Y-107250352D01*
X97324350Y-107333919D01*
X97390015Y-107432193D01*
X97435245Y-107541388D01*
X97458302Y-107657304D01*
X97458302Y-107775496D01*
X97435245Y-107891412D01*
X97390015Y-108000607D01*
X97324350Y-108098881D01*
X97240783Y-108182448D01*
X97142509Y-108248113D01*
X97033314Y-108293343D01*
X96917398Y-108316400D01*
X96799206Y-108316400D01*
X96683290Y-108293343D01*
X96574095Y-108248113D01*
X96475821Y-108182448D01*
X96392254Y-108098881D01*
X96326589Y-108000607D01*
X96281359Y-107891412D01*
X96258302Y-107775496D01*
X96258302Y-107657304D01*
X96281359Y-107541388D01*
X96326589Y-107432193D01*
X96392254Y-107333919D01*
X96475821Y-107250352D01*
X96574095Y-107184687D01*
X96683290Y-107139457D01*
X96799206Y-107116400D01*
X96917398Y-107116400D01*
X97033314Y-107139457D01*
X97033314Y-107139457D01*
G37*
G36*
X28935066Y-104098802D02*
X29057747Y-104123205D01*
X29288873Y-104218941D01*
X29496883Y-104357929D01*
X29673773Y-104534819D01*
X29673775Y-104534822D01*
X29812761Y-104742829D01*
X29908497Y-104973955D01*
X29957302Y-105219316D01*
X29957302Y-105469484D01*
X29908497Y-105714845D01*
X29812761Y-105945971D01*
X29673773Y-106153981D01*
X29496883Y-106330871D01*
X29496880Y-106330873D01*
X29288873Y-106469859D01*
X29057747Y-106565595D01*
X28935066Y-106589998D01*
X28812388Y-106614400D01*
X28562216Y-106614400D01*
X28439538Y-106589998D01*
X28316857Y-106565595D01*
X28085731Y-106469859D01*
X27877724Y-106330873D01*
X27877721Y-106330871D01*
X27700831Y-106153981D01*
X27561843Y-105945971D01*
X27466107Y-105714845D01*
X27417302Y-105469484D01*
X27417302Y-105219316D01*
X27466107Y-104973955D01*
X27561843Y-104742829D01*
X27700829Y-104534822D01*
X27700831Y-104534819D01*
X27877721Y-104357929D01*
X28085731Y-104218941D01*
X28316857Y-104123205D01*
X28439538Y-104098802D01*
X28562216Y-104074400D01*
X28812388Y-104074400D01*
X28935066Y-104098802D01*
X28935066Y-104098802D01*
G37*
G36*
X25463102Y-101949690D02*
X25732472Y-102003270D01*
X26028313Y-102125812D01*
X26294562Y-102303714D01*
X26520988Y-102530140D01*
X26698890Y-102796389D01*
X26821432Y-103092230D01*
X26883902Y-103406292D01*
X26883902Y-103726508D01*
X26821432Y-104040570D01*
X26698890Y-104336411D01*
X26520988Y-104602660D01*
X26294562Y-104829086D01*
X26028313Y-105006988D01*
X25732472Y-105129530D01*
X25463102Y-105183110D01*
X25418411Y-105192000D01*
X25098193Y-105192000D01*
X25053502Y-105183110D01*
X24784132Y-105129530D01*
X24488291Y-105006988D01*
X24222042Y-104829086D01*
X23995616Y-104602660D01*
X23817714Y-104336411D01*
X23695172Y-104040570D01*
X23632702Y-103726508D01*
X23632702Y-103406292D01*
X23695172Y-103092230D01*
X23817714Y-102796389D01*
X23995616Y-102530140D01*
X24222042Y-102303714D01*
X24488291Y-102125812D01*
X24784132Y-102003270D01*
X25053502Y-101949690D01*
X25098193Y-101940800D01*
X25418411Y-101940800D01*
X25463102Y-101949690D01*
X25463102Y-101949690D01*
G37*
G36*
X96935005Y-101697886D02*
X97226185Y-101818497D01*
X97488246Y-101993601D01*
X97711101Y-102216456D01*
X97886205Y-102478517D01*
X98006816Y-102769697D01*
X98068302Y-103078812D01*
X98068302Y-103393988D01*
X98006816Y-103703103D01*
X97886205Y-103994283D01*
X97711101Y-104256344D01*
X97488246Y-104479199D01*
X97226185Y-104654303D01*
X96935005Y-104774914D01*
X96625890Y-104836400D01*
X96310714Y-104836400D01*
X96001599Y-104774914D01*
X95710419Y-104654303D01*
X95448358Y-104479199D01*
X95225503Y-104256344D01*
X95050399Y-103994283D01*
X94929788Y-103703103D01*
X94868302Y-103393988D01*
X94868302Y-103078812D01*
X94929788Y-102769697D01*
X95050399Y-102478517D01*
X95225503Y-102216456D01*
X95448358Y-101993601D01*
X95710419Y-101818497D01*
X96001599Y-101697886D01*
X96310714Y-101636400D01*
X96625890Y-101636400D01*
X96935005Y-101697886D01*
X96935005Y-101697886D01*
G37*
G36*
X34606485Y-103401300D02*
X34733876Y-103454068D01*
X34848527Y-103530675D01*
X34946027Y-103628175D01*
X35022634Y-103742826D01*
X35075402Y-103870217D01*
X35102302Y-104005455D01*
X35102302Y-104143345D01*
X35075402Y-104278583D01*
X35022634Y-104405974D01*
X34946027Y-104520625D01*
X34848527Y-104618125D01*
X34733876Y-104694732D01*
X34606485Y-104747500D01*
X34471247Y-104774400D01*
X34333357Y-104774400D01*
X34198119Y-104747500D01*
X34070728Y-104694732D01*
X33956077Y-104618125D01*
X33858577Y-104520625D01*
X33781970Y-104405974D01*
X33729202Y-104278583D01*
X33702302Y-104143345D01*
X33702302Y-104005455D01*
X33729202Y-103870217D01*
X33781970Y-103742826D01*
X33858577Y-103628175D01*
X33956077Y-103530675D01*
X34070728Y-103454068D01*
X34198119Y-103401300D01*
X34333357Y-103374400D01*
X34471247Y-103374400D01*
X34606485Y-103401300D01*
X34606485Y-103401300D01*
G37*
G36*
X34606485Y-101115300D02*
X34733876Y-101168068D01*
X34809541Y-101218625D01*
X34848527Y-101244675D01*
X34946027Y-101342175D01*
X35022634Y-101456826D01*
X35075402Y-101584217D01*
X35102302Y-101719455D01*
X35102302Y-101857345D01*
X35075402Y-101992583D01*
X35022634Y-102119974D01*
X34946027Y-102234625D01*
X34848527Y-102332125D01*
X34733876Y-102408732D01*
X34606485Y-102461500D01*
X34471247Y-102488400D01*
X34333357Y-102488400D01*
X34198119Y-102461500D01*
X34070728Y-102408732D01*
X33956077Y-102332125D01*
X33858577Y-102234625D01*
X33781970Y-102119974D01*
X33729202Y-101992583D01*
X33702302Y-101857345D01*
X33702302Y-101719455D01*
X33729202Y-101584217D01*
X33781970Y-101456826D01*
X33858577Y-101342175D01*
X33956077Y-101244675D01*
X33995064Y-101218625D01*
X34070728Y-101168068D01*
X34198119Y-101115300D01*
X34333357Y-101088400D01*
X34471247Y-101088400D01*
X34606485Y-101115300D01*
X34606485Y-101115300D01*
G37*
G36*
X28002485Y-100099300D02*
X28129876Y-100152068D01*
X28205541Y-100202625D01*
X28244527Y-100228675D01*
X28342027Y-100326175D01*
X28418634Y-100440826D01*
X28471402Y-100568217D01*
X28498302Y-100703455D01*
X28498302Y-100841345D01*
X28471402Y-100976583D01*
X28425085Y-101088400D01*
X28418634Y-101103974D01*
X28342028Y-101218624D01*
X28244526Y-101316126D01*
X28205539Y-101342176D01*
X28129876Y-101392732D01*
X28002485Y-101445500D01*
X27867247Y-101472400D01*
X27729357Y-101472400D01*
X27594119Y-101445500D01*
X27466728Y-101392732D01*
X27391065Y-101342176D01*
X27352078Y-101316126D01*
X27254576Y-101218624D01*
X27177970Y-101103974D01*
X27171519Y-101088400D01*
X27125202Y-100976583D01*
X27098302Y-100841345D01*
X27098302Y-100703455D01*
X27125202Y-100568217D01*
X27177970Y-100440826D01*
X27254577Y-100326175D01*
X27352077Y-100228675D01*
X27391064Y-100202625D01*
X27466728Y-100152068D01*
X27594119Y-100099300D01*
X27729357Y-100072400D01*
X27867247Y-100072400D01*
X28002485Y-100099300D01*
X28002485Y-100099300D01*
G37*
G36*
X29780485Y-99083300D02*
X29895740Y-99131041D01*
X29907876Y-99136068D01*
X29983541Y-99186625D01*
X30022527Y-99212675D01*
X30120027Y-99310175D01*
X30196634Y-99424826D01*
X30249402Y-99552217D01*
X30276302Y-99687455D01*
X30276302Y-99825345D01*
X30249402Y-99960583D01*
X30203085Y-100072400D01*
X30196634Y-100087974D01*
X30120028Y-100202624D01*
X30022526Y-100300126D01*
X29983539Y-100326176D01*
X29907876Y-100376732D01*
X29780485Y-100429500D01*
X29645247Y-100456400D01*
X29507357Y-100456400D01*
X29372119Y-100429500D01*
X29244728Y-100376732D01*
X29169065Y-100326176D01*
X29130078Y-100300126D01*
X29032576Y-100202624D01*
X28955970Y-100087974D01*
X28949519Y-100072400D01*
X28903202Y-99960583D01*
X28876302Y-99825345D01*
X28876302Y-99687455D01*
X28903202Y-99552217D01*
X28955970Y-99424826D01*
X29032577Y-99310175D01*
X29130077Y-99212675D01*
X29169064Y-99186625D01*
X29244728Y-99136068D01*
X29256864Y-99131041D01*
X29372119Y-99083300D01*
X29507357Y-99056400D01*
X29645247Y-99056400D01*
X29780485Y-99083300D01*
X29780485Y-99083300D01*
G37*
G36*
X28002485Y-98067300D02*
X28129876Y-98120068D01*
X28205541Y-98170625D01*
X28244527Y-98196675D01*
X28342027Y-98294175D01*
X28418634Y-98408826D01*
X28471402Y-98536217D01*
X28498302Y-98671455D01*
X28498302Y-98809345D01*
X28471402Y-98944583D01*
X28425085Y-99056400D01*
X28418634Y-99071974D01*
X28342028Y-99186624D01*
X28244526Y-99284126D01*
X28205539Y-99310176D01*
X28129876Y-99360732D01*
X28002485Y-99413500D01*
X27867247Y-99440400D01*
X27729357Y-99440400D01*
X27594119Y-99413500D01*
X27466728Y-99360732D01*
X27391065Y-99310176D01*
X27352078Y-99284126D01*
X27254576Y-99186624D01*
X27177970Y-99071974D01*
X27171519Y-99056400D01*
X27125202Y-98944583D01*
X27098302Y-98809345D01*
X27098302Y-98671455D01*
X27125202Y-98536217D01*
X27177970Y-98408826D01*
X27254577Y-98294175D01*
X27352077Y-98196675D01*
X27391064Y-98170625D01*
X27466728Y-98120068D01*
X27594119Y-98067300D01*
X27729357Y-98040400D01*
X27867247Y-98040400D01*
X28002485Y-98067300D01*
X28002485Y-98067300D01*
G37*
G36*
X93904620Y-97730811D02*
X93977069Y-97745222D01*
X94033605Y-97768640D01*
X94113559Y-97801758D01*
X94236402Y-97883839D01*
X94340863Y-97988300D01*
X94422944Y-98111143D01*
X94479480Y-98247634D01*
X94508302Y-98392530D01*
X94508302Y-98540270D01*
X94479480Y-98685166D01*
X94422944Y-98821657D01*
X94340863Y-98944500D01*
X94236402Y-99048961D01*
X94113559Y-99131042D01*
X94033605Y-99164160D01*
X93977069Y-99187578D01*
X93904620Y-99201989D01*
X93832172Y-99216400D01*
X93684432Y-99216400D01*
X93611984Y-99201989D01*
X93539535Y-99187578D01*
X93482999Y-99164160D01*
X93403045Y-99131042D01*
X93280202Y-99048961D01*
X93175741Y-98944500D01*
X93093660Y-98821657D01*
X93037124Y-98685166D01*
X93008302Y-98540270D01*
X93008302Y-98392530D01*
X93037124Y-98247634D01*
X93093660Y-98111143D01*
X93175741Y-97988300D01*
X93280202Y-97883839D01*
X93403045Y-97801758D01*
X93482999Y-97768640D01*
X93539535Y-97745222D01*
X93611984Y-97730811D01*
X93684432Y-97716400D01*
X93832172Y-97716400D01*
X93904620Y-97730811D01*
X93904620Y-97730811D01*
G37*
G36*
X91904620Y-97730811D02*
X91977069Y-97745222D01*
X92033605Y-97768640D01*
X92113559Y-97801758D01*
X92236402Y-97883839D01*
X92340863Y-97988300D01*
X92422944Y-98111143D01*
X92479480Y-98247634D01*
X92508302Y-98392530D01*
X92508302Y-98540270D01*
X92479480Y-98685166D01*
X92422944Y-98821657D01*
X92340863Y-98944500D01*
X92236402Y-99048961D01*
X92113559Y-99131042D01*
X92033605Y-99164160D01*
X91977069Y-99187578D01*
X91904620Y-99201989D01*
X91832172Y-99216400D01*
X91684432Y-99216400D01*
X91611984Y-99201989D01*
X91539535Y-99187578D01*
X91482999Y-99164160D01*
X91403045Y-99131042D01*
X91280202Y-99048961D01*
X91175741Y-98944500D01*
X91093660Y-98821657D01*
X91037124Y-98685166D01*
X91008302Y-98540270D01*
X91008302Y-98392530D01*
X91037124Y-98247634D01*
X91093660Y-98111143D01*
X91175741Y-97988300D01*
X91280202Y-97883839D01*
X91403045Y-97801758D01*
X91482999Y-97768640D01*
X91539535Y-97745222D01*
X91611984Y-97730811D01*
X91684432Y-97716400D01*
X91832172Y-97716400D01*
X91904620Y-97730811D01*
X91904620Y-97730811D01*
G37*
G36*
X29780485Y-97051300D02*
X29907876Y-97104068D01*
X29983541Y-97154625D01*
X30022527Y-97180675D01*
X30120027Y-97278175D01*
X30196634Y-97392826D01*
X30249402Y-97520217D01*
X30276302Y-97655455D01*
X30276302Y-97793345D01*
X30249402Y-97928583D01*
X30203085Y-98040400D01*
X30196634Y-98055974D01*
X30120028Y-98170624D01*
X30022526Y-98268126D01*
X29983539Y-98294176D01*
X29907876Y-98344732D01*
X29780485Y-98397500D01*
X29645247Y-98424400D01*
X29507357Y-98424400D01*
X29372119Y-98397500D01*
X29244728Y-98344732D01*
X29169065Y-98294176D01*
X29130078Y-98268126D01*
X29032576Y-98170624D01*
X28955970Y-98055974D01*
X28949519Y-98040400D01*
X28903202Y-97928583D01*
X28876302Y-97793345D01*
X28876302Y-97655455D01*
X28903202Y-97520217D01*
X28955970Y-97392826D01*
X29032577Y-97278175D01*
X29130077Y-97180675D01*
X29169064Y-97154625D01*
X29244728Y-97104068D01*
X29372119Y-97051300D01*
X29507357Y-97024400D01*
X29645247Y-97024400D01*
X29780485Y-97051300D01*
X29780485Y-97051300D01*
G37*
G36*
X28002485Y-96035300D02*
X28129876Y-96088068D01*
X28244526Y-96164674D01*
X28342028Y-96262176D01*
X28381772Y-96321658D01*
X28418634Y-96376826D01*
X28471402Y-96504217D01*
X28498302Y-96639455D01*
X28498302Y-96777345D01*
X28471402Y-96912583D01*
X28425085Y-97024400D01*
X28418634Y-97039974D01*
X28342028Y-97154624D01*
X28244526Y-97252126D01*
X28205539Y-97278176D01*
X28129876Y-97328732D01*
X28002485Y-97381500D01*
X27867247Y-97408400D01*
X27729357Y-97408400D01*
X27594119Y-97381500D01*
X27466728Y-97328732D01*
X27391065Y-97278176D01*
X27352078Y-97252126D01*
X27254576Y-97154624D01*
X27177970Y-97039974D01*
X27171519Y-97024400D01*
X27125202Y-96912583D01*
X27098302Y-96777345D01*
X27098302Y-96639455D01*
X27125202Y-96504217D01*
X27177970Y-96376826D01*
X27214832Y-96321658D01*
X27254576Y-96262176D01*
X27352078Y-96164674D01*
X27466728Y-96088068D01*
X27594119Y-96035300D01*
X27729357Y-96008400D01*
X27867247Y-96008400D01*
X28002485Y-96035300D01*
X28002485Y-96035300D01*
G37*
G36*
X93904620Y-95230811D02*
X93977069Y-95245222D01*
X94033605Y-95268640D01*
X94113559Y-95301758D01*
X94236402Y-95383839D01*
X94340863Y-95488300D01*
X94422944Y-95611143D01*
X94479480Y-95747634D01*
X94508302Y-95892530D01*
X94508302Y-96040270D01*
X94479480Y-96185166D01*
X94422944Y-96321657D01*
X94340863Y-96444500D01*
X94236402Y-96548961D01*
X94113559Y-96631042D01*
X94033605Y-96664160D01*
X93977069Y-96687578D01*
X93904620Y-96701989D01*
X93832172Y-96716400D01*
X93684432Y-96716400D01*
X93611984Y-96701989D01*
X93539535Y-96687578D01*
X93482999Y-96664160D01*
X93403045Y-96631042D01*
X93280202Y-96548961D01*
X93175741Y-96444500D01*
X93093660Y-96321657D01*
X93037124Y-96185166D01*
X93008302Y-96040270D01*
X93008302Y-95892530D01*
X93037124Y-95747634D01*
X93093660Y-95611143D01*
X93175741Y-95488300D01*
X93280202Y-95383839D01*
X93403045Y-95301758D01*
X93482999Y-95268640D01*
X93539535Y-95245222D01*
X93611984Y-95230811D01*
X93684432Y-95216400D01*
X93832172Y-95216400D01*
X93904620Y-95230811D01*
X93904620Y-95230811D01*
G37*
G36*
X91904620Y-95230811D02*
X91977069Y-95245222D01*
X92033605Y-95268640D01*
X92113559Y-95301758D01*
X92236402Y-95383839D01*
X92340863Y-95488300D01*
X92422944Y-95611143D01*
X92479480Y-95747634D01*
X92508302Y-95892530D01*
X92508302Y-96040270D01*
X92479480Y-96185166D01*
X92422944Y-96321657D01*
X92340863Y-96444500D01*
X92236402Y-96548961D01*
X92113559Y-96631042D01*
X92033605Y-96664160D01*
X91977069Y-96687578D01*
X91904620Y-96701989D01*
X91832172Y-96716400D01*
X91684432Y-96716400D01*
X91611984Y-96701989D01*
X91539535Y-96687578D01*
X91482999Y-96664160D01*
X91403045Y-96631042D01*
X91280202Y-96548961D01*
X91175741Y-96444500D01*
X91093660Y-96321657D01*
X91037124Y-96185166D01*
X91008302Y-96040270D01*
X91008302Y-95892530D01*
X91037124Y-95747634D01*
X91093660Y-95611143D01*
X91175741Y-95488300D01*
X91280202Y-95383839D01*
X91403045Y-95301758D01*
X91482999Y-95268640D01*
X91539535Y-95245222D01*
X91611984Y-95230811D01*
X91684432Y-95216400D01*
X91832172Y-95216400D01*
X91904620Y-95230811D01*
X91904620Y-95230811D01*
G37*
G36*
X29780485Y-95019300D02*
X29907876Y-95072068D01*
X29983541Y-95122625D01*
X30022527Y-95148675D01*
X30120027Y-95246175D01*
X30196634Y-95360826D01*
X30249402Y-95488217D01*
X30276302Y-95623455D01*
X30276302Y-95761345D01*
X30249402Y-95896583D01*
X30203085Y-96008400D01*
X30196634Y-96023974D01*
X30120028Y-96138624D01*
X30022526Y-96236126D01*
X29983539Y-96262176D01*
X29907876Y-96312732D01*
X29780485Y-96365500D01*
X29645247Y-96392400D01*
X29507357Y-96392400D01*
X29372119Y-96365500D01*
X29244728Y-96312732D01*
X29169065Y-96262176D01*
X29130078Y-96236126D01*
X29032576Y-96138624D01*
X28955970Y-96023974D01*
X28949519Y-96008400D01*
X28903202Y-95896583D01*
X28876302Y-95761345D01*
X28876302Y-95623455D01*
X28903202Y-95488217D01*
X28955970Y-95360826D01*
X29032577Y-95246175D01*
X29130077Y-95148675D01*
X29169064Y-95122625D01*
X29244728Y-95072068D01*
X29372119Y-95019300D01*
X29507357Y-94992400D01*
X29645247Y-94992400D01*
X29780485Y-95019300D01*
X29780485Y-95019300D01*
G37*
G36*
X28002485Y-94003300D02*
X28129876Y-94056068D01*
X28205541Y-94106625D01*
X28244527Y-94132675D01*
X28342027Y-94230175D01*
X28418634Y-94344826D01*
X28471402Y-94472217D01*
X28498302Y-94607455D01*
X28498302Y-94745345D01*
X28471402Y-94880583D01*
X28425085Y-94992400D01*
X28418634Y-95007974D01*
X28342028Y-95122624D01*
X28244526Y-95220126D01*
X28205539Y-95246176D01*
X28129876Y-95296732D01*
X28002485Y-95349500D01*
X27867247Y-95376400D01*
X27729357Y-95376400D01*
X27594119Y-95349500D01*
X27466728Y-95296732D01*
X27391065Y-95246176D01*
X27352078Y-95220126D01*
X27254576Y-95122624D01*
X27177970Y-95007974D01*
X27171519Y-94992400D01*
X27125202Y-94880583D01*
X27098302Y-94745345D01*
X27098302Y-94607455D01*
X27125202Y-94472217D01*
X27177970Y-94344826D01*
X27254577Y-94230175D01*
X27352077Y-94132675D01*
X27391064Y-94106625D01*
X27466728Y-94056068D01*
X27594119Y-94003300D01*
X27729357Y-93976400D01*
X27867247Y-93976400D01*
X28002485Y-94003300D01*
X28002485Y-94003300D01*
G37*
G36*
X29780485Y-92987300D02*
X29907876Y-93040068D01*
X29983541Y-93090625D01*
X30022527Y-93116675D01*
X30120027Y-93214175D01*
X30196634Y-93328826D01*
X30249402Y-93456217D01*
X30276302Y-93591455D01*
X30276302Y-93729345D01*
X30249402Y-93864583D01*
X30203085Y-93976400D01*
X30196634Y-93991974D01*
X30120028Y-94106624D01*
X30022526Y-94204126D01*
X29983539Y-94230176D01*
X29907876Y-94280732D01*
X29780485Y-94333500D01*
X29645247Y-94360400D01*
X29507357Y-94360400D01*
X29372119Y-94333500D01*
X29244728Y-94280732D01*
X29169065Y-94230176D01*
X29130078Y-94204126D01*
X29032576Y-94106624D01*
X28955970Y-93991974D01*
X28949519Y-93976400D01*
X28903202Y-93864583D01*
X28876302Y-93729345D01*
X28876302Y-93591455D01*
X28903202Y-93456217D01*
X28955970Y-93328826D01*
X29032577Y-93214175D01*
X29130077Y-93116675D01*
X29169064Y-93090625D01*
X29244728Y-93040068D01*
X29372119Y-92987300D01*
X29507357Y-92960400D01*
X29645247Y-92960400D01*
X29780485Y-92987300D01*
X29780485Y-92987300D01*
G37*
G36*
X34606485Y-91971300D02*
X34733876Y-92024068D01*
X34848527Y-92100675D01*
X34946027Y-92198175D01*
X35022634Y-92312826D01*
X35075402Y-92440217D01*
X35102302Y-92575455D01*
X35102302Y-92713345D01*
X35075402Y-92848583D01*
X35029085Y-92960400D01*
X35022634Y-92975974D01*
X34946028Y-93090624D01*
X34848526Y-93188126D01*
X34809539Y-93214176D01*
X34733876Y-93264732D01*
X34606485Y-93317500D01*
X34471247Y-93344400D01*
X34333357Y-93344400D01*
X34198119Y-93317500D01*
X34070728Y-93264732D01*
X33995065Y-93214176D01*
X33956078Y-93188126D01*
X33858576Y-93090624D01*
X33781970Y-92975974D01*
X33775519Y-92960400D01*
X33729202Y-92848583D01*
X33702302Y-92713345D01*
X33702302Y-92575455D01*
X33729202Y-92440217D01*
X33781970Y-92312826D01*
X33858577Y-92198175D01*
X33956077Y-92100675D01*
X34070728Y-92024068D01*
X34198119Y-91971300D01*
X34333357Y-91944400D01*
X34471247Y-91944400D01*
X34606485Y-91971300D01*
X34606485Y-91971300D01*
G37*
G36*
X96935005Y-89657886D02*
X97226185Y-89778497D01*
X97488246Y-89953601D01*
X97711101Y-90176456D01*
X97886205Y-90438517D01*
X98006816Y-90729697D01*
X98068302Y-91038812D01*
X98068302Y-91353988D01*
X98006816Y-91663103D01*
X97886205Y-91954283D01*
X97711101Y-92216344D01*
X97488246Y-92439199D01*
X97226185Y-92614303D01*
X96935005Y-92734914D01*
X96625890Y-92796400D01*
X96310714Y-92796400D01*
X96001599Y-92734914D01*
X95710419Y-92614303D01*
X95448358Y-92439199D01*
X95225503Y-92216344D01*
X95050399Y-91954283D01*
X94929788Y-91663103D01*
X94868302Y-91353988D01*
X94868302Y-91038812D01*
X94929788Y-90729697D01*
X95050399Y-90438517D01*
X95225503Y-90176456D01*
X95448358Y-89953601D01*
X95710419Y-89778497D01*
X96001599Y-89657886D01*
X96310714Y-89596400D01*
X96625890Y-89596400D01*
X96935005Y-89657886D01*
X96935005Y-89657886D01*
G37*
G36*
X25463102Y-89249690D02*
X25732472Y-89303270D01*
X26028313Y-89425812D01*
X26294562Y-89603714D01*
X26520988Y-89830140D01*
X26698890Y-90096389D01*
X26821432Y-90392230D01*
X26883902Y-90706292D01*
X26883902Y-91026508D01*
X26821432Y-91340570D01*
X26698890Y-91636411D01*
X26520988Y-91902660D01*
X26294562Y-92129086D01*
X26028313Y-92306988D01*
X25732472Y-92429530D01*
X25463102Y-92483110D01*
X25418411Y-92492000D01*
X25098193Y-92492000D01*
X25053502Y-92483110D01*
X24784132Y-92429530D01*
X24488291Y-92306988D01*
X24222042Y-92129086D01*
X23995616Y-91902660D01*
X23817714Y-91636411D01*
X23695172Y-91340570D01*
X23632702Y-91026508D01*
X23632702Y-90706292D01*
X23695172Y-90392230D01*
X23817714Y-90096389D01*
X23995616Y-89830140D01*
X24222042Y-89603714D01*
X24488291Y-89425812D01*
X24784132Y-89303270D01*
X25053502Y-89249690D01*
X25098193Y-89240800D01*
X25418411Y-89240800D01*
X25463102Y-89249690D01*
X25463102Y-89249690D01*
G37*
G36*
X34606485Y-89685300D02*
X34733876Y-89738068D01*
X34848527Y-89814675D01*
X34946027Y-89912175D01*
X35022634Y-90026826D01*
X35075402Y-90154217D01*
X35102302Y-90289455D01*
X35102302Y-90427345D01*
X35075402Y-90562583D01*
X35022634Y-90689974D01*
X34946027Y-90804625D01*
X34848527Y-90902125D01*
X34733876Y-90978732D01*
X34606485Y-91031500D01*
X34471247Y-91058400D01*
X34333357Y-91058400D01*
X34198119Y-91031500D01*
X34070728Y-90978732D01*
X33956077Y-90902125D01*
X33858577Y-90804625D01*
X33781970Y-90689974D01*
X33729202Y-90562583D01*
X33702302Y-90427345D01*
X33702302Y-90289455D01*
X33729202Y-90154217D01*
X33781970Y-90026826D01*
X33858577Y-89912175D01*
X33956077Y-89814675D01*
X34070728Y-89738068D01*
X34198119Y-89685300D01*
X34333357Y-89658400D01*
X34471247Y-89658400D01*
X34606485Y-89685300D01*
X34606485Y-89685300D01*
G37*
G36*
X28935067Y-87842803D02*
X29057747Y-87867205D01*
X29288873Y-87962941D01*
X29496883Y-88101929D01*
X29673773Y-88278819D01*
X29673775Y-88278822D01*
X29812761Y-88486829D01*
X29908497Y-88717955D01*
X29957302Y-88963316D01*
X29957302Y-89213484D01*
X29908497Y-89458845D01*
X29826051Y-89657886D01*
X29812761Y-89689971D01*
X29673773Y-89897981D01*
X29496883Y-90074871D01*
X29496880Y-90074873D01*
X29288873Y-90213859D01*
X29057747Y-90309595D01*
X28935067Y-90333997D01*
X28812388Y-90358400D01*
X28562216Y-90358400D01*
X28439537Y-90333997D01*
X28316857Y-90309595D01*
X28085731Y-90213859D01*
X27877724Y-90074873D01*
X27877721Y-90074871D01*
X27700831Y-89897981D01*
X27561843Y-89689971D01*
X27548553Y-89657886D01*
X27466107Y-89458845D01*
X27417302Y-89213484D01*
X27417302Y-88963316D01*
X27466107Y-88717955D01*
X27561843Y-88486829D01*
X27700829Y-88278822D01*
X27700831Y-88278819D01*
X27877721Y-88101929D01*
X28085731Y-87962941D01*
X28316857Y-87867205D01*
X28439537Y-87842803D01*
X28562216Y-87818400D01*
X28812388Y-87818400D01*
X28935067Y-87842803D01*
X28935067Y-87842803D01*
G37*
G36*
X77404147Y-81235615D02*
X77495141Y-81273306D01*
X77575942Y-81327296D01*
X77577036Y-81328027D01*
X77646675Y-81397666D01*
X77701397Y-81479563D01*
X77739087Y-81570555D01*
X77758302Y-81667155D01*
X77758302Y-81765645D01*
X77739087Y-81862245D01*
X77701397Y-81953237D01*
X77646675Y-82035134D01*
X77577036Y-82104773D01*
X77577033Y-82104775D01*
X77495141Y-82159494D01*
X77404147Y-82197185D01*
X77307548Y-82216400D01*
X77209056Y-82216400D01*
X77112457Y-82197185D01*
X77021463Y-82159494D01*
X76939571Y-82104775D01*
X76939568Y-82104773D01*
X76869929Y-82035134D01*
X76815207Y-81953237D01*
X76777517Y-81862245D01*
X76758302Y-81765645D01*
X76758302Y-81667155D01*
X76777517Y-81570555D01*
X76815207Y-81479563D01*
X76869929Y-81397666D01*
X76939568Y-81328027D01*
X76940662Y-81327296D01*
X77021463Y-81273306D01*
X77112457Y-81235615D01*
X77209056Y-81216400D01*
X77307548Y-81216400D01*
X77404147Y-81235615D01*
X77404147Y-81235615D01*
G37*
G36*
X82484147Y-80219615D02*
X82575141Y-80257306D01*
X82655942Y-80311296D01*
X82657036Y-80312027D01*
X82726675Y-80381666D01*
X82781397Y-80463563D01*
X82819087Y-80554555D01*
X82838302Y-80651155D01*
X82838302Y-80749645D01*
X82819087Y-80846245D01*
X82781397Y-80937237D01*
X82726675Y-81019134D01*
X82657036Y-81088773D01*
X82657033Y-81088775D01*
X82575141Y-81143494D01*
X82484147Y-81181185D01*
X82387548Y-81200400D01*
X82289056Y-81200400D01*
X82192457Y-81181185D01*
X82101463Y-81143494D01*
X82019571Y-81088775D01*
X82019568Y-81088773D01*
X81949929Y-81019134D01*
X81895207Y-80937237D01*
X81857517Y-80846245D01*
X81838302Y-80749645D01*
X81838302Y-80651155D01*
X81857517Y-80554555D01*
X81895207Y-80463563D01*
X81949929Y-80381666D01*
X82019568Y-80312027D01*
X82020662Y-80311296D01*
X82101463Y-80257306D01*
X82192457Y-80219615D01*
X82289056Y-80200400D01*
X82387548Y-80200400D01*
X82484147Y-80219615D01*
X82484147Y-80219615D01*
G37*
G36*
X77404147Y-79203615D02*
X77495141Y-79241306D01*
X77575942Y-79295296D01*
X77577036Y-79296027D01*
X77646675Y-79365666D01*
X77701397Y-79447563D01*
X77739087Y-79538555D01*
X77758302Y-79635155D01*
X77758302Y-79733645D01*
X77739087Y-79830245D01*
X77701397Y-79921237D01*
X77646675Y-80003134D01*
X77577036Y-80072773D01*
X77577033Y-80072775D01*
X77495141Y-80127494D01*
X77404147Y-80165185D01*
X77307548Y-80184400D01*
X77209056Y-80184400D01*
X77112457Y-80165185D01*
X77021463Y-80127494D01*
X76939571Y-80072775D01*
X76939568Y-80072773D01*
X76869929Y-80003134D01*
X76815207Y-79921237D01*
X76777517Y-79830245D01*
X76758302Y-79733645D01*
X76758302Y-79635155D01*
X76777517Y-79538555D01*
X76815207Y-79447563D01*
X76869929Y-79365666D01*
X76939568Y-79296027D01*
X76940662Y-79295296D01*
X77021463Y-79241306D01*
X77112457Y-79203615D01*
X77209056Y-79184400D01*
X77307548Y-79184400D01*
X77404147Y-79203615D01*
X77404147Y-79203615D01*
G37*
G36*
X100155151Y-72583626D02*
X100677123Y-72687452D01*
X101250387Y-72924906D01*
X101766310Y-73269635D01*
X102205067Y-73708392D01*
X102549796Y-74224315D01*
X102787250Y-74797579D01*
X102908302Y-75406152D01*
X102908302Y-76026648D01*
X102787250Y-76635221D01*
X102549796Y-77208485D01*
X102205067Y-77724408D01*
X101766310Y-78163165D01*
X101250387Y-78507894D01*
X100677123Y-78745348D01*
X100155151Y-78849174D01*
X100068551Y-78866400D01*
X99448053Y-78866400D01*
X99361453Y-78849174D01*
X98839481Y-78745348D01*
X98266217Y-78507894D01*
X97750294Y-78163165D01*
X97311537Y-77724408D01*
X96966808Y-77208485D01*
X96729354Y-76635221D01*
X96608302Y-76026648D01*
X96608302Y-75406152D01*
X96729354Y-74797579D01*
X96966808Y-74224315D01*
X97311537Y-73708392D01*
X97750294Y-73269635D01*
X98266217Y-72924906D01*
X98839481Y-72687452D01*
X99361453Y-72583626D01*
X99448053Y-72566400D01*
X100068551Y-72566400D01*
X100155151Y-72583626D01*
X100155151Y-72583626D01*
G37*
G36*
X27155151Y-72583626D02*
X27677123Y-72687452D01*
X28250387Y-72924906D01*
X28766310Y-73269635D01*
X29205067Y-73708392D01*
X29549796Y-74224315D01*
X29787250Y-74797579D01*
X29908302Y-75406152D01*
X29908302Y-76026648D01*
X29787250Y-76635221D01*
X29549796Y-77208485D01*
X29205067Y-77724408D01*
X28766310Y-78163165D01*
X28250387Y-78507894D01*
X27677123Y-78745348D01*
X27155151Y-78849174D01*
X27068551Y-78866400D01*
X26448053Y-78866400D01*
X26361453Y-78849174D01*
X25839481Y-78745348D01*
X25266217Y-78507894D01*
X24750294Y-78163165D01*
X24311537Y-77724408D01*
X23966808Y-77208485D01*
X23729354Y-76635221D01*
X23608302Y-76026648D01*
X23608302Y-75406152D01*
X23729354Y-74797579D01*
X23966808Y-74224315D01*
X24311537Y-73708392D01*
X24750294Y-73269635D01*
X25266217Y-72924906D01*
X25839481Y-72687452D01*
X26361453Y-72583626D01*
X26448053Y-72566400D01*
X27068551Y-72566400D01*
X27155151Y-72583626D01*
X27155151Y-72583626D01*
G37*
M02*
