G04 #@! TF.GenerationSoftware,KiCad,Pcbnew,5.0.1-33cea8e~68~ubuntu18.04.1*
G04 #@! TF.CreationDate,2018-11-12T14:49:47+00:00*
G04 #@! TF.ProjectId,comms,636F6D6D732E6B696361645F70636200,rev?*
G04 #@! TF.SameCoordinates,Original*
G04 #@! TF.FileFunction,Copper,L1,Top,Signal*
G04 #@! TF.FilePolarity,Positive*
%FSLAX46Y46*%
G04 Gerber Fmt 4.6, Leading zero omitted, Abs format (unit mm)*
G04 Created by KiCad (PCBNEW 5.0.1-33cea8e~68~ubuntu18.04.1) date Mon 12 Nov 2018 14:49:47 GMT*
%MOMM*%
%LPD*%
G01*
G04 APERTURE LIST*
G04 #@! TA.AperFunction,SMDPad,CuDef*
%ADD10R,0.620000X0.620000*%
G04 #@! TD*
G04 #@! TA.AperFunction,ComponentPad*
%ADD11C,2.540000*%
G04 #@! TD*
G04 #@! TA.AperFunction,ComponentPad*
%ADD12C,1.400000*%
G04 #@! TD*
G04 #@! TA.AperFunction,SMDPad,CuDef*
%ADD13R,0.900000X0.750000*%
G04 #@! TD*
G04 #@! TA.AperFunction,SMDPad,CuDef*
%ADD14R,0.750000X0.900000*%
G04 #@! TD*
G04 #@! TA.AperFunction,SMDPad,CuDef*
%ADD15R,0.950000X1.000000*%
G04 #@! TD*
G04 #@! TA.AperFunction,SMDPad,CuDef*
%ADD16R,1.500000X0.300000*%
G04 #@! TD*
G04 #@! TA.AperFunction,SMDPad,CuDef*
%ADD17R,0.300000X1.500000*%
G04 #@! TD*
G04 #@! TA.AperFunction,SMDPad,CuDef*
%ADD18R,1.450000X0.450000*%
G04 #@! TD*
G04 #@! TA.AperFunction,SMDPad,CuDef*
%ADD19R,1.550000X0.600000*%
G04 #@! TD*
G04 #@! TA.AperFunction,ComponentPad*
%ADD20C,1.600000*%
G04 #@! TD*
G04 #@! TA.AperFunction,ComponentPad*
%ADD21C,1.500000*%
G04 #@! TD*
G04 #@! TA.AperFunction,ComponentPad*
%ADD22C,3.200000*%
G04 #@! TD*
G04 #@! TA.AperFunction,BGAPad,CuDef*
%ADD23C,0.787000*%
G04 #@! TD*
G04 #@! TA.AperFunction,SMDPad,CuDef*
%ADD24R,1.000000X0.950000*%
G04 #@! TD*
G04 #@! TA.AperFunction,BGAPad,CuDef*
%ADD25C,1.000000*%
G04 #@! TD*
G04 #@! TA.AperFunction,SMDPad,CuDef*
%ADD26R,0.950000X0.850000*%
G04 #@! TD*
G04 #@! TA.AperFunction,ViaPad*
%ADD27C,0.800000*%
G04 #@! TD*
G04 #@! TA.AperFunction,Conductor*
%ADD28C,0.200000*%
G04 #@! TD*
G04 #@! TA.AperFunction,Conductor*
%ADD29C,0.300000*%
G04 #@! TD*
G04 #@! TA.AperFunction,Conductor*
%ADD30C,0.350000*%
G04 #@! TD*
G04 #@! TA.AperFunction,Conductor*
%ADD31C,0.250000*%
G04 #@! TD*
G04 APERTURE END LIST*
D10*
G04 #@! TO.P,C6,1*
G04 #@! TO.N,GND*
X62258302Y-81166400D03*
G04 #@! TO.P,C6,2*
G04 #@! TO.N,3v3*
X62258302Y-82066400D03*
G04 #@! TD*
D11*
G04 #@! TO.P,IC4,S*
G04 #@! TO.N,GND*
X28687302Y-105344400D03*
X28687302Y-89088400D03*
D12*
G04 #@! TO.P,IC4,10*
G04 #@! TO.N,Net-(IC4-Pad10)*
X34402302Y-101788400D03*
G04 #@! TO.P,IC4,11*
G04 #@! TO.N,GND*
X34402302Y-92644400D03*
G04 #@! TO.P,IC4,9*
X34402302Y-104074400D03*
G04 #@! TO.P,IC4,12*
G04 #@! TO.N,Net-(IC4-Pad12)*
X34402302Y-90358400D03*
G04 #@! TO.P,IC4,1*
G04 #@! TO.N,/RS485_TX*
X27798302Y-100772400D03*
G04 #@! TO.P,IC4,3*
G04 #@! TO.N,/RS485_RX*
X27798302Y-98740400D03*
G04 #@! TO.P,IC4,5*
G04 #@! TO.N,Net-(IC4-Pad5)*
X27798302Y-96708400D03*
G04 #@! TO.P,IC4,7*
G04 #@! TO.N,Net-(IC4-Pad7)*
X27798302Y-94676400D03*
G04 #@! TO.P,IC4,2*
G04 #@! TO.N,/~RS485_TX*
X29576302Y-99756400D03*
G04 #@! TO.P,IC4,4*
G04 #@! TO.N,Net-(IC4-Pad4)*
X29576302Y-97724400D03*
G04 #@! TO.P,IC4,6*
G04 #@! TO.N,/~RS485_RX*
X29576302Y-95692400D03*
G04 #@! TO.P,IC4,8*
G04 #@! TO.N,Net-(IC4-Pad8)*
X29576302Y-93660400D03*
G04 #@! TD*
D10*
G04 #@! TO.P,C1,2*
G04 #@! TO.N,Net-(C1-Pad2)*
X57658302Y-91266400D03*
G04 #@! TO.P,C1,1*
G04 #@! TO.N,GND*
X57658302Y-92166400D03*
G04 #@! TD*
G04 #@! TO.P,C2,1*
G04 #@! TO.N,GND*
X53458302Y-91366400D03*
G04 #@! TO.P,C2,2*
G04 #@! TO.N,Net-(C2-Pad2)*
X53458302Y-92266400D03*
G04 #@! TD*
G04 #@! TO.P,C3,2*
G04 #@! TO.N,3v3*
X58408302Y-88316400D03*
G04 #@! TO.P,C3,1*
G04 #@! TO.N,GND*
X57508302Y-88316400D03*
G04 #@! TD*
G04 #@! TO.P,C4,1*
G04 #@! TO.N,GND*
X57508302Y-95516400D03*
G04 #@! TO.P,C4,2*
G04 #@! TO.N,3v3*
X58408302Y-95516400D03*
G04 #@! TD*
G04 #@! TO.P,C5,1*
G04 #@! TO.N,GND*
X75158302Y-103366400D03*
G04 #@! TO.P,C5,2*
G04 #@! TO.N,3v3*
X75158302Y-102466400D03*
G04 #@! TD*
G04 #@! TO.P,C7,1*
G04 #@! TO.N,GND*
X57508302Y-98116400D03*
G04 #@! TO.P,C7,2*
G04 #@! TO.N,3v3*
X58408302Y-98116400D03*
G04 #@! TD*
G04 #@! TO.P,C8,2*
G04 #@! TO.N,3v3*
X58408302Y-89616400D03*
G04 #@! TO.P,C8,1*
G04 #@! TO.N,GND*
X57508302Y-89616400D03*
G04 #@! TD*
G04 #@! TO.P,C9,2*
G04 #@! TO.N,3v3*
X63258302Y-102366400D03*
G04 #@! TO.P,C9,1*
G04 #@! TO.N,GND*
X63258302Y-103266400D03*
G04 #@! TD*
G04 #@! TO.P,C10,2*
G04 #@! TO.N,3v3*
X78208302Y-86016400D03*
G04 #@! TO.P,C10,1*
G04 #@! TO.N,GND*
X79108302Y-86016400D03*
G04 #@! TD*
G04 #@! TO.P,C11,1*
G04 #@! TO.N,GND*
X57508302Y-96816400D03*
G04 #@! TO.P,C11,2*
G04 #@! TO.N,3v3*
X58408302Y-96816400D03*
G04 #@! TD*
G04 #@! TO.P,C12,1*
G04 #@! TO.N,Net-(C12-Pad1)*
X78208302Y-87316400D03*
G04 #@! TO.P,C12,2*
G04 #@! TO.N,GND*
X79108302Y-87316400D03*
G04 #@! TD*
G04 #@! TO.P,C13,1*
G04 #@! TO.N,Net-(C13-Pad1)*
X73958302Y-102466400D03*
G04 #@! TO.P,C13,2*
G04 #@! TO.N,GND*
X73958302Y-103366400D03*
G04 #@! TD*
D13*
G04 #@! TO.P,C14,1*
G04 #@! TO.N,5v*
X89008302Y-109216400D03*
G04 #@! TO.P,C14,2*
G04 #@! TO.N,GND*
X89008302Y-110616400D03*
G04 #@! TD*
D10*
G04 #@! TO.P,C15,1*
G04 #@! TO.N,GND*
X46108302Y-100916400D03*
G04 #@! TO.P,C15,2*
G04 #@! TO.N,5v*
X47008302Y-100916400D03*
G04 #@! TD*
D14*
G04 #@! TO.P,C16,2*
G04 #@! TO.N,Net-(C16-Pad2)*
X85708302Y-112966400D03*
G04 #@! TO.P,C16,1*
G04 #@! TO.N,3v3*
X84308302Y-112966400D03*
G04 #@! TD*
D13*
G04 #@! TO.P,C17,2*
G04 #@! TO.N,GND*
X81008302Y-110616400D03*
G04 #@! TO.P,C17,1*
G04 #@! TO.N,3v3*
X81008302Y-109216400D03*
G04 #@! TD*
G04 #@! TO.P,C18,1*
G04 #@! TO.N,/OTG_HS_VBUS*
X88458302Y-94316400D03*
G04 #@! TO.P,C18,2*
G04 #@! TO.N,GND*
X88458302Y-92916400D03*
G04 #@! TD*
D10*
G04 #@! TO.P,C19,2*
G04 #@! TO.N,/~RST*
X58408302Y-94216400D03*
G04 #@! TO.P,C19,1*
G04 #@! TO.N,GND*
X57508302Y-94216400D03*
G04 #@! TD*
D15*
G04 #@! TO.P,D1,1*
G04 #@! TO.N,GND*
X87558302Y-107466400D03*
G04 #@! TO.P,D1,2*
G04 #@! TO.N,Net-(D1-Pad2)*
X85958302Y-107466400D03*
G04 #@! TD*
G04 #@! TO.P,D2,2*
G04 #@! TO.N,Net-(D2-Pad2)*
X85958302Y-104716400D03*
G04 #@! TO.P,D2,1*
G04 #@! TO.N,GND*
X87558302Y-104716400D03*
G04 #@! TD*
D16*
G04 #@! TO.P,IC1,1*
G04 #@! TO.N,/LED2*
X60558302Y-86216400D03*
G04 #@! TO.P,IC1,2*
G04 #@! TO.N,/LED1*
X60558302Y-86716400D03*
G04 #@! TO.P,IC1,3*
G04 #@! TO.N,Net-(IC1-Pad3)*
X60558302Y-87216400D03*
G04 #@! TO.P,IC1,4*
G04 #@! TO.N,Net-(IC1-Pad4)*
X60558302Y-87716400D03*
G04 #@! TO.P,IC1,5*
G04 #@! TO.N,Net-(IC1-Pad5)*
X60558302Y-88216400D03*
G04 #@! TO.P,IC1,6*
G04 #@! TO.N,3v3*
X60558302Y-88716400D03*
G04 #@! TO.P,IC1,7*
G04 #@! TO.N,Net-(IC1-Pad7)*
X60558302Y-89216400D03*
G04 #@! TO.P,IC1,8*
G04 #@! TO.N,Net-(IC1-Pad8)*
X60558302Y-89716400D03*
G04 #@! TO.P,IC1,9*
G04 #@! TO.N,Net-(IC1-Pad9)*
X60558302Y-90216400D03*
G04 #@! TO.P,IC1,10*
G04 #@! TO.N,GND*
X60558302Y-90716400D03*
G04 #@! TO.P,IC1,11*
G04 #@! TO.N,3v3*
X60558302Y-91216400D03*
G04 #@! TO.P,IC1,12*
G04 #@! TO.N,Net-(C1-Pad2)*
X60558302Y-91716400D03*
G04 #@! TO.P,IC1,13*
G04 #@! TO.N,Net-(IC1-Pad13)*
X60558302Y-92216400D03*
G04 #@! TO.P,IC1,14*
G04 #@! TO.N,/~RST*
X60558302Y-92716400D03*
G04 #@! TO.P,IC1,15*
G04 #@! TO.N,Net-(IC1-Pad15)*
X60558302Y-93216400D03*
G04 #@! TO.P,IC1,16*
G04 #@! TO.N,Net-(IC1-Pad16)*
X60558302Y-93716400D03*
G04 #@! TO.P,IC1,17*
G04 #@! TO.N,Net-(IC1-Pad17)*
X60558302Y-94216400D03*
G04 #@! TO.P,IC1,18*
G04 #@! TO.N,Net-(IC1-Pad18)*
X60558302Y-94716400D03*
G04 #@! TO.P,IC1,19*
G04 #@! TO.N,3v3*
X60558302Y-95216400D03*
G04 #@! TO.P,IC1,20*
G04 #@! TO.N,GND*
X60558302Y-95716400D03*
G04 #@! TO.P,IC1,21*
G04 #@! TO.N,3v3*
X60558302Y-96216400D03*
G04 #@! TO.P,IC1,22*
X60558302Y-96716400D03*
G04 #@! TO.P,IC1,23*
G04 #@! TO.N,Net-(IC1-Pad23)*
X60558302Y-97216400D03*
G04 #@! TO.P,IC1,24*
G04 #@! TO.N,Net-(IC1-Pad24)*
X60558302Y-97716400D03*
G04 #@! TO.P,IC1,25*
G04 #@! TO.N,/USART2_TX*
X60558302Y-98216400D03*
D17*
G04 #@! TO.P,IC1,26*
G04 #@! TO.N,/USART2_RX*
X62258302Y-99916400D03*
G04 #@! TO.P,IC1,27*
G04 #@! TO.N,GND*
X62758302Y-99916400D03*
G04 #@! TO.P,IC1,28*
G04 #@! TO.N,3v3*
X63258302Y-99916400D03*
G04 #@! TO.P,IC1,29*
G04 #@! TO.N,Net-(IC1-Pad29)*
X63758302Y-99916400D03*
G04 #@! TO.P,IC1,30*
G04 #@! TO.N,Net-(IC1-Pad30)*
X64258302Y-99916400D03*
G04 #@! TO.P,IC1,31*
G04 #@! TO.N,Net-(IC1-Pad31)*
X64758302Y-99916400D03*
G04 #@! TO.P,IC1,32*
G04 #@! TO.N,Net-(IC1-Pad32)*
X65258302Y-99916400D03*
G04 #@! TO.P,IC1,33*
G04 #@! TO.N,Net-(IC1-Pad33)*
X65758302Y-99916400D03*
G04 #@! TO.P,IC1,34*
G04 #@! TO.N,Net-(IC1-Pad34)*
X66258302Y-99916400D03*
G04 #@! TO.P,IC1,35*
G04 #@! TO.N,Net-(IC1-Pad35)*
X66758302Y-99916400D03*
G04 #@! TO.P,IC1,36*
G04 #@! TO.N,Net-(IC1-Pad36)*
X67258302Y-99916400D03*
G04 #@! TO.P,IC1,37*
G04 #@! TO.N,Net-(IC1-Pad37)*
X67758302Y-99916400D03*
G04 #@! TO.P,IC1,38*
G04 #@! TO.N,Net-(IC1-Pad38)*
X68258302Y-99916400D03*
G04 #@! TO.P,IC1,39*
G04 #@! TO.N,Net-(IC1-Pad39)*
X68758302Y-99916400D03*
G04 #@! TO.P,IC1,40*
G04 #@! TO.N,Net-(IC1-Pad40)*
X69258302Y-99916400D03*
G04 #@! TO.P,IC1,41*
G04 #@! TO.N,Net-(IC1-Pad41)*
X69758302Y-99916400D03*
G04 #@! TO.P,IC1,42*
G04 #@! TO.N,Net-(IC1-Pad42)*
X70258302Y-99916400D03*
G04 #@! TO.P,IC1,43*
G04 #@! TO.N,Net-(IC1-Pad43)*
X70758302Y-99916400D03*
G04 #@! TO.P,IC1,44*
G04 #@! TO.N,Net-(IC1-Pad44)*
X71258302Y-99916400D03*
G04 #@! TO.P,IC1,45*
G04 #@! TO.N,Net-(IC1-Pad45)*
X71758302Y-99916400D03*
G04 #@! TO.P,IC1,46*
G04 #@! TO.N,Net-(IC1-Pad46)*
X72258302Y-99916400D03*
G04 #@! TO.P,IC1,47*
G04 #@! TO.N,/USART3_TX*
X72758302Y-99916400D03*
G04 #@! TO.P,IC1,48*
G04 #@! TO.N,/USART3_RX*
X73258302Y-99916400D03*
G04 #@! TO.P,IC1,49*
G04 #@! TO.N,Net-(C13-Pad1)*
X73758302Y-99916400D03*
G04 #@! TO.P,IC1,50*
G04 #@! TO.N,3v3*
X74258302Y-99916400D03*
D16*
G04 #@! TO.P,IC1,51*
G04 #@! TO.N,/STATUS*
X75958302Y-98216400D03*
G04 #@! TO.P,IC1,52*
G04 #@! TO.N,/OTG_HS_VBUS*
X75958302Y-97716400D03*
G04 #@! TO.P,IC1,53*
G04 #@! TO.N,/OTG_HS_DM*
X75958302Y-97216400D03*
G04 #@! TO.P,IC1,54*
G04 #@! TO.N,/OTG_HS_DP*
X75958302Y-96716400D03*
G04 #@! TO.P,IC1,55*
G04 #@! TO.N,Net-(IC1-Pad55)*
X75958302Y-96216400D03*
G04 #@! TO.P,IC1,56*
G04 #@! TO.N,Net-(IC1-Pad56)*
X75958302Y-95716400D03*
G04 #@! TO.P,IC1,57*
G04 #@! TO.N,Net-(IC1-Pad57)*
X75958302Y-95216400D03*
G04 #@! TO.P,IC1,58*
G04 #@! TO.N,Net-(IC1-Pad58)*
X75958302Y-94716400D03*
G04 #@! TO.P,IC1,59*
G04 #@! TO.N,Net-(IC1-Pad59)*
X75958302Y-94216400D03*
G04 #@! TO.P,IC1,60*
G04 #@! TO.N,Net-(IC1-Pad60)*
X75958302Y-93716400D03*
G04 #@! TO.P,IC1,61*
G04 #@! TO.N,Net-(IC1-Pad61)*
X75958302Y-93216400D03*
G04 #@! TO.P,IC1,62*
G04 #@! TO.N,Net-(IC1-Pad62)*
X75958302Y-92716400D03*
G04 #@! TO.P,IC1,63*
G04 #@! TO.N,Net-(IC1-Pad63)*
X75958302Y-92216400D03*
G04 #@! TO.P,IC1,64*
G04 #@! TO.N,Net-(IC1-Pad64)*
X75958302Y-91716400D03*
G04 #@! TO.P,IC1,65*
G04 #@! TO.N,Net-(IC1-Pad65)*
X75958302Y-91216400D03*
G04 #@! TO.P,IC1,66*
G04 #@! TO.N,Net-(IC1-Pad66)*
X75958302Y-90716400D03*
G04 #@! TO.P,IC1,67*
G04 #@! TO.N,Net-(IC1-Pad67)*
X75958302Y-90216400D03*
G04 #@! TO.P,IC1,68*
G04 #@! TO.N,/USART1_TX*
X75958302Y-89716400D03*
G04 #@! TO.P,IC1,69*
G04 #@! TO.N,/USART1_RX*
X75958302Y-89216400D03*
G04 #@! TO.P,IC1,70*
G04 #@! TO.N,Net-(IC1-Pad70)*
X75958302Y-88716400D03*
G04 #@! TO.P,IC1,71*
G04 #@! TO.N,Net-(IC1-Pad71)*
X75958302Y-88216400D03*
G04 #@! TO.P,IC1,72*
G04 #@! TO.N,/SWDIO*
X75958302Y-87716400D03*
G04 #@! TO.P,IC1,73*
G04 #@! TO.N,Net-(C12-Pad1)*
X75958302Y-87216400D03*
G04 #@! TO.P,IC1,74*
G04 #@! TO.N,GND*
X75958302Y-86716400D03*
G04 #@! TO.P,IC1,75*
G04 #@! TO.N,3v3*
X75958302Y-86216400D03*
D17*
G04 #@! TO.P,IC1,76*
G04 #@! TO.N,/SWDCLK*
X74258302Y-84516400D03*
G04 #@! TO.P,IC1,77*
G04 #@! TO.N,Net-(IC1-Pad77)*
X73758302Y-84516400D03*
G04 #@! TO.P,IC1,78*
G04 #@! TO.N,Net-(IC1-Pad78)*
X73258302Y-84516400D03*
G04 #@! TO.P,IC1,79*
G04 #@! TO.N,Net-(IC1-Pad79)*
X72758302Y-84516400D03*
G04 #@! TO.P,IC1,80*
G04 #@! TO.N,Net-(IC1-Pad80)*
X72258302Y-84516400D03*
G04 #@! TO.P,IC1,81*
G04 #@! TO.N,Net-(IC1-Pad81)*
X71758302Y-84516400D03*
G04 #@! TO.P,IC1,82*
G04 #@! TO.N,Net-(IC1-Pad82)*
X71258302Y-84516400D03*
G04 #@! TO.P,IC1,83*
G04 #@! TO.N,Net-(IC1-Pad83)*
X70758302Y-84516400D03*
G04 #@! TO.P,IC1,84*
G04 #@! TO.N,Net-(IC1-Pad84)*
X70258302Y-84516400D03*
G04 #@! TO.P,IC1,85*
G04 #@! TO.N,Net-(IC1-Pad85)*
X69758302Y-84516400D03*
G04 #@! TO.P,IC1,86*
G04 #@! TO.N,Net-(IC1-Pad86)*
X69258302Y-84516400D03*
G04 #@! TO.P,IC1,87*
G04 #@! TO.N,Net-(IC1-Pad87)*
X68758302Y-84516400D03*
G04 #@! TO.P,IC1,88*
G04 #@! TO.N,Net-(IC1-Pad88)*
X68258302Y-84516400D03*
G04 #@! TO.P,IC1,89*
G04 #@! TO.N,Net-(IC1-Pad89)*
X67758302Y-84516400D03*
G04 #@! TO.P,IC1,90*
G04 #@! TO.N,Net-(IC1-Pad90)*
X67258302Y-84516400D03*
G04 #@! TO.P,IC1,91*
G04 #@! TO.N,Net-(IC1-Pad91)*
X66758302Y-84516400D03*
G04 #@! TO.P,IC1,92*
G04 #@! TO.N,Net-(IC1-Pad92)*
X66258302Y-84516400D03*
G04 #@! TO.P,IC1,93*
G04 #@! TO.N,Net-(IC1-Pad93)*
X65758302Y-84516400D03*
G04 #@! TO.P,IC1,94*
G04 #@! TO.N,GND*
X65258302Y-84516400D03*
G04 #@! TO.P,IC1,95*
G04 #@! TO.N,Net-(IC1-Pad95)*
X64758302Y-84516400D03*
G04 #@! TO.P,IC1,96*
G04 #@! TO.N,Net-(IC1-Pad96)*
X64258302Y-84516400D03*
G04 #@! TO.P,IC1,97*
G04 #@! TO.N,Net-(IC1-Pad97)*
X63758302Y-84516400D03*
G04 #@! TO.P,IC1,98*
G04 #@! TO.N,Net-(IC1-Pad98)*
X63258302Y-84516400D03*
G04 #@! TO.P,IC1,99*
G04 #@! TO.N,GND*
X62758302Y-84516400D03*
G04 #@! TO.P,IC1,100*
G04 #@! TO.N,3v3*
X62258302Y-84516400D03*
G04 #@! TD*
D18*
G04 #@! TO.P,IC2,1*
G04 #@! TO.N,3v3*
X82808302Y-109241400D03*
G04 #@! TO.P,IC2,2*
X82808302Y-109891400D03*
G04 #@! TO.P,IC2,3*
X82808302Y-110541400D03*
G04 #@! TO.P,IC2,4*
G04 #@! TO.N,GND*
X82808302Y-111191400D03*
G04 #@! TO.P,IC2,5*
G04 #@! TO.N,Net-(C16-Pad2)*
X87208302Y-111191400D03*
G04 #@! TO.P,IC2,6*
G04 #@! TO.N,5v*
X87208302Y-110541400D03*
G04 #@! TO.P,IC2,7*
X87208302Y-109891400D03*
G04 #@! TO.P,IC2,8*
X87208302Y-109241400D03*
G04 #@! TD*
D19*
G04 #@! TO.P,IC3,1*
G04 #@! TO.N,5v*
X46958302Y-99121400D03*
G04 #@! TO.P,IC3,2*
G04 #@! TO.N,/USART3_RX*
X46958302Y-97851400D03*
G04 #@! TO.P,IC3,3*
G04 #@! TO.N,/USART3_TX*
X46958302Y-96581400D03*
G04 #@! TO.P,IC3,4*
G04 #@! TO.N,GND*
X46958302Y-95311400D03*
G04 #@! TO.P,IC3,5*
G04 #@! TO.N,/RS485_TX*
X41558302Y-95311400D03*
G04 #@! TO.P,IC3,6*
G04 #@! TO.N,/~RS485_TX*
X41558302Y-96581400D03*
G04 #@! TO.P,IC3,7*
G04 #@! TO.N,/~RS485_RX*
X41558302Y-97851400D03*
G04 #@! TO.P,IC3,8*
G04 #@! TO.N,/RS485_RX*
X41558302Y-99121400D03*
G04 #@! TD*
D20*
G04 #@! TO.P,J1,1*
G04 #@! TO.N,/USART1_TX*
X66008302Y-113716400D03*
G04 #@! TO.P,J1,2*
G04 #@! TO.N,/USART1_RX*
X68008302Y-113716400D03*
G04 #@! TO.P,J1,3*
G04 #@! TO.N,GND*
X70008302Y-113716400D03*
G04 #@! TD*
G04 #@! TO.P,J2,3*
G04 #@! TO.N,GND*
X59508302Y-113716400D03*
G04 #@! TO.P,J2,2*
G04 #@! TO.N,/USART2_RX*
X57508302Y-113716400D03*
G04 #@! TO.P,J2,1*
G04 #@! TO.N,/USART2_TX*
X55508302Y-113716400D03*
G04 #@! TD*
G04 #@! TO.P,J3,2*
G04 #@! TO.N,GND*
X94758302Y-109216400D03*
G04 #@! TO.P,J3,1*
G04 #@! TO.N,5v*
X94758302Y-111216400D03*
G04 #@! TD*
D21*
G04 #@! TO.P,P1,1*
G04 #@! TO.N,/OTG_HS_VBUS*
X91758302Y-95966400D03*
G04 #@! TO.P,P1,2*
G04 #@! TO.N,/OTG_HS_DM*
X91758302Y-98466400D03*
G04 #@! TO.P,P1,3*
G04 #@! TO.N,/OTG_HS_DP*
X93758302Y-98466400D03*
G04 #@! TO.P,P1,4*
G04 #@! TO.N,GND*
X93758302Y-95966400D03*
D22*
G04 #@! TO.P,P1,S*
X96468302Y-91196400D03*
X96468302Y-103236400D03*
G04 #@! TD*
D23*
G04 #@! TO.P,P2,1*
G04 #@! TO.N,3v3*
X81068302Y-80065400D03*
G04 #@! TO.P,P2,2*
G04 #@! TO.N,/SWDIO*
X81068302Y-81335400D03*
G04 #@! TO.P,P2,3*
G04 #@! TO.N,/~RST*
X79798302Y-80065400D03*
G04 #@! TO.P,P2,4*
G04 #@! TO.N,/SWDCLK*
X79798302Y-81335400D03*
G04 #@! TO.P,P2,5*
G04 #@! TO.N,GND*
X78528302Y-80065400D03*
G04 #@! TO.P,P2,6*
G04 #@! TO.N,Net-(P2-Pad6)*
X78528302Y-81335400D03*
G04 #@! TD*
D10*
G04 #@! TO.P,R1,2*
G04 #@! TO.N,Net-(IC1-Pad13)*
X55708302Y-93716400D03*
G04 #@! TO.P,R1,1*
G04 #@! TO.N,Net-(C2-Pad2)*
X54808302Y-93716400D03*
G04 #@! TD*
D15*
G04 #@! TO.P,R2,2*
G04 #@! TO.N,5v*
X86858302Y-95816400D03*
G04 #@! TO.P,R2,1*
G04 #@! TO.N,/OTG_HS_VBUS*
X88458302Y-95816400D03*
G04 #@! TD*
D10*
G04 #@! TO.P,R3,2*
G04 #@! TO.N,/~RS485_RX*
X39658302Y-98066400D03*
G04 #@! TO.P,R3,1*
G04 #@! TO.N,/RS485_RX*
X39658302Y-98966400D03*
G04 #@! TD*
D15*
G04 #@! TO.P,R4,1*
G04 #@! TO.N,3v3*
X82458302Y-107466400D03*
G04 #@! TO.P,R4,2*
G04 #@! TO.N,Net-(D1-Pad2)*
X84058302Y-107466400D03*
G04 #@! TD*
G04 #@! TO.P,R5,2*
G04 #@! TO.N,Net-(D2-Pad2)*
X84058302Y-104716400D03*
G04 #@! TO.P,R5,1*
G04 #@! TO.N,/STATUS*
X82458302Y-104716400D03*
G04 #@! TD*
D24*
G04 #@! TO.P,R6,2*
G04 #@! TO.N,Net-(IC4-Pad10)*
X38658302Y-91216400D03*
G04 #@! TO.P,R6,1*
G04 #@! TO.N,/LED1*
X38658302Y-89616400D03*
G04 #@! TD*
G04 #@! TO.P,R7,1*
G04 #@! TO.N,/LED2*
X37008302Y-89666400D03*
G04 #@! TO.P,R7,2*
G04 #@! TO.N,Net-(IC4-Pad12)*
X37008302Y-91266400D03*
G04 #@! TD*
D25*
G04 #@! TO.P,TP1,1*
G04 #@! TO.N,3v3*
X85058302Y-114616400D03*
G04 #@! TD*
D26*
G04 #@! TO.P,Y1,1*
G04 #@! TO.N,Net-(C1-Pad2)*
X56283302Y-91191400D03*
G04 #@! TO.P,Y1,2*
G04 #@! TO.N,GND*
X54833302Y-91191400D03*
G04 #@! TO.P,Y1,3*
G04 #@! TO.N,Net-(C2-Pad2)*
X54833302Y-92341400D03*
G04 #@! TO.P,Y1,4*
G04 #@! TO.N,GND*
X56283302Y-92341400D03*
G04 #@! TD*
D10*
G04 #@! TO.P,D3,2*
G04 #@! TO.N,GND*
X88150000Y-99100000D03*
G04 #@! TO.P,D3,1*
G04 #@! TO.N,/OTG_HS_VBUS*
X89050000Y-99100000D03*
G04 #@! TD*
G04 #@! TO.P,D4,1*
G04 #@! TO.N,/OTG_HS_DP*
X89050000Y-101500000D03*
G04 #@! TO.P,D4,2*
G04 #@! TO.N,GND*
X88150000Y-101500000D03*
G04 #@! TD*
G04 #@! TO.P,D5,1*
G04 #@! TO.N,/OTG_HS_DM*
X89050000Y-100300000D03*
G04 #@! TO.P,D5,2*
G04 #@! TO.N,GND*
X88150000Y-100300000D03*
G04 #@! TD*
G04 #@! TO.P,D6,2*
G04 #@! TO.N,GND*
X66000000Y-110850000D03*
G04 #@! TO.P,D6,1*
G04 #@! TO.N,/USART1_TX*
X66000000Y-111750000D03*
G04 #@! TD*
G04 #@! TO.P,D7,1*
G04 #@! TO.N,/USART1_RX*
X68000000Y-111650000D03*
G04 #@! TO.P,D7,2*
G04 #@! TO.N,GND*
X68000000Y-110750000D03*
G04 #@! TD*
G04 #@! TO.P,D8,2*
G04 #@! TO.N,GND*
X55500000Y-110850000D03*
G04 #@! TO.P,D8,1*
G04 #@! TO.N,/USART2_TX*
X55500000Y-111750000D03*
G04 #@! TD*
G04 #@! TO.P,D9,1*
G04 #@! TO.N,/USART2_RX*
X57500000Y-111750000D03*
G04 #@! TO.P,D9,2*
G04 #@! TO.N,GND*
X57500000Y-110850000D03*
G04 #@! TD*
D27*
G04 #@! TO.N,GND*
X62358302Y-90716400D03*
X58568302Y-92016400D03*
X62758302Y-86116400D03*
X65258302Y-86116400D03*
X65258302Y-82516400D03*
X63108302Y-81166400D03*
X62258302Y-80216400D03*
X62458302Y-95716400D03*
X62758302Y-98216400D03*
X63258302Y-104216400D03*
X56558302Y-88316400D03*
X56558302Y-89616400D03*
X52408302Y-91366400D03*
X53458302Y-90316400D03*
X54833302Y-90341400D03*
X56458302Y-95516400D03*
X56458302Y-96816400D03*
X56458302Y-98116400D03*
X75158302Y-104316400D03*
X80058302Y-86016400D03*
X80058302Y-87316400D03*
X78528302Y-78786400D03*
X89008302Y-111666400D03*
X90058302Y-110616400D03*
X83258302Y-112066400D03*
X81008302Y-111566400D03*
X80058302Y-110616400D03*
X82358302Y-112066400D03*
X88458302Y-91816400D03*
X74358302Y-86716400D03*
X48653302Y-95311400D03*
X45463302Y-95311400D03*
X45158302Y-100916400D03*
X73958302Y-104416400D03*
X88658302Y-104716400D03*
X88608302Y-107466400D03*
X33258302Y-77216400D03*
X33258302Y-82216400D03*
X38258302Y-82216400D03*
X38258302Y-77216400D03*
X43258302Y-77216400D03*
X43258302Y-82216400D03*
X48258302Y-82216400D03*
X48258302Y-77216400D03*
X58258302Y-77216400D03*
X53258302Y-77216400D03*
X53258302Y-82216400D03*
X58258302Y-82216400D03*
X63258302Y-77216400D03*
X68258302Y-77216400D03*
X73258302Y-77216400D03*
X88258302Y-77216400D03*
X93258302Y-77216400D03*
X93258302Y-82216400D03*
X88258302Y-82216400D03*
X88258302Y-87216400D03*
X83258302Y-87216400D03*
X93258302Y-87216400D03*
X98258302Y-87216400D03*
X98258302Y-82216400D03*
X98258302Y-97216400D03*
X93258302Y-117216400D03*
X88258302Y-117216400D03*
X83258302Y-117216400D03*
X78258302Y-117216400D03*
X78258302Y-112216400D03*
X73258302Y-112216400D03*
X73258302Y-117216400D03*
X83258302Y-92216400D03*
X48258302Y-107216400D03*
X48258302Y-112216400D03*
X43258302Y-112216400D03*
X43258302Y-107216400D03*
X38258302Y-107216400D03*
X38258302Y-112216400D03*
X33258302Y-112216400D03*
X28258302Y-112216400D03*
X28258302Y-87216400D03*
X28258302Y-82216400D03*
X43258302Y-92216400D03*
X48258302Y-92216400D03*
X53258302Y-107216400D03*
X48258302Y-117216400D03*
X38258302Y-117216400D03*
X43258302Y-117216400D03*
X33258302Y-117216400D03*
X87100000Y-100300000D03*
X87100000Y-101500000D03*
X87158302Y-92916400D03*
X87100000Y-99100000D03*
X55500000Y-109600000D03*
X58750000Y-110850000D03*
X66000000Y-109600000D03*
X69050000Y-110750000D03*
G04 #@! TO.N,3v3*
X58408302Y-99166400D03*
X58358302Y-87316400D03*
X81068302Y-78826400D03*
X81008302Y-107466400D03*
X81008302Y-108316400D03*
X61408302Y-82066400D03*
X76108302Y-102466400D03*
X64208302Y-102366400D03*
X78208302Y-84966400D03*
G04 #@! TO.N,5v*
X85358302Y-95816400D03*
X48258302Y-100916400D03*
X79458302Y-106616400D03*
X90500000Y-106600000D03*
G04 #@! TO.N,/~RST*
X77558302Y-88816400D03*
X73458302Y-90616400D03*
G04 #@! TO.N,/USART2_TX*
X57858302Y-102116400D03*
G04 #@! TO.N,/USART2_RX*
X57858302Y-103216400D03*
G04 #@! TO.N,/OTG_HS_VBUS*
X88758302Y-98116400D03*
G04 #@! TO.N,/USART1_TX*
X66458302Y-90216400D03*
G04 #@! TO.N,/USART1_RX*
X67258312Y-89316410D03*
G04 #@! TO.N,/RS485_TX*
X32158302Y-95216400D03*
G04 #@! TO.N,/~RS485_TX*
X32158302Y-96816400D03*
G04 #@! TO.N,Net-(IC4-Pad10)*
X38658302Y-94416400D03*
G04 #@! TD*
D28*
G04 #@! TO.N,Net-(C1-Pad2)*
X56358302Y-91266400D02*
X56283302Y-91191400D01*
X57658302Y-91266400D02*
X56358302Y-91266400D01*
X59258302Y-91716400D02*
X60558302Y-91716400D01*
X58808302Y-91266400D02*
X59258302Y-91716400D01*
X57658302Y-91266400D02*
X58808302Y-91266400D01*
G04 #@! TO.N,GND*
X60558302Y-90716400D02*
X62358302Y-90716400D01*
X56458302Y-92166400D02*
X56283302Y-92341400D01*
X57658302Y-92166400D02*
X56458302Y-92166400D01*
X58408302Y-92166400D02*
X58418302Y-92166400D01*
X58418302Y-92166400D02*
X57658302Y-92166400D01*
X58568302Y-92016400D02*
X58418302Y-92166400D01*
X62758302Y-84516400D02*
X62758302Y-86116400D01*
X65258302Y-84516400D02*
X65258302Y-86116400D01*
X65258302Y-84516400D02*
X65258302Y-82516400D01*
X60558302Y-95716400D02*
X62458302Y-95716400D01*
X62758302Y-99916400D02*
X62758302Y-98216400D01*
D29*
X54658302Y-91366400D02*
X53458302Y-91366400D01*
X54833302Y-91191400D02*
X54658302Y-91366400D01*
X53458302Y-91366400D02*
X53458302Y-90316400D01*
X53458302Y-91366400D02*
X52408302Y-91366400D01*
X54833302Y-91191400D02*
X54833302Y-90341400D01*
X57508302Y-89616400D02*
X56558302Y-89616400D01*
X57508302Y-88316400D02*
X56558302Y-88316400D01*
X57508302Y-94216400D02*
X57508302Y-95516400D01*
X57508302Y-95516400D02*
X57508302Y-96816400D01*
X57508302Y-96816400D02*
X57508302Y-98116400D01*
X57508302Y-95516400D02*
X56458302Y-95516400D01*
X57508302Y-96816400D02*
X56458302Y-96816400D01*
X57508302Y-98116400D02*
X56458302Y-98116400D01*
X62258302Y-81166400D02*
X63108302Y-81166400D01*
X62258302Y-81166400D02*
X62258302Y-80216400D01*
X63258302Y-103266400D02*
X63258302Y-104216400D01*
X75158302Y-103366400D02*
X75158302Y-104316400D01*
X79108302Y-86016400D02*
X79108302Y-87316400D01*
X79108302Y-86016400D02*
X80058302Y-86016400D01*
X79108302Y-87316400D02*
X80058302Y-87316400D01*
X78528302Y-80065400D02*
X78528302Y-78786400D01*
X57508302Y-88316400D02*
X57508302Y-89616400D01*
D30*
X89008302Y-110616400D02*
X89008302Y-111666400D01*
X89008302Y-110616400D02*
X90058302Y-110616400D01*
X81008302Y-110616400D02*
X81008302Y-111566400D01*
X81008302Y-110616400D02*
X80058302Y-110616400D01*
D29*
X82808302Y-111616400D02*
X82358302Y-112066400D01*
X82808302Y-111616400D02*
X83258302Y-112066400D01*
X82808302Y-111191400D02*
X82808302Y-111616400D01*
D30*
X88458302Y-92916400D02*
X88458302Y-91816400D01*
D28*
X75958302Y-86716400D02*
X74358302Y-86716400D01*
D30*
X46958302Y-95311400D02*
X48653302Y-95311400D01*
X46958302Y-95311400D02*
X45463302Y-95311400D01*
X46108302Y-100916400D02*
X45158302Y-100916400D01*
D29*
X73958302Y-103366400D02*
X75158302Y-103366400D01*
X73958302Y-103366400D02*
X73958302Y-104416400D01*
D28*
X87558302Y-104716400D02*
X88658302Y-104716400D01*
X87558302Y-107466400D02*
X88608302Y-107466400D01*
X88150000Y-100300000D02*
X88150000Y-101500000D01*
X88150000Y-100300000D02*
X87100000Y-100300000D01*
X88150000Y-101500000D02*
X87100000Y-101500000D01*
D30*
X88458302Y-92916400D02*
X87158302Y-92916400D01*
D28*
X88150000Y-99100000D02*
X88150000Y-100300000D01*
X88150000Y-99100000D02*
X87100000Y-99100000D01*
X55500000Y-110850000D02*
X55500000Y-109600000D01*
X57500000Y-110850000D02*
X58750000Y-110850000D01*
X66000000Y-110850000D02*
X66000000Y-109600000D01*
X68000000Y-110750000D02*
X69050000Y-110750000D01*
G04 #@! TO.N,Net-(C2-Pad2)*
X54833302Y-93691400D02*
X54808302Y-93716400D01*
X54833302Y-92341400D02*
X54833302Y-93691400D01*
X54758302Y-92266400D02*
X54833302Y-92341400D01*
X53458302Y-92266400D02*
X54758302Y-92266400D01*
G04 #@! TO.N,3v3*
X59358302Y-88716400D02*
X60558302Y-88716400D01*
X60558302Y-95216400D02*
X59358302Y-95216400D01*
X59358302Y-96716400D02*
X60558302Y-96716400D01*
X60558302Y-96216400D02*
X59358302Y-96216400D01*
X59358302Y-95216400D02*
X59358302Y-96216400D01*
X59358302Y-96216400D02*
X59358302Y-96716400D01*
X58508302Y-96716400D02*
X58408302Y-96816400D01*
X59358302Y-96716400D02*
X58508302Y-96716400D01*
X58408302Y-95516400D02*
X58408302Y-96816400D01*
X58408302Y-96816400D02*
X58408302Y-98116400D01*
X58408302Y-98116400D02*
X58408302Y-99166400D01*
X60558302Y-91216400D02*
X59358302Y-91216400D01*
X58408302Y-89616400D02*
X59358302Y-89616400D01*
X59358302Y-91216400D02*
X59358302Y-89616400D01*
X59358302Y-89616400D02*
X59358302Y-88716400D01*
X58408302Y-87466400D02*
X58408302Y-87166400D01*
X62258302Y-84516400D02*
X62258302Y-82066400D01*
X75958302Y-86216400D02*
X77158302Y-86216400D01*
X77358302Y-86016400D02*
X78208302Y-86016400D01*
X77158302Y-86216400D02*
X77358302Y-86016400D01*
D29*
X58408302Y-95516400D02*
X58408302Y-99166400D01*
X81068302Y-80065400D02*
X81068302Y-78826400D01*
D30*
X82808302Y-109241400D02*
X82808302Y-110541400D01*
X81033302Y-109241400D02*
X81008302Y-109216400D01*
X82808302Y-109241400D02*
X81033302Y-109241400D01*
X81008302Y-108316400D02*
X81008302Y-107466400D01*
X81008302Y-109216400D02*
X81008302Y-108316400D01*
D31*
X84308302Y-112966400D02*
X84308302Y-111066400D01*
X83783302Y-110541400D02*
X82808302Y-110541400D01*
X84308302Y-111066400D02*
X83783302Y-110541400D01*
D28*
X84308302Y-113866400D02*
X85058302Y-114616400D01*
X84308302Y-112966400D02*
X84308302Y-113866400D01*
X82458302Y-107466400D02*
X81008302Y-107466400D01*
X62258302Y-82066400D02*
X61408302Y-82066400D01*
X63258302Y-101816400D02*
X63258302Y-102366400D01*
X63258302Y-99916400D02*
X63258302Y-101816400D01*
X75158302Y-102466400D02*
X76108302Y-102466400D01*
X63258302Y-102366400D02*
X64208302Y-102366400D01*
X78208302Y-86016400D02*
X78208302Y-84966400D01*
X74258302Y-99916400D02*
X74258302Y-101016400D01*
X75158302Y-101916400D02*
X75158302Y-102466400D01*
X74258302Y-101016400D02*
X75158302Y-101916400D01*
D30*
X58408302Y-89616400D02*
X58408302Y-88316400D01*
X58408302Y-87366400D02*
X58358302Y-87316400D01*
X58408302Y-88316400D02*
X58408302Y-87366400D01*
D28*
G04 #@! TO.N,Net-(C12-Pad1)*
X75958302Y-87216400D02*
X77158302Y-87216400D01*
X77258302Y-87316400D02*
X78208302Y-87316400D01*
X77158302Y-87216400D02*
X77258302Y-87316400D01*
G04 #@! TO.N,Net-(C13-Pad1)*
X73758302Y-102366400D02*
X73858302Y-102466400D01*
X73758302Y-99916400D02*
X73758302Y-101216400D01*
X73958302Y-101416400D02*
X73958302Y-102466400D01*
X73758302Y-101216400D02*
X73958302Y-101416400D01*
D30*
G04 #@! TO.N,5v*
X86858302Y-95816400D02*
X85358302Y-95816400D01*
X87208302Y-109241400D02*
X87208302Y-110541400D01*
X88983302Y-109241400D02*
X89008302Y-109216400D01*
X87208302Y-109241400D02*
X88983302Y-109241400D01*
X89008302Y-109216400D02*
X90458302Y-109216400D01*
X92458302Y-111216400D02*
X94758302Y-111216400D01*
X90458302Y-109216400D02*
X92458302Y-111216400D01*
X48258302Y-100916400D02*
X47008302Y-100916400D01*
X47008302Y-99171400D02*
X46958302Y-99121400D01*
X47008302Y-100916400D02*
X47008302Y-99171400D01*
X48258302Y-100916400D02*
X53358302Y-100916400D01*
X53358302Y-100916400D02*
X54058302Y-101616400D01*
X54058302Y-101616400D02*
X54058302Y-105316400D01*
X54058302Y-105316400D02*
X55358302Y-106616400D01*
X55358302Y-106616400D02*
X57658302Y-106616400D01*
X57658302Y-106616400D02*
X77258302Y-106616400D01*
X77258302Y-106616400D02*
X79458302Y-106616400D01*
X90500000Y-109174702D02*
X90458302Y-109216400D01*
X90500000Y-106600000D02*
X90500000Y-109174702D01*
D31*
G04 #@! TO.N,Net-(C16-Pad2)*
X85708302Y-112966400D02*
X85708302Y-111566400D01*
X86083302Y-111191400D02*
X87208302Y-111191400D01*
X85708302Y-111566400D02*
X86083302Y-111191400D01*
D28*
G04 #@! TO.N,/~RST*
X60558302Y-92716400D02*
X59558302Y-92716400D01*
X59558302Y-92716400D02*
X59158302Y-93116400D01*
X58958302Y-94216400D02*
X58408302Y-94216400D01*
X59158302Y-94016400D02*
X58958302Y-94216400D01*
X59158302Y-93116400D02*
X59158302Y-94016400D01*
X79798302Y-80065400D02*
X79798302Y-78276400D01*
X79798302Y-78276400D02*
X80358302Y-77716400D01*
X80358302Y-77716400D02*
X83158302Y-77716400D01*
X83158302Y-77716400D02*
X83658302Y-78216400D01*
X83658302Y-78216400D02*
X83658302Y-82916400D01*
X83658302Y-82916400D02*
X83158302Y-83416400D01*
X83158302Y-83416400D02*
X81958302Y-83416400D01*
X81958302Y-83416400D02*
X81468312Y-83906390D01*
X81468312Y-83906390D02*
X81468312Y-87806390D01*
X81468312Y-87806390D02*
X80458302Y-88816400D01*
X80458302Y-88816400D02*
X77558302Y-88816400D01*
X73458302Y-90616400D02*
X71358302Y-92716400D01*
X71358302Y-92716400D02*
X61958302Y-92716400D01*
X60558302Y-92716400D02*
X61958302Y-92716400D01*
X61958302Y-92716400D02*
X62158302Y-92716400D01*
G04 #@! TO.N,Net-(D1-Pad2)*
X85958302Y-107466400D02*
X84058302Y-107466400D01*
G04 #@! TO.N,Net-(D2-Pad2)*
X85958302Y-104716400D02*
X84058302Y-104716400D01*
G04 #@! TO.N,Net-(IC1-Pad13)*
X56108302Y-93316400D02*
X55708302Y-93716400D01*
X58258302Y-93316400D02*
X56108302Y-93316400D01*
X59358302Y-92216400D02*
X58258302Y-93316400D01*
X60558302Y-92216400D02*
X59358302Y-92216400D01*
G04 #@! TO.N,/USART2_TX*
X60558302Y-98216400D02*
X60558302Y-99416400D01*
X60558302Y-99416400D02*
X57858302Y-102116400D01*
X55500000Y-113708098D02*
X55508302Y-113716400D01*
X55500000Y-111750000D02*
X55500000Y-113708098D01*
G04 #@! TO.N,/USART2_RX*
X62258302Y-99916400D02*
X61158302Y-99916400D01*
X61158302Y-99916400D02*
X58358302Y-102716400D01*
X58358302Y-102716400D02*
X57858302Y-103216400D01*
X57500000Y-113708098D02*
X57508302Y-113716400D01*
X57500000Y-111750000D02*
X57500000Y-113708098D01*
G04 #@! TO.N,/LED1*
X38658302Y-87316400D02*
X38658302Y-89616400D01*
X58658302Y-86416400D02*
X39558302Y-86416400D01*
X39558302Y-86416400D02*
X38658302Y-87316400D01*
X60558302Y-86716400D02*
X58958302Y-86716400D01*
X58958302Y-86716400D02*
X58658302Y-86416400D01*
G04 #@! TO.N,/LED2*
X37008302Y-89666400D02*
X37008302Y-87666400D01*
X37008302Y-87666400D02*
X38658302Y-86016400D01*
X38658302Y-86016400D02*
X58858302Y-86016400D01*
X59058302Y-86216400D02*
X60558302Y-86216400D01*
X58858302Y-86016400D02*
X59058302Y-86216400D01*
G04 #@! TO.N,/USART3_TX*
X72758302Y-104716400D02*
X72758302Y-99916400D01*
X55858302Y-105516400D02*
X71958302Y-105516400D01*
X47923302Y-96581400D02*
X48358302Y-97016400D01*
X71958302Y-105516400D02*
X72758302Y-104716400D01*
X54458302Y-97016400D02*
X55158302Y-97716400D01*
X46958302Y-96581400D02*
X47923302Y-96581400D01*
X48358302Y-97016400D02*
X54458302Y-97016400D01*
X55158302Y-97716400D02*
X55158302Y-104816400D01*
X55158302Y-104816400D02*
X55858302Y-105516400D01*
G04 #@! TO.N,/USART3_RX*
X55658312Y-105916410D02*
X72258292Y-105916410D01*
X47923302Y-97851400D02*
X48358302Y-97416400D01*
X48358302Y-97416400D02*
X54292604Y-97416400D01*
X54292604Y-97416400D02*
X54758292Y-97882088D01*
X46958302Y-97851400D02*
X47923302Y-97851400D01*
X54758292Y-97882088D02*
X54758292Y-105016390D01*
X54758292Y-105016390D02*
X55658312Y-105916410D01*
X73258302Y-104916400D02*
X73258302Y-99916400D01*
X72258292Y-105916410D02*
X73258302Y-104916400D01*
D30*
G04 #@! TO.N,/OTG_HS_VBUS*
X91608302Y-95816400D02*
X91758302Y-95966400D01*
X88458302Y-95816400D02*
X91608302Y-95816400D01*
X88458302Y-95816400D02*
X88458302Y-94316400D01*
D28*
X75958302Y-97716400D02*
X88358302Y-97716400D01*
X88358302Y-97716400D02*
X88758302Y-98116400D01*
X88758302Y-98116400D02*
X89050000Y-98408098D01*
X89050000Y-98408098D02*
X89050000Y-99100000D01*
G04 #@! TO.N,/OTG_HS_DM*
X75958302Y-97216400D02*
X89058302Y-97216400D01*
X91758302Y-98466400D02*
X90908302Y-97616400D01*
X90908302Y-97616400D02*
X89458302Y-97616400D01*
X89058302Y-97216400D02*
X89458302Y-97616400D01*
X89050000Y-100300000D02*
X91200000Y-100300000D01*
X91758302Y-99741698D02*
X91758302Y-98466400D01*
X91200000Y-100300000D02*
X91758302Y-99741698D01*
G04 #@! TO.N,/OTG_HS_DP*
X75958302Y-96716400D02*
X89258302Y-96716400D01*
X89258302Y-96716400D02*
X89758302Y-97216400D01*
X92508302Y-97216400D02*
X93758302Y-98466400D01*
X89758302Y-97216400D02*
X92508302Y-97216400D01*
X89050000Y-101500000D02*
X93200000Y-101500000D01*
X93758302Y-100941698D02*
X93758302Y-98466400D01*
X93200000Y-101500000D02*
X93758302Y-100941698D01*
G04 #@! TO.N,/STATUS*
X75958302Y-98216400D02*
X81758302Y-98216400D01*
X82458302Y-98916400D02*
X82458302Y-104716400D01*
X81758302Y-98216400D02*
X82458302Y-98916400D01*
G04 #@! TO.N,/USART1_TX*
X75958302Y-89716400D02*
X67858302Y-89716400D01*
X67358302Y-90216400D02*
X66458302Y-90216400D01*
X67858302Y-89716400D02*
X67358302Y-90216400D01*
X66000000Y-113708098D02*
X66008302Y-113716400D01*
X66000000Y-111750000D02*
X66000000Y-113708098D01*
G04 #@! TO.N,/USART1_RX*
X67358322Y-89216400D02*
X75958302Y-89216400D01*
X67258312Y-89316410D02*
X67358322Y-89216400D01*
X68000000Y-113708098D02*
X68008302Y-113716400D01*
X68000000Y-111650000D02*
X68000000Y-113708098D01*
G04 #@! TO.N,/SWDIO*
X81068302Y-87616400D02*
X81068302Y-81335400D01*
X80568302Y-88116400D02*
X81068302Y-87616400D01*
X77258302Y-87716400D02*
X77658302Y-88116400D01*
X77658302Y-88116400D02*
X80568302Y-88116400D01*
X75958302Y-87716400D02*
X77258302Y-87716400D01*
G04 #@! TO.N,/SWDCLK*
X74258302Y-84516400D02*
X74258302Y-83416400D01*
X74258302Y-83416400D02*
X74658302Y-83016400D01*
X74658302Y-83016400D02*
X79358302Y-83016400D01*
X79798302Y-82576400D02*
X79798302Y-81335400D01*
X79358302Y-83016400D02*
X79798302Y-82576400D01*
G04 #@! TO.N,/RS485_TX*
X40658302Y-95311400D02*
X41558302Y-95311400D01*
X32758302Y-95816400D02*
X40153302Y-95816400D01*
X40153302Y-95816400D02*
X40658302Y-95311400D01*
X32158302Y-95216400D02*
X32758302Y-95816400D01*
G04 #@! TO.N,/~RS485_TX*
X38258292Y-96216400D02*
X37658302Y-96216400D01*
X37658302Y-96216400D02*
X32758302Y-96216400D01*
X32758302Y-96216400D02*
X32158302Y-96816400D01*
X40193302Y-96216400D02*
X40558302Y-96581400D01*
X38258292Y-96216400D02*
X40193302Y-96216400D01*
X41558302Y-96581400D02*
X40558302Y-96581400D01*
G04 #@! TO.N,/~RS485_RX*
X39658302Y-98066400D02*
X38508302Y-98066400D01*
X38508302Y-98066400D02*
X38258302Y-98316400D01*
X38258302Y-98316400D02*
X31358302Y-98316400D01*
X31358302Y-98316400D02*
X30958302Y-97916400D01*
X30958302Y-97916400D02*
X30958302Y-96116400D01*
X30534302Y-95692400D02*
X29576302Y-95692400D01*
X30958302Y-96116400D02*
X30534302Y-95692400D01*
X40208302Y-98066400D02*
X40423302Y-97851400D01*
X39658302Y-98066400D02*
X40208302Y-98066400D01*
X40423302Y-97851400D02*
X41558302Y-97851400D01*
G04 #@! TO.N,/RS485_RX*
X27798302Y-98740400D02*
X38282302Y-98740400D01*
X38508302Y-98966400D02*
X39658302Y-98966400D01*
X38282302Y-98740400D02*
X38508302Y-98966400D01*
X40208302Y-98966400D02*
X40363302Y-99121400D01*
X39658302Y-98966400D02*
X40208302Y-98966400D01*
X40363302Y-99121400D02*
X41558302Y-99121400D01*
G04 #@! TO.N,Net-(IC4-Pad10)*
X38658302Y-91216400D02*
X38658302Y-94416400D01*
G04 #@! TO.N,Net-(IC4-Pad12)*
X34402302Y-90358400D02*
X35300302Y-90358400D01*
X36208302Y-91266400D02*
X37008302Y-91266400D01*
X35300302Y-90358400D02*
X36208302Y-91266400D01*
G04 #@! TD*
M02*
