M48
;DRILL file {KiCad 5.0.1-33cea8e~68~ubuntu18.04.1} date Mon 12 Nov 2018 15:38:51 GMT
;FORMAT={-:-/ absolute / inch / decimal}
FMAT,2
INCH,TZ
T1C0.0157
T2C0.0315
T3C0.0354
T4C0.0362
T5C0.0620
T6C0.0906
T7C0.0236
T8C0.0394
T9C0.0472
T10C0.1280
T11C0.1299
%
G90
G05
M72
T1
X1.1125Y-3.2369
X1.1125Y-3.4337
X1.1125Y-4.418
X1.2661Y-3.7487
X1.2661Y-3.8117
X1.3094Y-3.04
X1.3094Y-3.2369
X1.3094Y-4.418
X1.3094Y-4.6148
X1.5062Y-3.04
X1.5062Y-3.2369
X1.5062Y-4.2211
X1.5062Y-4.418
X1.5062Y-4.6148
X1.522Y-3.7172
X1.7031Y-3.04
X1.7031Y-3.2369
X1.7031Y-3.6306
X1.7031Y-4.2211
X1.7031Y-4.418
X1.7031Y-4.6148
X1.7779Y-3.9731
X1.7899Y-3.7524
X1.8999Y-3.04
X1.8999Y-3.2369
X1.8999Y-3.6306
X1.8999Y-3.9731
X1.8999Y-4.2211
X1.8999Y-4.418
X1.8999Y-4.6148
X1.9155Y-3.7524
X2.0633Y-3.5971
X2.0968Y-3.04
X2.0968Y-3.2369
X2.0968Y-4.2211
X2.1047Y-3.5558
X2.1588Y-3.5567
X2.185Y-4.315
X2.2228Y-3.7605
X2.2228Y-3.8117
X2.2228Y-3.8629
X2.2267Y-3.477
X2.2267Y-3.5282
X2.2779Y-4.0203
X2.2779Y-4.0636
X2.2936Y-3.04
X2.2936Y-3.2369
X2.2976Y-3.4377
X2.2995Y-3.9042
X2.3058Y-3.6227
X2.313Y-4.3642
X2.4176Y-3.231
X2.4511Y-3.1581
X2.4551Y-3.5715
X2.459Y-3.7684
X2.4708Y-3.3904
X2.4708Y-3.8668
X2.4846Y-3.1955
X2.4905Y-3.04
X2.4905Y-4.103
X2.5279Y-4.0302
X2.5692Y-3.2487
X2.5692Y-3.3904
X2.5984Y-4.315
X2.6165Y-3.5518
X2.648Y-3.5164
X2.6873Y-3.04
X2.7185Y-4.3602
X2.8842Y-3.04
X2.8842Y-4.418
X2.8842Y-4.6148
X2.8921Y-3.5676
X2.9117Y-4.1109
X2.9275Y-3.414
X2.959Y-4.1069
X2.9964Y-4.0341
X3.0535Y-3.4967
X3.0791Y-3.3451
X3.081Y-4.418
X3.081Y-4.6148
X3.0917Y-3.1018
X3.1283Y-4.1975
X3.1519Y-3.3865
X3.1519Y-3.4377
X3.1519Y-4.355
X3.1893Y-4.231
X3.1893Y-4.2644
X3.1893Y-4.3924
X3.1917Y-3.1034
X3.2425Y-4.4121
X3.2779Y-3.4337
X3.2779Y-3.6306
X3.2779Y-4.4121
X3.2779Y-4.6148
X3.3606Y-3.7723
X3.4291Y-3.9016
X3.4291Y-3.9488
X3.4291Y-3.9961
X3.4314Y-3.6581
X3.4747Y-3.04
X3.4747Y-3.2369
X3.4747Y-3.4337
X3.4747Y-4.6148
X3.4826Y-3.6148
X3.4885Y-4.231
X3.4905Y-4.1227
X3.4944Y-3.8629
X3.5043Y-4.3963
X3.5456Y-4.355
X3.563Y-4.1969
X3.6716Y-3.04
X3.6716Y-3.2369
X3.6716Y-3.4337
X3.6716Y-4.6148
X3.8684Y-3.2369
X3.8684Y-3.4337
X3.8684Y-3.8274
T2
X2.5988Y-4.477
X2.6775Y-4.477
X2.7562Y-4.477
X2.1854Y-4.477
X2.2641Y-4.477
X2.3428Y-4.477
X3.7306Y-4.2999
X3.7306Y-4.3786
T3
X1.0944Y-3.7274
X1.0944Y-3.8074
X1.0944Y-3.8874
X1.0944Y-3.9674
X1.1644Y-3.6874
X1.1644Y-3.7674
X1.1644Y-3.8474
X1.1644Y-3.9274
X1.3544Y-3.5574
X1.3544Y-3.6474
X1.3544Y-4.0074
X1.3544Y-4.0974
T4
X3.6125Y-3.7782
X3.6125Y-3.8766
X3.6913Y-3.7782
X3.6913Y-3.8766
T5
X1.1294Y-3.5074
X1.1294Y-4.1474
T6
X3.798Y-3.5904
X3.798Y-4.0644
T7
X3.8291Y-4.6739
X3.8566Y-4.603
X3.8566Y-4.7447
X3.9275Y-4.5754
X3.9275Y-4.7723
X3.9984Y-4.603
X3.9984Y-4.7447
X4.0259Y-4.6739
X0.9551Y-2.981
X0.9826Y-2.9101
X0.9826Y-3.0518
X1.0535Y-2.8825
X1.0535Y-3.0794
X1.1243Y-2.9101
X1.1243Y-3.0518
X1.1519Y-2.981
X3.8291Y-2.981
X3.8566Y-2.9101
X3.8566Y-3.0518
X3.9275Y-2.8825
X3.9275Y-3.0794
X3.9984Y-2.9101
X3.9984Y-3.0518
X4.0259Y-2.981
X0.9551Y-4.6739
X0.9826Y-4.603
X0.9826Y-4.7447
X1.0535Y-4.5754
X1.0535Y-4.7723
X1.1243Y-4.603
X1.1243Y-4.7447
X1.1519Y-4.6739
T8
X3.0417Y-3.1372
X3.0417Y-3.2172
X3.2417Y-3.1772
T9
X2.5397Y-4.5597
X2.8153Y-4.5597
X2.1263Y-4.5597
X2.4019Y-4.5597
X3.8133Y-4.2408
X3.8133Y-4.4377
T10
X0.9944Y-3.5774
X0.9944Y-4.0774
T11
X3.9275Y-4.6739
X1.0535Y-2.981
X3.9275Y-2.981
X1.0535Y-4.6739
T0
M30
