G04 #@! TF.GenerationSoftware,KiCad,Pcbnew,5.0.1-33cea8e~68~ubuntu18.04.1*
G04 #@! TF.CreationDate,2018-11-12T15:38:47+00:00*
G04 #@! TF.ProjectId,comms,636F6D6D732E6B696361645F70636200,rev?*
G04 #@! TF.SameCoordinates,Original*
G04 #@! TF.FileFunction,Soldermask,Top*
G04 #@! TF.FilePolarity,Negative*
%FSLAX46Y46*%
G04 Gerber Fmt 4.6, Leading zero omitted, Abs format (unit mm)*
G04 Created by KiCad (PCBNEW 5.0.1-33cea8e~68~ubuntu18.04.1) date Mon 12 Nov 2018 15:38:47 GMT*
%MOMM*%
%LPD*%
G01*
G04 APERTURE LIST*
%ADD10C,0.100000*%
G04 APERTURE END LIST*
D10*
G36*
X100677123Y-115687452D02*
X101250387Y-115924906D01*
X101766310Y-116269635D01*
X102205067Y-116708392D01*
X102549796Y-117224315D01*
X102787250Y-117797579D01*
X102908302Y-118406152D01*
X102908302Y-119026648D01*
X102787250Y-119635221D01*
X102549796Y-120208485D01*
X102205067Y-120724408D01*
X101766310Y-121163165D01*
X101250387Y-121507894D01*
X100677123Y-121745348D01*
X100068550Y-121866400D01*
X99448054Y-121866400D01*
X98839481Y-121745348D01*
X98266217Y-121507894D01*
X97750294Y-121163165D01*
X97311537Y-120724408D01*
X96966808Y-120208485D01*
X96729354Y-119635221D01*
X96608302Y-119026648D01*
X96608302Y-118406152D01*
X96729354Y-117797579D01*
X96966808Y-117224315D01*
X97311537Y-116708392D01*
X97750294Y-116269635D01*
X98266217Y-115924906D01*
X98839481Y-115687452D01*
X99448054Y-115566400D01*
X100068550Y-115566400D01*
X100677123Y-115687452D01*
X100677123Y-115687452D01*
G37*
G36*
X27677123Y-115687452D02*
X28250387Y-115924906D01*
X28766310Y-116269635D01*
X29205067Y-116708392D01*
X29549796Y-117224315D01*
X29787250Y-117797579D01*
X29908302Y-118406152D01*
X29908302Y-119026648D01*
X29787250Y-119635221D01*
X29549796Y-120208485D01*
X29205067Y-120724408D01*
X28766310Y-121163165D01*
X28250387Y-121507894D01*
X27677123Y-121745348D01*
X27068550Y-121866400D01*
X26448054Y-121866400D01*
X25839481Y-121745348D01*
X25266217Y-121507894D01*
X24750294Y-121163165D01*
X24311537Y-120724408D01*
X23966808Y-120208485D01*
X23729354Y-119635221D01*
X23608302Y-119026648D01*
X23608302Y-118406152D01*
X23729354Y-117797579D01*
X23966808Y-117224315D01*
X24311537Y-116708392D01*
X24750294Y-116269635D01*
X25266217Y-115924906D01*
X25839481Y-115687452D01*
X26448054Y-115566400D01*
X27068550Y-115566400D01*
X27677123Y-115687452D01*
X27677123Y-115687452D01*
G37*
G36*
X71683314Y-115239457D02*
X71683317Y-115239458D01*
X71683316Y-115239458D01*
X71792509Y-115284687D01*
X71890450Y-115350129D01*
X71890783Y-115350352D01*
X71974350Y-115433919D01*
X71974352Y-115433922D01*
X72040015Y-115532193D01*
X72077485Y-115622653D01*
X72085245Y-115641388D01*
X72108302Y-115757304D01*
X72108302Y-115875496D01*
X72085245Y-115991412D01*
X72085244Y-115991414D01*
X72040015Y-116100607D01*
X71982387Y-116186853D01*
X71974350Y-116198881D01*
X71890783Y-116282448D01*
X71890780Y-116282450D01*
X71792509Y-116348113D01*
X71702049Y-116385583D01*
X71683314Y-116393343D01*
X71567398Y-116416400D01*
X71449206Y-116416400D01*
X71333290Y-116393343D01*
X71314555Y-116385583D01*
X71224095Y-116348113D01*
X71125824Y-116282450D01*
X71125821Y-116282448D01*
X71042254Y-116198881D01*
X71034217Y-116186853D01*
X70976589Y-116100607D01*
X70931360Y-115991414D01*
X70931359Y-115991412D01*
X70908302Y-115875496D01*
X70908302Y-115757304D01*
X70931359Y-115641388D01*
X70939119Y-115622653D01*
X70976589Y-115532193D01*
X71042252Y-115433922D01*
X71042254Y-115433919D01*
X71125821Y-115350352D01*
X71126154Y-115350129D01*
X71224095Y-115284687D01*
X71333288Y-115239458D01*
X71333287Y-115239458D01*
X71333290Y-115239457D01*
X71449206Y-115216400D01*
X71567398Y-115216400D01*
X71683314Y-115239457D01*
X71683314Y-115239457D01*
G37*
G36*
X64683314Y-115239457D02*
X64683317Y-115239458D01*
X64683316Y-115239458D01*
X64792509Y-115284687D01*
X64890450Y-115350129D01*
X64890783Y-115350352D01*
X64974350Y-115433919D01*
X64974352Y-115433922D01*
X65040015Y-115532193D01*
X65077485Y-115622653D01*
X65085245Y-115641388D01*
X65108302Y-115757304D01*
X65108302Y-115875496D01*
X65085245Y-115991412D01*
X65085244Y-115991414D01*
X65040015Y-116100607D01*
X64982387Y-116186853D01*
X64974350Y-116198881D01*
X64890783Y-116282448D01*
X64890780Y-116282450D01*
X64792509Y-116348113D01*
X64702049Y-116385583D01*
X64683314Y-116393343D01*
X64567398Y-116416400D01*
X64449206Y-116416400D01*
X64333290Y-116393343D01*
X64314555Y-116385583D01*
X64224095Y-116348113D01*
X64125824Y-116282450D01*
X64125821Y-116282448D01*
X64042254Y-116198881D01*
X64034217Y-116186853D01*
X63976589Y-116100607D01*
X63931360Y-115991414D01*
X63931359Y-115991412D01*
X63908302Y-115875496D01*
X63908302Y-115757304D01*
X63931359Y-115641388D01*
X63939119Y-115622653D01*
X63976589Y-115532193D01*
X64042252Y-115433922D01*
X64042254Y-115433919D01*
X64125821Y-115350352D01*
X64126154Y-115350129D01*
X64224095Y-115284687D01*
X64333288Y-115239458D01*
X64333287Y-115239458D01*
X64333290Y-115239457D01*
X64449206Y-115216400D01*
X64567398Y-115216400D01*
X64683314Y-115239457D01*
X64683314Y-115239457D01*
G37*
G36*
X61183314Y-115239457D02*
X61183317Y-115239458D01*
X61183316Y-115239458D01*
X61292509Y-115284687D01*
X61390450Y-115350129D01*
X61390783Y-115350352D01*
X61474350Y-115433919D01*
X61474352Y-115433922D01*
X61540015Y-115532193D01*
X61577485Y-115622653D01*
X61585245Y-115641388D01*
X61608302Y-115757304D01*
X61608302Y-115875496D01*
X61585245Y-115991412D01*
X61585244Y-115991414D01*
X61540015Y-116100607D01*
X61482387Y-116186853D01*
X61474350Y-116198881D01*
X61390783Y-116282448D01*
X61390780Y-116282450D01*
X61292509Y-116348113D01*
X61202049Y-116385583D01*
X61183314Y-116393343D01*
X61067398Y-116416400D01*
X60949206Y-116416400D01*
X60833290Y-116393343D01*
X60814555Y-116385583D01*
X60724095Y-116348113D01*
X60625824Y-116282450D01*
X60625821Y-116282448D01*
X60542254Y-116198881D01*
X60534217Y-116186853D01*
X60476589Y-116100607D01*
X60431360Y-115991414D01*
X60431359Y-115991412D01*
X60408302Y-115875496D01*
X60408302Y-115757304D01*
X60431359Y-115641388D01*
X60439119Y-115622653D01*
X60476589Y-115532193D01*
X60542252Y-115433922D01*
X60542254Y-115433919D01*
X60625821Y-115350352D01*
X60626154Y-115350129D01*
X60724095Y-115284687D01*
X60833288Y-115239458D01*
X60833287Y-115239458D01*
X60833290Y-115239457D01*
X60949206Y-115216400D01*
X61067398Y-115216400D01*
X61183314Y-115239457D01*
X61183314Y-115239457D01*
G37*
G36*
X54183314Y-115239457D02*
X54183317Y-115239458D01*
X54183316Y-115239458D01*
X54292509Y-115284687D01*
X54390450Y-115350129D01*
X54390783Y-115350352D01*
X54474350Y-115433919D01*
X54474352Y-115433922D01*
X54540015Y-115532193D01*
X54577485Y-115622653D01*
X54585245Y-115641388D01*
X54608302Y-115757304D01*
X54608302Y-115875496D01*
X54585245Y-115991412D01*
X54585244Y-115991414D01*
X54540015Y-116100607D01*
X54482387Y-116186853D01*
X54474350Y-116198881D01*
X54390783Y-116282448D01*
X54390780Y-116282450D01*
X54292509Y-116348113D01*
X54202049Y-116385583D01*
X54183314Y-116393343D01*
X54067398Y-116416400D01*
X53949206Y-116416400D01*
X53833290Y-116393343D01*
X53814555Y-116385583D01*
X53724095Y-116348113D01*
X53625824Y-116282450D01*
X53625821Y-116282448D01*
X53542254Y-116198881D01*
X53534217Y-116186853D01*
X53476589Y-116100607D01*
X53431360Y-115991414D01*
X53431359Y-115991412D01*
X53408302Y-115875496D01*
X53408302Y-115757304D01*
X53431359Y-115641388D01*
X53439119Y-115622653D01*
X53476589Y-115532193D01*
X53542252Y-115433922D01*
X53542254Y-115433919D01*
X53625821Y-115350352D01*
X53626154Y-115350129D01*
X53724095Y-115284687D01*
X53833288Y-115239458D01*
X53833287Y-115239458D01*
X53833290Y-115239457D01*
X53949206Y-115216400D01*
X54067398Y-115216400D01*
X54183314Y-115239457D01*
X54183314Y-115239457D01*
G37*
G36*
X85204145Y-114135614D02*
X85204148Y-114135615D01*
X85204147Y-114135615D01*
X85295141Y-114173306D01*
X85349613Y-114209703D01*
X85377035Y-114228026D01*
X85446676Y-114297667D01*
X85446677Y-114297669D01*
X85501396Y-114379561D01*
X85501396Y-114379562D01*
X85539088Y-114470557D01*
X85558302Y-114567153D01*
X85558302Y-114665647D01*
X85539088Y-114762243D01*
X85539087Y-114762245D01*
X85501396Y-114853239D01*
X85464999Y-114907711D01*
X85446676Y-114935133D01*
X85377035Y-115004774D01*
X85349613Y-115023097D01*
X85295141Y-115059494D01*
X85230797Y-115086146D01*
X85204145Y-115097186D01*
X85107549Y-115116400D01*
X85009055Y-115116400D01*
X84912459Y-115097186D01*
X84885807Y-115086146D01*
X84821463Y-115059494D01*
X84766991Y-115023097D01*
X84739569Y-115004774D01*
X84669928Y-114935133D01*
X84651605Y-114907711D01*
X84615208Y-114853239D01*
X84577517Y-114762245D01*
X84577516Y-114762243D01*
X84558302Y-114665647D01*
X84558302Y-114567153D01*
X84577516Y-114470557D01*
X84615208Y-114379562D01*
X84615208Y-114379561D01*
X84669927Y-114297669D01*
X84669928Y-114297667D01*
X84739569Y-114228026D01*
X84766991Y-114209703D01*
X84821463Y-114173306D01*
X84912457Y-114135615D01*
X84912456Y-114135615D01*
X84912459Y-114135614D01*
X85009055Y-114116400D01*
X85107549Y-114116400D01*
X85204145Y-114135614D01*
X85204145Y-114135614D01*
G37*
G36*
X55741653Y-112947143D02*
X55887244Y-113007449D01*
X56017392Y-113094411D01*
X56018275Y-113095001D01*
X56129701Y-113206427D01*
X56129703Y-113206430D01*
X56217253Y-113337458D01*
X56277559Y-113483049D01*
X56308302Y-113637607D01*
X56308302Y-113795193D01*
X56277559Y-113949751D01*
X56217253Y-114095342D01*
X56190344Y-114135614D01*
X56129701Y-114226373D01*
X56018275Y-114337799D01*
X56018272Y-114337801D01*
X55887244Y-114425351D01*
X55778112Y-114470555D01*
X55741653Y-114485657D01*
X55587096Y-114516400D01*
X55429508Y-114516400D01*
X55274951Y-114485657D01*
X55238492Y-114470555D01*
X55129360Y-114425351D01*
X54998332Y-114337801D01*
X54998329Y-114337799D01*
X54886903Y-114226373D01*
X54826260Y-114135614D01*
X54799351Y-114095342D01*
X54739045Y-113949751D01*
X54708302Y-113795193D01*
X54708302Y-113637607D01*
X54739045Y-113483049D01*
X54799351Y-113337458D01*
X54886901Y-113206430D01*
X54886903Y-113206427D01*
X54998329Y-113095001D01*
X54999212Y-113094411D01*
X55129360Y-113007449D01*
X55274951Y-112947143D01*
X55429508Y-112916400D01*
X55587096Y-112916400D01*
X55741653Y-112947143D01*
X55741653Y-112947143D01*
G37*
G36*
X57741653Y-112947143D02*
X57887244Y-113007449D01*
X58017392Y-113094411D01*
X58018275Y-113095001D01*
X58129701Y-113206427D01*
X58129703Y-113206430D01*
X58217253Y-113337458D01*
X58277559Y-113483049D01*
X58308302Y-113637607D01*
X58308302Y-113795193D01*
X58277559Y-113949751D01*
X58217253Y-114095342D01*
X58190344Y-114135614D01*
X58129701Y-114226373D01*
X58018275Y-114337799D01*
X58018272Y-114337801D01*
X57887244Y-114425351D01*
X57778112Y-114470555D01*
X57741653Y-114485657D01*
X57587096Y-114516400D01*
X57429508Y-114516400D01*
X57274951Y-114485657D01*
X57238492Y-114470555D01*
X57129360Y-114425351D01*
X56998332Y-114337801D01*
X56998329Y-114337799D01*
X56886903Y-114226373D01*
X56826260Y-114135614D01*
X56799351Y-114095342D01*
X56739045Y-113949751D01*
X56708302Y-113795193D01*
X56708302Y-113637607D01*
X56739045Y-113483049D01*
X56799351Y-113337458D01*
X56886901Y-113206430D01*
X56886903Y-113206427D01*
X56998329Y-113095001D01*
X56999212Y-113094411D01*
X57129360Y-113007449D01*
X57274951Y-112947143D01*
X57429508Y-112916400D01*
X57587096Y-112916400D01*
X57741653Y-112947143D01*
X57741653Y-112947143D01*
G37*
G36*
X59741653Y-112947143D02*
X59887244Y-113007449D01*
X60017392Y-113094411D01*
X60018275Y-113095001D01*
X60129701Y-113206427D01*
X60129703Y-113206430D01*
X60217253Y-113337458D01*
X60277559Y-113483049D01*
X60308302Y-113637607D01*
X60308302Y-113795193D01*
X60277559Y-113949751D01*
X60217253Y-114095342D01*
X60190344Y-114135614D01*
X60129701Y-114226373D01*
X60018275Y-114337799D01*
X60018272Y-114337801D01*
X59887244Y-114425351D01*
X59778112Y-114470555D01*
X59741653Y-114485657D01*
X59587096Y-114516400D01*
X59429508Y-114516400D01*
X59274951Y-114485657D01*
X59238492Y-114470555D01*
X59129360Y-114425351D01*
X58998332Y-114337801D01*
X58998329Y-114337799D01*
X58886903Y-114226373D01*
X58826260Y-114135614D01*
X58799351Y-114095342D01*
X58739045Y-113949751D01*
X58708302Y-113795193D01*
X58708302Y-113637607D01*
X58739045Y-113483049D01*
X58799351Y-113337458D01*
X58886901Y-113206430D01*
X58886903Y-113206427D01*
X58998329Y-113095001D01*
X58999212Y-113094411D01*
X59129360Y-113007449D01*
X59274951Y-112947143D01*
X59429508Y-112916400D01*
X59587096Y-112916400D01*
X59741653Y-112947143D01*
X59741653Y-112947143D01*
G37*
G36*
X68241653Y-112947143D02*
X68387244Y-113007449D01*
X68517392Y-113094411D01*
X68518275Y-113095001D01*
X68629701Y-113206427D01*
X68629703Y-113206430D01*
X68717253Y-113337458D01*
X68777559Y-113483049D01*
X68808302Y-113637607D01*
X68808302Y-113795193D01*
X68777559Y-113949751D01*
X68717253Y-114095342D01*
X68690344Y-114135614D01*
X68629701Y-114226373D01*
X68518275Y-114337799D01*
X68518272Y-114337801D01*
X68387244Y-114425351D01*
X68278112Y-114470555D01*
X68241653Y-114485657D01*
X68087096Y-114516400D01*
X67929508Y-114516400D01*
X67774951Y-114485657D01*
X67738492Y-114470555D01*
X67629360Y-114425351D01*
X67498332Y-114337801D01*
X67498329Y-114337799D01*
X67386903Y-114226373D01*
X67326260Y-114135614D01*
X67299351Y-114095342D01*
X67239045Y-113949751D01*
X67208302Y-113795193D01*
X67208302Y-113637607D01*
X67239045Y-113483049D01*
X67299351Y-113337458D01*
X67386901Y-113206430D01*
X67386903Y-113206427D01*
X67498329Y-113095001D01*
X67499212Y-113094411D01*
X67629360Y-113007449D01*
X67774951Y-112947143D01*
X67929508Y-112916400D01*
X68087096Y-112916400D01*
X68241653Y-112947143D01*
X68241653Y-112947143D01*
G37*
G36*
X66241653Y-112947143D02*
X66387244Y-113007449D01*
X66517392Y-113094411D01*
X66518275Y-113095001D01*
X66629701Y-113206427D01*
X66629703Y-113206430D01*
X66717253Y-113337458D01*
X66777559Y-113483049D01*
X66808302Y-113637607D01*
X66808302Y-113795193D01*
X66777559Y-113949751D01*
X66717253Y-114095342D01*
X66690344Y-114135614D01*
X66629701Y-114226373D01*
X66518275Y-114337799D01*
X66518272Y-114337801D01*
X66387244Y-114425351D01*
X66278112Y-114470555D01*
X66241653Y-114485657D01*
X66087096Y-114516400D01*
X65929508Y-114516400D01*
X65774951Y-114485657D01*
X65738492Y-114470555D01*
X65629360Y-114425351D01*
X65498332Y-114337801D01*
X65498329Y-114337799D01*
X65386903Y-114226373D01*
X65326260Y-114135614D01*
X65299351Y-114095342D01*
X65239045Y-113949751D01*
X65208302Y-113795193D01*
X65208302Y-113637607D01*
X65239045Y-113483049D01*
X65299351Y-113337458D01*
X65386901Y-113206430D01*
X65386903Y-113206427D01*
X65498329Y-113095001D01*
X65499212Y-113094411D01*
X65629360Y-113007449D01*
X65774951Y-112947143D01*
X65929508Y-112916400D01*
X66087096Y-112916400D01*
X66241653Y-112947143D01*
X66241653Y-112947143D01*
G37*
G36*
X70241653Y-112947143D02*
X70387244Y-113007449D01*
X70517392Y-113094411D01*
X70518275Y-113095001D01*
X70629701Y-113206427D01*
X70629703Y-113206430D01*
X70717253Y-113337458D01*
X70777559Y-113483049D01*
X70808302Y-113637607D01*
X70808302Y-113795193D01*
X70777559Y-113949751D01*
X70717253Y-114095342D01*
X70690344Y-114135614D01*
X70629701Y-114226373D01*
X70518275Y-114337799D01*
X70518272Y-114337801D01*
X70387244Y-114425351D01*
X70278112Y-114470555D01*
X70241653Y-114485657D01*
X70087096Y-114516400D01*
X69929508Y-114516400D01*
X69774951Y-114485657D01*
X69738492Y-114470555D01*
X69629360Y-114425351D01*
X69498332Y-114337801D01*
X69498329Y-114337799D01*
X69386903Y-114226373D01*
X69326260Y-114135614D01*
X69299351Y-114095342D01*
X69239045Y-113949751D01*
X69208302Y-113795193D01*
X69208302Y-113637607D01*
X69239045Y-113483049D01*
X69299351Y-113337458D01*
X69386901Y-113206430D01*
X69386903Y-113206427D01*
X69498329Y-113095001D01*
X69499212Y-113094411D01*
X69629360Y-113007449D01*
X69774951Y-112947143D01*
X69929508Y-112916400D01*
X70087096Y-112916400D01*
X70241653Y-112947143D01*
X70241653Y-112947143D01*
G37*
G36*
X86083302Y-113416400D02*
X85333302Y-113416400D01*
X85333302Y-112516400D01*
X86083302Y-112516400D01*
X86083302Y-113416400D01*
X86083302Y-113416400D01*
G37*
G36*
X84683302Y-113416400D02*
X83933302Y-113416400D01*
X83933302Y-112516400D01*
X84683302Y-112516400D01*
X84683302Y-113416400D01*
X84683302Y-113416400D01*
G37*
G36*
X97033314Y-112139457D02*
X97033317Y-112139458D01*
X97033316Y-112139458D01*
X97142509Y-112184687D01*
X97240450Y-112250129D01*
X97240783Y-112250352D01*
X97324350Y-112333919D01*
X97324352Y-112333922D01*
X97390015Y-112432193D01*
X97427485Y-112522653D01*
X97435245Y-112541388D01*
X97458302Y-112657304D01*
X97458302Y-112775496D01*
X97435245Y-112891412D01*
X97435244Y-112891414D01*
X97390015Y-113000607D01*
X97324573Y-113098548D01*
X97324350Y-113098881D01*
X97240783Y-113182448D01*
X97240780Y-113182450D01*
X97142509Y-113248113D01*
X97052049Y-113285583D01*
X97033314Y-113293343D01*
X96917398Y-113316400D01*
X96799206Y-113316400D01*
X96683290Y-113293343D01*
X96664555Y-113285583D01*
X96574095Y-113248113D01*
X96475824Y-113182450D01*
X96475821Y-113182448D01*
X96392254Y-113098881D01*
X96392031Y-113098548D01*
X96326589Y-113000607D01*
X96281360Y-112891414D01*
X96281359Y-112891412D01*
X96258302Y-112775496D01*
X96258302Y-112657304D01*
X96281359Y-112541388D01*
X96289119Y-112522653D01*
X96326589Y-112432193D01*
X96392252Y-112333922D01*
X96392254Y-112333919D01*
X96475821Y-112250352D01*
X96476154Y-112250129D01*
X96574095Y-112184687D01*
X96683288Y-112139458D01*
X96683287Y-112139458D01*
X96683290Y-112139457D01*
X96799206Y-112116400D01*
X96917398Y-112116400D01*
X97033314Y-112139457D01*
X97033314Y-112139457D01*
G37*
G36*
X57810000Y-112060000D02*
X57190000Y-112060000D01*
X57190000Y-111440000D01*
X57810000Y-111440000D01*
X57810000Y-112060000D01*
X57810000Y-112060000D01*
G37*
G36*
X66310000Y-112060000D02*
X65690000Y-112060000D01*
X65690000Y-111440000D01*
X66310000Y-111440000D01*
X66310000Y-112060000D01*
X66310000Y-112060000D01*
G37*
G36*
X55810000Y-112060000D02*
X55190000Y-112060000D01*
X55190000Y-111440000D01*
X55810000Y-111440000D01*
X55810000Y-112060000D01*
X55810000Y-112060000D01*
G37*
G36*
X94955742Y-110440000D02*
X94991653Y-110447143D01*
X95137244Y-110507449D01*
X95267392Y-110594411D01*
X95268275Y-110595001D01*
X95379701Y-110706427D01*
X95379703Y-110706430D01*
X95467253Y-110837458D01*
X95467253Y-110837459D01*
X95527559Y-110983049D01*
X95558302Y-111137606D01*
X95558302Y-111295194D01*
X95534193Y-111416400D01*
X95527559Y-111449751D01*
X95467253Y-111595342D01*
X95380291Y-111725490D01*
X95379701Y-111726373D01*
X95268275Y-111837799D01*
X95268272Y-111837801D01*
X95137244Y-111925351D01*
X95053594Y-111960000D01*
X94991653Y-111985657D01*
X94837096Y-112016400D01*
X94679508Y-112016400D01*
X94524951Y-111985657D01*
X94463010Y-111960000D01*
X94379360Y-111925351D01*
X94248332Y-111837801D01*
X94248329Y-111837799D01*
X94136903Y-111726373D01*
X94136313Y-111725490D01*
X94049351Y-111595342D01*
X93989045Y-111449751D01*
X93982411Y-111416400D01*
X93958302Y-111295194D01*
X93958302Y-111137606D01*
X93989045Y-110983049D01*
X94049351Y-110837459D01*
X94049351Y-110837458D01*
X94136901Y-110706430D01*
X94136903Y-110706427D01*
X94248329Y-110595001D01*
X94249212Y-110594411D01*
X94379360Y-110507449D01*
X94524951Y-110447143D01*
X94560862Y-110440000D01*
X94679508Y-110416400D01*
X94837096Y-110416400D01*
X94955742Y-110440000D01*
X94955742Y-110440000D01*
G37*
G36*
X68310000Y-111960000D02*
X67690000Y-111960000D01*
X67690000Y-111340000D01*
X68310000Y-111340000D01*
X68310000Y-111960000D01*
X68310000Y-111960000D01*
G37*
G36*
X87933302Y-111416400D02*
X86483302Y-111416400D01*
X86483302Y-110966400D01*
X87933302Y-110966400D01*
X87933302Y-111416400D01*
X87933302Y-111416400D01*
G37*
G36*
X83533302Y-111416400D02*
X82083302Y-111416400D01*
X82083302Y-110966400D01*
X83533302Y-110966400D01*
X83533302Y-111416400D01*
X83533302Y-111416400D01*
G37*
G36*
X57810000Y-111160000D02*
X57190000Y-111160000D01*
X57190000Y-110540000D01*
X57810000Y-110540000D01*
X57810000Y-111160000D01*
X57810000Y-111160000D01*
G37*
G36*
X55810000Y-111160000D02*
X55190000Y-111160000D01*
X55190000Y-110540000D01*
X55810000Y-110540000D01*
X55810000Y-111160000D01*
X55810000Y-111160000D01*
G37*
G36*
X66310000Y-111160000D02*
X65690000Y-111160000D01*
X65690000Y-110540000D01*
X66310000Y-110540000D01*
X66310000Y-111160000D01*
X66310000Y-111160000D01*
G37*
G36*
X68310000Y-111060000D02*
X67690000Y-111060000D01*
X67690000Y-110440000D01*
X68310000Y-110440000D01*
X68310000Y-111060000D01*
X68310000Y-111060000D01*
G37*
G36*
X81458302Y-110991400D02*
X80558302Y-110991400D01*
X80558302Y-110241400D01*
X81458302Y-110241400D01*
X81458302Y-110991400D01*
X81458302Y-110991400D01*
G37*
G36*
X89458302Y-110991400D02*
X88558302Y-110991400D01*
X88558302Y-110241400D01*
X89458302Y-110241400D01*
X89458302Y-110991400D01*
X89458302Y-110991400D01*
G37*
G36*
X83533302Y-110766400D02*
X82083302Y-110766400D01*
X82083302Y-110316400D01*
X83533302Y-110316400D01*
X83533302Y-110766400D01*
X83533302Y-110766400D01*
G37*
G36*
X87933302Y-110766400D02*
X86483302Y-110766400D01*
X86483302Y-110316400D01*
X87933302Y-110316400D01*
X87933302Y-110766400D01*
X87933302Y-110766400D01*
G37*
G36*
X83533302Y-110116400D02*
X82083302Y-110116400D01*
X82083302Y-109666400D01*
X83533302Y-109666400D01*
X83533302Y-110116400D01*
X83533302Y-110116400D01*
G37*
G36*
X87933302Y-110116400D02*
X86483302Y-110116400D01*
X86483302Y-109666400D01*
X87933302Y-109666400D01*
X87933302Y-110116400D01*
X87933302Y-110116400D01*
G37*
G36*
X94991653Y-108447143D02*
X95137244Y-108507449D01*
X95267392Y-108594411D01*
X95268275Y-108595001D01*
X95379701Y-108706427D01*
X95379703Y-108706430D01*
X95467253Y-108837458D01*
X95527559Y-108983049D01*
X95558302Y-109137607D01*
X95558302Y-109295193D01*
X95527559Y-109449751D01*
X95467253Y-109595342D01*
X95380291Y-109725490D01*
X95379701Y-109726373D01*
X95268275Y-109837799D01*
X95268272Y-109837801D01*
X95137244Y-109925351D01*
X94991653Y-109985657D01*
X94837096Y-110016400D01*
X94679508Y-110016400D01*
X94524951Y-109985657D01*
X94379360Y-109925351D01*
X94248332Y-109837801D01*
X94248329Y-109837799D01*
X94136903Y-109726373D01*
X94136313Y-109725490D01*
X94049351Y-109595342D01*
X93989045Y-109449751D01*
X93958302Y-109295193D01*
X93958302Y-109137607D01*
X93989045Y-108983049D01*
X94049351Y-108837458D01*
X94136901Y-108706430D01*
X94136903Y-108706427D01*
X94248329Y-108595001D01*
X94249212Y-108594411D01*
X94379360Y-108507449D01*
X94524951Y-108447143D01*
X94679508Y-108416400D01*
X94837096Y-108416400D01*
X94991653Y-108447143D01*
X94991653Y-108447143D01*
G37*
G36*
X81458302Y-109591400D02*
X80558302Y-109591400D01*
X80558302Y-108841400D01*
X81458302Y-108841400D01*
X81458302Y-109591400D01*
X81458302Y-109591400D01*
G37*
G36*
X89458302Y-109591400D02*
X88558302Y-109591400D01*
X88558302Y-108841400D01*
X89458302Y-108841400D01*
X89458302Y-109591400D01*
X89458302Y-109591400D01*
G37*
G36*
X87933302Y-109466400D02*
X86483302Y-109466400D01*
X86483302Y-109016400D01*
X87933302Y-109016400D01*
X87933302Y-109466400D01*
X87933302Y-109466400D01*
G37*
G36*
X83533302Y-109466400D02*
X82083302Y-109466400D01*
X82083302Y-109016400D01*
X83533302Y-109016400D01*
X83533302Y-109466400D01*
X83533302Y-109466400D01*
G37*
G36*
X97033314Y-107139457D02*
X97033317Y-107139458D01*
X97033316Y-107139458D01*
X97142509Y-107184687D01*
X97240450Y-107250129D01*
X97240783Y-107250352D01*
X97324350Y-107333919D01*
X97324352Y-107333922D01*
X97390015Y-107432193D01*
X97427485Y-107522653D01*
X97435245Y-107541388D01*
X97458302Y-107657304D01*
X97458302Y-107775496D01*
X97435245Y-107891412D01*
X97435244Y-107891414D01*
X97390015Y-108000607D01*
X97324573Y-108098548D01*
X97324350Y-108098881D01*
X97240783Y-108182448D01*
X97240780Y-108182450D01*
X97142509Y-108248113D01*
X97052049Y-108285583D01*
X97033314Y-108293343D01*
X96917398Y-108316400D01*
X96799206Y-108316400D01*
X96683290Y-108293343D01*
X96664555Y-108285583D01*
X96574095Y-108248113D01*
X96475824Y-108182450D01*
X96475821Y-108182448D01*
X96392254Y-108098881D01*
X96392031Y-108098548D01*
X96326589Y-108000607D01*
X96281360Y-107891414D01*
X96281359Y-107891412D01*
X96258302Y-107775496D01*
X96258302Y-107657304D01*
X96281359Y-107541388D01*
X96289119Y-107522653D01*
X96326589Y-107432193D01*
X96392252Y-107333922D01*
X96392254Y-107333919D01*
X96475821Y-107250352D01*
X96476154Y-107250129D01*
X96574095Y-107184687D01*
X96683288Y-107139458D01*
X96683287Y-107139458D01*
X96683290Y-107139457D01*
X96799206Y-107116400D01*
X96917398Y-107116400D01*
X97033314Y-107139457D01*
X97033314Y-107139457D01*
G37*
G36*
X84533302Y-107966400D02*
X83583302Y-107966400D01*
X83583302Y-106966400D01*
X84533302Y-106966400D01*
X84533302Y-107966400D01*
X84533302Y-107966400D01*
G37*
G36*
X82933302Y-107966400D02*
X81983302Y-107966400D01*
X81983302Y-106966400D01*
X82933302Y-106966400D01*
X82933302Y-107966400D01*
X82933302Y-107966400D01*
G37*
G36*
X86433302Y-107966400D02*
X85483302Y-107966400D01*
X85483302Y-106966400D01*
X86433302Y-106966400D01*
X86433302Y-107966400D01*
X86433302Y-107966400D01*
G37*
G36*
X88033302Y-107966400D02*
X87083302Y-107966400D01*
X87083302Y-106966400D01*
X88033302Y-106966400D01*
X88033302Y-107966400D01*
X88033302Y-107966400D01*
G37*
G36*
X29057747Y-104123205D02*
X29288874Y-104218941D01*
X29496881Y-104357927D01*
X29673775Y-104534821D01*
X29812761Y-104742828D01*
X29908497Y-104973955D01*
X29957302Y-105219315D01*
X29957302Y-105469485D01*
X29908497Y-105714845D01*
X29812761Y-105945972D01*
X29673775Y-106153979D01*
X29496881Y-106330873D01*
X29288874Y-106469859D01*
X29057747Y-106565595D01*
X28812387Y-106614400D01*
X28562217Y-106614400D01*
X28316857Y-106565595D01*
X28085730Y-106469859D01*
X27877723Y-106330873D01*
X27700829Y-106153979D01*
X27561843Y-105945972D01*
X27466107Y-105714845D01*
X27417302Y-105469485D01*
X27417302Y-105219315D01*
X27466107Y-104973955D01*
X27561843Y-104742828D01*
X27700829Y-104534821D01*
X27877723Y-104357927D01*
X28085730Y-104218941D01*
X28316857Y-104123205D01*
X28562217Y-104074400D01*
X28812387Y-104074400D01*
X29057747Y-104123205D01*
X29057747Y-104123205D01*
G37*
G36*
X82933302Y-105216400D02*
X81983302Y-105216400D01*
X81983302Y-104216400D01*
X82933302Y-104216400D01*
X82933302Y-105216400D01*
X82933302Y-105216400D01*
G37*
G36*
X88033302Y-105216400D02*
X87083302Y-105216400D01*
X87083302Y-104216400D01*
X88033302Y-104216400D01*
X88033302Y-105216400D01*
X88033302Y-105216400D01*
G37*
G36*
X86433302Y-105216400D02*
X85483302Y-105216400D01*
X85483302Y-104216400D01*
X86433302Y-104216400D01*
X86433302Y-105216400D01*
X86433302Y-105216400D01*
G37*
G36*
X84533302Y-105216400D02*
X83583302Y-105216400D01*
X83583302Y-104216400D01*
X84533302Y-104216400D01*
X84533302Y-105216400D01*
X84533302Y-105216400D01*
G37*
G36*
X25575441Y-101972035D02*
X25732472Y-102003270D01*
X25860738Y-102056400D01*
X26014217Y-102119973D01*
X26028313Y-102125812D01*
X26074091Y-102156400D01*
X26294564Y-102303715D01*
X26520987Y-102530138D01*
X26520988Y-102530140D01*
X26698890Y-102796389D01*
X26815875Y-103078814D01*
X26821432Y-103092231D01*
X26877559Y-103374400D01*
X26883902Y-103406292D01*
X26883902Y-103726508D01*
X26828417Y-104005456D01*
X26821432Y-104040569D01*
X26698891Y-104336409D01*
X26520987Y-104602662D01*
X26294564Y-104829085D01*
X26283616Y-104836400D01*
X26028313Y-105006988D01*
X25732472Y-105129530D01*
X25575441Y-105160765D01*
X25418411Y-105192000D01*
X25098193Y-105192000D01*
X24941163Y-105160765D01*
X24784132Y-105129530D01*
X24488291Y-105006988D01*
X24232988Y-104836400D01*
X24222040Y-104829085D01*
X23995617Y-104602662D01*
X23817713Y-104336409D01*
X23695172Y-104040569D01*
X23688188Y-104005456D01*
X23632702Y-103726508D01*
X23632702Y-103406292D01*
X23639046Y-103374400D01*
X23695172Y-103092231D01*
X23700730Y-103078814D01*
X23817714Y-102796389D01*
X23995616Y-102530140D01*
X23995617Y-102530138D01*
X24222040Y-102303715D01*
X24442513Y-102156400D01*
X24488291Y-102125812D01*
X24502388Y-102119973D01*
X24655866Y-102056400D01*
X24784132Y-102003270D01*
X24941163Y-101972035D01*
X25098193Y-101940800D01*
X25418411Y-101940800D01*
X25575441Y-101972035D01*
X25575441Y-101972035D01*
G37*
G36*
X96935003Y-101697886D02*
X96935006Y-101697887D01*
X96935005Y-101697887D01*
X97226186Y-101818498D01*
X97400497Y-101934969D01*
X97488245Y-101993600D01*
X97711102Y-102216457D01*
X97723242Y-102234626D01*
X97886204Y-102478516D01*
X97907587Y-102530140D01*
X98006816Y-102769699D01*
X98068302Y-103078812D01*
X98068302Y-103393988D01*
X98006816Y-103703101D01*
X98006815Y-103703103D01*
X97886204Y-103994284D01*
X97769733Y-104168595D01*
X97711102Y-104256343D01*
X97488245Y-104479200D01*
X97426249Y-104520624D01*
X97226186Y-104654302D01*
X97128579Y-104694732D01*
X96935003Y-104774914D01*
X96625890Y-104836400D01*
X96310714Y-104836400D01*
X96001601Y-104774914D01*
X95808025Y-104694732D01*
X95710418Y-104654302D01*
X95510355Y-104520624D01*
X95448359Y-104479200D01*
X95225502Y-104256343D01*
X95166871Y-104168595D01*
X95050400Y-103994284D01*
X94929789Y-103703103D01*
X94929788Y-103703101D01*
X94868302Y-103393988D01*
X94868302Y-103078812D01*
X94929788Y-102769699D01*
X95029017Y-102530140D01*
X95050400Y-102478516D01*
X95213362Y-102234626D01*
X95225502Y-102216457D01*
X95448359Y-101993600D01*
X95536107Y-101934969D01*
X95710418Y-101818498D01*
X96001599Y-101697887D01*
X96001598Y-101697887D01*
X96001601Y-101697886D01*
X96310714Y-101636400D01*
X96625890Y-101636400D01*
X96935003Y-101697886D01*
X96935003Y-101697886D01*
G37*
G36*
X34606484Y-103401300D02*
X34696563Y-103438613D01*
X34733876Y-103454068D01*
X34848526Y-103530674D01*
X34946028Y-103628176D01*
X35022634Y-103742826D01*
X35022634Y-103742827D01*
X35075402Y-103870218D01*
X35102302Y-104005455D01*
X35102302Y-104143345D01*
X35075402Y-104278582D01*
X35051448Y-104336411D01*
X35022634Y-104405974D01*
X34946028Y-104520624D01*
X34848526Y-104618126D01*
X34733876Y-104694732D01*
X34696563Y-104710187D01*
X34606484Y-104747500D01*
X34471247Y-104774400D01*
X34333357Y-104774400D01*
X34198120Y-104747500D01*
X34108041Y-104710187D01*
X34070728Y-104694732D01*
X33956078Y-104618126D01*
X33858576Y-104520624D01*
X33781970Y-104405974D01*
X33753156Y-104336411D01*
X33729202Y-104278582D01*
X33702302Y-104143345D01*
X33702302Y-104005455D01*
X33729202Y-103870218D01*
X33781970Y-103742827D01*
X33781970Y-103742826D01*
X33858576Y-103628176D01*
X33956078Y-103530674D01*
X34070728Y-103454068D01*
X34108041Y-103438613D01*
X34198120Y-103401300D01*
X34333357Y-103374400D01*
X34471247Y-103374400D01*
X34606484Y-103401300D01*
X34606484Y-103401300D01*
G37*
G36*
X75468302Y-103676400D02*
X74848302Y-103676400D01*
X74848302Y-103056400D01*
X75468302Y-103056400D01*
X75468302Y-103676400D01*
X75468302Y-103676400D01*
G37*
G36*
X74268302Y-103676400D02*
X73648302Y-103676400D01*
X73648302Y-103056400D01*
X74268302Y-103056400D01*
X74268302Y-103676400D01*
X74268302Y-103676400D01*
G37*
G36*
X63568302Y-103576400D02*
X62948302Y-103576400D01*
X62948302Y-102956400D01*
X63568302Y-102956400D01*
X63568302Y-103576400D01*
X63568302Y-103576400D01*
G37*
G36*
X75468302Y-102776400D02*
X74848302Y-102776400D01*
X74848302Y-102156400D01*
X75468302Y-102156400D01*
X75468302Y-102776400D01*
X75468302Y-102776400D01*
G37*
G36*
X74268302Y-102776400D02*
X73648302Y-102776400D01*
X73648302Y-102156400D01*
X74268302Y-102156400D01*
X74268302Y-102776400D01*
X74268302Y-102776400D01*
G37*
G36*
X63568302Y-102676400D02*
X62948302Y-102676400D01*
X62948302Y-102056400D01*
X63568302Y-102056400D01*
X63568302Y-102676400D01*
X63568302Y-102676400D01*
G37*
G36*
X34606484Y-101115300D02*
X34696563Y-101152613D01*
X34733876Y-101168068D01*
X34848526Y-101244674D01*
X34946028Y-101342176D01*
X35022634Y-101456826D01*
X35022634Y-101456827D01*
X35075402Y-101584218D01*
X35102302Y-101719455D01*
X35102302Y-101857345D01*
X35075402Y-101992582D01*
X35048967Y-102056400D01*
X35022634Y-102119974D01*
X34946028Y-102234624D01*
X34848526Y-102332126D01*
X34733876Y-102408732D01*
X34696563Y-102424187D01*
X34606484Y-102461500D01*
X34471247Y-102488400D01*
X34333357Y-102488400D01*
X34198120Y-102461500D01*
X34108041Y-102424187D01*
X34070728Y-102408732D01*
X33956078Y-102332126D01*
X33858576Y-102234624D01*
X33781970Y-102119974D01*
X33755637Y-102056400D01*
X33729202Y-101992582D01*
X33702302Y-101857345D01*
X33702302Y-101719455D01*
X33729202Y-101584218D01*
X33781970Y-101456827D01*
X33781970Y-101456826D01*
X33858576Y-101342176D01*
X33956078Y-101244674D01*
X34070728Y-101168068D01*
X34108041Y-101152613D01*
X34198120Y-101115300D01*
X34333357Y-101088400D01*
X34471247Y-101088400D01*
X34606484Y-101115300D01*
X34606484Y-101115300D01*
G37*
G36*
X88460000Y-101810000D02*
X87840000Y-101810000D01*
X87840000Y-101190000D01*
X88460000Y-101190000D01*
X88460000Y-101810000D01*
X88460000Y-101810000D01*
G37*
G36*
X89360000Y-101810000D02*
X88740000Y-101810000D01*
X88740000Y-101190000D01*
X89360000Y-101190000D01*
X89360000Y-101810000D01*
X89360000Y-101810000D01*
G37*
G36*
X28002484Y-100099300D02*
X28092563Y-100136613D01*
X28129876Y-100152068D01*
X28244526Y-100228674D01*
X28342028Y-100326176D01*
X28418634Y-100440826D01*
X28418634Y-100440827D01*
X28471402Y-100568218D01*
X28498302Y-100703455D01*
X28498302Y-100841345D01*
X28471402Y-100976582D01*
X28434089Y-101066661D01*
X28418634Y-101103974D01*
X28342028Y-101218624D01*
X28244526Y-101316126D01*
X28129876Y-101392732D01*
X28092563Y-101408187D01*
X28002484Y-101445500D01*
X27867247Y-101472400D01*
X27729357Y-101472400D01*
X27594120Y-101445500D01*
X27504041Y-101408187D01*
X27466728Y-101392732D01*
X27352078Y-101316126D01*
X27254576Y-101218624D01*
X27177970Y-101103974D01*
X27162515Y-101066661D01*
X27125202Y-100976582D01*
X27098302Y-100841345D01*
X27098302Y-100703455D01*
X27125202Y-100568218D01*
X27177970Y-100440827D01*
X27177970Y-100440826D01*
X27254576Y-100326176D01*
X27352078Y-100228674D01*
X27466728Y-100152068D01*
X27504041Y-100136613D01*
X27594120Y-100099300D01*
X27729357Y-100072400D01*
X27867247Y-100072400D01*
X28002484Y-100099300D01*
X28002484Y-100099300D01*
G37*
G36*
X46418302Y-101226400D02*
X45798302Y-101226400D01*
X45798302Y-100606400D01*
X46418302Y-100606400D01*
X46418302Y-101226400D01*
X46418302Y-101226400D01*
G37*
G36*
X47318302Y-101226400D02*
X46698302Y-101226400D01*
X46698302Y-100606400D01*
X47318302Y-100606400D01*
X47318302Y-101226400D01*
X47318302Y-101226400D01*
G37*
G36*
X67908302Y-100666400D02*
X67608302Y-100666400D01*
X67608302Y-99166400D01*
X67908302Y-99166400D01*
X67908302Y-100666400D01*
X67908302Y-100666400D01*
G37*
G36*
X62408302Y-100666400D02*
X62108302Y-100666400D01*
X62108302Y-99166400D01*
X62408302Y-99166400D01*
X62408302Y-100666400D01*
X62408302Y-100666400D01*
G37*
G36*
X62908302Y-100666400D02*
X62608302Y-100666400D01*
X62608302Y-99166400D01*
X62908302Y-99166400D01*
X62908302Y-100666400D01*
X62908302Y-100666400D01*
G37*
G36*
X63408302Y-100666400D02*
X63108302Y-100666400D01*
X63108302Y-99166400D01*
X63408302Y-99166400D01*
X63408302Y-100666400D01*
X63408302Y-100666400D01*
G37*
G36*
X63908302Y-100666400D02*
X63608302Y-100666400D01*
X63608302Y-99166400D01*
X63908302Y-99166400D01*
X63908302Y-100666400D01*
X63908302Y-100666400D01*
G37*
G36*
X64908302Y-100666400D02*
X64608302Y-100666400D01*
X64608302Y-99166400D01*
X64908302Y-99166400D01*
X64908302Y-100666400D01*
X64908302Y-100666400D01*
G37*
G36*
X65408302Y-100666400D02*
X65108302Y-100666400D01*
X65108302Y-99166400D01*
X65408302Y-99166400D01*
X65408302Y-100666400D01*
X65408302Y-100666400D01*
G37*
G36*
X65908302Y-100666400D02*
X65608302Y-100666400D01*
X65608302Y-99166400D01*
X65908302Y-99166400D01*
X65908302Y-100666400D01*
X65908302Y-100666400D01*
G37*
G36*
X66408302Y-100666400D02*
X66108302Y-100666400D01*
X66108302Y-99166400D01*
X66408302Y-99166400D01*
X66408302Y-100666400D01*
X66408302Y-100666400D01*
G37*
G36*
X66908302Y-100666400D02*
X66608302Y-100666400D01*
X66608302Y-99166400D01*
X66908302Y-99166400D01*
X66908302Y-100666400D01*
X66908302Y-100666400D01*
G37*
G36*
X67408302Y-100666400D02*
X67108302Y-100666400D01*
X67108302Y-99166400D01*
X67408302Y-99166400D01*
X67408302Y-100666400D01*
X67408302Y-100666400D01*
G37*
G36*
X68908302Y-100666400D02*
X68608302Y-100666400D01*
X68608302Y-99166400D01*
X68908302Y-99166400D01*
X68908302Y-100666400D01*
X68908302Y-100666400D01*
G37*
G36*
X72908302Y-100666400D02*
X72608302Y-100666400D01*
X72608302Y-99166400D01*
X72908302Y-99166400D01*
X72908302Y-100666400D01*
X72908302Y-100666400D01*
G37*
G36*
X73408302Y-100666400D02*
X73108302Y-100666400D01*
X73108302Y-99166400D01*
X73408302Y-99166400D01*
X73408302Y-100666400D01*
X73408302Y-100666400D01*
G37*
G36*
X71908302Y-100666400D02*
X71608302Y-100666400D01*
X71608302Y-99166400D01*
X71908302Y-99166400D01*
X71908302Y-100666400D01*
X71908302Y-100666400D01*
G37*
G36*
X74408302Y-100666400D02*
X74108302Y-100666400D01*
X74108302Y-99166400D01*
X74408302Y-99166400D01*
X74408302Y-100666400D01*
X74408302Y-100666400D01*
G37*
G36*
X73908302Y-100666400D02*
X73608302Y-100666400D01*
X73608302Y-99166400D01*
X73908302Y-99166400D01*
X73908302Y-100666400D01*
X73908302Y-100666400D01*
G37*
G36*
X72408302Y-100666400D02*
X72108302Y-100666400D01*
X72108302Y-99166400D01*
X72408302Y-99166400D01*
X72408302Y-100666400D01*
X72408302Y-100666400D01*
G37*
G36*
X64408302Y-100666400D02*
X64108302Y-100666400D01*
X64108302Y-99166400D01*
X64408302Y-99166400D01*
X64408302Y-100666400D01*
X64408302Y-100666400D01*
G37*
G36*
X69408302Y-100666400D02*
X69108302Y-100666400D01*
X69108302Y-99166400D01*
X69408302Y-99166400D01*
X69408302Y-100666400D01*
X69408302Y-100666400D01*
G37*
G36*
X68408302Y-100666400D02*
X68108302Y-100666400D01*
X68108302Y-99166400D01*
X68408302Y-99166400D01*
X68408302Y-100666400D01*
X68408302Y-100666400D01*
G37*
G36*
X69908302Y-100666400D02*
X69608302Y-100666400D01*
X69608302Y-99166400D01*
X69908302Y-99166400D01*
X69908302Y-100666400D01*
X69908302Y-100666400D01*
G37*
G36*
X70408302Y-100666400D02*
X70108302Y-100666400D01*
X70108302Y-99166400D01*
X70408302Y-99166400D01*
X70408302Y-100666400D01*
X70408302Y-100666400D01*
G37*
G36*
X70908302Y-100666400D02*
X70608302Y-100666400D01*
X70608302Y-99166400D01*
X70908302Y-99166400D01*
X70908302Y-100666400D01*
X70908302Y-100666400D01*
G37*
G36*
X71408302Y-100666400D02*
X71108302Y-100666400D01*
X71108302Y-99166400D01*
X71408302Y-99166400D01*
X71408302Y-100666400D01*
X71408302Y-100666400D01*
G37*
G36*
X89360000Y-100610000D02*
X88740000Y-100610000D01*
X88740000Y-99990000D01*
X89360000Y-99990000D01*
X89360000Y-100610000D01*
X89360000Y-100610000D01*
G37*
G36*
X88460000Y-100610000D02*
X87840000Y-100610000D01*
X87840000Y-99990000D01*
X88460000Y-99990000D01*
X88460000Y-100610000D01*
X88460000Y-100610000D01*
G37*
G36*
X29780484Y-99083300D02*
X29870563Y-99120613D01*
X29907876Y-99136068D01*
X30022526Y-99212674D01*
X30120028Y-99310176D01*
X30196634Y-99424826D01*
X30196634Y-99424827D01*
X30249402Y-99552218D01*
X30276302Y-99687455D01*
X30276302Y-99825345D01*
X30249402Y-99960582D01*
X30237216Y-99990000D01*
X30196634Y-100087974D01*
X30120028Y-100202624D01*
X30022526Y-100300126D01*
X29907876Y-100376732D01*
X29870563Y-100392187D01*
X29780484Y-100429500D01*
X29645247Y-100456400D01*
X29507357Y-100456400D01*
X29372120Y-100429500D01*
X29282041Y-100392187D01*
X29244728Y-100376732D01*
X29130078Y-100300126D01*
X29032576Y-100202624D01*
X28955970Y-100087974D01*
X28915388Y-99990000D01*
X28903202Y-99960582D01*
X28876302Y-99825345D01*
X28876302Y-99687455D01*
X28903202Y-99552218D01*
X28955970Y-99424827D01*
X28955970Y-99424826D01*
X29032576Y-99310176D01*
X29130078Y-99212674D01*
X29244728Y-99136068D01*
X29282041Y-99120613D01*
X29372120Y-99083300D01*
X29507357Y-99056400D01*
X29645247Y-99056400D01*
X29780484Y-99083300D01*
X29780484Y-99083300D01*
G37*
G36*
X28002484Y-98067300D02*
X28092563Y-98104613D01*
X28129876Y-98120068D01*
X28244526Y-98196674D01*
X28342028Y-98294176D01*
X28418634Y-98408826D01*
X28418634Y-98408827D01*
X28471402Y-98536218D01*
X28498302Y-98671455D01*
X28498302Y-98809345D01*
X28471402Y-98944582D01*
X28434089Y-99034661D01*
X28418634Y-99071974D01*
X28342028Y-99186624D01*
X28244526Y-99284126D01*
X28129876Y-99360732D01*
X28092563Y-99376187D01*
X28002484Y-99413500D01*
X27867247Y-99440400D01*
X27729357Y-99440400D01*
X27594120Y-99413500D01*
X27504041Y-99376187D01*
X27466728Y-99360732D01*
X27352078Y-99284126D01*
X27254576Y-99186624D01*
X27177970Y-99071974D01*
X27162515Y-99034661D01*
X27125202Y-98944582D01*
X27098302Y-98809345D01*
X27098302Y-98671455D01*
X27125202Y-98536218D01*
X27177970Y-98408827D01*
X27177970Y-98408826D01*
X27254576Y-98294176D01*
X27352078Y-98196674D01*
X27466728Y-98120068D01*
X27504041Y-98104613D01*
X27594120Y-98067300D01*
X27729357Y-98040400D01*
X27867247Y-98040400D01*
X28002484Y-98067300D01*
X28002484Y-98067300D01*
G37*
G36*
X47733302Y-99421400D02*
X46183302Y-99421400D01*
X46183302Y-98821400D01*
X47733302Y-98821400D01*
X47733302Y-99421400D01*
X47733302Y-99421400D01*
G37*
G36*
X42333302Y-99421400D02*
X40783302Y-99421400D01*
X40783302Y-98821400D01*
X42333302Y-98821400D01*
X42333302Y-99421400D01*
X42333302Y-99421400D01*
G37*
G36*
X88460000Y-99410000D02*
X87840000Y-99410000D01*
X87840000Y-98790000D01*
X88460000Y-98790000D01*
X88460000Y-99410000D01*
X88460000Y-99410000D01*
G37*
G36*
X89360000Y-99410000D02*
X88740000Y-99410000D01*
X88740000Y-98790000D01*
X89360000Y-98790000D01*
X89360000Y-99410000D01*
X89360000Y-99410000D01*
G37*
G36*
X39968302Y-99276400D02*
X39348302Y-99276400D01*
X39348302Y-98656400D01*
X39968302Y-98656400D01*
X39968302Y-99276400D01*
X39968302Y-99276400D01*
G37*
G36*
X91977067Y-97745221D02*
X92113563Y-97801760D01*
X92236398Y-97883835D01*
X92340867Y-97988304D01*
X92422942Y-98111139D01*
X92479481Y-98247635D01*
X92508302Y-98392530D01*
X92508302Y-98540270D01*
X92479481Y-98685165D01*
X92422942Y-98821661D01*
X92340867Y-98944496D01*
X92236398Y-99048965D01*
X92113563Y-99131040D01*
X91977067Y-99187579D01*
X91832172Y-99216400D01*
X91684432Y-99216400D01*
X91539537Y-99187579D01*
X91403041Y-99131040D01*
X91280206Y-99048965D01*
X91175737Y-98944496D01*
X91093662Y-98821661D01*
X91037123Y-98685165D01*
X91008302Y-98540270D01*
X91008302Y-98392530D01*
X91037123Y-98247635D01*
X91093662Y-98111139D01*
X91175737Y-97988304D01*
X91280206Y-97883835D01*
X91403041Y-97801760D01*
X91539537Y-97745221D01*
X91684432Y-97716400D01*
X91832172Y-97716400D01*
X91977067Y-97745221D01*
X91977067Y-97745221D01*
G37*
G36*
X93977067Y-97745221D02*
X94113563Y-97801760D01*
X94236398Y-97883835D01*
X94340867Y-97988304D01*
X94422942Y-98111139D01*
X94479481Y-98247635D01*
X94508302Y-98392530D01*
X94508302Y-98540270D01*
X94479481Y-98685165D01*
X94422942Y-98821661D01*
X94340867Y-98944496D01*
X94236398Y-99048965D01*
X94113563Y-99131040D01*
X93977067Y-99187579D01*
X93832172Y-99216400D01*
X93684432Y-99216400D01*
X93539537Y-99187579D01*
X93403041Y-99131040D01*
X93280206Y-99048965D01*
X93175737Y-98944496D01*
X93093662Y-98821661D01*
X93037123Y-98685165D01*
X93008302Y-98540270D01*
X93008302Y-98392530D01*
X93037123Y-98247635D01*
X93093662Y-98111139D01*
X93175737Y-97988304D01*
X93280206Y-97883835D01*
X93403041Y-97801760D01*
X93539537Y-97745221D01*
X93684432Y-97716400D01*
X93832172Y-97716400D01*
X93977067Y-97745221D01*
X93977067Y-97745221D01*
G37*
G36*
X58718302Y-98426400D02*
X58098302Y-98426400D01*
X58098302Y-97806400D01*
X58718302Y-97806400D01*
X58718302Y-98426400D01*
X58718302Y-98426400D01*
G37*
G36*
X57818302Y-98426400D02*
X57198302Y-98426400D01*
X57198302Y-97806400D01*
X57818302Y-97806400D01*
X57818302Y-98426400D01*
X57818302Y-98426400D01*
G37*
G36*
X29780484Y-97051300D02*
X29870563Y-97088613D01*
X29907876Y-97104068D01*
X30022526Y-97180674D01*
X30120028Y-97278176D01*
X30196634Y-97392826D01*
X30196634Y-97392827D01*
X30249402Y-97520218D01*
X30276302Y-97655455D01*
X30276302Y-97793345D01*
X30249402Y-97928582D01*
X30224664Y-97988303D01*
X30196634Y-98055974D01*
X30120028Y-98170624D01*
X30022526Y-98268126D01*
X29907876Y-98344732D01*
X29870563Y-98360187D01*
X29780484Y-98397500D01*
X29645247Y-98424400D01*
X29507357Y-98424400D01*
X29372120Y-98397500D01*
X29282041Y-98360187D01*
X29244728Y-98344732D01*
X29130078Y-98268126D01*
X29032576Y-98170624D01*
X28955970Y-98055974D01*
X28927940Y-97988303D01*
X28903202Y-97928582D01*
X28876302Y-97793345D01*
X28876302Y-97655455D01*
X28903202Y-97520218D01*
X28955970Y-97392827D01*
X28955970Y-97392826D01*
X29032576Y-97278176D01*
X29130078Y-97180674D01*
X29244728Y-97104068D01*
X29282041Y-97088613D01*
X29372120Y-97051300D01*
X29507357Y-97024400D01*
X29645247Y-97024400D01*
X29780484Y-97051300D01*
X29780484Y-97051300D01*
G37*
G36*
X39968302Y-98376400D02*
X39348302Y-98376400D01*
X39348302Y-97756400D01*
X39968302Y-97756400D01*
X39968302Y-98376400D01*
X39968302Y-98376400D01*
G37*
G36*
X76708302Y-98366400D02*
X75208302Y-98366400D01*
X75208302Y-98066400D01*
X76708302Y-98066400D01*
X76708302Y-98366400D01*
X76708302Y-98366400D01*
G37*
G36*
X61308302Y-98366400D02*
X59808302Y-98366400D01*
X59808302Y-98066400D01*
X61308302Y-98066400D01*
X61308302Y-98366400D01*
X61308302Y-98366400D01*
G37*
G36*
X42333302Y-98151400D02*
X40783302Y-98151400D01*
X40783302Y-97551400D01*
X42333302Y-97551400D01*
X42333302Y-98151400D01*
X42333302Y-98151400D01*
G37*
G36*
X47733302Y-98151400D02*
X46183302Y-98151400D01*
X46183302Y-97551400D01*
X47733302Y-97551400D01*
X47733302Y-98151400D01*
X47733302Y-98151400D01*
G37*
G36*
X61308302Y-97866400D02*
X59808302Y-97866400D01*
X59808302Y-97566400D01*
X61308302Y-97566400D01*
X61308302Y-97866400D01*
X61308302Y-97866400D01*
G37*
G36*
X76708302Y-97866400D02*
X75208302Y-97866400D01*
X75208302Y-97566400D01*
X76708302Y-97566400D01*
X76708302Y-97866400D01*
X76708302Y-97866400D01*
G37*
G36*
X28002484Y-96035300D02*
X28092563Y-96072613D01*
X28129876Y-96088068D01*
X28244526Y-96164674D01*
X28342028Y-96262176D01*
X28418634Y-96376826D01*
X28418634Y-96376827D01*
X28471402Y-96504218D01*
X28498302Y-96639455D01*
X28498302Y-96777345D01*
X28471402Y-96912582D01*
X28434089Y-97002661D01*
X28418634Y-97039974D01*
X28342028Y-97154624D01*
X28244526Y-97252126D01*
X28129876Y-97328732D01*
X28092563Y-97344187D01*
X28002484Y-97381500D01*
X27867247Y-97408400D01*
X27729357Y-97408400D01*
X27594120Y-97381500D01*
X27504041Y-97344187D01*
X27466728Y-97328732D01*
X27352078Y-97252126D01*
X27254576Y-97154624D01*
X27177970Y-97039974D01*
X27162515Y-97002661D01*
X27125202Y-96912582D01*
X27098302Y-96777345D01*
X27098302Y-96639455D01*
X27125202Y-96504218D01*
X27177970Y-96376827D01*
X27177970Y-96376826D01*
X27254576Y-96262176D01*
X27352078Y-96164674D01*
X27466728Y-96088068D01*
X27504041Y-96072613D01*
X27594120Y-96035300D01*
X27729357Y-96008400D01*
X27867247Y-96008400D01*
X28002484Y-96035300D01*
X28002484Y-96035300D01*
G37*
G36*
X76708302Y-97366400D02*
X75208302Y-97366400D01*
X75208302Y-97066400D01*
X76708302Y-97066400D01*
X76708302Y-97366400D01*
X76708302Y-97366400D01*
G37*
G36*
X61308302Y-97366400D02*
X59808302Y-97366400D01*
X59808302Y-97066400D01*
X61308302Y-97066400D01*
X61308302Y-97366400D01*
X61308302Y-97366400D01*
G37*
G36*
X57818302Y-97126400D02*
X57198302Y-97126400D01*
X57198302Y-96506400D01*
X57818302Y-96506400D01*
X57818302Y-97126400D01*
X57818302Y-97126400D01*
G37*
G36*
X58718302Y-97126400D02*
X58098302Y-97126400D01*
X58098302Y-96506400D01*
X58718302Y-96506400D01*
X58718302Y-97126400D01*
X58718302Y-97126400D01*
G37*
G36*
X47733302Y-96881400D02*
X46183302Y-96881400D01*
X46183302Y-96281400D01*
X47733302Y-96281400D01*
X47733302Y-96881400D01*
X47733302Y-96881400D01*
G37*
G36*
X42333302Y-96881400D02*
X40783302Y-96881400D01*
X40783302Y-96281400D01*
X42333302Y-96281400D01*
X42333302Y-96881400D01*
X42333302Y-96881400D01*
G37*
G36*
X61308302Y-96866400D02*
X59808302Y-96866400D01*
X59808302Y-96566400D01*
X61308302Y-96566400D01*
X61308302Y-96866400D01*
X61308302Y-96866400D01*
G37*
G36*
X76708302Y-96866400D02*
X75208302Y-96866400D01*
X75208302Y-96566400D01*
X76708302Y-96566400D01*
X76708302Y-96866400D01*
X76708302Y-96866400D01*
G37*
G36*
X91977067Y-95245221D02*
X92113563Y-95301760D01*
X92236398Y-95383835D01*
X92340867Y-95488304D01*
X92422942Y-95611139D01*
X92479481Y-95747635D01*
X92508302Y-95892530D01*
X92508302Y-96040270D01*
X92479481Y-96185165D01*
X92422942Y-96321661D01*
X92340867Y-96444496D01*
X92236398Y-96548965D01*
X92113563Y-96631040D01*
X91977067Y-96687579D01*
X91832172Y-96716400D01*
X91684432Y-96716400D01*
X91539537Y-96687579D01*
X91403041Y-96631040D01*
X91280206Y-96548965D01*
X91175737Y-96444496D01*
X91093662Y-96321661D01*
X91037123Y-96185165D01*
X91008302Y-96040270D01*
X91008302Y-95892530D01*
X91037123Y-95747635D01*
X91093662Y-95611139D01*
X91175737Y-95488304D01*
X91280206Y-95383835D01*
X91403041Y-95301760D01*
X91539537Y-95245221D01*
X91684432Y-95216400D01*
X91832172Y-95216400D01*
X91977067Y-95245221D01*
X91977067Y-95245221D01*
G37*
G36*
X93977067Y-95245221D02*
X94113563Y-95301760D01*
X94236398Y-95383835D01*
X94340867Y-95488304D01*
X94422942Y-95611139D01*
X94479481Y-95747635D01*
X94508302Y-95892530D01*
X94508302Y-96040270D01*
X94479481Y-96185165D01*
X94422942Y-96321661D01*
X94340867Y-96444496D01*
X94236398Y-96548965D01*
X94113563Y-96631040D01*
X93977067Y-96687579D01*
X93832172Y-96716400D01*
X93684432Y-96716400D01*
X93539537Y-96687579D01*
X93403041Y-96631040D01*
X93280206Y-96548965D01*
X93175737Y-96444496D01*
X93093662Y-96321661D01*
X93037123Y-96185165D01*
X93008302Y-96040270D01*
X93008302Y-95892530D01*
X93037123Y-95747635D01*
X93093662Y-95611139D01*
X93175737Y-95488304D01*
X93280206Y-95383835D01*
X93403041Y-95301760D01*
X93539537Y-95245221D01*
X93684432Y-95216400D01*
X93832172Y-95216400D01*
X93977067Y-95245221D01*
X93977067Y-95245221D01*
G37*
G36*
X29780484Y-95019300D02*
X29870563Y-95056613D01*
X29907876Y-95072068D01*
X30022526Y-95148674D01*
X30120028Y-95246176D01*
X30196634Y-95360826D01*
X30206165Y-95383837D01*
X30249402Y-95488218D01*
X30276302Y-95623455D01*
X30276302Y-95761345D01*
X30249402Y-95896582D01*
X30212089Y-95986661D01*
X30196634Y-96023974D01*
X30120028Y-96138624D01*
X30022526Y-96236126D01*
X29907876Y-96312732D01*
X29886319Y-96321661D01*
X29780484Y-96365500D01*
X29645247Y-96392400D01*
X29507357Y-96392400D01*
X29372120Y-96365500D01*
X29266285Y-96321661D01*
X29244728Y-96312732D01*
X29130078Y-96236126D01*
X29032576Y-96138624D01*
X28955970Y-96023974D01*
X28940515Y-95986661D01*
X28903202Y-95896582D01*
X28876302Y-95761345D01*
X28876302Y-95623455D01*
X28903202Y-95488218D01*
X28946439Y-95383837D01*
X28955970Y-95360826D01*
X29032576Y-95246176D01*
X29130078Y-95148674D01*
X29244728Y-95072068D01*
X29282041Y-95056613D01*
X29372120Y-95019300D01*
X29507357Y-94992400D01*
X29645247Y-94992400D01*
X29780484Y-95019300D01*
X29780484Y-95019300D01*
G37*
G36*
X76708302Y-96366400D02*
X75208302Y-96366400D01*
X75208302Y-96066400D01*
X76708302Y-96066400D01*
X76708302Y-96366400D01*
X76708302Y-96366400D01*
G37*
G36*
X61308302Y-96366400D02*
X59808302Y-96366400D01*
X59808302Y-96066400D01*
X61308302Y-96066400D01*
X61308302Y-96366400D01*
X61308302Y-96366400D01*
G37*
G36*
X87333302Y-96316400D02*
X86383302Y-96316400D01*
X86383302Y-95316400D01*
X87333302Y-95316400D01*
X87333302Y-96316400D01*
X87333302Y-96316400D01*
G37*
G36*
X88933302Y-96316400D02*
X87983302Y-96316400D01*
X87983302Y-95316400D01*
X88933302Y-95316400D01*
X88933302Y-96316400D01*
X88933302Y-96316400D01*
G37*
G36*
X61308302Y-95866400D02*
X59808302Y-95866400D01*
X59808302Y-95566400D01*
X61308302Y-95566400D01*
X61308302Y-95866400D01*
X61308302Y-95866400D01*
G37*
G36*
X76708302Y-95866400D02*
X75208302Y-95866400D01*
X75208302Y-95566400D01*
X76708302Y-95566400D01*
X76708302Y-95866400D01*
X76708302Y-95866400D01*
G37*
G36*
X57818302Y-95826400D02*
X57198302Y-95826400D01*
X57198302Y-95206400D01*
X57818302Y-95206400D01*
X57818302Y-95826400D01*
X57818302Y-95826400D01*
G37*
G36*
X58718302Y-95826400D02*
X58098302Y-95826400D01*
X58098302Y-95206400D01*
X58718302Y-95206400D01*
X58718302Y-95826400D01*
X58718302Y-95826400D01*
G37*
G36*
X47733302Y-95611400D02*
X46183302Y-95611400D01*
X46183302Y-95011400D01*
X47733302Y-95011400D01*
X47733302Y-95611400D01*
X47733302Y-95611400D01*
G37*
G36*
X42333302Y-95611400D02*
X40783302Y-95611400D01*
X40783302Y-95011400D01*
X42333302Y-95011400D01*
X42333302Y-95611400D01*
X42333302Y-95611400D01*
G37*
G36*
X28002484Y-94003300D02*
X28092563Y-94040613D01*
X28129876Y-94056068D01*
X28244526Y-94132674D01*
X28342028Y-94230176D01*
X28418634Y-94344826D01*
X28418634Y-94344827D01*
X28471402Y-94472218D01*
X28498302Y-94607455D01*
X28498302Y-94745345D01*
X28471402Y-94880582D01*
X28434089Y-94970661D01*
X28418634Y-95007974D01*
X28342028Y-95122624D01*
X28244526Y-95220126D01*
X28129876Y-95296732D01*
X28117737Y-95301760D01*
X28002484Y-95349500D01*
X27867247Y-95376400D01*
X27729357Y-95376400D01*
X27594120Y-95349500D01*
X27478867Y-95301760D01*
X27466728Y-95296732D01*
X27352078Y-95220126D01*
X27254576Y-95122624D01*
X27177970Y-95007974D01*
X27162515Y-94970661D01*
X27125202Y-94880582D01*
X27098302Y-94745345D01*
X27098302Y-94607455D01*
X27125202Y-94472218D01*
X27177970Y-94344827D01*
X27177970Y-94344826D01*
X27254576Y-94230176D01*
X27352078Y-94132674D01*
X27466728Y-94056068D01*
X27504041Y-94040613D01*
X27594120Y-94003300D01*
X27729357Y-93976400D01*
X27867247Y-93976400D01*
X28002484Y-94003300D01*
X28002484Y-94003300D01*
G37*
G36*
X61308302Y-95366400D02*
X59808302Y-95366400D01*
X59808302Y-95066400D01*
X61308302Y-95066400D01*
X61308302Y-95366400D01*
X61308302Y-95366400D01*
G37*
G36*
X76708302Y-95366400D02*
X75208302Y-95366400D01*
X75208302Y-95066400D01*
X76708302Y-95066400D01*
X76708302Y-95366400D01*
X76708302Y-95366400D01*
G37*
G36*
X61308302Y-94866400D02*
X59808302Y-94866400D01*
X59808302Y-94566400D01*
X61308302Y-94566400D01*
X61308302Y-94866400D01*
X61308302Y-94866400D01*
G37*
G36*
X76708302Y-94866400D02*
X75208302Y-94866400D01*
X75208302Y-94566400D01*
X76708302Y-94566400D01*
X76708302Y-94866400D01*
X76708302Y-94866400D01*
G37*
G36*
X88908302Y-94691400D02*
X88008302Y-94691400D01*
X88008302Y-93941400D01*
X88908302Y-93941400D01*
X88908302Y-94691400D01*
X88908302Y-94691400D01*
G37*
G36*
X58718302Y-94526400D02*
X58098302Y-94526400D01*
X58098302Y-93906400D01*
X58718302Y-93906400D01*
X58718302Y-94526400D01*
X58718302Y-94526400D01*
G37*
G36*
X57818302Y-94526400D02*
X57198302Y-94526400D01*
X57198302Y-93906400D01*
X57818302Y-93906400D01*
X57818302Y-94526400D01*
X57818302Y-94526400D01*
G37*
G36*
X61308302Y-94366400D02*
X59808302Y-94366400D01*
X59808302Y-94066400D01*
X61308302Y-94066400D01*
X61308302Y-94366400D01*
X61308302Y-94366400D01*
G37*
G36*
X76708302Y-94366400D02*
X75208302Y-94366400D01*
X75208302Y-94066400D01*
X76708302Y-94066400D01*
X76708302Y-94366400D01*
X76708302Y-94366400D01*
G37*
G36*
X29780484Y-92987300D02*
X29870563Y-93024613D01*
X29907876Y-93040068D01*
X30022526Y-93116674D01*
X30120028Y-93214176D01*
X30196634Y-93328826D01*
X30196634Y-93328827D01*
X30249402Y-93456218D01*
X30276302Y-93591455D01*
X30276302Y-93729345D01*
X30249402Y-93864582D01*
X30232080Y-93906400D01*
X30196634Y-93991974D01*
X30120028Y-94106624D01*
X30022526Y-94204126D01*
X29907876Y-94280732D01*
X29870563Y-94296187D01*
X29780484Y-94333500D01*
X29645247Y-94360400D01*
X29507357Y-94360400D01*
X29372120Y-94333500D01*
X29282041Y-94296187D01*
X29244728Y-94280732D01*
X29130078Y-94204126D01*
X29032576Y-94106624D01*
X28955970Y-93991974D01*
X28920524Y-93906400D01*
X28903202Y-93864582D01*
X28876302Y-93729345D01*
X28876302Y-93591455D01*
X28903202Y-93456218D01*
X28955970Y-93328827D01*
X28955970Y-93328826D01*
X29032576Y-93214176D01*
X29130078Y-93116674D01*
X29244728Y-93040068D01*
X29282041Y-93024613D01*
X29372120Y-92987300D01*
X29507357Y-92960400D01*
X29645247Y-92960400D01*
X29780484Y-92987300D01*
X29780484Y-92987300D01*
G37*
G36*
X56018302Y-94026400D02*
X55398302Y-94026400D01*
X55398302Y-93406400D01*
X56018302Y-93406400D01*
X56018302Y-94026400D01*
X56018302Y-94026400D01*
G37*
G36*
X55118302Y-94026400D02*
X54498302Y-94026400D01*
X54498302Y-93406400D01*
X55118302Y-93406400D01*
X55118302Y-94026400D01*
X55118302Y-94026400D01*
G37*
G36*
X76708302Y-93866400D02*
X75208302Y-93866400D01*
X75208302Y-93566400D01*
X76708302Y-93566400D01*
X76708302Y-93866400D01*
X76708302Y-93866400D01*
G37*
G36*
X61308302Y-93866400D02*
X59808302Y-93866400D01*
X59808302Y-93566400D01*
X61308302Y-93566400D01*
X61308302Y-93866400D01*
X61308302Y-93866400D01*
G37*
G36*
X76708302Y-93366400D02*
X75208302Y-93366400D01*
X75208302Y-93066400D01*
X76708302Y-93066400D01*
X76708302Y-93366400D01*
X76708302Y-93366400D01*
G37*
G36*
X61308302Y-93366400D02*
X59808302Y-93366400D01*
X59808302Y-93066400D01*
X61308302Y-93066400D01*
X61308302Y-93366400D01*
X61308302Y-93366400D01*
G37*
G36*
X34606484Y-91971300D02*
X34696563Y-92008613D01*
X34733876Y-92024068D01*
X34848526Y-92100674D01*
X34946028Y-92198176D01*
X35022634Y-92312826D01*
X35022634Y-92312827D01*
X35075402Y-92440218D01*
X35102302Y-92575455D01*
X35102302Y-92713345D01*
X35075402Y-92848582D01*
X35068021Y-92866400D01*
X35022634Y-92975974D01*
X34946028Y-93090624D01*
X34848526Y-93188126D01*
X34733876Y-93264732D01*
X34696563Y-93280187D01*
X34606484Y-93317500D01*
X34471247Y-93344400D01*
X34333357Y-93344400D01*
X34198120Y-93317500D01*
X34108041Y-93280187D01*
X34070728Y-93264732D01*
X33956078Y-93188126D01*
X33858576Y-93090624D01*
X33781970Y-92975974D01*
X33736583Y-92866400D01*
X33729202Y-92848582D01*
X33702302Y-92713345D01*
X33702302Y-92575455D01*
X33729202Y-92440218D01*
X33781970Y-92312827D01*
X33781970Y-92312826D01*
X33858576Y-92198176D01*
X33956078Y-92100674D01*
X34070728Y-92024068D01*
X34108041Y-92008613D01*
X34198120Y-91971300D01*
X34333357Y-91944400D01*
X34471247Y-91944400D01*
X34606484Y-91971300D01*
X34606484Y-91971300D01*
G37*
G36*
X88908302Y-93291400D02*
X88008302Y-93291400D01*
X88008302Y-92541400D01*
X88908302Y-92541400D01*
X88908302Y-93291400D01*
X88908302Y-93291400D01*
G37*
G36*
X61308302Y-92866400D02*
X59808302Y-92866400D01*
X59808302Y-92566400D01*
X61308302Y-92566400D01*
X61308302Y-92866400D01*
X61308302Y-92866400D01*
G37*
G36*
X76708302Y-92866400D02*
X75208302Y-92866400D01*
X75208302Y-92566400D01*
X76708302Y-92566400D01*
X76708302Y-92866400D01*
X76708302Y-92866400D01*
G37*
G36*
X96935003Y-89657886D02*
X97001186Y-89685300D01*
X97226186Y-89778498D01*
X97400497Y-89894969D01*
X97488245Y-89953600D01*
X97711102Y-90176457D01*
X97711103Y-90176459D01*
X97886204Y-90438516D01*
X97886204Y-90438517D01*
X98006816Y-90729699D01*
X98068302Y-91038812D01*
X98068302Y-91353988D01*
X98006816Y-91663101D01*
X98006815Y-91663103D01*
X97886204Y-91954284D01*
X97811290Y-92066400D01*
X97711102Y-92216343D01*
X97488245Y-92439200D01*
X97486721Y-92440218D01*
X97226186Y-92614302D01*
X97020289Y-92699587D01*
X96935003Y-92734914D01*
X96625890Y-92796400D01*
X96310714Y-92796400D01*
X96001601Y-92734914D01*
X95916315Y-92699587D01*
X95710418Y-92614302D01*
X95449883Y-92440218D01*
X95448359Y-92439200D01*
X95225502Y-92216343D01*
X95125314Y-92066400D01*
X95050400Y-91954284D01*
X94929789Y-91663103D01*
X94929788Y-91663101D01*
X94868302Y-91353988D01*
X94868302Y-91038812D01*
X94929788Y-90729699D01*
X95050400Y-90438517D01*
X95050400Y-90438516D01*
X95225501Y-90176459D01*
X95225502Y-90176457D01*
X95448359Y-89953600D01*
X95536107Y-89894969D01*
X95710418Y-89778498D01*
X95935418Y-89685300D01*
X96001601Y-89657886D01*
X96310714Y-89596400D01*
X96625890Y-89596400D01*
X96935003Y-89657886D01*
X96935003Y-89657886D01*
G37*
G36*
X55308302Y-92766400D02*
X54358302Y-92766400D01*
X54358302Y-91916400D01*
X55308302Y-91916400D01*
X55308302Y-92766400D01*
X55308302Y-92766400D01*
G37*
G36*
X56758302Y-92766400D02*
X55808302Y-92766400D01*
X55808302Y-91916400D01*
X56758302Y-91916400D01*
X56758302Y-92766400D01*
X56758302Y-92766400D01*
G37*
G36*
X53768302Y-92576400D02*
X53148302Y-92576400D01*
X53148302Y-91956400D01*
X53768302Y-91956400D01*
X53768302Y-92576400D01*
X53768302Y-92576400D01*
G37*
G36*
X25575441Y-89272035D02*
X25732472Y-89303270D01*
X26028313Y-89425812D01*
X26077750Y-89458845D01*
X26294564Y-89603715D01*
X26520987Y-89830138D01*
X26575803Y-89912176D01*
X26698890Y-90096389D01*
X26821432Y-90392230D01*
X26828417Y-90427345D01*
X26883902Y-90706291D01*
X26883902Y-91026509D01*
X26875967Y-91066400D01*
X26821432Y-91340570D01*
X26698890Y-91636411D01*
X26609939Y-91769535D01*
X26520987Y-91902662D01*
X26294564Y-92129085D01*
X26191165Y-92198174D01*
X26028313Y-92306988D01*
X26028312Y-92306989D01*
X26028311Y-92306989D01*
X25941663Y-92342880D01*
X25732472Y-92429530D01*
X25575441Y-92460765D01*
X25418411Y-92492000D01*
X25098193Y-92492000D01*
X24941163Y-92460765D01*
X24784132Y-92429530D01*
X24574941Y-92342880D01*
X24488293Y-92306989D01*
X24488292Y-92306989D01*
X24488291Y-92306988D01*
X24325439Y-92198174D01*
X24222040Y-92129085D01*
X23995617Y-91902662D01*
X23906665Y-91769535D01*
X23817714Y-91636411D01*
X23695172Y-91340570D01*
X23640637Y-91066400D01*
X23632702Y-91026509D01*
X23632702Y-90706291D01*
X23688187Y-90427345D01*
X23695172Y-90392230D01*
X23817714Y-90096389D01*
X23940801Y-89912176D01*
X23995617Y-89830138D01*
X24222040Y-89603715D01*
X24438854Y-89458845D01*
X24488291Y-89425812D01*
X24784132Y-89303270D01*
X24941163Y-89272035D01*
X25098193Y-89240800D01*
X25418411Y-89240800D01*
X25575441Y-89272035D01*
X25575441Y-89272035D01*
G37*
G36*
X57968302Y-92476400D02*
X57348302Y-92476400D01*
X57348302Y-91856400D01*
X57968302Y-91856400D01*
X57968302Y-92476400D01*
X57968302Y-92476400D01*
G37*
G36*
X76708302Y-92366400D02*
X75208302Y-92366400D01*
X75208302Y-92066400D01*
X76708302Y-92066400D01*
X76708302Y-92366400D01*
X76708302Y-92366400D01*
G37*
G36*
X61308302Y-92366400D02*
X59808302Y-92366400D01*
X59808302Y-92066400D01*
X61308302Y-92066400D01*
X61308302Y-92366400D01*
X61308302Y-92366400D01*
G37*
G36*
X76708302Y-91866400D02*
X75208302Y-91866400D01*
X75208302Y-91566400D01*
X76708302Y-91566400D01*
X76708302Y-91866400D01*
X76708302Y-91866400D01*
G37*
G36*
X61308302Y-91866400D02*
X59808302Y-91866400D01*
X59808302Y-91566400D01*
X61308302Y-91566400D01*
X61308302Y-91866400D01*
X61308302Y-91866400D01*
G37*
G36*
X37508302Y-91741400D02*
X36508302Y-91741400D01*
X36508302Y-90791400D01*
X37508302Y-90791400D01*
X37508302Y-91741400D01*
X37508302Y-91741400D01*
G37*
G36*
X39158302Y-91691400D02*
X38158302Y-91691400D01*
X38158302Y-90741400D01*
X39158302Y-90741400D01*
X39158302Y-91691400D01*
X39158302Y-91691400D01*
G37*
G36*
X53768302Y-91676400D02*
X53148302Y-91676400D01*
X53148302Y-91056400D01*
X53768302Y-91056400D01*
X53768302Y-91676400D01*
X53768302Y-91676400D01*
G37*
G36*
X55308302Y-91616400D02*
X54358302Y-91616400D01*
X54358302Y-90766400D01*
X55308302Y-90766400D01*
X55308302Y-91616400D01*
X55308302Y-91616400D01*
G37*
G36*
X56758302Y-91616400D02*
X55808302Y-91616400D01*
X55808302Y-90766400D01*
X56758302Y-90766400D01*
X56758302Y-91616400D01*
X56758302Y-91616400D01*
G37*
G36*
X57968302Y-91576400D02*
X57348302Y-91576400D01*
X57348302Y-90956400D01*
X57968302Y-90956400D01*
X57968302Y-91576400D01*
X57968302Y-91576400D01*
G37*
G36*
X76708302Y-91366400D02*
X75208302Y-91366400D01*
X75208302Y-91066400D01*
X76708302Y-91066400D01*
X76708302Y-91366400D01*
X76708302Y-91366400D01*
G37*
G36*
X61308302Y-91366400D02*
X59808302Y-91366400D01*
X59808302Y-91066400D01*
X61308302Y-91066400D01*
X61308302Y-91366400D01*
X61308302Y-91366400D01*
G37*
G36*
X34606484Y-89685300D02*
X34696563Y-89722613D01*
X34733876Y-89738068D01*
X34848526Y-89814674D01*
X34946028Y-89912176D01*
X35022634Y-90026826D01*
X35022634Y-90026827D01*
X35075402Y-90154218D01*
X35102302Y-90289455D01*
X35102302Y-90427345D01*
X35075402Y-90562582D01*
X35038089Y-90652661D01*
X35022634Y-90689974D01*
X34946028Y-90804624D01*
X34848526Y-90902126D01*
X34733876Y-90978732D01*
X34696563Y-90994187D01*
X34606484Y-91031500D01*
X34471247Y-91058400D01*
X34333357Y-91058400D01*
X34198120Y-91031500D01*
X34108041Y-90994187D01*
X34070728Y-90978732D01*
X33956078Y-90902126D01*
X33858576Y-90804624D01*
X33781970Y-90689974D01*
X33766515Y-90652661D01*
X33729202Y-90562582D01*
X33702302Y-90427345D01*
X33702302Y-90289455D01*
X33729202Y-90154218D01*
X33781970Y-90026827D01*
X33781970Y-90026826D01*
X33858576Y-89912176D01*
X33956078Y-89814674D01*
X34070728Y-89738068D01*
X34108041Y-89722613D01*
X34198120Y-89685300D01*
X34333357Y-89658400D01*
X34471247Y-89658400D01*
X34606484Y-89685300D01*
X34606484Y-89685300D01*
G37*
G36*
X76708302Y-90866400D02*
X75208302Y-90866400D01*
X75208302Y-90566400D01*
X76708302Y-90566400D01*
X76708302Y-90866400D01*
X76708302Y-90866400D01*
G37*
G36*
X61308302Y-90866400D02*
X59808302Y-90866400D01*
X59808302Y-90566400D01*
X61308302Y-90566400D01*
X61308302Y-90866400D01*
X61308302Y-90866400D01*
G37*
G36*
X76708302Y-90366400D02*
X75208302Y-90366400D01*
X75208302Y-90066400D01*
X76708302Y-90066400D01*
X76708302Y-90366400D01*
X76708302Y-90366400D01*
G37*
G36*
X61308302Y-90366400D02*
X59808302Y-90366400D01*
X59808302Y-90066400D01*
X61308302Y-90066400D01*
X61308302Y-90366400D01*
X61308302Y-90366400D01*
G37*
G36*
X29057747Y-87867205D02*
X29288874Y-87962941D01*
X29496881Y-88101927D01*
X29673775Y-88278821D01*
X29812761Y-88486828D01*
X29908497Y-88717955D01*
X29957302Y-88963315D01*
X29957302Y-89213485D01*
X29908497Y-89458845D01*
X29812761Y-89689972D01*
X29673775Y-89897979D01*
X29496881Y-90074873D01*
X29288874Y-90213859D01*
X29057747Y-90309595D01*
X28812387Y-90358400D01*
X28562217Y-90358400D01*
X28316857Y-90309595D01*
X28085730Y-90213859D01*
X27877723Y-90074873D01*
X27700829Y-89897979D01*
X27561843Y-89689972D01*
X27466107Y-89458845D01*
X27417302Y-89213485D01*
X27417302Y-88963315D01*
X27466107Y-88717955D01*
X27561843Y-88486828D01*
X27700829Y-88278821D01*
X27877723Y-88101927D01*
X28085730Y-87962941D01*
X28316857Y-87867205D01*
X28562217Y-87818400D01*
X28812387Y-87818400D01*
X29057747Y-87867205D01*
X29057747Y-87867205D01*
G37*
G36*
X37508302Y-90141400D02*
X36508302Y-90141400D01*
X36508302Y-89191400D01*
X37508302Y-89191400D01*
X37508302Y-90141400D01*
X37508302Y-90141400D01*
G37*
G36*
X39158302Y-90091400D02*
X38158302Y-90091400D01*
X38158302Y-89141400D01*
X39158302Y-89141400D01*
X39158302Y-90091400D01*
X39158302Y-90091400D01*
G37*
G36*
X57818302Y-89926400D02*
X57198302Y-89926400D01*
X57198302Y-89306400D01*
X57818302Y-89306400D01*
X57818302Y-89926400D01*
X57818302Y-89926400D01*
G37*
G36*
X58718302Y-89926400D02*
X58098302Y-89926400D01*
X58098302Y-89306400D01*
X58718302Y-89306400D01*
X58718302Y-89926400D01*
X58718302Y-89926400D01*
G37*
G36*
X61308302Y-89866400D02*
X59808302Y-89866400D01*
X59808302Y-89566400D01*
X61308302Y-89566400D01*
X61308302Y-89866400D01*
X61308302Y-89866400D01*
G37*
G36*
X76708302Y-89866400D02*
X75208302Y-89866400D01*
X75208302Y-89566400D01*
X76708302Y-89566400D01*
X76708302Y-89866400D01*
X76708302Y-89866400D01*
G37*
G36*
X76708302Y-89366400D02*
X75208302Y-89366400D01*
X75208302Y-89066400D01*
X76708302Y-89066400D01*
X76708302Y-89366400D01*
X76708302Y-89366400D01*
G37*
G36*
X61308302Y-89366400D02*
X59808302Y-89366400D01*
X59808302Y-89066400D01*
X61308302Y-89066400D01*
X61308302Y-89366400D01*
X61308302Y-89366400D01*
G37*
G36*
X76708302Y-88866400D02*
X75208302Y-88866400D01*
X75208302Y-88566400D01*
X76708302Y-88566400D01*
X76708302Y-88866400D01*
X76708302Y-88866400D01*
G37*
G36*
X61308302Y-88866400D02*
X59808302Y-88866400D01*
X59808302Y-88566400D01*
X61308302Y-88566400D01*
X61308302Y-88866400D01*
X61308302Y-88866400D01*
G37*
G36*
X57818302Y-88626400D02*
X57198302Y-88626400D01*
X57198302Y-88006400D01*
X57818302Y-88006400D01*
X57818302Y-88626400D01*
X57818302Y-88626400D01*
G37*
G36*
X58718302Y-88626400D02*
X58098302Y-88626400D01*
X58098302Y-88006400D01*
X58718302Y-88006400D01*
X58718302Y-88626400D01*
X58718302Y-88626400D01*
G37*
G36*
X76708302Y-88366400D02*
X75208302Y-88366400D01*
X75208302Y-88066400D01*
X76708302Y-88066400D01*
X76708302Y-88366400D01*
X76708302Y-88366400D01*
G37*
G36*
X61308302Y-88366400D02*
X59808302Y-88366400D01*
X59808302Y-88066400D01*
X61308302Y-88066400D01*
X61308302Y-88366400D01*
X61308302Y-88366400D01*
G37*
G36*
X76708302Y-87866400D02*
X75208302Y-87866400D01*
X75208302Y-87566400D01*
X76708302Y-87566400D01*
X76708302Y-87866400D01*
X76708302Y-87866400D01*
G37*
G36*
X61308302Y-87866400D02*
X59808302Y-87866400D01*
X59808302Y-87566400D01*
X61308302Y-87566400D01*
X61308302Y-87866400D01*
X61308302Y-87866400D01*
G37*
G36*
X78518302Y-87626400D02*
X77898302Y-87626400D01*
X77898302Y-87006400D01*
X78518302Y-87006400D01*
X78518302Y-87626400D01*
X78518302Y-87626400D01*
G37*
G36*
X79418302Y-87626400D02*
X78798302Y-87626400D01*
X78798302Y-87006400D01*
X79418302Y-87006400D01*
X79418302Y-87626400D01*
X79418302Y-87626400D01*
G37*
G36*
X76708302Y-87366400D02*
X75208302Y-87366400D01*
X75208302Y-87066400D01*
X76708302Y-87066400D01*
X76708302Y-87366400D01*
X76708302Y-87366400D01*
G37*
G36*
X61308302Y-87366400D02*
X59808302Y-87366400D01*
X59808302Y-87066400D01*
X61308302Y-87066400D01*
X61308302Y-87366400D01*
X61308302Y-87366400D01*
G37*
G36*
X76708302Y-86866400D02*
X75208302Y-86866400D01*
X75208302Y-86566400D01*
X76708302Y-86566400D01*
X76708302Y-86866400D01*
X76708302Y-86866400D01*
G37*
G36*
X61308302Y-86866400D02*
X59808302Y-86866400D01*
X59808302Y-86566400D01*
X61308302Y-86566400D01*
X61308302Y-86866400D01*
X61308302Y-86866400D01*
G37*
G36*
X76708302Y-86366400D02*
X75208302Y-86366400D01*
X75208302Y-86066400D01*
X76708302Y-86066400D01*
X76708302Y-86366400D01*
X76708302Y-86366400D01*
G37*
G36*
X61308302Y-86366400D02*
X59808302Y-86366400D01*
X59808302Y-86066400D01*
X61308302Y-86066400D01*
X61308302Y-86366400D01*
X61308302Y-86366400D01*
G37*
G36*
X78518302Y-86326400D02*
X77898302Y-86326400D01*
X77898302Y-85706400D01*
X78518302Y-85706400D01*
X78518302Y-86326400D01*
X78518302Y-86326400D01*
G37*
G36*
X79418302Y-86326400D02*
X78798302Y-86326400D01*
X78798302Y-85706400D01*
X79418302Y-85706400D01*
X79418302Y-86326400D01*
X79418302Y-86326400D01*
G37*
G36*
X62408302Y-85266400D02*
X62108302Y-85266400D01*
X62108302Y-83766400D01*
X62408302Y-83766400D01*
X62408302Y-85266400D01*
X62408302Y-85266400D01*
G37*
G36*
X62908302Y-85266400D02*
X62608302Y-85266400D01*
X62608302Y-83766400D01*
X62908302Y-83766400D01*
X62908302Y-85266400D01*
X62908302Y-85266400D01*
G37*
G36*
X63408302Y-85266400D02*
X63108302Y-85266400D01*
X63108302Y-83766400D01*
X63408302Y-83766400D01*
X63408302Y-85266400D01*
X63408302Y-85266400D01*
G37*
G36*
X63908302Y-85266400D02*
X63608302Y-85266400D01*
X63608302Y-83766400D01*
X63908302Y-83766400D01*
X63908302Y-85266400D01*
X63908302Y-85266400D01*
G37*
G36*
X64408302Y-85266400D02*
X64108302Y-85266400D01*
X64108302Y-83766400D01*
X64408302Y-83766400D01*
X64408302Y-85266400D01*
X64408302Y-85266400D01*
G37*
G36*
X64908302Y-85266400D02*
X64608302Y-85266400D01*
X64608302Y-83766400D01*
X64908302Y-83766400D01*
X64908302Y-85266400D01*
X64908302Y-85266400D01*
G37*
G36*
X70908302Y-85266400D02*
X70608302Y-85266400D01*
X70608302Y-83766400D01*
X70908302Y-83766400D01*
X70908302Y-85266400D01*
X70908302Y-85266400D01*
G37*
G36*
X70408302Y-85266400D02*
X70108302Y-85266400D01*
X70108302Y-83766400D01*
X70408302Y-83766400D01*
X70408302Y-85266400D01*
X70408302Y-85266400D01*
G37*
G36*
X71908302Y-85266400D02*
X71608302Y-85266400D01*
X71608302Y-83766400D01*
X71908302Y-83766400D01*
X71908302Y-85266400D01*
X71908302Y-85266400D01*
G37*
G36*
X69908302Y-85266400D02*
X69608302Y-85266400D01*
X69608302Y-83766400D01*
X69908302Y-83766400D01*
X69908302Y-85266400D01*
X69908302Y-85266400D01*
G37*
G36*
X69408302Y-85266400D02*
X69108302Y-85266400D01*
X69108302Y-83766400D01*
X69408302Y-83766400D01*
X69408302Y-85266400D01*
X69408302Y-85266400D01*
G37*
G36*
X73408302Y-85266400D02*
X73108302Y-85266400D01*
X73108302Y-83766400D01*
X73408302Y-83766400D01*
X73408302Y-85266400D01*
X73408302Y-85266400D01*
G37*
G36*
X73908302Y-85266400D02*
X73608302Y-85266400D01*
X73608302Y-83766400D01*
X73908302Y-83766400D01*
X73908302Y-85266400D01*
X73908302Y-85266400D01*
G37*
G36*
X72908302Y-85266400D02*
X72608302Y-85266400D01*
X72608302Y-83766400D01*
X72908302Y-83766400D01*
X72908302Y-85266400D01*
X72908302Y-85266400D01*
G37*
G36*
X68908302Y-85266400D02*
X68608302Y-85266400D01*
X68608302Y-83766400D01*
X68908302Y-83766400D01*
X68908302Y-85266400D01*
X68908302Y-85266400D01*
G37*
G36*
X67908302Y-85266400D02*
X67608302Y-85266400D01*
X67608302Y-83766400D01*
X67908302Y-83766400D01*
X67908302Y-85266400D01*
X67908302Y-85266400D01*
G37*
G36*
X67408302Y-85266400D02*
X67108302Y-85266400D01*
X67108302Y-83766400D01*
X67408302Y-83766400D01*
X67408302Y-85266400D01*
X67408302Y-85266400D01*
G37*
G36*
X66908302Y-85266400D02*
X66608302Y-85266400D01*
X66608302Y-83766400D01*
X66908302Y-83766400D01*
X66908302Y-85266400D01*
X66908302Y-85266400D01*
G37*
G36*
X66408302Y-85266400D02*
X66108302Y-85266400D01*
X66108302Y-83766400D01*
X66408302Y-83766400D01*
X66408302Y-85266400D01*
X66408302Y-85266400D01*
G37*
G36*
X65908302Y-85266400D02*
X65608302Y-85266400D01*
X65608302Y-83766400D01*
X65908302Y-83766400D01*
X65908302Y-85266400D01*
X65908302Y-85266400D01*
G37*
G36*
X71408302Y-85266400D02*
X71108302Y-85266400D01*
X71108302Y-83766400D01*
X71408302Y-83766400D01*
X71408302Y-85266400D01*
X71408302Y-85266400D01*
G37*
G36*
X65408302Y-85266400D02*
X65108302Y-85266400D01*
X65108302Y-83766400D01*
X65408302Y-83766400D01*
X65408302Y-85266400D01*
X65408302Y-85266400D01*
G37*
G36*
X72408302Y-85266400D02*
X72108302Y-85266400D01*
X72108302Y-83766400D01*
X72408302Y-83766400D01*
X72408302Y-85266400D01*
X72408302Y-85266400D01*
G37*
G36*
X68408302Y-85266400D02*
X68108302Y-85266400D01*
X68108302Y-83766400D01*
X68408302Y-83766400D01*
X68408302Y-85266400D01*
X68408302Y-85266400D01*
G37*
G36*
X74408302Y-85266400D02*
X74108302Y-85266400D01*
X74108302Y-83766400D01*
X74408302Y-83766400D01*
X74408302Y-85266400D01*
X74408302Y-85266400D01*
G37*
G36*
X62568302Y-82376400D02*
X61948302Y-82376400D01*
X61948302Y-81756400D01*
X62568302Y-81756400D01*
X62568302Y-82376400D01*
X62568302Y-82376400D01*
G37*
G36*
X77404145Y-81235614D02*
X77404148Y-81235615D01*
X77404147Y-81235615D01*
X77495141Y-81273306D01*
X77530065Y-81296642D01*
X77577035Y-81328026D01*
X77646676Y-81397667D01*
X77646677Y-81397669D01*
X77701396Y-81479561D01*
X77701396Y-81479562D01*
X77739088Y-81570557D01*
X77758302Y-81667153D01*
X77758302Y-81765647D01*
X77739088Y-81862243D01*
X77739087Y-81862245D01*
X77701396Y-81953239D01*
X77664999Y-82007711D01*
X77646676Y-82035133D01*
X77577035Y-82104774D01*
X77549613Y-82123097D01*
X77495141Y-82159494D01*
X77430797Y-82186146D01*
X77404145Y-82197186D01*
X77307549Y-82216400D01*
X77209055Y-82216400D01*
X77112459Y-82197186D01*
X77085807Y-82186146D01*
X77021463Y-82159494D01*
X76966991Y-82123097D01*
X76939569Y-82104774D01*
X76869928Y-82035133D01*
X76851605Y-82007711D01*
X76815208Y-81953239D01*
X76777517Y-81862245D01*
X76777516Y-81862243D01*
X76758302Y-81765647D01*
X76758302Y-81667153D01*
X76777516Y-81570557D01*
X76815208Y-81479562D01*
X76815208Y-81479561D01*
X76869927Y-81397669D01*
X76869928Y-81397667D01*
X76939569Y-81328026D01*
X76986539Y-81296642D01*
X77021463Y-81273306D01*
X77112457Y-81235615D01*
X77112456Y-81235615D01*
X77112459Y-81235614D01*
X77209055Y-81216400D01*
X77307549Y-81216400D01*
X77404145Y-81235614D01*
X77404145Y-81235614D01*
G37*
G36*
X81183080Y-80957021D02*
X81254695Y-80986685D01*
X81319145Y-81029749D01*
X81373953Y-81084557D01*
X81417017Y-81149007D01*
X81446681Y-81220622D01*
X81461802Y-81296642D01*
X81461802Y-81374158D01*
X81446681Y-81450178D01*
X81417017Y-81521793D01*
X81373953Y-81586243D01*
X81319145Y-81641051D01*
X81254695Y-81684115D01*
X81183080Y-81713779D01*
X81107060Y-81728900D01*
X81029544Y-81728900D01*
X80953524Y-81713779D01*
X80881909Y-81684115D01*
X80817459Y-81641051D01*
X80762651Y-81586243D01*
X80719587Y-81521793D01*
X80689923Y-81450178D01*
X80674802Y-81374158D01*
X80674802Y-81296642D01*
X80689923Y-81220622D01*
X80719587Y-81149007D01*
X80762651Y-81084557D01*
X80817459Y-81029749D01*
X80881909Y-80986685D01*
X80953524Y-80957021D01*
X81029544Y-80941900D01*
X81107060Y-80941900D01*
X81183080Y-80957021D01*
X81183080Y-80957021D01*
G37*
G36*
X79913080Y-80957021D02*
X79984695Y-80986685D01*
X80049145Y-81029749D01*
X80103953Y-81084557D01*
X80147017Y-81149007D01*
X80176681Y-81220622D01*
X80191802Y-81296642D01*
X80191802Y-81374158D01*
X80176681Y-81450178D01*
X80147017Y-81521793D01*
X80103953Y-81586243D01*
X80049145Y-81641051D01*
X79984695Y-81684115D01*
X79913080Y-81713779D01*
X79837060Y-81728900D01*
X79759544Y-81728900D01*
X79683524Y-81713779D01*
X79611909Y-81684115D01*
X79547459Y-81641051D01*
X79492651Y-81586243D01*
X79449587Y-81521793D01*
X79419923Y-81450178D01*
X79404802Y-81374158D01*
X79404802Y-81296642D01*
X79419923Y-81220622D01*
X79449587Y-81149007D01*
X79492651Y-81084557D01*
X79547459Y-81029749D01*
X79611909Y-80986685D01*
X79683524Y-80957021D01*
X79759544Y-80941900D01*
X79837060Y-80941900D01*
X79913080Y-80957021D01*
X79913080Y-80957021D01*
G37*
G36*
X78643080Y-80957021D02*
X78714695Y-80986685D01*
X78779145Y-81029749D01*
X78833953Y-81084557D01*
X78877017Y-81149007D01*
X78906681Y-81220622D01*
X78921802Y-81296642D01*
X78921802Y-81374158D01*
X78906681Y-81450178D01*
X78877017Y-81521793D01*
X78833953Y-81586243D01*
X78779145Y-81641051D01*
X78714695Y-81684115D01*
X78643080Y-81713779D01*
X78567060Y-81728900D01*
X78489544Y-81728900D01*
X78413524Y-81713779D01*
X78341909Y-81684115D01*
X78277459Y-81641051D01*
X78222651Y-81586243D01*
X78179587Y-81521793D01*
X78149923Y-81450178D01*
X78134802Y-81374158D01*
X78134802Y-81296642D01*
X78149923Y-81220622D01*
X78179587Y-81149007D01*
X78222651Y-81084557D01*
X78277459Y-81029749D01*
X78341909Y-80986685D01*
X78413524Y-80957021D01*
X78489544Y-80941900D01*
X78567060Y-80941900D01*
X78643080Y-80957021D01*
X78643080Y-80957021D01*
G37*
G36*
X62568302Y-81476400D02*
X61948302Y-81476400D01*
X61948302Y-80856400D01*
X62568302Y-80856400D01*
X62568302Y-81476400D01*
X62568302Y-81476400D01*
G37*
G36*
X82484145Y-80219614D02*
X82484148Y-80219615D01*
X82484147Y-80219615D01*
X82575141Y-80257306D01*
X82629613Y-80293703D01*
X82657035Y-80312026D01*
X82726676Y-80381667D01*
X82726677Y-80381669D01*
X82781396Y-80463561D01*
X82781396Y-80463562D01*
X82819088Y-80554557D01*
X82838302Y-80651153D01*
X82838302Y-80749647D01*
X82819088Y-80846243D01*
X82819087Y-80846245D01*
X82781396Y-80937239D01*
X82768178Y-80957021D01*
X82726676Y-81019133D01*
X82657035Y-81088774D01*
X82629613Y-81107097D01*
X82575141Y-81143494D01*
X82510797Y-81170146D01*
X82484145Y-81181186D01*
X82387549Y-81200400D01*
X82289055Y-81200400D01*
X82192459Y-81181186D01*
X82165807Y-81170146D01*
X82101463Y-81143494D01*
X82046991Y-81107097D01*
X82019569Y-81088774D01*
X81949928Y-81019133D01*
X81908426Y-80957021D01*
X81895208Y-80937239D01*
X81857517Y-80846245D01*
X81857516Y-80846243D01*
X81838302Y-80749647D01*
X81838302Y-80651153D01*
X81857516Y-80554557D01*
X81895208Y-80463562D01*
X81895208Y-80463561D01*
X81949927Y-80381669D01*
X81949928Y-80381667D01*
X82019569Y-80312026D01*
X82046991Y-80293703D01*
X82101463Y-80257306D01*
X82192457Y-80219615D01*
X82192456Y-80219615D01*
X82192459Y-80219614D01*
X82289055Y-80200400D01*
X82387549Y-80200400D01*
X82484145Y-80219614D01*
X82484145Y-80219614D01*
G37*
G36*
X81183080Y-79687021D02*
X81254695Y-79716685D01*
X81319145Y-79759749D01*
X81373953Y-79814557D01*
X81417017Y-79879007D01*
X81446681Y-79950622D01*
X81461802Y-80026642D01*
X81461802Y-80104158D01*
X81446681Y-80180178D01*
X81417017Y-80251793D01*
X81373953Y-80316243D01*
X81319145Y-80371051D01*
X81254695Y-80414115D01*
X81183080Y-80443779D01*
X81107060Y-80458900D01*
X81029544Y-80458900D01*
X80953524Y-80443779D01*
X80881909Y-80414115D01*
X80817459Y-80371051D01*
X80762651Y-80316243D01*
X80719587Y-80251793D01*
X80689923Y-80180178D01*
X80674802Y-80104158D01*
X80674802Y-80026642D01*
X80689923Y-79950622D01*
X80719587Y-79879007D01*
X80762651Y-79814557D01*
X80817459Y-79759749D01*
X80881909Y-79716685D01*
X80953524Y-79687021D01*
X81029544Y-79671900D01*
X81107060Y-79671900D01*
X81183080Y-79687021D01*
X81183080Y-79687021D01*
G37*
G36*
X79913080Y-79687021D02*
X79984695Y-79716685D01*
X80049145Y-79759749D01*
X80103953Y-79814557D01*
X80147017Y-79879007D01*
X80176681Y-79950622D01*
X80191802Y-80026642D01*
X80191802Y-80104158D01*
X80176681Y-80180178D01*
X80147017Y-80251793D01*
X80103953Y-80316243D01*
X80049145Y-80371051D01*
X79984695Y-80414115D01*
X79913080Y-80443779D01*
X79837060Y-80458900D01*
X79759544Y-80458900D01*
X79683524Y-80443779D01*
X79611909Y-80414115D01*
X79547459Y-80371051D01*
X79492651Y-80316243D01*
X79449587Y-80251793D01*
X79419923Y-80180178D01*
X79404802Y-80104158D01*
X79404802Y-80026642D01*
X79419923Y-79950622D01*
X79449587Y-79879007D01*
X79492651Y-79814557D01*
X79547459Y-79759749D01*
X79611909Y-79716685D01*
X79683524Y-79687021D01*
X79759544Y-79671900D01*
X79837060Y-79671900D01*
X79913080Y-79687021D01*
X79913080Y-79687021D01*
G37*
G36*
X78643080Y-79687021D02*
X78714695Y-79716685D01*
X78779145Y-79759749D01*
X78833953Y-79814557D01*
X78877017Y-79879007D01*
X78906681Y-79950622D01*
X78921802Y-80026642D01*
X78921802Y-80104158D01*
X78906681Y-80180178D01*
X78877017Y-80251793D01*
X78833953Y-80316243D01*
X78779145Y-80371051D01*
X78714695Y-80414115D01*
X78643080Y-80443779D01*
X78567060Y-80458900D01*
X78489544Y-80458900D01*
X78413524Y-80443779D01*
X78341909Y-80414115D01*
X78277459Y-80371051D01*
X78222651Y-80316243D01*
X78179587Y-80251793D01*
X78149923Y-80180178D01*
X78134802Y-80104158D01*
X78134802Y-80026642D01*
X78149923Y-79950622D01*
X78179587Y-79879007D01*
X78222651Y-79814557D01*
X78277459Y-79759749D01*
X78341909Y-79716685D01*
X78413524Y-79687021D01*
X78489544Y-79671900D01*
X78567060Y-79671900D01*
X78643080Y-79687021D01*
X78643080Y-79687021D01*
G37*
G36*
X77404145Y-79203614D02*
X77404148Y-79203615D01*
X77404147Y-79203615D01*
X77495141Y-79241306D01*
X77549613Y-79277703D01*
X77577035Y-79296026D01*
X77646676Y-79365667D01*
X77646677Y-79365669D01*
X77701396Y-79447561D01*
X77701396Y-79447562D01*
X77739088Y-79538557D01*
X77758302Y-79635153D01*
X77758302Y-79733647D01*
X77739088Y-79830243D01*
X77739087Y-79830245D01*
X77701396Y-79921239D01*
X77664999Y-79975711D01*
X77646676Y-80003133D01*
X77577035Y-80072774D01*
X77549613Y-80091097D01*
X77495141Y-80127494D01*
X77430797Y-80154146D01*
X77404145Y-80165186D01*
X77307549Y-80184400D01*
X77209055Y-80184400D01*
X77112459Y-80165186D01*
X77085807Y-80154146D01*
X77021463Y-80127494D01*
X76966991Y-80091097D01*
X76939569Y-80072774D01*
X76869928Y-80003133D01*
X76851605Y-79975711D01*
X76815208Y-79921239D01*
X76777517Y-79830245D01*
X76777516Y-79830243D01*
X76758302Y-79733647D01*
X76758302Y-79635153D01*
X76777516Y-79538557D01*
X76815208Y-79447562D01*
X76815208Y-79447561D01*
X76869927Y-79365669D01*
X76869928Y-79365667D01*
X76939569Y-79296026D01*
X76966991Y-79277703D01*
X77021463Y-79241306D01*
X77112457Y-79203615D01*
X77112456Y-79203615D01*
X77112459Y-79203614D01*
X77209055Y-79184400D01*
X77307549Y-79184400D01*
X77404145Y-79203614D01*
X77404145Y-79203614D01*
G37*
G36*
X100677123Y-72687452D02*
X101250387Y-72924906D01*
X101766310Y-73269635D01*
X102205067Y-73708392D01*
X102549796Y-74224315D01*
X102787250Y-74797579D01*
X102908302Y-75406152D01*
X102908302Y-76026648D01*
X102787250Y-76635221D01*
X102549796Y-77208485D01*
X102205067Y-77724408D01*
X101766310Y-78163165D01*
X101250387Y-78507894D01*
X100677123Y-78745348D01*
X100068550Y-78866400D01*
X99448054Y-78866400D01*
X98839481Y-78745348D01*
X98266217Y-78507894D01*
X97750294Y-78163165D01*
X97311537Y-77724408D01*
X96966808Y-77208485D01*
X96729354Y-76635221D01*
X96608302Y-76026648D01*
X96608302Y-75406152D01*
X96729354Y-74797579D01*
X96966808Y-74224315D01*
X97311537Y-73708392D01*
X97750294Y-73269635D01*
X98266217Y-72924906D01*
X98839481Y-72687452D01*
X99448054Y-72566400D01*
X100068550Y-72566400D01*
X100677123Y-72687452D01*
X100677123Y-72687452D01*
G37*
G36*
X27677123Y-72687452D02*
X28250387Y-72924906D01*
X28766310Y-73269635D01*
X29205067Y-73708392D01*
X29549796Y-74224315D01*
X29787250Y-74797579D01*
X29908302Y-75406152D01*
X29908302Y-76026648D01*
X29787250Y-76635221D01*
X29549796Y-77208485D01*
X29205067Y-77724408D01*
X28766310Y-78163165D01*
X28250387Y-78507894D01*
X27677123Y-78745348D01*
X27068550Y-78866400D01*
X26448054Y-78866400D01*
X25839481Y-78745348D01*
X25266217Y-78507894D01*
X24750294Y-78163165D01*
X24311537Y-77724408D01*
X23966808Y-77208485D01*
X23729354Y-76635221D01*
X23608302Y-76026648D01*
X23608302Y-75406152D01*
X23729354Y-74797579D01*
X23966808Y-74224315D01*
X24311537Y-73708392D01*
X24750294Y-73269635D01*
X25266217Y-72924906D01*
X25839481Y-72687452D01*
X26448054Y-72566400D01*
X27068550Y-72566400D01*
X27677123Y-72687452D01*
X27677123Y-72687452D01*
G37*
M02*
