G04 #@! TF.GenerationSoftware,KiCad,Pcbnew,5.0.1-33cea8e~68~ubuntu18.04.1*
G04 #@! TF.CreationDate,2018-11-12T14:49:47+00:00*
G04 #@! TF.ProjectId,comms,636F6D6D732E6B696361645F70636200,rev?*
G04 #@! TF.SameCoordinates,Original*
G04 #@! TF.FileFunction,Copper,L4,Bot,Mixed*
G04 #@! TF.FilePolarity,Positive*
%FSLAX46Y46*%
G04 Gerber Fmt 4.6, Leading zero omitted, Abs format (unit mm)*
G04 Created by KiCad (PCBNEW 5.0.1-33cea8e~68~ubuntu18.04.1) date Mon 12 Nov 2018 14:49:47 GMT*
%MOMM*%
%LPD*%
G01*
G04 APERTURE LIST*
G04 #@! TA.AperFunction,ComponentPad*
%ADD10C,2.540000*%
G04 #@! TD*
G04 #@! TA.AperFunction,ComponentPad*
%ADD11C,1.400000*%
G04 #@! TD*
G04 #@! TA.AperFunction,ComponentPad*
%ADD12C,1.600000*%
G04 #@! TD*
G04 #@! TA.AperFunction,ComponentPad*
%ADD13C,1.500000*%
G04 #@! TD*
G04 #@! TA.AperFunction,ComponentPad*
%ADD14C,3.200000*%
G04 #@! TD*
G04 #@! TA.AperFunction,ViaPad*
%ADD15C,0.800000*%
G04 #@! TD*
G04 #@! TA.AperFunction,Conductor*
%ADD16C,0.350000*%
G04 #@! TD*
G04 #@! TA.AperFunction,Conductor*
%ADD17C,0.200000*%
G04 #@! TD*
G04 #@! TA.AperFunction,Conductor*
%ADD18C,0.250000*%
G04 #@! TD*
G04 APERTURE END LIST*
D10*
G04 #@! TO.P,IC4,S*
G04 #@! TO.N,GND*
X28687302Y-105344400D03*
X28687302Y-89088400D03*
D11*
G04 #@! TO.P,IC4,10*
G04 #@! TO.N,Net-(IC4-Pad10)*
X34402302Y-101788400D03*
G04 #@! TO.P,IC4,11*
G04 #@! TO.N,GND*
X34402302Y-92644400D03*
G04 #@! TO.P,IC4,9*
X34402302Y-104074400D03*
G04 #@! TO.P,IC4,12*
G04 #@! TO.N,Net-(IC4-Pad12)*
X34402302Y-90358400D03*
G04 #@! TO.P,IC4,1*
G04 #@! TO.N,/RS485_TX*
X27798302Y-100772400D03*
G04 #@! TO.P,IC4,3*
G04 #@! TO.N,/RS485_RX*
X27798302Y-98740400D03*
G04 #@! TO.P,IC4,5*
G04 #@! TO.N,Net-(IC4-Pad5)*
X27798302Y-96708400D03*
G04 #@! TO.P,IC4,7*
G04 #@! TO.N,Net-(IC4-Pad7)*
X27798302Y-94676400D03*
G04 #@! TO.P,IC4,2*
G04 #@! TO.N,/~RS485_TX*
X29576302Y-99756400D03*
G04 #@! TO.P,IC4,4*
G04 #@! TO.N,Net-(IC4-Pad4)*
X29576302Y-97724400D03*
G04 #@! TO.P,IC4,6*
G04 #@! TO.N,/~RS485_RX*
X29576302Y-95692400D03*
G04 #@! TO.P,IC4,8*
G04 #@! TO.N,Net-(IC4-Pad8)*
X29576302Y-93660400D03*
G04 #@! TD*
D12*
G04 #@! TO.P,J1,1*
G04 #@! TO.N,/USART1_TX*
X66008302Y-113716400D03*
G04 #@! TO.P,J1,2*
G04 #@! TO.N,/USART1_RX*
X68008302Y-113716400D03*
G04 #@! TO.P,J1,3*
G04 #@! TO.N,GND*
X70008302Y-113716400D03*
G04 #@! TD*
G04 #@! TO.P,J2,3*
G04 #@! TO.N,GND*
X59508302Y-113716400D03*
G04 #@! TO.P,J2,2*
G04 #@! TO.N,/USART2_RX*
X57508302Y-113716400D03*
G04 #@! TO.P,J2,1*
G04 #@! TO.N,/USART2_TX*
X55508302Y-113716400D03*
G04 #@! TD*
G04 #@! TO.P,J3,2*
G04 #@! TO.N,GND*
X94758302Y-109216400D03*
G04 #@! TO.P,J3,1*
G04 #@! TO.N,5v*
X94758302Y-111216400D03*
G04 #@! TD*
D13*
G04 #@! TO.P,P1,1*
G04 #@! TO.N,/OTG_HS_VBUS*
X91758302Y-95966400D03*
G04 #@! TO.P,P1,2*
G04 #@! TO.N,/OTG_HS_DM*
X91758302Y-98466400D03*
G04 #@! TO.P,P1,3*
G04 #@! TO.N,/OTG_HS_DP*
X93758302Y-98466400D03*
G04 #@! TO.P,P1,4*
G04 #@! TO.N,GND*
X93758302Y-95966400D03*
D14*
G04 #@! TO.P,P1,S*
X96468302Y-91196400D03*
X96468302Y-103236400D03*
G04 #@! TD*
D15*
G04 #@! TO.N,GND*
X62358302Y-90716400D03*
X58568302Y-92016400D03*
X62758302Y-86116400D03*
X65258302Y-86116400D03*
X65258302Y-82516400D03*
X63108302Y-81166400D03*
X62258302Y-80216400D03*
X62458302Y-95716400D03*
X62758302Y-98216400D03*
X63258302Y-104216400D03*
X56558302Y-88316400D03*
X56558302Y-89616400D03*
X52408302Y-91366400D03*
X53458302Y-90316400D03*
X54833302Y-90341400D03*
X56458302Y-95516400D03*
X56458302Y-96816400D03*
X56458302Y-98116400D03*
X75158302Y-104316400D03*
X80058302Y-86016400D03*
X80058302Y-87316400D03*
X78528302Y-78786400D03*
X89008302Y-111666400D03*
X90058302Y-110616400D03*
X83258302Y-112066400D03*
X81008302Y-111566400D03*
X80058302Y-110616400D03*
X82358302Y-112066400D03*
X88458302Y-91816400D03*
X74358302Y-86716400D03*
X48653302Y-95311400D03*
X45463302Y-95311400D03*
X45158302Y-100916400D03*
X73958302Y-104416400D03*
X88658302Y-104716400D03*
X88608302Y-107466400D03*
X33258302Y-77216400D03*
X33258302Y-82216400D03*
X38258302Y-82216400D03*
X38258302Y-77216400D03*
X43258302Y-77216400D03*
X43258302Y-82216400D03*
X48258302Y-82216400D03*
X48258302Y-77216400D03*
X58258302Y-77216400D03*
X53258302Y-77216400D03*
X53258302Y-82216400D03*
X58258302Y-82216400D03*
X63258302Y-77216400D03*
X68258302Y-77216400D03*
X73258302Y-77216400D03*
X88258302Y-77216400D03*
X93258302Y-77216400D03*
X93258302Y-82216400D03*
X88258302Y-82216400D03*
X88258302Y-87216400D03*
X83258302Y-87216400D03*
X93258302Y-87216400D03*
X98258302Y-87216400D03*
X98258302Y-82216400D03*
X98258302Y-97216400D03*
X93258302Y-117216400D03*
X88258302Y-117216400D03*
X83258302Y-117216400D03*
X78258302Y-117216400D03*
X78258302Y-112216400D03*
X73258302Y-112216400D03*
X73258302Y-117216400D03*
X83258302Y-92216400D03*
X48258302Y-107216400D03*
X48258302Y-112216400D03*
X43258302Y-112216400D03*
X43258302Y-107216400D03*
X38258302Y-107216400D03*
X38258302Y-112216400D03*
X33258302Y-112216400D03*
X28258302Y-112216400D03*
X28258302Y-87216400D03*
X28258302Y-82216400D03*
X43258302Y-92216400D03*
X48258302Y-92216400D03*
X53258302Y-107216400D03*
X48258302Y-117216400D03*
X38258302Y-117216400D03*
X43258302Y-117216400D03*
X33258302Y-117216400D03*
X87100000Y-100300000D03*
X87100000Y-101500000D03*
X87158302Y-92916400D03*
X87100000Y-99100000D03*
X55500000Y-109600000D03*
X58750000Y-110850000D03*
X66000000Y-109600000D03*
X69050000Y-110750000D03*
G04 #@! TO.N,3v3*
X58408302Y-99166400D03*
X58358302Y-87316400D03*
X81068302Y-78826400D03*
X81008302Y-107466400D03*
X81008302Y-108316400D03*
X61408302Y-82066400D03*
X76108302Y-102466400D03*
X64208302Y-102366400D03*
X78208302Y-84966400D03*
G04 #@! TO.N,5v*
X85358302Y-95816400D03*
X48258302Y-100916400D03*
X79458302Y-106616400D03*
X90500000Y-106600000D03*
G04 #@! TO.N,/~RST*
X77558302Y-88816400D03*
X73458302Y-90616400D03*
G04 #@! TO.N,/USART2_TX*
X57858302Y-102116400D03*
G04 #@! TO.N,/USART2_RX*
X57858302Y-103216400D03*
G04 #@! TO.N,/OTG_HS_VBUS*
X88758302Y-98116400D03*
G04 #@! TO.N,/USART1_TX*
X66458302Y-90216400D03*
G04 #@! TO.N,/USART1_RX*
X67258312Y-89316410D03*
G04 #@! TO.N,/RS485_TX*
X32158302Y-95216400D03*
G04 #@! TO.N,/~RS485_TX*
X32158302Y-96816400D03*
G04 #@! TO.N,Net-(IC4-Pad10)*
X38658302Y-94416400D03*
G04 #@! TD*
D16*
G04 #@! TO.N,5v*
X85358302Y-95816400D02*
X85358302Y-98716400D01*
X85358302Y-98716400D02*
X85358302Y-105016400D01*
X83758302Y-106616400D02*
X79458302Y-106616400D01*
X85358302Y-105016400D02*
X83758302Y-106616400D01*
X85358302Y-105016400D02*
X86941902Y-106600000D01*
X86941902Y-106600000D02*
X90500000Y-106600000D01*
D17*
G04 #@! TO.N,/~RST*
X77558302Y-88816400D02*
X75758302Y-90616400D01*
X75758302Y-90616400D02*
X73458302Y-90616400D01*
G04 #@! TO.N,/USART2_TX*
X56458302Y-103516400D02*
X56858302Y-103116400D01*
X56858302Y-103116400D02*
X57858302Y-102116400D01*
X56458302Y-112816400D02*
X56458302Y-103516400D01*
X55508302Y-113716400D02*
X55558302Y-113716400D01*
X55558302Y-113716400D02*
X56458302Y-112816400D01*
G04 #@! TO.N,/USART2_RX*
X57258312Y-113466410D02*
X57508302Y-113716400D01*
X57258312Y-103816390D02*
X57858302Y-103216400D01*
X56858302Y-104216400D02*
X57258312Y-103816390D01*
X56858302Y-112716400D02*
X56858302Y-104216400D01*
X57508302Y-113716400D02*
X57508302Y-113366400D01*
X57508302Y-113366400D02*
X56858302Y-112716400D01*
G04 #@! TO.N,/OTG_HS_VBUS*
X91758302Y-95966400D02*
X91733600Y-95966400D01*
X89583600Y-98116400D02*
X88758302Y-98116400D01*
X91733600Y-95966400D02*
X89583600Y-98116400D01*
G04 #@! TO.N,/USART1_TX*
X66858302Y-90616400D02*
X66458302Y-90216400D01*
X66008302Y-113716400D02*
X66058302Y-113716400D01*
X66858302Y-112916400D02*
X66858302Y-90616400D01*
X66058302Y-113716400D02*
X66858302Y-112916400D01*
G04 #@! TO.N,/USART1_RX*
X68008302Y-113716400D02*
X68008302Y-113266400D01*
X68008302Y-113716400D02*
X67258312Y-112966410D01*
X67258312Y-89816410D02*
X67258312Y-89316410D01*
X67258312Y-112966410D02*
X67258312Y-89816410D01*
G04 #@! TO.N,/RS485_TX*
X32158302Y-95216400D02*
X32858302Y-95916400D01*
X32858302Y-95916400D02*
X32858302Y-98616400D01*
X32858302Y-98616400D02*
X30558302Y-100916400D01*
X27942302Y-100916400D02*
X27798302Y-100772400D01*
X30558302Y-100916400D02*
X27942302Y-100916400D01*
G04 #@! TO.N,/~RS485_TX*
X32158302Y-96816400D02*
X32158302Y-98316400D01*
X30718302Y-99756400D02*
X29576302Y-99756400D01*
X32158302Y-98316400D02*
X30718302Y-99756400D01*
G04 #@! TO.N,Net-(IC4-Pad10)*
X38658302Y-94416400D02*
X38658302Y-100616400D01*
X37486302Y-101788400D02*
X34402302Y-101788400D01*
X38658302Y-100616400D02*
X37486302Y-101788400D01*
G04 #@! TD*
D18*
G04 #@! TO.N,GND*
G36*
X98135956Y-72681204D02*
X97574992Y-73056029D01*
X97097931Y-73533090D01*
X96723106Y-74094054D01*
X96464923Y-74717364D01*
X96333302Y-75379067D01*
X96333302Y-76053733D01*
X96464923Y-76715436D01*
X96723106Y-77338746D01*
X97097931Y-77899710D01*
X97574992Y-78376771D01*
X98135956Y-78751596D01*
X98759266Y-79009779D01*
X99420969Y-79141400D01*
X100095635Y-79141400D01*
X100757338Y-79009779D01*
X101380648Y-78751596D01*
X101941612Y-78376771D01*
X102418673Y-77899710D01*
X102793498Y-77338746D01*
X102808303Y-77303004D01*
X102808302Y-117129794D01*
X102793498Y-117094054D01*
X102418673Y-116533090D01*
X101941612Y-116056029D01*
X101380648Y-115681204D01*
X100757338Y-115423021D01*
X100095635Y-115291400D01*
X99420969Y-115291400D01*
X98759266Y-115423021D01*
X98135956Y-115681204D01*
X97574992Y-116056029D01*
X97097931Y-116533090D01*
X96723106Y-117094054D01*
X96464923Y-117717364D01*
X96333302Y-118379067D01*
X96333302Y-119053733D01*
X96464923Y-119715436D01*
X96723106Y-120338746D01*
X97097931Y-120899710D01*
X97574992Y-121376771D01*
X98135956Y-121751596D01*
X98171696Y-121766400D01*
X28344908Y-121766400D01*
X28380648Y-121751596D01*
X28941612Y-121376771D01*
X29418673Y-120899710D01*
X29793498Y-120338746D01*
X30051681Y-119715436D01*
X30183302Y-119053733D01*
X30183302Y-118379067D01*
X30051681Y-117717364D01*
X29793498Y-117094054D01*
X29418673Y-116533090D01*
X28941612Y-116056029D01*
X28439266Y-115720371D01*
X53033302Y-115720371D01*
X53033302Y-115912429D01*
X53070770Y-116100797D01*
X53144268Y-116278236D01*
X53250970Y-116437927D01*
X53386775Y-116573732D01*
X53546466Y-116680434D01*
X53723905Y-116753932D01*
X53912273Y-116791400D01*
X54104331Y-116791400D01*
X54292699Y-116753932D01*
X54470138Y-116680434D01*
X54629829Y-116573732D01*
X54765634Y-116437927D01*
X54872336Y-116278236D01*
X54945834Y-116100797D01*
X54983302Y-115912429D01*
X54983302Y-115720371D01*
X60033302Y-115720371D01*
X60033302Y-115912429D01*
X60070770Y-116100797D01*
X60144268Y-116278236D01*
X60250970Y-116437927D01*
X60386775Y-116573732D01*
X60546466Y-116680434D01*
X60723905Y-116753932D01*
X60912273Y-116791400D01*
X61104331Y-116791400D01*
X61292699Y-116753932D01*
X61470138Y-116680434D01*
X61629829Y-116573732D01*
X61765634Y-116437927D01*
X61872336Y-116278236D01*
X61945834Y-116100797D01*
X61983302Y-115912429D01*
X61983302Y-115720371D01*
X63533302Y-115720371D01*
X63533302Y-115912429D01*
X63570770Y-116100797D01*
X63644268Y-116278236D01*
X63750970Y-116437927D01*
X63886775Y-116573732D01*
X64046466Y-116680434D01*
X64223905Y-116753932D01*
X64412273Y-116791400D01*
X64604331Y-116791400D01*
X64792699Y-116753932D01*
X64970138Y-116680434D01*
X65129829Y-116573732D01*
X65265634Y-116437927D01*
X65372336Y-116278236D01*
X65445834Y-116100797D01*
X65483302Y-115912429D01*
X65483302Y-115720371D01*
X70533302Y-115720371D01*
X70533302Y-115912429D01*
X70570770Y-116100797D01*
X70644268Y-116278236D01*
X70750970Y-116437927D01*
X70886775Y-116573732D01*
X71046466Y-116680434D01*
X71223905Y-116753932D01*
X71412273Y-116791400D01*
X71604331Y-116791400D01*
X71792699Y-116753932D01*
X71970138Y-116680434D01*
X72129829Y-116573732D01*
X72265634Y-116437927D01*
X72372336Y-116278236D01*
X72445834Y-116100797D01*
X72483302Y-115912429D01*
X72483302Y-115720371D01*
X72445834Y-115532003D01*
X72372336Y-115354564D01*
X72265634Y-115194873D01*
X72129829Y-115059068D01*
X71970138Y-114952366D01*
X71792699Y-114878868D01*
X71604331Y-114841400D01*
X71412273Y-114841400D01*
X71223905Y-114878868D01*
X71046466Y-114952366D01*
X70886775Y-115059068D01*
X70750970Y-115194873D01*
X70644268Y-115354564D01*
X70570770Y-115532003D01*
X70533302Y-115720371D01*
X65483302Y-115720371D01*
X65445834Y-115532003D01*
X65372336Y-115354564D01*
X65265634Y-115194873D01*
X65129829Y-115059068D01*
X64970138Y-114952366D01*
X64792699Y-114878868D01*
X64604331Y-114841400D01*
X64412273Y-114841400D01*
X64223905Y-114878868D01*
X64046466Y-114952366D01*
X63886775Y-115059068D01*
X63750970Y-115194873D01*
X63644268Y-115354564D01*
X63570770Y-115532003D01*
X63533302Y-115720371D01*
X61983302Y-115720371D01*
X61945834Y-115532003D01*
X61872336Y-115354564D01*
X61765634Y-115194873D01*
X61629829Y-115059068D01*
X61470138Y-114952366D01*
X61292699Y-114878868D01*
X61104331Y-114841400D01*
X60912273Y-114841400D01*
X60723905Y-114878868D01*
X60546466Y-114952366D01*
X60386775Y-115059068D01*
X60250970Y-115194873D01*
X60144268Y-115354564D01*
X60070770Y-115532003D01*
X60033302Y-115720371D01*
X54983302Y-115720371D01*
X54945834Y-115532003D01*
X54872336Y-115354564D01*
X54765634Y-115194873D01*
X54629829Y-115059068D01*
X54470138Y-114952366D01*
X54292699Y-114878868D01*
X54104331Y-114841400D01*
X53912273Y-114841400D01*
X53723905Y-114878868D01*
X53546466Y-114952366D01*
X53386775Y-115059068D01*
X53250970Y-115194873D01*
X53144268Y-115354564D01*
X53070770Y-115532003D01*
X53033302Y-115720371D01*
X28439266Y-115720371D01*
X28380648Y-115681204D01*
X27757338Y-115423021D01*
X27095635Y-115291400D01*
X26420969Y-115291400D01*
X25759266Y-115423021D01*
X25135956Y-115681204D01*
X24574992Y-116056029D01*
X24097931Y-116533090D01*
X23723106Y-117094054D01*
X23708302Y-117129794D01*
X23708302Y-113600673D01*
X54333302Y-113600673D01*
X54333302Y-113832127D01*
X54378457Y-114059135D01*
X54467031Y-114272971D01*
X54595620Y-114465419D01*
X54759283Y-114629082D01*
X54951731Y-114757671D01*
X55165567Y-114846245D01*
X55392575Y-114891400D01*
X55624029Y-114891400D01*
X55851037Y-114846245D01*
X56064873Y-114757671D01*
X56257321Y-114629082D01*
X56420984Y-114465419D01*
X56508302Y-114334738D01*
X56595620Y-114465419D01*
X56759283Y-114629082D01*
X56951731Y-114757671D01*
X57165567Y-114846245D01*
X57392575Y-114891400D01*
X57624029Y-114891400D01*
X57851037Y-114846245D01*
X58064873Y-114757671D01*
X58257321Y-114629082D01*
X58318135Y-114568268D01*
X58833211Y-114568268D01*
X58919341Y-114739699D01*
X59130293Y-114834937D01*
X59355772Y-114887191D01*
X59587113Y-114894451D01*
X59815425Y-114856440D01*
X60031934Y-114774618D01*
X60097263Y-114739699D01*
X60183393Y-114568268D01*
X59508302Y-113893177D01*
X58833211Y-114568268D01*
X58318135Y-114568268D01*
X58420984Y-114465419D01*
X58517142Y-114321508D01*
X58656434Y-114391491D01*
X59331525Y-113716400D01*
X59685079Y-113716400D01*
X60360170Y-114391491D01*
X60531601Y-114305361D01*
X60626839Y-114094409D01*
X60679093Y-113868930D01*
X60686353Y-113637589D01*
X60680207Y-113600673D01*
X64833302Y-113600673D01*
X64833302Y-113832127D01*
X64878457Y-114059135D01*
X64967031Y-114272971D01*
X65095620Y-114465419D01*
X65259283Y-114629082D01*
X65451731Y-114757671D01*
X65665567Y-114846245D01*
X65892575Y-114891400D01*
X66124029Y-114891400D01*
X66351037Y-114846245D01*
X66564873Y-114757671D01*
X66757321Y-114629082D01*
X66920984Y-114465419D01*
X67008302Y-114334738D01*
X67095620Y-114465419D01*
X67259283Y-114629082D01*
X67451731Y-114757671D01*
X67665567Y-114846245D01*
X67892575Y-114891400D01*
X68124029Y-114891400D01*
X68351037Y-114846245D01*
X68564873Y-114757671D01*
X68757321Y-114629082D01*
X68818135Y-114568268D01*
X69333211Y-114568268D01*
X69419341Y-114739699D01*
X69630293Y-114834937D01*
X69855772Y-114887191D01*
X70087113Y-114894451D01*
X70315425Y-114856440D01*
X70531934Y-114774618D01*
X70597263Y-114739699D01*
X70683393Y-114568268D01*
X70008302Y-113893177D01*
X69333211Y-114568268D01*
X68818135Y-114568268D01*
X68920984Y-114465419D01*
X69017142Y-114321508D01*
X69156434Y-114391491D01*
X69831525Y-113716400D01*
X70185079Y-113716400D01*
X70860170Y-114391491D01*
X71031601Y-114305361D01*
X71126839Y-114094409D01*
X71179093Y-113868930D01*
X71186353Y-113637589D01*
X71148342Y-113409277D01*
X71066520Y-113192768D01*
X71031601Y-113127439D01*
X70860170Y-113041309D01*
X70185079Y-113716400D01*
X69831525Y-113716400D01*
X69156434Y-113041309D01*
X69017142Y-113111292D01*
X68920984Y-112967381D01*
X68818135Y-112864532D01*
X69333211Y-112864532D01*
X70008302Y-113539623D01*
X70683393Y-112864532D01*
X70597263Y-112693101D01*
X70436167Y-112620371D01*
X95883302Y-112620371D01*
X95883302Y-112812429D01*
X95920770Y-113000797D01*
X95994268Y-113178236D01*
X96100970Y-113337927D01*
X96236775Y-113473732D01*
X96396466Y-113580434D01*
X96573905Y-113653932D01*
X96762273Y-113691400D01*
X96954331Y-113691400D01*
X97142699Y-113653932D01*
X97320138Y-113580434D01*
X97479829Y-113473732D01*
X97615634Y-113337927D01*
X97722336Y-113178236D01*
X97795834Y-113000797D01*
X97833302Y-112812429D01*
X97833302Y-112620371D01*
X97795834Y-112432003D01*
X97722336Y-112254564D01*
X97615634Y-112094873D01*
X97479829Y-111959068D01*
X97320138Y-111852366D01*
X97142699Y-111778868D01*
X96954331Y-111741400D01*
X96762273Y-111741400D01*
X96573905Y-111778868D01*
X96396466Y-111852366D01*
X96236775Y-111959068D01*
X96100970Y-112094873D01*
X95994268Y-112254564D01*
X95920770Y-112432003D01*
X95883302Y-112620371D01*
X70436167Y-112620371D01*
X70386311Y-112597863D01*
X70160832Y-112545609D01*
X69929491Y-112538349D01*
X69701179Y-112576360D01*
X69484670Y-112658182D01*
X69419341Y-112693101D01*
X69333211Y-112864532D01*
X68818135Y-112864532D01*
X68757321Y-112803718D01*
X68564873Y-112675129D01*
X68351037Y-112586555D01*
X68124029Y-112541400D01*
X67892575Y-112541400D01*
X67733312Y-112573080D01*
X67733312Y-111100673D01*
X93583302Y-111100673D01*
X93583302Y-111332127D01*
X93628457Y-111559135D01*
X93717031Y-111772971D01*
X93845620Y-111965419D01*
X94009283Y-112129082D01*
X94201731Y-112257671D01*
X94415567Y-112346245D01*
X94642575Y-112391400D01*
X94874029Y-112391400D01*
X95101037Y-112346245D01*
X95314873Y-112257671D01*
X95507321Y-112129082D01*
X95670984Y-111965419D01*
X95799573Y-111772971D01*
X95888147Y-111559135D01*
X95933302Y-111332127D01*
X95933302Y-111100673D01*
X95888147Y-110873665D01*
X95799573Y-110659829D01*
X95670984Y-110467381D01*
X95507321Y-110303718D01*
X95363410Y-110207560D01*
X95433393Y-110068268D01*
X94758302Y-109393177D01*
X94083211Y-110068268D01*
X94153194Y-110207560D01*
X94009283Y-110303718D01*
X93845620Y-110467381D01*
X93717031Y-110659829D01*
X93628457Y-110873665D01*
X93583302Y-111100673D01*
X67733312Y-111100673D01*
X67733312Y-109295211D01*
X93580251Y-109295211D01*
X93618262Y-109523523D01*
X93700084Y-109740032D01*
X93735003Y-109805361D01*
X93906434Y-109891491D01*
X94581525Y-109216400D01*
X94935079Y-109216400D01*
X95610170Y-109891491D01*
X95781601Y-109805361D01*
X95876839Y-109594409D01*
X95929093Y-109368930D01*
X95936353Y-109137589D01*
X95898342Y-108909277D01*
X95816520Y-108692768D01*
X95781601Y-108627439D01*
X95610170Y-108541309D01*
X94935079Y-109216400D01*
X94581525Y-109216400D01*
X93906434Y-108541309D01*
X93735003Y-108627439D01*
X93639765Y-108838391D01*
X93587511Y-109063870D01*
X93580251Y-109295211D01*
X67733312Y-109295211D01*
X67733312Y-106540069D01*
X78683302Y-106540069D01*
X78683302Y-106692731D01*
X78713085Y-106842459D01*
X78771506Y-106983500D01*
X78856320Y-107110434D01*
X78964268Y-107218382D01*
X79091202Y-107303196D01*
X79232243Y-107361617D01*
X79381971Y-107391400D01*
X79534633Y-107391400D01*
X79684361Y-107361617D01*
X79825402Y-107303196D01*
X79952336Y-107218382D01*
X80004318Y-107166400D01*
X80293712Y-107166400D01*
X80263085Y-107240341D01*
X80233302Y-107390069D01*
X80233302Y-107542731D01*
X80263085Y-107692459D01*
X80321506Y-107833500D01*
X80360193Y-107891400D01*
X80321506Y-107949300D01*
X80263085Y-108090341D01*
X80233302Y-108240069D01*
X80233302Y-108392731D01*
X80263085Y-108542459D01*
X80321506Y-108683500D01*
X80406320Y-108810434D01*
X80514268Y-108918382D01*
X80641202Y-109003196D01*
X80782243Y-109061617D01*
X80931971Y-109091400D01*
X81084633Y-109091400D01*
X81234361Y-109061617D01*
X81375402Y-109003196D01*
X81502336Y-108918382D01*
X81610284Y-108810434D01*
X81695098Y-108683500D01*
X81753519Y-108542459D01*
X81783302Y-108392731D01*
X81783302Y-108364532D01*
X94083211Y-108364532D01*
X94758302Y-109039623D01*
X95433393Y-108364532D01*
X95347263Y-108193101D01*
X95136311Y-108097863D01*
X94910832Y-108045609D01*
X94679491Y-108038349D01*
X94451179Y-108076360D01*
X94234670Y-108158182D01*
X94169341Y-108193101D01*
X94083211Y-108364532D01*
X81783302Y-108364532D01*
X81783302Y-108240069D01*
X81753519Y-108090341D01*
X81695098Y-107949300D01*
X81656411Y-107891400D01*
X81695098Y-107833500D01*
X81753519Y-107692459D01*
X81767858Y-107620371D01*
X95883302Y-107620371D01*
X95883302Y-107812429D01*
X95920770Y-108000797D01*
X95994268Y-108178236D01*
X96100970Y-108337927D01*
X96236775Y-108473732D01*
X96396466Y-108580434D01*
X96573905Y-108653932D01*
X96762273Y-108691400D01*
X96954331Y-108691400D01*
X97142699Y-108653932D01*
X97320138Y-108580434D01*
X97479829Y-108473732D01*
X97615634Y-108337927D01*
X97722336Y-108178236D01*
X97795834Y-108000797D01*
X97833302Y-107812429D01*
X97833302Y-107620371D01*
X97795834Y-107432003D01*
X97722336Y-107254564D01*
X97615634Y-107094873D01*
X97479829Y-106959068D01*
X97320138Y-106852366D01*
X97142699Y-106778868D01*
X96954331Y-106741400D01*
X96762273Y-106741400D01*
X96573905Y-106778868D01*
X96396466Y-106852366D01*
X96236775Y-106959068D01*
X96100970Y-107094873D01*
X95994268Y-107254564D01*
X95920770Y-107432003D01*
X95883302Y-107620371D01*
X81767858Y-107620371D01*
X81783302Y-107542731D01*
X81783302Y-107390069D01*
X81753519Y-107240341D01*
X81722892Y-107166400D01*
X83731294Y-107166400D01*
X83758302Y-107169060D01*
X83785310Y-107166400D01*
X83785320Y-107166400D01*
X83866121Y-107158442D01*
X83969796Y-107126992D01*
X84065344Y-107075921D01*
X84149092Y-107007190D01*
X84166315Y-106986204D01*
X85358302Y-105794217D01*
X86533889Y-106969804D01*
X86551112Y-106990790D01*
X86634860Y-107059521D01*
X86730408Y-107110592D01*
X86834083Y-107142042D01*
X86914884Y-107150000D01*
X86914891Y-107150000D01*
X86941902Y-107152660D01*
X86968913Y-107150000D01*
X89953984Y-107150000D01*
X90005966Y-107201982D01*
X90132900Y-107286796D01*
X90273941Y-107345217D01*
X90423669Y-107375000D01*
X90576331Y-107375000D01*
X90726059Y-107345217D01*
X90867100Y-107286796D01*
X90994034Y-107201982D01*
X91101982Y-107094034D01*
X91186796Y-106967100D01*
X91245217Y-106826059D01*
X91275000Y-106676331D01*
X91275000Y-106523669D01*
X91245217Y-106373941D01*
X91186796Y-106232900D01*
X91101982Y-106105966D01*
X90994034Y-105998018D01*
X90867100Y-105913204D01*
X90726059Y-105854783D01*
X90576331Y-105825000D01*
X90423669Y-105825000D01*
X90273941Y-105854783D01*
X90132900Y-105913204D01*
X90005966Y-105998018D01*
X89953984Y-106050000D01*
X87169719Y-106050000D01*
X85908302Y-104788583D01*
X85908302Y-104658865D01*
X95222613Y-104658865D01*
X95405253Y-104912224D01*
X95752616Y-105087414D01*
X96127483Y-105191470D01*
X96515447Y-105220395D01*
X96901599Y-105173076D01*
X97271100Y-105051331D01*
X97531351Y-104912224D01*
X97713991Y-104658865D01*
X96468302Y-103413177D01*
X95222613Y-104658865D01*
X85908302Y-104658865D01*
X85908302Y-103283545D01*
X94484307Y-103283545D01*
X94531626Y-103669697D01*
X94653371Y-104039198D01*
X94792478Y-104299449D01*
X95045837Y-104482089D01*
X96291525Y-103236400D01*
X96645079Y-103236400D01*
X97890767Y-104482089D01*
X98144126Y-104299449D01*
X98319316Y-103952086D01*
X98423372Y-103577219D01*
X98452297Y-103189255D01*
X98404978Y-102803103D01*
X98283233Y-102433602D01*
X98144126Y-102173351D01*
X97890767Y-101990711D01*
X96645079Y-103236400D01*
X96291525Y-103236400D01*
X95045837Y-101990711D01*
X94792478Y-102173351D01*
X94617288Y-102520714D01*
X94513232Y-102895581D01*
X94484307Y-103283545D01*
X85908302Y-103283545D01*
X85908302Y-101813935D01*
X95222613Y-101813935D01*
X96468302Y-103059623D01*
X97713991Y-101813935D01*
X97531351Y-101560576D01*
X97183988Y-101385386D01*
X96809121Y-101281330D01*
X96421157Y-101252405D01*
X96035005Y-101299724D01*
X95665504Y-101421469D01*
X95405253Y-101560576D01*
X95222613Y-101813935D01*
X85908302Y-101813935D01*
X85908302Y-98040069D01*
X87983302Y-98040069D01*
X87983302Y-98192731D01*
X88013085Y-98342459D01*
X88071506Y-98483500D01*
X88156320Y-98610434D01*
X88264268Y-98718382D01*
X88391202Y-98803196D01*
X88532243Y-98861617D01*
X88681971Y-98891400D01*
X88834633Y-98891400D01*
X88984361Y-98861617D01*
X89125402Y-98803196D01*
X89252336Y-98718382D01*
X89360284Y-98610434D01*
X89373002Y-98591400D01*
X89560268Y-98591400D01*
X89583600Y-98593698D01*
X89606932Y-98591400D01*
X89676716Y-98584527D01*
X89766254Y-98557366D01*
X89848773Y-98513259D01*
X89921101Y-98453901D01*
X89935984Y-98435766D01*
X90016153Y-98355597D01*
X90633302Y-98355597D01*
X90633302Y-98577203D01*
X90676535Y-98794550D01*
X90761340Y-98999287D01*
X90884458Y-99183545D01*
X91041157Y-99340244D01*
X91225415Y-99463362D01*
X91430152Y-99548167D01*
X91647499Y-99591400D01*
X91869105Y-99591400D01*
X92086452Y-99548167D01*
X92291189Y-99463362D01*
X92475447Y-99340244D01*
X92632146Y-99183545D01*
X92755264Y-98999287D01*
X92758302Y-98991953D01*
X92761340Y-98999287D01*
X92884458Y-99183545D01*
X93041157Y-99340244D01*
X93225415Y-99463362D01*
X93430152Y-99548167D01*
X93647499Y-99591400D01*
X93869105Y-99591400D01*
X94086452Y-99548167D01*
X94291189Y-99463362D01*
X94475447Y-99340244D01*
X94632146Y-99183545D01*
X94755264Y-98999287D01*
X94840069Y-98794550D01*
X94883302Y-98577203D01*
X94883302Y-98355597D01*
X94840069Y-98138250D01*
X94755264Y-97933513D01*
X94632146Y-97749255D01*
X94475447Y-97592556D01*
X94291189Y-97469438D01*
X94086452Y-97384633D01*
X93869105Y-97341400D01*
X93647499Y-97341400D01*
X93430152Y-97384633D01*
X93225415Y-97469438D01*
X93041157Y-97592556D01*
X92884458Y-97749255D01*
X92761340Y-97933513D01*
X92758302Y-97940847D01*
X92755264Y-97933513D01*
X92632146Y-97749255D01*
X92475447Y-97592556D01*
X92291189Y-97469438D01*
X92086452Y-97384633D01*
X91869105Y-97341400D01*
X91647499Y-97341400D01*
X91430152Y-97384633D01*
X91225415Y-97469438D01*
X91041157Y-97592556D01*
X90884458Y-97749255D01*
X90761340Y-97933513D01*
X90676535Y-98138250D01*
X90633302Y-98355597D01*
X90016153Y-98355597D01*
X91354797Y-97016954D01*
X91430152Y-97048167D01*
X91647499Y-97091400D01*
X91869105Y-97091400D01*
X92086452Y-97048167D01*
X92291189Y-96963362D01*
X92475447Y-96840244D01*
X92533199Y-96782492D01*
X93118986Y-96782492D01*
X93199046Y-96948812D01*
X93401451Y-97039041D01*
X93617570Y-97088049D01*
X93839097Y-97093952D01*
X94057518Y-97056524D01*
X94264442Y-96977203D01*
X94317558Y-96948812D01*
X94397618Y-96782492D01*
X93758302Y-96143177D01*
X93118986Y-96782492D01*
X92533199Y-96782492D01*
X92632146Y-96683545D01*
X92755264Y-96499287D01*
X92758116Y-96492402D01*
X92775890Y-96525656D01*
X92942210Y-96605716D01*
X93581525Y-95966400D01*
X93935079Y-95966400D01*
X94574394Y-96605716D01*
X94740714Y-96525656D01*
X94830943Y-96323251D01*
X94879951Y-96107132D01*
X94885854Y-95885605D01*
X94848426Y-95667184D01*
X94769105Y-95460260D01*
X94740714Y-95407144D01*
X94574394Y-95327084D01*
X93935079Y-95966400D01*
X93581525Y-95966400D01*
X92942210Y-95327084D01*
X92775890Y-95407144D01*
X92759537Y-95443828D01*
X92755264Y-95433513D01*
X92632146Y-95249255D01*
X92533199Y-95150308D01*
X93118986Y-95150308D01*
X93758302Y-95789623D01*
X94397618Y-95150308D01*
X94317558Y-94983988D01*
X94115153Y-94893759D01*
X93899034Y-94844751D01*
X93677507Y-94838848D01*
X93459086Y-94876276D01*
X93252162Y-94955597D01*
X93199046Y-94983988D01*
X93118986Y-95150308D01*
X92533199Y-95150308D01*
X92475447Y-95092556D01*
X92291189Y-94969438D01*
X92086452Y-94884633D01*
X91869105Y-94841400D01*
X91647499Y-94841400D01*
X91430152Y-94884633D01*
X91225415Y-94969438D01*
X91041157Y-95092556D01*
X90884458Y-95249255D01*
X90761340Y-95433513D01*
X90676535Y-95638250D01*
X90633302Y-95855597D01*
X90633302Y-96077203D01*
X90676535Y-96294550D01*
X90693278Y-96334971D01*
X89386850Y-97641400D01*
X89373002Y-97641400D01*
X89360284Y-97622366D01*
X89252336Y-97514418D01*
X89125402Y-97429604D01*
X88984361Y-97371183D01*
X88834633Y-97341400D01*
X88681971Y-97341400D01*
X88532243Y-97371183D01*
X88391202Y-97429604D01*
X88264268Y-97514418D01*
X88156320Y-97622366D01*
X88071506Y-97749300D01*
X88013085Y-97890341D01*
X87983302Y-98040069D01*
X85908302Y-98040069D01*
X85908302Y-96362416D01*
X85960284Y-96310434D01*
X86045098Y-96183500D01*
X86103519Y-96042459D01*
X86133302Y-95892731D01*
X86133302Y-95740069D01*
X86103519Y-95590341D01*
X86045098Y-95449300D01*
X85960284Y-95322366D01*
X85852336Y-95214418D01*
X85725402Y-95129604D01*
X85584361Y-95071183D01*
X85434633Y-95041400D01*
X85281971Y-95041400D01*
X85132243Y-95071183D01*
X84991202Y-95129604D01*
X84864268Y-95214418D01*
X84756320Y-95322366D01*
X84671506Y-95449300D01*
X84613085Y-95590341D01*
X84583302Y-95740069D01*
X84583302Y-95892731D01*
X84613085Y-96042459D01*
X84671506Y-96183500D01*
X84756320Y-96310434D01*
X84808302Y-96362416D01*
X84808303Y-98689373D01*
X84808302Y-98689383D01*
X84808303Y-104788582D01*
X83530485Y-106066400D01*
X80004318Y-106066400D01*
X79952336Y-106014418D01*
X79825402Y-105929604D01*
X79684361Y-105871183D01*
X79534633Y-105841400D01*
X79381971Y-105841400D01*
X79232243Y-105871183D01*
X79091202Y-105929604D01*
X78964268Y-106014418D01*
X78856320Y-106122366D01*
X78771506Y-106249300D01*
X78713085Y-106390341D01*
X78683302Y-106540069D01*
X67733312Y-106540069D01*
X67733312Y-102390069D01*
X75333302Y-102390069D01*
X75333302Y-102542731D01*
X75363085Y-102692459D01*
X75421506Y-102833500D01*
X75506320Y-102960434D01*
X75614268Y-103068382D01*
X75741202Y-103153196D01*
X75882243Y-103211617D01*
X76031971Y-103241400D01*
X76184633Y-103241400D01*
X76334361Y-103211617D01*
X76475402Y-103153196D01*
X76602336Y-103068382D01*
X76710284Y-102960434D01*
X76795098Y-102833500D01*
X76853519Y-102692459D01*
X76883302Y-102542731D01*
X76883302Y-102390069D01*
X76853519Y-102240341D01*
X76795098Y-102099300D01*
X76710284Y-101972366D01*
X76602336Y-101864418D01*
X76475402Y-101779604D01*
X76334361Y-101721183D01*
X76184633Y-101691400D01*
X76031971Y-101691400D01*
X75882243Y-101721183D01*
X75741202Y-101779604D01*
X75614268Y-101864418D01*
X75506320Y-101972366D01*
X75421506Y-102099300D01*
X75363085Y-102240341D01*
X75333302Y-102390069D01*
X67733312Y-102390069D01*
X67733312Y-92618865D01*
X95222613Y-92618865D01*
X95405253Y-92872224D01*
X95752616Y-93047414D01*
X96127483Y-93151470D01*
X96515447Y-93180395D01*
X96901599Y-93133076D01*
X97271100Y-93011331D01*
X97531351Y-92872224D01*
X97713991Y-92618865D01*
X96468302Y-91373177D01*
X95222613Y-92618865D01*
X67733312Y-92618865D01*
X67733312Y-90540069D01*
X72683302Y-90540069D01*
X72683302Y-90692731D01*
X72713085Y-90842459D01*
X72771506Y-90983500D01*
X72856320Y-91110434D01*
X72964268Y-91218382D01*
X73091202Y-91303196D01*
X73232243Y-91361617D01*
X73381971Y-91391400D01*
X73534633Y-91391400D01*
X73684361Y-91361617D01*
X73825402Y-91303196D01*
X73914676Y-91243545D01*
X94484307Y-91243545D01*
X94531626Y-91629697D01*
X94653371Y-91999198D01*
X94792478Y-92259449D01*
X95045837Y-92442089D01*
X96291525Y-91196400D01*
X96645079Y-91196400D01*
X97890767Y-92442089D01*
X98144126Y-92259449D01*
X98319316Y-91912086D01*
X98423372Y-91537219D01*
X98452297Y-91149255D01*
X98404978Y-90763103D01*
X98283233Y-90393602D01*
X98144126Y-90133351D01*
X97890767Y-89950711D01*
X96645079Y-91196400D01*
X96291525Y-91196400D01*
X95045837Y-89950711D01*
X94792478Y-90133351D01*
X94617288Y-90480714D01*
X94513232Y-90855581D01*
X94484307Y-91243545D01*
X73914676Y-91243545D01*
X73952336Y-91218382D01*
X74060284Y-91110434D01*
X74073002Y-91091400D01*
X75734970Y-91091400D01*
X75758302Y-91093698D01*
X75781634Y-91091400D01*
X75851418Y-91084527D01*
X75940956Y-91057366D01*
X76023475Y-91013259D01*
X76095803Y-90953901D01*
X76110686Y-90935766D01*
X77272517Y-89773935D01*
X95222613Y-89773935D01*
X96468302Y-91019623D01*
X97713991Y-89773935D01*
X97531351Y-89520576D01*
X97183988Y-89345386D01*
X96809121Y-89241330D01*
X96421157Y-89212405D01*
X96035005Y-89259724D01*
X95665504Y-89381469D01*
X95405253Y-89520576D01*
X95222613Y-89773935D01*
X77272517Y-89773935D01*
X77459519Y-89586934D01*
X77481971Y-89591400D01*
X77634633Y-89591400D01*
X77784361Y-89561617D01*
X77925402Y-89503196D01*
X78052336Y-89418382D01*
X78160284Y-89310434D01*
X78245098Y-89183500D01*
X78303519Y-89042459D01*
X78333302Y-88892731D01*
X78333302Y-88740069D01*
X78303519Y-88590341D01*
X78245098Y-88449300D01*
X78160284Y-88322366D01*
X78052336Y-88214418D01*
X77925402Y-88129604D01*
X77784361Y-88071183D01*
X77634633Y-88041400D01*
X77481971Y-88041400D01*
X77332243Y-88071183D01*
X77191202Y-88129604D01*
X77064268Y-88214418D01*
X76956320Y-88322366D01*
X76871506Y-88449300D01*
X76813085Y-88590341D01*
X76783302Y-88740069D01*
X76783302Y-88892731D01*
X76787768Y-88915183D01*
X75561552Y-90141400D01*
X74073002Y-90141400D01*
X74060284Y-90122366D01*
X73952336Y-90014418D01*
X73825402Y-89929604D01*
X73684361Y-89871183D01*
X73534633Y-89841400D01*
X73381971Y-89841400D01*
X73232243Y-89871183D01*
X73091202Y-89929604D01*
X72964268Y-90014418D01*
X72856320Y-90122366D01*
X72771506Y-90249300D01*
X72713085Y-90390341D01*
X72683302Y-90540069D01*
X67733312Y-90540069D01*
X67733312Y-89931110D01*
X67752346Y-89918392D01*
X67860294Y-89810444D01*
X67945108Y-89683510D01*
X68003529Y-89542469D01*
X68033312Y-89392741D01*
X68033312Y-89240079D01*
X68003529Y-89090351D01*
X67945108Y-88949310D01*
X67860294Y-88822376D01*
X67752346Y-88714428D01*
X67625412Y-88629614D01*
X67484371Y-88571193D01*
X67334643Y-88541410D01*
X67181981Y-88541410D01*
X67032253Y-88571193D01*
X66891212Y-88629614D01*
X66764278Y-88714428D01*
X66656330Y-88822376D01*
X66571516Y-88949310D01*
X66513095Y-89090351D01*
X66483312Y-89240079D01*
X66483312Y-89392741D01*
X66492991Y-89441400D01*
X66381971Y-89441400D01*
X66232243Y-89471183D01*
X66091202Y-89529604D01*
X65964268Y-89614418D01*
X65856320Y-89722366D01*
X65771506Y-89849300D01*
X65713085Y-89990341D01*
X65683302Y-90140069D01*
X65683302Y-90292731D01*
X65713085Y-90442459D01*
X65771506Y-90583500D01*
X65856320Y-90710434D01*
X65964268Y-90818382D01*
X66091202Y-90903196D01*
X66232243Y-90961617D01*
X66381971Y-90991400D01*
X66383303Y-90991400D01*
X66383302Y-112599920D01*
X66351037Y-112586555D01*
X66124029Y-112541400D01*
X65892575Y-112541400D01*
X65665567Y-112586555D01*
X65451731Y-112675129D01*
X65259283Y-112803718D01*
X65095620Y-112967381D01*
X64967031Y-113159829D01*
X64878457Y-113373665D01*
X64833302Y-113600673D01*
X60680207Y-113600673D01*
X60648342Y-113409277D01*
X60566520Y-113192768D01*
X60531601Y-113127439D01*
X60360170Y-113041309D01*
X59685079Y-113716400D01*
X59331525Y-113716400D01*
X58656434Y-113041309D01*
X58517142Y-113111292D01*
X58420984Y-112967381D01*
X58318135Y-112864532D01*
X58833211Y-112864532D01*
X59508302Y-113539623D01*
X60183393Y-112864532D01*
X60097263Y-112693101D01*
X59886311Y-112597863D01*
X59660832Y-112545609D01*
X59429491Y-112538349D01*
X59201179Y-112576360D01*
X58984670Y-112658182D01*
X58919341Y-112693101D01*
X58833211Y-112864532D01*
X58318135Y-112864532D01*
X58257321Y-112803718D01*
X58064873Y-112675129D01*
X57851037Y-112586555D01*
X57624029Y-112541400D01*
X57392575Y-112541400D01*
X57361278Y-112547625D01*
X57333302Y-112519650D01*
X57333302Y-104413151D01*
X57610686Y-104135768D01*
X57610695Y-104135757D01*
X57759518Y-103986934D01*
X57781971Y-103991400D01*
X57934633Y-103991400D01*
X58084361Y-103961617D01*
X58225402Y-103903196D01*
X58352336Y-103818382D01*
X58460284Y-103710434D01*
X58545098Y-103583500D01*
X58603519Y-103442459D01*
X58633302Y-103292731D01*
X58633302Y-103140069D01*
X58603519Y-102990341D01*
X58545098Y-102849300D01*
X58460284Y-102722366D01*
X58404318Y-102666400D01*
X58460284Y-102610434D01*
X58545098Y-102483500D01*
X58603519Y-102342459D01*
X58613940Y-102290069D01*
X63433302Y-102290069D01*
X63433302Y-102442731D01*
X63463085Y-102592459D01*
X63521506Y-102733500D01*
X63606320Y-102860434D01*
X63714268Y-102968382D01*
X63841202Y-103053196D01*
X63982243Y-103111617D01*
X64131971Y-103141400D01*
X64284633Y-103141400D01*
X64434361Y-103111617D01*
X64575402Y-103053196D01*
X64702336Y-102968382D01*
X64810284Y-102860434D01*
X64895098Y-102733500D01*
X64953519Y-102592459D01*
X64983302Y-102442731D01*
X64983302Y-102290069D01*
X64953519Y-102140341D01*
X64895098Y-101999300D01*
X64810284Y-101872366D01*
X64702336Y-101764418D01*
X64575402Y-101679604D01*
X64434361Y-101621183D01*
X64284633Y-101591400D01*
X64131971Y-101591400D01*
X63982243Y-101621183D01*
X63841202Y-101679604D01*
X63714268Y-101764418D01*
X63606320Y-101872366D01*
X63521506Y-101999300D01*
X63463085Y-102140341D01*
X63433302Y-102290069D01*
X58613940Y-102290069D01*
X58633302Y-102192731D01*
X58633302Y-102040069D01*
X58603519Y-101890341D01*
X58545098Y-101749300D01*
X58460284Y-101622366D01*
X58352336Y-101514418D01*
X58225402Y-101429604D01*
X58084361Y-101371183D01*
X57934633Y-101341400D01*
X57781971Y-101341400D01*
X57632243Y-101371183D01*
X57491202Y-101429604D01*
X57364268Y-101514418D01*
X57256320Y-101622366D01*
X57171506Y-101749300D01*
X57113085Y-101890341D01*
X57083302Y-102040069D01*
X57083302Y-102192731D01*
X57087768Y-102215183D01*
X56538929Y-102764023D01*
X56538924Y-102764027D01*
X56138931Y-103164021D01*
X56120802Y-103178899D01*
X56061444Y-103251227D01*
X56044170Y-103283545D01*
X56017337Y-103333746D01*
X55990175Y-103423284D01*
X55981004Y-103516400D01*
X55983303Y-103539742D01*
X55983302Y-112619649D01*
X55967964Y-112634988D01*
X55851037Y-112586555D01*
X55624029Y-112541400D01*
X55392575Y-112541400D01*
X55165567Y-112586555D01*
X54951731Y-112675129D01*
X54759283Y-112803718D01*
X54595620Y-112967381D01*
X54467031Y-113159829D01*
X54378457Y-113373665D01*
X54333302Y-113600673D01*
X23708302Y-113600673D01*
X23708302Y-106531767D01*
X27676712Y-106531767D01*
X27819626Y-106751316D01*
X28110774Y-106893558D01*
X28424077Y-106976267D01*
X28747497Y-106996264D01*
X29068603Y-106952780D01*
X29375056Y-106847488D01*
X29554978Y-106751316D01*
X29697892Y-106531767D01*
X28687302Y-105521177D01*
X27676712Y-106531767D01*
X23708302Y-106531767D01*
X23708302Y-104845675D01*
X23982994Y-105120367D01*
X24310663Y-105339309D01*
X24674749Y-105490118D01*
X25061260Y-105567000D01*
X25455344Y-105567000D01*
X25841855Y-105490118D01*
X26048326Y-105404595D01*
X27035438Y-105404595D01*
X27078922Y-105725701D01*
X27184214Y-106032154D01*
X27280386Y-106212076D01*
X27499935Y-106354990D01*
X28510525Y-105344400D01*
X28864079Y-105344400D01*
X29874669Y-106354990D01*
X30094218Y-106212076D01*
X30236460Y-105920928D01*
X30319169Y-105607625D01*
X30339166Y-105284205D01*
X30295682Y-104963099D01*
X30258436Y-104854692D01*
X33798787Y-104854692D01*
X33872768Y-105015903D01*
X34066621Y-105101119D01*
X34273375Y-105146879D01*
X34485082Y-105151425D01*
X34693609Y-105114581D01*
X34890940Y-105037763D01*
X34931836Y-105015903D01*
X35005817Y-104854692D01*
X34402302Y-104251177D01*
X33798787Y-104854692D01*
X30258436Y-104854692D01*
X30190390Y-104656646D01*
X30094218Y-104476724D01*
X29874669Y-104333810D01*
X28864079Y-105344400D01*
X28510525Y-105344400D01*
X27499935Y-104333810D01*
X27280386Y-104476724D01*
X27138144Y-104767872D01*
X27055435Y-105081175D01*
X27035438Y-105404595D01*
X26048326Y-105404595D01*
X26205941Y-105339309D01*
X26533610Y-105120367D01*
X26812269Y-104841708D01*
X27031211Y-104514039D01*
X27179087Y-104157033D01*
X27676712Y-104157033D01*
X28687302Y-105167623D01*
X29697745Y-104157180D01*
X33325277Y-104157180D01*
X33362121Y-104365707D01*
X33438939Y-104563038D01*
X33460799Y-104603934D01*
X33622010Y-104677915D01*
X34225525Y-104074400D01*
X34579079Y-104074400D01*
X35182594Y-104677915D01*
X35343805Y-104603934D01*
X35429021Y-104410081D01*
X35474781Y-104203327D01*
X35479327Y-103991620D01*
X35442483Y-103783093D01*
X35365665Y-103585762D01*
X35343805Y-103544866D01*
X35182594Y-103470885D01*
X34579079Y-104074400D01*
X34225525Y-104074400D01*
X33622010Y-103470885D01*
X33460799Y-103544866D01*
X33375583Y-103738719D01*
X33329823Y-103945473D01*
X33325277Y-104157180D01*
X29697745Y-104157180D01*
X29697892Y-104157033D01*
X29554978Y-103937484D01*
X29263830Y-103795242D01*
X28950527Y-103712533D01*
X28627107Y-103692536D01*
X28306001Y-103736020D01*
X27999548Y-103841312D01*
X27819626Y-103937484D01*
X27676712Y-104157033D01*
X27179087Y-104157033D01*
X27182020Y-104149953D01*
X27258902Y-103763442D01*
X27258902Y-103369358D01*
X27243934Y-103294108D01*
X33798787Y-103294108D01*
X34402302Y-103897623D01*
X35005817Y-103294108D01*
X34931836Y-103132897D01*
X34737983Y-103047681D01*
X34531229Y-103001921D01*
X34319522Y-102997375D01*
X34110995Y-103034219D01*
X33913664Y-103111037D01*
X33872768Y-103132897D01*
X33798787Y-103294108D01*
X27243934Y-103294108D01*
X27182020Y-102982847D01*
X27031211Y-102618761D01*
X26812269Y-102291092D01*
X26533610Y-102012433D01*
X26205941Y-101793491D01*
X25841855Y-101642682D01*
X25455344Y-101565800D01*
X25061260Y-101565800D01*
X24674749Y-101642682D01*
X24310663Y-101793491D01*
X23982994Y-102012433D01*
X23708302Y-102287125D01*
X23708302Y-94570522D01*
X26723302Y-94570522D01*
X26723302Y-94782278D01*
X26764614Y-94989966D01*
X26845650Y-95185603D01*
X26963295Y-95361672D01*
X27113030Y-95511407D01*
X27289099Y-95629052D01*
X27442034Y-95692400D01*
X27289099Y-95755748D01*
X27113030Y-95873393D01*
X26963295Y-96023128D01*
X26845650Y-96199197D01*
X26764614Y-96394834D01*
X26723302Y-96602522D01*
X26723302Y-96814278D01*
X26764614Y-97021966D01*
X26845650Y-97217603D01*
X26963295Y-97393672D01*
X27113030Y-97543407D01*
X27289099Y-97661052D01*
X27442034Y-97724400D01*
X27289099Y-97787748D01*
X27113030Y-97905393D01*
X26963295Y-98055128D01*
X26845650Y-98231197D01*
X26764614Y-98426834D01*
X26723302Y-98634522D01*
X26723302Y-98846278D01*
X26764614Y-99053966D01*
X26845650Y-99249603D01*
X26963295Y-99425672D01*
X27113030Y-99575407D01*
X27289099Y-99693052D01*
X27442034Y-99756400D01*
X27289099Y-99819748D01*
X27113030Y-99937393D01*
X26963295Y-100087128D01*
X26845650Y-100263197D01*
X26764614Y-100458834D01*
X26723302Y-100666522D01*
X26723302Y-100878278D01*
X26764614Y-101085966D01*
X26845650Y-101281603D01*
X26963295Y-101457672D01*
X27113030Y-101607407D01*
X27289099Y-101725052D01*
X27484736Y-101806088D01*
X27692424Y-101847400D01*
X27904180Y-101847400D01*
X28111868Y-101806088D01*
X28307505Y-101725052D01*
X28371155Y-101682522D01*
X33327302Y-101682522D01*
X33327302Y-101894278D01*
X33368614Y-102101966D01*
X33449650Y-102297603D01*
X33567295Y-102473672D01*
X33717030Y-102623407D01*
X33893099Y-102741052D01*
X34088736Y-102822088D01*
X34296424Y-102863400D01*
X34508180Y-102863400D01*
X34715868Y-102822088D01*
X34911505Y-102741052D01*
X35087574Y-102623407D01*
X35237309Y-102473672D01*
X35354954Y-102297603D01*
X35369121Y-102263400D01*
X37462970Y-102263400D01*
X37486302Y-102265698D01*
X37509634Y-102263400D01*
X37579418Y-102256527D01*
X37668956Y-102229366D01*
X37751475Y-102185259D01*
X37823803Y-102125901D01*
X37838686Y-102107766D01*
X38977673Y-100968780D01*
X38995803Y-100953901D01*
X39055161Y-100881573D01*
X39077345Y-100840069D01*
X47483302Y-100840069D01*
X47483302Y-100992731D01*
X47513085Y-101142459D01*
X47571506Y-101283500D01*
X47656320Y-101410434D01*
X47764268Y-101518382D01*
X47891202Y-101603196D01*
X48032243Y-101661617D01*
X48181971Y-101691400D01*
X48334633Y-101691400D01*
X48484361Y-101661617D01*
X48625402Y-101603196D01*
X48752336Y-101518382D01*
X48860284Y-101410434D01*
X48945098Y-101283500D01*
X49003519Y-101142459D01*
X49033302Y-100992731D01*
X49033302Y-100840069D01*
X49003519Y-100690341D01*
X48945098Y-100549300D01*
X48860284Y-100422366D01*
X48752336Y-100314418D01*
X48625402Y-100229604D01*
X48484361Y-100171183D01*
X48334633Y-100141400D01*
X48181971Y-100141400D01*
X48032243Y-100171183D01*
X47891202Y-100229604D01*
X47764268Y-100314418D01*
X47656320Y-100422366D01*
X47571506Y-100549300D01*
X47513085Y-100690341D01*
X47483302Y-100840069D01*
X39077345Y-100840069D01*
X39099268Y-100799054D01*
X39126429Y-100709516D01*
X39129407Y-100679284D01*
X39135600Y-100616401D01*
X39133302Y-100593069D01*
X39133302Y-99090069D01*
X57633302Y-99090069D01*
X57633302Y-99242731D01*
X57663085Y-99392459D01*
X57721506Y-99533500D01*
X57806320Y-99660434D01*
X57914268Y-99768382D01*
X58041202Y-99853196D01*
X58182243Y-99911617D01*
X58331971Y-99941400D01*
X58484633Y-99941400D01*
X58634361Y-99911617D01*
X58775402Y-99853196D01*
X58902336Y-99768382D01*
X59010284Y-99660434D01*
X59095098Y-99533500D01*
X59153519Y-99392459D01*
X59183302Y-99242731D01*
X59183302Y-99090069D01*
X59153519Y-98940341D01*
X59095098Y-98799300D01*
X59010284Y-98672366D01*
X58902336Y-98564418D01*
X58775402Y-98479604D01*
X58634361Y-98421183D01*
X58484633Y-98391400D01*
X58331971Y-98391400D01*
X58182243Y-98421183D01*
X58041202Y-98479604D01*
X57914268Y-98564418D01*
X57806320Y-98672366D01*
X57721506Y-98799300D01*
X57663085Y-98940341D01*
X57633302Y-99090069D01*
X39133302Y-99090069D01*
X39133302Y-95031100D01*
X39152336Y-95018382D01*
X39260284Y-94910434D01*
X39345098Y-94783500D01*
X39403519Y-94642459D01*
X39433302Y-94492731D01*
X39433302Y-94340069D01*
X39403519Y-94190341D01*
X39345098Y-94049300D01*
X39260284Y-93922366D01*
X39152336Y-93814418D01*
X39025402Y-93729604D01*
X38884361Y-93671183D01*
X38734633Y-93641400D01*
X38581971Y-93641400D01*
X38432243Y-93671183D01*
X38291202Y-93729604D01*
X38164268Y-93814418D01*
X38056320Y-93922366D01*
X37971506Y-94049300D01*
X37913085Y-94190341D01*
X37883302Y-94340069D01*
X37883302Y-94492731D01*
X37913085Y-94642459D01*
X37971506Y-94783500D01*
X38056320Y-94910434D01*
X38164268Y-95018382D01*
X38183302Y-95031100D01*
X38183303Y-100419648D01*
X37289552Y-101313400D01*
X35369121Y-101313400D01*
X35354954Y-101279197D01*
X35237309Y-101103128D01*
X35087574Y-100953393D01*
X34911505Y-100835748D01*
X34715868Y-100754712D01*
X34508180Y-100713400D01*
X34296424Y-100713400D01*
X34088736Y-100754712D01*
X33893099Y-100835748D01*
X33717030Y-100953393D01*
X33567295Y-101103128D01*
X33449650Y-101279197D01*
X33368614Y-101474834D01*
X33327302Y-101682522D01*
X28371155Y-101682522D01*
X28483574Y-101607407D01*
X28633309Y-101457672D01*
X28677590Y-101391400D01*
X30534970Y-101391400D01*
X30558302Y-101393698D01*
X30581634Y-101391400D01*
X30651418Y-101384527D01*
X30740956Y-101357366D01*
X30823475Y-101313259D01*
X30895803Y-101253901D01*
X30910686Y-101235766D01*
X33177674Y-98968779D01*
X33195803Y-98953901D01*
X33255161Y-98881573D01*
X33299268Y-98799054D01*
X33326429Y-98709516D01*
X33333302Y-98639732D01*
X33335600Y-98616401D01*
X33333302Y-98593069D01*
X33333302Y-95939729D01*
X33335600Y-95916399D01*
X33331364Y-95873393D01*
X33326429Y-95823284D01*
X33299268Y-95733746D01*
X33255161Y-95651227D01*
X33195803Y-95578899D01*
X33177673Y-95564020D01*
X32928836Y-95315183D01*
X32933302Y-95292731D01*
X32933302Y-95140069D01*
X32903519Y-94990341D01*
X32845098Y-94849300D01*
X32760284Y-94722366D01*
X32652336Y-94614418D01*
X32525402Y-94529604D01*
X32384361Y-94471183D01*
X32234633Y-94441400D01*
X32081971Y-94441400D01*
X31932243Y-94471183D01*
X31791202Y-94529604D01*
X31664268Y-94614418D01*
X31556320Y-94722366D01*
X31471506Y-94849300D01*
X31413085Y-94990341D01*
X31383302Y-95140069D01*
X31383302Y-95292731D01*
X31413085Y-95442459D01*
X31471506Y-95583500D01*
X31556320Y-95710434D01*
X31664268Y-95818382D01*
X31791202Y-95903196D01*
X31932243Y-95961617D01*
X32081971Y-95991400D01*
X32234633Y-95991400D01*
X32257085Y-95986934D01*
X32330651Y-96060499D01*
X32234633Y-96041400D01*
X32081971Y-96041400D01*
X31932243Y-96071183D01*
X31791202Y-96129604D01*
X31664268Y-96214418D01*
X31556320Y-96322366D01*
X31471506Y-96449300D01*
X31413085Y-96590341D01*
X31383302Y-96740069D01*
X31383302Y-96892731D01*
X31413085Y-97042459D01*
X31471506Y-97183500D01*
X31556320Y-97310434D01*
X31664268Y-97418382D01*
X31683302Y-97431100D01*
X31683303Y-98119647D01*
X30536804Y-99266148D01*
X30528954Y-99247197D01*
X30411309Y-99071128D01*
X30261574Y-98921393D01*
X30085505Y-98803748D01*
X29932570Y-98740400D01*
X30085505Y-98677052D01*
X30261574Y-98559407D01*
X30411309Y-98409672D01*
X30528954Y-98233603D01*
X30609990Y-98037966D01*
X30651302Y-97830278D01*
X30651302Y-97618522D01*
X30609990Y-97410834D01*
X30528954Y-97215197D01*
X30411309Y-97039128D01*
X30261574Y-96889393D01*
X30085505Y-96771748D01*
X29932570Y-96708400D01*
X30085505Y-96645052D01*
X30261574Y-96527407D01*
X30411309Y-96377672D01*
X30528954Y-96201603D01*
X30609990Y-96005966D01*
X30651302Y-95798278D01*
X30651302Y-95586522D01*
X30609990Y-95378834D01*
X30528954Y-95183197D01*
X30411309Y-95007128D01*
X30261574Y-94857393D01*
X30085505Y-94739748D01*
X29932570Y-94676400D01*
X30085505Y-94613052D01*
X30261574Y-94495407D01*
X30411309Y-94345672D01*
X30528954Y-94169603D01*
X30609990Y-93973966D01*
X30651302Y-93766278D01*
X30651302Y-93554522D01*
X30625478Y-93424692D01*
X33798787Y-93424692D01*
X33872768Y-93585903D01*
X34066621Y-93671119D01*
X34273375Y-93716879D01*
X34485082Y-93721425D01*
X34693609Y-93684581D01*
X34890940Y-93607763D01*
X34931836Y-93585903D01*
X35005817Y-93424692D01*
X34402302Y-92821177D01*
X33798787Y-93424692D01*
X30625478Y-93424692D01*
X30609990Y-93346834D01*
X30528954Y-93151197D01*
X30411309Y-92975128D01*
X30261574Y-92825393D01*
X30114588Y-92727180D01*
X33325277Y-92727180D01*
X33362121Y-92935707D01*
X33438939Y-93133038D01*
X33460799Y-93173934D01*
X33622010Y-93247915D01*
X34225525Y-92644400D01*
X34579079Y-92644400D01*
X35182594Y-93247915D01*
X35343805Y-93173934D01*
X35429021Y-92980081D01*
X35474781Y-92773327D01*
X35479327Y-92561620D01*
X35442483Y-92353093D01*
X35365665Y-92155762D01*
X35343805Y-92114866D01*
X35182594Y-92040885D01*
X34579079Y-92644400D01*
X34225525Y-92644400D01*
X33622010Y-92040885D01*
X33460799Y-92114866D01*
X33375583Y-92308719D01*
X33329823Y-92515473D01*
X33325277Y-92727180D01*
X30114588Y-92727180D01*
X30085505Y-92707748D01*
X29889868Y-92626712D01*
X29682180Y-92585400D01*
X29470424Y-92585400D01*
X29262736Y-92626712D01*
X29067099Y-92707748D01*
X28891030Y-92825393D01*
X28741295Y-92975128D01*
X28623650Y-93151197D01*
X28542614Y-93346834D01*
X28501302Y-93554522D01*
X28501302Y-93766278D01*
X28524355Y-93882174D01*
X28483574Y-93841393D01*
X28307505Y-93723748D01*
X28111868Y-93642712D01*
X27904180Y-93601400D01*
X27692424Y-93601400D01*
X27484736Y-93642712D01*
X27289099Y-93723748D01*
X27113030Y-93841393D01*
X26963295Y-93991128D01*
X26845650Y-94167197D01*
X26764614Y-94362834D01*
X26723302Y-94570522D01*
X23708302Y-94570522D01*
X23708302Y-92145675D01*
X23982994Y-92420367D01*
X24310663Y-92639309D01*
X24674749Y-92790118D01*
X25061260Y-92867000D01*
X25455344Y-92867000D01*
X25841855Y-92790118D01*
X26205941Y-92639309D01*
X26533610Y-92420367D01*
X26812269Y-92141708D01*
X26997755Y-91864108D01*
X33798787Y-91864108D01*
X34402302Y-92467623D01*
X35005817Y-91864108D01*
X34931836Y-91702897D01*
X34737983Y-91617681D01*
X34531229Y-91571921D01*
X34319522Y-91567375D01*
X34110995Y-91604219D01*
X33913664Y-91681037D01*
X33872768Y-91702897D01*
X33798787Y-91864108D01*
X26997755Y-91864108D01*
X27031211Y-91814039D01*
X27182020Y-91449953D01*
X27258902Y-91063442D01*
X27258902Y-90669358D01*
X27182020Y-90282847D01*
X27179088Y-90275767D01*
X27676712Y-90275767D01*
X27819626Y-90495316D01*
X28110774Y-90637558D01*
X28424077Y-90720267D01*
X28747497Y-90740264D01*
X29068603Y-90696780D01*
X29375056Y-90591488D01*
X29554978Y-90495316D01*
X29697892Y-90275767D01*
X29674647Y-90252522D01*
X33327302Y-90252522D01*
X33327302Y-90464278D01*
X33368614Y-90671966D01*
X33449650Y-90867603D01*
X33567295Y-91043672D01*
X33717030Y-91193407D01*
X33893099Y-91311052D01*
X34088736Y-91392088D01*
X34296424Y-91433400D01*
X34508180Y-91433400D01*
X34715868Y-91392088D01*
X34911505Y-91311052D01*
X35087574Y-91193407D01*
X35237309Y-91043672D01*
X35354954Y-90867603D01*
X35435990Y-90671966D01*
X35477302Y-90464278D01*
X35477302Y-90252522D01*
X35435990Y-90044834D01*
X35354954Y-89849197D01*
X35237309Y-89673128D01*
X35087574Y-89523393D01*
X34911505Y-89405748D01*
X34715868Y-89324712D01*
X34508180Y-89283400D01*
X34296424Y-89283400D01*
X34088736Y-89324712D01*
X33893099Y-89405748D01*
X33717030Y-89523393D01*
X33567295Y-89673128D01*
X33449650Y-89849197D01*
X33368614Y-90044834D01*
X33327302Y-90252522D01*
X29674647Y-90252522D01*
X28687302Y-89265177D01*
X27676712Y-90275767D01*
X27179088Y-90275767D01*
X27031211Y-89918761D01*
X26812269Y-89591092D01*
X26533610Y-89312433D01*
X26288410Y-89148595D01*
X27035438Y-89148595D01*
X27078922Y-89469701D01*
X27184214Y-89776154D01*
X27280386Y-89956076D01*
X27499935Y-90098990D01*
X28510525Y-89088400D01*
X28864079Y-89088400D01*
X29874669Y-90098990D01*
X30094218Y-89956076D01*
X30236460Y-89664928D01*
X30319169Y-89351625D01*
X30339166Y-89028205D01*
X30295682Y-88707099D01*
X30190390Y-88400646D01*
X30094218Y-88220724D01*
X29874669Y-88077810D01*
X28864079Y-89088400D01*
X28510525Y-89088400D01*
X27499935Y-88077810D01*
X27280386Y-88220724D01*
X27138144Y-88511872D01*
X27055435Y-88825175D01*
X27035438Y-89148595D01*
X26288410Y-89148595D01*
X26205941Y-89093491D01*
X25841855Y-88942682D01*
X25455344Y-88865800D01*
X25061260Y-88865800D01*
X24674749Y-88942682D01*
X24310663Y-89093491D01*
X23982994Y-89312433D01*
X23708302Y-89587125D01*
X23708302Y-87901033D01*
X27676712Y-87901033D01*
X28687302Y-88911623D01*
X29697892Y-87901033D01*
X29554978Y-87681484D01*
X29263830Y-87539242D01*
X28950527Y-87456533D01*
X28627107Y-87436536D01*
X28306001Y-87480020D01*
X27999548Y-87585312D01*
X27819626Y-87681484D01*
X27676712Y-87901033D01*
X23708302Y-87901033D01*
X23708302Y-87240069D01*
X57583302Y-87240069D01*
X57583302Y-87392731D01*
X57613085Y-87542459D01*
X57671506Y-87683500D01*
X57756320Y-87810434D01*
X57864268Y-87918382D01*
X57991202Y-88003196D01*
X58132243Y-88061617D01*
X58281971Y-88091400D01*
X58434633Y-88091400D01*
X58584361Y-88061617D01*
X58725402Y-88003196D01*
X58852336Y-87918382D01*
X58960284Y-87810434D01*
X59045098Y-87683500D01*
X59103519Y-87542459D01*
X59133302Y-87392731D01*
X59133302Y-87240069D01*
X59103519Y-87090341D01*
X59045098Y-86949300D01*
X58960284Y-86822366D01*
X58852336Y-86714418D01*
X58725402Y-86629604D01*
X58584361Y-86571183D01*
X58434633Y-86541400D01*
X58281971Y-86541400D01*
X58132243Y-86571183D01*
X57991202Y-86629604D01*
X57864268Y-86714418D01*
X57756320Y-86822366D01*
X57671506Y-86949300D01*
X57613085Y-87090341D01*
X57583302Y-87240069D01*
X23708302Y-87240069D01*
X23708302Y-84890069D01*
X77433302Y-84890069D01*
X77433302Y-85042731D01*
X77463085Y-85192459D01*
X77521506Y-85333500D01*
X77606320Y-85460434D01*
X77714268Y-85568382D01*
X77841202Y-85653196D01*
X77982243Y-85711617D01*
X78131971Y-85741400D01*
X78284633Y-85741400D01*
X78434361Y-85711617D01*
X78575402Y-85653196D01*
X78702336Y-85568382D01*
X78810284Y-85460434D01*
X78895098Y-85333500D01*
X78953519Y-85192459D01*
X78983302Y-85042731D01*
X78983302Y-84890069D01*
X78953519Y-84740341D01*
X78895098Y-84599300D01*
X78810284Y-84472366D01*
X78702336Y-84364418D01*
X78575402Y-84279604D01*
X78434361Y-84221183D01*
X78284633Y-84191400D01*
X78131971Y-84191400D01*
X77982243Y-84221183D01*
X77841202Y-84279604D01*
X77714268Y-84364418D01*
X77606320Y-84472366D01*
X77521506Y-84599300D01*
X77463085Y-84740341D01*
X77433302Y-84890069D01*
X23708302Y-84890069D01*
X23708302Y-81990069D01*
X60633302Y-81990069D01*
X60633302Y-82142731D01*
X60663085Y-82292459D01*
X60721506Y-82433500D01*
X60806320Y-82560434D01*
X60914268Y-82668382D01*
X61041202Y-82753196D01*
X61182243Y-82811617D01*
X61331971Y-82841400D01*
X61484633Y-82841400D01*
X61634361Y-82811617D01*
X61775402Y-82753196D01*
X61902336Y-82668382D01*
X62010284Y-82560434D01*
X62095098Y-82433500D01*
X62153519Y-82292459D01*
X62183302Y-82142731D01*
X62183302Y-81990069D01*
X62153519Y-81840341D01*
X62095098Y-81699300D01*
X62048941Y-81630220D01*
X76383302Y-81630220D01*
X76383302Y-81802580D01*
X76416928Y-81971628D01*
X76482887Y-82130868D01*
X76578645Y-82274180D01*
X76700522Y-82396057D01*
X76843834Y-82491815D01*
X77003074Y-82557774D01*
X77172122Y-82591400D01*
X77344482Y-82591400D01*
X77513530Y-82557774D01*
X77672770Y-82491815D01*
X77816082Y-82396057D01*
X77937959Y-82274180D01*
X78033717Y-82130868D01*
X78099676Y-81971628D01*
X78133302Y-81802580D01*
X78133302Y-81630220D01*
X78099676Y-81461172D01*
X78033717Y-81301932D01*
X77937959Y-81158620D01*
X77816082Y-81036743D01*
X77672770Y-80940985D01*
X77513530Y-80875026D01*
X77344482Y-80841400D01*
X77172122Y-80841400D01*
X77003074Y-80875026D01*
X76843834Y-80940985D01*
X76700522Y-81036743D01*
X76578645Y-81158620D01*
X76482887Y-81301932D01*
X76416928Y-81461172D01*
X76383302Y-81630220D01*
X62048941Y-81630220D01*
X62010284Y-81572366D01*
X61902336Y-81464418D01*
X61775402Y-81379604D01*
X61634361Y-81321183D01*
X61484633Y-81291400D01*
X61331971Y-81291400D01*
X61182243Y-81321183D01*
X61041202Y-81379604D01*
X60914268Y-81464418D01*
X60806320Y-81572366D01*
X60721506Y-81699300D01*
X60663085Y-81840341D01*
X60633302Y-81990069D01*
X23708302Y-81990069D01*
X23708302Y-80614220D01*
X81463302Y-80614220D01*
X81463302Y-80786580D01*
X81496928Y-80955628D01*
X81562887Y-81114868D01*
X81658645Y-81258180D01*
X81780522Y-81380057D01*
X81923834Y-81475815D01*
X82083074Y-81541774D01*
X82252122Y-81575400D01*
X82424482Y-81575400D01*
X82593530Y-81541774D01*
X82752770Y-81475815D01*
X82896082Y-81380057D01*
X83017959Y-81258180D01*
X83113717Y-81114868D01*
X83179676Y-80955628D01*
X83213302Y-80786580D01*
X83213302Y-80614220D01*
X83179676Y-80445172D01*
X83113717Y-80285932D01*
X83017959Y-80142620D01*
X82896082Y-80020743D01*
X82752770Y-79924985D01*
X82593530Y-79859026D01*
X82424482Y-79825400D01*
X82252122Y-79825400D01*
X82083074Y-79859026D01*
X81923834Y-79924985D01*
X81780522Y-80020743D01*
X81658645Y-80142620D01*
X81562887Y-80285932D01*
X81496928Y-80445172D01*
X81463302Y-80614220D01*
X23708302Y-80614220D01*
X23708302Y-79598220D01*
X76383302Y-79598220D01*
X76383302Y-79770580D01*
X76416928Y-79939628D01*
X76482887Y-80098868D01*
X76578645Y-80242180D01*
X76700522Y-80364057D01*
X76843834Y-80459815D01*
X77003074Y-80525774D01*
X77172122Y-80559400D01*
X77344482Y-80559400D01*
X77513530Y-80525774D01*
X77672770Y-80459815D01*
X77816082Y-80364057D01*
X77937959Y-80242180D01*
X78033717Y-80098868D01*
X78099676Y-79939628D01*
X78133302Y-79770580D01*
X78133302Y-79598220D01*
X78099676Y-79429172D01*
X78033717Y-79269932D01*
X77937959Y-79126620D01*
X77816082Y-79004743D01*
X77672770Y-78908985D01*
X77513530Y-78843026D01*
X77344482Y-78809400D01*
X77172122Y-78809400D01*
X77003074Y-78843026D01*
X76843834Y-78908985D01*
X76700522Y-79004743D01*
X76578645Y-79126620D01*
X76482887Y-79269932D01*
X76416928Y-79429172D01*
X76383302Y-79598220D01*
X23708302Y-79598220D01*
X23708302Y-77303006D01*
X23723106Y-77338746D01*
X24097931Y-77899710D01*
X24574992Y-78376771D01*
X25135956Y-78751596D01*
X25759266Y-79009779D01*
X26420969Y-79141400D01*
X27095635Y-79141400D01*
X27757338Y-79009779D01*
X28380648Y-78751596D01*
X28382933Y-78750069D01*
X80293302Y-78750069D01*
X80293302Y-78902731D01*
X80323085Y-79052459D01*
X80381506Y-79193500D01*
X80466320Y-79320434D01*
X80574268Y-79428382D01*
X80701202Y-79513196D01*
X80842243Y-79571617D01*
X80991971Y-79601400D01*
X81144633Y-79601400D01*
X81294361Y-79571617D01*
X81435402Y-79513196D01*
X81562336Y-79428382D01*
X81670284Y-79320434D01*
X81755098Y-79193500D01*
X81813519Y-79052459D01*
X81843302Y-78902731D01*
X81843302Y-78750069D01*
X81813519Y-78600341D01*
X81755098Y-78459300D01*
X81670284Y-78332366D01*
X81562336Y-78224418D01*
X81435402Y-78139604D01*
X81294361Y-78081183D01*
X81144633Y-78051400D01*
X80991971Y-78051400D01*
X80842243Y-78081183D01*
X80701202Y-78139604D01*
X80574268Y-78224418D01*
X80466320Y-78332366D01*
X80381506Y-78459300D01*
X80323085Y-78600341D01*
X80293302Y-78750069D01*
X28382933Y-78750069D01*
X28941612Y-78376771D01*
X29418673Y-77899710D01*
X29793498Y-77338746D01*
X30051681Y-76715436D01*
X30183302Y-76053733D01*
X30183302Y-75379067D01*
X30051681Y-74717364D01*
X29793498Y-74094054D01*
X29418673Y-73533090D01*
X28941612Y-73056029D01*
X28380648Y-72681204D01*
X28344908Y-72666400D01*
X98171696Y-72666400D01*
X98135956Y-72681204D01*
X98135956Y-72681204D01*
G37*
X98135956Y-72681204D02*
X97574992Y-73056029D01*
X97097931Y-73533090D01*
X96723106Y-74094054D01*
X96464923Y-74717364D01*
X96333302Y-75379067D01*
X96333302Y-76053733D01*
X96464923Y-76715436D01*
X96723106Y-77338746D01*
X97097931Y-77899710D01*
X97574992Y-78376771D01*
X98135956Y-78751596D01*
X98759266Y-79009779D01*
X99420969Y-79141400D01*
X100095635Y-79141400D01*
X100757338Y-79009779D01*
X101380648Y-78751596D01*
X101941612Y-78376771D01*
X102418673Y-77899710D01*
X102793498Y-77338746D01*
X102808303Y-77303004D01*
X102808302Y-117129794D01*
X102793498Y-117094054D01*
X102418673Y-116533090D01*
X101941612Y-116056029D01*
X101380648Y-115681204D01*
X100757338Y-115423021D01*
X100095635Y-115291400D01*
X99420969Y-115291400D01*
X98759266Y-115423021D01*
X98135956Y-115681204D01*
X97574992Y-116056029D01*
X97097931Y-116533090D01*
X96723106Y-117094054D01*
X96464923Y-117717364D01*
X96333302Y-118379067D01*
X96333302Y-119053733D01*
X96464923Y-119715436D01*
X96723106Y-120338746D01*
X97097931Y-120899710D01*
X97574992Y-121376771D01*
X98135956Y-121751596D01*
X98171696Y-121766400D01*
X28344908Y-121766400D01*
X28380648Y-121751596D01*
X28941612Y-121376771D01*
X29418673Y-120899710D01*
X29793498Y-120338746D01*
X30051681Y-119715436D01*
X30183302Y-119053733D01*
X30183302Y-118379067D01*
X30051681Y-117717364D01*
X29793498Y-117094054D01*
X29418673Y-116533090D01*
X28941612Y-116056029D01*
X28439266Y-115720371D01*
X53033302Y-115720371D01*
X53033302Y-115912429D01*
X53070770Y-116100797D01*
X53144268Y-116278236D01*
X53250970Y-116437927D01*
X53386775Y-116573732D01*
X53546466Y-116680434D01*
X53723905Y-116753932D01*
X53912273Y-116791400D01*
X54104331Y-116791400D01*
X54292699Y-116753932D01*
X54470138Y-116680434D01*
X54629829Y-116573732D01*
X54765634Y-116437927D01*
X54872336Y-116278236D01*
X54945834Y-116100797D01*
X54983302Y-115912429D01*
X54983302Y-115720371D01*
X60033302Y-115720371D01*
X60033302Y-115912429D01*
X60070770Y-116100797D01*
X60144268Y-116278236D01*
X60250970Y-116437927D01*
X60386775Y-116573732D01*
X60546466Y-116680434D01*
X60723905Y-116753932D01*
X60912273Y-116791400D01*
X61104331Y-116791400D01*
X61292699Y-116753932D01*
X61470138Y-116680434D01*
X61629829Y-116573732D01*
X61765634Y-116437927D01*
X61872336Y-116278236D01*
X61945834Y-116100797D01*
X61983302Y-115912429D01*
X61983302Y-115720371D01*
X63533302Y-115720371D01*
X63533302Y-115912429D01*
X63570770Y-116100797D01*
X63644268Y-116278236D01*
X63750970Y-116437927D01*
X63886775Y-116573732D01*
X64046466Y-116680434D01*
X64223905Y-116753932D01*
X64412273Y-116791400D01*
X64604331Y-116791400D01*
X64792699Y-116753932D01*
X64970138Y-116680434D01*
X65129829Y-116573732D01*
X65265634Y-116437927D01*
X65372336Y-116278236D01*
X65445834Y-116100797D01*
X65483302Y-115912429D01*
X65483302Y-115720371D01*
X70533302Y-115720371D01*
X70533302Y-115912429D01*
X70570770Y-116100797D01*
X70644268Y-116278236D01*
X70750970Y-116437927D01*
X70886775Y-116573732D01*
X71046466Y-116680434D01*
X71223905Y-116753932D01*
X71412273Y-116791400D01*
X71604331Y-116791400D01*
X71792699Y-116753932D01*
X71970138Y-116680434D01*
X72129829Y-116573732D01*
X72265634Y-116437927D01*
X72372336Y-116278236D01*
X72445834Y-116100797D01*
X72483302Y-115912429D01*
X72483302Y-115720371D01*
X72445834Y-115532003D01*
X72372336Y-115354564D01*
X72265634Y-115194873D01*
X72129829Y-115059068D01*
X71970138Y-114952366D01*
X71792699Y-114878868D01*
X71604331Y-114841400D01*
X71412273Y-114841400D01*
X71223905Y-114878868D01*
X71046466Y-114952366D01*
X70886775Y-115059068D01*
X70750970Y-115194873D01*
X70644268Y-115354564D01*
X70570770Y-115532003D01*
X70533302Y-115720371D01*
X65483302Y-115720371D01*
X65445834Y-115532003D01*
X65372336Y-115354564D01*
X65265634Y-115194873D01*
X65129829Y-115059068D01*
X64970138Y-114952366D01*
X64792699Y-114878868D01*
X64604331Y-114841400D01*
X64412273Y-114841400D01*
X64223905Y-114878868D01*
X64046466Y-114952366D01*
X63886775Y-115059068D01*
X63750970Y-115194873D01*
X63644268Y-115354564D01*
X63570770Y-115532003D01*
X63533302Y-115720371D01*
X61983302Y-115720371D01*
X61945834Y-115532003D01*
X61872336Y-115354564D01*
X61765634Y-115194873D01*
X61629829Y-115059068D01*
X61470138Y-114952366D01*
X61292699Y-114878868D01*
X61104331Y-114841400D01*
X60912273Y-114841400D01*
X60723905Y-114878868D01*
X60546466Y-114952366D01*
X60386775Y-115059068D01*
X60250970Y-115194873D01*
X60144268Y-115354564D01*
X60070770Y-115532003D01*
X60033302Y-115720371D01*
X54983302Y-115720371D01*
X54945834Y-115532003D01*
X54872336Y-115354564D01*
X54765634Y-115194873D01*
X54629829Y-115059068D01*
X54470138Y-114952366D01*
X54292699Y-114878868D01*
X54104331Y-114841400D01*
X53912273Y-114841400D01*
X53723905Y-114878868D01*
X53546466Y-114952366D01*
X53386775Y-115059068D01*
X53250970Y-115194873D01*
X53144268Y-115354564D01*
X53070770Y-115532003D01*
X53033302Y-115720371D01*
X28439266Y-115720371D01*
X28380648Y-115681204D01*
X27757338Y-115423021D01*
X27095635Y-115291400D01*
X26420969Y-115291400D01*
X25759266Y-115423021D01*
X25135956Y-115681204D01*
X24574992Y-116056029D01*
X24097931Y-116533090D01*
X23723106Y-117094054D01*
X23708302Y-117129794D01*
X23708302Y-113600673D01*
X54333302Y-113600673D01*
X54333302Y-113832127D01*
X54378457Y-114059135D01*
X54467031Y-114272971D01*
X54595620Y-114465419D01*
X54759283Y-114629082D01*
X54951731Y-114757671D01*
X55165567Y-114846245D01*
X55392575Y-114891400D01*
X55624029Y-114891400D01*
X55851037Y-114846245D01*
X56064873Y-114757671D01*
X56257321Y-114629082D01*
X56420984Y-114465419D01*
X56508302Y-114334738D01*
X56595620Y-114465419D01*
X56759283Y-114629082D01*
X56951731Y-114757671D01*
X57165567Y-114846245D01*
X57392575Y-114891400D01*
X57624029Y-114891400D01*
X57851037Y-114846245D01*
X58064873Y-114757671D01*
X58257321Y-114629082D01*
X58318135Y-114568268D01*
X58833211Y-114568268D01*
X58919341Y-114739699D01*
X59130293Y-114834937D01*
X59355772Y-114887191D01*
X59587113Y-114894451D01*
X59815425Y-114856440D01*
X60031934Y-114774618D01*
X60097263Y-114739699D01*
X60183393Y-114568268D01*
X59508302Y-113893177D01*
X58833211Y-114568268D01*
X58318135Y-114568268D01*
X58420984Y-114465419D01*
X58517142Y-114321508D01*
X58656434Y-114391491D01*
X59331525Y-113716400D01*
X59685079Y-113716400D01*
X60360170Y-114391491D01*
X60531601Y-114305361D01*
X60626839Y-114094409D01*
X60679093Y-113868930D01*
X60686353Y-113637589D01*
X60680207Y-113600673D01*
X64833302Y-113600673D01*
X64833302Y-113832127D01*
X64878457Y-114059135D01*
X64967031Y-114272971D01*
X65095620Y-114465419D01*
X65259283Y-114629082D01*
X65451731Y-114757671D01*
X65665567Y-114846245D01*
X65892575Y-114891400D01*
X66124029Y-114891400D01*
X66351037Y-114846245D01*
X66564873Y-114757671D01*
X66757321Y-114629082D01*
X66920984Y-114465419D01*
X67008302Y-114334738D01*
X67095620Y-114465419D01*
X67259283Y-114629082D01*
X67451731Y-114757671D01*
X67665567Y-114846245D01*
X67892575Y-114891400D01*
X68124029Y-114891400D01*
X68351037Y-114846245D01*
X68564873Y-114757671D01*
X68757321Y-114629082D01*
X68818135Y-114568268D01*
X69333211Y-114568268D01*
X69419341Y-114739699D01*
X69630293Y-114834937D01*
X69855772Y-114887191D01*
X70087113Y-114894451D01*
X70315425Y-114856440D01*
X70531934Y-114774618D01*
X70597263Y-114739699D01*
X70683393Y-114568268D01*
X70008302Y-113893177D01*
X69333211Y-114568268D01*
X68818135Y-114568268D01*
X68920984Y-114465419D01*
X69017142Y-114321508D01*
X69156434Y-114391491D01*
X69831525Y-113716400D01*
X70185079Y-113716400D01*
X70860170Y-114391491D01*
X71031601Y-114305361D01*
X71126839Y-114094409D01*
X71179093Y-113868930D01*
X71186353Y-113637589D01*
X71148342Y-113409277D01*
X71066520Y-113192768D01*
X71031601Y-113127439D01*
X70860170Y-113041309D01*
X70185079Y-113716400D01*
X69831525Y-113716400D01*
X69156434Y-113041309D01*
X69017142Y-113111292D01*
X68920984Y-112967381D01*
X68818135Y-112864532D01*
X69333211Y-112864532D01*
X70008302Y-113539623D01*
X70683393Y-112864532D01*
X70597263Y-112693101D01*
X70436167Y-112620371D01*
X95883302Y-112620371D01*
X95883302Y-112812429D01*
X95920770Y-113000797D01*
X95994268Y-113178236D01*
X96100970Y-113337927D01*
X96236775Y-113473732D01*
X96396466Y-113580434D01*
X96573905Y-113653932D01*
X96762273Y-113691400D01*
X96954331Y-113691400D01*
X97142699Y-113653932D01*
X97320138Y-113580434D01*
X97479829Y-113473732D01*
X97615634Y-113337927D01*
X97722336Y-113178236D01*
X97795834Y-113000797D01*
X97833302Y-112812429D01*
X97833302Y-112620371D01*
X97795834Y-112432003D01*
X97722336Y-112254564D01*
X97615634Y-112094873D01*
X97479829Y-111959068D01*
X97320138Y-111852366D01*
X97142699Y-111778868D01*
X96954331Y-111741400D01*
X96762273Y-111741400D01*
X96573905Y-111778868D01*
X96396466Y-111852366D01*
X96236775Y-111959068D01*
X96100970Y-112094873D01*
X95994268Y-112254564D01*
X95920770Y-112432003D01*
X95883302Y-112620371D01*
X70436167Y-112620371D01*
X70386311Y-112597863D01*
X70160832Y-112545609D01*
X69929491Y-112538349D01*
X69701179Y-112576360D01*
X69484670Y-112658182D01*
X69419341Y-112693101D01*
X69333211Y-112864532D01*
X68818135Y-112864532D01*
X68757321Y-112803718D01*
X68564873Y-112675129D01*
X68351037Y-112586555D01*
X68124029Y-112541400D01*
X67892575Y-112541400D01*
X67733312Y-112573080D01*
X67733312Y-111100673D01*
X93583302Y-111100673D01*
X93583302Y-111332127D01*
X93628457Y-111559135D01*
X93717031Y-111772971D01*
X93845620Y-111965419D01*
X94009283Y-112129082D01*
X94201731Y-112257671D01*
X94415567Y-112346245D01*
X94642575Y-112391400D01*
X94874029Y-112391400D01*
X95101037Y-112346245D01*
X95314873Y-112257671D01*
X95507321Y-112129082D01*
X95670984Y-111965419D01*
X95799573Y-111772971D01*
X95888147Y-111559135D01*
X95933302Y-111332127D01*
X95933302Y-111100673D01*
X95888147Y-110873665D01*
X95799573Y-110659829D01*
X95670984Y-110467381D01*
X95507321Y-110303718D01*
X95363410Y-110207560D01*
X95433393Y-110068268D01*
X94758302Y-109393177D01*
X94083211Y-110068268D01*
X94153194Y-110207560D01*
X94009283Y-110303718D01*
X93845620Y-110467381D01*
X93717031Y-110659829D01*
X93628457Y-110873665D01*
X93583302Y-111100673D01*
X67733312Y-111100673D01*
X67733312Y-109295211D01*
X93580251Y-109295211D01*
X93618262Y-109523523D01*
X93700084Y-109740032D01*
X93735003Y-109805361D01*
X93906434Y-109891491D01*
X94581525Y-109216400D01*
X94935079Y-109216400D01*
X95610170Y-109891491D01*
X95781601Y-109805361D01*
X95876839Y-109594409D01*
X95929093Y-109368930D01*
X95936353Y-109137589D01*
X95898342Y-108909277D01*
X95816520Y-108692768D01*
X95781601Y-108627439D01*
X95610170Y-108541309D01*
X94935079Y-109216400D01*
X94581525Y-109216400D01*
X93906434Y-108541309D01*
X93735003Y-108627439D01*
X93639765Y-108838391D01*
X93587511Y-109063870D01*
X93580251Y-109295211D01*
X67733312Y-109295211D01*
X67733312Y-106540069D01*
X78683302Y-106540069D01*
X78683302Y-106692731D01*
X78713085Y-106842459D01*
X78771506Y-106983500D01*
X78856320Y-107110434D01*
X78964268Y-107218382D01*
X79091202Y-107303196D01*
X79232243Y-107361617D01*
X79381971Y-107391400D01*
X79534633Y-107391400D01*
X79684361Y-107361617D01*
X79825402Y-107303196D01*
X79952336Y-107218382D01*
X80004318Y-107166400D01*
X80293712Y-107166400D01*
X80263085Y-107240341D01*
X80233302Y-107390069D01*
X80233302Y-107542731D01*
X80263085Y-107692459D01*
X80321506Y-107833500D01*
X80360193Y-107891400D01*
X80321506Y-107949300D01*
X80263085Y-108090341D01*
X80233302Y-108240069D01*
X80233302Y-108392731D01*
X80263085Y-108542459D01*
X80321506Y-108683500D01*
X80406320Y-108810434D01*
X80514268Y-108918382D01*
X80641202Y-109003196D01*
X80782243Y-109061617D01*
X80931971Y-109091400D01*
X81084633Y-109091400D01*
X81234361Y-109061617D01*
X81375402Y-109003196D01*
X81502336Y-108918382D01*
X81610284Y-108810434D01*
X81695098Y-108683500D01*
X81753519Y-108542459D01*
X81783302Y-108392731D01*
X81783302Y-108364532D01*
X94083211Y-108364532D01*
X94758302Y-109039623D01*
X95433393Y-108364532D01*
X95347263Y-108193101D01*
X95136311Y-108097863D01*
X94910832Y-108045609D01*
X94679491Y-108038349D01*
X94451179Y-108076360D01*
X94234670Y-108158182D01*
X94169341Y-108193101D01*
X94083211Y-108364532D01*
X81783302Y-108364532D01*
X81783302Y-108240069D01*
X81753519Y-108090341D01*
X81695098Y-107949300D01*
X81656411Y-107891400D01*
X81695098Y-107833500D01*
X81753519Y-107692459D01*
X81767858Y-107620371D01*
X95883302Y-107620371D01*
X95883302Y-107812429D01*
X95920770Y-108000797D01*
X95994268Y-108178236D01*
X96100970Y-108337927D01*
X96236775Y-108473732D01*
X96396466Y-108580434D01*
X96573905Y-108653932D01*
X96762273Y-108691400D01*
X96954331Y-108691400D01*
X97142699Y-108653932D01*
X97320138Y-108580434D01*
X97479829Y-108473732D01*
X97615634Y-108337927D01*
X97722336Y-108178236D01*
X97795834Y-108000797D01*
X97833302Y-107812429D01*
X97833302Y-107620371D01*
X97795834Y-107432003D01*
X97722336Y-107254564D01*
X97615634Y-107094873D01*
X97479829Y-106959068D01*
X97320138Y-106852366D01*
X97142699Y-106778868D01*
X96954331Y-106741400D01*
X96762273Y-106741400D01*
X96573905Y-106778868D01*
X96396466Y-106852366D01*
X96236775Y-106959068D01*
X96100970Y-107094873D01*
X95994268Y-107254564D01*
X95920770Y-107432003D01*
X95883302Y-107620371D01*
X81767858Y-107620371D01*
X81783302Y-107542731D01*
X81783302Y-107390069D01*
X81753519Y-107240341D01*
X81722892Y-107166400D01*
X83731294Y-107166400D01*
X83758302Y-107169060D01*
X83785310Y-107166400D01*
X83785320Y-107166400D01*
X83866121Y-107158442D01*
X83969796Y-107126992D01*
X84065344Y-107075921D01*
X84149092Y-107007190D01*
X84166315Y-106986204D01*
X85358302Y-105794217D01*
X86533889Y-106969804D01*
X86551112Y-106990790D01*
X86634860Y-107059521D01*
X86730408Y-107110592D01*
X86834083Y-107142042D01*
X86914884Y-107150000D01*
X86914891Y-107150000D01*
X86941902Y-107152660D01*
X86968913Y-107150000D01*
X89953984Y-107150000D01*
X90005966Y-107201982D01*
X90132900Y-107286796D01*
X90273941Y-107345217D01*
X90423669Y-107375000D01*
X90576331Y-107375000D01*
X90726059Y-107345217D01*
X90867100Y-107286796D01*
X90994034Y-107201982D01*
X91101982Y-107094034D01*
X91186796Y-106967100D01*
X91245217Y-106826059D01*
X91275000Y-106676331D01*
X91275000Y-106523669D01*
X91245217Y-106373941D01*
X91186796Y-106232900D01*
X91101982Y-106105966D01*
X90994034Y-105998018D01*
X90867100Y-105913204D01*
X90726059Y-105854783D01*
X90576331Y-105825000D01*
X90423669Y-105825000D01*
X90273941Y-105854783D01*
X90132900Y-105913204D01*
X90005966Y-105998018D01*
X89953984Y-106050000D01*
X87169719Y-106050000D01*
X85908302Y-104788583D01*
X85908302Y-104658865D01*
X95222613Y-104658865D01*
X95405253Y-104912224D01*
X95752616Y-105087414D01*
X96127483Y-105191470D01*
X96515447Y-105220395D01*
X96901599Y-105173076D01*
X97271100Y-105051331D01*
X97531351Y-104912224D01*
X97713991Y-104658865D01*
X96468302Y-103413177D01*
X95222613Y-104658865D01*
X85908302Y-104658865D01*
X85908302Y-103283545D01*
X94484307Y-103283545D01*
X94531626Y-103669697D01*
X94653371Y-104039198D01*
X94792478Y-104299449D01*
X95045837Y-104482089D01*
X96291525Y-103236400D01*
X96645079Y-103236400D01*
X97890767Y-104482089D01*
X98144126Y-104299449D01*
X98319316Y-103952086D01*
X98423372Y-103577219D01*
X98452297Y-103189255D01*
X98404978Y-102803103D01*
X98283233Y-102433602D01*
X98144126Y-102173351D01*
X97890767Y-101990711D01*
X96645079Y-103236400D01*
X96291525Y-103236400D01*
X95045837Y-101990711D01*
X94792478Y-102173351D01*
X94617288Y-102520714D01*
X94513232Y-102895581D01*
X94484307Y-103283545D01*
X85908302Y-103283545D01*
X85908302Y-101813935D01*
X95222613Y-101813935D01*
X96468302Y-103059623D01*
X97713991Y-101813935D01*
X97531351Y-101560576D01*
X97183988Y-101385386D01*
X96809121Y-101281330D01*
X96421157Y-101252405D01*
X96035005Y-101299724D01*
X95665504Y-101421469D01*
X95405253Y-101560576D01*
X95222613Y-101813935D01*
X85908302Y-101813935D01*
X85908302Y-98040069D01*
X87983302Y-98040069D01*
X87983302Y-98192731D01*
X88013085Y-98342459D01*
X88071506Y-98483500D01*
X88156320Y-98610434D01*
X88264268Y-98718382D01*
X88391202Y-98803196D01*
X88532243Y-98861617D01*
X88681971Y-98891400D01*
X88834633Y-98891400D01*
X88984361Y-98861617D01*
X89125402Y-98803196D01*
X89252336Y-98718382D01*
X89360284Y-98610434D01*
X89373002Y-98591400D01*
X89560268Y-98591400D01*
X89583600Y-98593698D01*
X89606932Y-98591400D01*
X89676716Y-98584527D01*
X89766254Y-98557366D01*
X89848773Y-98513259D01*
X89921101Y-98453901D01*
X89935984Y-98435766D01*
X90016153Y-98355597D01*
X90633302Y-98355597D01*
X90633302Y-98577203D01*
X90676535Y-98794550D01*
X90761340Y-98999287D01*
X90884458Y-99183545D01*
X91041157Y-99340244D01*
X91225415Y-99463362D01*
X91430152Y-99548167D01*
X91647499Y-99591400D01*
X91869105Y-99591400D01*
X92086452Y-99548167D01*
X92291189Y-99463362D01*
X92475447Y-99340244D01*
X92632146Y-99183545D01*
X92755264Y-98999287D01*
X92758302Y-98991953D01*
X92761340Y-98999287D01*
X92884458Y-99183545D01*
X93041157Y-99340244D01*
X93225415Y-99463362D01*
X93430152Y-99548167D01*
X93647499Y-99591400D01*
X93869105Y-99591400D01*
X94086452Y-99548167D01*
X94291189Y-99463362D01*
X94475447Y-99340244D01*
X94632146Y-99183545D01*
X94755264Y-98999287D01*
X94840069Y-98794550D01*
X94883302Y-98577203D01*
X94883302Y-98355597D01*
X94840069Y-98138250D01*
X94755264Y-97933513D01*
X94632146Y-97749255D01*
X94475447Y-97592556D01*
X94291189Y-97469438D01*
X94086452Y-97384633D01*
X93869105Y-97341400D01*
X93647499Y-97341400D01*
X93430152Y-97384633D01*
X93225415Y-97469438D01*
X93041157Y-97592556D01*
X92884458Y-97749255D01*
X92761340Y-97933513D01*
X92758302Y-97940847D01*
X92755264Y-97933513D01*
X92632146Y-97749255D01*
X92475447Y-97592556D01*
X92291189Y-97469438D01*
X92086452Y-97384633D01*
X91869105Y-97341400D01*
X91647499Y-97341400D01*
X91430152Y-97384633D01*
X91225415Y-97469438D01*
X91041157Y-97592556D01*
X90884458Y-97749255D01*
X90761340Y-97933513D01*
X90676535Y-98138250D01*
X90633302Y-98355597D01*
X90016153Y-98355597D01*
X91354797Y-97016954D01*
X91430152Y-97048167D01*
X91647499Y-97091400D01*
X91869105Y-97091400D01*
X92086452Y-97048167D01*
X92291189Y-96963362D01*
X92475447Y-96840244D01*
X92533199Y-96782492D01*
X93118986Y-96782492D01*
X93199046Y-96948812D01*
X93401451Y-97039041D01*
X93617570Y-97088049D01*
X93839097Y-97093952D01*
X94057518Y-97056524D01*
X94264442Y-96977203D01*
X94317558Y-96948812D01*
X94397618Y-96782492D01*
X93758302Y-96143177D01*
X93118986Y-96782492D01*
X92533199Y-96782492D01*
X92632146Y-96683545D01*
X92755264Y-96499287D01*
X92758116Y-96492402D01*
X92775890Y-96525656D01*
X92942210Y-96605716D01*
X93581525Y-95966400D01*
X93935079Y-95966400D01*
X94574394Y-96605716D01*
X94740714Y-96525656D01*
X94830943Y-96323251D01*
X94879951Y-96107132D01*
X94885854Y-95885605D01*
X94848426Y-95667184D01*
X94769105Y-95460260D01*
X94740714Y-95407144D01*
X94574394Y-95327084D01*
X93935079Y-95966400D01*
X93581525Y-95966400D01*
X92942210Y-95327084D01*
X92775890Y-95407144D01*
X92759537Y-95443828D01*
X92755264Y-95433513D01*
X92632146Y-95249255D01*
X92533199Y-95150308D01*
X93118986Y-95150308D01*
X93758302Y-95789623D01*
X94397618Y-95150308D01*
X94317558Y-94983988D01*
X94115153Y-94893759D01*
X93899034Y-94844751D01*
X93677507Y-94838848D01*
X93459086Y-94876276D01*
X93252162Y-94955597D01*
X93199046Y-94983988D01*
X93118986Y-95150308D01*
X92533199Y-95150308D01*
X92475447Y-95092556D01*
X92291189Y-94969438D01*
X92086452Y-94884633D01*
X91869105Y-94841400D01*
X91647499Y-94841400D01*
X91430152Y-94884633D01*
X91225415Y-94969438D01*
X91041157Y-95092556D01*
X90884458Y-95249255D01*
X90761340Y-95433513D01*
X90676535Y-95638250D01*
X90633302Y-95855597D01*
X90633302Y-96077203D01*
X90676535Y-96294550D01*
X90693278Y-96334971D01*
X89386850Y-97641400D01*
X89373002Y-97641400D01*
X89360284Y-97622366D01*
X89252336Y-97514418D01*
X89125402Y-97429604D01*
X88984361Y-97371183D01*
X88834633Y-97341400D01*
X88681971Y-97341400D01*
X88532243Y-97371183D01*
X88391202Y-97429604D01*
X88264268Y-97514418D01*
X88156320Y-97622366D01*
X88071506Y-97749300D01*
X88013085Y-97890341D01*
X87983302Y-98040069D01*
X85908302Y-98040069D01*
X85908302Y-96362416D01*
X85960284Y-96310434D01*
X86045098Y-96183500D01*
X86103519Y-96042459D01*
X86133302Y-95892731D01*
X86133302Y-95740069D01*
X86103519Y-95590341D01*
X86045098Y-95449300D01*
X85960284Y-95322366D01*
X85852336Y-95214418D01*
X85725402Y-95129604D01*
X85584361Y-95071183D01*
X85434633Y-95041400D01*
X85281971Y-95041400D01*
X85132243Y-95071183D01*
X84991202Y-95129604D01*
X84864268Y-95214418D01*
X84756320Y-95322366D01*
X84671506Y-95449300D01*
X84613085Y-95590341D01*
X84583302Y-95740069D01*
X84583302Y-95892731D01*
X84613085Y-96042459D01*
X84671506Y-96183500D01*
X84756320Y-96310434D01*
X84808302Y-96362416D01*
X84808303Y-98689373D01*
X84808302Y-98689383D01*
X84808303Y-104788582D01*
X83530485Y-106066400D01*
X80004318Y-106066400D01*
X79952336Y-106014418D01*
X79825402Y-105929604D01*
X79684361Y-105871183D01*
X79534633Y-105841400D01*
X79381971Y-105841400D01*
X79232243Y-105871183D01*
X79091202Y-105929604D01*
X78964268Y-106014418D01*
X78856320Y-106122366D01*
X78771506Y-106249300D01*
X78713085Y-106390341D01*
X78683302Y-106540069D01*
X67733312Y-106540069D01*
X67733312Y-102390069D01*
X75333302Y-102390069D01*
X75333302Y-102542731D01*
X75363085Y-102692459D01*
X75421506Y-102833500D01*
X75506320Y-102960434D01*
X75614268Y-103068382D01*
X75741202Y-103153196D01*
X75882243Y-103211617D01*
X76031971Y-103241400D01*
X76184633Y-103241400D01*
X76334361Y-103211617D01*
X76475402Y-103153196D01*
X76602336Y-103068382D01*
X76710284Y-102960434D01*
X76795098Y-102833500D01*
X76853519Y-102692459D01*
X76883302Y-102542731D01*
X76883302Y-102390069D01*
X76853519Y-102240341D01*
X76795098Y-102099300D01*
X76710284Y-101972366D01*
X76602336Y-101864418D01*
X76475402Y-101779604D01*
X76334361Y-101721183D01*
X76184633Y-101691400D01*
X76031971Y-101691400D01*
X75882243Y-101721183D01*
X75741202Y-101779604D01*
X75614268Y-101864418D01*
X75506320Y-101972366D01*
X75421506Y-102099300D01*
X75363085Y-102240341D01*
X75333302Y-102390069D01*
X67733312Y-102390069D01*
X67733312Y-92618865D01*
X95222613Y-92618865D01*
X95405253Y-92872224D01*
X95752616Y-93047414D01*
X96127483Y-93151470D01*
X96515447Y-93180395D01*
X96901599Y-93133076D01*
X97271100Y-93011331D01*
X97531351Y-92872224D01*
X97713991Y-92618865D01*
X96468302Y-91373177D01*
X95222613Y-92618865D01*
X67733312Y-92618865D01*
X67733312Y-90540069D01*
X72683302Y-90540069D01*
X72683302Y-90692731D01*
X72713085Y-90842459D01*
X72771506Y-90983500D01*
X72856320Y-91110434D01*
X72964268Y-91218382D01*
X73091202Y-91303196D01*
X73232243Y-91361617D01*
X73381971Y-91391400D01*
X73534633Y-91391400D01*
X73684361Y-91361617D01*
X73825402Y-91303196D01*
X73914676Y-91243545D01*
X94484307Y-91243545D01*
X94531626Y-91629697D01*
X94653371Y-91999198D01*
X94792478Y-92259449D01*
X95045837Y-92442089D01*
X96291525Y-91196400D01*
X96645079Y-91196400D01*
X97890767Y-92442089D01*
X98144126Y-92259449D01*
X98319316Y-91912086D01*
X98423372Y-91537219D01*
X98452297Y-91149255D01*
X98404978Y-90763103D01*
X98283233Y-90393602D01*
X98144126Y-90133351D01*
X97890767Y-89950711D01*
X96645079Y-91196400D01*
X96291525Y-91196400D01*
X95045837Y-89950711D01*
X94792478Y-90133351D01*
X94617288Y-90480714D01*
X94513232Y-90855581D01*
X94484307Y-91243545D01*
X73914676Y-91243545D01*
X73952336Y-91218382D01*
X74060284Y-91110434D01*
X74073002Y-91091400D01*
X75734970Y-91091400D01*
X75758302Y-91093698D01*
X75781634Y-91091400D01*
X75851418Y-91084527D01*
X75940956Y-91057366D01*
X76023475Y-91013259D01*
X76095803Y-90953901D01*
X76110686Y-90935766D01*
X77272517Y-89773935D01*
X95222613Y-89773935D01*
X96468302Y-91019623D01*
X97713991Y-89773935D01*
X97531351Y-89520576D01*
X97183988Y-89345386D01*
X96809121Y-89241330D01*
X96421157Y-89212405D01*
X96035005Y-89259724D01*
X95665504Y-89381469D01*
X95405253Y-89520576D01*
X95222613Y-89773935D01*
X77272517Y-89773935D01*
X77459519Y-89586934D01*
X77481971Y-89591400D01*
X77634633Y-89591400D01*
X77784361Y-89561617D01*
X77925402Y-89503196D01*
X78052336Y-89418382D01*
X78160284Y-89310434D01*
X78245098Y-89183500D01*
X78303519Y-89042459D01*
X78333302Y-88892731D01*
X78333302Y-88740069D01*
X78303519Y-88590341D01*
X78245098Y-88449300D01*
X78160284Y-88322366D01*
X78052336Y-88214418D01*
X77925402Y-88129604D01*
X77784361Y-88071183D01*
X77634633Y-88041400D01*
X77481971Y-88041400D01*
X77332243Y-88071183D01*
X77191202Y-88129604D01*
X77064268Y-88214418D01*
X76956320Y-88322366D01*
X76871506Y-88449300D01*
X76813085Y-88590341D01*
X76783302Y-88740069D01*
X76783302Y-88892731D01*
X76787768Y-88915183D01*
X75561552Y-90141400D01*
X74073002Y-90141400D01*
X74060284Y-90122366D01*
X73952336Y-90014418D01*
X73825402Y-89929604D01*
X73684361Y-89871183D01*
X73534633Y-89841400D01*
X73381971Y-89841400D01*
X73232243Y-89871183D01*
X73091202Y-89929604D01*
X72964268Y-90014418D01*
X72856320Y-90122366D01*
X72771506Y-90249300D01*
X72713085Y-90390341D01*
X72683302Y-90540069D01*
X67733312Y-90540069D01*
X67733312Y-89931110D01*
X67752346Y-89918392D01*
X67860294Y-89810444D01*
X67945108Y-89683510D01*
X68003529Y-89542469D01*
X68033312Y-89392741D01*
X68033312Y-89240079D01*
X68003529Y-89090351D01*
X67945108Y-88949310D01*
X67860294Y-88822376D01*
X67752346Y-88714428D01*
X67625412Y-88629614D01*
X67484371Y-88571193D01*
X67334643Y-88541410D01*
X67181981Y-88541410D01*
X67032253Y-88571193D01*
X66891212Y-88629614D01*
X66764278Y-88714428D01*
X66656330Y-88822376D01*
X66571516Y-88949310D01*
X66513095Y-89090351D01*
X66483312Y-89240079D01*
X66483312Y-89392741D01*
X66492991Y-89441400D01*
X66381971Y-89441400D01*
X66232243Y-89471183D01*
X66091202Y-89529604D01*
X65964268Y-89614418D01*
X65856320Y-89722366D01*
X65771506Y-89849300D01*
X65713085Y-89990341D01*
X65683302Y-90140069D01*
X65683302Y-90292731D01*
X65713085Y-90442459D01*
X65771506Y-90583500D01*
X65856320Y-90710434D01*
X65964268Y-90818382D01*
X66091202Y-90903196D01*
X66232243Y-90961617D01*
X66381971Y-90991400D01*
X66383303Y-90991400D01*
X66383302Y-112599920D01*
X66351037Y-112586555D01*
X66124029Y-112541400D01*
X65892575Y-112541400D01*
X65665567Y-112586555D01*
X65451731Y-112675129D01*
X65259283Y-112803718D01*
X65095620Y-112967381D01*
X64967031Y-113159829D01*
X64878457Y-113373665D01*
X64833302Y-113600673D01*
X60680207Y-113600673D01*
X60648342Y-113409277D01*
X60566520Y-113192768D01*
X60531601Y-113127439D01*
X60360170Y-113041309D01*
X59685079Y-113716400D01*
X59331525Y-113716400D01*
X58656434Y-113041309D01*
X58517142Y-113111292D01*
X58420984Y-112967381D01*
X58318135Y-112864532D01*
X58833211Y-112864532D01*
X59508302Y-113539623D01*
X60183393Y-112864532D01*
X60097263Y-112693101D01*
X59886311Y-112597863D01*
X59660832Y-112545609D01*
X59429491Y-112538349D01*
X59201179Y-112576360D01*
X58984670Y-112658182D01*
X58919341Y-112693101D01*
X58833211Y-112864532D01*
X58318135Y-112864532D01*
X58257321Y-112803718D01*
X58064873Y-112675129D01*
X57851037Y-112586555D01*
X57624029Y-112541400D01*
X57392575Y-112541400D01*
X57361278Y-112547625D01*
X57333302Y-112519650D01*
X57333302Y-104413151D01*
X57610686Y-104135768D01*
X57610695Y-104135757D01*
X57759518Y-103986934D01*
X57781971Y-103991400D01*
X57934633Y-103991400D01*
X58084361Y-103961617D01*
X58225402Y-103903196D01*
X58352336Y-103818382D01*
X58460284Y-103710434D01*
X58545098Y-103583500D01*
X58603519Y-103442459D01*
X58633302Y-103292731D01*
X58633302Y-103140069D01*
X58603519Y-102990341D01*
X58545098Y-102849300D01*
X58460284Y-102722366D01*
X58404318Y-102666400D01*
X58460284Y-102610434D01*
X58545098Y-102483500D01*
X58603519Y-102342459D01*
X58613940Y-102290069D01*
X63433302Y-102290069D01*
X63433302Y-102442731D01*
X63463085Y-102592459D01*
X63521506Y-102733500D01*
X63606320Y-102860434D01*
X63714268Y-102968382D01*
X63841202Y-103053196D01*
X63982243Y-103111617D01*
X64131971Y-103141400D01*
X64284633Y-103141400D01*
X64434361Y-103111617D01*
X64575402Y-103053196D01*
X64702336Y-102968382D01*
X64810284Y-102860434D01*
X64895098Y-102733500D01*
X64953519Y-102592459D01*
X64983302Y-102442731D01*
X64983302Y-102290069D01*
X64953519Y-102140341D01*
X64895098Y-101999300D01*
X64810284Y-101872366D01*
X64702336Y-101764418D01*
X64575402Y-101679604D01*
X64434361Y-101621183D01*
X64284633Y-101591400D01*
X64131971Y-101591400D01*
X63982243Y-101621183D01*
X63841202Y-101679604D01*
X63714268Y-101764418D01*
X63606320Y-101872366D01*
X63521506Y-101999300D01*
X63463085Y-102140341D01*
X63433302Y-102290069D01*
X58613940Y-102290069D01*
X58633302Y-102192731D01*
X58633302Y-102040069D01*
X58603519Y-101890341D01*
X58545098Y-101749300D01*
X58460284Y-101622366D01*
X58352336Y-101514418D01*
X58225402Y-101429604D01*
X58084361Y-101371183D01*
X57934633Y-101341400D01*
X57781971Y-101341400D01*
X57632243Y-101371183D01*
X57491202Y-101429604D01*
X57364268Y-101514418D01*
X57256320Y-101622366D01*
X57171506Y-101749300D01*
X57113085Y-101890341D01*
X57083302Y-102040069D01*
X57083302Y-102192731D01*
X57087768Y-102215183D01*
X56538929Y-102764023D01*
X56538924Y-102764027D01*
X56138931Y-103164021D01*
X56120802Y-103178899D01*
X56061444Y-103251227D01*
X56044170Y-103283545D01*
X56017337Y-103333746D01*
X55990175Y-103423284D01*
X55981004Y-103516400D01*
X55983303Y-103539742D01*
X55983302Y-112619649D01*
X55967964Y-112634988D01*
X55851037Y-112586555D01*
X55624029Y-112541400D01*
X55392575Y-112541400D01*
X55165567Y-112586555D01*
X54951731Y-112675129D01*
X54759283Y-112803718D01*
X54595620Y-112967381D01*
X54467031Y-113159829D01*
X54378457Y-113373665D01*
X54333302Y-113600673D01*
X23708302Y-113600673D01*
X23708302Y-106531767D01*
X27676712Y-106531767D01*
X27819626Y-106751316D01*
X28110774Y-106893558D01*
X28424077Y-106976267D01*
X28747497Y-106996264D01*
X29068603Y-106952780D01*
X29375056Y-106847488D01*
X29554978Y-106751316D01*
X29697892Y-106531767D01*
X28687302Y-105521177D01*
X27676712Y-106531767D01*
X23708302Y-106531767D01*
X23708302Y-104845675D01*
X23982994Y-105120367D01*
X24310663Y-105339309D01*
X24674749Y-105490118D01*
X25061260Y-105567000D01*
X25455344Y-105567000D01*
X25841855Y-105490118D01*
X26048326Y-105404595D01*
X27035438Y-105404595D01*
X27078922Y-105725701D01*
X27184214Y-106032154D01*
X27280386Y-106212076D01*
X27499935Y-106354990D01*
X28510525Y-105344400D01*
X28864079Y-105344400D01*
X29874669Y-106354990D01*
X30094218Y-106212076D01*
X30236460Y-105920928D01*
X30319169Y-105607625D01*
X30339166Y-105284205D01*
X30295682Y-104963099D01*
X30258436Y-104854692D01*
X33798787Y-104854692D01*
X33872768Y-105015903D01*
X34066621Y-105101119D01*
X34273375Y-105146879D01*
X34485082Y-105151425D01*
X34693609Y-105114581D01*
X34890940Y-105037763D01*
X34931836Y-105015903D01*
X35005817Y-104854692D01*
X34402302Y-104251177D01*
X33798787Y-104854692D01*
X30258436Y-104854692D01*
X30190390Y-104656646D01*
X30094218Y-104476724D01*
X29874669Y-104333810D01*
X28864079Y-105344400D01*
X28510525Y-105344400D01*
X27499935Y-104333810D01*
X27280386Y-104476724D01*
X27138144Y-104767872D01*
X27055435Y-105081175D01*
X27035438Y-105404595D01*
X26048326Y-105404595D01*
X26205941Y-105339309D01*
X26533610Y-105120367D01*
X26812269Y-104841708D01*
X27031211Y-104514039D01*
X27179087Y-104157033D01*
X27676712Y-104157033D01*
X28687302Y-105167623D01*
X29697745Y-104157180D01*
X33325277Y-104157180D01*
X33362121Y-104365707D01*
X33438939Y-104563038D01*
X33460799Y-104603934D01*
X33622010Y-104677915D01*
X34225525Y-104074400D01*
X34579079Y-104074400D01*
X35182594Y-104677915D01*
X35343805Y-104603934D01*
X35429021Y-104410081D01*
X35474781Y-104203327D01*
X35479327Y-103991620D01*
X35442483Y-103783093D01*
X35365665Y-103585762D01*
X35343805Y-103544866D01*
X35182594Y-103470885D01*
X34579079Y-104074400D01*
X34225525Y-104074400D01*
X33622010Y-103470885D01*
X33460799Y-103544866D01*
X33375583Y-103738719D01*
X33329823Y-103945473D01*
X33325277Y-104157180D01*
X29697745Y-104157180D01*
X29697892Y-104157033D01*
X29554978Y-103937484D01*
X29263830Y-103795242D01*
X28950527Y-103712533D01*
X28627107Y-103692536D01*
X28306001Y-103736020D01*
X27999548Y-103841312D01*
X27819626Y-103937484D01*
X27676712Y-104157033D01*
X27179087Y-104157033D01*
X27182020Y-104149953D01*
X27258902Y-103763442D01*
X27258902Y-103369358D01*
X27243934Y-103294108D01*
X33798787Y-103294108D01*
X34402302Y-103897623D01*
X35005817Y-103294108D01*
X34931836Y-103132897D01*
X34737983Y-103047681D01*
X34531229Y-103001921D01*
X34319522Y-102997375D01*
X34110995Y-103034219D01*
X33913664Y-103111037D01*
X33872768Y-103132897D01*
X33798787Y-103294108D01*
X27243934Y-103294108D01*
X27182020Y-102982847D01*
X27031211Y-102618761D01*
X26812269Y-102291092D01*
X26533610Y-102012433D01*
X26205941Y-101793491D01*
X25841855Y-101642682D01*
X25455344Y-101565800D01*
X25061260Y-101565800D01*
X24674749Y-101642682D01*
X24310663Y-101793491D01*
X23982994Y-102012433D01*
X23708302Y-102287125D01*
X23708302Y-94570522D01*
X26723302Y-94570522D01*
X26723302Y-94782278D01*
X26764614Y-94989966D01*
X26845650Y-95185603D01*
X26963295Y-95361672D01*
X27113030Y-95511407D01*
X27289099Y-95629052D01*
X27442034Y-95692400D01*
X27289099Y-95755748D01*
X27113030Y-95873393D01*
X26963295Y-96023128D01*
X26845650Y-96199197D01*
X26764614Y-96394834D01*
X26723302Y-96602522D01*
X26723302Y-96814278D01*
X26764614Y-97021966D01*
X26845650Y-97217603D01*
X26963295Y-97393672D01*
X27113030Y-97543407D01*
X27289099Y-97661052D01*
X27442034Y-97724400D01*
X27289099Y-97787748D01*
X27113030Y-97905393D01*
X26963295Y-98055128D01*
X26845650Y-98231197D01*
X26764614Y-98426834D01*
X26723302Y-98634522D01*
X26723302Y-98846278D01*
X26764614Y-99053966D01*
X26845650Y-99249603D01*
X26963295Y-99425672D01*
X27113030Y-99575407D01*
X27289099Y-99693052D01*
X27442034Y-99756400D01*
X27289099Y-99819748D01*
X27113030Y-99937393D01*
X26963295Y-100087128D01*
X26845650Y-100263197D01*
X26764614Y-100458834D01*
X26723302Y-100666522D01*
X26723302Y-100878278D01*
X26764614Y-101085966D01*
X26845650Y-101281603D01*
X26963295Y-101457672D01*
X27113030Y-101607407D01*
X27289099Y-101725052D01*
X27484736Y-101806088D01*
X27692424Y-101847400D01*
X27904180Y-101847400D01*
X28111868Y-101806088D01*
X28307505Y-101725052D01*
X28371155Y-101682522D01*
X33327302Y-101682522D01*
X33327302Y-101894278D01*
X33368614Y-102101966D01*
X33449650Y-102297603D01*
X33567295Y-102473672D01*
X33717030Y-102623407D01*
X33893099Y-102741052D01*
X34088736Y-102822088D01*
X34296424Y-102863400D01*
X34508180Y-102863400D01*
X34715868Y-102822088D01*
X34911505Y-102741052D01*
X35087574Y-102623407D01*
X35237309Y-102473672D01*
X35354954Y-102297603D01*
X35369121Y-102263400D01*
X37462970Y-102263400D01*
X37486302Y-102265698D01*
X37509634Y-102263400D01*
X37579418Y-102256527D01*
X37668956Y-102229366D01*
X37751475Y-102185259D01*
X37823803Y-102125901D01*
X37838686Y-102107766D01*
X38977673Y-100968780D01*
X38995803Y-100953901D01*
X39055161Y-100881573D01*
X39077345Y-100840069D01*
X47483302Y-100840069D01*
X47483302Y-100992731D01*
X47513085Y-101142459D01*
X47571506Y-101283500D01*
X47656320Y-101410434D01*
X47764268Y-101518382D01*
X47891202Y-101603196D01*
X48032243Y-101661617D01*
X48181971Y-101691400D01*
X48334633Y-101691400D01*
X48484361Y-101661617D01*
X48625402Y-101603196D01*
X48752336Y-101518382D01*
X48860284Y-101410434D01*
X48945098Y-101283500D01*
X49003519Y-101142459D01*
X49033302Y-100992731D01*
X49033302Y-100840069D01*
X49003519Y-100690341D01*
X48945098Y-100549300D01*
X48860284Y-100422366D01*
X48752336Y-100314418D01*
X48625402Y-100229604D01*
X48484361Y-100171183D01*
X48334633Y-100141400D01*
X48181971Y-100141400D01*
X48032243Y-100171183D01*
X47891202Y-100229604D01*
X47764268Y-100314418D01*
X47656320Y-100422366D01*
X47571506Y-100549300D01*
X47513085Y-100690341D01*
X47483302Y-100840069D01*
X39077345Y-100840069D01*
X39099268Y-100799054D01*
X39126429Y-100709516D01*
X39129407Y-100679284D01*
X39135600Y-100616401D01*
X39133302Y-100593069D01*
X39133302Y-99090069D01*
X57633302Y-99090069D01*
X57633302Y-99242731D01*
X57663085Y-99392459D01*
X57721506Y-99533500D01*
X57806320Y-99660434D01*
X57914268Y-99768382D01*
X58041202Y-99853196D01*
X58182243Y-99911617D01*
X58331971Y-99941400D01*
X58484633Y-99941400D01*
X58634361Y-99911617D01*
X58775402Y-99853196D01*
X58902336Y-99768382D01*
X59010284Y-99660434D01*
X59095098Y-99533500D01*
X59153519Y-99392459D01*
X59183302Y-99242731D01*
X59183302Y-99090069D01*
X59153519Y-98940341D01*
X59095098Y-98799300D01*
X59010284Y-98672366D01*
X58902336Y-98564418D01*
X58775402Y-98479604D01*
X58634361Y-98421183D01*
X58484633Y-98391400D01*
X58331971Y-98391400D01*
X58182243Y-98421183D01*
X58041202Y-98479604D01*
X57914268Y-98564418D01*
X57806320Y-98672366D01*
X57721506Y-98799300D01*
X57663085Y-98940341D01*
X57633302Y-99090069D01*
X39133302Y-99090069D01*
X39133302Y-95031100D01*
X39152336Y-95018382D01*
X39260284Y-94910434D01*
X39345098Y-94783500D01*
X39403519Y-94642459D01*
X39433302Y-94492731D01*
X39433302Y-94340069D01*
X39403519Y-94190341D01*
X39345098Y-94049300D01*
X39260284Y-93922366D01*
X39152336Y-93814418D01*
X39025402Y-93729604D01*
X38884361Y-93671183D01*
X38734633Y-93641400D01*
X38581971Y-93641400D01*
X38432243Y-93671183D01*
X38291202Y-93729604D01*
X38164268Y-93814418D01*
X38056320Y-93922366D01*
X37971506Y-94049300D01*
X37913085Y-94190341D01*
X37883302Y-94340069D01*
X37883302Y-94492731D01*
X37913085Y-94642459D01*
X37971506Y-94783500D01*
X38056320Y-94910434D01*
X38164268Y-95018382D01*
X38183302Y-95031100D01*
X38183303Y-100419648D01*
X37289552Y-101313400D01*
X35369121Y-101313400D01*
X35354954Y-101279197D01*
X35237309Y-101103128D01*
X35087574Y-100953393D01*
X34911505Y-100835748D01*
X34715868Y-100754712D01*
X34508180Y-100713400D01*
X34296424Y-100713400D01*
X34088736Y-100754712D01*
X33893099Y-100835748D01*
X33717030Y-100953393D01*
X33567295Y-101103128D01*
X33449650Y-101279197D01*
X33368614Y-101474834D01*
X33327302Y-101682522D01*
X28371155Y-101682522D01*
X28483574Y-101607407D01*
X28633309Y-101457672D01*
X28677590Y-101391400D01*
X30534970Y-101391400D01*
X30558302Y-101393698D01*
X30581634Y-101391400D01*
X30651418Y-101384527D01*
X30740956Y-101357366D01*
X30823475Y-101313259D01*
X30895803Y-101253901D01*
X30910686Y-101235766D01*
X33177674Y-98968779D01*
X33195803Y-98953901D01*
X33255161Y-98881573D01*
X33299268Y-98799054D01*
X33326429Y-98709516D01*
X33333302Y-98639732D01*
X33335600Y-98616401D01*
X33333302Y-98593069D01*
X33333302Y-95939729D01*
X33335600Y-95916399D01*
X33331364Y-95873393D01*
X33326429Y-95823284D01*
X33299268Y-95733746D01*
X33255161Y-95651227D01*
X33195803Y-95578899D01*
X33177673Y-95564020D01*
X32928836Y-95315183D01*
X32933302Y-95292731D01*
X32933302Y-95140069D01*
X32903519Y-94990341D01*
X32845098Y-94849300D01*
X32760284Y-94722366D01*
X32652336Y-94614418D01*
X32525402Y-94529604D01*
X32384361Y-94471183D01*
X32234633Y-94441400D01*
X32081971Y-94441400D01*
X31932243Y-94471183D01*
X31791202Y-94529604D01*
X31664268Y-94614418D01*
X31556320Y-94722366D01*
X31471506Y-94849300D01*
X31413085Y-94990341D01*
X31383302Y-95140069D01*
X31383302Y-95292731D01*
X31413085Y-95442459D01*
X31471506Y-95583500D01*
X31556320Y-95710434D01*
X31664268Y-95818382D01*
X31791202Y-95903196D01*
X31932243Y-95961617D01*
X32081971Y-95991400D01*
X32234633Y-95991400D01*
X32257085Y-95986934D01*
X32330651Y-96060499D01*
X32234633Y-96041400D01*
X32081971Y-96041400D01*
X31932243Y-96071183D01*
X31791202Y-96129604D01*
X31664268Y-96214418D01*
X31556320Y-96322366D01*
X31471506Y-96449300D01*
X31413085Y-96590341D01*
X31383302Y-96740069D01*
X31383302Y-96892731D01*
X31413085Y-97042459D01*
X31471506Y-97183500D01*
X31556320Y-97310434D01*
X31664268Y-97418382D01*
X31683302Y-97431100D01*
X31683303Y-98119647D01*
X30536804Y-99266148D01*
X30528954Y-99247197D01*
X30411309Y-99071128D01*
X30261574Y-98921393D01*
X30085505Y-98803748D01*
X29932570Y-98740400D01*
X30085505Y-98677052D01*
X30261574Y-98559407D01*
X30411309Y-98409672D01*
X30528954Y-98233603D01*
X30609990Y-98037966D01*
X30651302Y-97830278D01*
X30651302Y-97618522D01*
X30609990Y-97410834D01*
X30528954Y-97215197D01*
X30411309Y-97039128D01*
X30261574Y-96889393D01*
X30085505Y-96771748D01*
X29932570Y-96708400D01*
X30085505Y-96645052D01*
X30261574Y-96527407D01*
X30411309Y-96377672D01*
X30528954Y-96201603D01*
X30609990Y-96005966D01*
X30651302Y-95798278D01*
X30651302Y-95586522D01*
X30609990Y-95378834D01*
X30528954Y-95183197D01*
X30411309Y-95007128D01*
X30261574Y-94857393D01*
X30085505Y-94739748D01*
X29932570Y-94676400D01*
X30085505Y-94613052D01*
X30261574Y-94495407D01*
X30411309Y-94345672D01*
X30528954Y-94169603D01*
X30609990Y-93973966D01*
X30651302Y-93766278D01*
X30651302Y-93554522D01*
X30625478Y-93424692D01*
X33798787Y-93424692D01*
X33872768Y-93585903D01*
X34066621Y-93671119D01*
X34273375Y-93716879D01*
X34485082Y-93721425D01*
X34693609Y-93684581D01*
X34890940Y-93607763D01*
X34931836Y-93585903D01*
X35005817Y-93424692D01*
X34402302Y-92821177D01*
X33798787Y-93424692D01*
X30625478Y-93424692D01*
X30609990Y-93346834D01*
X30528954Y-93151197D01*
X30411309Y-92975128D01*
X30261574Y-92825393D01*
X30114588Y-92727180D01*
X33325277Y-92727180D01*
X33362121Y-92935707D01*
X33438939Y-93133038D01*
X33460799Y-93173934D01*
X33622010Y-93247915D01*
X34225525Y-92644400D01*
X34579079Y-92644400D01*
X35182594Y-93247915D01*
X35343805Y-93173934D01*
X35429021Y-92980081D01*
X35474781Y-92773327D01*
X35479327Y-92561620D01*
X35442483Y-92353093D01*
X35365665Y-92155762D01*
X35343805Y-92114866D01*
X35182594Y-92040885D01*
X34579079Y-92644400D01*
X34225525Y-92644400D01*
X33622010Y-92040885D01*
X33460799Y-92114866D01*
X33375583Y-92308719D01*
X33329823Y-92515473D01*
X33325277Y-92727180D01*
X30114588Y-92727180D01*
X30085505Y-92707748D01*
X29889868Y-92626712D01*
X29682180Y-92585400D01*
X29470424Y-92585400D01*
X29262736Y-92626712D01*
X29067099Y-92707748D01*
X28891030Y-92825393D01*
X28741295Y-92975128D01*
X28623650Y-93151197D01*
X28542614Y-93346834D01*
X28501302Y-93554522D01*
X28501302Y-93766278D01*
X28524355Y-93882174D01*
X28483574Y-93841393D01*
X28307505Y-93723748D01*
X28111868Y-93642712D01*
X27904180Y-93601400D01*
X27692424Y-93601400D01*
X27484736Y-93642712D01*
X27289099Y-93723748D01*
X27113030Y-93841393D01*
X26963295Y-93991128D01*
X26845650Y-94167197D01*
X26764614Y-94362834D01*
X26723302Y-94570522D01*
X23708302Y-94570522D01*
X23708302Y-92145675D01*
X23982994Y-92420367D01*
X24310663Y-92639309D01*
X24674749Y-92790118D01*
X25061260Y-92867000D01*
X25455344Y-92867000D01*
X25841855Y-92790118D01*
X26205941Y-92639309D01*
X26533610Y-92420367D01*
X26812269Y-92141708D01*
X26997755Y-91864108D01*
X33798787Y-91864108D01*
X34402302Y-92467623D01*
X35005817Y-91864108D01*
X34931836Y-91702897D01*
X34737983Y-91617681D01*
X34531229Y-91571921D01*
X34319522Y-91567375D01*
X34110995Y-91604219D01*
X33913664Y-91681037D01*
X33872768Y-91702897D01*
X33798787Y-91864108D01*
X26997755Y-91864108D01*
X27031211Y-91814039D01*
X27182020Y-91449953D01*
X27258902Y-91063442D01*
X27258902Y-90669358D01*
X27182020Y-90282847D01*
X27179088Y-90275767D01*
X27676712Y-90275767D01*
X27819626Y-90495316D01*
X28110774Y-90637558D01*
X28424077Y-90720267D01*
X28747497Y-90740264D01*
X29068603Y-90696780D01*
X29375056Y-90591488D01*
X29554978Y-90495316D01*
X29697892Y-90275767D01*
X29674647Y-90252522D01*
X33327302Y-90252522D01*
X33327302Y-90464278D01*
X33368614Y-90671966D01*
X33449650Y-90867603D01*
X33567295Y-91043672D01*
X33717030Y-91193407D01*
X33893099Y-91311052D01*
X34088736Y-91392088D01*
X34296424Y-91433400D01*
X34508180Y-91433400D01*
X34715868Y-91392088D01*
X34911505Y-91311052D01*
X35087574Y-91193407D01*
X35237309Y-91043672D01*
X35354954Y-90867603D01*
X35435990Y-90671966D01*
X35477302Y-90464278D01*
X35477302Y-90252522D01*
X35435990Y-90044834D01*
X35354954Y-89849197D01*
X35237309Y-89673128D01*
X35087574Y-89523393D01*
X34911505Y-89405748D01*
X34715868Y-89324712D01*
X34508180Y-89283400D01*
X34296424Y-89283400D01*
X34088736Y-89324712D01*
X33893099Y-89405748D01*
X33717030Y-89523393D01*
X33567295Y-89673128D01*
X33449650Y-89849197D01*
X33368614Y-90044834D01*
X33327302Y-90252522D01*
X29674647Y-90252522D01*
X28687302Y-89265177D01*
X27676712Y-90275767D01*
X27179088Y-90275767D01*
X27031211Y-89918761D01*
X26812269Y-89591092D01*
X26533610Y-89312433D01*
X26288410Y-89148595D01*
X27035438Y-89148595D01*
X27078922Y-89469701D01*
X27184214Y-89776154D01*
X27280386Y-89956076D01*
X27499935Y-90098990D01*
X28510525Y-89088400D01*
X28864079Y-89088400D01*
X29874669Y-90098990D01*
X30094218Y-89956076D01*
X30236460Y-89664928D01*
X30319169Y-89351625D01*
X30339166Y-89028205D01*
X30295682Y-88707099D01*
X30190390Y-88400646D01*
X30094218Y-88220724D01*
X29874669Y-88077810D01*
X28864079Y-89088400D01*
X28510525Y-89088400D01*
X27499935Y-88077810D01*
X27280386Y-88220724D01*
X27138144Y-88511872D01*
X27055435Y-88825175D01*
X27035438Y-89148595D01*
X26288410Y-89148595D01*
X26205941Y-89093491D01*
X25841855Y-88942682D01*
X25455344Y-88865800D01*
X25061260Y-88865800D01*
X24674749Y-88942682D01*
X24310663Y-89093491D01*
X23982994Y-89312433D01*
X23708302Y-89587125D01*
X23708302Y-87901033D01*
X27676712Y-87901033D01*
X28687302Y-88911623D01*
X29697892Y-87901033D01*
X29554978Y-87681484D01*
X29263830Y-87539242D01*
X28950527Y-87456533D01*
X28627107Y-87436536D01*
X28306001Y-87480020D01*
X27999548Y-87585312D01*
X27819626Y-87681484D01*
X27676712Y-87901033D01*
X23708302Y-87901033D01*
X23708302Y-87240069D01*
X57583302Y-87240069D01*
X57583302Y-87392731D01*
X57613085Y-87542459D01*
X57671506Y-87683500D01*
X57756320Y-87810434D01*
X57864268Y-87918382D01*
X57991202Y-88003196D01*
X58132243Y-88061617D01*
X58281971Y-88091400D01*
X58434633Y-88091400D01*
X58584361Y-88061617D01*
X58725402Y-88003196D01*
X58852336Y-87918382D01*
X58960284Y-87810434D01*
X59045098Y-87683500D01*
X59103519Y-87542459D01*
X59133302Y-87392731D01*
X59133302Y-87240069D01*
X59103519Y-87090341D01*
X59045098Y-86949300D01*
X58960284Y-86822366D01*
X58852336Y-86714418D01*
X58725402Y-86629604D01*
X58584361Y-86571183D01*
X58434633Y-86541400D01*
X58281971Y-86541400D01*
X58132243Y-86571183D01*
X57991202Y-86629604D01*
X57864268Y-86714418D01*
X57756320Y-86822366D01*
X57671506Y-86949300D01*
X57613085Y-87090341D01*
X57583302Y-87240069D01*
X23708302Y-87240069D01*
X23708302Y-84890069D01*
X77433302Y-84890069D01*
X77433302Y-85042731D01*
X77463085Y-85192459D01*
X77521506Y-85333500D01*
X77606320Y-85460434D01*
X77714268Y-85568382D01*
X77841202Y-85653196D01*
X77982243Y-85711617D01*
X78131971Y-85741400D01*
X78284633Y-85741400D01*
X78434361Y-85711617D01*
X78575402Y-85653196D01*
X78702336Y-85568382D01*
X78810284Y-85460434D01*
X78895098Y-85333500D01*
X78953519Y-85192459D01*
X78983302Y-85042731D01*
X78983302Y-84890069D01*
X78953519Y-84740341D01*
X78895098Y-84599300D01*
X78810284Y-84472366D01*
X78702336Y-84364418D01*
X78575402Y-84279604D01*
X78434361Y-84221183D01*
X78284633Y-84191400D01*
X78131971Y-84191400D01*
X77982243Y-84221183D01*
X77841202Y-84279604D01*
X77714268Y-84364418D01*
X77606320Y-84472366D01*
X77521506Y-84599300D01*
X77463085Y-84740341D01*
X77433302Y-84890069D01*
X23708302Y-84890069D01*
X23708302Y-81990069D01*
X60633302Y-81990069D01*
X60633302Y-82142731D01*
X60663085Y-82292459D01*
X60721506Y-82433500D01*
X60806320Y-82560434D01*
X60914268Y-82668382D01*
X61041202Y-82753196D01*
X61182243Y-82811617D01*
X61331971Y-82841400D01*
X61484633Y-82841400D01*
X61634361Y-82811617D01*
X61775402Y-82753196D01*
X61902336Y-82668382D01*
X62010284Y-82560434D01*
X62095098Y-82433500D01*
X62153519Y-82292459D01*
X62183302Y-82142731D01*
X62183302Y-81990069D01*
X62153519Y-81840341D01*
X62095098Y-81699300D01*
X62048941Y-81630220D01*
X76383302Y-81630220D01*
X76383302Y-81802580D01*
X76416928Y-81971628D01*
X76482887Y-82130868D01*
X76578645Y-82274180D01*
X76700522Y-82396057D01*
X76843834Y-82491815D01*
X77003074Y-82557774D01*
X77172122Y-82591400D01*
X77344482Y-82591400D01*
X77513530Y-82557774D01*
X77672770Y-82491815D01*
X77816082Y-82396057D01*
X77937959Y-82274180D01*
X78033717Y-82130868D01*
X78099676Y-81971628D01*
X78133302Y-81802580D01*
X78133302Y-81630220D01*
X78099676Y-81461172D01*
X78033717Y-81301932D01*
X77937959Y-81158620D01*
X77816082Y-81036743D01*
X77672770Y-80940985D01*
X77513530Y-80875026D01*
X77344482Y-80841400D01*
X77172122Y-80841400D01*
X77003074Y-80875026D01*
X76843834Y-80940985D01*
X76700522Y-81036743D01*
X76578645Y-81158620D01*
X76482887Y-81301932D01*
X76416928Y-81461172D01*
X76383302Y-81630220D01*
X62048941Y-81630220D01*
X62010284Y-81572366D01*
X61902336Y-81464418D01*
X61775402Y-81379604D01*
X61634361Y-81321183D01*
X61484633Y-81291400D01*
X61331971Y-81291400D01*
X61182243Y-81321183D01*
X61041202Y-81379604D01*
X60914268Y-81464418D01*
X60806320Y-81572366D01*
X60721506Y-81699300D01*
X60663085Y-81840341D01*
X60633302Y-81990069D01*
X23708302Y-81990069D01*
X23708302Y-80614220D01*
X81463302Y-80614220D01*
X81463302Y-80786580D01*
X81496928Y-80955628D01*
X81562887Y-81114868D01*
X81658645Y-81258180D01*
X81780522Y-81380057D01*
X81923834Y-81475815D01*
X82083074Y-81541774D01*
X82252122Y-81575400D01*
X82424482Y-81575400D01*
X82593530Y-81541774D01*
X82752770Y-81475815D01*
X82896082Y-81380057D01*
X83017959Y-81258180D01*
X83113717Y-81114868D01*
X83179676Y-80955628D01*
X83213302Y-80786580D01*
X83213302Y-80614220D01*
X83179676Y-80445172D01*
X83113717Y-80285932D01*
X83017959Y-80142620D01*
X82896082Y-80020743D01*
X82752770Y-79924985D01*
X82593530Y-79859026D01*
X82424482Y-79825400D01*
X82252122Y-79825400D01*
X82083074Y-79859026D01*
X81923834Y-79924985D01*
X81780522Y-80020743D01*
X81658645Y-80142620D01*
X81562887Y-80285932D01*
X81496928Y-80445172D01*
X81463302Y-80614220D01*
X23708302Y-80614220D01*
X23708302Y-79598220D01*
X76383302Y-79598220D01*
X76383302Y-79770580D01*
X76416928Y-79939628D01*
X76482887Y-80098868D01*
X76578645Y-80242180D01*
X76700522Y-80364057D01*
X76843834Y-80459815D01*
X77003074Y-80525774D01*
X77172122Y-80559400D01*
X77344482Y-80559400D01*
X77513530Y-80525774D01*
X77672770Y-80459815D01*
X77816082Y-80364057D01*
X77937959Y-80242180D01*
X78033717Y-80098868D01*
X78099676Y-79939628D01*
X78133302Y-79770580D01*
X78133302Y-79598220D01*
X78099676Y-79429172D01*
X78033717Y-79269932D01*
X77937959Y-79126620D01*
X77816082Y-79004743D01*
X77672770Y-78908985D01*
X77513530Y-78843026D01*
X77344482Y-78809400D01*
X77172122Y-78809400D01*
X77003074Y-78843026D01*
X76843834Y-78908985D01*
X76700522Y-79004743D01*
X76578645Y-79126620D01*
X76482887Y-79269932D01*
X76416928Y-79429172D01*
X76383302Y-79598220D01*
X23708302Y-79598220D01*
X23708302Y-77303006D01*
X23723106Y-77338746D01*
X24097931Y-77899710D01*
X24574992Y-78376771D01*
X25135956Y-78751596D01*
X25759266Y-79009779D01*
X26420969Y-79141400D01*
X27095635Y-79141400D01*
X27757338Y-79009779D01*
X28380648Y-78751596D01*
X28382933Y-78750069D01*
X80293302Y-78750069D01*
X80293302Y-78902731D01*
X80323085Y-79052459D01*
X80381506Y-79193500D01*
X80466320Y-79320434D01*
X80574268Y-79428382D01*
X80701202Y-79513196D01*
X80842243Y-79571617D01*
X80991971Y-79601400D01*
X81144633Y-79601400D01*
X81294361Y-79571617D01*
X81435402Y-79513196D01*
X81562336Y-79428382D01*
X81670284Y-79320434D01*
X81755098Y-79193500D01*
X81813519Y-79052459D01*
X81843302Y-78902731D01*
X81843302Y-78750069D01*
X81813519Y-78600341D01*
X81755098Y-78459300D01*
X81670284Y-78332366D01*
X81562336Y-78224418D01*
X81435402Y-78139604D01*
X81294361Y-78081183D01*
X81144633Y-78051400D01*
X80991971Y-78051400D01*
X80842243Y-78081183D01*
X80701202Y-78139604D01*
X80574268Y-78224418D01*
X80466320Y-78332366D01*
X80381506Y-78459300D01*
X80323085Y-78600341D01*
X80293302Y-78750069D01*
X28382933Y-78750069D01*
X28941612Y-78376771D01*
X29418673Y-77899710D01*
X29793498Y-77338746D01*
X30051681Y-76715436D01*
X30183302Y-76053733D01*
X30183302Y-75379067D01*
X30051681Y-74717364D01*
X29793498Y-74094054D01*
X29418673Y-73533090D01*
X28941612Y-73056029D01*
X28380648Y-72681204D01*
X28344908Y-72666400D01*
X98171696Y-72666400D01*
X98135956Y-72681204D01*
G04 #@! TD*
M02*
